<?xml version="1.0" encoding="utf-8" standalone="no"?>
<!DOCTYPE svg PUBLIC "-//W3C//DTD SVG 1.1//EN"
  "http://www.w3.org/Graphics/SVG/1.1/DTD/svg11.dtd">
<svg xmlns:xlink="http://www.w3.org/1999/xlink" width="1000.38875pt" height="451.337812pt" viewBox="0 0 1000.38875 451.337812" xmlns="http://www.w3.org/2000/svg" version="1.1">
 <metadata>
  <rdf:RDF xmlns:dc="http://purl.org/dc/elements/1.1/" xmlns:cc="http://creativecommons.org/ns#" xmlns:rdf="http://www.w3.org/1999/02/22-rdf-syntax-ns#">
   <cc:Work>
    <dc:type rdf:resource="http://purl.org/dc/dcmitype/StillImage"/>
    <dc:date>2026-05-11T10:24:43.679019</dc:date>
    <dc:format>image/svg+xml</dc:format>
    <dc:creator>
     <cc:Agent>
      <dc:title>Matplotlib v3.10.8, https://matplotlib.org/</dc:title>
     </cc:Agent>
    </dc:creator>
   </cc:Work>
  </rdf:RDF>
 </metadata>
 <defs>
  <style type="text/css">*{stroke-linejoin: round; stroke-linecap: butt}</style>
 </defs>
 <g id="figure_1">
  <g id="patch_1">
   <path d="M 0 451.337812 
L 1000.38875 451.337812 
L 1000.38875 0 
L 0 0 
z
" style="fill: #ffffff"/>
  </g>
  <g id="axes_1">
   <g id="patch_2">
    <path d="M 42.53875 384.737812 
L 510.71375 384.737812 
L 510.71375 27.837812 
L 42.53875 27.837812 
z
" style="fill: #ffffff"/>
   </g>
   <g id="FillBetweenPolyCollection_1">
    <defs>
     <path id="m5347661ba6" d="M 42.53875 -369.424242 
L 42.53875 -66.6 
L 97.618162 -66.6 
L 152.697574 -66.6 
L 207.776985 -66.6 
L 262.856397 -66.6 
L 317.935809 -66.6 
L 373.015221 -66.6 
L 428.094632 -66.6 
L 483.174044 -66.6 
L 483.174044 -66.6 
L 483.174044 -66.6 
L 428.094632 -66.6 
L 373.015221 -109.860606 
L 317.935809 -153.121212 
L 262.856397 -196.381818 
L 207.776985 -239.642424 
L 152.697574 -282.90303 
L 97.618162 -326.163636 
L 42.53875 -369.424242 
z
" style="stroke: #ff7f0e; stroke-opacity: 0.15"/>
    </defs>
    <g clip-path="url(#p6097a7d0cc)">
     <use xlink:href="#m5347661ba6" x="0" y="451.337812" style="fill: #ff7f0e; fill-opacity: 0.15; stroke: #ff7f0e; stroke-opacity: 0.15"/>
    </g>
   </g>
   <g id="matplotlib.axis_1">
    <g id="xtick_1">
     <g id="line2d_1">
      <path d="M 42.53875 384.737812 
L 42.53875 27.837812 
" clip-path="url(#p6097a7d0cc)" style="fill: none; stroke-dasharray: 2.96,1.28; stroke-dashoffset: 0; stroke: #b0b0b0; stroke-opacity: 0.4; stroke-width: 0.8"/>
     </g>
     <g id="line2d_2">
      <defs>
       <path id="mfbd8386dac" d="M 0 0 
L 0 3.5 
" style="stroke: #000000; stroke-width: 0.8"/>
      </defs>
      <g>
       <use xlink:href="#mfbd8386dac" x="42.53875" y="384.737812" style="stroke: #000000; stroke-width: 0.8"/>
      </g>
     </g>
     <g id="text_1">
      <!-- 0 -->
      <g transform="translate(39.3575 399.33625) scale(0.1 -0.1)">
       <defs>
        <path id="DejaVuSans-30" d="M 2034 4250 
Q 1547 4250 1301 3770 
Q 1056 3291 1056 2328 
Q 1056 1369 1301 889 
Q 1547 409 2034 409 
Q 2525 409 2770 889 
Q 3016 1369 3016 2328 
Q 3016 3291 2770 3770 
Q 2525 4250 2034 4250 
z
M 2034 4750 
Q 2819 4750 3233 4129 
Q 3647 3509 3647 2328 
Q 3647 1150 3233 529 
Q 2819 -91 2034 -91 
Q 1250 -91 836 529 
Q 422 1150 422 2328 
Q 422 3509 836 4129 
Q 1250 4750 2034 4750 
z
" transform="scale(0.015625)"/>
       </defs>
       <use xlink:href="#DejaVuSans-30"/>
      </g>
     </g>
    </g>
    <g id="xtick_2">
     <g id="line2d_3">
      <path d="M 97.618162 384.737812 
L 97.618162 27.837812 
" clip-path="url(#p6097a7d0cc)" style="fill: none; stroke-dasharray: 2.96,1.28; stroke-dashoffset: 0; stroke: #b0b0b0; stroke-opacity: 0.4; stroke-width: 0.8"/>
     </g>
     <g id="line2d_4">
      <g>
       <use xlink:href="#mfbd8386dac" x="97.618162" y="384.737812" style="stroke: #000000; stroke-width: 0.8"/>
      </g>
     </g>
     <g id="text_2">
      <!-- 1 -->
      <g transform="translate(94.436912 399.33625) scale(0.1 -0.1)">
       <defs>
        <path id="DejaVuSans-31" d="M 794 531 
L 1825 531 
L 1825 4091 
L 703 3866 
L 703 4441 
L 1819 4666 
L 2450 4666 
L 2450 531 
L 3481 531 
L 3481 0 
L 794 0 
L 794 531 
z
" transform="scale(0.015625)"/>
       </defs>
       <use xlink:href="#DejaVuSans-31"/>
      </g>
     </g>
    </g>
    <g id="xtick_3">
     <g id="line2d_5">
      <path d="M 152.697574 384.737812 
L 152.697574 27.837812 
" clip-path="url(#p6097a7d0cc)" style="fill: none; stroke-dasharray: 2.96,1.28; stroke-dashoffset: 0; stroke: #b0b0b0; stroke-opacity: 0.4; stroke-width: 0.8"/>
     </g>
     <g id="line2d_6">
      <g>
       <use xlink:href="#mfbd8386dac" x="152.697574" y="384.737812" style="stroke: #000000; stroke-width: 0.8"/>
      </g>
     </g>
     <g id="text_3">
      <!-- 2 -->
      <g transform="translate(149.516324 399.33625) scale(0.1 -0.1)">
       <defs>
        <path id="DejaVuSans-32" d="M 1228 531 
L 3431 531 
L 3431 0 
L 469 0 
L 469 531 
Q 828 903 1448 1529 
Q 2069 2156 2228 2338 
Q 2531 2678 2651 2914 
Q 2772 3150 2772 3378 
Q 2772 3750 2511 3984 
Q 2250 4219 1831 4219 
Q 1534 4219 1204 4116 
Q 875 4013 500 3803 
L 500 4441 
Q 881 4594 1212 4672 
Q 1544 4750 1819 4750 
Q 2544 4750 2975 4387 
Q 3406 4025 3406 3419 
Q 3406 3131 3298 2873 
Q 3191 2616 2906 2266 
Q 2828 2175 2409 1742 
Q 1991 1309 1228 531 
z
" transform="scale(0.015625)"/>
       </defs>
       <use xlink:href="#DejaVuSans-32"/>
      </g>
     </g>
    </g>
    <g id="xtick_4">
     <g id="line2d_7">
      <path d="M 207.776985 384.737812 
L 207.776985 27.837812 
" clip-path="url(#p6097a7d0cc)" style="fill: none; stroke-dasharray: 2.96,1.28; stroke-dashoffset: 0; stroke: #b0b0b0; stroke-opacity: 0.4; stroke-width: 0.8"/>
     </g>
     <g id="line2d_8">
      <g>
       <use xlink:href="#mfbd8386dac" x="207.776985" y="384.737812" style="stroke: #000000; stroke-width: 0.8"/>
      </g>
     </g>
     <g id="text_4">
      <!-- 3 -->
      <g transform="translate(204.595735 399.33625) scale(0.1 -0.1)">
       <defs>
        <path id="DejaVuSans-33" d="M 2597 2516 
Q 3050 2419 3304 2112 
Q 3559 1806 3559 1356 
Q 3559 666 3084 287 
Q 2609 -91 1734 -91 
Q 1441 -91 1130 -33 
Q 819 25 488 141 
L 488 750 
Q 750 597 1062 519 
Q 1375 441 1716 441 
Q 2309 441 2620 675 
Q 2931 909 2931 1356 
Q 2931 1769 2642 2001 
Q 2353 2234 1838 2234 
L 1294 2234 
L 1294 2753 
L 1863 2753 
Q 2328 2753 2575 2939 
Q 2822 3125 2822 3475 
Q 2822 3834 2567 4026 
Q 2313 4219 1838 4219 
Q 1578 4219 1281 4162 
Q 984 4106 628 3988 
L 628 4550 
Q 988 4650 1302 4700 
Q 1616 4750 1894 4750 
Q 2613 4750 3031 4423 
Q 3450 4097 3450 3541 
Q 3450 3153 3228 2886 
Q 3006 2619 2597 2516 
z
" transform="scale(0.015625)"/>
       </defs>
       <use xlink:href="#DejaVuSans-33"/>
      </g>
     </g>
    </g>
    <g id="xtick_5">
     <g id="line2d_9">
      <path d="M 262.856397 384.737812 
L 262.856397 27.837812 
" clip-path="url(#p6097a7d0cc)" style="fill: none; stroke-dasharray: 2.96,1.28; stroke-dashoffset: 0; stroke: #b0b0b0; stroke-opacity: 0.4; stroke-width: 0.8"/>
     </g>
     <g id="line2d_10">
      <g>
       <use xlink:href="#mfbd8386dac" x="262.856397" y="384.737812" style="stroke: #000000; stroke-width: 0.8"/>
      </g>
     </g>
     <g id="text_5">
      <!-- 4 -->
      <g transform="translate(259.675147 399.33625) scale(0.1 -0.1)">
       <defs>
        <path id="DejaVuSans-34" d="M 2419 4116 
L 825 1625 
L 2419 1625 
L 2419 4116 
z
M 2253 4666 
L 3047 4666 
L 3047 1625 
L 3713 1625 
L 3713 1100 
L 3047 1100 
L 3047 0 
L 2419 0 
L 2419 1100 
L 313 1100 
L 313 1709 
L 2253 4666 
z
" transform="scale(0.015625)"/>
       </defs>
       <use xlink:href="#DejaVuSans-34"/>
      </g>
     </g>
    </g>
    <g id="xtick_6">
     <g id="line2d_11">
      <path d="M 317.935809 384.737812 
L 317.935809 27.837812 
" clip-path="url(#p6097a7d0cc)" style="fill: none; stroke-dasharray: 2.96,1.28; stroke-dashoffset: 0; stroke: #b0b0b0; stroke-opacity: 0.4; stroke-width: 0.8"/>
     </g>
     <g id="line2d_12">
      <g>
       <use xlink:href="#mfbd8386dac" x="317.935809" y="384.737812" style="stroke: #000000; stroke-width: 0.8"/>
      </g>
     </g>
     <g id="text_6">
      <!-- 5 -->
      <g transform="translate(314.754559 399.33625) scale(0.1 -0.1)">
       <defs>
        <path id="DejaVuSans-35" d="M 691 4666 
L 3169 4666 
L 3169 4134 
L 1269 4134 
L 1269 2991 
Q 1406 3038 1543 3061 
Q 1681 3084 1819 3084 
Q 2600 3084 3056 2656 
Q 3513 2228 3513 1497 
Q 3513 744 3044 326 
Q 2575 -91 1722 -91 
Q 1428 -91 1123 -41 
Q 819 9 494 109 
L 494 744 
Q 775 591 1075 516 
Q 1375 441 1709 441 
Q 2250 441 2565 725 
Q 2881 1009 2881 1497 
Q 2881 1984 2565 2268 
Q 2250 2553 1709 2553 
Q 1456 2553 1204 2497 
Q 953 2441 691 2322 
L 691 4666 
z
" transform="scale(0.015625)"/>
       </defs>
       <use xlink:href="#DejaVuSans-35"/>
      </g>
     </g>
    </g>
    <g id="xtick_7">
     <g id="line2d_13">
      <path d="M 373.015221 384.737812 
L 373.015221 27.837812 
" clip-path="url(#p6097a7d0cc)" style="fill: none; stroke-dasharray: 2.96,1.28; stroke-dashoffset: 0; stroke: #b0b0b0; stroke-opacity: 0.4; stroke-width: 0.8"/>
     </g>
     <g id="line2d_14">
      <g>
       <use xlink:href="#mfbd8386dac" x="373.015221" y="384.737812" style="stroke: #000000; stroke-width: 0.8"/>
      </g>
     </g>
     <g id="text_7">
      <!-- 6 -->
      <g transform="translate(369.833971 399.33625) scale(0.1 -0.1)">
       <defs>
        <path id="DejaVuSans-36" d="M 2113 2584 
Q 1688 2584 1439 2293 
Q 1191 2003 1191 1497 
Q 1191 994 1439 701 
Q 1688 409 2113 409 
Q 2538 409 2786 701 
Q 3034 994 3034 1497 
Q 3034 2003 2786 2293 
Q 2538 2584 2113 2584 
z
M 3366 4563 
L 3366 3988 
Q 3128 4100 2886 4159 
Q 2644 4219 2406 4219 
Q 1781 4219 1451 3797 
Q 1122 3375 1075 2522 
Q 1259 2794 1537 2939 
Q 1816 3084 2150 3084 
Q 2853 3084 3261 2657 
Q 3669 2231 3669 1497 
Q 3669 778 3244 343 
Q 2819 -91 2113 -91 
Q 1303 -91 875 529 
Q 447 1150 447 2328 
Q 447 3434 972 4092 
Q 1497 4750 2381 4750 
Q 2619 4750 2861 4703 
Q 3103 4656 3366 4563 
z
" transform="scale(0.015625)"/>
       </defs>
       <use xlink:href="#DejaVuSans-36"/>
      </g>
     </g>
    </g>
    <g id="xtick_8">
     <g id="line2d_15">
      <path d="M 428.094632 384.737812 
L 428.094632 27.837812 
" clip-path="url(#p6097a7d0cc)" style="fill: none; stroke-dasharray: 2.96,1.28; stroke-dashoffset: 0; stroke: #b0b0b0; stroke-opacity: 0.4; stroke-width: 0.8"/>
     </g>
     <g id="line2d_16">
      <g>
       <use xlink:href="#mfbd8386dac" x="428.094632" y="384.737812" style="stroke: #000000; stroke-width: 0.8"/>
      </g>
     </g>
     <g id="text_8">
      <!-- 7 -->
      <g transform="translate(424.913382 399.33625) scale(0.1 -0.1)">
       <defs>
        <path id="DejaVuSans-37" d="M 525 4666 
L 3525 4666 
L 3525 4397 
L 1831 0 
L 1172 0 
L 2766 4134 
L 525 4134 
L 525 4666 
z
" transform="scale(0.015625)"/>
       </defs>
       <use xlink:href="#DejaVuSans-37"/>
      </g>
     </g>
    </g>
    <g id="xtick_9">
     <g id="line2d_17">
      <path d="M 483.174044 384.737812 
L 483.174044 27.837812 
" clip-path="url(#p6097a7d0cc)" style="fill: none; stroke-dasharray: 2.96,1.28; stroke-dashoffset: 0; stroke: #b0b0b0; stroke-opacity: 0.4; stroke-width: 0.8"/>
     </g>
     <g id="line2d_18">
      <g>
       <use xlink:href="#mfbd8386dac" x="483.174044" y="384.737812" style="stroke: #000000; stroke-width: 0.8"/>
      </g>
     </g>
     <g id="text_9">
      <!-- 8 -->
      <g transform="translate(479.992794 399.33625) scale(0.1 -0.1)">
       <defs>
        <path id="DejaVuSans-38" d="M 2034 2216 
Q 1584 2216 1326 1975 
Q 1069 1734 1069 1313 
Q 1069 891 1326 650 
Q 1584 409 2034 409 
Q 2484 409 2743 651 
Q 3003 894 3003 1313 
Q 3003 1734 2745 1975 
Q 2488 2216 2034 2216 
z
M 1403 2484 
Q 997 2584 770 2862 
Q 544 3141 544 3541 
Q 544 4100 942 4425 
Q 1341 4750 2034 4750 
Q 2731 4750 3128 4425 
Q 3525 4100 3525 3541 
Q 3525 3141 3298 2862 
Q 3072 2584 2669 2484 
Q 3125 2378 3379 2068 
Q 3634 1759 3634 1313 
Q 3634 634 3220 271 
Q 2806 -91 2034 -91 
Q 1263 -91 848 271 
Q 434 634 434 1313 
Q 434 1759 690 2068 
Q 947 2378 1403 2484 
z
M 1172 3481 
Q 1172 3119 1398 2916 
Q 1625 2713 2034 2713 
Q 2441 2713 2670 2916 
Q 2900 3119 2900 3481 
Q 2900 3844 2670 4047 
Q 2441 4250 2034 4250 
Q 1625 4250 1398 4047 
Q 1172 3844 1172 3481 
z
" transform="scale(0.015625)"/>
       </defs>
       <use xlink:href="#DejaVuSans-38"/>
      </g>
     </g>
    </g>
    <g id="text_10">
     <!-- Allocated Tier A (Firm Load) [MW] -->
     <g transform="translate(161.43 414.534062) scale(0.12 -0.12)">
      <defs>
       <path id="DejaVuSans-Bold-41" d="M 3419 850 
L 1538 850 
L 1241 0 
L 31 0 
L 1759 4666 
L 3194 4666 
L 4922 0 
L 3713 0 
L 3419 850 
z
M 1838 1716 
L 3116 1716 
L 2478 3572 
L 1838 1716 
z
" transform="scale(0.015625)"/>
       <path id="DejaVuSans-Bold-6c" d="M 538 4863 
L 1656 4863 
L 1656 0 
L 538 0 
L 538 4863 
z
" transform="scale(0.015625)"/>
       <path id="DejaVuSans-Bold-6f" d="M 2203 2784 
Q 1831 2784 1636 2517 
Q 1441 2250 1441 1747 
Q 1441 1244 1636 976 
Q 1831 709 2203 709 
Q 2569 709 2762 976 
Q 2956 1244 2956 1747 
Q 2956 2250 2762 2517 
Q 2569 2784 2203 2784 
z
M 2203 3584 
Q 3106 3584 3614 3096 
Q 4122 2609 4122 1747 
Q 4122 884 3614 396 
Q 3106 -91 2203 -91 
Q 1297 -91 786 396 
Q 275 884 275 1747 
Q 275 2609 786 3096 
Q 1297 3584 2203 3584 
z
" transform="scale(0.015625)"/>
       <path id="DejaVuSans-Bold-63" d="M 3366 3391 
L 3366 2478 
Q 3138 2634 2908 2709 
Q 2678 2784 2431 2784 
Q 1963 2784 1702 2511 
Q 1441 2238 1441 1747 
Q 1441 1256 1702 982 
Q 1963 709 2431 709 
Q 2694 709 2930 787 
Q 3166 866 3366 1019 
L 3366 103 
Q 3103 6 2833 -42 
Q 2563 -91 2291 -91 
Q 1344 -91 809 395 
Q 275 881 275 1747 
Q 275 2613 809 3098 
Q 1344 3584 2291 3584 
Q 2566 3584 2833 3536 
Q 3100 3488 3366 3391 
z
" transform="scale(0.015625)"/>
       <path id="DejaVuSans-Bold-61" d="M 2106 1575 
Q 1756 1575 1579 1456 
Q 1403 1338 1403 1106 
Q 1403 894 1545 773 
Q 1688 653 1941 653 
Q 2256 653 2472 879 
Q 2688 1106 2688 1447 
L 2688 1575 
L 2106 1575 
z
M 3816 1997 
L 3816 0 
L 2688 0 
L 2688 519 
Q 2463 200 2181 54 
Q 1900 -91 1497 -91 
Q 953 -91 614 226 
Q 275 544 275 1050 
Q 275 1666 698 1953 
Q 1122 2241 2028 2241 
L 2688 2241 
L 2688 2328 
Q 2688 2594 2478 2717 
Q 2269 2841 1825 2841 
Q 1466 2841 1156 2769 
Q 847 2697 581 2553 
L 581 3406 
Q 941 3494 1303 3539 
Q 1666 3584 2028 3584 
Q 2975 3584 3395 3211 
Q 3816 2838 3816 1997 
z
" transform="scale(0.015625)"/>
       <path id="DejaVuSans-Bold-74" d="M 1759 4494 
L 1759 3500 
L 2913 3500 
L 2913 2700 
L 1759 2700 
L 1759 1216 
Q 1759 972 1856 886 
Q 1953 800 2241 800 
L 2816 800 
L 2816 0 
L 1856 0 
Q 1194 0 917 276 
Q 641 553 641 1216 
L 641 2700 
L 84 2700 
L 84 3500 
L 641 3500 
L 641 4494 
L 1759 4494 
z
" transform="scale(0.015625)"/>
       <path id="DejaVuSans-Bold-65" d="M 4031 1759 
L 4031 1441 
L 1416 1441 
Q 1456 1047 1700 850 
Q 1944 653 2381 653 
Q 2734 653 3104 758 
Q 3475 863 3866 1075 
L 3866 213 
Q 3469 63 3072 -14 
Q 2675 -91 2278 -91 
Q 1328 -91 801 392 
Q 275 875 275 1747 
Q 275 2603 792 3093 
Q 1309 3584 2216 3584 
Q 3041 3584 3536 3087 
Q 4031 2591 4031 1759 
z
M 2881 2131 
Q 2881 2450 2695 2645 
Q 2509 2841 2209 2841 
Q 1884 2841 1681 2658 
Q 1478 2475 1428 2131 
L 2881 2131 
z
" transform="scale(0.015625)"/>
       <path id="DejaVuSans-Bold-64" d="M 2919 2988 
L 2919 4863 
L 4044 4863 
L 4044 0 
L 2919 0 
L 2919 506 
Q 2688 197 2409 53 
Q 2131 -91 1766 -91 
Q 1119 -91 703 423 
Q 288 938 288 1747 
Q 288 2556 703 3070 
Q 1119 3584 1766 3584 
Q 2128 3584 2408 3439 
Q 2688 3294 2919 2988 
z
M 2181 722 
Q 2541 722 2730 984 
Q 2919 1247 2919 1747 
Q 2919 2247 2730 2509 
Q 2541 2772 2181 2772 
Q 1825 2772 1636 2509 
Q 1447 2247 1447 1747 
Q 1447 1247 1636 984 
Q 1825 722 2181 722 
z
" transform="scale(0.015625)"/>
       <path id="DejaVuSans-Bold-20" transform="scale(0.015625)"/>
       <path id="DejaVuSans-Bold-54" d="M 31 4666 
L 4331 4666 
L 4331 3756 
L 2784 3756 
L 2784 0 
L 1581 0 
L 1581 3756 
L 31 3756 
L 31 4666 
z
" transform="scale(0.015625)"/>
       <path id="DejaVuSans-Bold-69" d="M 538 3500 
L 1656 3500 
L 1656 0 
L 538 0 
L 538 3500 
z
M 538 4863 
L 1656 4863 
L 1656 3950 
L 538 3950 
L 538 4863 
z
" transform="scale(0.015625)"/>
       <path id="DejaVuSans-Bold-72" d="M 3138 2547 
Q 2991 2616 2845 2648 
Q 2700 2681 2553 2681 
Q 2122 2681 1889 2404 
Q 1656 2128 1656 1613 
L 1656 0 
L 538 0 
L 538 3500 
L 1656 3500 
L 1656 2925 
Q 1872 3269 2151 3426 
Q 2431 3584 2822 3584 
Q 2878 3584 2943 3579 
Q 3009 3575 3134 3559 
L 3138 2547 
z
" transform="scale(0.015625)"/>
       <path id="DejaVuSans-Bold-28" d="M 2413 -844 
L 1484 -844 
Q 1006 -72 778 623 
Q 550 1319 550 2003 
Q 550 2688 779 3389 
Q 1009 4091 1484 4856 
L 2413 4856 
Q 2013 4116 1813 3408 
Q 1613 2700 1613 2009 
Q 1613 1319 1811 609 
Q 2009 -100 2413 -844 
z
" transform="scale(0.015625)"/>
       <path id="DejaVuSans-Bold-46" d="M 588 4666 
L 3834 4666 
L 3834 3756 
L 1791 3756 
L 1791 2888 
L 3713 2888 
L 3713 1978 
L 1791 1978 
L 1791 0 
L 588 0 
L 588 4666 
z
" transform="scale(0.015625)"/>
       <path id="DejaVuSans-Bold-6d" d="M 3781 2919 
Q 3994 3244 4286 3414 
Q 4578 3584 4928 3584 
Q 5531 3584 5847 3212 
Q 6163 2841 6163 2131 
L 6163 0 
L 5038 0 
L 5038 1825 
Q 5041 1866 5042 1909 
Q 5044 1953 5044 2034 
Q 5044 2406 4934 2573 
Q 4825 2741 4581 2741 
Q 4263 2741 4089 2478 
Q 3916 2216 3909 1719 
L 3909 0 
L 2784 0 
L 2784 1825 
Q 2784 2406 2684 2573 
Q 2584 2741 2328 2741 
Q 2006 2741 1831 2477 
Q 1656 2213 1656 1722 
L 1656 0 
L 531 0 
L 531 3500 
L 1656 3500 
L 1656 2988 
Q 1863 3284 2130 3434 
Q 2397 3584 2719 3584 
Q 3081 3584 3359 3409 
Q 3638 3234 3781 2919 
z
" transform="scale(0.015625)"/>
       <path id="DejaVuSans-Bold-4c" d="M 588 4666 
L 1791 4666 
L 1791 909 
L 3903 909 
L 3903 0 
L 588 0 
L 588 4666 
z
" transform="scale(0.015625)"/>
       <path id="DejaVuSans-Bold-29" d="M 513 -844 
Q 913 -100 1113 609 
Q 1313 1319 1313 2009 
Q 1313 2700 1113 3408 
Q 913 4116 513 4856 
L 1441 4856 
Q 1916 4091 2145 3389 
Q 2375 2688 2375 2003 
Q 2375 1319 2147 623 
Q 1919 -72 1441 -844 
L 513 -844 
z
" transform="scale(0.015625)"/>
       <path id="DejaVuSans-Bold-5b" d="M 550 4863 
L 2491 4863 
L 2491 4159 
L 1613 4159 
L 1613 -141 
L 2491 -141 
L 2491 -844 
L 550 -844 
L 550 4863 
z
" transform="scale(0.015625)"/>
       <path id="DejaVuSans-Bold-4d" d="M 588 4666 
L 2119 4666 
L 3181 2169 
L 4250 4666 
L 5778 4666 
L 5778 0 
L 4641 0 
L 4641 3413 
L 3566 897 
L 2803 897 
L 1728 3413 
L 1728 0 
L 588 0 
L 588 4666 
z
" transform="scale(0.015625)"/>
       <path id="DejaVuSans-Bold-57" d="M 191 4666 
L 1344 4666 
L 2150 1275 
L 2950 4666 
L 4109 4666 
L 4909 1275 
L 5716 4666 
L 6859 4666 
L 5759 0 
L 4372 0 
L 3525 3547 
L 2688 0 
L 1300 0 
L 191 4666 
z
" transform="scale(0.015625)"/>
       <path id="DejaVuSans-Bold-5d" d="M 2375 -844 
L 434 -844 
L 434 -141 
L 1313 -141 
L 1313 4159 
L 434 4159 
L 434 4863 
L 2375 4863 
L 2375 -844 
z
" transform="scale(0.015625)"/>
      </defs>
      <use xlink:href="#DejaVuSans-Bold-41"/>
      <use xlink:href="#DejaVuSans-Bold-6c" transform="translate(77.392578 0)"/>
      <use xlink:href="#DejaVuSans-Bold-6c" transform="translate(111.669922 0)"/>
      <use xlink:href="#DejaVuSans-Bold-6f" transform="translate(145.947266 0)"/>
      <use xlink:href="#DejaVuSans-Bold-63" transform="translate(214.648438 0)"/>
      <use xlink:href="#DejaVuSans-Bold-61" transform="translate(273.925781 0)"/>
      <use xlink:href="#DejaVuSans-Bold-74" transform="translate(341.40625 0)"/>
      <use xlink:href="#DejaVuSans-Bold-65" transform="translate(389.208984 0)"/>
      <use xlink:href="#DejaVuSans-Bold-64" transform="translate(457.03125 0)"/>
      <use xlink:href="#DejaVuSans-Bold-20" transform="translate(528.613281 0)"/>
      <use xlink:href="#DejaVuSans-Bold-54" transform="translate(563.427734 0)"/>
      <use xlink:href="#DejaVuSans-Bold-69" transform="translate(631.640625 0)"/>
      <use xlink:href="#DejaVuSans-Bold-65" transform="translate(665.917969 0)"/>
      <use xlink:href="#DejaVuSans-Bold-72" transform="translate(733.740234 0)"/>
      <use xlink:href="#DejaVuSans-Bold-20" transform="translate(783.056641 0)"/>
      <use xlink:href="#DejaVuSans-Bold-41" transform="translate(817.871094 0)"/>
      <use xlink:href="#DejaVuSans-Bold-20" transform="translate(895.263672 0)"/>
      <use xlink:href="#DejaVuSans-Bold-28" transform="translate(930.078125 0)"/>
      <use xlink:href="#DejaVuSans-Bold-46" transform="translate(975.78125 0)"/>
      <use xlink:href="#DejaVuSans-Bold-69" transform="translate(1044.091797 0)"/>
      <use xlink:href="#DejaVuSans-Bold-72" transform="translate(1078.369141 0)"/>
      <use xlink:href="#DejaVuSans-Bold-6d" transform="translate(1127.685547 0)"/>
      <use xlink:href="#DejaVuSans-Bold-20" transform="translate(1231.884766 0)"/>
      <use xlink:href="#DejaVuSans-Bold-4c" transform="translate(1266.699219 0)"/>
      <use xlink:href="#DejaVuSans-Bold-6f" transform="translate(1330.419922 0)"/>
      <use xlink:href="#DejaVuSans-Bold-61" transform="translate(1399.121094 0)"/>
      <use xlink:href="#DejaVuSans-Bold-64" transform="translate(1466.601562 0)"/>
      <use xlink:href="#DejaVuSans-Bold-29" transform="translate(1538.183594 0)"/>
      <use xlink:href="#DejaVuSans-Bold-20" transform="translate(1583.886719 0)"/>
      <use xlink:href="#DejaVuSans-Bold-5b" transform="translate(1618.701172 0)"/>
      <use xlink:href="#DejaVuSans-Bold-4d" transform="translate(1664.404297 0)"/>
      <use xlink:href="#DejaVuSans-Bold-57" transform="translate(1763.916016 0)"/>
      <use xlink:href="#DejaVuSans-Bold-5d" transform="translate(1874.21875 0)"/>
     </g>
    </g>
   </g>
   <g id="matplotlib.axis_2">
    <g id="ytick_1">
     <g id="line2d_19">
      <path d="M 42.53875 384.737812 
L 510.71375 384.737812 
" clip-path="url(#p6097a7d0cc)" style="fill: none; stroke-dasharray: 2.96,1.28; stroke-dashoffset: 0; stroke: #b0b0b0; stroke-opacity: 0.4; stroke-width: 0.8"/>
     </g>
     <g id="line2d_20">
      <defs>
       <path id="maad2dd45cf" d="M 0 0 
L -3.5 0 
" style="stroke: #000000; stroke-width: 0.8"/>
      </defs>
      <g>
       <use xlink:href="#maad2dd45cf" x="42.53875" y="384.737812" style="stroke: #000000; stroke-width: 0.8"/>
      </g>
     </g>
     <g id="text_11">
      <!-- 0 -->
      <g transform="translate(29.17625 388.537031) scale(0.1 -0.1)">
       <use xlink:href="#DejaVuSans-30"/>
      </g>
     </g>
    </g>
    <g id="ytick_2">
     <g id="line2d_21">
      <path d="M 42.53875 341.477206 
L 510.71375 341.477206 
" clip-path="url(#p6097a7d0cc)" style="fill: none; stroke-dasharray: 2.96,1.28; stroke-dashoffset: 0; stroke: #b0b0b0; stroke-opacity: 0.4; stroke-width: 0.8"/>
     </g>
     <g id="line2d_22">
      <g>
       <use xlink:href="#maad2dd45cf" x="42.53875" y="341.477206" style="stroke: #000000; stroke-width: 0.8"/>
      </g>
     </g>
     <g id="text_12">
      <!-- 2 -->
      <g transform="translate(29.17625 345.276425) scale(0.1 -0.1)">
       <use xlink:href="#DejaVuSans-32"/>
      </g>
     </g>
    </g>
    <g id="ytick_3">
     <g id="line2d_23">
      <path d="M 42.53875 298.2166 
L 510.71375 298.2166 
" clip-path="url(#p6097a7d0cc)" style="fill: none; stroke-dasharray: 2.96,1.28; stroke-dashoffset: 0; stroke: #b0b0b0; stroke-opacity: 0.4; stroke-width: 0.8"/>
     </g>
     <g id="line2d_24">
      <g>
       <use xlink:href="#maad2dd45cf" x="42.53875" y="298.2166" style="stroke: #000000; stroke-width: 0.8"/>
      </g>
     </g>
     <g id="text_13">
      <!-- 4 -->
      <g transform="translate(29.17625 302.015819) scale(0.1 -0.1)">
       <use xlink:href="#DejaVuSans-34"/>
      </g>
     </g>
    </g>
    <g id="ytick_4">
     <g id="line2d_25">
      <path d="M 42.53875 254.955994 
L 510.71375 254.955994 
" clip-path="url(#p6097a7d0cc)" style="fill: none; stroke-dasharray: 2.96,1.28; stroke-dashoffset: 0; stroke: #b0b0b0; stroke-opacity: 0.4; stroke-width: 0.8"/>
     </g>
     <g id="line2d_26">
      <g>
       <use xlink:href="#maad2dd45cf" x="42.53875" y="254.955994" style="stroke: #000000; stroke-width: 0.8"/>
      </g>
     </g>
     <g id="text_14">
      <!-- 6 -->
      <g transform="translate(29.17625 258.755213) scale(0.1 -0.1)">
       <use xlink:href="#DejaVuSans-36"/>
      </g>
     </g>
    </g>
    <g id="ytick_5">
     <g id="line2d_27">
      <path d="M 42.53875 211.695388 
L 510.71375 211.695388 
" clip-path="url(#p6097a7d0cc)" style="fill: none; stroke-dasharray: 2.96,1.28; stroke-dashoffset: 0; stroke: #b0b0b0; stroke-opacity: 0.4; stroke-width: 0.8"/>
     </g>
     <g id="line2d_28">
      <g>
       <use xlink:href="#maad2dd45cf" x="42.53875" y="211.695388" style="stroke: #000000; stroke-width: 0.8"/>
      </g>
     </g>
     <g id="text_15">
      <!-- 8 -->
      <g transform="translate(29.17625 215.494607) scale(0.1 -0.1)">
       <use xlink:href="#DejaVuSans-38"/>
      </g>
     </g>
    </g>
    <g id="ytick_6">
     <g id="line2d_29">
      <path d="M 42.53875 168.434782 
L 510.71375 168.434782 
" clip-path="url(#p6097a7d0cc)" style="fill: none; stroke-dasharray: 2.96,1.28; stroke-dashoffset: 0; stroke: #b0b0b0; stroke-opacity: 0.4; stroke-width: 0.8"/>
     </g>
     <g id="line2d_30">
      <g>
       <use xlink:href="#maad2dd45cf" x="42.53875" y="168.434782" style="stroke: #000000; stroke-width: 0.8"/>
      </g>
     </g>
     <g id="text_16">
      <!-- 10 -->
      <g transform="translate(22.81375 172.234001) scale(0.1 -0.1)">
       <use xlink:href="#DejaVuSans-31"/>
       <use xlink:href="#DejaVuSans-30" transform="translate(63.623047 0)"/>
      </g>
     </g>
    </g>
    <g id="ytick_7">
     <g id="line2d_31">
      <path d="M 42.53875 125.174176 
L 510.71375 125.174176 
" clip-path="url(#p6097a7d0cc)" style="fill: none; stroke-dasharray: 2.96,1.28; stroke-dashoffset: 0; stroke: #b0b0b0; stroke-opacity: 0.4; stroke-width: 0.8"/>
     </g>
     <g id="line2d_32">
      <g>
       <use xlink:href="#maad2dd45cf" x="42.53875" y="125.174176" style="stroke: #000000; stroke-width: 0.8"/>
      </g>
     </g>
     <g id="text_17">
      <!-- 12 -->
      <g transform="translate(22.81375 128.973395) scale(0.1 -0.1)">
       <use xlink:href="#DejaVuSans-31"/>
       <use xlink:href="#DejaVuSans-32" transform="translate(63.623047 0)"/>
      </g>
     </g>
    </g>
    <g id="ytick_8">
     <g id="line2d_33">
      <path d="M 42.53875 81.91357 
L 510.71375 81.91357 
" clip-path="url(#p6097a7d0cc)" style="fill: none; stroke-dasharray: 2.96,1.28; stroke-dashoffset: 0; stroke: #b0b0b0; stroke-opacity: 0.4; stroke-width: 0.8"/>
     </g>
     <g id="line2d_34">
      <g>
       <use xlink:href="#maad2dd45cf" x="42.53875" y="81.91357" style="stroke: #000000; stroke-width: 0.8"/>
      </g>
     </g>
     <g id="text_18">
      <!-- 14 -->
      <g transform="translate(22.81375 85.712789) scale(0.1 -0.1)">
       <use xlink:href="#DejaVuSans-31"/>
       <use xlink:href="#DejaVuSans-34" transform="translate(63.623047 0)"/>
      </g>
     </g>
    </g>
    <g id="ytick_9">
     <g id="line2d_35">
      <path d="M 42.53875 38.652964 
L 510.71375 38.652964 
" clip-path="url(#p6097a7d0cc)" style="fill: none; stroke-dasharray: 2.96,1.28; stroke-dashoffset: 0; stroke: #b0b0b0; stroke-opacity: 0.4; stroke-width: 0.8"/>
     </g>
     <g id="line2d_36">
      <g>
       <use xlink:href="#maad2dd45cf" x="42.53875" y="38.652964" style="stroke: #000000; stroke-width: 0.8"/>
      </g>
     </g>
     <g id="text_19">
      <!-- 16 -->
      <g transform="translate(22.81375 42.452183) scale(0.1 -0.1)">
       <use xlink:href="#DejaVuSans-31"/>
       <use xlink:href="#DejaVuSans-36" transform="translate(63.623047 0)"/>
      </g>
     </g>
    </g>
    <g id="text_20">
     <!-- Max Feasible Flexible Load [MW] -->
     <g transform="translate(16.318125 317.495) rotate(-90) scale(0.12 -0.12)">
      <defs>
       <path id="DejaVuSans-Bold-78" d="M 1422 1791 
L 159 3500 
L 1344 3500 
L 2059 2463 
L 2784 3500 
L 3969 3500 
L 2706 1797 
L 4031 0 
L 2847 0 
L 2059 1106 
L 1281 0 
L 97 0 
L 1422 1791 
z
" transform="scale(0.015625)"/>
       <path id="DejaVuSans-Bold-73" d="M 3272 3391 
L 3272 2541 
Q 2913 2691 2578 2766 
Q 2244 2841 1947 2841 
Q 1628 2841 1473 2761 
Q 1319 2681 1319 2516 
Q 1319 2381 1436 2309 
Q 1553 2238 1856 2203 
L 2053 2175 
Q 2913 2066 3209 1816 
Q 3506 1566 3506 1031 
Q 3506 472 3093 190 
Q 2681 -91 1863 -91 
Q 1516 -91 1145 -36 
Q 775 19 384 128 
L 384 978 
Q 719 816 1070 734 
Q 1422 653 1784 653 
Q 2113 653 2278 743 
Q 2444 834 2444 1013 
Q 2444 1163 2330 1236 
Q 2216 1309 1875 1350 
L 1678 1375 
Q 931 1469 631 1722 
Q 331 1975 331 2491 
Q 331 3047 712 3315 
Q 1094 3584 1881 3584 
Q 2191 3584 2531 3537 
Q 2872 3491 3272 3391 
z
" transform="scale(0.015625)"/>
       <path id="DejaVuSans-Bold-62" d="M 2400 722 
Q 2759 722 2948 984 
Q 3138 1247 3138 1747 
Q 3138 2247 2948 2509 
Q 2759 2772 2400 2772 
Q 2041 2772 1848 2508 
Q 1656 2244 1656 1747 
Q 1656 1250 1848 986 
Q 2041 722 2400 722 
z
M 1656 2988 
Q 1888 3294 2169 3439 
Q 2450 3584 2816 3584 
Q 3463 3584 3878 3070 
Q 4294 2556 4294 1747 
Q 4294 938 3878 423 
Q 3463 -91 2816 -91 
Q 2450 -91 2169 54 
Q 1888 200 1656 506 
L 1656 0 
L 538 0 
L 538 4863 
L 1656 4863 
L 1656 2988 
z
" transform="scale(0.015625)"/>
      </defs>
      <use xlink:href="#DejaVuSans-Bold-4d"/>
      <use xlink:href="#DejaVuSans-Bold-61" transform="translate(99.511719 0)"/>
      <use xlink:href="#DejaVuSans-Bold-78" transform="translate(166.992188 0)"/>
      <use xlink:href="#DejaVuSans-Bold-20" transform="translate(231.494141 0)"/>
      <use xlink:href="#DejaVuSans-Bold-46" transform="translate(266.308594 0)"/>
      <use xlink:href="#DejaVuSans-Bold-65" transform="translate(330.619141 0)"/>
      <use xlink:href="#DejaVuSans-Bold-61" transform="translate(398.441406 0)"/>
      <use xlink:href="#DejaVuSans-Bold-73" transform="translate(465.921875 0)"/>
      <use xlink:href="#DejaVuSans-Bold-69" transform="translate(525.443359 0)"/>
      <use xlink:href="#DejaVuSans-Bold-62" transform="translate(559.720703 0)"/>
      <use xlink:href="#DejaVuSans-Bold-6c" transform="translate(631.302734 0)"/>
      <use xlink:href="#DejaVuSans-Bold-65" transform="translate(665.580078 0)"/>
      <use xlink:href="#DejaVuSans-Bold-20" transform="translate(733.402344 0)"/>
      <use xlink:href="#DejaVuSans-Bold-46" transform="translate(768.216797 0)"/>
      <use xlink:href="#DejaVuSans-Bold-6c" transform="translate(836.527344 0)"/>
      <use xlink:href="#DejaVuSans-Bold-65" transform="translate(870.804688 0)"/>
      <use xlink:href="#DejaVuSans-Bold-78" transform="translate(938.626953 0)"/>
      <use xlink:href="#DejaVuSans-Bold-69" transform="translate(1003.128906 0)"/>
      <use xlink:href="#DejaVuSans-Bold-62" transform="translate(1037.40625 0)"/>
      <use xlink:href="#DejaVuSans-Bold-6c" transform="translate(1108.988281 0)"/>
      <use xlink:href="#DejaVuSans-Bold-65" transform="translate(1143.265625 0)"/>
      <use xlink:href="#DejaVuSans-Bold-20" transform="translate(1211.087891 0)"/>
      <use xlink:href="#DejaVuSans-Bold-4c" transform="translate(1245.902344 0)"/>
      <use xlink:href="#DejaVuSans-Bold-6f" transform="translate(1309.623047 0)"/>
      <use xlink:href="#DejaVuSans-Bold-61" transform="translate(1378.324219 0)"/>
      <use xlink:href="#DejaVuSans-Bold-64" transform="translate(1445.804688 0)"/>
      <use xlink:href="#DejaVuSans-Bold-20" transform="translate(1517.386719 0)"/>
      <use xlink:href="#DejaVuSans-Bold-5b" transform="translate(1552.201172 0)"/>
      <use xlink:href="#DejaVuSans-Bold-4d" transform="translate(1597.904297 0)"/>
      <use xlink:href="#DejaVuSans-Bold-57" transform="translate(1697.416016 0)"/>
      <use xlink:href="#DejaVuSans-Bold-5d" transform="translate(1807.71875 0)"/>
     </g>
    </g>
   </g>
   <g id="line2d_37">
    <path d="M 42.53875 38.652964 
L 97.618162 60.283267 
L 152.697574 81.91357 
L 207.776985 103.543873 
L 262.856397 125.174176 
L 317.935809 146.804479 
L 373.015221 168.434782 
L 428.094632 190.065085 
L 483.174044 211.695388 
" clip-path="url(#p6097a7d0cc)" style="fill: none; stroke-dasharray: 7.4,3.2; stroke-dashoffset: 0; stroke: #d62728; stroke-width: 2"/>
   </g>
   <g id="line2d_38">
    <path d="M 42.53875 81.91357 
L 97.618162 125.174176 
L 152.697574 168.434782 
L 207.776985 211.695388 
L 262.856397 254.955994 
L 317.935809 298.2166 
L 373.015221 341.477206 
L 428.094632 384.737812 
L 483.174044 384.737812 
" clip-path="url(#p6097a7d0cc)" style="fill: none; stroke: #ff7f0e; stroke-width: 3; stroke-linecap: square"/>
    <defs>
     <path id="maa13114a38" d="M -3 3 
L 3 3 
L 3 -3 
L -3 -3 
z
" style="stroke: #ff7f0e; stroke-linejoin: miter"/>
    </defs>
    <g clip-path="url(#p6097a7d0cc)">
     <use xlink:href="#maa13114a38" x="42.53875" y="81.91357" style="fill: #ff7f0e; stroke: #ff7f0e; stroke-linejoin: miter"/>
     <use xlink:href="#maa13114a38" x="97.618162" y="125.174176" style="fill: #ff7f0e; stroke: #ff7f0e; stroke-linejoin: miter"/>
     <use xlink:href="#maa13114a38" x="152.697574" y="168.434782" style="fill: #ff7f0e; stroke: #ff7f0e; stroke-linejoin: miter"/>
     <use xlink:href="#maa13114a38" x="207.776985" y="211.695388" style="fill: #ff7f0e; stroke: #ff7f0e; stroke-linejoin: miter"/>
     <use xlink:href="#maa13114a38" x="262.856397" y="254.955994" style="fill: #ff7f0e; stroke: #ff7f0e; stroke-linejoin: miter"/>
     <use xlink:href="#maa13114a38" x="317.935809" y="298.2166" style="fill: #ff7f0e; stroke: #ff7f0e; stroke-linejoin: miter"/>
     <use xlink:href="#maa13114a38" x="373.015221" y="341.477206" style="fill: #ff7f0e; stroke: #ff7f0e; stroke-linejoin: miter"/>
     <use xlink:href="#maa13114a38" x="428.094632" y="384.737812" style="fill: #ff7f0e; stroke: #ff7f0e; stroke-linejoin: miter"/>
     <use xlink:href="#maa13114a38" x="483.174044" y="384.737812" style="fill: #ff7f0e; stroke: #ff7f0e; stroke-linejoin: miter"/>
    </g>
   </g>
   <g id="patch_3">
    <path d="M 42.53875 384.737812 
L 42.53875 27.837812 
" style="fill: none; stroke: #000000; stroke-width: 0.8; stroke-linejoin: miter; stroke-linecap: square"/>
   </g>
   <g id="patch_4">
    <path d="M 42.53875 384.737812 
L 510.71375 384.737812 
" style="fill: none; stroke: #000000; stroke-width: 0.8; stroke-linejoin: miter; stroke-linecap: square"/>
   </g>
   <g id="text_21">
    <!-- A. Firm vs. Daily Workloads -->
    <g style="fill: #333333" transform="translate(167.965469 17.837812) scale(0.14 -0.14)">
     <defs>
      <path id="DejaVuSans-Bold-2e" d="M 653 1209 
L 1778 1209 
L 1778 0 
L 653 0 
L 653 1209 
z
" transform="scale(0.015625)"/>
      <path id="DejaVuSans-Bold-76" d="M 97 3500 
L 1216 3500 
L 2088 1081 
L 2956 3500 
L 4078 3500 
L 2700 0 
L 1472 0 
L 97 3500 
z
" transform="scale(0.015625)"/>
      <path id="DejaVuSans-Bold-44" d="M 1791 3756 
L 1791 909 
L 2222 909 
Q 2959 909 3348 1275 
Q 3738 1641 3738 2338 
Q 3738 3031 3350 3393 
Q 2963 3756 2222 3756 
L 1791 3756 
z
M 588 4666 
L 1856 4666 
Q 2919 4666 3439 4514 
Q 3959 4363 4331 4000 
Q 4659 3684 4818 3271 
Q 4978 2859 4978 2338 
Q 4978 1809 4818 1395 
Q 4659 981 4331 666 
Q 3956 303 3431 151 
Q 2906 0 1856 0 
L 588 0 
L 588 4666 
z
" transform="scale(0.015625)"/>
      <path id="DejaVuSans-Bold-79" d="M 78 3500 
L 1197 3500 
L 2138 1125 
L 2938 3500 
L 4056 3500 
L 2584 -331 
Q 2363 -916 2067 -1148 
Q 1772 -1381 1288 -1381 
L 641 -1381 
L 641 -647 
L 991 -647 
Q 1275 -647 1404 -556 
Q 1534 -466 1606 -231 
L 1638 -134 
L 78 3500 
z
" transform="scale(0.015625)"/>
      <path id="DejaVuSans-Bold-6b" d="M 538 4863 
L 1656 4863 
L 1656 2216 
L 2944 3500 
L 4244 3500 
L 2534 1894 
L 4378 0 
L 3022 0 
L 1656 1459 
L 1656 0 
L 538 0 
L 538 4863 
z
" transform="scale(0.015625)"/>
     </defs>
     <use xlink:href="#DejaVuSans-Bold-41"/>
     <use xlink:href="#DejaVuSans-Bold-2e" transform="translate(79.267578 0)"/>
     <use xlink:href="#DejaVuSans-Bold-20" transform="translate(117.255859 0)"/>
     <use xlink:href="#DejaVuSans-Bold-46" transform="translate(152.070312 0)"/>
     <use xlink:href="#DejaVuSans-Bold-69" transform="translate(220.380859 0)"/>
     <use xlink:href="#DejaVuSans-Bold-72" transform="translate(254.658203 0)"/>
     <use xlink:href="#DejaVuSans-Bold-6d" transform="translate(303.974609 0)"/>
     <use xlink:href="#DejaVuSans-Bold-20" transform="translate(408.173828 0)"/>
     <use xlink:href="#DejaVuSans-Bold-76" transform="translate(442.988281 0)"/>
     <use xlink:href="#DejaVuSans-Bold-73" transform="translate(508.173828 0)"/>
     <use xlink:href="#DejaVuSans-Bold-2e" transform="translate(567.695312 0)"/>
     <use xlink:href="#DejaVuSans-Bold-20" transform="translate(605.683594 0)"/>
     <use xlink:href="#DejaVuSans-Bold-44" transform="translate(640.498047 0)"/>
     <use xlink:href="#DejaVuSans-Bold-61" transform="translate(723.505859 0)"/>
     <use xlink:href="#DejaVuSans-Bold-69" transform="translate(790.986328 0)"/>
     <use xlink:href="#DejaVuSans-Bold-6c" transform="translate(825.263672 0)"/>
     <use xlink:href="#DejaVuSans-Bold-79" transform="translate(859.541016 0)"/>
     <use xlink:href="#DejaVuSans-Bold-20" transform="translate(924.726562 0)"/>
     <use xlink:href="#DejaVuSans-Bold-57" transform="translate(959.541016 0)"/>
     <use xlink:href="#DejaVuSans-Bold-6f" transform="translate(1066.21875 0)"/>
     <use xlink:href="#DejaVuSans-Bold-72" transform="translate(1134.919922 0)"/>
     <use xlink:href="#DejaVuSans-Bold-6b" transform="translate(1184.236328 0)"/>
     <use xlink:href="#DejaVuSans-Bold-6c" transform="translate(1250.740234 0)"/>
     <use xlink:href="#DejaVuSans-Bold-6f" transform="translate(1285.017578 0)"/>
     <use xlink:href="#DejaVuSans-Bold-61" transform="translate(1353.71875 0)"/>
     <use xlink:href="#DejaVuSans-Bold-64" transform="translate(1421.199219 0)"/>
     <use xlink:href="#DejaVuSans-Bold-73" transform="translate(1492.78125 0)"/>
    </g>
   </g>
  </g>
  <g id="axes_2">
   <g id="patch_5">
    <path d="M 525.01375 384.737812 
L 993.18875 384.737812 
L 993.18875 27.837812 
L 525.01375 27.837812 
z
" style="fill: #ffffff"/>
   </g>
   <g id="FillBetweenPolyCollection_2">
    <defs>
     <path id="m0c080d8b86" d="M 525.01375 -412.684848 
L 525.01375 -66.6 
L 580.093162 -66.6 
L 635.172574 -66.6 
L 690.251985 -66.6 
L 745.331397 -66.6 
L 800.410809 -66.6 
L 855.490221 -66.6 
L 910.569632 -66.6 
L 965.649044 -66.6 
L 965.649044 -239.642424 
L 965.649044 -239.642424 
L 910.569632 -261.272727 
L 855.490221 -282.90303 
L 800.410809 -304.533333 
L 745.331397 -326.163636 
L 690.251985 -347.793939 
L 635.172574 -369.424242 
L 580.093162 -391.054545 
L 525.01375 -412.684848 
z
" style="stroke: #2ca02c; stroke-opacity: 0.15"/>
    </defs>
    <g clip-path="url(#p93f698f829)">
     <use xlink:href="#m0c080d8b86" x="0" y="451.337812" style="fill: #2ca02c; fill-opacity: 0.15; stroke: #2ca02c; stroke-opacity: 0.15"/>
    </g>
   </g>
   <g id="matplotlib.axis_3">
    <g id="xtick_10">
     <g id="line2d_39">
      <path d="M 525.01375 384.737812 
L 525.01375 27.837812 
" clip-path="url(#p93f698f829)" style="fill: none; stroke-dasharray: 2.96,1.28; stroke-dashoffset: 0; stroke: #b0b0b0; stroke-opacity: 0.4; stroke-width: 0.8"/>
     </g>
     <g id="line2d_40">
      <g>
       <use xlink:href="#mfbd8386dac" x="525.01375" y="384.737812" style="stroke: #000000; stroke-width: 0.8"/>
      </g>
     </g>
     <g id="text_22">
      <!-- 0 -->
      <g transform="translate(521.8325 399.33625) scale(0.1 -0.1)">
       <use xlink:href="#DejaVuSans-30"/>
      </g>
     </g>
    </g>
    <g id="xtick_11">
     <g id="line2d_41">
      <path d="M 580.093162 384.737812 
L 580.093162 27.837812 
" clip-path="url(#p93f698f829)" style="fill: none; stroke-dasharray: 2.96,1.28; stroke-dashoffset: 0; stroke: #b0b0b0; stroke-opacity: 0.4; stroke-width: 0.8"/>
     </g>
     <g id="line2d_42">
      <g>
       <use xlink:href="#mfbd8386dac" x="580.093162" y="384.737812" style="stroke: #000000; stroke-width: 0.8"/>
      </g>
     </g>
     <g id="text_23">
      <!-- 1 -->
      <g transform="translate(576.911912 399.33625) scale(0.1 -0.1)">
       <use xlink:href="#DejaVuSans-31"/>
      </g>
     </g>
    </g>
    <g id="xtick_12">
     <g id="line2d_43">
      <path d="M 635.172574 384.737812 
L 635.172574 27.837812 
" clip-path="url(#p93f698f829)" style="fill: none; stroke-dasharray: 2.96,1.28; stroke-dashoffset: 0; stroke: #b0b0b0; stroke-opacity: 0.4; stroke-width: 0.8"/>
     </g>
     <g id="line2d_44">
      <g>
       <use xlink:href="#mfbd8386dac" x="635.172574" y="384.737812" style="stroke: #000000; stroke-width: 0.8"/>
      </g>
     </g>
     <g id="text_24">
      <!-- 2 -->
      <g transform="translate(631.991324 399.33625) scale(0.1 -0.1)">
       <use xlink:href="#DejaVuSans-32"/>
      </g>
     </g>
    </g>
    <g id="xtick_13">
     <g id="line2d_45">
      <path d="M 690.251985 384.737812 
L 690.251985 27.837812 
" clip-path="url(#p93f698f829)" style="fill: none; stroke-dasharray: 2.96,1.28; stroke-dashoffset: 0; stroke: #b0b0b0; stroke-opacity: 0.4; stroke-width: 0.8"/>
     </g>
     <g id="line2d_46">
      <g>
       <use xlink:href="#mfbd8386dac" x="690.251985" y="384.737812" style="stroke: #000000; stroke-width: 0.8"/>
      </g>
     </g>
     <g id="text_25">
      <!-- 3 -->
      <g transform="translate(687.070735 399.33625) scale(0.1 -0.1)">
       <use xlink:href="#DejaVuSans-33"/>
      </g>
     </g>
    </g>
    <g id="xtick_14">
     <g id="line2d_47">
      <path d="M 745.331397 384.737812 
L 745.331397 27.837812 
" clip-path="url(#p93f698f829)" style="fill: none; stroke-dasharray: 2.96,1.28; stroke-dashoffset: 0; stroke: #b0b0b0; stroke-opacity: 0.4; stroke-width: 0.8"/>
     </g>
     <g id="line2d_48">
      <g>
       <use xlink:href="#mfbd8386dac" x="745.331397" y="384.737812" style="stroke: #000000; stroke-width: 0.8"/>
      </g>
     </g>
     <g id="text_26">
      <!-- 4 -->
      <g transform="translate(742.150147 399.33625) scale(0.1 -0.1)">
       <use xlink:href="#DejaVuSans-34"/>
      </g>
     </g>
    </g>
    <g id="xtick_15">
     <g id="line2d_49">
      <path d="M 800.410809 384.737812 
L 800.410809 27.837812 
" clip-path="url(#p93f698f829)" style="fill: none; stroke-dasharray: 2.96,1.28; stroke-dashoffset: 0; stroke: #b0b0b0; stroke-opacity: 0.4; stroke-width: 0.8"/>
     </g>
     <g id="line2d_50">
      <g>
       <use xlink:href="#mfbd8386dac" x="800.410809" y="384.737812" style="stroke: #000000; stroke-width: 0.8"/>
      </g>
     </g>
     <g id="text_27">
      <!-- 5 -->
      <g transform="translate(797.229559 399.33625) scale(0.1 -0.1)">
       <use xlink:href="#DejaVuSans-35"/>
      </g>
     </g>
    </g>
    <g id="xtick_16">
     <g id="line2d_51">
      <path d="M 855.490221 384.737812 
L 855.490221 27.837812 
" clip-path="url(#p93f698f829)" style="fill: none; stroke-dasharray: 2.96,1.28; stroke-dashoffset: 0; stroke: #b0b0b0; stroke-opacity: 0.4; stroke-width: 0.8"/>
     </g>
     <g id="line2d_52">
      <g>
       <use xlink:href="#mfbd8386dac" x="855.490221" y="384.737812" style="stroke: #000000; stroke-width: 0.8"/>
      </g>
     </g>
     <g id="text_28">
      <!-- 6 -->
      <g transform="translate(852.308971 399.33625) scale(0.1 -0.1)">
       <use xlink:href="#DejaVuSans-36"/>
      </g>
     </g>
    </g>
    <g id="xtick_17">
     <g id="line2d_53">
      <path d="M 910.569632 384.737812 
L 910.569632 27.837812 
" clip-path="url(#p93f698f829)" style="fill: none; stroke-dasharray: 2.96,1.28; stroke-dashoffset: 0; stroke: #b0b0b0; stroke-opacity: 0.4; stroke-width: 0.8"/>
     </g>
     <g id="line2d_54">
      <g>
       <use xlink:href="#mfbd8386dac" x="910.569632" y="384.737812" style="stroke: #000000; stroke-width: 0.8"/>
      </g>
     </g>
     <g id="text_29">
      <!-- 7 -->
      <g transform="translate(907.388382 399.33625) scale(0.1 -0.1)">
       <use xlink:href="#DejaVuSans-37"/>
      </g>
     </g>
    </g>
    <g id="xtick_18">
     <g id="line2d_55">
      <path d="M 965.649044 384.737812 
L 965.649044 27.837812 
" clip-path="url(#p93f698f829)" style="fill: none; stroke-dasharray: 2.96,1.28; stroke-dashoffset: 0; stroke: #b0b0b0; stroke-opacity: 0.4; stroke-width: 0.8"/>
     </g>
     <g id="line2d_56">
      <g>
       <use xlink:href="#mfbd8386dac" x="965.649044" y="384.737812" style="stroke: #000000; stroke-width: 0.8"/>
      </g>
     </g>
     <g id="text_30">
      <!-- 8 -->
      <g transform="translate(962.467794 399.33625) scale(0.1 -0.1)">
       <use xlink:href="#DejaVuSans-38"/>
      </g>
     </g>
    </g>
    <g id="text_31">
     <!-- Allocated Tier A (Firm Load) [MW] -->
     <g transform="translate(643.905 414.534062) scale(0.12 -0.12)">
      <use xlink:href="#DejaVuSans-Bold-41"/>
      <use xlink:href="#DejaVuSans-Bold-6c" transform="translate(77.392578 0)"/>
      <use xlink:href="#DejaVuSans-Bold-6c" transform="translate(111.669922 0)"/>
      <use xlink:href="#DejaVuSans-Bold-6f" transform="translate(145.947266 0)"/>
      <use xlink:href="#DejaVuSans-Bold-63" transform="translate(214.648438 0)"/>
      <use xlink:href="#DejaVuSans-Bold-61" transform="translate(273.925781 0)"/>
      <use xlink:href="#DejaVuSans-Bold-74" transform="translate(341.40625 0)"/>
      <use xlink:href="#DejaVuSans-Bold-65" transform="translate(389.208984 0)"/>
      <use xlink:href="#DejaVuSans-Bold-64" transform="translate(457.03125 0)"/>
      <use xlink:href="#DejaVuSans-Bold-20" transform="translate(528.613281 0)"/>
      <use xlink:href="#DejaVuSans-Bold-54" transform="translate(563.427734 0)"/>
      <use xlink:href="#DejaVuSans-Bold-69" transform="translate(631.640625 0)"/>
      <use xlink:href="#DejaVuSans-Bold-65" transform="translate(665.917969 0)"/>
      <use xlink:href="#DejaVuSans-Bold-72" transform="translate(733.740234 0)"/>
      <use xlink:href="#DejaVuSans-Bold-20" transform="translate(783.056641 0)"/>
      <use xlink:href="#DejaVuSans-Bold-41" transform="translate(817.871094 0)"/>
      <use xlink:href="#DejaVuSans-Bold-20" transform="translate(895.263672 0)"/>
      <use xlink:href="#DejaVuSans-Bold-28" transform="translate(930.078125 0)"/>
      <use xlink:href="#DejaVuSans-Bold-46" transform="translate(975.78125 0)"/>
      <use xlink:href="#DejaVuSans-Bold-69" transform="translate(1044.091797 0)"/>
      <use xlink:href="#DejaVuSans-Bold-72" transform="translate(1078.369141 0)"/>
      <use xlink:href="#DejaVuSans-Bold-6d" transform="translate(1127.685547 0)"/>
      <use xlink:href="#DejaVuSans-Bold-20" transform="translate(1231.884766 0)"/>
      <use xlink:href="#DejaVuSans-Bold-4c" transform="translate(1266.699219 0)"/>
      <use xlink:href="#DejaVuSans-Bold-6f" transform="translate(1330.419922 0)"/>
      <use xlink:href="#DejaVuSans-Bold-61" transform="translate(1399.121094 0)"/>
      <use xlink:href="#DejaVuSans-Bold-64" transform="translate(1466.601562 0)"/>
      <use xlink:href="#DejaVuSans-Bold-29" transform="translate(1538.183594 0)"/>
      <use xlink:href="#DejaVuSans-Bold-20" transform="translate(1583.886719 0)"/>
      <use xlink:href="#DejaVuSans-Bold-5b" transform="translate(1618.701172 0)"/>
      <use xlink:href="#DejaVuSans-Bold-4d" transform="translate(1664.404297 0)"/>
      <use xlink:href="#DejaVuSans-Bold-57" transform="translate(1763.916016 0)"/>
      <use xlink:href="#DejaVuSans-Bold-5d" transform="translate(1874.21875 0)"/>
     </g>
    </g>
   </g>
   <g id="matplotlib.axis_4">
    <g id="ytick_10">
     <g id="line2d_57">
      <path d="M 525.01375 384.737812 
L 993.18875 384.737812 
" clip-path="url(#p93f698f829)" style="fill: none; stroke-dasharray: 2.96,1.28; stroke-dashoffset: 0; stroke: #b0b0b0; stroke-opacity: 0.4; stroke-width: 0.8"/>
     </g>
     <g id="line2d_58">
      <g>
       <use xlink:href="#maad2dd45cf" x="525.01375" y="384.737812" style="stroke: #000000; stroke-width: 0.8"/>
      </g>
     </g>
    </g>
    <g id="ytick_11">
     <g id="line2d_59">
      <path d="M 525.01375 341.477206 
L 993.18875 341.477206 
" clip-path="url(#p93f698f829)" style="fill: none; stroke-dasharray: 2.96,1.28; stroke-dashoffset: 0; stroke: #b0b0b0; stroke-opacity: 0.4; stroke-width: 0.8"/>
     </g>
     <g id="line2d_60">
      <g>
       <use xlink:href="#maad2dd45cf" x="525.01375" y="341.477206" style="stroke: #000000; stroke-width: 0.8"/>
      </g>
     </g>
    </g>
    <g id="ytick_12">
     <g id="line2d_61">
      <path d="M 525.01375 298.2166 
L 993.18875 298.2166 
" clip-path="url(#p93f698f829)" style="fill: none; stroke-dasharray: 2.96,1.28; stroke-dashoffset: 0; stroke: #b0b0b0; stroke-opacity: 0.4; stroke-width: 0.8"/>
     </g>
     <g id="line2d_62">
      <g>
       <use xlink:href="#maad2dd45cf" x="525.01375" y="298.2166" style="stroke: #000000; stroke-width: 0.8"/>
      </g>
     </g>
    </g>
    <g id="ytick_13">
     <g id="line2d_63">
      <path d="M 525.01375 254.955994 
L 993.18875 254.955994 
" clip-path="url(#p93f698f829)" style="fill: none; stroke-dasharray: 2.96,1.28; stroke-dashoffset: 0; stroke: #b0b0b0; stroke-opacity: 0.4; stroke-width: 0.8"/>
     </g>
     <g id="line2d_64">
      <g>
       <use xlink:href="#maad2dd45cf" x="525.01375" y="254.955994" style="stroke: #000000; stroke-width: 0.8"/>
      </g>
     </g>
    </g>
    <g id="ytick_14">
     <g id="line2d_65">
      <path d="M 525.01375 211.695388 
L 993.18875 211.695388 
" clip-path="url(#p93f698f829)" style="fill: none; stroke-dasharray: 2.96,1.28; stroke-dashoffset: 0; stroke: #b0b0b0; stroke-opacity: 0.4; stroke-width: 0.8"/>
     </g>
     <g id="line2d_66">
      <g>
       <use xlink:href="#maad2dd45cf" x="525.01375" y="211.695388" style="stroke: #000000; stroke-width: 0.8"/>
      </g>
     </g>
    </g>
    <g id="ytick_15">
     <g id="line2d_67">
      <path d="M 525.01375 168.434782 
L 993.18875 168.434782 
" clip-path="url(#p93f698f829)" style="fill: none; stroke-dasharray: 2.96,1.28; stroke-dashoffset: 0; stroke: #b0b0b0; stroke-opacity: 0.4; stroke-width: 0.8"/>
     </g>
     <g id="line2d_68">
      <g>
       <use xlink:href="#maad2dd45cf" x="525.01375" y="168.434782" style="stroke: #000000; stroke-width: 0.8"/>
      </g>
     </g>
    </g>
    <g id="ytick_16">
     <g id="line2d_69">
      <path d="M 525.01375 125.174176 
L 993.18875 125.174176 
" clip-path="url(#p93f698f829)" style="fill: none; stroke-dasharray: 2.96,1.28; stroke-dashoffset: 0; stroke: #b0b0b0; stroke-opacity: 0.4; stroke-width: 0.8"/>
     </g>
     <g id="line2d_70">
      <g>
       <use xlink:href="#maad2dd45cf" x="525.01375" y="125.174176" style="stroke: #000000; stroke-width: 0.8"/>
      </g>
     </g>
    </g>
    <g id="ytick_17">
     <g id="line2d_71">
      <path d="M 525.01375 81.91357 
L 993.18875 81.91357 
" clip-path="url(#p93f698f829)" style="fill: none; stroke-dasharray: 2.96,1.28; stroke-dashoffset: 0; stroke: #b0b0b0; stroke-opacity: 0.4; stroke-width: 0.8"/>
     </g>
     <g id="line2d_72">
      <g>
       <use xlink:href="#maad2dd45cf" x="525.01375" y="81.91357" style="stroke: #000000; stroke-width: 0.8"/>
      </g>
     </g>
    </g>
    <g id="ytick_18">
     <g id="line2d_73">
      <path d="M 525.01375 38.652964 
L 993.18875 38.652964 
" clip-path="url(#p93f698f829)" style="fill: none; stroke-dasharray: 2.96,1.28; stroke-dashoffset: 0; stroke: #b0b0b0; stroke-opacity: 0.4; stroke-width: 0.8"/>
     </g>
     <g id="line2d_74">
      <g>
       <use xlink:href="#maad2dd45cf" x="525.01375" y="38.652964" style="stroke: #000000; stroke-width: 0.8"/>
      </g>
     </g>
    </g>
   </g>
   <g id="line2d_75">
    <path d="M 525.01375 38.652964 
L 580.093162 60.283267 
L 635.172574 81.91357 
L 690.251985 103.543873 
L 745.331397 125.174176 
L 800.410809 146.804479 
L 855.490221 168.434782 
L 910.569632 190.065085 
L 965.649044 211.695388 
" clip-path="url(#p93f698f829)" style="fill: none; stroke-dasharray: 7.4,3.2; stroke-dashoffset: 0; stroke: #d62728; stroke-width: 2"/>
   </g>
   <g id="line2d_76">
    <path d="M 525.01375 38.652964 
L 580.093162 60.283267 
L 635.172574 81.91357 
L 690.251985 103.543873 
L 745.331397 125.174176 
L 800.410809 146.804479 
L 855.490221 168.434782 
L 910.569632 190.065085 
L 965.649044 211.695388 
" clip-path="url(#p93f698f829)" style="fill: none; stroke: #2ca02c; stroke-width: 3; stroke-linecap: square"/>
    <defs>
     <path id="m3a1d6d57ab" d="M 0 -3 
L -3 3 
L 3 3 
z
" style="stroke: #2ca02c; stroke-linejoin: miter"/>
    </defs>
    <g clip-path="url(#p93f698f829)">
     <use xlink:href="#m3a1d6d57ab" x="525.01375" y="38.652964" style="fill: #2ca02c; stroke: #2ca02c; stroke-linejoin: miter"/>
     <use xlink:href="#m3a1d6d57ab" x="580.093162" y="60.283267" style="fill: #2ca02c; stroke: #2ca02c; stroke-linejoin: miter"/>
     <use xlink:href="#m3a1d6d57ab" x="635.172574" y="81.91357" style="fill: #2ca02c; stroke: #2ca02c; stroke-linejoin: miter"/>
     <use xlink:href="#m3a1d6d57ab" x="690.251985" y="103.543873" style="fill: #2ca02c; stroke: #2ca02c; stroke-linejoin: miter"/>
     <use xlink:href="#m3a1d6d57ab" x="745.331397" y="125.174176" style="fill: #2ca02c; stroke: #2ca02c; stroke-linejoin: miter"/>
     <use xlink:href="#m3a1d6d57ab" x="800.410809" y="146.804479" style="fill: #2ca02c; stroke: #2ca02c; stroke-linejoin: miter"/>
     <use xlink:href="#m3a1d6d57ab" x="855.490221" y="168.434782" style="fill: #2ca02c; stroke: #2ca02c; stroke-linejoin: miter"/>
     <use xlink:href="#m3a1d6d57ab" x="910.569632" y="190.065085" style="fill: #2ca02c; stroke: #2ca02c; stroke-linejoin: miter"/>
     <use xlink:href="#m3a1d6d57ab" x="965.649044" y="211.695388" style="fill: #2ca02c; stroke: #2ca02c; stroke-linejoin: miter"/>
    </g>
   </g>
   <g id="patch_6">
    <path d="M 525.01375 384.737812 
L 525.01375 27.837812 
" style="fill: none; stroke: #000000; stroke-width: 0.8; stroke-linejoin: miter; stroke-linecap: square"/>
   </g>
   <g id="patch_7">
    <path d="M 525.01375 384.737812 
L 993.18875 384.737812 
" style="fill: none; stroke: #000000; stroke-width: 0.8; stroke-linejoin: miter; stroke-linecap: square"/>
   </g>
   <g id="text_32">
    <!-- B. Firm vs. Weekly Workloads -->
    <g style="fill: #333333" transform="translate(641.970469 17.837812) scale(0.14 -0.14)">
     <defs>
      <path id="DejaVuSans-Bold-42" d="M 2456 2859 
Q 2741 2859 2887 2984 
Q 3034 3109 3034 3353 
Q 3034 3594 2887 3720 
Q 2741 3847 2456 3847 
L 1791 3847 
L 1791 2859 
L 2456 2859 
z
M 2497 819 
Q 2859 819 3042 972 
Q 3225 1125 3225 1434 
Q 3225 1738 3044 1889 
Q 2863 2041 2497 2041 
L 1791 2041 
L 1791 819 
L 2497 819 
z
M 3616 2497 
Q 4003 2384 4215 2081 
Q 4428 1778 4428 1338 
Q 4428 663 3972 331 
Q 3516 0 2584 0 
L 588 0 
L 588 4666 
L 2394 4666 
Q 3366 4666 3802 4372 
Q 4238 4078 4238 3431 
Q 4238 3091 4078 2852 
Q 3919 2613 3616 2497 
z
" transform="scale(0.015625)"/>
     </defs>
     <use xlink:href="#DejaVuSans-Bold-42"/>
     <use xlink:href="#DejaVuSans-Bold-2e" transform="translate(76.220703 0)"/>
     <use xlink:href="#DejaVuSans-Bold-20" transform="translate(114.208984 0)"/>
     <use xlink:href="#DejaVuSans-Bold-46" transform="translate(149.023438 0)"/>
     <use xlink:href="#DejaVuSans-Bold-69" transform="translate(217.333984 0)"/>
     <use xlink:href="#DejaVuSans-Bold-72" transform="translate(251.611328 0)"/>
     <use xlink:href="#DejaVuSans-Bold-6d" transform="translate(300.927734 0)"/>
     <use xlink:href="#DejaVuSans-Bold-20" transform="translate(405.126953 0)"/>
     <use xlink:href="#DejaVuSans-Bold-76" transform="translate(439.941406 0)"/>
     <use xlink:href="#DejaVuSans-Bold-73" transform="translate(505.126953 0)"/>
     <use xlink:href="#DejaVuSans-Bold-2e" transform="translate(564.648438 0)"/>
     <use xlink:href="#DejaVuSans-Bold-20" transform="translate(602.636719 0)"/>
     <use xlink:href="#DejaVuSans-Bold-57" transform="translate(637.451172 0)"/>
     <use xlink:href="#DejaVuSans-Bold-65" transform="translate(744.128906 0)"/>
     <use xlink:href="#DejaVuSans-Bold-65" transform="translate(811.951172 0)"/>
     <use xlink:href="#DejaVuSans-Bold-6b" transform="translate(879.773438 0)"/>
     <use xlink:href="#DejaVuSans-Bold-6c" transform="translate(946.277344 0)"/>
     <use xlink:href="#DejaVuSans-Bold-79" transform="translate(980.554688 0)"/>
     <use xlink:href="#DejaVuSans-Bold-20" transform="translate(1045.740234 0)"/>
     <use xlink:href="#DejaVuSans-Bold-57" transform="translate(1080.554688 0)"/>
     <use xlink:href="#DejaVuSans-Bold-6f" transform="translate(1187.232422 0)"/>
     <use xlink:href="#DejaVuSans-Bold-72" transform="translate(1255.933594 0)"/>
     <use xlink:href="#DejaVuSans-Bold-6b" transform="translate(1305.25 0)"/>
     <use xlink:href="#DejaVuSans-Bold-6c" transform="translate(1371.753906 0)"/>
     <use xlink:href="#DejaVuSans-Bold-6f" transform="translate(1406.03125 0)"/>
     <use xlink:href="#DejaVuSans-Bold-61" transform="translate(1474.732422 0)"/>
     <use xlink:href="#DejaVuSans-Bold-64" transform="translate(1542.212891 0)"/>
     <use xlink:href="#DejaVuSans-Bold-73" transform="translate(1613.794922 0)"/>
    </g>
   </g>
  </g>
  <g id="legend_1">
   <g id="line2d_77">
    <path d="M 151.849922 417.454219 
L 162.849922 417.454219 
L 173.849922 417.454219 
" style="fill: none; stroke-dasharray: 7.4,3.2; stroke-dashoffset: 0; stroke: #d62728; stroke-width: 2"/>
   </g>
   <g id="text_33">
    <!-- IT Hardware Limit (16 MW) -->
    <g transform="translate(182.649922 421.304219) scale(0.11 -0.11)">
     <defs>
      <path id="DejaVuSans-49" d="M 628 4666 
L 1259 4666 
L 1259 0 
L 628 0 
L 628 4666 
z
" transform="scale(0.015625)"/>
      <path id="DejaVuSans-54" d="M -19 4666 
L 3928 4666 
L 3928 4134 
L 2272 4134 
L 2272 0 
L 1638 0 
L 1638 4134 
L -19 4134 
L -19 4666 
z
" transform="scale(0.015625)"/>
      <path id="DejaVuSans-20" transform="scale(0.015625)"/>
      <path id="DejaVuSans-48" d="M 628 4666 
L 1259 4666 
L 1259 2753 
L 3553 2753 
L 3553 4666 
L 4184 4666 
L 4184 0 
L 3553 0 
L 3553 2222 
L 1259 2222 
L 1259 0 
L 628 0 
L 628 4666 
z
" transform="scale(0.015625)"/>
      <path id="DejaVuSans-61" d="M 2194 1759 
Q 1497 1759 1228 1600 
Q 959 1441 959 1056 
Q 959 750 1161 570 
Q 1363 391 1709 391 
Q 2188 391 2477 730 
Q 2766 1069 2766 1631 
L 2766 1759 
L 2194 1759 
z
M 3341 1997 
L 3341 0 
L 2766 0 
L 2766 531 
Q 2569 213 2275 61 
Q 1981 -91 1556 -91 
Q 1019 -91 701 211 
Q 384 513 384 1019 
Q 384 1609 779 1909 
Q 1175 2209 1959 2209 
L 2766 2209 
L 2766 2266 
Q 2766 2663 2505 2880 
Q 2244 3097 1772 3097 
Q 1472 3097 1187 3025 
Q 903 2953 641 2809 
L 641 3341 
Q 956 3463 1253 3523 
Q 1550 3584 1831 3584 
Q 2591 3584 2966 3190 
Q 3341 2797 3341 1997 
z
" transform="scale(0.015625)"/>
      <path id="DejaVuSans-72" d="M 2631 2963 
Q 2534 3019 2420 3045 
Q 2306 3072 2169 3072 
Q 1681 3072 1420 2755 
Q 1159 2438 1159 1844 
L 1159 0 
L 581 0 
L 581 3500 
L 1159 3500 
L 1159 2956 
Q 1341 3275 1631 3429 
Q 1922 3584 2338 3584 
Q 2397 3584 2469 3576 
Q 2541 3569 2628 3553 
L 2631 2963 
z
" transform="scale(0.015625)"/>
      <path id="DejaVuSans-64" d="M 2906 2969 
L 2906 4863 
L 3481 4863 
L 3481 0 
L 2906 0 
L 2906 525 
Q 2725 213 2448 61 
Q 2172 -91 1784 -91 
Q 1150 -91 751 415 
Q 353 922 353 1747 
Q 353 2572 751 3078 
Q 1150 3584 1784 3584 
Q 2172 3584 2448 3432 
Q 2725 3281 2906 2969 
z
M 947 1747 
Q 947 1113 1208 752 
Q 1469 391 1925 391 
Q 2381 391 2643 752 
Q 2906 1113 2906 1747 
Q 2906 2381 2643 2742 
Q 2381 3103 1925 3103 
Q 1469 3103 1208 2742 
Q 947 2381 947 1747 
z
" transform="scale(0.015625)"/>
      <path id="DejaVuSans-77" d="M 269 3500 
L 844 3500 
L 1563 769 
L 2278 3500 
L 2956 3500 
L 3675 769 
L 4391 3500 
L 4966 3500 
L 4050 0 
L 3372 0 
L 2619 2869 
L 1863 0 
L 1184 0 
L 269 3500 
z
" transform="scale(0.015625)"/>
      <path id="DejaVuSans-65" d="M 3597 1894 
L 3597 1613 
L 953 1613 
Q 991 1019 1311 708 
Q 1631 397 2203 397 
Q 2534 397 2845 478 
Q 3156 559 3463 722 
L 3463 178 
Q 3153 47 2828 -22 
Q 2503 -91 2169 -91 
Q 1331 -91 842 396 
Q 353 884 353 1716 
Q 353 2575 817 3079 
Q 1281 3584 2069 3584 
Q 2775 3584 3186 3129 
Q 3597 2675 3597 1894 
z
M 3022 2063 
Q 3016 2534 2758 2815 
Q 2500 3097 2075 3097 
Q 1594 3097 1305 2825 
Q 1016 2553 972 2059 
L 3022 2063 
z
" transform="scale(0.015625)"/>
      <path id="DejaVuSans-4c" d="M 628 4666 
L 1259 4666 
L 1259 531 
L 3531 531 
L 3531 0 
L 628 0 
L 628 4666 
z
" transform="scale(0.015625)"/>
      <path id="DejaVuSans-69" d="M 603 3500 
L 1178 3500 
L 1178 0 
L 603 0 
L 603 3500 
z
M 603 4863 
L 1178 4863 
L 1178 4134 
L 603 4134 
L 603 4863 
z
" transform="scale(0.015625)"/>
      <path id="DejaVuSans-6d" d="M 3328 2828 
Q 3544 3216 3844 3400 
Q 4144 3584 4550 3584 
Q 5097 3584 5394 3201 
Q 5691 2819 5691 2113 
L 5691 0 
L 5113 0 
L 5113 2094 
Q 5113 2597 4934 2840 
Q 4756 3084 4391 3084 
Q 3944 3084 3684 2787 
Q 3425 2491 3425 1978 
L 3425 0 
L 2847 0 
L 2847 2094 
Q 2847 2600 2669 2842 
Q 2491 3084 2119 3084 
Q 1678 3084 1418 2786 
Q 1159 2488 1159 1978 
L 1159 0 
L 581 0 
L 581 3500 
L 1159 3500 
L 1159 2956 
Q 1356 3278 1631 3431 
Q 1906 3584 2284 3584 
Q 2666 3584 2933 3390 
Q 3200 3197 3328 2828 
z
" transform="scale(0.015625)"/>
      <path id="DejaVuSans-74" d="M 1172 4494 
L 1172 3500 
L 2356 3500 
L 2356 3053 
L 1172 3053 
L 1172 1153 
Q 1172 725 1289 603 
Q 1406 481 1766 481 
L 2356 481 
L 2356 0 
L 1766 0 
Q 1100 0 847 248 
Q 594 497 594 1153 
L 594 3053 
L 172 3053 
L 172 3500 
L 594 3500 
L 594 4494 
L 1172 4494 
z
" transform="scale(0.015625)"/>
      <path id="DejaVuSans-28" d="M 1984 4856 
Q 1566 4138 1362 3434 
Q 1159 2731 1159 2009 
Q 1159 1288 1364 580 
Q 1569 -128 1984 -844 
L 1484 -844 
Q 1016 -109 783 600 
Q 550 1309 550 2009 
Q 550 2706 781 3412 
Q 1013 4119 1484 4856 
L 1984 4856 
z
" transform="scale(0.015625)"/>
      <path id="DejaVuSans-4d" d="M 628 4666 
L 1569 4666 
L 2759 1491 
L 3956 4666 
L 4897 4666 
L 4897 0 
L 4281 0 
L 4281 4097 
L 3078 897 
L 2444 897 
L 1241 4097 
L 1241 0 
L 628 0 
L 628 4666 
z
" transform="scale(0.015625)"/>
      <path id="DejaVuSans-57" d="M 213 4666 
L 850 4666 
L 1831 722 
L 2809 4666 
L 3519 4666 
L 4500 722 
L 5478 4666 
L 6119 4666 
L 4947 0 
L 4153 0 
L 3169 4050 
L 2175 0 
L 1381 0 
L 213 4666 
z
" transform="scale(0.015625)"/>
      <path id="DejaVuSans-29" d="M 513 4856 
L 1013 4856 
Q 1481 4119 1714 3412 
Q 1947 2706 1947 2009 
Q 1947 1309 1714 600 
Q 1481 -109 1013 -844 
L 513 -844 
Q 928 -128 1133 580 
Q 1338 1288 1338 2009 
Q 1338 2731 1133 3434 
Q 928 4138 513 4856 
z
" transform="scale(0.015625)"/>
     </defs>
     <use xlink:href="#DejaVuSans-49"/>
     <use xlink:href="#DejaVuSans-54" transform="translate(29.492188 0)"/>
     <use xlink:href="#DejaVuSans-20" transform="translate(90.576172 0)"/>
     <use xlink:href="#DejaVuSans-48" transform="translate(122.363281 0)"/>
     <use xlink:href="#DejaVuSans-61" transform="translate(197.558594 0)"/>
     <use xlink:href="#DejaVuSans-72" transform="translate(258.837891 0)"/>
     <use xlink:href="#DejaVuSans-64" transform="translate(298.201172 0)"/>
     <use xlink:href="#DejaVuSans-77" transform="translate(361.677734 0)"/>
     <use xlink:href="#DejaVuSans-61" transform="translate(443.464844 0)"/>
     <use xlink:href="#DejaVuSans-72" transform="translate(504.744141 0)"/>
     <use xlink:href="#DejaVuSans-65" transform="translate(543.607422 0)"/>
     <use xlink:href="#DejaVuSans-20" transform="translate(605.130859 0)"/>
     <use xlink:href="#DejaVuSans-4c" transform="translate(636.917969 0)"/>
     <use xlink:href="#DejaVuSans-69" transform="translate(692.630859 0)"/>
     <use xlink:href="#DejaVuSans-6d" transform="translate(720.414062 0)"/>
     <use xlink:href="#DejaVuSans-69" transform="translate(817.826172 0)"/>
     <use xlink:href="#DejaVuSans-74" transform="translate(845.609375 0)"/>
     <use xlink:href="#DejaVuSans-20" transform="translate(884.818359 0)"/>
     <use xlink:href="#DejaVuSans-28" transform="translate(916.605469 0)"/>
     <use xlink:href="#DejaVuSans-31" transform="translate(955.619141 0)"/>
     <use xlink:href="#DejaVuSans-36" transform="translate(1019.242188 0)"/>
     <use xlink:href="#DejaVuSans-20" transform="translate(1082.865234 0)"/>
     <use xlink:href="#DejaVuSans-4d" transform="translate(1114.652344 0)"/>
     <use xlink:href="#DejaVuSans-57" transform="translate(1200.931641 0)"/>
     <use xlink:href="#DejaVuSans-29" transform="translate(1299.808594 0)"/>
    </g>
   </g>
   <g id="line2d_78">
    <path d="M 151.849922 433.600156 
L 162.849922 433.600156 
L 173.849922 433.600156 
" style="fill: none; stroke: #ff7f0e; stroke-width: 3; stroke-linecap: square"/>
    <g>
     <use xlink:href="#maa13114a38" x="162.849922" y="433.600156" style="fill: #ff7f0e; stroke: #ff7f0e; stroke-linejoin: miter"/>
    </g>
   </g>
   <g id="text_34">
    <!-- Max Feasible Tier B1 -->
    <g transform="translate(182.649922 437.450156) scale(0.11 -0.11)">
     <defs>
      <path id="DejaVuSans-78" d="M 3513 3500 
L 2247 1797 
L 3578 0 
L 2900 0 
L 1881 1375 
L 863 0 
L 184 0 
L 1544 1831 
L 300 3500 
L 978 3500 
L 1906 2253 
L 2834 3500 
L 3513 3500 
z
" transform="scale(0.015625)"/>
      <path id="DejaVuSans-46" d="M 628 4666 
L 3309 4666 
L 3309 4134 
L 1259 4134 
L 1259 2759 
L 3109 2759 
L 3109 2228 
L 1259 2228 
L 1259 0 
L 628 0 
L 628 4666 
z
" transform="scale(0.015625)"/>
      <path id="DejaVuSans-73" d="M 2834 3397 
L 2834 2853 
Q 2591 2978 2328 3040 
Q 2066 3103 1784 3103 
Q 1356 3103 1142 2972 
Q 928 2841 928 2578 
Q 928 2378 1081 2264 
Q 1234 2150 1697 2047 
L 1894 2003 
Q 2506 1872 2764 1633 
Q 3022 1394 3022 966 
Q 3022 478 2636 193 
Q 2250 -91 1575 -91 
Q 1294 -91 989 -36 
Q 684 19 347 128 
L 347 722 
Q 666 556 975 473 
Q 1284 391 1588 391 
Q 1994 391 2212 530 
Q 2431 669 2431 922 
Q 2431 1156 2273 1281 
Q 2116 1406 1581 1522 
L 1381 1569 
Q 847 1681 609 1914 
Q 372 2147 372 2553 
Q 372 3047 722 3315 
Q 1072 3584 1716 3584 
Q 2034 3584 2315 3537 
Q 2597 3491 2834 3397 
z
" transform="scale(0.015625)"/>
      <path id="DejaVuSans-62" d="M 3116 1747 
Q 3116 2381 2855 2742 
Q 2594 3103 2138 3103 
Q 1681 3103 1420 2742 
Q 1159 2381 1159 1747 
Q 1159 1113 1420 752 
Q 1681 391 2138 391 
Q 2594 391 2855 752 
Q 3116 1113 3116 1747 
z
M 1159 2969 
Q 1341 3281 1617 3432 
Q 1894 3584 2278 3584 
Q 2916 3584 3314 3078 
Q 3713 2572 3713 1747 
Q 3713 922 3314 415 
Q 2916 -91 2278 -91 
Q 1894 -91 1617 61 
Q 1341 213 1159 525 
L 1159 0 
L 581 0 
L 581 4863 
L 1159 4863 
L 1159 2969 
z
" transform="scale(0.015625)"/>
      <path id="DejaVuSans-6c" d="M 603 4863 
L 1178 4863 
L 1178 0 
L 603 0 
L 603 4863 
z
" transform="scale(0.015625)"/>
      <path id="DejaVuSans-42" d="M 1259 2228 
L 1259 519 
L 2272 519 
Q 2781 519 3026 730 
Q 3272 941 3272 1375 
Q 3272 1813 3026 2020 
Q 2781 2228 2272 2228 
L 1259 2228 
z
M 1259 4147 
L 1259 2741 
L 2194 2741 
Q 2656 2741 2882 2914 
Q 3109 3088 3109 3444 
Q 3109 3797 2882 3972 
Q 2656 4147 2194 4147 
L 1259 4147 
z
M 628 4666 
L 2241 4666 
Q 2963 4666 3353 4366 
Q 3744 4066 3744 3513 
Q 3744 3084 3544 2831 
Q 3344 2578 2956 2516 
Q 3422 2416 3680 2098 
Q 3938 1781 3938 1306 
Q 3938 681 3513 340 
Q 3088 0 2303 0 
L 628 0 
L 628 4666 
z
" transform="scale(0.015625)"/>
     </defs>
     <use xlink:href="#DejaVuSans-4d"/>
     <use xlink:href="#DejaVuSans-61" transform="translate(86.279297 0)"/>
     <use xlink:href="#DejaVuSans-78" transform="translate(147.558594 0)"/>
     <use xlink:href="#DejaVuSans-20" transform="translate(206.738281 0)"/>
     <use xlink:href="#DejaVuSans-46" transform="translate(238.525391 0)"/>
     <use xlink:href="#DejaVuSans-65" transform="translate(290.544922 0)"/>
     <use xlink:href="#DejaVuSans-61" transform="translate(352.068359 0)"/>
     <use xlink:href="#DejaVuSans-73" transform="translate(413.347656 0)"/>
     <use xlink:href="#DejaVuSans-69" transform="translate(465.447266 0)"/>
     <use xlink:href="#DejaVuSans-62" transform="translate(493.230469 0)"/>
     <use xlink:href="#DejaVuSans-6c" transform="translate(556.707031 0)"/>
     <use xlink:href="#DejaVuSans-65" transform="translate(584.490234 0)"/>
     <use xlink:href="#DejaVuSans-20" transform="translate(646.013672 0)"/>
     <use xlink:href="#DejaVuSans-54" transform="translate(677.800781 0)"/>
     <use xlink:href="#DejaVuSans-69" transform="translate(735.759766 0)"/>
     <use xlink:href="#DejaVuSans-65" transform="translate(763.542969 0)"/>
     <use xlink:href="#DejaVuSans-72" transform="translate(825.066406 0)"/>
     <use xlink:href="#DejaVuSans-20" transform="translate(866.179688 0)"/>
     <use xlink:href="#DejaVuSans-42" transform="translate(897.966797 0)"/>
     <use xlink:href="#DejaVuSans-31" transform="translate(966.570312 0)"/>
    </g>
   </g>
   <g id="patch_8">
    <path d="M 351.919297 421.304219 
L 373.919297 421.304219 
L 373.919297 413.604219 
L 351.919297 413.604219 
z
" style="fill: #ff7f0e; fill-opacity: 0.15; stroke: #ff7f0e; stroke-opacity: 0.15; stroke-linejoin: miter"/>
   </g>
   <g id="text_35">
    <!-- Feasible Daily Region -->
    <g transform="translate(382.719297 421.304219) scale(0.11 -0.11)">
     <defs>
      <path id="DejaVuSans-44" d="M 1259 4147 
L 1259 519 
L 2022 519 
Q 2988 519 3436 956 
Q 3884 1394 3884 2338 
Q 3884 3275 3436 3711 
Q 2988 4147 2022 4147 
L 1259 4147 
z
M 628 4666 
L 1925 4666 
Q 3281 4666 3915 4102 
Q 4550 3538 4550 2338 
Q 4550 1131 3912 565 
Q 3275 0 1925 0 
L 628 0 
L 628 4666 
z
" transform="scale(0.015625)"/>
      <path id="DejaVuSans-79" d="M 2059 -325 
Q 1816 -950 1584 -1140 
Q 1353 -1331 966 -1331 
L 506 -1331 
L 506 -850 
L 844 -850 
Q 1081 -850 1212 -737 
Q 1344 -625 1503 -206 
L 1606 56 
L 191 3500 
L 800 3500 
L 1894 763 
L 2988 3500 
L 3597 3500 
L 2059 -325 
z
" transform="scale(0.015625)"/>
      <path id="DejaVuSans-52" d="M 2841 2188 
Q 3044 2119 3236 1894 
Q 3428 1669 3622 1275 
L 4263 0 
L 3584 0 
L 2988 1197 
Q 2756 1666 2539 1819 
Q 2322 1972 1947 1972 
L 1259 1972 
L 1259 0 
L 628 0 
L 628 4666 
L 2053 4666 
Q 2853 4666 3247 4331 
Q 3641 3997 3641 3322 
Q 3641 2881 3436 2590 
Q 3231 2300 2841 2188 
z
M 1259 4147 
L 1259 2491 
L 2053 2491 
Q 2509 2491 2742 2702 
Q 2975 2913 2975 3322 
Q 2975 3731 2742 3939 
Q 2509 4147 2053 4147 
L 1259 4147 
z
" transform="scale(0.015625)"/>
      <path id="DejaVuSans-67" d="M 2906 1791 
Q 2906 2416 2648 2759 
Q 2391 3103 1925 3103 
Q 1463 3103 1205 2759 
Q 947 2416 947 1791 
Q 947 1169 1205 825 
Q 1463 481 1925 481 
Q 2391 481 2648 825 
Q 2906 1169 2906 1791 
z
M 3481 434 
Q 3481 -459 3084 -895 
Q 2688 -1331 1869 -1331 
Q 1566 -1331 1297 -1286 
Q 1028 -1241 775 -1147 
L 775 -588 
Q 1028 -725 1275 -790 
Q 1522 -856 1778 -856 
Q 2344 -856 2625 -561 
Q 2906 -266 2906 331 
L 2906 616 
Q 2728 306 2450 153 
Q 2172 0 1784 0 
Q 1141 0 747 490 
Q 353 981 353 1791 
Q 353 2603 747 3093 
Q 1141 3584 1784 3584 
Q 2172 3584 2450 3431 
Q 2728 3278 2906 2969 
L 2906 3500 
L 3481 3500 
L 3481 434 
z
" transform="scale(0.015625)"/>
      <path id="DejaVuSans-6f" d="M 1959 3097 
Q 1497 3097 1228 2736 
Q 959 2375 959 1747 
Q 959 1119 1226 758 
Q 1494 397 1959 397 
Q 2419 397 2687 759 
Q 2956 1122 2956 1747 
Q 2956 2369 2687 2733 
Q 2419 3097 1959 3097 
z
M 1959 3584 
Q 2709 3584 3137 3096 
Q 3566 2609 3566 1747 
Q 3566 888 3137 398 
Q 2709 -91 1959 -91 
Q 1206 -91 779 398 
Q 353 888 353 1747 
Q 353 2609 779 3096 
Q 1206 3584 1959 3584 
z
" transform="scale(0.015625)"/>
      <path id="DejaVuSans-6e" d="M 3513 2113 
L 3513 0 
L 2938 0 
L 2938 2094 
Q 2938 2591 2744 2837 
Q 2550 3084 2163 3084 
Q 1697 3084 1428 2787 
Q 1159 2491 1159 1978 
L 1159 0 
L 581 0 
L 581 3500 
L 1159 3500 
L 1159 2956 
Q 1366 3272 1645 3428 
Q 1925 3584 2291 3584 
Q 2894 3584 3203 3211 
Q 3513 2838 3513 2113 
z
" transform="scale(0.015625)"/>
     </defs>
     <use xlink:href="#DejaVuSans-46"/>
     <use xlink:href="#DejaVuSans-65" transform="translate(52.019531 0)"/>
     <use xlink:href="#DejaVuSans-61" transform="translate(113.542969 0)"/>
     <use xlink:href="#DejaVuSans-73" transform="translate(174.822266 0)"/>
     <use xlink:href="#DejaVuSans-69" transform="translate(226.921875 0)"/>
     <use xlink:href="#DejaVuSans-62" transform="translate(254.705078 0)"/>
     <use xlink:href="#DejaVuSans-6c" transform="translate(318.181641 0)"/>
     <use xlink:href="#DejaVuSans-65" transform="translate(345.964844 0)"/>
     <use xlink:href="#DejaVuSans-20" transform="translate(407.488281 0)"/>
     <use xlink:href="#DejaVuSans-44" transform="translate(439.275391 0)"/>
     <use xlink:href="#DejaVuSans-61" transform="translate(516.277344 0)"/>
     <use xlink:href="#DejaVuSans-69" transform="translate(577.556641 0)"/>
     <use xlink:href="#DejaVuSans-6c" transform="translate(605.339844 0)"/>
     <use xlink:href="#DejaVuSans-79" transform="translate(633.123047 0)"/>
     <use xlink:href="#DejaVuSans-20" transform="translate(692.302734 0)"/>
     <use xlink:href="#DejaVuSans-52" transform="translate(724.089844 0)"/>
     <use xlink:href="#DejaVuSans-65" transform="translate(789.072266 0)"/>
     <use xlink:href="#DejaVuSans-67" transform="translate(850.595703 0)"/>
     <use xlink:href="#DejaVuSans-69" transform="translate(914.072266 0)"/>
     <use xlink:href="#DejaVuSans-6f" transform="translate(941.855469 0)"/>
     <use xlink:href="#DejaVuSans-6e" transform="translate(1003.037109 0)"/>
    </g>
   </g>
   <g id="line2d_79">
    <path d="M 522.027422 417.454219 
L 533.027422 417.454219 
L 544.027422 417.454219 
" style="fill: none; stroke: #2ca02c; stroke-width: 3; stroke-linecap: square"/>
    <g>
     <use xlink:href="#m3a1d6d57ab" x="533.027422" y="417.454219" style="fill: #2ca02c; stroke: #2ca02c; stroke-linejoin: miter"/>
    </g>
   </g>
   <g id="text_36">
    <!-- Max Feasible Tier B2 -->
    <g transform="translate(552.827422 421.304219) scale(0.11 -0.11)">
     <use xlink:href="#DejaVuSans-4d"/>
     <use xlink:href="#DejaVuSans-61" transform="translate(86.279297 0)"/>
     <use xlink:href="#DejaVuSans-78" transform="translate(147.558594 0)"/>
     <use xlink:href="#DejaVuSans-20" transform="translate(206.738281 0)"/>
     <use xlink:href="#DejaVuSans-46" transform="translate(238.525391 0)"/>
     <use xlink:href="#DejaVuSans-65" transform="translate(290.544922 0)"/>
     <use xlink:href="#DejaVuSans-61" transform="translate(352.068359 0)"/>
     <use xlink:href="#DejaVuSans-73" transform="translate(413.347656 0)"/>
     <use xlink:href="#DejaVuSans-69" transform="translate(465.447266 0)"/>
     <use xlink:href="#DejaVuSans-62" transform="translate(493.230469 0)"/>
     <use xlink:href="#DejaVuSans-6c" transform="translate(556.707031 0)"/>
     <use xlink:href="#DejaVuSans-65" transform="translate(584.490234 0)"/>
     <use xlink:href="#DejaVuSans-20" transform="translate(646.013672 0)"/>
     <use xlink:href="#DejaVuSans-54" transform="translate(677.800781 0)"/>
     <use xlink:href="#DejaVuSans-69" transform="translate(735.759766 0)"/>
     <use xlink:href="#DejaVuSans-65" transform="translate(763.542969 0)"/>
     <use xlink:href="#DejaVuSans-72" transform="translate(825.066406 0)"/>
     <use xlink:href="#DejaVuSans-20" transform="translate(866.179688 0)"/>
     <use xlink:href="#DejaVuSans-42" transform="translate(897.966797 0)"/>
     <use xlink:href="#DejaVuSans-32" transform="translate(966.570312 0)"/>
    </g>
   </g>
   <g id="patch_9">
    <path d="M 688.149766 421.304219 
L 710.149766 421.304219 
L 710.149766 413.604219 
L 688.149766 413.604219 
z
" style="fill: #2ca02c; fill-opacity: 0.15; stroke: #2ca02c; stroke-opacity: 0.15; stroke-linejoin: miter"/>
   </g>
   <g id="text_37">
    <!-- Feasible Weekly Region -->
    <g transform="translate(718.949766 421.304219) scale(0.11 -0.11)">
     <defs>
      <path id="DejaVuSans-6b" d="M 581 4863 
L 1159 4863 
L 1159 1991 
L 2875 3500 
L 3609 3500 
L 1753 1863 
L 3688 0 
L 2938 0 
L 1159 1709 
L 1159 0 
L 581 0 
L 581 4863 
z
" transform="scale(0.015625)"/>
     </defs>
     <use xlink:href="#DejaVuSans-46"/>
     <use xlink:href="#DejaVuSans-65" transform="translate(52.019531 0)"/>
     <use xlink:href="#DejaVuSans-61" transform="translate(113.542969 0)"/>
     <use xlink:href="#DejaVuSans-73" transform="translate(174.822266 0)"/>
     <use xlink:href="#DejaVuSans-69" transform="translate(226.921875 0)"/>
     <use xlink:href="#DejaVuSans-62" transform="translate(254.705078 0)"/>
     <use xlink:href="#DejaVuSans-6c" transform="translate(318.181641 0)"/>
     <use xlink:href="#DejaVuSans-65" transform="translate(345.964844 0)"/>
     <use xlink:href="#DejaVuSans-20" transform="translate(407.488281 0)"/>
     <use xlink:href="#DejaVuSans-57" transform="translate(439.275391 0)"/>
     <use xlink:href="#DejaVuSans-65" transform="translate(532.277344 0)"/>
     <use xlink:href="#DejaVuSans-65" transform="translate(593.800781 0)"/>
     <use xlink:href="#DejaVuSans-6b" transform="translate(655.324219 0)"/>
     <use xlink:href="#DejaVuSans-6c" transform="translate(713.234375 0)"/>
     <use xlink:href="#DejaVuSans-79" transform="translate(741.017578 0)"/>
     <use xlink:href="#DejaVuSans-20" transform="translate(800.197266 0)"/>
     <use xlink:href="#DejaVuSans-52" transform="translate(831.984375 0)"/>
     <use xlink:href="#DejaVuSans-65" transform="translate(896.966797 0)"/>
     <use xlink:href="#DejaVuSans-67" transform="translate(958.490234 0)"/>
     <use xlink:href="#DejaVuSans-69" transform="translate(1021.966797 0)"/>
     <use xlink:href="#DejaVuSans-6f" transform="translate(1049.75 0)"/>
     <use xlink:href="#DejaVuSans-6e" transform="translate(1110.931641 0)"/>
    </g>
   </g>
  </g>
 </g>
 <defs>
  <clipPath id="p6097a7d0cc">
   <rect x="42.53875" y="27.837812" width="468.175" height="356.9"/>
  </clipPath>
  <clipPath id="p93f698f829">
   <rect x="525.01375" y="27.837812" width="468.175" height="356.9"/>
  </clipPath>
 </defs>
</svg>
