<?xml version="1.0" encoding="utf-8" standalone="no"?>
<!DOCTYPE svg PUBLIC "-//W3C//DTD SVG 1.1//EN"
  "http://www.w3.org/Graphics/SVG/1.1/DTD/svg11.dtd">
<svg xmlns:xlink="http://www.w3.org/1999/xlink" width="1073.04pt" height="456.02pt" viewBox="0 0 1073.04 456.02" xmlns="http://www.w3.org/2000/svg" version="1.1">
 <metadata>
  <rdf:RDF xmlns:dc="http://purl.org/dc/elements/1.1/" xmlns:cc="http://creativecommons.org/ns#" xmlns:rdf="http://www.w3.org/1999/02/22-rdf-syntax-ns#">
   <cc:Work>
    <dc:type rdf:resource="http://purl.org/dc/dcmitype/StillImage"/>
    <dc:date>2026-06-22T16:17:02.387309</dc:date>
    <dc:format>image/svg+xml</dc:format>
    <dc:creator>
     <cc:Agent>
      <dc:title>Matplotlib v3.10.8, https://matplotlib.org/</dc:title>
     </cc:Agent>
    </dc:creator>
   </cc:Work>
  </rdf:RDF>
 </metadata>
 <defs>
  <style type="text/css">*{stroke-linejoin: round; stroke-linecap: butt}</style>
 </defs>
 <g id="figure_1">
  <g id="patch_1">
   <path d="M 0 456.02 
L 1073.04 456.02 
L 1073.04 0 
L 0 0 
z
" style="fill: #ffffff"/>
  </g>
  <g id="axes_1">
   <g id="patch_2">
    <path d="M 41.36 351.4 
L 531.24 351.4 
L 531.24 7.2 
L 41.36 7.2 
z
" style="fill: #ffffff"/>
   </g>
   <g id="FillBetweenPolyCollection_1">
    <defs>
     <path id="m0a507b219f" d="M 41.36 -396.668485 
L 41.36 -104.62 
L 98.992941 -104.62 
L 156.625882 -104.62 
L 214.258824 -104.62 
L 271.891765 -104.62 
L 329.524706 -104.62 
L 387.157647 -104.62 
L 444.790588 -104.62 
L 502.423529 -104.62 
L 502.423529 -104.62 
L 502.423529 -104.62 
L 444.790588 -104.62 
L 387.157647 -167.201818 
L 329.524706 -229.783636 
L 271.891765 -271.504848 
L 214.258824 -313.226061 
L 156.625882 -334.086667 
L 98.992941 -375.807879 
L 41.36 -396.668485 
z
" style="stroke: #ff7f0e; stroke-opacity: 0.2"/>
    </defs>
    <g clip-path="url(#pa430ce6925)">
     <use xlink:href="#m0a507b219f" x="0" y="456.02" style="fill: #ff7f0e; fill-opacity: 0.2; stroke: #ff7f0e; stroke-opacity: 0.2"/>
    </g>
   </g>
   <g id="matplotlib.axis_1">
    <g id="xtick_1">
     <g id="line2d_1">
      <path d="M 41.36 351.4 
L 41.36 7.2 
" clip-path="url(#pa430ce6925)" style="fill: none; stroke-dasharray: 2.96,1.28; stroke-dashoffset: 0; stroke: #b0b0b0; stroke-opacity: 0.3; stroke-width: 0.8"/>
     </g>
     <g id="line2d_2">
      <defs>
       <path id="m49b04cae00" d="M 0 0 
L 0 3.5 
" style="stroke: #333333; stroke-width: 0.8"/>
      </defs>
      <g>
       <use xlink:href="#m49b04cae00" x="41.36" y="351.4" style="fill: #333333; stroke: #333333; stroke-width: 0.8"/>
      </g>
     </g>
     <g id="text_1">
      <!-- 0 -->
      <g style="fill: #333333" transform="translate(38.496875 365.238594) scale(0.09 -0.09)">
       <defs>
        <path id="DejaVuSans-30" d="M 2034 4250 
Q 1547 4250 1301 3770 
Q 1056 3291 1056 2328 
Q 1056 1369 1301 889 
Q 1547 409 2034 409 
Q 2525 409 2770 889 
Q 3016 1369 3016 2328 
Q 3016 3291 2770 3770 
Q 2525 4250 2034 4250 
z
M 2034 4750 
Q 2819 4750 3233 4129 
Q 3647 3509 3647 2328 
Q 3647 1150 3233 529 
Q 2819 -91 2034 -91 
Q 1250 -91 836 529 
Q 422 1150 422 2328 
Q 422 3509 836 4129 
Q 1250 4750 2034 4750 
z
" transform="scale(0.015625)"/>
       </defs>
       <use xlink:href="#DejaVuSans-30"/>
      </g>
     </g>
    </g>
    <g id="xtick_2">
     <g id="line2d_3">
      <path d="M 98.992941 351.4 
L 98.992941 7.2 
" clip-path="url(#pa430ce6925)" style="fill: none; stroke-dasharray: 2.96,1.28; stroke-dashoffset: 0; stroke: #b0b0b0; stroke-opacity: 0.3; stroke-width: 0.8"/>
     </g>
     <g id="line2d_4">
      <g>
       <use xlink:href="#m49b04cae00" x="98.992941" y="351.4" style="fill: #333333; stroke: #333333; stroke-width: 0.8"/>
      </g>
     </g>
     <g id="text_2">
      <!-- 1 -->
      <g style="fill: #333333" transform="translate(96.129816 365.238594) scale(0.09 -0.09)">
       <defs>
        <path id="DejaVuSans-31" d="M 794 531 
L 1825 531 
L 1825 4091 
L 703 3866 
L 703 4441 
L 1819 4666 
L 2450 4666 
L 2450 531 
L 3481 531 
L 3481 0 
L 794 0 
L 794 531 
z
" transform="scale(0.015625)"/>
       </defs>
       <use xlink:href="#DejaVuSans-31"/>
      </g>
     </g>
    </g>
    <g id="xtick_3">
     <g id="line2d_5">
      <path d="M 156.625882 351.4 
L 156.625882 7.2 
" clip-path="url(#pa430ce6925)" style="fill: none; stroke-dasharray: 2.96,1.28; stroke-dashoffset: 0; stroke: #b0b0b0; stroke-opacity: 0.3; stroke-width: 0.8"/>
     </g>
     <g id="line2d_6">
      <g>
       <use xlink:href="#m49b04cae00" x="156.625882" y="351.4" style="fill: #333333; stroke: #333333; stroke-width: 0.8"/>
      </g>
     </g>
     <g id="text_3">
      <!-- 2 -->
      <g style="fill: #333333" transform="translate(153.762757 365.238594) scale(0.09 -0.09)">
       <defs>
        <path id="DejaVuSans-32" d="M 1228 531 
L 3431 531 
L 3431 0 
L 469 0 
L 469 531 
Q 828 903 1448 1529 
Q 2069 2156 2228 2338 
Q 2531 2678 2651 2914 
Q 2772 3150 2772 3378 
Q 2772 3750 2511 3984 
Q 2250 4219 1831 4219 
Q 1534 4219 1204 4116 
Q 875 4013 500 3803 
L 500 4441 
Q 881 4594 1212 4672 
Q 1544 4750 1819 4750 
Q 2544 4750 2975 4387 
Q 3406 4025 3406 3419 
Q 3406 3131 3298 2873 
Q 3191 2616 2906 2266 
Q 2828 2175 2409 1742 
Q 1991 1309 1228 531 
z
" transform="scale(0.015625)"/>
       </defs>
       <use xlink:href="#DejaVuSans-32"/>
      </g>
     </g>
    </g>
    <g id="xtick_4">
     <g id="line2d_7">
      <path d="M 214.258824 351.4 
L 214.258824 7.2 
" clip-path="url(#pa430ce6925)" style="fill: none; stroke-dasharray: 2.96,1.28; stroke-dashoffset: 0; stroke: #b0b0b0; stroke-opacity: 0.3; stroke-width: 0.8"/>
     </g>
     <g id="line2d_8">
      <g>
       <use xlink:href="#m49b04cae00" x="214.258824" y="351.4" style="fill: #333333; stroke: #333333; stroke-width: 0.8"/>
      </g>
     </g>
     <g id="text_4">
      <!-- 3 -->
      <g style="fill: #333333" transform="translate(211.395699 365.238594) scale(0.09 -0.09)">
       <defs>
        <path id="DejaVuSans-33" d="M 2597 2516 
Q 3050 2419 3304 2112 
Q 3559 1806 3559 1356 
Q 3559 666 3084 287 
Q 2609 -91 1734 -91 
Q 1441 -91 1130 -33 
Q 819 25 488 141 
L 488 750 
Q 750 597 1062 519 
Q 1375 441 1716 441 
Q 2309 441 2620 675 
Q 2931 909 2931 1356 
Q 2931 1769 2642 2001 
Q 2353 2234 1838 2234 
L 1294 2234 
L 1294 2753 
L 1863 2753 
Q 2328 2753 2575 2939 
Q 2822 3125 2822 3475 
Q 2822 3834 2567 4026 
Q 2313 4219 1838 4219 
Q 1578 4219 1281 4162 
Q 984 4106 628 3988 
L 628 4550 
Q 988 4650 1302 4700 
Q 1616 4750 1894 4750 
Q 2613 4750 3031 4423 
Q 3450 4097 3450 3541 
Q 3450 3153 3228 2886 
Q 3006 2619 2597 2516 
z
" transform="scale(0.015625)"/>
       </defs>
       <use xlink:href="#DejaVuSans-33"/>
      </g>
     </g>
    </g>
    <g id="xtick_5">
     <g id="line2d_9">
      <path d="M 271.891765 351.4 
L 271.891765 7.2 
" clip-path="url(#pa430ce6925)" style="fill: none; stroke-dasharray: 2.96,1.28; stroke-dashoffset: 0; stroke: #b0b0b0; stroke-opacity: 0.3; stroke-width: 0.8"/>
     </g>
     <g id="line2d_10">
      <g>
       <use xlink:href="#m49b04cae00" x="271.891765" y="351.4" style="fill: #333333; stroke: #333333; stroke-width: 0.8"/>
      </g>
     </g>
     <g id="text_5">
      <!-- 4 -->
      <g style="fill: #333333" transform="translate(269.02864 365.238594) scale(0.09 -0.09)">
       <defs>
        <path id="DejaVuSans-34" d="M 2419 4116 
L 825 1625 
L 2419 1625 
L 2419 4116 
z
M 2253 4666 
L 3047 4666 
L 3047 1625 
L 3713 1625 
L 3713 1100 
L 3047 1100 
L 3047 0 
L 2419 0 
L 2419 1100 
L 313 1100 
L 313 1709 
L 2253 4666 
z
" transform="scale(0.015625)"/>
       </defs>
       <use xlink:href="#DejaVuSans-34"/>
      </g>
     </g>
    </g>
    <g id="xtick_6">
     <g id="line2d_11">
      <path d="M 329.524706 351.4 
L 329.524706 7.2 
" clip-path="url(#pa430ce6925)" style="fill: none; stroke-dasharray: 2.96,1.28; stroke-dashoffset: 0; stroke: #b0b0b0; stroke-opacity: 0.3; stroke-width: 0.8"/>
     </g>
     <g id="line2d_12">
      <g>
       <use xlink:href="#m49b04cae00" x="329.524706" y="351.4" style="fill: #333333; stroke: #333333; stroke-width: 0.8"/>
      </g>
     </g>
     <g id="text_6">
      <!-- 5 -->
      <g style="fill: #333333" transform="translate(326.661581 365.238594) scale(0.09 -0.09)">
       <defs>
        <path id="DejaVuSans-35" d="M 691 4666 
L 3169 4666 
L 3169 4134 
L 1269 4134 
L 1269 2991 
Q 1406 3038 1543 3061 
Q 1681 3084 1819 3084 
Q 2600 3084 3056 2656 
Q 3513 2228 3513 1497 
Q 3513 744 3044 326 
Q 2575 -91 1722 -91 
Q 1428 -91 1123 -41 
Q 819 9 494 109 
L 494 744 
Q 775 591 1075 516 
Q 1375 441 1709 441 
Q 2250 441 2565 725 
Q 2881 1009 2881 1497 
Q 2881 1984 2565 2268 
Q 2250 2553 1709 2553 
Q 1456 2553 1204 2497 
Q 953 2441 691 2322 
L 691 4666 
z
" transform="scale(0.015625)"/>
       </defs>
       <use xlink:href="#DejaVuSans-35"/>
      </g>
     </g>
    </g>
    <g id="xtick_7">
     <g id="line2d_13">
      <path d="M 387.157647 351.4 
L 387.157647 7.2 
" clip-path="url(#pa430ce6925)" style="fill: none; stroke-dasharray: 2.96,1.28; stroke-dashoffset: 0; stroke: #b0b0b0; stroke-opacity: 0.3; stroke-width: 0.8"/>
     </g>
     <g id="line2d_14">
      <g>
       <use xlink:href="#m49b04cae00" x="387.157647" y="351.4" style="fill: #333333; stroke: #333333; stroke-width: 0.8"/>
      </g>
     </g>
     <g id="text_7">
      <!-- 6 -->
      <g style="fill: #333333" transform="translate(384.294522 365.238594) scale(0.09 -0.09)">
       <defs>
        <path id="DejaVuSans-36" d="M 2113 2584 
Q 1688 2584 1439 2293 
Q 1191 2003 1191 1497 
Q 1191 994 1439 701 
Q 1688 409 2113 409 
Q 2538 409 2786 701 
Q 3034 994 3034 1497 
Q 3034 2003 2786 2293 
Q 2538 2584 2113 2584 
z
M 3366 4563 
L 3366 3988 
Q 3128 4100 2886 4159 
Q 2644 4219 2406 4219 
Q 1781 4219 1451 3797 
Q 1122 3375 1075 2522 
Q 1259 2794 1537 2939 
Q 1816 3084 2150 3084 
Q 2853 3084 3261 2657 
Q 3669 2231 3669 1497 
Q 3669 778 3244 343 
Q 2819 -91 2113 -91 
Q 1303 -91 875 529 
Q 447 1150 447 2328 
Q 447 3434 972 4092 
Q 1497 4750 2381 4750 
Q 2619 4750 2861 4703 
Q 3103 4656 3366 4563 
z
" transform="scale(0.015625)"/>
       </defs>
       <use xlink:href="#DejaVuSans-36"/>
      </g>
     </g>
    </g>
    <g id="xtick_8">
     <g id="line2d_15">
      <path d="M 444.790588 351.4 
L 444.790588 7.2 
" clip-path="url(#pa430ce6925)" style="fill: none; stroke-dasharray: 2.96,1.28; stroke-dashoffset: 0; stroke: #b0b0b0; stroke-opacity: 0.3; stroke-width: 0.8"/>
     </g>
     <g id="line2d_16">
      <g>
       <use xlink:href="#m49b04cae00" x="444.790588" y="351.4" style="fill: #333333; stroke: #333333; stroke-width: 0.8"/>
      </g>
     </g>
     <g id="text_8">
      <!-- 7 -->
      <g style="fill: #333333" transform="translate(441.927463 365.238594) scale(0.09 -0.09)">
       <defs>
        <path id="DejaVuSans-37" d="M 525 4666 
L 3525 4666 
L 3525 4397 
L 1831 0 
L 1172 0 
L 2766 4134 
L 525 4134 
L 525 4666 
z
" transform="scale(0.015625)"/>
       </defs>
       <use xlink:href="#DejaVuSans-37"/>
      </g>
     </g>
    </g>
    <g id="xtick_9">
     <g id="line2d_17">
      <path d="M 502.423529 351.4 
L 502.423529 7.2 
" clip-path="url(#pa430ce6925)" style="fill: none; stroke-dasharray: 2.96,1.28; stroke-dashoffset: 0; stroke: #b0b0b0; stroke-opacity: 0.3; stroke-width: 0.8"/>
     </g>
     <g id="line2d_18">
      <g>
       <use xlink:href="#m49b04cae00" x="502.423529" y="351.4" style="fill: #333333; stroke: #333333; stroke-width: 0.8"/>
      </g>
     </g>
     <g id="text_9">
      <!-- 8 -->
      <g style="fill: #333333" transform="translate(499.560404 365.238594) scale(0.09 -0.09)">
       <defs>
        <path id="DejaVuSans-38" d="M 2034 2216 
Q 1584 2216 1326 1975 
Q 1069 1734 1069 1313 
Q 1069 891 1326 650 
Q 1584 409 2034 409 
Q 2484 409 2743 651 
Q 3003 894 3003 1313 
Q 3003 1734 2745 1975 
Q 2488 2216 2034 2216 
z
M 1403 2484 
Q 997 2584 770 2862 
Q 544 3141 544 3541 
Q 544 4100 942 4425 
Q 1341 4750 2034 4750 
Q 2731 4750 3128 4425 
Q 3525 4100 3525 3541 
Q 3525 3141 3298 2862 
Q 3072 2584 2669 2484 
Q 3125 2378 3379 2068 
Q 3634 1759 3634 1313 
Q 3634 634 3220 271 
Q 2806 -91 2034 -91 
Q 1263 -91 848 271 
Q 434 634 434 1313 
Q 434 1759 690 2068 
Q 947 2378 1403 2484 
z
M 1172 3481 
Q 1172 3119 1398 2916 
Q 1625 2713 2034 2713 
Q 2441 2713 2670 2916 
Q 2900 3119 2900 3481 
Q 2900 3844 2670 4047 
Q 2441 4250 2034 4250 
Q 1625 4250 1398 4047 
Q 1172 3844 1172 3481 
z
" transform="scale(0.015625)"/>
       </defs>
       <use xlink:href="#DejaVuSans-38"/>
      </g>
     </g>
    </g>
    <g id="text_10">
     <!-- Tier A Capacity (MW) -->
     <g style="fill: #444444" transform="translate(214.949688 380.228437) scale(0.12 -0.12)">
      <defs>
       <path id="DejaVuSans-Bold-54" d="M 31 4666 
L 4331 4666 
L 4331 3756 
L 2784 3756 
L 2784 0 
L 1581 0 
L 1581 3756 
L 31 3756 
L 31 4666 
z
" transform="scale(0.015625)"/>
       <path id="DejaVuSans-Bold-69" d="M 538 3500 
L 1656 3500 
L 1656 0 
L 538 0 
L 538 3500 
z
M 538 4863 
L 1656 4863 
L 1656 3950 
L 538 3950 
L 538 4863 
z
" transform="scale(0.015625)"/>
       <path id="DejaVuSans-Bold-65" d="M 4031 1759 
L 4031 1441 
L 1416 1441 
Q 1456 1047 1700 850 
Q 1944 653 2381 653 
Q 2734 653 3104 758 
Q 3475 863 3866 1075 
L 3866 213 
Q 3469 63 3072 -14 
Q 2675 -91 2278 -91 
Q 1328 -91 801 392 
Q 275 875 275 1747 
Q 275 2603 792 3093 
Q 1309 3584 2216 3584 
Q 3041 3584 3536 3087 
Q 4031 2591 4031 1759 
z
M 2881 2131 
Q 2881 2450 2695 2645 
Q 2509 2841 2209 2841 
Q 1884 2841 1681 2658 
Q 1478 2475 1428 2131 
L 2881 2131 
z
" transform="scale(0.015625)"/>
       <path id="DejaVuSans-Bold-72" d="M 3138 2547 
Q 2991 2616 2845 2648 
Q 2700 2681 2553 2681 
Q 2122 2681 1889 2404 
Q 1656 2128 1656 1613 
L 1656 0 
L 538 0 
L 538 3500 
L 1656 3500 
L 1656 2925 
Q 1872 3269 2151 3426 
Q 2431 3584 2822 3584 
Q 2878 3584 2943 3579 
Q 3009 3575 3134 3559 
L 3138 2547 
z
" transform="scale(0.015625)"/>
       <path id="DejaVuSans-Bold-20" transform="scale(0.015625)"/>
       <path id="DejaVuSans-Bold-41" d="M 3419 850 
L 1538 850 
L 1241 0 
L 31 0 
L 1759 4666 
L 3194 4666 
L 4922 0 
L 3713 0 
L 3419 850 
z
M 1838 1716 
L 3116 1716 
L 2478 3572 
L 1838 1716 
z
" transform="scale(0.015625)"/>
       <path id="DejaVuSans-Bold-43" d="M 4288 256 
Q 3956 84 3597 -3 
Q 3238 -91 2847 -91 
Q 1681 -91 1000 561 
Q 319 1213 319 2328 
Q 319 3447 1000 4098 
Q 1681 4750 2847 4750 
Q 3238 4750 3597 4662 
Q 3956 4575 4288 4403 
L 4288 3438 
Q 3953 3666 3628 3772 
Q 3303 3878 2944 3878 
Q 2300 3878 1931 3465 
Q 1563 3053 1563 2328 
Q 1563 1606 1931 1193 
Q 2300 781 2944 781 
Q 3303 781 3628 887 
Q 3953 994 4288 1222 
L 4288 256 
z
" transform="scale(0.015625)"/>
       <path id="DejaVuSans-Bold-61" d="M 2106 1575 
Q 1756 1575 1579 1456 
Q 1403 1338 1403 1106 
Q 1403 894 1545 773 
Q 1688 653 1941 653 
Q 2256 653 2472 879 
Q 2688 1106 2688 1447 
L 2688 1575 
L 2106 1575 
z
M 3816 1997 
L 3816 0 
L 2688 0 
L 2688 519 
Q 2463 200 2181 54 
Q 1900 -91 1497 -91 
Q 953 -91 614 226 
Q 275 544 275 1050 
Q 275 1666 698 1953 
Q 1122 2241 2028 2241 
L 2688 2241 
L 2688 2328 
Q 2688 2594 2478 2717 
Q 2269 2841 1825 2841 
Q 1466 2841 1156 2769 
Q 847 2697 581 2553 
L 581 3406 
Q 941 3494 1303 3539 
Q 1666 3584 2028 3584 
Q 2975 3584 3395 3211 
Q 3816 2838 3816 1997 
z
" transform="scale(0.015625)"/>
       <path id="DejaVuSans-Bold-70" d="M 1656 506 
L 1656 -1331 
L 538 -1331 
L 538 3500 
L 1656 3500 
L 1656 2988 
Q 1888 3294 2169 3439 
Q 2450 3584 2816 3584 
Q 3463 3584 3878 3070 
Q 4294 2556 4294 1747 
Q 4294 938 3878 423 
Q 3463 -91 2816 -91 
Q 2450 -91 2169 54 
Q 1888 200 1656 506 
z
M 2400 2772 
Q 2041 2772 1848 2508 
Q 1656 2244 1656 1747 
Q 1656 1250 1848 986 
Q 2041 722 2400 722 
Q 2759 722 2948 984 
Q 3138 1247 3138 1747 
Q 3138 2247 2948 2509 
Q 2759 2772 2400 2772 
z
" transform="scale(0.015625)"/>
       <path id="DejaVuSans-Bold-63" d="M 3366 3391 
L 3366 2478 
Q 3138 2634 2908 2709 
Q 2678 2784 2431 2784 
Q 1963 2784 1702 2511 
Q 1441 2238 1441 1747 
Q 1441 1256 1702 982 
Q 1963 709 2431 709 
Q 2694 709 2930 787 
Q 3166 866 3366 1019 
L 3366 103 
Q 3103 6 2833 -42 
Q 2563 -91 2291 -91 
Q 1344 -91 809 395 
Q 275 881 275 1747 
Q 275 2613 809 3098 
Q 1344 3584 2291 3584 
Q 2566 3584 2833 3536 
Q 3100 3488 3366 3391 
z
" transform="scale(0.015625)"/>
       <path id="DejaVuSans-Bold-74" d="M 1759 4494 
L 1759 3500 
L 2913 3500 
L 2913 2700 
L 1759 2700 
L 1759 1216 
Q 1759 972 1856 886 
Q 1953 800 2241 800 
L 2816 800 
L 2816 0 
L 1856 0 
Q 1194 0 917 276 
Q 641 553 641 1216 
L 641 2700 
L 84 2700 
L 84 3500 
L 641 3500 
L 641 4494 
L 1759 4494 
z
" transform="scale(0.015625)"/>
       <path id="DejaVuSans-Bold-79" d="M 78 3500 
L 1197 3500 
L 2138 1125 
L 2938 3500 
L 4056 3500 
L 2584 -331 
Q 2363 -916 2067 -1148 
Q 1772 -1381 1288 -1381 
L 641 -1381 
L 641 -647 
L 991 -647 
Q 1275 -647 1404 -556 
Q 1534 -466 1606 -231 
L 1638 -134 
L 78 3500 
z
" transform="scale(0.015625)"/>
       <path id="DejaVuSans-Bold-28" d="M 2413 -844 
L 1484 -844 
Q 1006 -72 778 623 
Q 550 1319 550 2003 
Q 550 2688 779 3389 
Q 1009 4091 1484 4856 
L 2413 4856 
Q 2013 4116 1813 3408 
Q 1613 2700 1613 2009 
Q 1613 1319 1811 609 
Q 2009 -100 2413 -844 
z
" transform="scale(0.015625)"/>
       <path id="DejaVuSans-Bold-4d" d="M 588 4666 
L 2119 4666 
L 3181 2169 
L 4250 4666 
L 5778 4666 
L 5778 0 
L 4641 0 
L 4641 3413 
L 3566 897 
L 2803 897 
L 1728 3413 
L 1728 0 
L 588 0 
L 588 4666 
z
" transform="scale(0.015625)"/>
       <path id="DejaVuSans-Bold-57" d="M 191 4666 
L 1344 4666 
L 2150 1275 
L 2950 4666 
L 4109 4666 
L 4909 1275 
L 5716 4666 
L 6859 4666 
L 5759 0 
L 4372 0 
L 3525 3547 
L 2688 0 
L 1300 0 
L 191 4666 
z
" transform="scale(0.015625)"/>
       <path id="DejaVuSans-Bold-29" d="M 513 -844 
Q 913 -100 1113 609 
Q 1313 1319 1313 2009 
Q 1313 2700 1113 3408 
Q 913 4116 513 4856 
L 1441 4856 
Q 1916 4091 2145 3389 
Q 2375 2688 2375 2003 
Q 2375 1319 2147 623 
Q 1919 -72 1441 -844 
L 513 -844 
z
" transform="scale(0.015625)"/>
      </defs>
      <use xlink:href="#DejaVuSans-Bold-54"/>
      <use xlink:href="#DejaVuSans-Bold-69" transform="translate(68.212891 0)"/>
      <use xlink:href="#DejaVuSans-Bold-65" transform="translate(102.490234 0)"/>
      <use xlink:href="#DejaVuSans-Bold-72" transform="translate(170.3125 0)"/>
      <use xlink:href="#DejaVuSans-Bold-20" transform="translate(219.628906 0)"/>
      <use xlink:href="#DejaVuSans-Bold-41" transform="translate(254.443359 0)"/>
      <use xlink:href="#DejaVuSans-Bold-20" transform="translate(331.835938 0)"/>
      <use xlink:href="#DejaVuSans-Bold-43" transform="translate(366.650391 0)"/>
      <use xlink:href="#DejaVuSans-Bold-61" transform="translate(440.039062 0)"/>
      <use xlink:href="#DejaVuSans-Bold-70" transform="translate(507.519531 0)"/>
      <use xlink:href="#DejaVuSans-Bold-61" transform="translate(579.101562 0)"/>
      <use xlink:href="#DejaVuSans-Bold-63" transform="translate(646.582031 0)"/>
      <use xlink:href="#DejaVuSans-Bold-69" transform="translate(705.859375 0)"/>
      <use xlink:href="#DejaVuSans-Bold-74" transform="translate(740.136719 0)"/>
      <use xlink:href="#DejaVuSans-Bold-79" transform="translate(787.939453 0)"/>
      <use xlink:href="#DejaVuSans-Bold-20" transform="translate(853.125 0)"/>
      <use xlink:href="#DejaVuSans-Bold-28" transform="translate(887.939453 0)"/>
      <use xlink:href="#DejaVuSans-Bold-4d" transform="translate(933.642578 0)"/>
      <use xlink:href="#DejaVuSans-Bold-57" transform="translate(1033.154297 0)"/>
      <use xlink:href="#DejaVuSans-Bold-29" transform="translate(1143.457031 0)"/>
     </g>
    </g>
   </g>
   <g id="matplotlib.axis_2">
    <g id="ytick_1">
     <g id="line2d_19">
      <path d="M 41.36 351.4 
L 531.24 351.4 
" clip-path="url(#pa430ce6925)" style="fill: none; stroke-dasharray: 2.96,1.28; stroke-dashoffset: 0; stroke: #b0b0b0; stroke-opacity: 0.3; stroke-width: 0.8"/>
     </g>
     <g id="line2d_20">
      <defs>
       <path id="m217a676ac0" d="M 0 0 
L -3.5 0 
" style="stroke: #333333; stroke-width: 0.8"/>
      </defs>
      <g>
       <use xlink:href="#m217a676ac0" x="41.36" y="351.4" style="fill: #333333; stroke: #333333; stroke-width: 0.8"/>
      </g>
     </g>
     <g id="text_11">
      <!-- 0 -->
      <g style="fill: #333333" transform="translate(28.63375 354.819297) scale(0.09 -0.09)">
       <use xlink:href="#DejaVuSans-30"/>
      </g>
     </g>
    </g>
    <g id="ytick_2">
     <g id="line2d_21">
      <path d="M 41.36 309.678788 
L 531.24 309.678788 
" clip-path="url(#pa430ce6925)" style="fill: none; stroke-dasharray: 2.96,1.28; stroke-dashoffset: 0; stroke: #b0b0b0; stroke-opacity: 0.3; stroke-width: 0.8"/>
     </g>
     <g id="line2d_22">
      <g>
       <use xlink:href="#m217a676ac0" x="41.36" y="309.678788" style="fill: #333333; stroke: #333333; stroke-width: 0.8"/>
      </g>
     </g>
     <g id="text_12">
      <!-- 2 -->
      <g style="fill: #333333" transform="translate(28.63375 313.098085) scale(0.09 -0.09)">
       <use xlink:href="#DejaVuSans-32"/>
      </g>
     </g>
    </g>
    <g id="ytick_3">
     <g id="line2d_23">
      <path d="M 41.36 267.957576 
L 531.24 267.957576 
" clip-path="url(#pa430ce6925)" style="fill: none; stroke-dasharray: 2.96,1.28; stroke-dashoffset: 0; stroke: #b0b0b0; stroke-opacity: 0.3; stroke-width: 0.8"/>
     </g>
     <g id="line2d_24">
      <g>
       <use xlink:href="#m217a676ac0" x="41.36" y="267.957576" style="fill: #333333; stroke: #333333; stroke-width: 0.8"/>
      </g>
     </g>
     <g id="text_13">
      <!-- 4 -->
      <g style="fill: #333333" transform="translate(28.63375 271.376873) scale(0.09 -0.09)">
       <use xlink:href="#DejaVuSans-34"/>
      </g>
     </g>
    </g>
    <g id="ytick_4">
     <g id="line2d_25">
      <path d="M 41.36 226.236364 
L 531.24 226.236364 
" clip-path="url(#pa430ce6925)" style="fill: none; stroke-dasharray: 2.96,1.28; stroke-dashoffset: 0; stroke: #b0b0b0; stroke-opacity: 0.3; stroke-width: 0.8"/>
     </g>
     <g id="line2d_26">
      <g>
       <use xlink:href="#m217a676ac0" x="41.36" y="226.236364" style="fill: #333333; stroke: #333333; stroke-width: 0.8"/>
      </g>
     </g>
     <g id="text_14">
      <!-- 6 -->
      <g style="fill: #333333" transform="translate(28.63375 229.655661) scale(0.09 -0.09)">
       <use xlink:href="#DejaVuSans-36"/>
      </g>
     </g>
    </g>
    <g id="ytick_5">
     <g id="line2d_27">
      <path d="M 41.36 184.515152 
L 531.24 184.515152 
" clip-path="url(#pa430ce6925)" style="fill: none; stroke-dasharray: 2.96,1.28; stroke-dashoffset: 0; stroke: #b0b0b0; stroke-opacity: 0.3; stroke-width: 0.8"/>
     </g>
     <g id="line2d_28">
      <g>
       <use xlink:href="#m217a676ac0" x="41.36" y="184.515152" style="fill: #333333; stroke: #333333; stroke-width: 0.8"/>
      </g>
     </g>
     <g id="text_15">
      <!-- 8 -->
      <g style="fill: #333333" transform="translate(28.63375 187.934448) scale(0.09 -0.09)">
       <use xlink:href="#DejaVuSans-38"/>
      </g>
     </g>
    </g>
    <g id="ytick_6">
     <g id="line2d_29">
      <path d="M 41.36 142.793939 
L 531.24 142.793939 
" clip-path="url(#pa430ce6925)" style="fill: none; stroke-dasharray: 2.96,1.28; stroke-dashoffset: 0; stroke: #b0b0b0; stroke-opacity: 0.3; stroke-width: 0.8"/>
     </g>
     <g id="line2d_30">
      <g>
       <use xlink:href="#m217a676ac0" x="41.36" y="142.793939" style="fill: #333333; stroke: #333333; stroke-width: 0.8"/>
      </g>
     </g>
     <g id="text_16">
      <!-- 10 -->
      <g style="fill: #333333" transform="translate(22.9075 146.213236) scale(0.09 -0.09)">
       <use xlink:href="#DejaVuSans-31"/>
       <use xlink:href="#DejaVuSans-30" transform="translate(63.623047 0)"/>
      </g>
     </g>
    </g>
    <g id="ytick_7">
     <g id="line2d_31">
      <path d="M 41.36 101.072727 
L 531.24 101.072727 
" clip-path="url(#pa430ce6925)" style="fill: none; stroke-dasharray: 2.96,1.28; stroke-dashoffset: 0; stroke: #b0b0b0; stroke-opacity: 0.3; stroke-width: 0.8"/>
     </g>
     <g id="line2d_32">
      <g>
       <use xlink:href="#m217a676ac0" x="41.36" y="101.072727" style="fill: #333333; stroke: #333333; stroke-width: 0.8"/>
      </g>
     </g>
     <g id="text_17">
      <!-- 12 -->
      <g style="fill: #333333" transform="translate(22.9075 104.492024) scale(0.09 -0.09)">
       <use xlink:href="#DejaVuSans-31"/>
       <use xlink:href="#DejaVuSans-32" transform="translate(63.623047 0)"/>
      </g>
     </g>
    </g>
    <g id="ytick_8">
     <g id="line2d_33">
      <path d="M 41.36 59.351515 
L 531.24 59.351515 
" clip-path="url(#pa430ce6925)" style="fill: none; stroke-dasharray: 2.96,1.28; stroke-dashoffset: 0; stroke: #b0b0b0; stroke-opacity: 0.3; stroke-width: 0.8"/>
     </g>
     <g id="line2d_34">
      <g>
       <use xlink:href="#m217a676ac0" x="41.36" y="59.351515" style="fill: #333333; stroke: #333333; stroke-width: 0.8"/>
      </g>
     </g>
     <g id="text_18">
      <!-- 14 -->
      <g style="fill: #333333" transform="translate(22.9075 62.770812) scale(0.09 -0.09)">
       <use xlink:href="#DejaVuSans-31"/>
       <use xlink:href="#DejaVuSans-34" transform="translate(63.623047 0)"/>
      </g>
     </g>
    </g>
    <g id="ytick_9">
     <g id="line2d_35">
      <path d="M 41.36 17.630303 
L 531.24 17.630303 
" clip-path="url(#pa430ce6925)" style="fill: none; stroke-dasharray: 2.96,1.28; stroke-dashoffset: 0; stroke: #b0b0b0; stroke-opacity: 0.3; stroke-width: 0.8"/>
     </g>
     <g id="line2d_36">
      <g>
       <use xlink:href="#m217a676ac0" x="41.36" y="17.630303" style="fill: #333333; stroke: #333333; stroke-width: 0.8"/>
      </g>
     </g>
     <g id="text_19">
      <!-- 16 -->
      <g style="fill: #333333" transform="translate(22.9075 21.0496) scale(0.09 -0.09)">
       <use xlink:href="#DejaVuSans-31"/>
       <use xlink:href="#DejaVuSans-36" transform="translate(63.623047 0)"/>
      </g>
     </g>
    </g>
    <g id="text_20">
     <!-- Tier B1 Capacity (MW) -->
     <g style="fill: #444444" transform="translate(16.318125 254.754687) rotate(-90) scale(0.12 -0.12)">
      <defs>
       <path id="DejaVuSans-Bold-42" d="M 2456 2859 
Q 2741 2859 2887 2984 
Q 3034 3109 3034 3353 
Q 3034 3594 2887 3720 
Q 2741 3847 2456 3847 
L 1791 3847 
L 1791 2859 
L 2456 2859 
z
M 2497 819 
Q 2859 819 3042 972 
Q 3225 1125 3225 1434 
Q 3225 1738 3044 1889 
Q 2863 2041 2497 2041 
L 1791 2041 
L 1791 819 
L 2497 819 
z
M 3616 2497 
Q 4003 2384 4215 2081 
Q 4428 1778 4428 1338 
Q 4428 663 3972 331 
Q 3516 0 2584 0 
L 588 0 
L 588 4666 
L 2394 4666 
Q 3366 4666 3802 4372 
Q 4238 4078 4238 3431 
Q 4238 3091 4078 2852 
Q 3919 2613 3616 2497 
z
" transform="scale(0.015625)"/>
       <path id="DejaVuSans-Bold-31" d="M 750 831 
L 1813 831 
L 1813 3847 
L 722 3622 
L 722 4441 
L 1806 4666 
L 2950 4666 
L 2950 831 
L 4013 831 
L 4013 0 
L 750 0 
L 750 831 
z
" transform="scale(0.015625)"/>
      </defs>
      <use xlink:href="#DejaVuSans-Bold-54"/>
      <use xlink:href="#DejaVuSans-Bold-69" transform="translate(68.212891 0)"/>
      <use xlink:href="#DejaVuSans-Bold-65" transform="translate(102.490234 0)"/>
      <use xlink:href="#DejaVuSans-Bold-72" transform="translate(170.3125 0)"/>
      <use xlink:href="#DejaVuSans-Bold-20" transform="translate(219.628906 0)"/>
      <use xlink:href="#DejaVuSans-Bold-42" transform="translate(254.443359 0)"/>
      <use xlink:href="#DejaVuSans-Bold-31" transform="translate(330.664062 0)"/>
      <use xlink:href="#DejaVuSans-Bold-20" transform="translate(400.244141 0)"/>
      <use xlink:href="#DejaVuSans-Bold-43" transform="translate(435.058594 0)"/>
      <use xlink:href="#DejaVuSans-Bold-61" transform="translate(508.447266 0)"/>
      <use xlink:href="#DejaVuSans-Bold-70" transform="translate(575.927734 0)"/>
      <use xlink:href="#DejaVuSans-Bold-61" transform="translate(647.509766 0)"/>
      <use xlink:href="#DejaVuSans-Bold-63" transform="translate(714.990234 0)"/>
      <use xlink:href="#DejaVuSans-Bold-69" transform="translate(774.267578 0)"/>
      <use xlink:href="#DejaVuSans-Bold-74" transform="translate(808.544922 0)"/>
      <use xlink:href="#DejaVuSans-Bold-79" transform="translate(856.347656 0)"/>
      <use xlink:href="#DejaVuSans-Bold-20" transform="translate(921.533203 0)"/>
      <use xlink:href="#DejaVuSans-Bold-28" transform="translate(956.347656 0)"/>
      <use xlink:href="#DejaVuSans-Bold-4d" transform="translate(1002.050781 0)"/>
      <use xlink:href="#DejaVuSans-Bold-57" transform="translate(1101.5625 0)"/>
      <use xlink:href="#DejaVuSans-Bold-29" transform="translate(1211.865234 0)"/>
     </g>
    </g>
   </g>
   <g id="line2d_37">
    <path d="M 41.36 59.351515 
L 98.992941 80.212121 
L 156.625882 121.933333 
L 214.258824 142.793939 
L 271.891765 184.515152 
L 329.524706 226.236364 
L 387.157647 288.818182 
L 444.790588 351.4 
L 502.423529 351.4 
" clip-path="url(#pa430ce6925)" style="fill: none; stroke: #ff7f0e; stroke-width: 3; stroke-linecap: square"/>
    <defs>
     <path id="m4c2590e048" d="M -3 3 
L 3 3 
L 3 -3 
L -3 -3 
z
" style="stroke: #ff7f0e; stroke-linejoin: miter"/>
    </defs>
    <g clip-path="url(#pa430ce6925)">
     <use xlink:href="#m4c2590e048" x="41.36" y="59.351515" style="fill: #ff7f0e; stroke: #ff7f0e; stroke-linejoin: miter"/>
     <use xlink:href="#m4c2590e048" x="98.992941" y="80.212121" style="fill: #ff7f0e; stroke: #ff7f0e; stroke-linejoin: miter"/>
     <use xlink:href="#m4c2590e048" x="156.625882" y="121.933333" style="fill: #ff7f0e; stroke: #ff7f0e; stroke-linejoin: miter"/>
     <use xlink:href="#m4c2590e048" x="214.258824" y="142.793939" style="fill: #ff7f0e; stroke: #ff7f0e; stroke-linejoin: miter"/>
     <use xlink:href="#m4c2590e048" x="271.891765" y="184.515152" style="fill: #ff7f0e; stroke: #ff7f0e; stroke-linejoin: miter"/>
     <use xlink:href="#m4c2590e048" x="329.524706" y="226.236364" style="fill: #ff7f0e; stroke: #ff7f0e; stroke-linejoin: miter"/>
     <use xlink:href="#m4c2590e048" x="387.157647" y="288.818182" style="fill: #ff7f0e; stroke: #ff7f0e; stroke-linejoin: miter"/>
     <use xlink:href="#m4c2590e048" x="444.790588" y="351.4" style="fill: #ff7f0e; stroke: #ff7f0e; stroke-linejoin: miter"/>
     <use xlink:href="#m4c2590e048" x="502.423529" y="351.4" style="fill: #ff7f0e; stroke: #ff7f0e; stroke-linejoin: miter"/>
    </g>
   </g>
   <g id="patch_3">
    <path d="M 41.36 351.4 
L 41.36 7.2 
" style="fill: none; stroke: #444444; stroke-width: 0.8; stroke-linejoin: miter; stroke-linecap: square"/>
   </g>
   <g id="patch_4">
    <path d="M 41.36 351.4 
L 531.24 351.4 
" style="fill: none; stroke: #444444; stroke-width: 0.8; stroke-linejoin: miter; stroke-linecap: square"/>
   </g>
   <g id="text_21">
    <path d="M 188.603355 247.397116 
L 193.67523 247.397116 
L 193.67523 248.818991 
L 190.483042 248.818991 
L 190.483042 250.175241 
L 193.486167 250.175241 
L 193.486167 251.597116 
L 190.483042 251.597116 
L 190.483042 254.687741 
L 188.603355 254.687741 
L 188.603355 247.397116 
z
M 195.434409 247.397116 
L 200.506284 247.397116 
L 200.506284 248.818991 
L 197.314097 248.818991 
L 197.314097 250.175241 
L 200.317222 250.175241 
L 200.317222 251.597116 
L 197.314097 251.597116 
L 197.314097 253.267429 
L 200.614097 253.267429 
L 200.614097 254.687741 
L 195.434409 254.687741 
L 195.434409 247.397116 
z
M 206.688902 253.359616 
L 203.749839 253.359616 
L 203.285777 254.687741 
L 201.395152 254.687741 
L 204.095152 247.397116 
L 206.337339 247.397116 
L 209.037339 254.687741 
L 207.148277 254.687741 
L 206.688902 253.359616 
z
M 204.218589 252.006491 
L 206.215464 252.006491 
L 205.218589 249.106491 
L 204.218589 252.006491 
z
M 215.076597 247.626804 
L 215.076597 249.170554 
Q 214.476597 248.901804 213.904722 248.765866 
Q 213.334409 248.628366 212.826597 248.628366 
Q 212.153159 248.628366 211.829722 248.814304 
Q 211.507847 248.998679 211.507847 249.389304 
Q 211.507847 249.683054 211.725034 249.847116 
Q 211.942222 250.009616 212.514097 250.126804 
L 213.314097 250.287741 
Q 214.529722 250.533054 215.042222 251.031491 
Q 215.556284 251.528366 215.556284 252.447116 
Q 215.556284 253.651804 214.840659 254.240866 
Q 214.125034 254.829929 212.654722 254.829929 
Q 211.962534 254.829929 211.264097 254.697116 
Q 210.565659 254.565866 209.867222 254.306491 
L 209.867222 252.720554 
Q 210.565659 253.090866 211.217222 253.279929 
Q 211.868784 253.467429 212.475034 253.467429 
Q 213.090659 253.467429 213.417222 253.262741 
Q 213.743784 253.056491 213.743784 252.675241 
Q 213.743784 252.334616 213.521909 252.148679 
Q 213.300034 251.962741 212.635972 251.815866 
L 211.907847 251.654929 
Q 210.814097 251.420554 210.307847 250.908054 
Q 209.803159 250.395554 209.803159 249.526804 
Q 209.803159 248.437741 210.506284 247.851804 
Q 211.209409 247.265866 212.528159 247.265866 
Q 213.129722 247.265866 213.764097 247.356491 
Q 214.398472 247.447116 215.076597 247.626804 
z
M 217.20687 247.397116 
L 219.086558 247.397116 
L 219.086558 254.687741 
L 217.20687 254.687741 
L 217.20687 247.397116 
z
M 223.846324 250.220554 
Q 224.291636 250.220554 224.519761 250.025241 
Q 224.749449 249.829929 224.749449 249.448679 
Q 224.749449 249.072116 224.519761 248.875241 
Q 224.291636 248.676804 223.846324 248.676804 
L 222.807261 248.676804 
L 222.807261 250.220554 
L 223.846324 250.220554 
z
M 223.910386 253.408054 
Q 224.476011 253.408054 224.761949 253.168991 
Q 225.047886 252.929929 225.047886 252.447116 
Q 225.047886 251.972116 224.765074 251.736179 
Q 224.482261 251.498679 223.910386 251.498679 
L 222.807261 251.498679 
L 222.807261 253.408054 
L 223.910386 253.408054 
z
M 225.658824 250.786179 
Q 226.263511 250.962741 226.594761 251.436179 
Q 226.927574 251.909616 226.927574 252.597116 
Q 226.927574 253.651804 226.215074 254.170554 
Q 225.502574 254.687741 224.046324 254.687741 
L 220.927574 254.687741 
L 220.927574 247.397116 
L 223.749449 247.397116 
Q 225.268199 247.397116 225.949449 247.856491 
Q 226.630699 248.315866 226.630699 249.326804 
Q 226.630699 249.858054 226.380699 250.231491 
Q 226.132261 250.604929 225.658824 250.786179 
z
M 228.549644 247.397116 
L 230.429331 247.397116 
L 230.429331 253.267429 
L 233.729331 253.267429 
L 233.729331 254.687741 
L 228.549644 254.687741 
L 228.549644 247.397116 
z
M 234.921714 247.397116 
L 239.993589 247.397116 
L 239.993589 248.818991 
L 236.801402 248.818991 
L 236.801402 250.175241 
L 239.804527 250.175241 
L 239.804527 251.597116 
L 236.801402 251.597116 
L 236.801402 253.267429 
L 240.101402 253.267429 
L 240.101402 254.687741 
L 234.921714 254.687741 
L 234.921714 247.397116 
z
" style="fill: #cc5a00; opacity: 0.9; stroke: #ffffff; stroke-width: 3.5"/>
    <path d="M 188.603355 247.397116 
L 193.67523 247.397116 
L 193.67523 248.818991 
L 190.483042 248.818991 
L 190.483042 250.175241 
L 193.486167 250.175241 
L 193.486167 251.597116 
L 190.483042 251.597116 
L 190.483042 254.687741 
L 188.603355 254.687741 
L 188.603355 247.397116 
z
M 195.434409 247.397116 
L 200.506284 247.397116 
L 200.506284 248.818991 
L 197.314097 248.818991 
L 197.314097 250.175241 
L 200.317222 250.175241 
L 200.317222 251.597116 
L 197.314097 251.597116 
L 197.314097 253.267429 
L 200.614097 253.267429 
L 200.614097 254.687741 
L 195.434409 254.687741 
L 195.434409 247.397116 
z
M 206.688902 253.359616 
L 203.749839 253.359616 
L 203.285777 254.687741 
L 201.395152 254.687741 
L 204.095152 247.397116 
L 206.337339 247.397116 
L 209.037339 254.687741 
L 207.148277 254.687741 
L 206.688902 253.359616 
z
M 204.218589 252.006491 
L 206.215464 252.006491 
L 205.218589 249.106491 
L 204.218589 252.006491 
z
M 215.076597 247.626804 
L 215.076597 249.170554 
Q 214.476597 248.901804 213.904722 248.765866 
Q 213.334409 248.628366 212.826597 248.628366 
Q 212.153159 248.628366 211.829722 248.814304 
Q 211.507847 248.998679 211.507847 249.389304 
Q 211.507847 249.683054 211.725034 249.847116 
Q 211.942222 250.009616 212.514097 250.126804 
L 213.314097 250.287741 
Q 214.529722 250.533054 215.042222 251.031491 
Q 215.556284 251.528366 215.556284 252.447116 
Q 215.556284 253.651804 214.840659 254.240866 
Q 214.125034 254.829929 212.654722 254.829929 
Q 211.962534 254.829929 211.264097 254.697116 
Q 210.565659 254.565866 209.867222 254.306491 
L 209.867222 252.720554 
Q 210.565659 253.090866 211.217222 253.279929 
Q 211.868784 253.467429 212.475034 253.467429 
Q 213.090659 253.467429 213.417222 253.262741 
Q 213.743784 253.056491 213.743784 252.675241 
Q 213.743784 252.334616 213.521909 252.148679 
Q 213.300034 251.962741 212.635972 251.815866 
L 211.907847 251.654929 
Q 210.814097 251.420554 210.307847 250.908054 
Q 209.803159 250.395554 209.803159 249.526804 
Q 209.803159 248.437741 210.506284 247.851804 
Q 211.209409 247.265866 212.528159 247.265866 
Q 213.129722 247.265866 213.764097 247.356491 
Q 214.398472 247.447116 215.076597 247.626804 
z
M 217.20687 247.397116 
L 219.086558 247.397116 
L 219.086558 254.687741 
L 217.20687 254.687741 
L 217.20687 247.397116 
z
M 223.846324 250.220554 
Q 224.291636 250.220554 224.519761 250.025241 
Q 224.749449 249.829929 224.749449 249.448679 
Q 224.749449 249.072116 224.519761 248.875241 
Q 224.291636 248.676804 223.846324 248.676804 
L 222.807261 248.676804 
L 222.807261 250.220554 
L 223.846324 250.220554 
z
M 223.910386 253.408054 
Q 224.476011 253.408054 224.761949 253.168991 
Q 225.047886 252.929929 225.047886 252.447116 
Q 225.047886 251.972116 224.765074 251.736179 
Q 224.482261 251.498679 223.910386 251.498679 
L 222.807261 251.498679 
L 222.807261 253.408054 
L 223.910386 253.408054 
z
M 225.658824 250.786179 
Q 226.263511 250.962741 226.594761 251.436179 
Q 226.927574 251.909616 226.927574 252.597116 
Q 226.927574 253.651804 226.215074 254.170554 
Q 225.502574 254.687741 224.046324 254.687741 
L 220.927574 254.687741 
L 220.927574 247.397116 
L 223.749449 247.397116 
Q 225.268199 247.397116 225.949449 247.856491 
Q 226.630699 248.315866 226.630699 249.326804 
Q 226.630699 249.858054 226.380699 250.231491 
Q 226.132261 250.604929 225.658824 250.786179 
z
M 228.549644 247.397116 
L 230.429331 247.397116 
L 230.429331 253.267429 
L 233.729331 253.267429 
L 233.729331 254.687741 
L 228.549644 254.687741 
L 228.549644 247.397116 
z
M 234.921714 247.397116 
L 239.993589 247.397116 
L 239.993589 248.818991 
L 236.801402 248.818991 
L 236.801402 250.175241 
L 239.804527 250.175241 
L 239.804527 251.597116 
L 236.801402 251.597116 
L 236.801402 253.267429 
L 240.101402 253.267429 
L 240.101402 254.687741 
L 234.921714 254.687741 
L 234.921714 247.397116 
z
" style="fill: #cc5a00"/>
    <path d="M 196.183042 261.827741 
Q 196.773667 261.827741 197.029917 261.608991 
Q 197.286167 261.388679 197.286167 260.885554 
Q 197.286167 260.387116 197.029917 260.173054 
Q 196.773667 259.957429 196.183042 259.957429 
L 195.392417 259.957429 
L 195.392417 261.827741 
L 196.183042 261.827741 
z
M 195.392417 263.126179 
L 195.392417 265.885554 
L 193.51273 265.885554 
L 193.51273 258.594929 
L 196.383042 258.594929 
Q 197.823667 258.594929 198.49398 259.079304 
Q 199.165855 259.562116 199.165855 260.607429 
Q 199.165855 261.329304 198.815855 261.793366 
Q 198.467417 262.257429 197.764292 262.477741 
Q 198.15023 262.565241 198.454917 262.876179 
Q 198.761167 263.185554 199.073667 263.815241 
L 200.09398 265.885554 
L 198.092417 265.885554 
L 197.203355 264.074616 
Q 196.934605 263.527741 196.658042 263.327741 
Q 196.383042 263.126179 195.923667 263.126179 
L 195.392417 263.126179 
z
M 201.212925 258.594929 
L 206.2848 258.594929 
L 206.2848 260.016804 
L 203.092613 260.016804 
L 203.092613 261.373054 
L 206.095738 261.373054 
L 206.095738 262.794929 
L 203.092613 262.794929 
L 203.092613 264.465241 
L 206.392613 264.465241 
L 206.392613 265.885554 
L 201.212925 265.885554 
L 201.212925 258.594929 
z
M 214.595542 265.343366 
Q 213.892417 265.685554 213.136167 265.857429 
Q 212.379917 266.027741 211.573667 266.027741 
Q 209.751792 266.027741 208.68773 265.008991 
Q 207.623667 263.990241 207.623667 262.248054 
Q 207.623667 260.485554 208.70648 259.474616 
Q 209.790855 258.463679 211.676792 258.463679 
Q 212.403355 258.463679 213.06898 258.601179 
Q 213.736167 258.737116 214.326792 259.005866 
L 214.326792 260.513679 
Q 213.717417 260.168366 213.114292 259.998054 
Q 212.511167 259.826179 211.904917 259.826179 
Q 210.783042 259.826179 210.17523 260.454304 
Q 209.567417 261.080866 209.567417 262.248054 
Q 209.567417 263.404304 210.153355 264.035554 
Q 210.739292 264.665241 211.817417 264.665241 
Q 212.111167 264.665241 212.36273 264.629304 
Q 212.614292 264.591804 212.814292 264.513679 
L 212.814292 263.098054 
L 211.665855 263.098054 
L 211.665855 261.837116 
L 214.595542 261.837116 
L 214.595542 265.343366 
z
M 216.251988 258.594929 
L 218.131675 258.594929 
L 218.131675 265.885554 
L 216.251988 265.885554 
L 216.251988 258.594929 
z
M 223.302378 259.826179 
Q 222.443003 259.826179 221.969566 260.460554 
Q 221.496128 261.094929 221.496128 262.248054 
Q 221.496128 263.394929 221.969566 264.030866 
Q 222.443003 264.665241 223.302378 264.665241 
Q 224.166441 264.665241 224.639878 264.030866 
Q 225.113316 263.394929 225.113316 262.248054 
Q 225.113316 261.094929 224.639878 260.460554 
Q 224.166441 259.826179 223.302378 259.826179 
z
M 223.302378 258.463679 
Q 225.060191 258.463679 226.055503 259.469929 
Q 227.052378 260.474616 227.052378 262.248054 
Q 227.052378 264.015241 226.055503 265.021491 
Q 225.060191 266.027741 223.302378 266.027741 
Q 221.549253 266.027741 220.550816 265.021491 
Q 219.552378 264.015241 219.552378 262.248054 
Q 219.552378 260.474616 220.550816 259.469929 
Q 221.549253 258.463679 223.302378 258.463679 
z
M 228.473667 258.594929 
L 230.572105 258.594929 
L 233.223667 263.594929 
L 233.223667 258.594929 
L 235.00648 258.594929 
L 235.00648 265.885554 
L 232.90648 265.885554 
L 230.254917 260.885554 
L 230.254917 265.885554 
L 228.473667 265.885554 
L 228.473667 258.594929 
z
" style="fill: #cc5a00; opacity: 0.9; stroke: #ffffff; stroke-width: 3.5"/>
    <path d="M 196.183042 261.827741 
Q 196.773667 261.827741 197.029917 261.608991 
Q 197.286167 261.388679 197.286167 260.885554 
Q 197.286167 260.387116 197.029917 260.173054 
Q 196.773667 259.957429 196.183042 259.957429 
L 195.392417 259.957429 
L 195.392417 261.827741 
L 196.183042 261.827741 
z
M 195.392417 263.126179 
L 195.392417 265.885554 
L 193.51273 265.885554 
L 193.51273 258.594929 
L 196.383042 258.594929 
Q 197.823667 258.594929 198.49398 259.079304 
Q 199.165855 259.562116 199.165855 260.607429 
Q 199.165855 261.329304 198.815855 261.793366 
Q 198.467417 262.257429 197.764292 262.477741 
Q 198.15023 262.565241 198.454917 262.876179 
Q 198.761167 263.185554 199.073667 263.815241 
L 200.09398 265.885554 
L 198.092417 265.885554 
L 197.203355 264.074616 
Q 196.934605 263.527741 196.658042 263.327741 
Q 196.383042 263.126179 195.923667 263.126179 
L 195.392417 263.126179 
z
M 201.212925 258.594929 
L 206.2848 258.594929 
L 206.2848 260.016804 
L 203.092613 260.016804 
L 203.092613 261.373054 
L 206.095738 261.373054 
L 206.095738 262.794929 
L 203.092613 262.794929 
L 203.092613 264.465241 
L 206.392613 264.465241 
L 206.392613 265.885554 
L 201.212925 265.885554 
L 201.212925 258.594929 
z
M 214.595542 265.343366 
Q 213.892417 265.685554 213.136167 265.857429 
Q 212.379917 266.027741 211.573667 266.027741 
Q 209.751792 266.027741 208.68773 265.008991 
Q 207.623667 263.990241 207.623667 262.248054 
Q 207.623667 260.485554 208.70648 259.474616 
Q 209.790855 258.463679 211.676792 258.463679 
Q 212.403355 258.463679 213.06898 258.601179 
Q 213.736167 258.737116 214.326792 259.005866 
L 214.326792 260.513679 
Q 213.717417 260.168366 213.114292 259.998054 
Q 212.511167 259.826179 211.904917 259.826179 
Q 210.783042 259.826179 210.17523 260.454304 
Q 209.567417 261.080866 209.567417 262.248054 
Q 209.567417 263.404304 210.153355 264.035554 
Q 210.739292 264.665241 211.817417 264.665241 
Q 212.111167 264.665241 212.36273 264.629304 
Q 212.614292 264.591804 212.814292 264.513679 
L 212.814292 263.098054 
L 211.665855 263.098054 
L 211.665855 261.837116 
L 214.595542 261.837116 
L 214.595542 265.343366 
z
M 216.251988 258.594929 
L 218.131675 258.594929 
L 218.131675 265.885554 
L 216.251988 265.885554 
L 216.251988 258.594929 
z
M 223.302378 259.826179 
Q 222.443003 259.826179 221.969566 260.460554 
Q 221.496128 261.094929 221.496128 262.248054 
Q 221.496128 263.394929 221.969566 264.030866 
Q 222.443003 264.665241 223.302378 264.665241 
Q 224.166441 264.665241 224.639878 264.030866 
Q 225.113316 263.394929 225.113316 262.248054 
Q 225.113316 261.094929 224.639878 260.460554 
Q 224.166441 259.826179 223.302378 259.826179 
z
M 223.302378 258.463679 
Q 225.060191 258.463679 226.055503 259.469929 
Q 227.052378 260.474616 227.052378 262.248054 
Q 227.052378 264.015241 226.055503 265.021491 
Q 225.060191 266.027741 223.302378 266.027741 
Q 221.549253 266.027741 220.550816 265.021491 
Q 219.552378 264.015241 219.552378 262.248054 
Q 219.552378 260.474616 220.550816 259.469929 
Q 221.549253 258.463679 223.302378 258.463679 
z
M 228.473667 258.594929 
L 230.572105 258.594929 
L 233.223667 263.594929 
L 233.223667 258.594929 
L 235.00648 258.594929 
L 235.00648 265.885554 
L 232.90648 265.885554 
L 230.254917 260.885554 
L 230.254917 265.885554 
L 228.473667 265.885554 
L 228.473667 258.594929 
z
" style="fill: #cc5a00"/>
   </g>
  </g>
  <g id="axes_2">
   <g id="patch_5">
    <path d="M 575.96 351.4 
L 1065.84 351.4 
L 1065.84 7.2 
L 575.96 7.2 
z
" style="fill: #ffffff"/>
   </g>
   <g id="FillBetweenPolyCollection_2">
    <defs>
     <path id="m600557b3fd" d="M 575.96 -438.389697 
L 575.96 -104.62 
L 633.592941 -104.62 
L 691.225882 -104.62 
L 748.858824 -104.62 
L 806.491765 -104.62 
L 864.124706 -104.62 
L 921.757647 -104.62 
L 979.390588 -104.62 
L 1037.023529 -104.62 
L 1037.023529 -250.644242 
L 1037.023529 -250.644242 
L 979.390588 -271.504848 
L 921.757647 -292.365455 
L 864.124706 -313.226061 
L 806.491765 -334.086667 
L 748.858824 -354.947273 
L 691.225882 -375.807879 
L 633.592941 -417.529091 
L 575.96 -438.389697 
z
" style="stroke: #2ca02c; stroke-opacity: 0.2"/>
    </defs>
    <g clip-path="url(#pee01983582)">
     <use xlink:href="#m600557b3fd" x="0" y="456.02" style="fill: #2ca02c; fill-opacity: 0.2; stroke: #2ca02c; stroke-opacity: 0.2"/>
    </g>
   </g>
   <g id="matplotlib.axis_3">
    <g id="xtick_10">
     <g id="line2d_38">
      <path d="M 575.96 351.4 
L 575.96 7.2 
" clip-path="url(#pee01983582)" style="fill: none; stroke-dasharray: 2.96,1.28; stroke-dashoffset: 0; stroke: #b0b0b0; stroke-opacity: 0.3; stroke-width: 0.8"/>
     </g>
     <g id="line2d_39">
      <g>
       <use xlink:href="#m49b04cae00" x="575.96" y="351.4" style="fill: #333333; stroke: #333333; stroke-width: 0.8"/>
      </g>
     </g>
     <g id="text_22">
      <!-- 0 -->
      <g style="fill: #333333" transform="translate(573.096875 365.238594) scale(0.09 -0.09)">
       <use xlink:href="#DejaVuSans-30"/>
      </g>
     </g>
    </g>
    <g id="xtick_11">
     <g id="line2d_40">
      <path d="M 633.592941 351.4 
L 633.592941 7.2 
" clip-path="url(#pee01983582)" style="fill: none; stroke-dasharray: 2.96,1.28; stroke-dashoffset: 0; stroke: #b0b0b0; stroke-opacity: 0.3; stroke-width: 0.8"/>
     </g>
     <g id="line2d_41">
      <g>
       <use xlink:href="#m49b04cae00" x="633.592941" y="351.4" style="fill: #333333; stroke: #333333; stroke-width: 0.8"/>
      </g>
     </g>
     <g id="text_23">
      <!-- 1 -->
      <g style="fill: #333333" transform="translate(630.729816 365.238594) scale(0.09 -0.09)">
       <use xlink:href="#DejaVuSans-31"/>
      </g>
     </g>
    </g>
    <g id="xtick_12">
     <g id="line2d_42">
      <path d="M 691.225882 351.4 
L 691.225882 7.2 
" clip-path="url(#pee01983582)" style="fill: none; stroke-dasharray: 2.96,1.28; stroke-dashoffset: 0; stroke: #b0b0b0; stroke-opacity: 0.3; stroke-width: 0.8"/>
     </g>
     <g id="line2d_43">
      <g>
       <use xlink:href="#m49b04cae00" x="691.225882" y="351.4" style="fill: #333333; stroke: #333333; stroke-width: 0.8"/>
      </g>
     </g>
     <g id="text_24">
      <!-- 2 -->
      <g style="fill: #333333" transform="translate(688.362757 365.238594) scale(0.09 -0.09)">
       <use xlink:href="#DejaVuSans-32"/>
      </g>
     </g>
    </g>
    <g id="xtick_13">
     <g id="line2d_44">
      <path d="M 748.858824 351.4 
L 748.858824 7.2 
" clip-path="url(#pee01983582)" style="fill: none; stroke-dasharray: 2.96,1.28; stroke-dashoffset: 0; stroke: #b0b0b0; stroke-opacity: 0.3; stroke-width: 0.8"/>
     </g>
     <g id="line2d_45">
      <g>
       <use xlink:href="#m49b04cae00" x="748.858824" y="351.4" style="fill: #333333; stroke: #333333; stroke-width: 0.8"/>
      </g>
     </g>
     <g id="text_25">
      <!-- 3 -->
      <g style="fill: #333333" transform="translate(745.995699 365.238594) scale(0.09 -0.09)">
       <use xlink:href="#DejaVuSans-33"/>
      </g>
     </g>
    </g>
    <g id="xtick_14">
     <g id="line2d_46">
      <path d="M 806.491765 351.4 
L 806.491765 7.2 
" clip-path="url(#pee01983582)" style="fill: none; stroke-dasharray: 2.96,1.28; stroke-dashoffset: 0; stroke: #b0b0b0; stroke-opacity: 0.3; stroke-width: 0.8"/>
     </g>
     <g id="line2d_47">
      <g>
       <use xlink:href="#m49b04cae00" x="806.491765" y="351.4" style="fill: #333333; stroke: #333333; stroke-width: 0.8"/>
      </g>
     </g>
     <g id="text_26">
      <!-- 4 -->
      <g style="fill: #333333" transform="translate(803.62864 365.238594) scale(0.09 -0.09)">
       <use xlink:href="#DejaVuSans-34"/>
      </g>
     </g>
    </g>
    <g id="xtick_15">
     <g id="line2d_48">
      <path d="M 864.124706 351.4 
L 864.124706 7.2 
" clip-path="url(#pee01983582)" style="fill: none; stroke-dasharray: 2.96,1.28; stroke-dashoffset: 0; stroke: #b0b0b0; stroke-opacity: 0.3; stroke-width: 0.8"/>
     </g>
     <g id="line2d_49">
      <g>
       <use xlink:href="#m49b04cae00" x="864.124706" y="351.4" style="fill: #333333; stroke: #333333; stroke-width: 0.8"/>
      </g>
     </g>
     <g id="text_27">
      <!-- 5 -->
      <g style="fill: #333333" transform="translate(861.261581 365.238594) scale(0.09 -0.09)">
       <use xlink:href="#DejaVuSans-35"/>
      </g>
     </g>
    </g>
    <g id="xtick_16">
     <g id="line2d_50">
      <path d="M 921.757647 351.4 
L 921.757647 7.2 
" clip-path="url(#pee01983582)" style="fill: none; stroke-dasharray: 2.96,1.28; stroke-dashoffset: 0; stroke: #b0b0b0; stroke-opacity: 0.3; stroke-width: 0.8"/>
     </g>
     <g id="line2d_51">
      <g>
       <use xlink:href="#m49b04cae00" x="921.757647" y="351.4" style="fill: #333333; stroke: #333333; stroke-width: 0.8"/>
      </g>
     </g>
     <g id="text_28">
      <!-- 6 -->
      <g style="fill: #333333" transform="translate(918.894522 365.238594) scale(0.09 -0.09)">
       <use xlink:href="#DejaVuSans-36"/>
      </g>
     </g>
    </g>
    <g id="xtick_17">
     <g id="line2d_52">
      <path d="M 979.390588 351.4 
L 979.390588 7.2 
" clip-path="url(#pee01983582)" style="fill: none; stroke-dasharray: 2.96,1.28; stroke-dashoffset: 0; stroke: #b0b0b0; stroke-opacity: 0.3; stroke-width: 0.8"/>
     </g>
     <g id="line2d_53">
      <g>
       <use xlink:href="#m49b04cae00" x="979.390588" y="351.4" style="fill: #333333; stroke: #333333; stroke-width: 0.8"/>
      </g>
     </g>
     <g id="text_29">
      <!-- 7 -->
      <g style="fill: #333333" transform="translate(976.527463 365.238594) scale(0.09 -0.09)">
       <use xlink:href="#DejaVuSans-37"/>
      </g>
     </g>
    </g>
    <g id="xtick_18">
     <g id="line2d_54">
      <path d="M 1037.023529 351.4 
L 1037.023529 7.2 
" clip-path="url(#pee01983582)" style="fill: none; stroke-dasharray: 2.96,1.28; stroke-dashoffset: 0; stroke: #b0b0b0; stroke-opacity: 0.3; stroke-width: 0.8"/>
     </g>
     <g id="line2d_55">
      <g>
       <use xlink:href="#m49b04cae00" x="1037.023529" y="351.4" style="fill: #333333; stroke: #333333; stroke-width: 0.8"/>
      </g>
     </g>
     <g id="text_30">
      <!-- 8 -->
      <g style="fill: #333333" transform="translate(1034.160404 365.238594) scale(0.09 -0.09)">
       <use xlink:href="#DejaVuSans-38"/>
      </g>
     </g>
    </g>
    <g id="text_31">
     <!-- Tier A Capacity (MW) -->
     <g style="fill: #444444" transform="translate(749.549688 380.228437) scale(0.12 -0.12)">
      <use xlink:href="#DejaVuSans-Bold-54"/>
      <use xlink:href="#DejaVuSans-Bold-69" transform="translate(68.212891 0)"/>
      <use xlink:href="#DejaVuSans-Bold-65" transform="translate(102.490234 0)"/>
      <use xlink:href="#DejaVuSans-Bold-72" transform="translate(170.3125 0)"/>
      <use xlink:href="#DejaVuSans-Bold-20" transform="translate(219.628906 0)"/>
      <use xlink:href="#DejaVuSans-Bold-41" transform="translate(254.443359 0)"/>
      <use xlink:href="#DejaVuSans-Bold-20" transform="translate(331.835938 0)"/>
      <use xlink:href="#DejaVuSans-Bold-43" transform="translate(366.650391 0)"/>
      <use xlink:href="#DejaVuSans-Bold-61" transform="translate(440.039062 0)"/>
      <use xlink:href="#DejaVuSans-Bold-70" transform="translate(507.519531 0)"/>
      <use xlink:href="#DejaVuSans-Bold-61" transform="translate(579.101562 0)"/>
      <use xlink:href="#DejaVuSans-Bold-63" transform="translate(646.582031 0)"/>
      <use xlink:href="#DejaVuSans-Bold-69" transform="translate(705.859375 0)"/>
      <use xlink:href="#DejaVuSans-Bold-74" transform="translate(740.136719 0)"/>
      <use xlink:href="#DejaVuSans-Bold-79" transform="translate(787.939453 0)"/>
      <use xlink:href="#DejaVuSans-Bold-20" transform="translate(853.125 0)"/>
      <use xlink:href="#DejaVuSans-Bold-28" transform="translate(887.939453 0)"/>
      <use xlink:href="#DejaVuSans-Bold-4d" transform="translate(933.642578 0)"/>
      <use xlink:href="#DejaVuSans-Bold-57" transform="translate(1033.154297 0)"/>
      <use xlink:href="#DejaVuSans-Bold-29" transform="translate(1143.457031 0)"/>
     </g>
    </g>
   </g>
   <g id="matplotlib.axis_4">
    <g id="ytick_10">
     <g id="line2d_56">
      <path d="M 575.96 351.4 
L 1065.84 351.4 
" clip-path="url(#pee01983582)" style="fill: none; stroke-dasharray: 2.96,1.28; stroke-dashoffset: 0; stroke: #b0b0b0; stroke-opacity: 0.3; stroke-width: 0.8"/>
     </g>
     <g id="line2d_57">
      <g>
       <use xlink:href="#m217a676ac0" x="575.96" y="351.4" style="fill: #333333; stroke: #333333; stroke-width: 0.8"/>
      </g>
     </g>
     <g id="text_32">
      <!-- 0 -->
      <g style="fill: #333333" transform="translate(563.23375 354.819297) scale(0.09 -0.09)">
       <use xlink:href="#DejaVuSans-30"/>
      </g>
     </g>
    </g>
    <g id="ytick_11">
     <g id="line2d_58">
      <path d="M 575.96 309.678788 
L 1065.84 309.678788 
" clip-path="url(#pee01983582)" style="fill: none; stroke-dasharray: 2.96,1.28; stroke-dashoffset: 0; stroke: #b0b0b0; stroke-opacity: 0.3; stroke-width: 0.8"/>
     </g>
     <g id="line2d_59">
      <g>
       <use xlink:href="#m217a676ac0" x="575.96" y="309.678788" style="fill: #333333; stroke: #333333; stroke-width: 0.8"/>
      </g>
     </g>
     <g id="text_33">
      <!-- 2 -->
      <g style="fill: #333333" transform="translate(563.23375 313.098085) scale(0.09 -0.09)">
       <use xlink:href="#DejaVuSans-32"/>
      </g>
     </g>
    </g>
    <g id="ytick_12">
     <g id="line2d_60">
      <path d="M 575.96 267.957576 
L 1065.84 267.957576 
" clip-path="url(#pee01983582)" style="fill: none; stroke-dasharray: 2.96,1.28; stroke-dashoffset: 0; stroke: #b0b0b0; stroke-opacity: 0.3; stroke-width: 0.8"/>
     </g>
     <g id="line2d_61">
      <g>
       <use xlink:href="#m217a676ac0" x="575.96" y="267.957576" style="fill: #333333; stroke: #333333; stroke-width: 0.8"/>
      </g>
     </g>
     <g id="text_34">
      <!-- 4 -->
      <g style="fill: #333333" transform="translate(563.23375 271.376873) scale(0.09 -0.09)">
       <use xlink:href="#DejaVuSans-34"/>
      </g>
     </g>
    </g>
    <g id="ytick_13">
     <g id="line2d_62">
      <path d="M 575.96 226.236364 
L 1065.84 226.236364 
" clip-path="url(#pee01983582)" style="fill: none; stroke-dasharray: 2.96,1.28; stroke-dashoffset: 0; stroke: #b0b0b0; stroke-opacity: 0.3; stroke-width: 0.8"/>
     </g>
     <g id="line2d_63">
      <g>
       <use xlink:href="#m217a676ac0" x="575.96" y="226.236364" style="fill: #333333; stroke: #333333; stroke-width: 0.8"/>
      </g>
     </g>
     <g id="text_35">
      <!-- 6 -->
      <g style="fill: #333333" transform="translate(563.23375 229.655661) scale(0.09 -0.09)">
       <use xlink:href="#DejaVuSans-36"/>
      </g>
     </g>
    </g>
    <g id="ytick_14">
     <g id="line2d_64">
      <path d="M 575.96 184.515152 
L 1065.84 184.515152 
" clip-path="url(#pee01983582)" style="fill: none; stroke-dasharray: 2.96,1.28; stroke-dashoffset: 0; stroke: #b0b0b0; stroke-opacity: 0.3; stroke-width: 0.8"/>
     </g>
     <g id="line2d_65">
      <g>
       <use xlink:href="#m217a676ac0" x="575.96" y="184.515152" style="fill: #333333; stroke: #333333; stroke-width: 0.8"/>
      </g>
     </g>
     <g id="text_36">
      <!-- 8 -->
      <g style="fill: #333333" transform="translate(563.23375 187.934448) scale(0.09 -0.09)">
       <use xlink:href="#DejaVuSans-38"/>
      </g>
     </g>
    </g>
    <g id="ytick_15">
     <g id="line2d_66">
      <path d="M 575.96 142.793939 
L 1065.84 142.793939 
" clip-path="url(#pee01983582)" style="fill: none; stroke-dasharray: 2.96,1.28; stroke-dashoffset: 0; stroke: #b0b0b0; stroke-opacity: 0.3; stroke-width: 0.8"/>
     </g>
     <g id="line2d_67">
      <g>
       <use xlink:href="#m217a676ac0" x="575.96" y="142.793939" style="fill: #333333; stroke: #333333; stroke-width: 0.8"/>
      </g>
     </g>
     <g id="text_37">
      <!-- 10 -->
      <g style="fill: #333333" transform="translate(557.5075 146.213236) scale(0.09 -0.09)">
       <use xlink:href="#DejaVuSans-31"/>
       <use xlink:href="#DejaVuSans-30" transform="translate(63.623047 0)"/>
      </g>
     </g>
    </g>
    <g id="ytick_16">
     <g id="line2d_68">
      <path d="M 575.96 101.072727 
L 1065.84 101.072727 
" clip-path="url(#pee01983582)" style="fill: none; stroke-dasharray: 2.96,1.28; stroke-dashoffset: 0; stroke: #b0b0b0; stroke-opacity: 0.3; stroke-width: 0.8"/>
     </g>
     <g id="line2d_69">
      <g>
       <use xlink:href="#m217a676ac0" x="575.96" y="101.072727" style="fill: #333333; stroke: #333333; stroke-width: 0.8"/>
      </g>
     </g>
     <g id="text_38">
      <!-- 12 -->
      <g style="fill: #333333" transform="translate(557.5075 104.492024) scale(0.09 -0.09)">
       <use xlink:href="#DejaVuSans-31"/>
       <use xlink:href="#DejaVuSans-32" transform="translate(63.623047 0)"/>
      </g>
     </g>
    </g>
    <g id="ytick_17">
     <g id="line2d_70">
      <path d="M 575.96 59.351515 
L 1065.84 59.351515 
" clip-path="url(#pee01983582)" style="fill: none; stroke-dasharray: 2.96,1.28; stroke-dashoffset: 0; stroke: #b0b0b0; stroke-opacity: 0.3; stroke-width: 0.8"/>
     </g>
     <g id="line2d_71">
      <g>
       <use xlink:href="#m217a676ac0" x="575.96" y="59.351515" style="fill: #333333; stroke: #333333; stroke-width: 0.8"/>
      </g>
     </g>
     <g id="text_39">
      <!-- 14 -->
      <g style="fill: #333333" transform="translate(557.5075 62.770812) scale(0.09 -0.09)">
       <use xlink:href="#DejaVuSans-31"/>
       <use xlink:href="#DejaVuSans-34" transform="translate(63.623047 0)"/>
      </g>
     </g>
    </g>
    <g id="ytick_18">
     <g id="line2d_72">
      <path d="M 575.96 17.630303 
L 1065.84 17.630303 
" clip-path="url(#pee01983582)" style="fill: none; stroke-dasharray: 2.96,1.28; stroke-dashoffset: 0; stroke: #b0b0b0; stroke-opacity: 0.3; stroke-width: 0.8"/>
     </g>
     <g id="line2d_73">
      <g>
       <use xlink:href="#m217a676ac0" x="575.96" y="17.630303" style="fill: #333333; stroke: #333333; stroke-width: 0.8"/>
      </g>
     </g>
     <g id="text_40">
      <!-- 16 -->
      <g style="fill: #333333" transform="translate(557.5075 21.0496) scale(0.09 -0.09)">
       <use xlink:href="#DejaVuSans-31"/>
       <use xlink:href="#DejaVuSans-36" transform="translate(63.623047 0)"/>
      </g>
     </g>
    </g>
    <g id="text_41">
     <!-- Tier B2 Capacity (MW) -->
     <g style="fill: #444444" transform="translate(550.918125 254.754687) rotate(-90) scale(0.12 -0.12)">
      <defs>
       <path id="DejaVuSans-Bold-32" d="M 1844 884 
L 3897 884 
L 3897 0 
L 506 0 
L 506 884 
L 2209 2388 
Q 2438 2594 2547 2791 
Q 2656 2988 2656 3200 
Q 2656 3528 2436 3728 
Q 2216 3928 1850 3928 
Q 1569 3928 1234 3808 
Q 900 3688 519 3450 
L 519 4475 
Q 925 4609 1322 4679 
Q 1719 4750 2100 4750 
Q 2938 4750 3402 4381 
Q 3866 4013 3866 3353 
Q 3866 2972 3669 2642 
Q 3472 2313 2841 1759 
L 1844 884 
z
" transform="scale(0.015625)"/>
      </defs>
      <use xlink:href="#DejaVuSans-Bold-54"/>
      <use xlink:href="#DejaVuSans-Bold-69" transform="translate(68.212891 0)"/>
      <use xlink:href="#DejaVuSans-Bold-65" transform="translate(102.490234 0)"/>
      <use xlink:href="#DejaVuSans-Bold-72" transform="translate(170.3125 0)"/>
      <use xlink:href="#DejaVuSans-Bold-20" transform="translate(219.628906 0)"/>
      <use xlink:href="#DejaVuSans-Bold-42" transform="translate(254.443359 0)"/>
      <use xlink:href="#DejaVuSans-Bold-32" transform="translate(330.664062 0)"/>
      <use xlink:href="#DejaVuSans-Bold-20" transform="translate(400.244141 0)"/>
      <use xlink:href="#DejaVuSans-Bold-43" transform="translate(435.058594 0)"/>
      <use xlink:href="#DejaVuSans-Bold-61" transform="translate(508.447266 0)"/>
      <use xlink:href="#DejaVuSans-Bold-70" transform="translate(575.927734 0)"/>
      <use xlink:href="#DejaVuSans-Bold-61" transform="translate(647.509766 0)"/>
      <use xlink:href="#DejaVuSans-Bold-63" transform="translate(714.990234 0)"/>
      <use xlink:href="#DejaVuSans-Bold-69" transform="translate(774.267578 0)"/>
      <use xlink:href="#DejaVuSans-Bold-74" transform="translate(808.544922 0)"/>
      <use xlink:href="#DejaVuSans-Bold-79" transform="translate(856.347656 0)"/>
      <use xlink:href="#DejaVuSans-Bold-20" transform="translate(921.533203 0)"/>
      <use xlink:href="#DejaVuSans-Bold-28" transform="translate(956.347656 0)"/>
      <use xlink:href="#DejaVuSans-Bold-4d" transform="translate(1002.050781 0)"/>
      <use xlink:href="#DejaVuSans-Bold-57" transform="translate(1101.5625 0)"/>
      <use xlink:href="#DejaVuSans-Bold-29" transform="translate(1211.865234 0)"/>
     </g>
    </g>
   </g>
   <g id="line2d_74">
    <path d="M 575.96 17.630303 
L 633.592941 38.490909 
L 691.225882 80.212121 
L 748.858824 101.072727 
L 806.491765 121.933333 
L 864.124706 142.793939 
L 921.757647 163.654545 
L 979.390588 184.515152 
L 1037.023529 205.375758 
" clip-path="url(#pee01983582)" style="fill: none; stroke: #2ca02c; stroke-width: 3; stroke-linecap: square"/>
    <defs>
     <path id="m711a10565b" d="M 0 -3 
L -3 3 
L 3 3 
z
" style="stroke: #2ca02c; stroke-linejoin: miter"/>
    </defs>
    <g clip-path="url(#pee01983582)">
     <use xlink:href="#m711a10565b" x="575.96" y="17.630303" style="fill: #2ca02c; stroke: #2ca02c; stroke-linejoin: miter"/>
     <use xlink:href="#m711a10565b" x="633.592941" y="38.490909" style="fill: #2ca02c; stroke: #2ca02c; stroke-linejoin: miter"/>
     <use xlink:href="#m711a10565b" x="691.225882" y="80.212121" style="fill: #2ca02c; stroke: #2ca02c; stroke-linejoin: miter"/>
     <use xlink:href="#m711a10565b" x="748.858824" y="101.072727" style="fill: #2ca02c; stroke: #2ca02c; stroke-linejoin: miter"/>
     <use xlink:href="#m711a10565b" x="806.491765" y="121.933333" style="fill: #2ca02c; stroke: #2ca02c; stroke-linejoin: miter"/>
     <use xlink:href="#m711a10565b" x="864.124706" y="142.793939" style="fill: #2ca02c; stroke: #2ca02c; stroke-linejoin: miter"/>
     <use xlink:href="#m711a10565b" x="921.757647" y="163.654545" style="fill: #2ca02c; stroke: #2ca02c; stroke-linejoin: miter"/>
     <use xlink:href="#m711a10565b" x="979.390588" y="184.515152" style="fill: #2ca02c; stroke: #2ca02c; stroke-linejoin: miter"/>
     <use xlink:href="#m711a10565b" x="1037.023529" y="205.375758" style="fill: #2ca02c; stroke: #2ca02c; stroke-linejoin: miter"/>
    </g>
   </g>
   <g id="patch_6">
    <path d="M 575.96 351.4 
L 575.96 7.2 
" style="fill: none; stroke: #444444; stroke-width: 0.8; stroke-linejoin: miter; stroke-linecap: square"/>
   </g>
   <g id="patch_7">
    <path d="M 575.96 351.4 
L 1065.84 351.4 
" style="fill: none; stroke: #444444; stroke-width: 0.8; stroke-linejoin: miter; stroke-linecap: square"/>
   </g>
   <g id="text_42">
    <path d="M 780.836296 226.53651 
L 785.908171 226.53651 
L 785.908171 227.958385 
L 782.715983 227.958385 
L 782.715983 229.314635 
L 785.719108 229.314635 
L 785.719108 230.73651 
L 782.715983 230.73651 
L 782.715983 233.827135 
L 780.836296 233.827135 
L 780.836296 226.53651 
z
M 787.667351 226.53651 
L 792.739226 226.53651 
L 792.739226 227.958385 
L 789.547038 227.958385 
L 789.547038 229.314635 
L 792.550163 229.314635 
L 792.550163 230.73651 
L 789.547038 230.73651 
L 789.547038 232.406823 
L 792.847038 232.406823 
L 792.847038 233.827135 
L 787.667351 233.827135 
L 787.667351 226.53651 
z
M 798.921843 232.49901 
L 795.98278 232.49901 
L 795.518718 233.827135 
L 793.628093 233.827135 
L 796.328093 226.53651 
L 798.57028 226.53651 
L 801.27028 233.827135 
L 799.381218 233.827135 
L 798.921843 232.49901 
z
M 796.45153 231.145885 
L 798.448405 231.145885 
L 797.45153 228.245885 
L 796.45153 231.145885 
z
M 807.309538 226.766198 
L 807.309538 228.309948 
Q 806.709538 228.041198 806.137663 227.90526 
Q 805.567351 227.76776 805.059538 227.76776 
Q 804.386101 227.76776 804.062663 227.953698 
Q 803.740788 228.138073 803.740788 228.528698 
Q 803.740788 228.822448 803.957976 228.98651 
Q 804.175163 229.14901 804.747038 229.266198 
L 805.547038 229.427135 
Q 806.762663 229.672448 807.275163 230.170885 
Q 807.789226 230.66776 807.789226 231.58651 
Q 807.789226 232.791198 807.073601 233.38026 
Q 806.357976 233.969323 804.887663 233.969323 
Q 804.195476 233.969323 803.497038 233.83651 
Q 802.798601 233.70526 802.100163 233.445885 
L 802.100163 231.859948 
Q 802.798601 232.23026 803.450163 232.419323 
Q 804.101726 232.606823 804.707976 232.606823 
Q 805.323601 232.606823 805.650163 232.402135 
Q 805.976726 232.195885 805.976726 231.814635 
Q 805.976726 231.47401 805.754851 231.288073 
Q 805.532976 231.102135 804.868913 230.95526 
L 804.140788 230.794323 
Q 803.047038 230.559948 802.540788 230.047448 
Q 802.036101 229.534948 802.036101 228.666198 
Q 802.036101 227.577135 802.739226 226.991198 
Q 803.442351 226.40526 804.761101 226.40526 
Q 805.362663 226.40526 805.997038 226.495885 
Q 806.631413 226.58651 807.309538 226.766198 
z
M 809.439812 226.53651 
L 811.319499 226.53651 
L 811.319499 233.827135 
L 809.439812 233.827135 
L 809.439812 226.53651 
z
M 816.079265 229.359948 
Q 816.524577 229.359948 816.752702 229.164635 
Q 816.98239 228.969323 816.98239 228.588073 
Q 816.98239 228.21151 816.752702 228.014635 
Q 816.524577 227.816198 816.079265 227.816198 
L 815.040202 227.816198 
L 815.040202 229.359948 
L 816.079265 229.359948 
z
M 816.143327 232.547448 
Q 816.708952 232.547448 816.99489 232.308385 
Q 817.280827 232.069323 817.280827 231.58651 
Q 817.280827 231.11151 816.998015 230.875573 
Q 816.715202 230.638073 816.143327 230.638073 
L 815.040202 230.638073 
L 815.040202 232.547448 
L 816.143327 232.547448 
z
M 817.891765 229.925573 
Q 818.496452 230.102135 818.827702 230.575573 
Q 819.160515 231.04901 819.160515 231.73651 
Q 819.160515 232.791198 818.448015 233.309948 
Q 817.735515 233.827135 816.279265 233.827135 
L 813.160515 233.827135 
L 813.160515 226.53651 
L 815.98239 226.53651 
Q 817.50114 226.53651 818.18239 226.995885 
Q 818.86364 227.45526 818.86364 228.466198 
Q 818.86364 228.997448 818.61364 229.370885 
Q 818.365202 229.744323 817.891765 229.925573 
z
M 820.782585 226.53651 
L 822.662273 226.53651 
L 822.662273 232.406823 
L 825.962273 232.406823 
L 825.962273 233.827135 
L 820.782585 233.827135 
L 820.782585 226.53651 
z
M 827.154655 226.53651 
L 832.22653 226.53651 
L 832.22653 227.958385 
L 829.034343 227.958385 
L 829.034343 229.314635 
L 832.037468 229.314635 
L 832.037468 230.73651 
L 829.034343 230.73651 
L 829.034343 232.406823 
L 832.334343 232.406823 
L 832.334343 233.827135 
L 827.154655 233.827135 
L 827.154655 226.53651 
z
" style="fill: #1e7a1e; opacity: 0.9; stroke: #ffffff; stroke-width: 3.5"/>
    <path d="M 780.836296 226.53651 
L 785.908171 226.53651 
L 785.908171 227.958385 
L 782.715983 227.958385 
L 782.715983 229.314635 
L 785.719108 229.314635 
L 785.719108 230.73651 
L 782.715983 230.73651 
L 782.715983 233.827135 
L 780.836296 233.827135 
L 780.836296 226.53651 
z
M 787.667351 226.53651 
L 792.739226 226.53651 
L 792.739226 227.958385 
L 789.547038 227.958385 
L 789.547038 229.314635 
L 792.550163 229.314635 
L 792.550163 230.73651 
L 789.547038 230.73651 
L 789.547038 232.406823 
L 792.847038 232.406823 
L 792.847038 233.827135 
L 787.667351 233.827135 
L 787.667351 226.53651 
z
M 798.921843 232.49901 
L 795.98278 232.49901 
L 795.518718 233.827135 
L 793.628093 233.827135 
L 796.328093 226.53651 
L 798.57028 226.53651 
L 801.27028 233.827135 
L 799.381218 233.827135 
L 798.921843 232.49901 
z
M 796.45153 231.145885 
L 798.448405 231.145885 
L 797.45153 228.245885 
L 796.45153 231.145885 
z
M 807.309538 226.766198 
L 807.309538 228.309948 
Q 806.709538 228.041198 806.137663 227.90526 
Q 805.567351 227.76776 805.059538 227.76776 
Q 804.386101 227.76776 804.062663 227.953698 
Q 803.740788 228.138073 803.740788 228.528698 
Q 803.740788 228.822448 803.957976 228.98651 
Q 804.175163 229.14901 804.747038 229.266198 
L 805.547038 229.427135 
Q 806.762663 229.672448 807.275163 230.170885 
Q 807.789226 230.66776 807.789226 231.58651 
Q 807.789226 232.791198 807.073601 233.38026 
Q 806.357976 233.969323 804.887663 233.969323 
Q 804.195476 233.969323 803.497038 233.83651 
Q 802.798601 233.70526 802.100163 233.445885 
L 802.100163 231.859948 
Q 802.798601 232.23026 803.450163 232.419323 
Q 804.101726 232.606823 804.707976 232.606823 
Q 805.323601 232.606823 805.650163 232.402135 
Q 805.976726 232.195885 805.976726 231.814635 
Q 805.976726 231.47401 805.754851 231.288073 
Q 805.532976 231.102135 804.868913 230.95526 
L 804.140788 230.794323 
Q 803.047038 230.559948 802.540788 230.047448 
Q 802.036101 229.534948 802.036101 228.666198 
Q 802.036101 227.577135 802.739226 226.991198 
Q 803.442351 226.40526 804.761101 226.40526 
Q 805.362663 226.40526 805.997038 226.495885 
Q 806.631413 226.58651 807.309538 226.766198 
z
M 809.439812 226.53651 
L 811.319499 226.53651 
L 811.319499 233.827135 
L 809.439812 233.827135 
L 809.439812 226.53651 
z
M 816.079265 229.359948 
Q 816.524577 229.359948 816.752702 229.164635 
Q 816.98239 228.969323 816.98239 228.588073 
Q 816.98239 228.21151 816.752702 228.014635 
Q 816.524577 227.816198 816.079265 227.816198 
L 815.040202 227.816198 
L 815.040202 229.359948 
L 816.079265 229.359948 
z
M 816.143327 232.547448 
Q 816.708952 232.547448 816.99489 232.308385 
Q 817.280827 232.069323 817.280827 231.58651 
Q 817.280827 231.11151 816.998015 230.875573 
Q 816.715202 230.638073 816.143327 230.638073 
L 815.040202 230.638073 
L 815.040202 232.547448 
L 816.143327 232.547448 
z
M 817.891765 229.925573 
Q 818.496452 230.102135 818.827702 230.575573 
Q 819.160515 231.04901 819.160515 231.73651 
Q 819.160515 232.791198 818.448015 233.309948 
Q 817.735515 233.827135 816.279265 233.827135 
L 813.160515 233.827135 
L 813.160515 226.53651 
L 815.98239 226.53651 
Q 817.50114 226.53651 818.18239 226.995885 
Q 818.86364 227.45526 818.86364 228.466198 
Q 818.86364 228.997448 818.61364 229.370885 
Q 818.365202 229.744323 817.891765 229.925573 
z
M 820.782585 226.53651 
L 822.662273 226.53651 
L 822.662273 232.406823 
L 825.962273 232.406823 
L 825.962273 233.827135 
L 820.782585 233.827135 
L 820.782585 226.53651 
z
M 827.154655 226.53651 
L 832.22653 226.53651 
L 832.22653 227.958385 
L 829.034343 227.958385 
L 829.034343 229.314635 
L 832.037468 229.314635 
L 832.037468 230.73651 
L 829.034343 230.73651 
L 829.034343 232.406823 
L 832.334343 232.406823 
L 832.334343 233.827135 
L 827.154655 233.827135 
L 827.154655 226.53651 
z
" style="fill: #1e7a1e"/>
    <path d="M 788.415983 240.967135 
Q 789.006608 240.967135 789.262858 240.748385 
Q 789.519108 240.528073 789.519108 240.024948 
Q 789.519108 239.52651 789.262858 239.312448 
Q 789.006608 239.096823 788.415983 239.096823 
L 787.625358 239.096823 
L 787.625358 240.967135 
L 788.415983 240.967135 
z
M 787.625358 242.265573 
L 787.625358 245.024948 
L 785.745671 245.024948 
L 785.745671 237.734323 
L 788.615983 237.734323 
Q 790.056608 237.734323 790.726921 238.218698 
Q 791.398796 238.70151 791.398796 239.746823 
Q 791.398796 240.468698 791.048796 240.93276 
Q 790.700358 241.396823 789.997233 241.617135 
Q 790.383171 241.704635 790.687858 242.015573 
Q 790.994108 242.324948 791.306608 242.954635 
L 792.326921 245.024948 
L 790.325358 245.024948 
L 789.436296 243.21401 
Q 789.167546 242.667135 788.890983 242.467135 
Q 788.615983 242.265573 788.156608 242.265573 
L 787.625358 242.265573 
z
M 793.445866 237.734323 
L 798.517741 237.734323 
L 798.517741 239.156198 
L 795.325554 239.156198 
L 795.325554 240.512448 
L 798.328679 240.512448 
L 798.328679 241.934323 
L 795.325554 241.934323 
L 795.325554 243.604635 
L 798.625554 243.604635 
L 798.625554 245.024948 
L 793.445866 245.024948 
L 793.445866 237.734323 
z
M 806.828483 244.48276 
Q 806.125358 244.824948 805.369108 244.996823 
Q 804.612858 245.167135 803.806608 245.167135 
Q 801.984733 245.167135 800.920671 244.148385 
Q 799.856608 243.129635 799.856608 241.387448 
Q 799.856608 239.624948 800.939421 238.61401 
Q 802.023796 237.603073 803.909733 237.603073 
Q 804.636296 237.603073 805.301921 237.740573 
Q 805.969108 237.87651 806.559733 238.14526 
L 806.559733 239.653073 
Q 805.950358 239.30776 805.347233 239.137448 
Q 804.744108 238.965573 804.137858 238.965573 
Q 803.015983 238.965573 802.408171 239.593698 
Q 801.800358 240.22026 801.800358 241.387448 
Q 801.800358 242.543698 802.386296 243.174948 
Q 802.972233 243.804635 804.050358 243.804635 
Q 804.344108 243.804635 804.595671 243.768698 
Q 804.847233 243.731198 805.047233 243.653073 
L 805.047233 242.237448 
L 803.898796 242.237448 
L 803.898796 240.97651 
L 806.828483 240.97651 
L 806.828483 244.48276 
z
M 808.484929 237.734323 
L 810.364616 237.734323 
L 810.364616 245.024948 
L 808.484929 245.024948 
L 808.484929 237.734323 
z
M 815.535319 238.965573 
Q 814.675944 238.965573 814.202507 239.599948 
Q 813.729069 240.234323 813.729069 241.387448 
Q 813.729069 242.534323 814.202507 243.17026 
Q 814.675944 243.804635 815.535319 243.804635 
Q 816.399382 243.804635 816.872819 243.17026 
Q 817.346257 242.534323 817.346257 241.387448 
Q 817.346257 240.234323 816.872819 239.599948 
Q 816.399382 238.965573 815.535319 238.965573 
z
M 815.535319 237.603073 
Q 817.293132 237.603073 818.288444 238.609323 
Q 819.285319 239.61401 819.285319 241.387448 
Q 819.285319 243.154635 818.288444 244.160885 
Q 817.293132 245.167135 815.535319 245.167135 
Q 813.782194 245.167135 812.783757 244.160885 
Q 811.785319 243.154635 811.785319 241.387448 
Q 811.785319 239.61401 812.783757 238.609323 
Q 813.782194 237.603073 815.535319 237.603073 
z
M 820.706608 237.734323 
L 822.805046 237.734323 
L 825.456608 242.734323 
L 825.456608 237.734323 
L 827.239421 237.734323 
L 827.239421 245.024948 
L 825.139421 245.024948 
L 822.487858 240.024948 
L 822.487858 245.024948 
L 820.706608 245.024948 
L 820.706608 237.734323 
z
" style="fill: #1e7a1e; opacity: 0.9; stroke: #ffffff; stroke-width: 3.5"/>
    <path d="M 788.415983 240.967135 
Q 789.006608 240.967135 789.262858 240.748385 
Q 789.519108 240.528073 789.519108 240.024948 
Q 789.519108 239.52651 789.262858 239.312448 
Q 789.006608 239.096823 788.415983 239.096823 
L 787.625358 239.096823 
L 787.625358 240.967135 
L 788.415983 240.967135 
z
M 787.625358 242.265573 
L 787.625358 245.024948 
L 785.745671 245.024948 
L 785.745671 237.734323 
L 788.615983 237.734323 
Q 790.056608 237.734323 790.726921 238.218698 
Q 791.398796 238.70151 791.398796 239.746823 
Q 791.398796 240.468698 791.048796 240.93276 
Q 790.700358 241.396823 789.997233 241.617135 
Q 790.383171 241.704635 790.687858 242.015573 
Q 790.994108 242.324948 791.306608 242.954635 
L 792.326921 245.024948 
L 790.325358 245.024948 
L 789.436296 243.21401 
Q 789.167546 242.667135 788.890983 242.467135 
Q 788.615983 242.265573 788.156608 242.265573 
L 787.625358 242.265573 
z
M 793.445866 237.734323 
L 798.517741 237.734323 
L 798.517741 239.156198 
L 795.325554 239.156198 
L 795.325554 240.512448 
L 798.328679 240.512448 
L 798.328679 241.934323 
L 795.325554 241.934323 
L 795.325554 243.604635 
L 798.625554 243.604635 
L 798.625554 245.024948 
L 793.445866 245.024948 
L 793.445866 237.734323 
z
M 806.828483 244.48276 
Q 806.125358 244.824948 805.369108 244.996823 
Q 804.612858 245.167135 803.806608 245.167135 
Q 801.984733 245.167135 800.920671 244.148385 
Q 799.856608 243.129635 799.856608 241.387448 
Q 799.856608 239.624948 800.939421 238.61401 
Q 802.023796 237.603073 803.909733 237.603073 
Q 804.636296 237.603073 805.301921 237.740573 
Q 805.969108 237.87651 806.559733 238.14526 
L 806.559733 239.653073 
Q 805.950358 239.30776 805.347233 239.137448 
Q 804.744108 238.965573 804.137858 238.965573 
Q 803.015983 238.965573 802.408171 239.593698 
Q 801.800358 240.22026 801.800358 241.387448 
Q 801.800358 242.543698 802.386296 243.174948 
Q 802.972233 243.804635 804.050358 243.804635 
Q 804.344108 243.804635 804.595671 243.768698 
Q 804.847233 243.731198 805.047233 243.653073 
L 805.047233 242.237448 
L 803.898796 242.237448 
L 803.898796 240.97651 
L 806.828483 240.97651 
L 806.828483 244.48276 
z
M 808.484929 237.734323 
L 810.364616 237.734323 
L 810.364616 245.024948 
L 808.484929 245.024948 
L 808.484929 237.734323 
z
M 815.535319 238.965573 
Q 814.675944 238.965573 814.202507 239.599948 
Q 813.729069 240.234323 813.729069 241.387448 
Q 813.729069 242.534323 814.202507 243.17026 
Q 814.675944 243.804635 815.535319 243.804635 
Q 816.399382 243.804635 816.872819 243.17026 
Q 817.346257 242.534323 817.346257 241.387448 
Q 817.346257 240.234323 816.872819 239.599948 
Q 816.399382 238.965573 815.535319 238.965573 
z
M 815.535319 237.603073 
Q 817.293132 237.603073 818.288444 238.609323 
Q 819.285319 239.61401 819.285319 241.387448 
Q 819.285319 243.154635 818.288444 244.160885 
Q 817.293132 245.167135 815.535319 245.167135 
Q 813.782194 245.167135 812.783757 244.160885 
Q 811.785319 243.154635 811.785319 241.387448 
Q 811.785319 239.61401 812.783757 238.609323 
Q 813.782194 237.603073 815.535319 237.603073 
z
M 820.706608 237.734323 
L 822.805046 237.734323 
L 825.456608 242.734323 
L 825.456608 237.734323 
L 827.239421 237.734323 
L 827.239421 245.024948 
L 825.139421 245.024948 
L 822.487858 240.024948 
L 822.487858 245.024948 
L 820.706608 245.024948 
L 820.706608 237.734323 
z
" style="fill: #1e7a1e"/>
   </g>
  </g>
  <g id="legend_1">
   <g id="patch_8">
    <path d="M 359.265859 425.986406 
L 381.265859 425.986406 
L 381.265859 418.286406 
L 359.265859 418.286406 
z
" style="fill: #ff7f0e; opacity: 0.2"/>
   </g>
   <g id="text_43">
    <!-- Tier B1 Feasible Region -->
    <g transform="translate(390.065859 425.986406) scale(0.11 -0.11)">
     <defs>
      <path id="DejaVuSans-54" d="M -19 4666 
L 3928 4666 
L 3928 4134 
L 2272 4134 
L 2272 0 
L 1638 0 
L 1638 4134 
L -19 4134 
L -19 4666 
z
" transform="scale(0.015625)"/>
      <path id="DejaVuSans-69" d="M 603 3500 
L 1178 3500 
L 1178 0 
L 603 0 
L 603 3500 
z
M 603 4863 
L 1178 4863 
L 1178 4134 
L 603 4134 
L 603 4863 
z
" transform="scale(0.015625)"/>
      <path id="DejaVuSans-65" d="M 3597 1894 
L 3597 1613 
L 953 1613 
Q 991 1019 1311 708 
Q 1631 397 2203 397 
Q 2534 397 2845 478 
Q 3156 559 3463 722 
L 3463 178 
Q 3153 47 2828 -22 
Q 2503 -91 2169 -91 
Q 1331 -91 842 396 
Q 353 884 353 1716 
Q 353 2575 817 3079 
Q 1281 3584 2069 3584 
Q 2775 3584 3186 3129 
Q 3597 2675 3597 1894 
z
M 3022 2063 
Q 3016 2534 2758 2815 
Q 2500 3097 2075 3097 
Q 1594 3097 1305 2825 
Q 1016 2553 972 2059 
L 3022 2063 
z
" transform="scale(0.015625)"/>
      <path id="DejaVuSans-72" d="M 2631 2963 
Q 2534 3019 2420 3045 
Q 2306 3072 2169 3072 
Q 1681 3072 1420 2755 
Q 1159 2438 1159 1844 
L 1159 0 
L 581 0 
L 581 3500 
L 1159 3500 
L 1159 2956 
Q 1341 3275 1631 3429 
Q 1922 3584 2338 3584 
Q 2397 3584 2469 3576 
Q 2541 3569 2628 3553 
L 2631 2963 
z
" transform="scale(0.015625)"/>
      <path id="DejaVuSans-20" transform="scale(0.015625)"/>
      <path id="DejaVuSans-42" d="M 1259 2228 
L 1259 519 
L 2272 519 
Q 2781 519 3026 730 
Q 3272 941 3272 1375 
Q 3272 1813 3026 2020 
Q 2781 2228 2272 2228 
L 1259 2228 
z
M 1259 4147 
L 1259 2741 
L 2194 2741 
Q 2656 2741 2882 2914 
Q 3109 3088 3109 3444 
Q 3109 3797 2882 3972 
Q 2656 4147 2194 4147 
L 1259 4147 
z
M 628 4666 
L 2241 4666 
Q 2963 4666 3353 4366 
Q 3744 4066 3744 3513 
Q 3744 3084 3544 2831 
Q 3344 2578 2956 2516 
Q 3422 2416 3680 2098 
Q 3938 1781 3938 1306 
Q 3938 681 3513 340 
Q 3088 0 2303 0 
L 628 0 
L 628 4666 
z
" transform="scale(0.015625)"/>
      <path id="DejaVuSans-46" d="M 628 4666 
L 3309 4666 
L 3309 4134 
L 1259 4134 
L 1259 2759 
L 3109 2759 
L 3109 2228 
L 1259 2228 
L 1259 0 
L 628 0 
L 628 4666 
z
" transform="scale(0.015625)"/>
      <path id="DejaVuSans-61" d="M 2194 1759 
Q 1497 1759 1228 1600 
Q 959 1441 959 1056 
Q 959 750 1161 570 
Q 1363 391 1709 391 
Q 2188 391 2477 730 
Q 2766 1069 2766 1631 
L 2766 1759 
L 2194 1759 
z
M 3341 1997 
L 3341 0 
L 2766 0 
L 2766 531 
Q 2569 213 2275 61 
Q 1981 -91 1556 -91 
Q 1019 -91 701 211 
Q 384 513 384 1019 
Q 384 1609 779 1909 
Q 1175 2209 1959 2209 
L 2766 2209 
L 2766 2266 
Q 2766 2663 2505 2880 
Q 2244 3097 1772 3097 
Q 1472 3097 1187 3025 
Q 903 2953 641 2809 
L 641 3341 
Q 956 3463 1253 3523 
Q 1550 3584 1831 3584 
Q 2591 3584 2966 3190 
Q 3341 2797 3341 1997 
z
" transform="scale(0.015625)"/>
      <path id="DejaVuSans-73" d="M 2834 3397 
L 2834 2853 
Q 2591 2978 2328 3040 
Q 2066 3103 1784 3103 
Q 1356 3103 1142 2972 
Q 928 2841 928 2578 
Q 928 2378 1081 2264 
Q 1234 2150 1697 2047 
L 1894 2003 
Q 2506 1872 2764 1633 
Q 3022 1394 3022 966 
Q 3022 478 2636 193 
Q 2250 -91 1575 -91 
Q 1294 -91 989 -36 
Q 684 19 347 128 
L 347 722 
Q 666 556 975 473 
Q 1284 391 1588 391 
Q 1994 391 2212 530 
Q 2431 669 2431 922 
Q 2431 1156 2273 1281 
Q 2116 1406 1581 1522 
L 1381 1569 
Q 847 1681 609 1914 
Q 372 2147 372 2553 
Q 372 3047 722 3315 
Q 1072 3584 1716 3584 
Q 2034 3584 2315 3537 
Q 2597 3491 2834 3397 
z
" transform="scale(0.015625)"/>
      <path id="DejaVuSans-62" d="M 3116 1747 
Q 3116 2381 2855 2742 
Q 2594 3103 2138 3103 
Q 1681 3103 1420 2742 
Q 1159 2381 1159 1747 
Q 1159 1113 1420 752 
Q 1681 391 2138 391 
Q 2594 391 2855 752 
Q 3116 1113 3116 1747 
z
M 1159 2969 
Q 1341 3281 1617 3432 
Q 1894 3584 2278 3584 
Q 2916 3584 3314 3078 
Q 3713 2572 3713 1747 
Q 3713 922 3314 415 
Q 2916 -91 2278 -91 
Q 1894 -91 1617 61 
Q 1341 213 1159 525 
L 1159 0 
L 581 0 
L 581 4863 
L 1159 4863 
L 1159 2969 
z
" transform="scale(0.015625)"/>
      <path id="DejaVuSans-6c" d="M 603 4863 
L 1178 4863 
L 1178 0 
L 603 0 
L 603 4863 
z
" transform="scale(0.015625)"/>
      <path id="DejaVuSans-52" d="M 2841 2188 
Q 3044 2119 3236 1894 
Q 3428 1669 3622 1275 
L 4263 0 
L 3584 0 
L 2988 1197 
Q 2756 1666 2539 1819 
Q 2322 1972 1947 1972 
L 1259 1972 
L 1259 0 
L 628 0 
L 628 4666 
L 2053 4666 
Q 2853 4666 3247 4331 
Q 3641 3997 3641 3322 
Q 3641 2881 3436 2590 
Q 3231 2300 2841 2188 
z
M 1259 4147 
L 1259 2491 
L 2053 2491 
Q 2509 2491 2742 2702 
Q 2975 2913 2975 3322 
Q 2975 3731 2742 3939 
Q 2509 4147 2053 4147 
L 1259 4147 
z
" transform="scale(0.015625)"/>
      <path id="DejaVuSans-67" d="M 2906 1791 
Q 2906 2416 2648 2759 
Q 2391 3103 1925 3103 
Q 1463 3103 1205 2759 
Q 947 2416 947 1791 
Q 947 1169 1205 825 
Q 1463 481 1925 481 
Q 2391 481 2648 825 
Q 2906 1169 2906 1791 
z
M 3481 434 
Q 3481 -459 3084 -895 
Q 2688 -1331 1869 -1331 
Q 1566 -1331 1297 -1286 
Q 1028 -1241 775 -1147 
L 775 -588 
Q 1028 -725 1275 -790 
Q 1522 -856 1778 -856 
Q 2344 -856 2625 -561 
Q 2906 -266 2906 331 
L 2906 616 
Q 2728 306 2450 153 
Q 2172 0 1784 0 
Q 1141 0 747 490 
Q 353 981 353 1791 
Q 353 2603 747 3093 
Q 1141 3584 1784 3584 
Q 2172 3584 2450 3431 
Q 2728 3278 2906 2969 
L 2906 3500 
L 3481 3500 
L 3481 434 
z
" transform="scale(0.015625)"/>
      <path id="DejaVuSans-6f" d="M 1959 3097 
Q 1497 3097 1228 2736 
Q 959 2375 959 1747 
Q 959 1119 1226 758 
Q 1494 397 1959 397 
Q 2419 397 2687 759 
Q 2956 1122 2956 1747 
Q 2956 2369 2687 2733 
Q 2419 3097 1959 3097 
z
M 1959 3584 
Q 2709 3584 3137 3096 
Q 3566 2609 3566 1747 
Q 3566 888 3137 398 
Q 2709 -91 1959 -91 
Q 1206 -91 779 398 
Q 353 888 353 1747 
Q 353 2609 779 3096 
Q 1206 3584 1959 3584 
z
" transform="scale(0.015625)"/>
      <path id="DejaVuSans-6e" d="M 3513 2113 
L 3513 0 
L 2938 0 
L 2938 2094 
Q 2938 2591 2744 2837 
Q 2550 3084 2163 3084 
Q 1697 3084 1428 2787 
Q 1159 2491 1159 1978 
L 1159 0 
L 581 0 
L 581 3500 
L 1159 3500 
L 1159 2956 
Q 1366 3272 1645 3428 
Q 1925 3584 2291 3584 
Q 2894 3584 3203 3211 
Q 3513 2838 3513 2113 
z
" transform="scale(0.015625)"/>
     </defs>
     <use xlink:href="#DejaVuSans-54"/>
     <use xlink:href="#DejaVuSans-69" transform="translate(57.958984 0)"/>
     <use xlink:href="#DejaVuSans-65" transform="translate(85.742188 0)"/>
     <use xlink:href="#DejaVuSans-72" transform="translate(147.265625 0)"/>
     <use xlink:href="#DejaVuSans-20" transform="translate(188.378906 0)"/>
     <use xlink:href="#DejaVuSans-42" transform="translate(220.166016 0)"/>
     <use xlink:href="#DejaVuSans-31" transform="translate(288.769531 0)"/>
     <use xlink:href="#DejaVuSans-20" transform="translate(352.392578 0)"/>
     <use xlink:href="#DejaVuSans-46" transform="translate(384.179688 0)"/>
     <use xlink:href="#DejaVuSans-65" transform="translate(436.199219 0)"/>
     <use xlink:href="#DejaVuSans-61" transform="translate(497.722656 0)"/>
     <use xlink:href="#DejaVuSans-73" transform="translate(559.001953 0)"/>
     <use xlink:href="#DejaVuSans-69" transform="translate(611.101562 0)"/>
     <use xlink:href="#DejaVuSans-62" transform="translate(638.884766 0)"/>
     <use xlink:href="#DejaVuSans-6c" transform="translate(702.361328 0)"/>
     <use xlink:href="#DejaVuSans-65" transform="translate(730.144531 0)"/>
     <use xlink:href="#DejaVuSans-20" transform="translate(791.667969 0)"/>
     <use xlink:href="#DejaVuSans-52" transform="translate(823.455078 0)"/>
     <use xlink:href="#DejaVuSans-65" transform="translate(888.4375 0)"/>
     <use xlink:href="#DejaVuSans-67" transform="translate(949.960938 0)"/>
     <use xlink:href="#DejaVuSans-69" transform="translate(1013.4375 0)"/>
     <use xlink:href="#DejaVuSans-6f" transform="translate(1041.220703 0)"/>
     <use xlink:href="#DejaVuSans-6e" transform="translate(1102.402344 0)"/>
    </g>
   </g>
   <g id="patch_9">
    <path d="M 359.265859 442.132344 
L 381.265859 442.132344 
L 381.265859 434.432344 
L 359.265859 434.432344 
z
" style="fill: #2ca02c; opacity: 0.2"/>
   </g>
   <g id="text_44">
    <!-- Tier B2 Feasible Region -->
    <g transform="translate(390.065859 442.132344) scale(0.11 -0.11)">
     <use xlink:href="#DejaVuSans-54"/>
     <use xlink:href="#DejaVuSans-69" transform="translate(57.958984 0)"/>
     <use xlink:href="#DejaVuSans-65" transform="translate(85.742188 0)"/>
     <use xlink:href="#DejaVuSans-72" transform="translate(147.265625 0)"/>
     <use xlink:href="#DejaVuSans-20" transform="translate(188.378906 0)"/>
     <use xlink:href="#DejaVuSans-42" transform="translate(220.166016 0)"/>
     <use xlink:href="#DejaVuSans-32" transform="translate(288.769531 0)"/>
     <use xlink:href="#DejaVuSans-20" transform="translate(352.392578 0)"/>
     <use xlink:href="#DejaVuSans-46" transform="translate(384.179688 0)"/>
     <use xlink:href="#DejaVuSans-65" transform="translate(436.199219 0)"/>
     <use xlink:href="#DejaVuSans-61" transform="translate(497.722656 0)"/>
     <use xlink:href="#DejaVuSans-73" transform="translate(559.001953 0)"/>
     <use xlink:href="#DejaVuSans-69" transform="translate(611.101562 0)"/>
     <use xlink:href="#DejaVuSans-62" transform="translate(638.884766 0)"/>
     <use xlink:href="#DejaVuSans-6c" transform="translate(702.361328 0)"/>
     <use xlink:href="#DejaVuSans-65" transform="translate(730.144531 0)"/>
     <use xlink:href="#DejaVuSans-20" transform="translate(791.667969 0)"/>
     <use xlink:href="#DejaVuSans-52" transform="translate(823.455078 0)"/>
     <use xlink:href="#DejaVuSans-65" transform="translate(888.4375 0)"/>
     <use xlink:href="#DejaVuSans-67" transform="translate(949.960938 0)"/>
     <use xlink:href="#DejaVuSans-69" transform="translate(1013.4375 0)"/>
     <use xlink:href="#DejaVuSans-6f" transform="translate(1041.220703 0)"/>
     <use xlink:href="#DejaVuSans-6e" transform="translate(1102.402344 0)"/>
    </g>
   </g>
   <g id="line2d_75">
    <path d="M 540.303516 422.136406 
L 551.303516 422.136406 
L 562.303516 422.136406 
" style="fill: none; stroke: #ff7f0e; stroke-width: 3; stroke-linecap: square"/>
    <g>
     <use xlink:href="#m4c2590e048" x="551.303516" y="422.136406" style="fill: #ff7f0e; stroke: #ff7f0e; stroke-linejoin: miter"/>
    </g>
   </g>
   <g id="text_45">
    <!-- Tier B1 Feasibility Frontier -->
    <g transform="translate(571.103516 425.986406) scale(0.11 -0.11)">
     <defs>
      <path id="DejaVuSans-74" d="M 1172 4494 
L 1172 3500 
L 2356 3500 
L 2356 3053 
L 1172 3053 
L 1172 1153 
Q 1172 725 1289 603 
Q 1406 481 1766 481 
L 2356 481 
L 2356 0 
L 1766 0 
Q 1100 0 847 248 
Q 594 497 594 1153 
L 594 3053 
L 172 3053 
L 172 3500 
L 594 3500 
L 594 4494 
L 1172 4494 
z
" transform="scale(0.015625)"/>
      <path id="DejaVuSans-79" d="M 2059 -325 
Q 1816 -950 1584 -1140 
Q 1353 -1331 966 -1331 
L 506 -1331 
L 506 -850 
L 844 -850 
Q 1081 -850 1212 -737 
Q 1344 -625 1503 -206 
L 1606 56 
L 191 3500 
L 800 3500 
L 1894 763 
L 2988 3500 
L 3597 3500 
L 2059 -325 
z
" transform="scale(0.015625)"/>
     </defs>
     <use xlink:href="#DejaVuSans-54"/>
     <use xlink:href="#DejaVuSans-69" transform="translate(57.958984 0)"/>
     <use xlink:href="#DejaVuSans-65" transform="translate(85.742188 0)"/>
     <use xlink:href="#DejaVuSans-72" transform="translate(147.265625 0)"/>
     <use xlink:href="#DejaVuSans-20" transform="translate(188.378906 0)"/>
     <use xlink:href="#DejaVuSans-42" transform="translate(220.166016 0)"/>
     <use xlink:href="#DejaVuSans-31" transform="translate(288.769531 0)"/>
     <use xlink:href="#DejaVuSans-20" transform="translate(352.392578 0)"/>
     <use xlink:href="#DejaVuSans-46" transform="translate(384.179688 0)"/>
     <use xlink:href="#DejaVuSans-65" transform="translate(436.199219 0)"/>
     <use xlink:href="#DejaVuSans-61" transform="translate(497.722656 0)"/>
     <use xlink:href="#DejaVuSans-73" transform="translate(559.001953 0)"/>
     <use xlink:href="#DejaVuSans-69" transform="translate(611.101562 0)"/>
     <use xlink:href="#DejaVuSans-62" transform="translate(638.884766 0)"/>
     <use xlink:href="#DejaVuSans-69" transform="translate(702.361328 0)"/>
     <use xlink:href="#DejaVuSans-6c" transform="translate(730.144531 0)"/>
     <use xlink:href="#DejaVuSans-69" transform="translate(757.927734 0)"/>
     <use xlink:href="#DejaVuSans-74" transform="translate(785.710938 0)"/>
     <use xlink:href="#DejaVuSans-79" transform="translate(824.919922 0)"/>
     <use xlink:href="#DejaVuSans-20" transform="translate(884.099609 0)"/>
     <use xlink:href="#DejaVuSans-46" transform="translate(915.886719 0)"/>
     <use xlink:href="#DejaVuSans-72" transform="translate(966.15625 0)"/>
     <use xlink:href="#DejaVuSans-6f" transform="translate(1005.019531 0)"/>
     <use xlink:href="#DejaVuSans-6e" transform="translate(1066.201172 0)"/>
     <use xlink:href="#DejaVuSans-74" transform="translate(1129.580078 0)"/>
     <use xlink:href="#DejaVuSans-69" transform="translate(1168.789062 0)"/>
     <use xlink:href="#DejaVuSans-65" transform="translate(1196.572266 0)"/>
     <use xlink:href="#DejaVuSans-72" transform="translate(1258.095703 0)"/>
    </g>
   </g>
   <g id="line2d_76">
    <path d="M 540.303516 438.282344 
L 551.303516 438.282344 
L 562.303516 438.282344 
" style="fill: none; stroke: #2ca02c; stroke-width: 3; stroke-linecap: square"/>
    <g>
     <use xlink:href="#m711a10565b" x="551.303516" y="438.282344" style="fill: #2ca02c; stroke: #2ca02c; stroke-linejoin: miter"/>
    </g>
   </g>
   <g id="text_46">
    <!-- Tier B2 Feasibility Frontier -->
    <g transform="translate(571.103516 442.132344) scale(0.11 -0.11)">
     <use xlink:href="#DejaVuSans-54"/>
     <use xlink:href="#DejaVuSans-69" transform="translate(57.958984 0)"/>
     <use xlink:href="#DejaVuSans-65" transform="translate(85.742188 0)"/>
     <use xlink:href="#DejaVuSans-72" transform="translate(147.265625 0)"/>
     <use xlink:href="#DejaVuSans-20" transform="translate(188.378906 0)"/>
     <use xlink:href="#DejaVuSans-42" transform="translate(220.166016 0)"/>
     <use xlink:href="#DejaVuSans-32" transform="translate(288.769531 0)"/>
     <use xlink:href="#DejaVuSans-20" transform="translate(352.392578 0)"/>
     <use xlink:href="#DejaVuSans-46" transform="translate(384.179688 0)"/>
     <use xlink:href="#DejaVuSans-65" transform="translate(436.199219 0)"/>
     <use xlink:href="#DejaVuSans-61" transform="translate(497.722656 0)"/>
     <use xlink:href="#DejaVuSans-73" transform="translate(559.001953 0)"/>
     <use xlink:href="#DejaVuSans-69" transform="translate(611.101562 0)"/>
     <use xlink:href="#DejaVuSans-62" transform="translate(638.884766 0)"/>
     <use xlink:href="#DejaVuSans-69" transform="translate(702.361328 0)"/>
     <use xlink:href="#DejaVuSans-6c" transform="translate(730.144531 0)"/>
     <use xlink:href="#DejaVuSans-69" transform="translate(757.927734 0)"/>
     <use xlink:href="#DejaVuSans-74" transform="translate(785.710938 0)"/>
     <use xlink:href="#DejaVuSans-79" transform="translate(824.919922 0)"/>
     <use xlink:href="#DejaVuSans-20" transform="translate(884.099609 0)"/>
     <use xlink:href="#DejaVuSans-46" transform="translate(915.886719 0)"/>
     <use xlink:href="#DejaVuSans-72" transform="translate(966.15625 0)"/>
     <use xlink:href="#DejaVuSans-6f" transform="translate(1005.019531 0)"/>
     <use xlink:href="#DejaVuSans-6e" transform="translate(1066.201172 0)"/>
     <use xlink:href="#DejaVuSans-74" transform="translate(1129.580078 0)"/>
     <use xlink:href="#DejaVuSans-69" transform="translate(1168.789062 0)"/>
     <use xlink:href="#DejaVuSans-65" transform="translate(1196.572266 0)"/>
     <use xlink:href="#DejaVuSans-72" transform="translate(1258.095703 0)"/>
    </g>
   </g>
  </g>
 </g>
 <defs>
  <clipPath id="pa430ce6925">
   <rect x="41.36" y="7.2" width="489.88" height="344.2"/>
  </clipPath>
  <clipPath id="pee01983582">
   <rect x="575.96" y="7.2" width="489.88" height="344.2"/>
  </clipPath>
 </defs>
</svg>
