<?xml version="1.0" encoding="utf-8" standalone="no"?>
<!DOCTYPE svg PUBLIC "-//W3C//DTD SVG 1.1//EN"
  "http://www.w3.org/Graphics/SVG/1.1/DTD/svg11.dtd">
<svg xmlns:xlink="http://www.w3.org/1999/xlink" width="809.169293pt" height="240.936552pt" viewBox="0 0 809.169293 240.936552" xmlns="http://www.w3.org/2000/svg" version="1.1">
 <metadata>
  <rdf:RDF xmlns:dc="http://purl.org/dc/elements/1.1/" xmlns:cc="http://creativecommons.org/ns#" xmlns:rdf="http://www.w3.org/1999/02/22-rdf-syntax-ns#">
   <cc:Work>
    <dc:type rdf:resource="http://purl.org/dc/dcmitype/StillImage"/>
    <dc:date>2026-06-02T11:36:54.021397</dc:date>
    <dc:format>image/svg+xml</dc:format>
    <dc:creator>
     <cc:Agent>
      <dc:title>Matplotlib v3.10.8, https://matplotlib.org/</dc:title>
     </cc:Agent>
    </dc:creator>
   </cc:Work>
  </rdf:RDF>
 </metadata>
 <defs>
  <style type="text/css">*{stroke-linejoin: round; stroke-linecap: butt}</style>
 </defs>
 <g id="figure_1">
  <g id="patch_1">
   <path d="M 0 240.936552 
L 809.169293 240.936552 
L 809.169293 0 
L 0 0 
z
" style="fill: #ffffff"/>
  </g>
  <g id="axes_1">
   <g id="patch_2">
    <path d="M 40.736282 217.561864 
L 771.439288 217.561864 
L 771.439288 41.240664 
L 40.736282 41.240664 
z
" style="fill: #ffffff"/>
   </g>
   <g id="matplotlib.axis_1">
    <g id="xtick_1">
     <g id="line2d_1">
      <defs>
       <path id="m5b84009dd0" d="M 0 0 
L 0 4 
" style="stroke: #2d3748; stroke-width: 1.2"/>
      </defs>
      <g>
       <use xlink:href="#m5b84009dd0" x="90.047528" y="217.561864" style="fill: #2d3748; stroke: #2d3748; stroke-width: 1.2"/>
      </g>
     </g>
     <g id="text_1">
      <!-- Oldest Position -->
      <g style="fill: #555555" transform="translate(55.2137 231.861786) scale(0.095 -0.095)">
       <defs>
        <path id="Arial-BoldMT-4f" d="M 278 2263 
Q 278 2963 488 3438 
Q 644 3788 914 4066 
Q 1184 4344 1506 4478 
Q 1934 4659 2494 4659 
Q 3506 4659 4114 4031 
Q 4722 3403 4722 2284 
Q 4722 1175 4119 548 
Q 3516 -78 2506 -78 
Q 1484 -78 881 545 
Q 278 1169 278 2263 
z
M 1231 2294 
Q 1231 1516 1590 1114 
Q 1950 713 2503 713 
Q 3056 713 3411 1111 
Q 3766 1509 3766 2306 
Q 3766 3094 3420 3481 
Q 3075 3869 2503 3869 
Q 1931 3869 1581 3476 
Q 1231 3084 1231 2294 
z
" transform="scale(0.015625)"/>
        <path id="Arial-BoldMT-6c" d="M 459 0 
L 459 4581 
L 1338 4581 
L 1338 0 
L 459 0 
z
" transform="scale(0.015625)"/>
        <path id="Arial-BoldMT-64" d="M 3503 0 
L 2688 0 
L 2688 488 
Q 2484 203 2207 64 
Q 1931 -75 1650 -75 
Q 1078 -75 670 386 
Q 263 847 263 1672 
Q 263 2516 659 2955 
Q 1056 3394 1663 3394 
Q 2219 3394 2625 2931 
L 2625 4581 
L 3503 4581 
L 3503 0 
z
M 1159 1731 
Q 1159 1200 1306 963 
Q 1519 619 1900 619 
Q 2203 619 2415 876 
Q 2628 1134 2628 1647 
Q 2628 2219 2422 2470 
Q 2216 2722 1894 2722 
Q 1581 2722 1370 2473 
Q 1159 2225 1159 1731 
z
" transform="scale(0.015625)"/>
        <path id="Arial-BoldMT-65" d="M 2381 1056 
L 3256 909 
Q 3088 428 2723 176 
Q 2359 -75 1813 -75 
Q 947 -75 531 491 
Q 203 944 203 1634 
Q 203 2459 634 2926 
Q 1066 3394 1725 3394 
Q 2466 3394 2894 2905 
Q 3322 2416 3303 1406 
L 1103 1406 
Q 1113 1016 1316 798 
Q 1519 581 1822 581 
Q 2028 581 2168 693 
Q 2309 806 2381 1056 
z
M 2431 1944 
Q 2422 2325 2234 2523 
Q 2047 2722 1778 2722 
Q 1491 2722 1303 2513 
Q 1116 2303 1119 1944 
L 2431 1944 
z
" transform="scale(0.015625)"/>
        <path id="Arial-BoldMT-73" d="M 150 947 
L 1031 1081 
Q 1088 825 1259 692 
Q 1431 559 1741 559 
Q 2081 559 2253 684 
Q 2369 772 2369 919 
Q 2369 1019 2306 1084 
Q 2241 1147 2013 1200 
Q 950 1434 666 1628 
Q 272 1897 272 2375 
Q 272 2806 612 3100 
Q 953 3394 1669 3394 
Q 2350 3394 2681 3172 
Q 3013 2950 3138 2516 
L 2309 2363 
Q 2256 2556 2107 2659 
Q 1959 2763 1684 2763 
Q 1338 2763 1188 2666 
Q 1088 2597 1088 2488 
Q 1088 2394 1175 2328 
Q 1294 2241 1995 2081 
Q 2697 1922 2975 1691 
Q 3250 1456 3250 1038 
Q 3250 581 2869 253 
Q 2488 -75 1741 -75 
Q 1063 -75 667 200 
Q 272 475 150 947 
z
" transform="scale(0.015625)"/>
        <path id="Arial-BoldMT-74" d="M 1981 3319 
L 1981 2619 
L 1381 2619 
L 1381 1281 
Q 1381 875 1398 808 
Q 1416 741 1477 697 
Q 1538 653 1625 653 
Q 1747 653 1978 738 
L 2053 56 
Q 1747 -75 1359 -75 
Q 1122 -75 931 4 
Q 741 84 652 211 
Q 563 338 528 553 
Q 500 706 500 1172 
L 500 2619 
L 97 2619 
L 97 3319 
L 500 3319 
L 500 3978 
L 1381 4491 
L 1381 3319 
L 1981 3319 
z
" transform="scale(0.015625)"/>
        <path id="Arial-BoldMT-20" transform="scale(0.015625)"/>
        <path id="Arial-BoldMT-50" d="M 466 0 
L 466 4581 
L 1950 4581 
Q 2794 4581 3050 4513 
Q 3444 4409 3709 4064 
Q 3975 3719 3975 3172 
Q 3975 2750 3822 2462 
Q 3669 2175 3433 2011 
Q 3197 1847 2953 1794 
Q 2622 1728 1994 1728 
L 1391 1728 
L 1391 0 
L 466 0 
z
M 1391 3806 
L 1391 2506 
L 1897 2506 
Q 2444 2506 2628 2578 
Q 2813 2650 2917 2803 
Q 3022 2956 3022 3159 
Q 3022 3409 2875 3571 
Q 2728 3734 2503 3775 
Q 2338 3806 1838 3806 
L 1391 3806 
z
" transform="scale(0.015625)"/>
        <path id="Arial-BoldMT-6f" d="M 256 1706 
Q 256 2144 472 2553 
Q 688 2963 1083 3178 
Q 1478 3394 1966 3394 
Q 2719 3394 3200 2905 
Q 3681 2416 3681 1669 
Q 3681 916 3195 420 
Q 2709 -75 1972 -75 
Q 1516 -75 1102 131 
Q 688 338 472 736 
Q 256 1134 256 1706 
z
M 1156 1659 
Q 1156 1166 1390 903 
Q 1625 641 1969 641 
Q 2313 641 2545 903 
Q 2778 1166 2778 1666 
Q 2778 2153 2545 2415 
Q 2313 2678 1969 2678 
Q 1625 2678 1390 2415 
Q 1156 2153 1156 1659 
z
" transform="scale(0.015625)"/>
        <path id="Arial-BoldMT-69" d="M 459 3769 
L 459 4581 
L 1338 4581 
L 1338 3769 
L 459 3769 
z
M 459 0 
L 459 3319 
L 1338 3319 
L 1338 0 
L 459 0 
z
" transform="scale(0.015625)"/>
        <path id="Arial-BoldMT-6e" d="M 3478 0 
L 2600 0 
L 2600 1694 
Q 2600 2231 2544 2389 
Q 2488 2547 2361 2634 
Q 2234 2722 2056 2722 
Q 1828 2722 1647 2597 
Q 1466 2472 1398 2265 
Q 1331 2059 1331 1503 
L 1331 0 
L 453 0 
L 453 3319 
L 1269 3319 
L 1269 2831 
Q 1703 3394 2363 3394 
Q 2653 3394 2893 3289 
Q 3134 3184 3257 3021 
Q 3381 2859 3429 2653 
Q 3478 2447 3478 2063 
L 3478 0 
z
" transform="scale(0.015625)"/>
       </defs>
       <use xlink:href="#Arial-BoldMT-4f"/>
       <use xlink:href="#Arial-BoldMT-6c" transform="translate(77.783203 0)"/>
       <use xlink:href="#Arial-BoldMT-64" transform="translate(105.566406 0)"/>
       <use xlink:href="#Arial-BoldMT-65" transform="translate(166.650391 0)"/>
       <use xlink:href="#Arial-BoldMT-73" transform="translate(222.265625 0)"/>
       <use xlink:href="#Arial-BoldMT-74" transform="translate(277.880859 0)"/>
       <use xlink:href="#Arial-BoldMT-20" transform="translate(311.181641 0)"/>
       <use xlink:href="#Arial-BoldMT-50" transform="translate(338.964844 0)"/>
       <use xlink:href="#Arial-BoldMT-6f" transform="translate(405.664062 0)"/>
       <use xlink:href="#Arial-BoldMT-73" transform="translate(466.748047 0)"/>
       <use xlink:href="#Arial-BoldMT-69" transform="translate(522.363281 0)"/>
       <use xlink:href="#Arial-BoldMT-74" transform="translate(550.146484 0)"/>
       <use xlink:href="#Arial-BoldMT-69" transform="translate(583.447266 0)"/>
       <use xlink:href="#Arial-BoldMT-6f" transform="translate(611.230469 0)"/>
       <use xlink:href="#Arial-BoldMT-6e" transform="translate(672.314453 0)"/>
      </g>
     </g>
    </g>
    <g id="xtick_2">
     <g id="line2d_2">
      <g>
       <use xlink:href="#m5b84009dd0" x="179.704339" y="217.561864" style="fill: #2d3748; stroke: #2d3748; stroke-width: 1.2"/>
      </g>
     </g>
     <g id="text_2">
      <!-- 24 Hour Limit -->
      <g style="fill: #555555" transform="translate(149.354807 231.861786) scale(0.095 -0.095)">
       <defs>
        <path id="Arial-BoldMT-32" d="M 3238 816 
L 3238 0 
L 159 0 
Q 209 463 459 877 
Q 709 1291 1447 1975 
Q 2041 2528 2175 2725 
Q 2356 2997 2356 3263 
Q 2356 3556 2198 3714 
Q 2041 3872 1763 3872 
Q 1488 3872 1325 3706 
Q 1163 3541 1138 3156 
L 263 3244 
Q 341 3969 753 4284 
Q 1166 4600 1784 4600 
Q 2463 4600 2850 4234 
Q 3238 3869 3238 3325 
Q 3238 3016 3127 2736 
Q 3016 2456 2775 2150 
Q 2616 1947 2200 1565 
Q 1784 1184 1673 1059 
Q 1563 934 1494 816 
L 3238 816 
z
" transform="scale(0.015625)"/>
        <path id="Arial-BoldMT-34" d="M 1994 0 
L 1994 922 
L 119 922 
L 119 1691 
L 2106 4600 
L 2844 4600 
L 2844 1694 
L 3413 1694 
L 3413 922 
L 2844 922 
L 2844 0 
L 1994 0 
z
M 1994 1694 
L 1994 3259 
L 941 1694 
L 1994 1694 
z
" transform="scale(0.015625)"/>
        <path id="Arial-BoldMT-48" d="M 469 0 
L 469 4581 
L 1394 4581 
L 1394 2778 
L 3206 2778 
L 3206 4581 
L 4131 4581 
L 4131 0 
L 3206 0 
L 3206 2003 
L 1394 2003 
L 1394 0 
L 469 0 
z
" transform="scale(0.015625)"/>
        <path id="Arial-BoldMT-75" d="M 2644 0 
L 2644 497 
Q 2463 231 2167 78 
Q 1872 -75 1544 -75 
Q 1209 -75 943 72 
Q 678 219 559 484 
Q 441 750 441 1219 
L 441 3319 
L 1319 3319 
L 1319 1794 
Q 1319 1094 1367 936 
Q 1416 778 1544 686 
Q 1672 594 1869 594 
Q 2094 594 2272 717 
Q 2450 841 2515 1023 
Q 2581 1206 2581 1919 
L 2581 3319 
L 3459 3319 
L 3459 0 
L 2644 0 
z
" transform="scale(0.015625)"/>
        <path id="Arial-BoldMT-72" d="M 1300 0 
L 422 0 
L 422 3319 
L 1238 3319 
L 1238 2847 
Q 1447 3181 1614 3287 
Q 1781 3394 1994 3394 
Q 2294 3394 2572 3228 
L 2300 2463 
Q 2078 2606 1888 2606 
Q 1703 2606 1575 2504 
Q 1447 2403 1373 2137 
Q 1300 1872 1300 1025 
L 1300 0 
z
" transform="scale(0.015625)"/>
        <path id="Arial-BoldMT-4c" d="M 491 0 
L 491 4544 
L 1416 4544 
L 1416 772 
L 3716 772 
L 3716 0 
L 491 0 
z
" transform="scale(0.015625)"/>
        <path id="Arial-BoldMT-6d" d="M 394 3319 
L 1203 3319 
L 1203 2866 
Q 1638 3394 2238 3394 
Q 2556 3394 2790 3262 
Q 3025 3131 3175 2866 
Q 3394 3131 3647 3262 
Q 3900 3394 4188 3394 
Q 4553 3394 4806 3245 
Q 5059 3097 5184 2809 
Q 5275 2597 5275 2122 
L 5275 0 
L 4397 0 
L 4397 1897 
Q 4397 2391 4306 2534 
Q 4184 2722 3931 2722 
Q 3747 2722 3584 2609 
Q 3422 2497 3350 2280 
Q 3278 2063 3278 1594 
L 3278 0 
L 2400 0 
L 2400 1819 
Q 2400 2303 2353 2443 
Q 2306 2584 2207 2653 
Q 2109 2722 1941 2722 
Q 1738 2722 1575 2612 
Q 1413 2503 1342 2297 
Q 1272 2091 1272 1613 
L 1272 0 
L 394 0 
L 394 3319 
z
" transform="scale(0.015625)"/>
       </defs>
       <use xlink:href="#Arial-BoldMT-32"/>
       <use xlink:href="#Arial-BoldMT-34" transform="translate(55.615234 0)"/>
       <use xlink:href="#Arial-BoldMT-20" transform="translate(111.230469 0)"/>
       <use xlink:href="#Arial-BoldMT-48" transform="translate(139.013672 0)"/>
       <use xlink:href="#Arial-BoldMT-6f" transform="translate(211.230469 0)"/>
       <use xlink:href="#Arial-BoldMT-75" transform="translate(272.314453 0)"/>
       <use xlink:href="#Arial-BoldMT-72" transform="translate(333.398438 0)"/>
       <use xlink:href="#Arial-BoldMT-20" transform="translate(372.314453 0)"/>
       <use xlink:href="#Arial-BoldMT-4c" transform="translate(400.097656 0)"/>
       <use xlink:href="#Arial-BoldMT-69" transform="translate(461.181641 0)"/>
       <use xlink:href="#Arial-BoldMT-6d" transform="translate(488.964844 0)"/>
       <use xlink:href="#Arial-BoldMT-69" transform="translate(577.880859 0)"/>
       <use xlink:href="#Arial-BoldMT-74" transform="translate(605.664062 0)"/>
      </g>
     </g>
    </g>
    <g id="xtick_3">
     <g id="line2d_3">
      <g>
       <use xlink:href="#m5b84009dd0" x="717.645202" y="217.561864" style="fill: #2d3748; stroke: #2d3748; stroke-width: 1.2"/>
      </g>
     </g>
     <g id="text_3">
      <!-- Newest Position -->
      <g style="fill: #555555" transform="translate(680.960358 231.861786) scale(0.095 -0.095)">
       <defs>
        <path id="Arial-BoldMT-4e" d="M 475 0 
L 475 4581 
L 1375 4581 
L 3250 1522 
L 3250 4581 
L 4109 4581 
L 4109 0 
L 3181 0 
L 1334 2988 
L 1334 0 
L 475 0 
z
" transform="scale(0.015625)"/>
        <path id="Arial-BoldMT-77" d="M 1078 0 
L 28 3319 
L 881 3319 
L 1503 1144 
L 2075 3319 
L 2922 3319 
L 3475 1144 
L 4109 3319 
L 4975 3319 
L 3909 0 
L 3066 0 
L 2494 2134 
L 1931 0 
L 1078 0 
z
" transform="scale(0.015625)"/>
       </defs>
       <use xlink:href="#Arial-BoldMT-4e"/>
       <use xlink:href="#Arial-BoldMT-65" transform="translate(72.216797 0)"/>
       <use xlink:href="#Arial-BoldMT-77" transform="translate(127.832031 0)"/>
       <use xlink:href="#Arial-BoldMT-65" transform="translate(205.615234 0)"/>
       <use xlink:href="#Arial-BoldMT-73" transform="translate(261.230469 0)"/>
       <use xlink:href="#Arial-BoldMT-74" transform="translate(316.845703 0)"/>
       <use xlink:href="#Arial-BoldMT-20" transform="translate(350.146484 0)"/>
       <use xlink:href="#Arial-BoldMT-50" transform="translate(377.929688 0)"/>
       <use xlink:href="#Arial-BoldMT-6f" transform="translate(444.628906 0)"/>
       <use xlink:href="#Arial-BoldMT-73" transform="translate(505.712891 0)"/>
       <use xlink:href="#Arial-BoldMT-69" transform="translate(561.328125 0)"/>
       <use xlink:href="#Arial-BoldMT-74" transform="translate(589.111328 0)"/>
       <use xlink:href="#Arial-BoldMT-69" transform="translate(622.412109 0)"/>
       <use xlink:href="#Arial-BoldMT-6f" transform="translate(650.195312 0)"/>
       <use xlink:href="#Arial-BoldMT-6e" transform="translate(711.279297 0)"/>
      </g>
     </g>
    </g>
   </g>
   <g id="matplotlib.axis_2"/>
   <g id="patch_3">
    <path d="M 40.736282 217.561864 
L 771.439288 217.561864 
" style="fill: none; stroke: #2d3748; stroke-width: 1.2; stroke-linejoin: miter; stroke-linecap: square"/>
   </g>
   <g id="text_4">
    <!-- Workload Entering -->
    <g style="fill: #2c3e50" transform="translate(722.128043 124.098327) scale(0.09 -0.09)">
     <defs>
      <path id="Arial-BoldMT-57" d="M 1116 0 
L 22 4581 
L 969 4581 
L 1659 1434 
L 2497 4581 
L 3597 4581 
L 4400 1381 
L 5103 4581 
L 6034 4581 
L 4922 0 
L 3941 0 
L 3028 3425 
L 2119 0 
L 1116 0 
z
" transform="scale(0.015625)"/>
      <path id="Arial-BoldMT-6b" d="M 428 0 
L 428 4581 
L 1306 4581 
L 1306 2150 
L 2334 3319 
L 3416 3319 
L 2281 2106 
L 3497 0 
L 2550 0 
L 1716 1491 
L 1306 1063 
L 1306 0 
L 428 0 
z
" transform="scale(0.015625)"/>
      <path id="Arial-BoldMT-61" d="M 1116 2306 
L 319 2450 
Q 453 2931 781 3162 
Q 1109 3394 1756 3394 
Q 2344 3394 2631 3255 
Q 2919 3116 3036 2902 
Q 3153 2688 3153 2116 
L 3144 1091 
Q 3144 653 3186 445 
Q 3228 238 3344 0 
L 2475 0 
Q 2441 88 2391 259 
Q 2369 338 2359 363 
Q 2134 144 1878 34 
Q 1622 -75 1331 -75 
Q 819 -75 523 203 
Q 228 481 228 906 
Q 228 1188 362 1408 
Q 497 1628 739 1745 
Q 981 1863 1438 1950 
Q 2053 2066 2291 2166 
L 2291 2253 
Q 2291 2506 2166 2614 
Q 2041 2722 1694 2722 
Q 1459 2722 1328 2630 
Q 1197 2538 1116 2306 
z
M 2291 1594 
Q 2122 1538 1756 1459 
Q 1391 1381 1278 1306 
Q 1106 1184 1106 997 
Q 1106 813 1243 678 
Q 1381 544 1594 544 
Q 1831 544 2047 700 
Q 2206 819 2256 991 
Q 2291 1103 2291 1419 
L 2291 1594 
z
" transform="scale(0.015625)"/>
      <path id="Arial-BoldMT-45" d="M 466 0 
L 466 4581 
L 3863 4581 
L 3863 3806 
L 1391 3806 
L 1391 2791 
L 3691 2791 
L 3691 2019 
L 1391 2019 
L 1391 772 
L 3950 772 
L 3950 0 
L 466 0 
z
" transform="scale(0.015625)"/>
      <path id="Arial-BoldMT-67" d="M 378 -219 
L 1381 -341 
Q 1406 -516 1497 -581 
Q 1622 -675 1891 -675 
Q 2234 -675 2406 -572 
Q 2522 -503 2581 -350 
Q 2622 -241 2622 53 
L 2622 538 
Q 2228 0 1628 0 
Q 959 0 569 566 
Q 263 1013 263 1678 
Q 263 2513 664 2953 
Q 1066 3394 1663 3394 
Q 2278 3394 2678 2853 
L 2678 3319 
L 3500 3319 
L 3500 341 
Q 3500 -247 3403 -537 
Q 3306 -828 3131 -993 
Q 2956 -1159 2664 -1253 
Q 2372 -1347 1925 -1347 
Q 1081 -1347 728 -1058 
Q 375 -769 375 -325 
Q 375 -281 378 -219 
z
M 1163 1728 
Q 1163 1200 1367 954 
Q 1572 709 1872 709 
Q 2194 709 2416 961 
Q 2638 1213 2638 1706 
Q 2638 2222 2425 2472 
Q 2213 2722 1888 2722 
Q 1572 2722 1367 2476 
Q 1163 2231 1163 1728 
z
" transform="scale(0.015625)"/>
     </defs>
     <use xlink:href="#Arial-BoldMT-57"/>
     <use xlink:href="#Arial-BoldMT-6f" transform="translate(92.634766 0)"/>
     <use xlink:href="#Arial-BoldMT-72" transform="translate(153.71875 0)"/>
     <use xlink:href="#Arial-BoldMT-6b" transform="translate(192.634766 0)"/>
     <use xlink:href="#Arial-BoldMT-6c" transform="translate(248.25 0)"/>
     <use xlink:href="#Arial-BoldMT-6f" transform="translate(276.033203 0)"/>
     <use xlink:href="#Arial-BoldMT-61" transform="translate(337.117188 0)"/>
     <use xlink:href="#Arial-BoldMT-64" transform="translate(392.732422 0)"/>
     <use xlink:href="#Arial-BoldMT-20" transform="translate(453.816406 0)"/>
     <use xlink:href="#Arial-BoldMT-45" transform="translate(481.599609 0)"/>
     <use xlink:href="#Arial-BoldMT-6e" transform="translate(548.298828 0)"/>
     <use xlink:href="#Arial-BoldMT-74" transform="translate(609.382812 0)"/>
     <use xlink:href="#Arial-BoldMT-65" transform="translate(642.683594 0)"/>
     <use xlink:href="#Arial-BoldMT-72" transform="translate(698.298828 0)"/>
     <use xlink:href="#Arial-BoldMT-69" transform="translate(737.214844 0)"/>
     <use xlink:href="#Arial-BoldMT-6e" transform="translate(764.998047 0)"/>
     <use xlink:href="#Arial-BoldMT-67" transform="translate(826.082031 0)"/>
    </g>
    <!-- (Constant Inflow) -->
    <g style="fill: #2c3e50" transform="translate(722.128043 133.854608) scale(0.09 -0.09)">
     <defs>
      <path id="Arial-BoldMT-28" d="M 1916 -1347 
L 1313 -1347 
Q 834 -625 584 153 
Q 334 931 334 1659 
Q 334 2563 644 3369 
Q 913 4069 1325 4659 
L 1925 4659 
Q 1497 3713 1336 3048 
Q 1175 2384 1175 1641 
Q 1175 1128 1270 590 
Q 1366 53 1531 -431 
Q 1641 -750 1916 -1347 
z
" transform="scale(0.015625)"/>
      <path id="Arial-BoldMT-43" d="M 3397 1684 
L 4294 1400 
Q 4088 650 3608 286 
Q 3128 -78 2391 -78 
Q 1478 -78 890 545 
Q 303 1169 303 2250 
Q 303 3394 893 4026 
Q 1484 4659 2447 4659 
Q 3288 4659 3813 4163 
Q 4125 3869 4281 3319 
L 3366 3100 
Q 3284 3456 3026 3662 
Q 2769 3869 2400 3869 
Q 1891 3869 1573 3503 
Q 1256 3138 1256 2319 
Q 1256 1450 1568 1081 
Q 1881 713 2381 713 
Q 2750 713 3015 947 
Q 3281 1181 3397 1684 
z
" transform="scale(0.015625)"/>
      <path id="Arial-BoldMT-49" d="M 438 0 
L 438 4581 
L 1363 4581 
L 1363 0 
L 438 0 
z
" transform="scale(0.015625)"/>
      <path id="Arial-BoldMT-66" d="M 75 3319 
L 563 3319 
L 563 3569 
Q 563 3988 652 4194 
Q 741 4400 980 4529 
Q 1219 4659 1584 4659 
Q 1959 4659 2319 4547 
L 2200 3934 
Q 1991 3984 1797 3984 
Q 1606 3984 1523 3895 
Q 1441 3806 1441 3553 
L 1441 3319 
L 2097 3319 
L 2097 2628 
L 1441 2628 
L 1441 0 
L 563 0 
L 563 2628 
L 75 2628 
L 75 3319 
z
" transform="scale(0.015625)"/>
      <path id="Arial-BoldMT-29" d="M 216 -1347 
Q 475 -791 581 -494 
Q 688 -197 778 190 
Q 869 578 912 926 
Q 956 1275 956 1641 
Q 956 2384 797 3048 
Q 638 3713 209 4659 
L 806 4659 
Q 1278 3988 1539 3234 
Q 1800 2481 1800 1706 
Q 1800 1053 1594 306 
Q 1359 -531 822 -1347 
L 216 -1347 
z
" transform="scale(0.015625)"/>
     </defs>
     <use xlink:href="#Arial-BoldMT-28"/>
     <use xlink:href="#Arial-BoldMT-43" transform="translate(33.300781 0)"/>
     <use xlink:href="#Arial-BoldMT-6f" transform="translate(105.517578 0)"/>
     <use xlink:href="#Arial-BoldMT-6e" transform="translate(166.601562 0)"/>
     <use xlink:href="#Arial-BoldMT-73" transform="translate(227.685547 0)"/>
     <use xlink:href="#Arial-BoldMT-74" transform="translate(283.300781 0)"/>
     <use xlink:href="#Arial-BoldMT-61" transform="translate(316.601562 0)"/>
     <use xlink:href="#Arial-BoldMT-6e" transform="translate(372.216797 0)"/>
     <use xlink:href="#Arial-BoldMT-74" transform="translate(433.300781 0)"/>
     <use xlink:href="#Arial-BoldMT-20" transform="translate(466.601562 0)"/>
     <use xlink:href="#Arial-BoldMT-49" transform="translate(494.384766 0)"/>
     <use xlink:href="#Arial-BoldMT-6e" transform="translate(522.167969 0)"/>
     <use xlink:href="#Arial-BoldMT-66" transform="translate(583.251953 0)"/>
     <use xlink:href="#Arial-BoldMT-6c" transform="translate(616.552734 0)"/>
     <use xlink:href="#Arial-BoldMT-6f" transform="translate(644.335938 0)"/>
     <use xlink:href="#Arial-BoldMT-77" transform="translate(705.419922 0)"/>
     <use xlink:href="#Arial-BoldMT-29" transform="translate(783.203125 0)"/>
    </g>
   </g>
   <g id="text_5">
    <!-- Served Workloads -->
    <g style="fill: #2c3e50" transform="translate(7.2 124.216452) scale(0.09 -0.09)">
     <defs>
      <path id="Arial-BoldMT-53" d="M 231 1491 
L 1131 1578 
Q 1213 1125 1461 912 
Q 1709 700 2131 700 
Q 2578 700 2804 889 
Q 3031 1078 3031 1331 
Q 3031 1494 2936 1608 
Q 2841 1722 2603 1806 
Q 2441 1863 1863 2006 
Q 1119 2191 819 2459 
Q 397 2838 397 3381 
Q 397 3731 595 4036 
Q 794 4341 1167 4500 
Q 1541 4659 2069 4659 
Q 2931 4659 3367 4281 
Q 3803 3903 3825 3272 
L 2900 3231 
Q 2841 3584 2645 3739 
Q 2450 3894 2059 3894 
Q 1656 3894 1428 3728 
Q 1281 3622 1281 3444 
Q 1281 3281 1419 3166 
Q 1594 3019 2269 2859 
Q 2944 2700 3267 2529 
Q 3591 2359 3773 2064 
Q 3956 1769 3956 1334 
Q 3956 941 3737 597 
Q 3519 253 3119 86 
Q 2719 -81 2122 -81 
Q 1253 -81 787 320 
Q 322 722 231 1491 
z
" transform="scale(0.015625)"/>
      <path id="Arial-BoldMT-76" d="M 1372 0 
L 34 3319 
L 956 3319 
L 1581 1625 
L 1763 1059 
Q 1834 1275 1853 1344 
Q 1897 1484 1947 1625 
L 2578 3319 
L 3481 3319 
L 2163 0 
L 1372 0 
z
" transform="scale(0.015625)"/>
     </defs>
     <use xlink:href="#Arial-BoldMT-53"/>
     <use xlink:href="#Arial-BoldMT-65" transform="translate(66.699219 0)"/>
     <use xlink:href="#Arial-BoldMT-72" transform="translate(122.314453 0)"/>
     <use xlink:href="#Arial-BoldMT-76" transform="translate(161.230469 0)"/>
     <use xlink:href="#Arial-BoldMT-65" transform="translate(216.845703 0)"/>
     <use xlink:href="#Arial-BoldMT-64" transform="translate(272.460938 0)"/>
     <use xlink:href="#Arial-BoldMT-20" transform="translate(333.544922 0)"/>
     <use xlink:href="#Arial-BoldMT-57" transform="translate(361.328125 0)"/>
     <use xlink:href="#Arial-BoldMT-6f" transform="translate(453.962891 0)"/>
     <use xlink:href="#Arial-BoldMT-72" transform="translate(515.046875 0)"/>
     <use xlink:href="#Arial-BoldMT-6b" transform="translate(553.962891 0)"/>
     <use xlink:href="#Arial-BoldMT-6c" transform="translate(609.578125 0)"/>
     <use xlink:href="#Arial-BoldMT-6f" transform="translate(637.361328 0)"/>
     <use xlink:href="#Arial-BoldMT-61" transform="translate(698.445312 0)"/>
     <use xlink:href="#Arial-BoldMT-64" transform="translate(754.060547 0)"/>
     <use xlink:href="#Arial-BoldMT-73" transform="translate(815.144531 0)"/>
    </g>
    <!-- Leaving Queue -->
    <g style="fill: #2c3e50" transform="translate(21.054375 133.854608) scale(0.09 -0.09)">
     <defs>
      <path id="Arial-BoldMT-51" d="M 4153 581 
Q 4494 338 4894 194 
L 4553 -459 
Q 4344 -397 4144 -288 
Q 4100 -266 3528 119 
Q 3078 -78 2531 -78 
Q 1475 -78 876 544 
Q 278 1166 278 2291 
Q 278 3413 878 4036 
Q 1478 4659 2506 4659 
Q 3525 4659 4122 4036 
Q 4719 3413 4719 2291 
Q 4719 1697 4553 1247 
Q 4428 903 4153 581 
z
M 3409 1103 
Q 3588 1313 3677 1609 
Q 3766 1906 3766 2291 
Q 3766 3084 3416 3476 
Q 3066 3869 2500 3869 
Q 1934 3869 1582 3475 
Q 1231 3081 1231 2291 
Q 1231 1488 1582 1089 
Q 1934 691 2472 691 
Q 2672 691 2850 756 
Q 2569 941 2278 1044 
L 2538 1572 
Q 2994 1416 3409 1103 
z
" transform="scale(0.015625)"/>
     </defs>
     <use xlink:href="#Arial-BoldMT-4c"/>
     <use xlink:href="#Arial-BoldMT-65" transform="translate(61.083984 0)"/>
     <use xlink:href="#Arial-BoldMT-61" transform="translate(116.699219 0)"/>
     <use xlink:href="#Arial-BoldMT-76" transform="translate(172.314453 0)"/>
     <use xlink:href="#Arial-BoldMT-69" transform="translate(227.929688 0)"/>
     <use xlink:href="#Arial-BoldMT-6e" transform="translate(255.712891 0)"/>
     <use xlink:href="#Arial-BoldMT-67" transform="translate(316.796875 0)"/>
     <use xlink:href="#Arial-BoldMT-20" transform="translate(377.880859 0)"/>
     <use xlink:href="#Arial-BoldMT-51" transform="translate(405.664062 0)"/>
     <use xlink:href="#Arial-BoldMT-75" transform="translate(483.447266 0)"/>
     <use xlink:href="#Arial-BoldMT-65" transform="translate(544.53125 0)"/>
     <use xlink:href="#Arial-BoldMT-75" transform="translate(600.146484 0)"/>
     <use xlink:href="#Arial-BoldMT-65" transform="translate(661.230469 0)"/>
    </g>
   </g>
   <g id="text_6">
    <!-- Increasing Time in Queue -->
    <g style="fill: #718096" transform="translate(349.164334 77.431824) scale(0.09 -0.09)">
     <defs>
      <path id="Arial-BoldMT-63" d="M 3353 2338 
L 2488 2181 
Q 2444 2441 2289 2572 
Q 2134 2703 1888 2703 
Q 1559 2703 1364 2476 
Q 1169 2250 1169 1719 
Q 1169 1128 1367 884 
Q 1566 641 1900 641 
Q 2150 641 2309 783 
Q 2469 925 2534 1272 
L 3397 1125 
Q 3263 531 2881 228 
Q 2500 -75 1859 -75 
Q 1131 -75 698 384 
Q 266 844 266 1656 
Q 266 2478 700 2936 
Q 1134 3394 1875 3394 
Q 2481 3394 2839 3133 
Q 3197 2872 3353 2338 
z
" transform="scale(0.015625)"/>
      <path id="Arial-BoldMT-54" d="M 1497 0 
L 1497 3806 
L 138 3806 
L 138 4581 
L 3778 4581 
L 3778 3806 
L 2422 3806 
L 2422 0 
L 1497 0 
z
" transform="scale(0.015625)"/>
     </defs>
     <use xlink:href="#Arial-BoldMT-49"/>
     <use xlink:href="#Arial-BoldMT-6e" transform="translate(27.783203 0)"/>
     <use xlink:href="#Arial-BoldMT-63" transform="translate(88.867188 0)"/>
     <use xlink:href="#Arial-BoldMT-72" transform="translate(144.482422 0)"/>
     <use xlink:href="#Arial-BoldMT-65" transform="translate(183.398438 0)"/>
     <use xlink:href="#Arial-BoldMT-61" transform="translate(239.013672 0)"/>
     <use xlink:href="#Arial-BoldMT-73" transform="translate(294.628906 0)"/>
     <use xlink:href="#Arial-BoldMT-69" transform="translate(350.244141 0)"/>
     <use xlink:href="#Arial-BoldMT-6e" transform="translate(378.027344 0)"/>
     <use xlink:href="#Arial-BoldMT-67" transform="translate(439.111328 0)"/>
     <use xlink:href="#Arial-BoldMT-20" transform="translate(500.195312 0)"/>
     <use xlink:href="#Arial-BoldMT-54" transform="translate(527.978516 0)"/>
     <use xlink:href="#Arial-BoldMT-69" transform="translate(587.3125 0)"/>
     <use xlink:href="#Arial-BoldMT-6d" transform="translate(615.095703 0)"/>
     <use xlink:href="#Arial-BoldMT-65" transform="translate(704.011719 0)"/>
     <use xlink:href="#Arial-BoldMT-20" transform="translate(759.626953 0)"/>
     <use xlink:href="#Arial-BoldMT-69" transform="translate(787.410156 0)"/>
     <use xlink:href="#Arial-BoldMT-6e" transform="translate(815.193359 0)"/>
     <use xlink:href="#Arial-BoldMT-20" transform="translate(876.277344 0)"/>
     <use xlink:href="#Arial-BoldMT-51" transform="translate(904.060547 0)"/>
     <use xlink:href="#Arial-BoldMT-75" transform="translate(981.84375 0)"/>
     <use xlink:href="#Arial-BoldMT-65" transform="translate(1042.927734 0)"/>
     <use xlink:href="#Arial-BoldMT-75" transform="translate(1098.542969 0)"/>
     <use xlink:href="#Arial-BoldMT-65" transform="translate(1159.626953 0)"/>
    </g>
   </g>
   <g id="text_7">
    <!-- Age: 0 h -->
    <g style="fill: #718096" transform="translate(674.776929 194.049277) scale(0.085 -0.085)">
     <defs>
      <path id="ArialMT-41" d="M -9 0 
L 1750 4581 
L 2403 4581 
L 4278 0 
L 3588 0 
L 3053 1388 
L 1138 1388 
L 634 0 
L -9 0 
z
M 1313 1881 
L 2866 1881 
L 2388 3150 
Q 2169 3728 2063 4100 
Q 1975 3659 1816 3225 
L 1313 1881 
z
" transform="scale(0.015625)"/>
      <path id="ArialMT-67" d="M 319 -275 
L 866 -356 
Q 900 -609 1056 -725 
Q 1266 -881 1628 -881 
Q 2019 -881 2231 -725 
Q 2444 -569 2519 -288 
Q 2563 -116 2559 434 
Q 2191 0 1641 0 
Q 956 0 581 494 
Q 206 988 206 1678 
Q 206 2153 378 2554 
Q 550 2956 876 3175 
Q 1203 3394 1644 3394 
Q 2231 3394 2613 2919 
L 2613 3319 
L 3131 3319 
L 3131 450 
Q 3131 -325 2973 -648 
Q 2816 -972 2473 -1159 
Q 2131 -1347 1631 -1347 
Q 1038 -1347 672 -1080 
Q 306 -813 319 -275 
z
M 784 1719 
Q 784 1066 1043 766 
Q 1303 466 1694 466 
Q 2081 466 2343 764 
Q 2606 1063 2606 1700 
Q 2606 2309 2336 2618 
Q 2066 2928 1684 2928 
Q 1309 2928 1046 2623 
Q 784 2319 784 1719 
z
" transform="scale(0.015625)"/>
      <path id="ArialMT-65" d="M 2694 1069 
L 3275 997 
Q 3138 488 2766 206 
Q 2394 -75 1816 -75 
Q 1088 -75 661 373 
Q 234 822 234 1631 
Q 234 2469 665 2931 
Q 1097 3394 1784 3394 
Q 2450 3394 2872 2941 
Q 3294 2488 3294 1666 
Q 3294 1616 3291 1516 
L 816 1516 
Q 847 969 1125 678 
Q 1403 388 1819 388 
Q 2128 388 2347 550 
Q 2566 713 2694 1069 
z
M 847 1978 
L 2700 1978 
Q 2663 2397 2488 2606 
Q 2219 2931 1791 2931 
Q 1403 2931 1139 2672 
Q 875 2413 847 1978 
z
" transform="scale(0.015625)"/>
      <path id="ArialMT-3a" d="M 578 2678 
L 578 3319 
L 1219 3319 
L 1219 2678 
L 578 2678 
z
M 578 0 
L 578 641 
L 1219 641 
L 1219 0 
L 578 0 
z
" transform="scale(0.015625)"/>
      <path id="ArialMT-20" transform="scale(0.015625)"/>
      <path id="ArialMT-30" d="M 266 2259 
Q 266 3072 433 3567 
Q 600 4063 929 4331 
Q 1259 4600 1759 4600 
Q 2128 4600 2406 4451 
Q 2684 4303 2865 4023 
Q 3047 3744 3150 3342 
Q 3253 2941 3253 2259 
Q 3253 1453 3087 958 
Q 2922 463 2592 192 
Q 2263 -78 1759 -78 
Q 1097 -78 719 397 
Q 266 969 266 2259 
z
M 844 2259 
Q 844 1131 1108 757 
Q 1372 384 1759 384 
Q 2147 384 2411 759 
Q 2675 1134 2675 2259 
Q 2675 3391 2411 3762 
Q 2147 4134 1753 4134 
Q 1366 4134 1134 3806 
Q 844 3388 844 2259 
z
" transform="scale(0.015625)"/>
      <path id="ArialMT-68" d="M 422 0 
L 422 4581 
L 984 4581 
L 984 2938 
Q 1378 3394 1978 3394 
Q 2347 3394 2619 3248 
Q 2891 3103 3008 2847 
Q 3125 2591 3125 2103 
L 3125 0 
L 2563 0 
L 2563 2103 
Q 2563 2525 2380 2717 
Q 2197 2909 1863 2909 
Q 1613 2909 1392 2779 
Q 1172 2650 1078 2428 
Q 984 2206 984 1816 
L 984 0 
L 422 0 
z
" transform="scale(0.015625)"/>
     </defs>
     <use xlink:href="#ArialMT-41"/>
     <use xlink:href="#ArialMT-67" transform="translate(66.699219 0)"/>
     <use xlink:href="#ArialMT-65" transform="translate(122.314453 0)"/>
     <use xlink:href="#ArialMT-3a" transform="translate(177.929688 0)"/>
     <use xlink:href="#ArialMT-20" transform="translate(205.712891 0)"/>
     <use xlink:href="#ArialMT-30" transform="translate(233.496094 0)"/>
     <use xlink:href="#ArialMT-20" transform="translate(289.111328 0)"/>
     <use xlink:href="#ArialMT-68" transform="translate(316.894531 0)"/>
    </g>
   </g>
   <g id="text_8">
    <!-- Age: 28 h -->
    <g style="fill: #718096" transform="translate(101.254629 194.049277) scale(0.085 -0.085)">
     <defs>
      <path id="ArialMT-32" d="M 3222 541 
L 3222 0 
L 194 0 
Q 188 203 259 391 
Q 375 700 629 1000 
Q 884 1300 1366 1694 
Q 2113 2306 2375 2664 
Q 2638 3022 2638 3341 
Q 2638 3675 2398 3904 
Q 2159 4134 1775 4134 
Q 1369 4134 1125 3890 
Q 881 3647 878 3216 
L 300 3275 
Q 359 3922 746 4261 
Q 1134 4600 1788 4600 
Q 2447 4600 2831 4234 
Q 3216 3869 3216 3328 
Q 3216 3053 3103 2787 
Q 2991 2522 2730 2228 
Q 2469 1934 1863 1422 
Q 1356 997 1212 845 
Q 1069 694 975 541 
L 3222 541 
z
" transform="scale(0.015625)"/>
      <path id="ArialMT-38" d="M 1131 2484 
Q 781 2613 612 2850 
Q 444 3088 444 3419 
Q 444 3919 803 4259 
Q 1163 4600 1759 4600 
Q 2359 4600 2725 4251 
Q 3091 3903 3091 3403 
Q 3091 3084 2923 2848 
Q 2756 2613 2416 2484 
Q 2838 2347 3058 2040 
Q 3278 1734 3278 1309 
Q 3278 722 2862 322 
Q 2447 -78 1769 -78 
Q 1091 -78 675 323 
Q 259 725 259 1325 
Q 259 1772 486 2073 
Q 713 2375 1131 2484 
z
M 1019 3438 
Q 1019 3113 1228 2906 
Q 1438 2700 1772 2700 
Q 2097 2700 2305 2904 
Q 2513 3109 2513 3406 
Q 2513 3716 2298 3927 
Q 2084 4138 1766 4138 
Q 1444 4138 1231 3931 
Q 1019 3725 1019 3438 
z
M 838 1322 
Q 838 1081 952 856 
Q 1066 631 1291 507 
Q 1516 384 1775 384 
Q 2178 384 2440 643 
Q 2703 903 2703 1303 
Q 2703 1709 2433 1975 
Q 2163 2241 1756 2241 
Q 1359 2241 1098 1978 
Q 838 1716 838 1322 
z
" transform="scale(0.015625)"/>
     </defs>
     <use xlink:href="#ArialMT-41"/>
     <use xlink:href="#ArialMT-67" transform="translate(66.699219 0)"/>
     <use xlink:href="#ArialMT-65" transform="translate(122.314453 0)"/>
     <use xlink:href="#ArialMT-3a" transform="translate(177.929688 0)"/>
     <use xlink:href="#ArialMT-20" transform="translate(205.712891 0)"/>
     <use xlink:href="#ArialMT-32" transform="translate(233.496094 0)"/>
     <use xlink:href="#ArialMT-38" transform="translate(289.111328 0)"/>
     <use xlink:href="#ArialMT-20" transform="translate(344.726562 0)"/>
     <use xlink:href="#ArialMT-68" transform="translate(372.509766 0)"/>
    </g>
   </g>
   <g id="text_9">
    <!-- SLA Boundary -->
    <g style="fill: #2c3e50" transform="translate(182.244002 133.854608) scale(0.09 -0.09)">
     <defs>
      <path id="Arial-BoldMT-41" d="M 4597 0 
L 3591 0 
L 3191 1041 
L 1359 1041 
L 981 0 
L 0 0 
L 1784 4581 
L 2763 4581 
L 4597 0 
z
M 2894 1813 
L 2263 3513 
L 1644 1813 
L 2894 1813 
z
" transform="scale(0.015625)"/>
      <path id="Arial-BoldMT-42" d="M 469 4581 
L 2300 4581 
Q 2844 4581 3111 4536 
Q 3378 4491 3589 4347 
Q 3800 4203 3940 3964 
Q 4081 3725 4081 3428 
Q 4081 3106 3907 2837 
Q 3734 2569 3438 2434 
Q 3856 2313 4081 2019 
Q 4306 1725 4306 1328 
Q 4306 1016 4161 720 
Q 4016 425 3764 248 
Q 3513 72 3144 31 
Q 2913 6 2028 0 
L 469 0 
L 469 4581 
z
M 1394 3819 
L 1394 2759 
L 2000 2759 
Q 2541 2759 2672 2775 
Q 2909 2803 3045 2939 
Q 3181 3075 3181 3297 
Q 3181 3509 3064 3642 
Q 2947 3775 2716 3803 
Q 2578 3819 1925 3819 
L 1394 3819 
z
M 1394 1997 
L 1394 772 
L 2250 772 
Q 2750 772 2884 800 
Q 3091 838 3220 983 
Q 3350 1128 3350 1372 
Q 3350 1578 3250 1722 
Q 3150 1866 2961 1931 
Q 2772 1997 2141 1997 
L 1394 1997 
z
" transform="scale(0.015625)"/>
      <path id="Arial-BoldMT-79" d="M 44 3319 
L 978 3319 
L 1772 963 
L 2547 3319 
L 3456 3319 
L 2284 125 
L 2075 -453 
Q 1959 -744 1854 -897 
Q 1750 -1050 1614 -1145 
Q 1478 -1241 1279 -1294 
Q 1081 -1347 831 -1347 
Q 578 -1347 334 -1294 
L 256 -606 
Q 463 -647 628 -647 
Q 934 -647 1081 -467 
Q 1228 -288 1306 -9 
L 44 3319 
z
" transform="scale(0.015625)"/>
     </defs>
     <use xlink:href="#Arial-BoldMT-53"/>
     <use xlink:href="#Arial-BoldMT-4c" transform="translate(66.699219 0)"/>
     <use xlink:href="#Arial-BoldMT-41" transform="translate(127.783203 0)"/>
     <use xlink:href="#Arial-BoldMT-20" transform="translate(196.25 0)"/>
     <use xlink:href="#Arial-BoldMT-42" transform="translate(224.033203 0)"/>
     <use xlink:href="#Arial-BoldMT-6f" transform="translate(296.25 0)"/>
     <use xlink:href="#Arial-BoldMT-75" transform="translate(357.333984 0)"/>
     <use xlink:href="#Arial-BoldMT-6e" transform="translate(418.417969 0)"/>
     <use xlink:href="#Arial-BoldMT-64" transform="translate(479.501953 0)"/>
     <use xlink:href="#Arial-BoldMT-61" transform="translate(540.585938 0)"/>
     <use xlink:href="#Arial-BoldMT-72" transform="translate(596.201172 0)"/>
     <use xlink:href="#Arial-BoldMT-79" transform="translate(635.117188 0)"/>
    </g>
   </g>
   <g id="text_10">
    <!-- Under constant hourly arrivals, any queue volume exceeding the 24 hour limit -->
    <g style="fill: #2c3e50" transform="translate(90.047528 39.067167) scale(0.095 -0.095)">
     <defs>
      <path id="Arial-ItalicMT-55" d="M 1269 4581 
L 1881 4581 
L 1294 1766 
Q 1222 1416 1222 1247 
Q 1222 878 1512 653 
Q 1803 428 2244 428 
Q 2594 428 2895 589 
Q 3197 750 3372 1062 
Q 3547 1375 3688 2059 
L 4216 4581 
L 4828 4581 
L 4269 1894 
Q 4125 1206 3890 804 
Q 3656 403 3240 161 
Q 2825 -81 2275 -81 
Q 1756 -81 1376 91 
Q 997 263 808 566 
Q 619 869 619 1253 
Q 619 1494 747 2081 
L 1269 4581 
z
" transform="scale(0.015625)"/>
      <path id="Arial-ItalicMT-6e" d="M 213 0 
L 906 3319 
L 1419 3319 
L 1297 2741 
Q 1631 3081 1922 3237 
Q 2213 3394 2516 3394 
Q 2919 3394 3148 3175 
Q 3378 2956 3378 2591 
Q 3378 2406 3297 2009 
L 2875 0 
L 2309 0 
L 2750 2103 
Q 2816 2409 2816 2556 
Q 2816 2722 2702 2825 
Q 2588 2928 2372 2928 
Q 1938 2928 1598 2615 
Q 1259 2303 1100 1544 
L 778 0 
L 213 0 
z
" transform="scale(0.015625)"/>
      <path id="Arial-ItalicMT-64" d="M 2450 481 
Q 1966 -75 1438 -75 
Q 966 -75 652 273 
Q 338 622 338 1284 
Q 338 1891 586 2392 
Q 834 2894 1207 3144 
Q 1581 3394 1956 3394 
Q 2575 3394 2891 2797 
L 3266 4581 
L 3828 4581 
L 2872 0 
L 2350 0 
L 2450 481 
z
M 900 1391 
Q 900 1044 969 844 
Q 1038 644 1203 511 
Q 1369 378 1600 378 
Q 1984 378 2297 778 
Q 2716 1309 2716 2091 
Q 2716 2484 2509 2706 
Q 2303 2928 1991 2928 
Q 1788 2928 1620 2837 
Q 1453 2747 1289 2530 
Q 1125 2313 1012 1978 
Q 900 1644 900 1391 
z
" transform="scale(0.015625)"/>
      <path id="Arial-ItalicMT-65" d="M 2650 1128 
L 3200 1072 
Q 3081 663 2654 294 
Q 2228 -75 1638 -75 
Q 1269 -75 961 95 
Q 653 266 492 591 
Q 331 916 331 1331 
Q 331 1875 582 2386 
Q 834 2897 1234 3145 
Q 1634 3394 2100 3394 
Q 2694 3394 3048 3025 
Q 3403 2656 3403 2019 
Q 3403 1775 3359 1519 
L 916 1519 
Q 903 1422 903 1344 
Q 903 878 1117 633 
Q 1331 388 1641 388 
Q 1931 388 2212 578 
Q 2494 769 2650 1128 
z
M 1006 1950 
L 2869 1950 
Q 2872 2038 2872 2075 
Q 2872 2500 2659 2726 
Q 2447 2953 2113 2953 
Q 1750 2953 1451 2703 
Q 1153 2453 1006 1950 
z
" transform="scale(0.015625)"/>
      <path id="Arial-ItalicMT-72" d="M 213 0 
L 906 3319 
L 1406 3319 
L 1266 2641 
Q 1522 3025 1767 3209 
Q 2013 3394 2269 3394 
Q 2438 3394 2684 3272 
L 2453 2747 
Q 2306 2853 2131 2853 
Q 1834 2853 1521 2522 
Q 1209 2191 1031 1331 
L 750 0 
L 213 0 
z
" transform="scale(0.015625)"/>
      <path id="Arial-ItalicMT-20" transform="scale(0.015625)"/>
      <path id="Arial-ItalicMT-63" d="M 2503 1209 
L 3069 1150 
Q 2856 528 2464 226 
Q 2072 -75 1572 -75 
Q 1031 -75 695 275 
Q 359 625 359 1253 
Q 359 1797 575 2322 
Q 791 2847 1192 3120 
Q 1594 3394 2109 3394 
Q 2644 3394 2956 3092 
Q 3269 2791 3269 2294 
L 2713 2256 
Q 2709 2572 2529 2750 
Q 2350 2928 2056 2928 
Q 1716 2928 1466 2712 
Q 1216 2497 1073 2058 
Q 931 1619 931 1213 
Q 931 788 1118 575 
Q 1306 363 1581 363 
Q 1856 363 2107 572 
Q 2359 781 2503 1209 
z
" transform="scale(0.015625)"/>
      <path id="Arial-ItalicMT-6f" d="M 313 1259 
Q 313 2231 884 2869 
Q 1356 3394 2122 3394 
Q 2722 3394 3089 3019 
Q 3456 2644 3456 2006 
Q 3456 1434 3225 942 
Q 2994 450 2567 187 
Q 2141 -75 1669 -75 
Q 1281 -75 964 90 
Q 647 256 480 559 
Q 313 863 313 1259 
z
M 878 1316 
Q 878 847 1103 605 
Q 1328 363 1675 363 
Q 1856 363 2034 436 
Q 2213 509 2366 659 
Q 2519 809 2626 1001 
Q 2734 1194 2800 1416 
Q 2897 1725 2897 2009 
Q 2897 2459 2670 2707 
Q 2444 2956 2100 2956 
Q 1834 2956 1615 2829 
Q 1397 2703 1220 2459 
Q 1044 2216 961 1892 
Q 878 1569 878 1316 
z
" transform="scale(0.015625)"/>
      <path id="Arial-ItalicMT-73" d="M 266 1134 
L 831 1169 
Q 831 925 906 753 
Q 981 581 1182 472 
Q 1384 363 1653 363 
Q 2028 363 2215 513 
Q 2403 663 2403 866 
Q 2403 1013 2291 1144 
Q 2175 1275 1726 1467 
Q 1278 1659 1153 1738 
Q 944 1866 837 2039 
Q 731 2213 731 2438 
Q 731 2831 1043 3112 
Q 1356 3394 1919 3394 
Q 2544 3394 2870 3105 
Q 3197 2816 3209 2344 
L 2656 2306 
Q 2644 2606 2444 2781 
Q 2244 2956 1878 2956 
Q 1584 2956 1421 2822 
Q 1259 2688 1259 2531 
Q 1259 2375 1400 2256 
Q 1494 2175 1884 2006 
Q 2534 1725 2703 1563 
Q 2972 1303 2972 931 
Q 2972 684 2820 446 
Q 2669 209 2358 67 
Q 2047 -75 1625 -75 
Q 1050 -75 647 209 
Q 244 494 266 1134 
z
" transform="scale(0.015625)"/>
      <path id="Arial-ItalicMT-74" d="M 1534 459 
L 1441 -3 
Q 1238 -56 1047 -56 
Q 709 -56 509 109 
Q 359 234 359 450 
Q 359 559 441 953 
L 844 2881 
L 397 2881 
L 488 3319 
L 934 3319 
L 1106 4134 
L 1753 4525 
L 1500 3319 
L 2056 3319 
L 1963 2881 
L 1409 2881 
L 1025 1047 
Q 953 697 953 628 
Q 953 528 1011 475 
Q 1069 422 1200 422 
Q 1388 422 1534 459 
z
" transform="scale(0.015625)"/>
      <path id="Arial-ItalicMT-61" d="M 2450 413 
Q 2156 159 1884 42 
Q 1613 -75 1303 -75 
Q 844 -75 562 195 
Q 281 466 281 888 
Q 281 1166 407 1380 
Q 534 1594 743 1723 
Q 953 1853 1256 1909 
Q 1447 1947 1980 1969 
Q 2513 1991 2744 2081 
Q 2809 2313 2809 2466 
Q 2809 2663 2666 2775 
Q 2469 2931 2091 2931 
Q 1734 2931 1507 2773 
Q 1281 2616 1178 2325 
L 606 2375 
Q 781 2869 1161 3131 
Q 1541 3394 2119 3394 
Q 2734 3394 3094 3100 
Q 3369 2881 3369 2531 
Q 3369 2266 3291 1916 
L 3106 1091 
Q 3019 697 3019 450 
Q 3019 294 3088 0 
L 2516 0 
Q 2469 163 2450 413 
z
M 2659 1681 
Q 2541 1634 2405 1609 
Q 2269 1584 1950 1556 
Q 1456 1513 1253 1445 
Q 1050 1378 947 1231 
Q 844 1084 844 906 
Q 844 669 1008 516 
Q 1172 363 1475 363 
Q 1756 363 2015 511 
Q 2275 659 2425 925 
Q 2575 1191 2659 1681 
z
" transform="scale(0.015625)"/>
      <path id="Arial-ItalicMT-68" d="M 213 0 
L 1169 4581 
L 1734 4581 
L 1369 2822 
Q 1684 3128 1956 3261 
Q 2228 3394 2516 3394 
Q 2928 3394 3156 3176 
Q 3384 2959 3384 2603 
Q 3384 2428 3284 1959 
L 2875 0 
L 2309 0 
L 2731 2009 
Q 2822 2447 2822 2559 
Q 2822 2722 2709 2825 
Q 2597 2928 2384 2928 
Q 2078 2928 1800 2767 
Q 1522 2606 1364 2326 
Q 1206 2047 1075 1425 
L 778 0 
L 213 0 
z
" transform="scale(0.015625)"/>
      <path id="Arial-ItalicMT-75" d="M 2478 600 
Q 1881 -75 1256 -75 
Q 872 -75 636 145 
Q 400 366 400 684 
Q 400 894 506 1403 
L 906 3319 
L 1472 3319 
L 1028 1197 
Q 972 931 972 784 
Q 972 597 1086 492 
Q 1200 388 1422 388 
Q 1659 388 1886 503 
Q 2113 619 2277 816 
Q 2441 1013 2544 1281 
Q 2613 1453 2703 1884 
L 3003 3319 
L 3569 3319 
L 2875 0 
L 2353 0 
L 2478 600 
z
" transform="scale(0.015625)"/>
      <path id="Arial-ItalicMT-6c" d="M 169 0 
L 1125 4581 
L 1691 4581 
L 734 0 
L 169 0 
z
" transform="scale(0.015625)"/>
      <path id="Arial-ItalicMT-79" d="M 0 -1281 
L 34 -750 
Q 209 -800 375 -800 
Q 547 -800 653 -722 
Q 791 -619 953 -334 
L 1134 -9 
L 581 3319 
L 1138 3319 
L 1388 1641 
Q 1463 1144 1516 647 
L 3000 3319 
L 3591 3319 
L 1475 -441 
Q 1169 -991 931 -1169 
Q 694 -1347 384 -1347 
Q 188 -1347 0 -1281 
z
" transform="scale(0.015625)"/>
      <path id="Arial-ItalicMT-69" d="M 1016 3941 
L 1150 4581 
L 1713 4581 
L 1578 3941 
L 1016 3941 
z
M 191 0 
L 884 3319 
L 1450 3319 
L 756 0 
L 191 0 
z
" transform="scale(0.015625)"/>
      <path id="Arial-ItalicMT-76" d="M 1050 0 
L 506 3319 
L 1056 3319 
L 1341 1491 
Q 1388 1191 1456 513 
Q 1619 866 1872 1322 
L 2981 3319 
L 3578 3319 
L 1678 0 
L 1050 0 
z
" transform="scale(0.015625)"/>
      <path id="Arial-ItalicMT-2c" d="M 347 0 
L 481 641 
L 1125 641 
L 1009 81 
Q 903 -422 679 -656 
Q 456 -891 153 -925 
L 206 -678 
Q 578 -575 697 0 
L 347 0 
z
" transform="scale(0.015625)"/>
      <path id="Arial-ItalicMT-71" d="M 2356 375 
Q 1872 -75 1428 -75 
Q 966 -75 647 276 
Q 328 628 328 1275 
Q 328 1894 570 2394 
Q 813 2894 1189 3144 
Q 1566 3394 1966 3394 
Q 2269 3394 2517 3223 
Q 2766 3053 2919 2709 
L 3047 3319 
L 3534 3319 
L 2578 -1272 
L 2013 -1272 
L 2356 375 
z
M 888 1350 
Q 888 859 1091 623 
Q 1294 388 1597 388 
Q 1853 388 2114 600 
Q 2375 813 2542 1238 
Q 2709 1663 2709 2059 
Q 2709 2466 2500 2697 
Q 2291 2928 1988 2928 
Q 1691 2928 1469 2734 
Q 1178 2484 1013 2013 
Q 888 1650 888 1350 
z
" transform="scale(0.015625)"/>
      <path id="Arial-ItalicMT-6d" d="M 209 0 
L 903 3319 
L 1469 3319 
L 1353 2772 
Q 1669 3125 1917 3259 
Q 2166 3394 2456 3394 
Q 2766 3394 2973 3230 
Q 3181 3066 3247 2772 
Q 3500 3084 3779 3239 
Q 4059 3394 4369 3394 
Q 4784 3394 4992 3197 
Q 5200 3000 5200 2644 
Q 5200 2491 5128 2138 
L 4681 0 
L 4116 0 
L 4572 2194 
Q 4631 2463 4631 2578 
Q 4631 2741 4528 2834 
Q 4425 2928 4238 2928 
Q 3984 2928 3721 2775 
Q 3459 2622 3314 2373 
Q 3169 2125 3059 1609 
L 2722 0 
L 2156 0 
L 2625 2241 
Q 2675 2469 2675 2566 
Q 2675 2728 2573 2828 
Q 2472 2928 2309 2928 
Q 2069 2928 1805 2775 
Q 1541 2622 1375 2348 
Q 1209 2075 1103 1569 
L 775 0 
L 209 0 
z
" transform="scale(0.015625)"/>
      <path id="Arial-ItalicMT-78" d="M -9 0 
L 1434 1684 
L 606 3319 
L 1231 3319 
L 1513 2728 
Q 1669 2397 1794 2094 
L 2750 3319 
L 3441 3319 
L 2047 1641 
L 2884 0 
L 2259 0 
L 1928 675 
Q 1822 891 1688 1209 
L 700 0 
L -9 0 
z
" transform="scale(0.015625)"/>
      <path id="Arial-ItalicMT-67" d="M 181 -300 
L 753 -353 
Q 747 -547 800 -644 
Q 853 -741 969 -794 
Q 1122 -863 1366 -863 
Q 1878 -863 2103 -597 
Q 2250 -419 2375 178 
L 2431 447 
Q 1991 0 1494 0 
Q 991 0 652 370 
Q 313 741 313 1419 
Q 313 1978 580 2447 
Q 847 2916 1215 3155 
Q 1584 3394 1975 3394 
Q 2628 3394 2981 2775 
L 3094 3319 
L 3613 3319 
L 2944 116 
Q 2834 -413 2656 -708 
Q 2478 -1003 2161 -1165 
Q 1844 -1328 1428 -1328 
Q 1028 -1328 739 -1225 
Q 450 -1122 308 -923 
Q 166 -725 166 -469 
Q 166 -391 181 -300 
z
M 888 1469 
Q 888 1128 953 956 
Q 1047 716 1220 589 
Q 1394 463 1606 463 
Q 1884 463 2159 658 
Q 2434 853 2604 1262 
Q 2775 1672 2775 2044 
Q 2775 2453 2548 2695 
Q 2322 2938 1988 2938 
Q 1781 2938 1587 2827 
Q 1394 2716 1226 2489 
Q 1059 2263 973 1947 
Q 888 1631 888 1469 
z
" transform="scale(0.015625)"/>
      <path id="Arial-ItalicMT-32" d="M 375 0 
Q 463 409 617 686 
Q 772 963 1028 1211 
Q 1284 1459 2016 2044 
Q 2459 2397 2622 2566 
Q 2856 2809 2963 3044 
Q 3034 3203 3034 3391 
Q 3034 3706 2811 3926 
Q 2588 4147 2263 4147 
Q 1941 4147 1700 3923 
Q 1459 3700 1356 3206 
L 803 3288 
Q 884 3897 1276 4248 
Q 1669 4600 2253 4600 
Q 2644 4600 2961 4437 
Q 3278 4275 3437 3981 
Q 3597 3688 3597 3375 
Q 3597 2919 3272 2497 
Q 3072 2234 2097 1463 
Q 1678 1131 1473 918 
Q 1269 706 1166 519 
L 3216 519 
L 3106 0 
L 375 0 
z
" transform="scale(0.015625)"/>
      <path id="Arial-ItalicMT-34" d="M 1913 0 
L 2159 1169 
L 291 1169 
L 409 1728 
L 2975 4581 
L 3438 4581 
L 2828 1669 
L 3472 1669 
L 3369 1169 
L 2725 1169 
L 2478 0 
L 1913 0 
z
M 2263 1669 
L 2663 3581 
L 956 1669 
L 2263 1669 
z
" transform="scale(0.015625)"/>
     </defs>
     <use xlink:href="#Arial-ItalicMT-55"/>
     <use xlink:href="#Arial-ItalicMT-6e" transform="translate(72.216797 0)"/>
     <use xlink:href="#Arial-ItalicMT-64" transform="translate(127.832031 0)"/>
     <use xlink:href="#Arial-ItalicMT-65" transform="translate(183.447266 0)"/>
     <use xlink:href="#Arial-ItalicMT-72" transform="translate(239.0625 0)"/>
     <use xlink:href="#Arial-ItalicMT-20" transform="translate(272.363281 0)"/>
     <use xlink:href="#Arial-ItalicMT-63" transform="translate(300.146484 0)"/>
     <use xlink:href="#Arial-ItalicMT-6f" transform="translate(350.146484 0)"/>
     <use xlink:href="#Arial-ItalicMT-6e" transform="translate(405.761719 0)"/>
     <use xlink:href="#Arial-ItalicMT-73" transform="translate(461.376953 0)"/>
     <use xlink:href="#Arial-ItalicMT-74" transform="translate(511.376953 0)"/>
     <use xlink:href="#Arial-ItalicMT-61" transform="translate(539.160156 0)"/>
     <use xlink:href="#Arial-ItalicMT-6e" transform="translate(594.775391 0)"/>
     <use xlink:href="#Arial-ItalicMT-74" transform="translate(650.390625 0)"/>
     <use xlink:href="#Arial-ItalicMT-20" transform="translate(678.173828 0)"/>
     <use xlink:href="#Arial-ItalicMT-68" transform="translate(705.957031 0)"/>
     <use xlink:href="#Arial-ItalicMT-6f" transform="translate(761.572266 0)"/>
     <use xlink:href="#Arial-ItalicMT-75" transform="translate(817.1875 0)"/>
     <use xlink:href="#Arial-ItalicMT-72" transform="translate(872.802734 0)"/>
     <use xlink:href="#Arial-ItalicMT-6c" transform="translate(906.103516 0)"/>
     <use xlink:href="#Arial-ItalicMT-79" transform="translate(928.320312 0)"/>
     <use xlink:href="#Arial-ItalicMT-20" transform="translate(978.320312 0)"/>
     <use xlink:href="#Arial-ItalicMT-61" transform="translate(1006.103516 0)"/>
     <use xlink:href="#Arial-ItalicMT-72" transform="translate(1061.71875 0)"/>
     <use xlink:href="#Arial-ItalicMT-72" transform="translate(1095.019531 0)"/>
     <use xlink:href="#Arial-ItalicMT-69" transform="translate(1128.320312 0)"/>
     <use xlink:href="#Arial-ItalicMT-76" transform="translate(1150.537109 0)"/>
     <use xlink:href="#Arial-ItalicMT-61" transform="translate(1200.537109 0)"/>
     <use xlink:href="#Arial-ItalicMT-6c" transform="translate(1256.152344 0)"/>
     <use xlink:href="#Arial-ItalicMT-73" transform="translate(1278.369141 0)"/>
     <use xlink:href="#Arial-ItalicMT-2c" transform="translate(1328.369141 0)"/>
     <use xlink:href="#Arial-ItalicMT-20" transform="translate(1356.152344 0)"/>
     <use xlink:href="#Arial-ItalicMT-61" transform="translate(1383.935547 0)"/>
     <use xlink:href="#Arial-ItalicMT-6e" transform="translate(1439.550781 0)"/>
     <use xlink:href="#Arial-ItalicMT-79" transform="translate(1495.166016 0)"/>
     <use xlink:href="#Arial-ItalicMT-20" transform="translate(1545.166016 0)"/>
     <use xlink:href="#Arial-ItalicMT-71" transform="translate(1572.949219 0)"/>
     <use xlink:href="#Arial-ItalicMT-75" transform="translate(1628.564453 0)"/>
     <use xlink:href="#Arial-ItalicMT-65" transform="translate(1684.179688 0)"/>
     <use xlink:href="#Arial-ItalicMT-75" transform="translate(1739.794922 0)"/>
     <use xlink:href="#Arial-ItalicMT-65" transform="translate(1795.410156 0)"/>
     <use xlink:href="#Arial-ItalicMT-20" transform="translate(1851.025391 0)"/>
     <use xlink:href="#Arial-ItalicMT-76" transform="translate(1878.808594 0)"/>
     <use xlink:href="#Arial-ItalicMT-6f" transform="translate(1928.808594 0)"/>
     <use xlink:href="#Arial-ItalicMT-6c" transform="translate(1984.423828 0)"/>
     <use xlink:href="#Arial-ItalicMT-75" transform="translate(2006.640625 0)"/>
     <use xlink:href="#Arial-ItalicMT-6d" transform="translate(2062.255859 0)"/>
     <use xlink:href="#Arial-ItalicMT-65" transform="translate(2145.556641 0)"/>
     <use xlink:href="#Arial-ItalicMT-20" transform="translate(2201.171875 0)"/>
     <use xlink:href="#Arial-ItalicMT-65" transform="translate(2228.955078 0)"/>
     <use xlink:href="#Arial-ItalicMT-78" transform="translate(2284.570312 0)"/>
     <use xlink:href="#Arial-ItalicMT-63" transform="translate(2334.570312 0)"/>
     <use xlink:href="#Arial-ItalicMT-65" transform="translate(2384.570312 0)"/>
     <use xlink:href="#Arial-ItalicMT-65" transform="translate(2440.185547 0)"/>
     <use xlink:href="#Arial-ItalicMT-64" transform="translate(2495.800781 0)"/>
     <use xlink:href="#Arial-ItalicMT-69" transform="translate(2551.416016 0)"/>
     <use xlink:href="#Arial-ItalicMT-6e" transform="translate(2573.632812 0)"/>
     <use xlink:href="#Arial-ItalicMT-67" transform="translate(2629.248047 0)"/>
     <use xlink:href="#Arial-ItalicMT-20" transform="translate(2684.863281 0)"/>
     <use xlink:href="#Arial-ItalicMT-74" transform="translate(2712.646484 0)"/>
     <use xlink:href="#Arial-ItalicMT-68" transform="translate(2740.429688 0)"/>
     <use xlink:href="#Arial-ItalicMT-65" transform="translate(2796.044922 0)"/>
     <use xlink:href="#Arial-ItalicMT-20" transform="translate(2851.660156 0)"/>
     <use xlink:href="#Arial-ItalicMT-32" transform="translate(2879.443359 0)"/>
     <use xlink:href="#Arial-ItalicMT-34" transform="translate(2935.058594 0)"/>
     <use xlink:href="#Arial-ItalicMT-20" transform="translate(2990.673828 0)"/>
     <use xlink:href="#Arial-ItalicMT-68" transform="translate(3018.457031 0)"/>
     <use xlink:href="#Arial-ItalicMT-6f" transform="translate(3074.072266 0)"/>
     <use xlink:href="#Arial-ItalicMT-75" transform="translate(3129.6875 0)"/>
     <use xlink:href="#Arial-ItalicMT-72" transform="translate(3185.302734 0)"/>
     <use xlink:href="#Arial-ItalicMT-20" transform="translate(3218.603516 0)"/>
     <use xlink:href="#Arial-ItalicMT-6c" transform="translate(3246.386719 0)"/>
     <use xlink:href="#Arial-ItalicMT-69" transform="translate(3268.603516 0)"/>
     <use xlink:href="#Arial-ItalicMT-6d" transform="translate(3290.820312 0)"/>
     <use xlink:href="#Arial-ItalicMT-69" transform="translate(3374.121094 0)"/>
     <use xlink:href="#Arial-ItalicMT-74" transform="translate(3396.337891 0)"/>
    </g>
    <!-- indicates a deadline violation. -->
    <g style="fill: #2c3e50" transform="translate(90.047528 49.226526) scale(0.095 -0.095)">
     <defs>
      <path id="Arial-ItalicMT-2e" d="M 369 0 
L 503 641 
L 1144 641 
L 1006 0 
L 369 0 
z
" transform="scale(0.015625)"/>
     </defs>
     <use xlink:href="#Arial-ItalicMT-69"/>
     <use xlink:href="#Arial-ItalicMT-6e" transform="translate(22.216797 0)"/>
     <use xlink:href="#Arial-ItalicMT-64" transform="translate(77.832031 0)"/>
     <use xlink:href="#Arial-ItalicMT-69" transform="translate(133.447266 0)"/>
     <use xlink:href="#Arial-ItalicMT-63" transform="translate(155.664062 0)"/>
     <use xlink:href="#Arial-ItalicMT-61" transform="translate(205.664062 0)"/>
     <use xlink:href="#Arial-ItalicMT-74" transform="translate(261.279297 0)"/>
     <use xlink:href="#Arial-ItalicMT-65" transform="translate(289.0625 0)"/>
     <use xlink:href="#Arial-ItalicMT-73" transform="translate(344.677734 0)"/>
     <use xlink:href="#Arial-ItalicMT-20" transform="translate(394.677734 0)"/>
     <use xlink:href="#Arial-ItalicMT-61" transform="translate(422.460938 0)"/>
     <use xlink:href="#Arial-ItalicMT-20" transform="translate(478.076172 0)"/>
     <use xlink:href="#Arial-ItalicMT-64" transform="translate(505.859375 0)"/>
     <use xlink:href="#Arial-ItalicMT-65" transform="translate(561.474609 0)"/>
     <use xlink:href="#Arial-ItalicMT-61" transform="translate(617.089844 0)"/>
     <use xlink:href="#Arial-ItalicMT-64" transform="translate(672.705078 0)"/>
     <use xlink:href="#Arial-ItalicMT-6c" transform="translate(728.320312 0)"/>
     <use xlink:href="#Arial-ItalicMT-69" transform="translate(750.537109 0)"/>
     <use xlink:href="#Arial-ItalicMT-6e" transform="translate(772.753906 0)"/>
     <use xlink:href="#Arial-ItalicMT-65" transform="translate(828.369141 0)"/>
     <use xlink:href="#Arial-ItalicMT-20" transform="translate(883.984375 0)"/>
     <use xlink:href="#Arial-ItalicMT-76" transform="translate(911.767578 0)"/>
     <use xlink:href="#Arial-ItalicMT-69" transform="translate(961.767578 0)"/>
     <use xlink:href="#Arial-ItalicMT-6f" transform="translate(983.984375 0)"/>
     <use xlink:href="#Arial-ItalicMT-6c" transform="translate(1039.599609 0)"/>
     <use xlink:href="#Arial-ItalicMT-61" transform="translate(1061.816406 0)"/>
     <use xlink:href="#Arial-ItalicMT-74" transform="translate(1117.431641 0)"/>
     <use xlink:href="#Arial-ItalicMT-69" transform="translate(1145.214844 0)"/>
     <use xlink:href="#Arial-ItalicMT-6f" transform="translate(1167.431641 0)"/>
     <use xlink:href="#Arial-ItalicMT-6e" transform="translate(1223.046875 0)"/>
     <use xlink:href="#Arial-ItalicMT-2e" transform="translate(1278.662109 0)"/>
    </g>
   </g>
   <g id="patch_4">
    <path d="M 91.39238 180.887054 
L 111.116879 180.887054 
L 111.116879 141.391106 
L 91.39238 141.391106 
z
" clip-path="url(#p294a5960df)" style="fill: #e28743; stroke: #ffffff; stroke-width: 0.8; stroke-linejoin: miter"/>
   </g>
   <g id="patch_5">
    <path d="M 113.806583 180.887054 
L 133.531081 180.887054 
L 133.531081 141.391106 
L 113.806583 141.391106 
z
" clip-path="url(#p294a5960df)" style="fill: #e28743; stroke: #ffffff; stroke-width: 0.8; stroke-linejoin: miter"/>
   </g>
   <g id="patch_6">
    <path d="M 136.220785 180.887054 
L 155.945284 180.887054 
L 155.945284 141.391106 
L 136.220785 141.391106 
z
" clip-path="url(#p294a5960df)" style="fill: #e28743; stroke: #ffffff; stroke-width: 0.8; stroke-linejoin: miter"/>
   </g>
   <g id="patch_7">
    <path d="M 158.634988 180.887054 
L 178.359486 180.887054 
L 178.359486 141.391106 
L 158.634988 141.391106 
z
" clip-path="url(#p294a5960df)" style="fill: #e28743; stroke: #ffffff; stroke-width: 0.8; stroke-linejoin: miter"/>
   </g>
   <g id="patch_8">
    <path d="M 181.049191 180.887054 
L 200.773689 180.887054 
L 200.773689 141.391106 
L 181.049191 141.391106 
z
" clip-path="url(#p294a5960df)" style="fill: #2b6cb0; stroke: #ffffff; stroke-width: 0.8; stroke-linejoin: miter"/>
   </g>
   <g id="patch_9">
    <path d="M 203.463393 180.887054 
L 223.187892 180.887054 
L 223.187892 141.391106 
L 203.463393 141.391106 
z
" clip-path="url(#p294a5960df)" style="fill: #2b6cb0; stroke: #ffffff; stroke-width: 0.8; stroke-linejoin: miter"/>
   </g>
   <g id="patch_10">
    <path d="M 225.877596 180.887054 
L 245.602094 180.887054 
L 245.602094 141.391106 
L 225.877596 141.391106 
z
" clip-path="url(#p294a5960df)" style="fill: #2b6cb0; stroke: #ffffff; stroke-width: 0.8; stroke-linejoin: miter"/>
   </g>
   <g id="patch_11">
    <path d="M 248.291799 180.887054 
L 268.016297 180.887054 
L 268.016297 141.391106 
L 248.291799 141.391106 
z
" clip-path="url(#p294a5960df)" style="fill: #2b6cb0; stroke: #ffffff; stroke-width: 0.8; stroke-linejoin: miter"/>
   </g>
   <g id="patch_12">
    <path d="M 270.706001 180.887054 
L 290.4305 180.887054 
L 290.4305 141.391106 
L 270.706001 141.391106 
z
" clip-path="url(#p294a5960df)" style="fill: #2b6cb0; stroke: #ffffff; stroke-width: 0.8; stroke-linejoin: miter"/>
   </g>
   <g id="patch_13">
    <path d="M 293.120204 180.887054 
L 312.844702 180.887054 
L 312.844702 141.391106 
L 293.120204 141.391106 
z
" clip-path="url(#p294a5960df)" style="fill: #2b6cb0; stroke: #ffffff; stroke-width: 0.8; stroke-linejoin: miter"/>
   </g>
   <g id="patch_14">
    <path d="M 315.534407 180.887054 
L 335.258905 180.887054 
L 335.258905 141.391106 
L 315.534407 141.391106 
z
" clip-path="url(#p294a5960df)" style="fill: #2b6cb0; stroke: #ffffff; stroke-width: 0.8; stroke-linejoin: miter"/>
   </g>
   <g id="patch_15">
    <path d="M 337.948609 180.887054 
L 357.673108 180.887054 
L 357.673108 141.391106 
L 337.948609 141.391106 
z
" clip-path="url(#p294a5960df)" style="fill: #2b6cb0; stroke: #ffffff; stroke-width: 0.8; stroke-linejoin: miter"/>
   </g>
   <g id="patch_16">
    <path d="M 360.362812 180.887054 
L 380.08731 180.887054 
L 380.08731 141.391106 
L 360.362812 141.391106 
z
" clip-path="url(#p294a5960df)" style="fill: #2b6cb0; stroke: #ffffff; stroke-width: 0.8; stroke-linejoin: miter"/>
   </g>
   <g id="patch_17">
    <path d="M 382.777015 180.887054 
L 402.501513 180.887054 
L 402.501513 141.391106 
L 382.777015 141.391106 
z
" clip-path="url(#p294a5960df)" style="fill: #2b6cb0; stroke: #ffffff; stroke-width: 0.8; stroke-linejoin: miter"/>
   </g>
   <g id="patch_18">
    <path d="M 405.191217 180.887054 
L 424.915716 180.887054 
L 424.915716 141.391106 
L 405.191217 141.391106 
z
" clip-path="url(#p294a5960df)" style="fill: #2b6cb0; stroke: #ffffff; stroke-width: 0.8; stroke-linejoin: miter"/>
   </g>
   <g id="patch_19">
    <path d="M 427.60542 180.887054 
L 447.329918 180.887054 
L 447.329918 141.391106 
L 427.60542 141.391106 
z
" clip-path="url(#p294a5960df)" style="fill: #2b6cb0; stroke: #ffffff; stroke-width: 0.8; stroke-linejoin: miter"/>
   </g>
   <g id="patch_20">
    <path d="M 450.019622 180.887054 
L 469.744121 180.887054 
L 469.744121 141.391106 
L 450.019622 141.391106 
z
" clip-path="url(#p294a5960df)" style="fill: #2b6cb0; stroke: #ffffff; stroke-width: 0.8; stroke-linejoin: miter"/>
   </g>
   <g id="patch_21">
    <path d="M 472.433825 180.887054 
L 492.158323 180.887054 
L 492.158323 141.391106 
L 472.433825 141.391106 
z
" clip-path="url(#p294a5960df)" style="fill: #2b6cb0; stroke: #ffffff; stroke-width: 0.8; stroke-linejoin: miter"/>
   </g>
   <g id="patch_22">
    <path d="M 494.848028 180.887054 
L 514.572526 180.887054 
L 514.572526 141.391106 
L 494.848028 141.391106 
z
" clip-path="url(#p294a5960df)" style="fill: #2b6cb0; stroke: #ffffff; stroke-width: 0.8; stroke-linejoin: miter"/>
   </g>
   <g id="patch_23">
    <path d="M 517.26223 180.887054 
L 536.986729 180.887054 
L 536.986729 141.391106 
L 517.26223 141.391106 
z
" clip-path="url(#p294a5960df)" style="fill: #2b6cb0; stroke: #ffffff; stroke-width: 0.8; stroke-linejoin: miter"/>
   </g>
   <g id="patch_24">
    <path d="M 539.676433 180.887054 
L 559.400931 180.887054 
L 559.400931 141.391106 
L 539.676433 141.391106 
z
" clip-path="url(#p294a5960df)" style="fill: #2b6cb0; stroke: #ffffff; stroke-width: 0.8; stroke-linejoin: miter"/>
   </g>
   <g id="patch_25">
    <path d="M 562.090636 180.887054 
L 581.815134 180.887054 
L 581.815134 141.391106 
L 562.090636 141.391106 
z
" clip-path="url(#p294a5960df)" style="fill: #2b6cb0; stroke: #ffffff; stroke-width: 0.8; stroke-linejoin: miter"/>
   </g>
   <g id="patch_26">
    <path d="M 584.504838 180.887054 
L 604.229337 180.887054 
L 604.229337 141.391106 
L 584.504838 141.391106 
z
" clip-path="url(#p294a5960df)" style="fill: #2b6cb0; stroke: #ffffff; stroke-width: 0.8; stroke-linejoin: miter"/>
   </g>
   <g id="patch_27">
    <path d="M 606.919041 180.887054 
L 626.643539 180.887054 
L 626.643539 141.391106 
L 606.919041 141.391106 
z
" clip-path="url(#p294a5960df)" style="fill: #2b6cb0; stroke: #ffffff; stroke-width: 0.8; stroke-linejoin: miter"/>
   </g>
   <g id="patch_28">
    <path d="M 629.333244 180.887054 
L 649.057742 180.887054 
L 649.057742 141.391106 
L 629.333244 141.391106 
z
" clip-path="url(#p294a5960df)" style="fill: #2b6cb0; stroke: #ffffff; stroke-width: 0.8; stroke-linejoin: miter"/>
   </g>
   <g id="patch_29">
    <path d="M 651.747446 180.887054 
L 671.471945 180.887054 
L 671.471945 141.391106 
L 651.747446 141.391106 
z
" clip-path="url(#p294a5960df)" style="fill: #2b6cb0; stroke: #ffffff; stroke-width: 0.8; stroke-linejoin: miter"/>
   </g>
   <g id="patch_30">
    <path d="M 674.161649 180.887054 
L 693.886147 180.887054 
L 693.886147 141.391106 
L 674.161649 141.391106 
z
" clip-path="url(#p294a5960df)" style="fill: #2b6cb0; stroke: #ffffff; stroke-width: 0.8; stroke-linejoin: miter"/>
   </g>
   <g id="patch_31">
    <path d="M 696.575852 180.887054 
L 716.30035 180.887054 
L 716.30035 141.391106 
L 696.575852 141.391106 
z
" clip-path="url(#p294a5960df)" style="fill: #2b6cb0; stroke: #ffffff; stroke-width: 0.8; stroke-linejoin: miter"/>
   </g>
   <g id="line2d_4">
    <path d="M 179.704339 200.635029 
L 179.704339 116.000853 
" clip-path="url(#p294a5960df)" style="fill: none; stroke-dasharray: 1.5,2.475; stroke-dashoffset: 0; stroke: #2c3e50; stroke-width: 1.5"/>
   </g>
   <g id="patch_32">
    <path d="M 755.990808 161.13908 
Q 739.500489 161.13908 724.351811 161.13908 
" clip-path="url(#p294a5960df)" style="fill: none; stroke: #2c3e50; stroke-width: 1.2; stroke-linecap: round"/>
    <path d="M 729.151811 163.53908 
L 724.351811 161.13908 
L 729.151811 158.73908 
z
" clip-path="url(#p294a5960df)" style="fill: #2c3e50; stroke: #2c3e50; stroke-width: 1.2; stroke-linecap: round"/>
   </g>
   <g id="patch_33">
    <path d="M 84.685439 161.13908 
Q 68.19512 161.13908 53.046442 161.13908 
" clip-path="url(#p294a5960df)" style="fill: none; stroke: #2c3e50; stroke-width: 1.2; stroke-linecap: round"/>
    <path d="M 57.846442 163.53908 
L 53.046442 161.13908 
L 57.846442 158.73908 
z
" clip-path="url(#p294a5960df)" style="fill: #2c3e50; stroke: #2c3e50; stroke-width: 1.2; stroke-linecap: round"/>
   </g>
   <g id="patch_34">
    <path d="M 704.43886 87.789461 
Q 403.847665 87.789461 104.59811 87.789461 
" clip-path="url(#p294a5960df)" style="fill: none; stroke: #718096; stroke-width: 1.2; stroke-linecap: round"/>
    <path d="M 109.39811 90.189461 
L 104.59811 87.789461 
L 109.39811 85.389461 
z
" clip-path="url(#p294a5960df)" style="fill: #718096; stroke: #718096; stroke-width: 1.2; stroke-linecap: round"/>
   </g>
   <g id="legend_1">
    <g id="patch_35">
     <path d="M 604.445616 17.799922 
L 623.445616 17.799922 
L 623.445616 11.149922 
L 604.445616 11.149922 
z
" style="fill: #2b6cb0"/>
    </g>
    <g id="text_11">
     <!-- Workloads Meeting Deadline -->
     <g style="fill: #2c3e50" transform="translate(631.045616 17.799922) scale(0.095 -0.095)">
      <defs>
       <path id="ArialMT-57" d="M 1294 0 
L 78 4581 
L 700 4581 
L 1397 1578 
Q 1509 1106 1591 641 
Q 1766 1375 1797 1488 
L 2669 4581 
L 3400 4581 
L 4056 2263 
Q 4303 1400 4413 641 
Q 4500 1075 4641 1638 
L 5359 4581 
L 5969 4581 
L 4713 0 
L 4128 0 
L 3163 3491 
Q 3041 3928 3019 4028 
Q 2947 3713 2884 3491 
L 1913 0 
L 1294 0 
z
" transform="scale(0.015625)"/>
       <path id="ArialMT-6f" d="M 213 1659 
Q 213 2581 725 3025 
Q 1153 3394 1769 3394 
Q 2453 3394 2887 2945 
Q 3322 2497 3322 1706 
Q 3322 1066 3130 698 
Q 2938 331 2570 128 
Q 2203 -75 1769 -75 
Q 1072 -75 642 372 
Q 213 819 213 1659 
z
M 791 1659 
Q 791 1022 1069 705 
Q 1347 388 1769 388 
Q 2188 388 2466 706 
Q 2744 1025 2744 1678 
Q 2744 2294 2464 2611 
Q 2184 2928 1769 2928 
Q 1347 2928 1069 2612 
Q 791 2297 791 1659 
z
" transform="scale(0.015625)"/>
       <path id="ArialMT-72" d="M 416 0 
L 416 3319 
L 922 3319 
L 922 2816 
Q 1116 3169 1280 3281 
Q 1444 3394 1641 3394 
Q 1925 3394 2219 3213 
L 2025 2691 
Q 1819 2813 1613 2813 
Q 1428 2813 1281 2702 
Q 1134 2591 1072 2394 
Q 978 2094 978 1738 
L 978 0 
L 416 0 
z
" transform="scale(0.015625)"/>
       <path id="ArialMT-6b" d="M 425 0 
L 425 4581 
L 988 4581 
L 988 1969 
L 2319 3319 
L 3047 3319 
L 1778 2088 
L 3175 0 
L 2481 0 
L 1384 1697 
L 988 1316 
L 988 0 
L 425 0 
z
" transform="scale(0.015625)"/>
       <path id="ArialMT-6c" d="M 409 0 
L 409 4581 
L 972 4581 
L 972 0 
L 409 0 
z
" transform="scale(0.015625)"/>
       <path id="ArialMT-61" d="M 2588 409 
Q 2275 144 1986 34 
Q 1697 -75 1366 -75 
Q 819 -75 525 192 
Q 231 459 231 875 
Q 231 1119 342 1320 
Q 453 1522 633 1644 
Q 813 1766 1038 1828 
Q 1203 1872 1538 1913 
Q 2219 1994 2541 2106 
Q 2544 2222 2544 2253 
Q 2544 2597 2384 2738 
Q 2169 2928 1744 2928 
Q 1347 2928 1158 2789 
Q 969 2650 878 2297 
L 328 2372 
Q 403 2725 575 2942 
Q 747 3159 1072 3276 
Q 1397 3394 1825 3394 
Q 2250 3394 2515 3294 
Q 2781 3194 2906 3042 
Q 3031 2891 3081 2659 
Q 3109 2516 3109 2141 
L 3109 1391 
Q 3109 606 3145 398 
Q 3181 191 3288 0 
L 2700 0 
Q 2613 175 2588 409 
z
M 2541 1666 
Q 2234 1541 1622 1453 
Q 1275 1403 1131 1340 
Q 988 1278 909 1158 
Q 831 1038 831 891 
Q 831 666 1001 516 
Q 1172 366 1500 366 
Q 1825 366 2078 508 
Q 2331 650 2450 897 
Q 2541 1088 2541 1459 
L 2541 1666 
z
" transform="scale(0.015625)"/>
       <path id="ArialMT-64" d="M 2575 0 
L 2575 419 
Q 2259 -75 1647 -75 
Q 1250 -75 917 144 
Q 584 363 401 755 
Q 219 1147 219 1656 
Q 219 2153 384 2558 
Q 550 2963 881 3178 
Q 1213 3394 1622 3394 
Q 1922 3394 2156 3267 
Q 2391 3141 2538 2938 
L 2538 4581 
L 3097 4581 
L 3097 0 
L 2575 0 
z
M 797 1656 
Q 797 1019 1065 703 
Q 1334 388 1700 388 
Q 2069 388 2326 689 
Q 2584 991 2584 1609 
Q 2584 2291 2321 2609 
Q 2059 2928 1675 2928 
Q 1300 2928 1048 2622 
Q 797 2316 797 1656 
z
" transform="scale(0.015625)"/>
       <path id="ArialMT-73" d="M 197 991 
L 753 1078 
Q 800 744 1014 566 
Q 1228 388 1613 388 
Q 2000 388 2187 545 
Q 2375 703 2375 916 
Q 2375 1106 2209 1216 
Q 2094 1291 1634 1406 
Q 1016 1563 777 1677 
Q 538 1791 414 1992 
Q 291 2194 291 2438 
Q 291 2659 392 2848 
Q 494 3038 669 3163 
Q 800 3259 1026 3326 
Q 1253 3394 1513 3394 
Q 1903 3394 2198 3281 
Q 2494 3169 2634 2976 
Q 2775 2784 2828 2463 
L 2278 2388 
Q 2241 2644 2061 2787 
Q 1881 2931 1553 2931 
Q 1166 2931 1000 2803 
Q 834 2675 834 2503 
Q 834 2394 903 2306 
Q 972 2216 1119 2156 
Q 1203 2125 1616 2013 
Q 2213 1853 2448 1751 
Q 2684 1650 2818 1456 
Q 2953 1263 2953 975 
Q 2953 694 2789 445 
Q 2625 197 2315 61 
Q 2006 -75 1616 -75 
Q 969 -75 630 194 
Q 291 463 197 991 
z
" transform="scale(0.015625)"/>
       <path id="ArialMT-4d" d="M 475 0 
L 475 4581 
L 1388 4581 
L 2472 1338 
Q 2622 884 2691 659 
Q 2769 909 2934 1394 
L 4031 4581 
L 4847 4581 
L 4847 0 
L 4263 0 
L 4263 3834 
L 2931 0 
L 2384 0 
L 1059 3900 
L 1059 0 
L 475 0 
z
" transform="scale(0.015625)"/>
       <path id="ArialMT-74" d="M 1650 503 
L 1731 6 
Q 1494 -44 1306 -44 
Q 1000 -44 831 53 
Q 663 150 594 308 
Q 525 466 525 972 
L 525 2881 
L 113 2881 
L 113 3319 
L 525 3319 
L 525 4141 
L 1084 4478 
L 1084 3319 
L 1650 3319 
L 1650 2881 
L 1084 2881 
L 1084 941 
Q 1084 700 1114 631 
Q 1144 563 1211 522 
Q 1278 481 1403 481 
Q 1497 481 1650 503 
z
" transform="scale(0.015625)"/>
       <path id="ArialMT-69" d="M 425 3934 
L 425 4581 
L 988 4581 
L 988 3934 
L 425 3934 
z
M 425 0 
L 425 3319 
L 988 3319 
L 988 0 
L 425 0 
z
" transform="scale(0.015625)"/>
       <path id="ArialMT-6e" d="M 422 0 
L 422 3319 
L 928 3319 
L 928 2847 
Q 1294 3394 1984 3394 
Q 2284 3394 2536 3286 
Q 2788 3178 2913 3003 
Q 3038 2828 3088 2588 
Q 3119 2431 3119 2041 
L 3119 0 
L 2556 0 
L 2556 2019 
Q 2556 2363 2490 2533 
Q 2425 2703 2258 2804 
Q 2091 2906 1866 2906 
Q 1506 2906 1245 2678 
Q 984 2450 984 1813 
L 984 0 
L 422 0 
z
" transform="scale(0.015625)"/>
       <path id="ArialMT-44" d="M 494 0 
L 494 4581 
L 2072 4581 
Q 2606 4581 2888 4516 
Q 3281 4425 3559 4188 
Q 3922 3881 4101 3404 
Q 4281 2928 4281 2316 
Q 4281 1794 4159 1391 
Q 4038 988 3847 723 
Q 3656 459 3429 307 
Q 3203 156 2883 78 
Q 2563 0 2147 0 
L 494 0 
z
M 1100 541 
L 2078 541 
Q 2531 541 2789 625 
Q 3047 709 3200 863 
Q 3416 1078 3536 1442 
Q 3656 1806 3656 2325 
Q 3656 3044 3420 3430 
Q 3184 3816 2847 3947 
Q 2603 4041 2063 4041 
L 1100 4041 
L 1100 541 
z
" transform="scale(0.015625)"/>
      </defs>
      <use xlink:href="#ArialMT-57"/>
      <use xlink:href="#ArialMT-6f" transform="translate(92.634766 0)"/>
      <use xlink:href="#ArialMT-72" transform="translate(148.25 0)"/>
      <use xlink:href="#ArialMT-6b" transform="translate(181.550781 0)"/>
      <use xlink:href="#ArialMT-6c" transform="translate(231.550781 0)"/>
      <use xlink:href="#ArialMT-6f" transform="translate(253.767578 0)"/>
      <use xlink:href="#ArialMT-61" transform="translate(309.382812 0)"/>
      <use xlink:href="#ArialMT-64" transform="translate(364.998047 0)"/>
      <use xlink:href="#ArialMT-73" transform="translate(420.613281 0)"/>
      <use xlink:href="#ArialMT-20" transform="translate(470.613281 0)"/>
      <use xlink:href="#ArialMT-4d" transform="translate(498.396484 0)"/>
      <use xlink:href="#ArialMT-65" transform="translate(581.697266 0)"/>
      <use xlink:href="#ArialMT-65" transform="translate(637.3125 0)"/>
      <use xlink:href="#ArialMT-74" transform="translate(692.927734 0)"/>
      <use xlink:href="#ArialMT-69" transform="translate(720.710938 0)"/>
      <use xlink:href="#ArialMT-6e" transform="translate(742.927734 0)"/>
      <use xlink:href="#ArialMT-67" transform="translate(798.542969 0)"/>
      <use xlink:href="#ArialMT-20" transform="translate(854.158203 0)"/>
      <use xlink:href="#ArialMT-44" transform="translate(881.941406 0)"/>
      <use xlink:href="#ArialMT-65" transform="translate(954.158203 0)"/>
      <use xlink:href="#ArialMT-61" transform="translate(1009.773438 0)"/>
      <use xlink:href="#ArialMT-64" transform="translate(1065.388672 0)"/>
      <use xlink:href="#ArialMT-6c" transform="translate(1121.003906 0)"/>
      <use xlink:href="#ArialMT-69" transform="translate(1143.220703 0)"/>
      <use xlink:href="#ArialMT-6e" transform="translate(1165.4375 0)"/>
      <use xlink:href="#ArialMT-65" transform="translate(1221.052734 0)"/>
     </g>
    </g>
    <g id="patch_36">
     <path d="M 604.445616 31.349297 
L 623.445616 31.349297 
L 623.445616 24.699297 
L 604.445616 24.699297 
z
" style="fill: #e28743"/>
    </g>
    <g id="text_12">
     <!-- Workloads Exceeding Deadline -->
     <g style="fill: #2c3e50" transform="translate(631.045616 31.349297) scale(0.095 -0.095)">
      <defs>
       <path id="ArialMT-45" d="M 506 0 
L 506 4581 
L 3819 4581 
L 3819 4041 
L 1113 4041 
L 1113 2638 
L 3647 2638 
L 3647 2100 
L 1113 2100 
L 1113 541 
L 3925 541 
L 3925 0 
L 506 0 
z
" transform="scale(0.015625)"/>
       <path id="ArialMT-78" d="M 47 0 
L 1259 1725 
L 138 3319 
L 841 3319 
L 1350 2541 
Q 1494 2319 1581 2169 
Q 1719 2375 1834 2534 
L 2394 3319 
L 3066 3319 
L 1919 1756 
L 3153 0 
L 2463 0 
L 1781 1031 
L 1600 1309 
L 728 0 
L 47 0 
z
" transform="scale(0.015625)"/>
       <path id="ArialMT-63" d="M 2588 1216 
L 3141 1144 
Q 3050 572 2676 248 
Q 2303 -75 1759 -75 
Q 1078 -75 664 370 
Q 250 816 250 1647 
Q 250 2184 428 2587 
Q 606 2991 970 3192 
Q 1334 3394 1763 3394 
Q 2303 3394 2647 3120 
Q 2991 2847 3088 2344 
L 2541 2259 
Q 2463 2594 2264 2762 
Q 2066 2931 1784 2931 
Q 1359 2931 1093 2626 
Q 828 2322 828 1663 
Q 828 994 1084 691 
Q 1341 388 1753 388 
Q 2084 388 2306 591 
Q 2528 794 2588 1216 
z
" transform="scale(0.015625)"/>
      </defs>
      <use xlink:href="#ArialMT-57"/>
      <use xlink:href="#ArialMT-6f" transform="translate(92.634766 0)"/>
      <use xlink:href="#ArialMT-72" transform="translate(148.25 0)"/>
      <use xlink:href="#ArialMT-6b" transform="translate(181.550781 0)"/>
      <use xlink:href="#ArialMT-6c" transform="translate(231.550781 0)"/>
      <use xlink:href="#ArialMT-6f" transform="translate(253.767578 0)"/>
      <use xlink:href="#ArialMT-61" transform="translate(309.382812 0)"/>
      <use xlink:href="#ArialMT-64" transform="translate(364.998047 0)"/>
      <use xlink:href="#ArialMT-73" transform="translate(420.613281 0)"/>
      <use xlink:href="#ArialMT-20" transform="translate(470.613281 0)"/>
      <use xlink:href="#ArialMT-45" transform="translate(498.396484 0)"/>
      <use xlink:href="#ArialMT-78" transform="translate(565.095703 0)"/>
      <use xlink:href="#ArialMT-63" transform="translate(615.095703 0)"/>
      <use xlink:href="#ArialMT-65" transform="translate(665.095703 0)"/>
      <use xlink:href="#ArialMT-65" transform="translate(720.710938 0)"/>
      <use xlink:href="#ArialMT-64" transform="translate(776.326172 0)"/>
      <use xlink:href="#ArialMT-69" transform="translate(831.941406 0)"/>
      <use xlink:href="#ArialMT-6e" transform="translate(854.158203 0)"/>
      <use xlink:href="#ArialMT-67" transform="translate(909.773438 0)"/>
      <use xlink:href="#ArialMT-20" transform="translate(965.388672 0)"/>
      <use xlink:href="#ArialMT-44" transform="translate(993.171875 0)"/>
      <use xlink:href="#ArialMT-65" transform="translate(1065.388672 0)"/>
      <use xlink:href="#ArialMT-61" transform="translate(1121.003906 0)"/>
      <use xlink:href="#ArialMT-64" transform="translate(1176.619141 0)"/>
      <use xlink:href="#ArialMT-6c" transform="translate(1232.234375 0)"/>
      <use xlink:href="#ArialMT-69" transform="translate(1254.451172 0)"/>
      <use xlink:href="#ArialMT-6e" transform="translate(1276.667969 0)"/>
      <use xlink:href="#ArialMT-65" transform="translate(1332.283203 0)"/>
     </g>
    </g>
   </g>
  </g>
 </g>
 <defs>
  <clipPath id="p294a5960df">
   <rect x="40.736282" y="41.240664" width="730.703006" height="176.3212"/>
  </clipPath>
 </defs>
</svg>
