<?xml version="1.0" encoding="utf-8" standalone="no"?>
<!DOCTYPE svg PUBLIC "-//W3C//DTD SVG 1.1//EN"
  "http://www.w3.org/Graphics/SVG/1.1/DTD/svg11.dtd">
<svg xmlns:xlink="http://www.w3.org/1999/xlink" width="1152pt" height="432pt" viewBox="0 0 1152 432" xmlns="http://www.w3.org/2000/svg" version="1.1">
 <metadata>
  <rdf:RDF xmlns:dc="http://purl.org/dc/elements/1.1/" xmlns:cc="http://creativecommons.org/ns#" xmlns:rdf="http://www.w3.org/1999/02/22-rdf-syntax-ns#">
   <cc:Work>
    <dc:type rdf:resource="http://purl.org/dc/dcmitype/StillImage"/>
    <dc:date>2026-03-12T10:02:39.636071</dc:date>
    <dc:format>image/svg+xml</dc:format>
    <dc:creator>
     <cc:Agent>
      <dc:title>Matplotlib v3.10.8, https://matplotlib.org/</dc:title>
     </cc:Agent>
    </dc:creator>
   </cc:Work>
  </rdf:RDF>
 </metadata>
 <defs>
  <style type="text/css">*{stroke-linejoin: round; stroke-linecap: butt}</style>
 </defs>
 <g id="figure_1">
  <g id="patch_1">
   <path d="M 0 432 
L 1152 432 
L 1152 0 
L 0 0 
z
" style="fill: #ffffff"/>
  </g>
  <g id="axes_1">
   <g id="patch_2">
    <path d="M 52.925 388.7 
L 570.6 388.7 
L 570.6 52.6 
L 52.925 52.6 
z
" style="fill: #ffffff"/>
   </g>
   <g id="matplotlib.axis_1">
    <g id="xtick_1">
     <g id="line2d_1">
      <path d="M 150.763098 388.7 
L 150.763098 52.6 
" clip-path="url(#pbaf51e2f1d)" style="fill: none; stroke-dasharray: 2.96,1.28; stroke-dashoffset: 0; stroke: #b0b0b0; stroke-opacity: 0.7; stroke-width: 0.8"/>
     </g>
     <g id="line2d_2">
      <defs>
       <path id="m9e269a5261" d="M 0 0 
L 0 3.5 
" style="stroke: #000000; stroke-width: 0.8"/>
      </defs>
      <g>
       <use xlink:href="#m9e269a5261" x="150.763098" y="388.7" style="stroke: #000000; stroke-width: 0.8"/>
      </g>
     </g>
     <g id="text_1">
      <!-- 20 -->
      <g transform="translate(144.400598 403.298437) scale(0.1 -0.1)">
       <defs>
        <path id="DejaVuSans-32" d="M 1228 531 
L 3431 531 
L 3431 0 
L 469 0 
L 469 531 
Q 828 903 1448 1529 
Q 2069 2156 2228 2338 
Q 2531 2678 2651 2914 
Q 2772 3150 2772 3378 
Q 2772 3750 2511 3984 
Q 2250 4219 1831 4219 
Q 1534 4219 1204 4116 
Q 875 4013 500 3803 
L 500 4441 
Q 881 4594 1212 4672 
Q 1544 4750 1819 4750 
Q 2544 4750 2975 4387 
Q 3406 4025 3406 3419 
Q 3406 3131 3298 2873 
Q 3191 2616 2906 2266 
Q 2828 2175 2409 1742 
Q 1991 1309 1228 531 
z
" transform="scale(0.015625)"/>
        <path id="DejaVuSans-30" d="M 2034 4250 
Q 1547 4250 1301 3770 
Q 1056 3291 1056 2328 
Q 1056 1369 1301 889 
Q 1547 409 2034 409 
Q 2525 409 2770 889 
Q 3016 1369 3016 2328 
Q 3016 3291 2770 3770 
Q 2525 4250 2034 4250 
z
M 2034 4750 
Q 2819 4750 3233 4129 
Q 3647 3509 3647 2328 
Q 3647 1150 3233 529 
Q 2819 -91 2034 -91 
Q 1250 -91 836 529 
Q 422 1150 422 2328 
Q 422 3509 836 4129 
Q 1250 4750 2034 4750 
z
" transform="scale(0.015625)"/>
       </defs>
       <use xlink:href="#DejaVuSans-32"/>
       <use xlink:href="#DejaVuSans-30" transform="translate(63.623047 0)"/>
      </g>
     </g>
    </g>
    <g id="xtick_2">
     <g id="line2d_3">
      <path d="M 249.839653 388.7 
L 249.839653 52.6 
" clip-path="url(#pbaf51e2f1d)" style="fill: none; stroke-dasharray: 2.96,1.28; stroke-dashoffset: 0; stroke: #b0b0b0; stroke-opacity: 0.7; stroke-width: 0.8"/>
     </g>
     <g id="line2d_4">
      <g>
       <use xlink:href="#m9e269a5261" x="249.839653" y="388.7" style="stroke: #000000; stroke-width: 0.8"/>
      </g>
     </g>
     <g id="text_2">
      <!-- 40 -->
      <g transform="translate(243.477153 403.298437) scale(0.1 -0.1)">
       <defs>
        <path id="DejaVuSans-34" d="M 2419 4116 
L 825 1625 
L 2419 1625 
L 2419 4116 
z
M 2253 4666 
L 3047 4666 
L 3047 1625 
L 3713 1625 
L 3713 1100 
L 3047 1100 
L 3047 0 
L 2419 0 
L 2419 1100 
L 313 1100 
L 313 1709 
L 2253 4666 
z
" transform="scale(0.015625)"/>
       </defs>
       <use xlink:href="#DejaVuSans-34"/>
       <use xlink:href="#DejaVuSans-30" transform="translate(63.623047 0)"/>
      </g>
     </g>
    </g>
    <g id="xtick_3">
     <g id="line2d_5">
      <path d="M 348.916208 388.7 
L 348.916208 52.6 
" clip-path="url(#pbaf51e2f1d)" style="fill: none; stroke-dasharray: 2.96,1.28; stroke-dashoffset: 0; stroke: #b0b0b0; stroke-opacity: 0.7; stroke-width: 0.8"/>
     </g>
     <g id="line2d_6">
      <g>
       <use xlink:href="#m9e269a5261" x="348.916208" y="388.7" style="stroke: #000000; stroke-width: 0.8"/>
      </g>
     </g>
     <g id="text_3">
      <!-- 60 -->
      <g transform="translate(342.553708 403.298437) scale(0.1 -0.1)">
       <defs>
        <path id="DejaVuSans-36" d="M 2113 2584 
Q 1688 2584 1439 2293 
Q 1191 2003 1191 1497 
Q 1191 994 1439 701 
Q 1688 409 2113 409 
Q 2538 409 2786 701 
Q 3034 994 3034 1497 
Q 3034 2003 2786 2293 
Q 2538 2584 2113 2584 
z
M 3366 4563 
L 3366 3988 
Q 3128 4100 2886 4159 
Q 2644 4219 2406 4219 
Q 1781 4219 1451 3797 
Q 1122 3375 1075 2522 
Q 1259 2794 1537 2939 
Q 1816 3084 2150 3084 
Q 2853 3084 3261 2657 
Q 3669 2231 3669 1497 
Q 3669 778 3244 343 
Q 2819 -91 2113 -91 
Q 1303 -91 875 529 
Q 447 1150 447 2328 
Q 447 3434 972 4092 
Q 1497 4750 2381 4750 
Q 2619 4750 2861 4703 
Q 3103 4656 3366 4563 
z
" transform="scale(0.015625)"/>
       </defs>
       <use xlink:href="#DejaVuSans-36"/>
       <use xlink:href="#DejaVuSans-30" transform="translate(63.623047 0)"/>
      </g>
     </g>
    </g>
    <g id="xtick_4">
     <g id="line2d_7">
      <path d="M 447.992763 388.7 
L 447.992763 52.6 
" clip-path="url(#pbaf51e2f1d)" style="fill: none; stroke-dasharray: 2.96,1.28; stroke-dashoffset: 0; stroke: #b0b0b0; stroke-opacity: 0.7; stroke-width: 0.8"/>
     </g>
     <g id="line2d_8">
      <g>
       <use xlink:href="#m9e269a5261" x="447.992763" y="388.7" style="stroke: #000000; stroke-width: 0.8"/>
      </g>
     </g>
     <g id="text_4">
      <!-- 80 -->
      <g transform="translate(441.630263 403.298437) scale(0.1 -0.1)">
       <defs>
        <path id="DejaVuSans-38" d="M 2034 2216 
Q 1584 2216 1326 1975 
Q 1069 1734 1069 1313 
Q 1069 891 1326 650 
Q 1584 409 2034 409 
Q 2484 409 2743 651 
Q 3003 894 3003 1313 
Q 3003 1734 2745 1975 
Q 2488 2216 2034 2216 
z
M 1403 2484 
Q 997 2584 770 2862 
Q 544 3141 544 3541 
Q 544 4100 942 4425 
Q 1341 4750 2034 4750 
Q 2731 4750 3128 4425 
Q 3525 4100 3525 3541 
Q 3525 3141 3298 2862 
Q 3072 2584 2669 2484 
Q 3125 2378 3379 2068 
Q 3634 1759 3634 1313 
Q 3634 634 3220 271 
Q 2806 -91 2034 -91 
Q 1263 -91 848 271 
Q 434 634 434 1313 
Q 434 1759 690 2068 
Q 947 2378 1403 2484 
z
M 1172 3481 
Q 1172 3119 1398 2916 
Q 1625 2713 2034 2713 
Q 2441 2713 2670 2916 
Q 2900 3119 2900 3481 
Q 2900 3844 2670 4047 
Q 2441 4250 2034 4250 
Q 1625 4250 1398 4047 
Q 1172 3844 1172 3481 
z
" transform="scale(0.015625)"/>
       </defs>
       <use xlink:href="#DejaVuSans-38"/>
       <use xlink:href="#DejaVuSans-30" transform="translate(63.623047 0)"/>
      </g>
     </g>
    </g>
    <g id="xtick_5">
     <g id="line2d_9">
      <path d="M 547.069318 388.7 
L 547.069318 52.6 
" clip-path="url(#pbaf51e2f1d)" style="fill: none; stroke-dasharray: 2.96,1.28; stroke-dashoffset: 0; stroke: #b0b0b0; stroke-opacity: 0.7; stroke-width: 0.8"/>
     </g>
     <g id="line2d_10">
      <g>
       <use xlink:href="#m9e269a5261" x="547.069318" y="388.7" style="stroke: #000000; stroke-width: 0.8"/>
      </g>
     </g>
     <g id="text_5">
      <!-- 100 -->
      <g transform="translate(537.525568 403.298437) scale(0.1 -0.1)">
       <defs>
        <path id="DejaVuSans-31" d="M 794 531 
L 1825 531 
L 1825 4091 
L 703 3866 
L 703 4441 
L 1819 4666 
L 2450 4666 
L 2450 531 
L 3481 531 
L 3481 0 
L 794 0 
L 794 531 
z
" transform="scale(0.015625)"/>
       </defs>
       <use xlink:href="#DejaVuSans-31"/>
       <use xlink:href="#DejaVuSans-30" transform="translate(63.623047 0)"/>
       <use xlink:href="#DejaVuSans-30" transform="translate(127.246094 0)"/>
      </g>
     </g>
    </g>
    <g id="text_6">
     <!-- Tier A Capacity (MW) -->
     <g transform="translate(248.621875 418.49625) scale(0.12 -0.12)">
      <defs>
       <path id="DejaVuSans-54" d="M -19 4666 
L 3928 4666 
L 3928 4134 
L 2272 4134 
L 2272 0 
L 1638 0 
L 1638 4134 
L -19 4134 
L -19 4666 
z
" transform="scale(0.015625)"/>
       <path id="DejaVuSans-69" d="M 603 3500 
L 1178 3500 
L 1178 0 
L 603 0 
L 603 3500 
z
M 603 4863 
L 1178 4863 
L 1178 4134 
L 603 4134 
L 603 4863 
z
" transform="scale(0.015625)"/>
       <path id="DejaVuSans-65" d="M 3597 1894 
L 3597 1613 
L 953 1613 
Q 991 1019 1311 708 
Q 1631 397 2203 397 
Q 2534 397 2845 478 
Q 3156 559 3463 722 
L 3463 178 
Q 3153 47 2828 -22 
Q 2503 -91 2169 -91 
Q 1331 -91 842 396 
Q 353 884 353 1716 
Q 353 2575 817 3079 
Q 1281 3584 2069 3584 
Q 2775 3584 3186 3129 
Q 3597 2675 3597 1894 
z
M 3022 2063 
Q 3016 2534 2758 2815 
Q 2500 3097 2075 3097 
Q 1594 3097 1305 2825 
Q 1016 2553 972 2059 
L 3022 2063 
z
" transform="scale(0.015625)"/>
       <path id="DejaVuSans-72" d="M 2631 2963 
Q 2534 3019 2420 3045 
Q 2306 3072 2169 3072 
Q 1681 3072 1420 2755 
Q 1159 2438 1159 1844 
L 1159 0 
L 581 0 
L 581 3500 
L 1159 3500 
L 1159 2956 
Q 1341 3275 1631 3429 
Q 1922 3584 2338 3584 
Q 2397 3584 2469 3576 
Q 2541 3569 2628 3553 
L 2631 2963 
z
" transform="scale(0.015625)"/>
       <path id="DejaVuSans-20" transform="scale(0.015625)"/>
       <path id="DejaVuSans-41" d="M 2188 4044 
L 1331 1722 
L 3047 1722 
L 2188 4044 
z
M 1831 4666 
L 2547 4666 
L 4325 0 
L 3669 0 
L 3244 1197 
L 1141 1197 
L 716 0 
L 50 0 
L 1831 4666 
z
" transform="scale(0.015625)"/>
       <path id="DejaVuSans-43" d="M 4122 4306 
L 4122 3641 
Q 3803 3938 3442 4084 
Q 3081 4231 2675 4231 
Q 1875 4231 1450 3742 
Q 1025 3253 1025 2328 
Q 1025 1406 1450 917 
Q 1875 428 2675 428 
Q 3081 428 3442 575 
Q 3803 722 4122 1019 
L 4122 359 
Q 3791 134 3420 21 
Q 3050 -91 2638 -91 
Q 1578 -91 968 557 
Q 359 1206 359 2328 
Q 359 3453 968 4101 
Q 1578 4750 2638 4750 
Q 3056 4750 3426 4639 
Q 3797 4528 4122 4306 
z
" transform="scale(0.015625)"/>
       <path id="DejaVuSans-61" d="M 2194 1759 
Q 1497 1759 1228 1600 
Q 959 1441 959 1056 
Q 959 750 1161 570 
Q 1363 391 1709 391 
Q 2188 391 2477 730 
Q 2766 1069 2766 1631 
L 2766 1759 
L 2194 1759 
z
M 3341 1997 
L 3341 0 
L 2766 0 
L 2766 531 
Q 2569 213 2275 61 
Q 1981 -91 1556 -91 
Q 1019 -91 701 211 
Q 384 513 384 1019 
Q 384 1609 779 1909 
Q 1175 2209 1959 2209 
L 2766 2209 
L 2766 2266 
Q 2766 2663 2505 2880 
Q 2244 3097 1772 3097 
Q 1472 3097 1187 3025 
Q 903 2953 641 2809 
L 641 3341 
Q 956 3463 1253 3523 
Q 1550 3584 1831 3584 
Q 2591 3584 2966 3190 
Q 3341 2797 3341 1997 
z
" transform="scale(0.015625)"/>
       <path id="DejaVuSans-70" d="M 1159 525 
L 1159 -1331 
L 581 -1331 
L 581 3500 
L 1159 3500 
L 1159 2969 
Q 1341 3281 1617 3432 
Q 1894 3584 2278 3584 
Q 2916 3584 3314 3078 
Q 3713 2572 3713 1747 
Q 3713 922 3314 415 
Q 2916 -91 2278 -91 
Q 1894 -91 1617 61 
Q 1341 213 1159 525 
z
M 3116 1747 
Q 3116 2381 2855 2742 
Q 2594 3103 2138 3103 
Q 1681 3103 1420 2742 
Q 1159 2381 1159 1747 
Q 1159 1113 1420 752 
Q 1681 391 2138 391 
Q 2594 391 2855 752 
Q 3116 1113 3116 1747 
z
" transform="scale(0.015625)"/>
       <path id="DejaVuSans-63" d="M 3122 3366 
L 3122 2828 
Q 2878 2963 2633 3030 
Q 2388 3097 2138 3097 
Q 1578 3097 1268 2742 
Q 959 2388 959 1747 
Q 959 1106 1268 751 
Q 1578 397 2138 397 
Q 2388 397 2633 464 
Q 2878 531 3122 666 
L 3122 134 
Q 2881 22 2623 -34 
Q 2366 -91 2075 -91 
Q 1284 -91 818 406 
Q 353 903 353 1747 
Q 353 2603 823 3093 
Q 1294 3584 2113 3584 
Q 2378 3584 2631 3529 
Q 2884 3475 3122 3366 
z
" transform="scale(0.015625)"/>
       <path id="DejaVuSans-74" d="M 1172 4494 
L 1172 3500 
L 2356 3500 
L 2356 3053 
L 1172 3053 
L 1172 1153 
Q 1172 725 1289 603 
Q 1406 481 1766 481 
L 2356 481 
L 2356 0 
L 1766 0 
Q 1100 0 847 248 
Q 594 497 594 1153 
L 594 3053 
L 172 3053 
L 172 3500 
L 594 3500 
L 594 4494 
L 1172 4494 
z
" transform="scale(0.015625)"/>
       <path id="DejaVuSans-79" d="M 2059 -325 
Q 1816 -950 1584 -1140 
Q 1353 -1331 966 -1331 
L 506 -1331 
L 506 -850 
L 844 -850 
Q 1081 -850 1212 -737 
Q 1344 -625 1503 -206 
L 1606 56 
L 191 3500 
L 800 3500 
L 1894 763 
L 2988 3500 
L 3597 3500 
L 2059 -325 
z
" transform="scale(0.015625)"/>
       <path id="DejaVuSans-28" d="M 1984 4856 
Q 1566 4138 1362 3434 
Q 1159 2731 1159 2009 
Q 1159 1288 1364 580 
Q 1569 -128 1984 -844 
L 1484 -844 
Q 1016 -109 783 600 
Q 550 1309 550 2009 
Q 550 2706 781 3412 
Q 1013 4119 1484 4856 
L 1984 4856 
z
" transform="scale(0.015625)"/>
       <path id="DejaVuSans-4d" d="M 628 4666 
L 1569 4666 
L 2759 1491 
L 3956 4666 
L 4897 4666 
L 4897 0 
L 4281 0 
L 4281 4097 
L 3078 897 
L 2444 897 
L 1241 4097 
L 1241 0 
L 628 0 
L 628 4666 
z
" transform="scale(0.015625)"/>
       <path id="DejaVuSans-57" d="M 213 4666 
L 850 4666 
L 1831 722 
L 2809 4666 
L 3519 4666 
L 4500 722 
L 5478 4666 
L 6119 4666 
L 4947 0 
L 4153 0 
L 3169 4050 
L 2175 0 
L 1381 0 
L 213 4666 
z
" transform="scale(0.015625)"/>
       <path id="DejaVuSans-29" d="M 513 4856 
L 1013 4856 
Q 1481 4119 1714 3412 
Q 1947 2706 1947 2009 
Q 1947 1309 1714 600 
Q 1481 -109 1013 -844 
L 513 -844 
Q 928 -128 1133 580 
Q 1338 1288 1338 2009 
Q 1338 2731 1133 3434 
Q 928 4138 513 4856 
z
" transform="scale(0.015625)"/>
      </defs>
      <use xlink:href="#DejaVuSans-54"/>
      <use xlink:href="#DejaVuSans-69" transform="translate(57.958984 0)"/>
      <use xlink:href="#DejaVuSans-65" transform="translate(85.742188 0)"/>
      <use xlink:href="#DejaVuSans-72" transform="translate(147.265625 0)"/>
      <use xlink:href="#DejaVuSans-20" transform="translate(188.378906 0)"/>
      <use xlink:href="#DejaVuSans-41" transform="translate(220.166016 0)"/>
      <use xlink:href="#DejaVuSans-20" transform="translate(288.574219 0)"/>
      <use xlink:href="#DejaVuSans-43" transform="translate(320.361328 0)"/>
      <use xlink:href="#DejaVuSans-61" transform="translate(390.185547 0)"/>
      <use xlink:href="#DejaVuSans-70" transform="translate(451.464844 0)"/>
      <use xlink:href="#DejaVuSans-61" transform="translate(514.941406 0)"/>
      <use xlink:href="#DejaVuSans-63" transform="translate(576.220703 0)"/>
      <use xlink:href="#DejaVuSans-69" transform="translate(631.201172 0)"/>
      <use xlink:href="#DejaVuSans-74" transform="translate(658.984375 0)"/>
      <use xlink:href="#DejaVuSans-79" transform="translate(698.193359 0)"/>
      <use xlink:href="#DejaVuSans-20" transform="translate(757.373047 0)"/>
      <use xlink:href="#DejaVuSans-28" transform="translate(789.160156 0)"/>
      <use xlink:href="#DejaVuSans-4d" transform="translate(828.173828 0)"/>
      <use xlink:href="#DejaVuSans-57" transform="translate(914.453125 0)"/>
      <use xlink:href="#DejaVuSans-29" transform="translate(1013.330078 0)"/>
     </g>
    </g>
   </g>
   <g id="matplotlib.axis_2">
    <g id="ytick_1">
     <g id="line2d_11">
      <path d="M 52.925 359.165879 
L 570.6 359.165879 
" clip-path="url(#pbaf51e2f1d)" style="fill: none; stroke-dasharray: 2.96,1.28; stroke-dashoffset: 0; stroke: #b0b0b0; stroke-opacity: 0.7; stroke-width: 0.8"/>
     </g>
     <g id="line2d_12">
      <defs>
       <path id="m1bb6860866" d="M 0 0 
L -3.5 0 
" style="stroke: #000000; stroke-width: 0.8"/>
      </defs>
      <g>
       <use xlink:href="#m1bb6860866" x="52.925" y="359.165879" style="stroke: #000000; stroke-width: 0.8"/>
      </g>
     </g>
     <g id="text_7">
      <!-- 20 -->
      <g transform="translate(33.2 362.965098) scale(0.1 -0.1)">
       <use xlink:href="#DejaVuSans-32"/>
       <use xlink:href="#DejaVuSans-30" transform="translate(63.623047 0)"/>
      </g>
     </g>
    </g>
    <g id="ytick_2">
     <g id="line2d_13">
      <path d="M 52.925 286.343728 
L 570.6 286.343728 
" clip-path="url(#pbaf51e2f1d)" style="fill: none; stroke-dasharray: 2.96,1.28; stroke-dashoffset: 0; stroke: #b0b0b0; stroke-opacity: 0.7; stroke-width: 0.8"/>
     </g>
     <g id="line2d_14">
      <g>
       <use xlink:href="#m1bb6860866" x="52.925" y="286.343728" style="stroke: #000000; stroke-width: 0.8"/>
      </g>
     </g>
     <g id="text_8">
      <!-- 40 -->
      <g transform="translate(33.2 290.142946) scale(0.1 -0.1)">
       <use xlink:href="#DejaVuSans-34"/>
       <use xlink:href="#DejaVuSans-30" transform="translate(63.623047 0)"/>
      </g>
     </g>
    </g>
    <g id="ytick_3">
     <g id="line2d_15">
      <path d="M 52.925 213.521576 
L 570.6 213.521576 
" clip-path="url(#pbaf51e2f1d)" style="fill: none; stroke-dasharray: 2.96,1.28; stroke-dashoffset: 0; stroke: #b0b0b0; stroke-opacity: 0.7; stroke-width: 0.8"/>
     </g>
     <g id="line2d_16">
      <g>
       <use xlink:href="#m1bb6860866" x="52.925" y="213.521576" style="stroke: #000000; stroke-width: 0.8"/>
      </g>
     </g>
     <g id="text_9">
      <!-- 60 -->
      <g transform="translate(33.2 217.320795) scale(0.1 -0.1)">
       <use xlink:href="#DejaVuSans-36"/>
       <use xlink:href="#DejaVuSans-30" transform="translate(63.623047 0)"/>
      </g>
     </g>
    </g>
    <g id="ytick_4">
     <g id="line2d_17">
      <path d="M 52.925 140.699424 
L 570.6 140.699424 
" clip-path="url(#pbaf51e2f1d)" style="fill: none; stroke-dasharray: 2.96,1.28; stroke-dashoffset: 0; stroke: #b0b0b0; stroke-opacity: 0.7; stroke-width: 0.8"/>
     </g>
     <g id="line2d_18">
      <g>
       <use xlink:href="#m1bb6860866" x="52.925" y="140.699424" style="stroke: #000000; stroke-width: 0.8"/>
      </g>
     </g>
     <g id="text_10">
      <!-- 80 -->
      <g transform="translate(33.2 144.498643) scale(0.1 -0.1)">
       <use xlink:href="#DejaVuSans-38"/>
       <use xlink:href="#DejaVuSans-30" transform="translate(63.623047 0)"/>
      </g>
     </g>
    </g>
    <g id="ytick_5">
     <g id="line2d_19">
      <path d="M 52.925 67.877273 
L 570.6 67.877273 
" clip-path="url(#pbaf51e2f1d)" style="fill: none; stroke-dasharray: 2.96,1.28; stroke-dashoffset: 0; stroke: #b0b0b0; stroke-opacity: 0.7; stroke-width: 0.8"/>
     </g>
     <g id="line2d_20">
      <g>
       <use xlink:href="#m1bb6860866" x="52.925" y="67.877273" style="stroke: #000000; stroke-width: 0.8"/>
      </g>
     </g>
     <g id="text_11">
      <!-- 100 -->
      <g transform="translate(26.8375 71.676491) scale(0.1 -0.1)">
       <use xlink:href="#DejaVuSans-31"/>
       <use xlink:href="#DejaVuSans-30" transform="translate(63.623047 0)"/>
       <use xlink:href="#DejaVuSans-30" transform="translate(127.246094 0)"/>
      </g>
     </g>
    </g>
    <g id="text_12">
     <!-- Time Reliability (% of full-load hours) -->
     <g transform="translate(20.341875 331.45125) rotate(-90) scale(0.12 -0.12)">
      <defs>
       <path id="DejaVuSans-6d" d="M 3328 2828 
Q 3544 3216 3844 3400 
Q 4144 3584 4550 3584 
Q 5097 3584 5394 3201 
Q 5691 2819 5691 2113 
L 5691 0 
L 5113 0 
L 5113 2094 
Q 5113 2597 4934 2840 
Q 4756 3084 4391 3084 
Q 3944 3084 3684 2787 
Q 3425 2491 3425 1978 
L 3425 0 
L 2847 0 
L 2847 2094 
Q 2847 2600 2669 2842 
Q 2491 3084 2119 3084 
Q 1678 3084 1418 2786 
Q 1159 2488 1159 1978 
L 1159 0 
L 581 0 
L 581 3500 
L 1159 3500 
L 1159 2956 
Q 1356 3278 1631 3431 
Q 1906 3584 2284 3584 
Q 2666 3584 2933 3390 
Q 3200 3197 3328 2828 
z
" transform="scale(0.015625)"/>
       <path id="DejaVuSans-52" d="M 2841 2188 
Q 3044 2119 3236 1894 
Q 3428 1669 3622 1275 
L 4263 0 
L 3584 0 
L 2988 1197 
Q 2756 1666 2539 1819 
Q 2322 1972 1947 1972 
L 1259 1972 
L 1259 0 
L 628 0 
L 628 4666 
L 2053 4666 
Q 2853 4666 3247 4331 
Q 3641 3997 3641 3322 
Q 3641 2881 3436 2590 
Q 3231 2300 2841 2188 
z
M 1259 4147 
L 1259 2491 
L 2053 2491 
Q 2509 2491 2742 2702 
Q 2975 2913 2975 3322 
Q 2975 3731 2742 3939 
Q 2509 4147 2053 4147 
L 1259 4147 
z
" transform="scale(0.015625)"/>
       <path id="DejaVuSans-6c" d="M 603 4863 
L 1178 4863 
L 1178 0 
L 603 0 
L 603 4863 
z
" transform="scale(0.015625)"/>
       <path id="DejaVuSans-62" d="M 3116 1747 
Q 3116 2381 2855 2742 
Q 2594 3103 2138 3103 
Q 1681 3103 1420 2742 
Q 1159 2381 1159 1747 
Q 1159 1113 1420 752 
Q 1681 391 2138 391 
Q 2594 391 2855 752 
Q 3116 1113 3116 1747 
z
M 1159 2969 
Q 1341 3281 1617 3432 
Q 1894 3584 2278 3584 
Q 2916 3584 3314 3078 
Q 3713 2572 3713 1747 
Q 3713 922 3314 415 
Q 2916 -91 2278 -91 
Q 1894 -91 1617 61 
Q 1341 213 1159 525 
L 1159 0 
L 581 0 
L 581 4863 
L 1159 4863 
L 1159 2969 
z
" transform="scale(0.015625)"/>
       <path id="DejaVuSans-25" d="M 4653 2053 
Q 4381 2053 4226 1822 
Q 4072 1591 4072 1178 
Q 4072 772 4226 539 
Q 4381 306 4653 306 
Q 4919 306 5073 539 
Q 5228 772 5228 1178 
Q 5228 1588 5073 1820 
Q 4919 2053 4653 2053 
z
M 4653 2450 
Q 5147 2450 5437 2106 
Q 5728 1763 5728 1178 
Q 5728 594 5436 251 
Q 5144 -91 4653 -91 
Q 4153 -91 3862 251 
Q 3572 594 3572 1178 
Q 3572 1766 3864 2108 
Q 4156 2450 4653 2450 
z
M 1428 4353 
Q 1159 4353 1004 4120 
Q 850 3888 850 3481 
Q 850 3069 1003 2837 
Q 1156 2606 1428 2606 
Q 1700 2606 1854 2837 
Q 2009 3069 2009 3481 
Q 2009 3884 1853 4118 
Q 1697 4353 1428 4353 
z
M 4250 4750 
L 4750 4750 
L 1831 -91 
L 1331 -91 
L 4250 4750 
z
M 1428 4750 
Q 1922 4750 2215 4408 
Q 2509 4066 2509 3481 
Q 2509 2891 2217 2550 
Q 1925 2209 1428 2209 
Q 931 2209 642 2551 
Q 353 2894 353 3481 
Q 353 4063 643 4406 
Q 934 4750 1428 4750 
z
" transform="scale(0.015625)"/>
       <path id="DejaVuSans-6f" d="M 1959 3097 
Q 1497 3097 1228 2736 
Q 959 2375 959 1747 
Q 959 1119 1226 758 
Q 1494 397 1959 397 
Q 2419 397 2687 759 
Q 2956 1122 2956 1747 
Q 2956 2369 2687 2733 
Q 2419 3097 1959 3097 
z
M 1959 3584 
Q 2709 3584 3137 3096 
Q 3566 2609 3566 1747 
Q 3566 888 3137 398 
Q 2709 -91 1959 -91 
Q 1206 -91 779 398 
Q 353 888 353 1747 
Q 353 2609 779 3096 
Q 1206 3584 1959 3584 
z
" transform="scale(0.015625)"/>
       <path id="DejaVuSans-66" d="M 2375 4863 
L 2375 4384 
L 1825 4384 
Q 1516 4384 1395 4259 
Q 1275 4134 1275 3809 
L 1275 3500 
L 2222 3500 
L 2222 3053 
L 1275 3053 
L 1275 0 
L 697 0 
L 697 3053 
L 147 3053 
L 147 3500 
L 697 3500 
L 697 3744 
Q 697 4328 969 4595 
Q 1241 4863 1831 4863 
L 2375 4863 
z
" transform="scale(0.015625)"/>
       <path id="DejaVuSans-75" d="M 544 1381 
L 544 3500 
L 1119 3500 
L 1119 1403 
Q 1119 906 1312 657 
Q 1506 409 1894 409 
Q 2359 409 2629 706 
Q 2900 1003 2900 1516 
L 2900 3500 
L 3475 3500 
L 3475 0 
L 2900 0 
L 2900 538 
Q 2691 219 2414 64 
Q 2138 -91 1772 -91 
Q 1169 -91 856 284 
Q 544 659 544 1381 
z
M 1991 3584 
L 1991 3584 
z
" transform="scale(0.015625)"/>
       <path id="DejaVuSans-2d" d="M 313 2009 
L 1997 2009 
L 1997 1497 
L 313 1497 
L 313 2009 
z
" transform="scale(0.015625)"/>
       <path id="DejaVuSans-64" d="M 2906 2969 
L 2906 4863 
L 3481 4863 
L 3481 0 
L 2906 0 
L 2906 525 
Q 2725 213 2448 61 
Q 2172 -91 1784 -91 
Q 1150 -91 751 415 
Q 353 922 353 1747 
Q 353 2572 751 3078 
Q 1150 3584 1784 3584 
Q 2172 3584 2448 3432 
Q 2725 3281 2906 2969 
z
M 947 1747 
Q 947 1113 1208 752 
Q 1469 391 1925 391 
Q 2381 391 2643 752 
Q 2906 1113 2906 1747 
Q 2906 2381 2643 2742 
Q 2381 3103 1925 3103 
Q 1469 3103 1208 2742 
Q 947 2381 947 1747 
z
" transform="scale(0.015625)"/>
       <path id="DejaVuSans-68" d="M 3513 2113 
L 3513 0 
L 2938 0 
L 2938 2094 
Q 2938 2591 2744 2837 
Q 2550 3084 2163 3084 
Q 1697 3084 1428 2787 
Q 1159 2491 1159 1978 
L 1159 0 
L 581 0 
L 581 4863 
L 1159 4863 
L 1159 2956 
Q 1366 3272 1645 3428 
Q 1925 3584 2291 3584 
Q 2894 3584 3203 3211 
Q 3513 2838 3513 2113 
z
" transform="scale(0.015625)"/>
       <path id="DejaVuSans-73" d="M 2834 3397 
L 2834 2853 
Q 2591 2978 2328 3040 
Q 2066 3103 1784 3103 
Q 1356 3103 1142 2972 
Q 928 2841 928 2578 
Q 928 2378 1081 2264 
Q 1234 2150 1697 2047 
L 1894 2003 
Q 2506 1872 2764 1633 
Q 3022 1394 3022 966 
Q 3022 478 2636 193 
Q 2250 -91 1575 -91 
Q 1294 -91 989 -36 
Q 684 19 347 128 
L 347 722 
Q 666 556 975 473 
Q 1284 391 1588 391 
Q 1994 391 2212 530 
Q 2431 669 2431 922 
Q 2431 1156 2273 1281 
Q 2116 1406 1581 1522 
L 1381 1569 
Q 847 1681 609 1914 
Q 372 2147 372 2553 
Q 372 3047 722 3315 
Q 1072 3584 1716 3584 
Q 2034 3584 2315 3537 
Q 2597 3491 2834 3397 
z
" transform="scale(0.015625)"/>
      </defs>
      <use xlink:href="#DejaVuSans-54"/>
      <use xlink:href="#DejaVuSans-69" transform="translate(57.958984 0)"/>
      <use xlink:href="#DejaVuSans-6d" transform="translate(85.742188 0)"/>
      <use xlink:href="#DejaVuSans-65" transform="translate(183.154297 0)"/>
      <use xlink:href="#DejaVuSans-20" transform="translate(244.677734 0)"/>
      <use xlink:href="#DejaVuSans-52" transform="translate(276.464844 0)"/>
      <use xlink:href="#DejaVuSans-65" transform="translate(341.447266 0)"/>
      <use xlink:href="#DejaVuSans-6c" transform="translate(402.970703 0)"/>
      <use xlink:href="#DejaVuSans-69" transform="translate(430.753906 0)"/>
      <use xlink:href="#DejaVuSans-61" transform="translate(458.537109 0)"/>
      <use xlink:href="#DejaVuSans-62" transform="translate(519.816406 0)"/>
      <use xlink:href="#DejaVuSans-69" transform="translate(583.292969 0)"/>
      <use xlink:href="#DejaVuSans-6c" transform="translate(611.076172 0)"/>
      <use xlink:href="#DejaVuSans-69" transform="translate(638.859375 0)"/>
      <use xlink:href="#DejaVuSans-74" transform="translate(666.642578 0)"/>
      <use xlink:href="#DejaVuSans-79" transform="translate(705.851562 0)"/>
      <use xlink:href="#DejaVuSans-20" transform="translate(765.03125 0)"/>
      <use xlink:href="#DejaVuSans-28" transform="translate(796.818359 0)"/>
      <use xlink:href="#DejaVuSans-25" transform="translate(835.832031 0)"/>
      <use xlink:href="#DejaVuSans-20" transform="translate(930.851562 0)"/>
      <use xlink:href="#DejaVuSans-6f" transform="translate(962.638672 0)"/>
      <use xlink:href="#DejaVuSans-66" transform="translate(1023.820312 0)"/>
      <use xlink:href="#DejaVuSans-20" transform="translate(1059.025391 0)"/>
      <use xlink:href="#DejaVuSans-66" transform="translate(1090.8125 0)"/>
      <use xlink:href="#DejaVuSans-75" transform="translate(1126.017578 0)"/>
      <use xlink:href="#DejaVuSans-6c" transform="translate(1189.396484 0)"/>
      <use xlink:href="#DejaVuSans-6c" transform="translate(1217.179688 0)"/>
      <use xlink:href="#DejaVuSans-2d" transform="translate(1244.962891 0)"/>
      <use xlink:href="#DejaVuSans-6c" transform="translate(1281.046875 0)"/>
      <use xlink:href="#DejaVuSans-6f" transform="translate(1308.830078 0)"/>
      <use xlink:href="#DejaVuSans-61" transform="translate(1370.011719 0)"/>
      <use xlink:href="#DejaVuSans-64" transform="translate(1431.291016 0)"/>
      <use xlink:href="#DejaVuSans-20" transform="translate(1494.767578 0)"/>
      <use xlink:href="#DejaVuSans-68" transform="translate(1526.554688 0)"/>
      <use xlink:href="#DejaVuSans-6f" transform="translate(1589.933594 0)"/>
      <use xlink:href="#DejaVuSans-75" transform="translate(1651.115234 0)"/>
      <use xlink:href="#DejaVuSans-72" transform="translate(1714.494141 0)"/>
      <use xlink:href="#DejaVuSans-73" transform="translate(1755.607422 0)"/>
      <use xlink:href="#DejaVuSans-29" transform="translate(1807.707031 0)"/>
     </g>
    </g>
   </g>
   <g id="line2d_21">
    <path d="M 76.455682 67.877273 
L 101.224821 68.542315 
L 125.993959 76.148739 
L 150.763098 93.398278 
L 175.532237 128.978051 
L 200.301376 157.408617 
L 225.070514 181.890493 
L 249.839653 204.086286 
L 274.608792 220.878608 
L 299.377931 231.851809 
L 324.147069 247.314047 
L 348.916208 260.614897 
L 373.685347 275.453657 
L 398.454486 289.253288 
L 423.223624 301.016227 
L 447.992763 316.187509 
L 472.761902 334.060525 
L 497.531041 350.270936 
L 522.300179 361.285702 
L 547.069318 373.422727 
" clip-path="url(#pbaf51e2f1d)" style="fill: none; stroke-dasharray: 18.5,8; stroke-dashoffset: 0; stroke: #808080; stroke-width: 5"/>
    <defs>
     <path id="mbadf097a24" d="M 0 6 
C 1.591219 6 3.117479 5.367802 4.242641 4.242641 
C 5.367802 3.117479 6 1.591219 6 0 
C 6 -1.591219 5.367802 -3.117479 4.242641 -4.242641 
C 3.117479 -5.367802 1.591219 -6 0 -6 
C -1.591219 -6 -3.117479 -5.367802 -4.242641 -4.242641 
C -5.367802 -3.117479 -6 -1.591219 -6 0 
C -6 1.591219 -5.367802 3.117479 -4.242641 4.242641 
C -3.117479 5.367802 -1.591219 6 0 6 
z
" style="stroke: #808080"/>
    </defs>
    <g clip-path="url(#pbaf51e2f1d)">
     <use xlink:href="#mbadf097a24" x="76.455682" y="67.877273" style="fill: #808080; stroke: #808080"/>
     <use xlink:href="#mbadf097a24" x="101.224821" y="68.542315" style="fill: #808080; stroke: #808080"/>
     <use xlink:href="#mbadf097a24" x="125.993959" y="76.148739" style="fill: #808080; stroke: #808080"/>
     <use xlink:href="#mbadf097a24" x="150.763098" y="93.398278" style="fill: #808080; stroke: #808080"/>
     <use xlink:href="#mbadf097a24" x="175.532237" y="128.978051" style="fill: #808080; stroke: #808080"/>
     <use xlink:href="#mbadf097a24" x="200.301376" y="157.408617" style="fill: #808080; stroke: #808080"/>
     <use xlink:href="#mbadf097a24" x="225.070514" y="181.890493" style="fill: #808080; stroke: #808080"/>
     <use xlink:href="#mbadf097a24" x="249.839653" y="204.086286" style="fill: #808080; stroke: #808080"/>
     <use xlink:href="#mbadf097a24" x="274.608792" y="220.878608" style="fill: #808080; stroke: #808080"/>
     <use xlink:href="#mbadf097a24" x="299.377931" y="231.851809" style="fill: #808080; stroke: #808080"/>
     <use xlink:href="#mbadf097a24" x="324.147069" y="247.314047" style="fill: #808080; stroke: #808080"/>
     <use xlink:href="#mbadf097a24" x="348.916208" y="260.614897" style="fill: #808080; stroke: #808080"/>
     <use xlink:href="#mbadf097a24" x="373.685347" y="275.453657" style="fill: #808080; stroke: #808080"/>
     <use xlink:href="#mbadf097a24" x="398.454486" y="289.253288" style="fill: #808080; stroke: #808080"/>
     <use xlink:href="#mbadf097a24" x="423.223624" y="301.016227" style="fill: #808080; stroke: #808080"/>
     <use xlink:href="#mbadf097a24" x="447.992763" y="316.187509" style="fill: #808080; stroke: #808080"/>
     <use xlink:href="#mbadf097a24" x="472.761902" y="334.060525" style="fill: #808080; stroke: #808080"/>
     <use xlink:href="#mbadf097a24" x="497.531041" y="350.270936" style="fill: #808080; stroke: #808080"/>
     <use xlink:href="#mbadf097a24" x="522.300179" y="361.285702" style="fill: #808080; stroke: #808080"/>
     <use xlink:href="#mbadf097a24" x="547.069318" y="373.422727" style="fill: #808080; stroke: #808080"/>
    </g>
   </g>
   <g id="line2d_22">
    <path d="M 76.455682 67.877273 
L 101.224821 68.542315 
L 125.993959 76.273434 
L 150.763098 92.941061 
L 175.532237 128.188313 
L 200.301376 157.200791 
L 225.070514 181.22545 
L 249.839653 204.003155 
L 274.608792 221.29426 
L 299.377931 235.925194 
L 324.147069 251.428997 
L 348.916208 266.143062 
L 373.685347 279.693303 
L 398.454486 292.661631 
L 423.223624 304.42457 
L 447.992763 319.1802 
L 472.761902 337.094782 
L 497.531041 354.884668 
L 522.300179 365.275957 
L 547.069318 372.632989 
" clip-path="url(#pbaf51e2f1d)" style="fill: none; stroke: #1f77b4; stroke-width: 2; stroke-linecap: square"/>
    <defs>
     <path id="me6a3ef9c87" d="M -3 3 
L 3 3 
L 3 -3 
L -3 -3 
z
" style="stroke: #1f77b4; stroke-linejoin: miter"/>
    </defs>
    <g clip-path="url(#pbaf51e2f1d)">
     <use xlink:href="#me6a3ef9c87" x="76.455682" y="67.877273" style="fill: #1f77b4; stroke: #1f77b4; stroke-linejoin: miter"/>
     <use xlink:href="#me6a3ef9c87" x="101.224821" y="68.542315" style="fill: #1f77b4; stroke: #1f77b4; stroke-linejoin: miter"/>
     <use xlink:href="#me6a3ef9c87" x="125.993959" y="76.273434" style="fill: #1f77b4; stroke: #1f77b4; stroke-linejoin: miter"/>
     <use xlink:href="#me6a3ef9c87" x="150.763098" y="92.941061" style="fill: #1f77b4; stroke: #1f77b4; stroke-linejoin: miter"/>
     <use xlink:href="#me6a3ef9c87" x="175.532237" y="128.188313" style="fill: #1f77b4; stroke: #1f77b4; stroke-linejoin: miter"/>
     <use xlink:href="#me6a3ef9c87" x="200.301376" y="157.200791" style="fill: #1f77b4; stroke: #1f77b4; stroke-linejoin: miter"/>
     <use xlink:href="#me6a3ef9c87" x="225.070514" y="181.22545" style="fill: #1f77b4; stroke: #1f77b4; stroke-linejoin: miter"/>
     <use xlink:href="#me6a3ef9c87" x="249.839653" y="204.003155" style="fill: #1f77b4; stroke: #1f77b4; stroke-linejoin: miter"/>
     <use xlink:href="#me6a3ef9c87" x="274.608792" y="221.29426" style="fill: #1f77b4; stroke: #1f77b4; stroke-linejoin: miter"/>
     <use xlink:href="#me6a3ef9c87" x="299.377931" y="235.925194" style="fill: #1f77b4; stroke: #1f77b4; stroke-linejoin: miter"/>
     <use xlink:href="#me6a3ef9c87" x="324.147069" y="251.428997" style="fill: #1f77b4; stroke: #1f77b4; stroke-linejoin: miter"/>
     <use xlink:href="#me6a3ef9c87" x="348.916208" y="266.143062" style="fill: #1f77b4; stroke: #1f77b4; stroke-linejoin: miter"/>
     <use xlink:href="#me6a3ef9c87" x="373.685347" y="279.693303" style="fill: #1f77b4; stroke: #1f77b4; stroke-linejoin: miter"/>
     <use xlink:href="#me6a3ef9c87" x="398.454486" y="292.661631" style="fill: #1f77b4; stroke: #1f77b4; stroke-linejoin: miter"/>
     <use xlink:href="#me6a3ef9c87" x="423.223624" y="304.42457" style="fill: #1f77b4; stroke: #1f77b4; stroke-linejoin: miter"/>
     <use xlink:href="#me6a3ef9c87" x="447.992763" y="319.1802" style="fill: #1f77b4; stroke: #1f77b4; stroke-linejoin: miter"/>
     <use xlink:href="#me6a3ef9c87" x="472.761902" y="337.094782" style="fill: #1f77b4; stroke: #1f77b4; stroke-linejoin: miter"/>
     <use xlink:href="#me6a3ef9c87" x="497.531041" y="354.884668" style="fill: #1f77b4; stroke: #1f77b4; stroke-linejoin: miter"/>
     <use xlink:href="#me6a3ef9c87" x="522.300179" y="365.275957" style="fill: #1f77b4; stroke: #1f77b4; stroke-linejoin: miter"/>
     <use xlink:href="#me6a3ef9c87" x="547.069318" y="372.632989" style="fill: #1f77b4; stroke: #1f77b4; stroke-linejoin: miter"/>
    </g>
   </g>
   <g id="patch_3">
    <path d="M 52.925 388.7 
L 52.925 52.6 
" style="fill: none; stroke: #000000; stroke-width: 0.8; stroke-linejoin: miter; stroke-linecap: square"/>
   </g>
   <g id="patch_4">
    <path d="M 570.6 388.7 
L 570.6 52.6 
" style="fill: none; stroke: #000000; stroke-width: 0.8; stroke-linejoin: miter; stroke-linecap: square"/>
   </g>
   <g id="patch_5">
    <path d="M 52.925 388.7 
L 570.6 388.7 
" style="fill: none; stroke: #000000; stroke-width: 0.8; stroke-linejoin: miter; stroke-linecap: square"/>
   </g>
   <g id="patch_6">
    <path d="M 52.925 52.6 
L 570.6 52.6 
" style="fill: none; stroke: #000000; stroke-width: 0.8; stroke-linejoin: miter; stroke-linecap: square"/>
   </g>
   <g id="text_13">
    <!-- Time-Based Reliability -->
    <g transform="translate(245.493438 46.6) scale(0.12 -0.12)">
     <defs>
      <path id="DejaVuSans-42" d="M 1259 2228 
L 1259 519 
L 2272 519 
Q 2781 519 3026 730 
Q 3272 941 3272 1375 
Q 3272 1813 3026 2020 
Q 2781 2228 2272 2228 
L 1259 2228 
z
M 1259 4147 
L 1259 2741 
L 2194 2741 
Q 2656 2741 2882 2914 
Q 3109 3088 3109 3444 
Q 3109 3797 2882 3972 
Q 2656 4147 2194 4147 
L 1259 4147 
z
M 628 4666 
L 2241 4666 
Q 2963 4666 3353 4366 
Q 3744 4066 3744 3513 
Q 3744 3084 3544 2831 
Q 3344 2578 2956 2516 
Q 3422 2416 3680 2098 
Q 3938 1781 3938 1306 
Q 3938 681 3513 340 
Q 3088 0 2303 0 
L 628 0 
L 628 4666 
z
" transform="scale(0.015625)"/>
     </defs>
     <use xlink:href="#DejaVuSans-54"/>
     <use xlink:href="#DejaVuSans-69" transform="translate(57.958984 0)"/>
     <use xlink:href="#DejaVuSans-6d" transform="translate(85.742188 0)"/>
     <use xlink:href="#DejaVuSans-65" transform="translate(183.154297 0)"/>
     <use xlink:href="#DejaVuSans-2d" transform="translate(244.677734 0)"/>
     <use xlink:href="#DejaVuSans-42" transform="translate(277.136719 0)"/>
     <use xlink:href="#DejaVuSans-61" transform="translate(345.740234 0)"/>
     <use xlink:href="#DejaVuSans-73" transform="translate(407.019531 0)"/>
     <use xlink:href="#DejaVuSans-65" transform="translate(459.119141 0)"/>
     <use xlink:href="#DejaVuSans-64" transform="translate(520.642578 0)"/>
     <use xlink:href="#DejaVuSans-20" transform="translate(584.119141 0)"/>
     <use xlink:href="#DejaVuSans-52" transform="translate(615.90625 0)"/>
     <use xlink:href="#DejaVuSans-65" transform="translate(680.888672 0)"/>
     <use xlink:href="#DejaVuSans-6c" transform="translate(742.412109 0)"/>
     <use xlink:href="#DejaVuSans-69" transform="translate(770.195312 0)"/>
     <use xlink:href="#DejaVuSans-61" transform="translate(797.978516 0)"/>
     <use xlink:href="#DejaVuSans-62" transform="translate(859.257812 0)"/>
     <use xlink:href="#DejaVuSans-69" transform="translate(922.734375 0)"/>
     <use xlink:href="#DejaVuSans-6c" transform="translate(950.517578 0)"/>
     <use xlink:href="#DejaVuSans-69" transform="translate(978.300781 0)"/>
     <use xlink:href="#DejaVuSans-74" transform="translate(1006.083984 0)"/>
     <use xlink:href="#DejaVuSans-79" transform="translate(1045.292969 0)"/>
    </g>
   </g>
   <g id="legend_1">
    <g id="patch_7">
     <path d="M 412.425 89.95625 
L 563.6 89.95625 
Q 565.6 89.95625 565.6 87.95625 
L 565.6 59.6 
Q 565.6 57.6 563.6 57.6 
L 412.425 57.6 
Q 410.425 57.6 410.425 59.6 
L 410.425 87.95625 
Q 410.425 89.95625 412.425 89.95625 
z
" style="fill: #ffffff; opacity: 0.8; stroke: #cccccc; stroke-linejoin: miter"/>
    </g>
    <g id="line2d_23">
     <path d="M 414.425 65.698438 
L 424.425 65.698438 
L 434.425 65.698438 
" style="fill: none; stroke-dasharray: 18.5,8; stroke-dashoffset: 0; stroke: #808080; stroke-width: 5"/>
     <g>
      <use xlink:href="#mbadf097a24" x="424.425" y="65.698438" style="fill: #808080; stroke: #808080"/>
     </g>
    </g>
    <g id="text_14">
     <!-- Perfect Foresight -->
     <g transform="translate(442.425 69.198438) scale(0.1 -0.1)">
      <defs>
       <path id="DejaVuSans-50" d="M 1259 4147 
L 1259 2394 
L 2053 2394 
Q 2494 2394 2734 2622 
Q 2975 2850 2975 3272 
Q 2975 3691 2734 3919 
Q 2494 4147 2053 4147 
L 1259 4147 
z
M 628 4666 
L 2053 4666 
Q 2838 4666 3239 4311 
Q 3641 3956 3641 3272 
Q 3641 2581 3239 2228 
Q 2838 1875 2053 1875 
L 1259 1875 
L 1259 0 
L 628 0 
L 628 4666 
z
" transform="scale(0.015625)"/>
       <path id="DejaVuSans-46" d="M 628 4666 
L 3309 4666 
L 3309 4134 
L 1259 4134 
L 1259 2759 
L 3109 2759 
L 3109 2228 
L 1259 2228 
L 1259 0 
L 628 0 
L 628 4666 
z
" transform="scale(0.015625)"/>
       <path id="DejaVuSans-67" d="M 2906 1791 
Q 2906 2416 2648 2759 
Q 2391 3103 1925 3103 
Q 1463 3103 1205 2759 
Q 947 2416 947 1791 
Q 947 1169 1205 825 
Q 1463 481 1925 481 
Q 2391 481 2648 825 
Q 2906 1169 2906 1791 
z
M 3481 434 
Q 3481 -459 3084 -895 
Q 2688 -1331 1869 -1331 
Q 1566 -1331 1297 -1286 
Q 1028 -1241 775 -1147 
L 775 -588 
Q 1028 -725 1275 -790 
Q 1522 -856 1778 -856 
Q 2344 -856 2625 -561 
Q 2906 -266 2906 331 
L 2906 616 
Q 2728 306 2450 153 
Q 2172 0 1784 0 
Q 1141 0 747 490 
Q 353 981 353 1791 
Q 353 2603 747 3093 
Q 1141 3584 1784 3584 
Q 2172 3584 2450 3431 
Q 2728 3278 2906 2969 
L 2906 3500 
L 3481 3500 
L 3481 434 
z
" transform="scale(0.015625)"/>
      </defs>
      <use xlink:href="#DejaVuSans-50"/>
      <use xlink:href="#DejaVuSans-65" transform="translate(56.677734 0)"/>
      <use xlink:href="#DejaVuSans-72" transform="translate(118.201172 0)"/>
      <use xlink:href="#DejaVuSans-66" transform="translate(159.314453 0)"/>
      <use xlink:href="#DejaVuSans-65" transform="translate(194.519531 0)"/>
      <use xlink:href="#DejaVuSans-63" transform="translate(256.042969 0)"/>
      <use xlink:href="#DejaVuSans-74" transform="translate(311.023438 0)"/>
      <use xlink:href="#DejaVuSans-20" transform="translate(350.232422 0)"/>
      <use xlink:href="#DejaVuSans-46" transform="translate(382.019531 0)"/>
      <use xlink:href="#DejaVuSans-6f" transform="translate(435.914062 0)"/>
      <use xlink:href="#DejaVuSans-72" transform="translate(497.095703 0)"/>
      <use xlink:href="#DejaVuSans-65" transform="translate(535.958984 0)"/>
      <use xlink:href="#DejaVuSans-73" transform="translate(597.482422 0)"/>
      <use xlink:href="#DejaVuSans-69" transform="translate(649.582031 0)"/>
      <use xlink:href="#DejaVuSans-67" transform="translate(677.365234 0)"/>
      <use xlink:href="#DejaVuSans-68" transform="translate(740.841797 0)"/>
      <use xlink:href="#DejaVuSans-74" transform="translate(804.220703 0)"/>
     </g>
    </g>
    <g id="line2d_24">
     <path d="M 414.425 80.376563 
L 424.425 80.376563 
L 434.425 80.376563 
" style="fill: none; stroke: #1f77b4; stroke-width: 2; stroke-linecap: square"/>
     <g>
      <use xlink:href="#me6a3ef9c87" x="424.425" y="80.376563" style="fill: #1f77b4; stroke: #1f77b4; stroke-linejoin: miter"/>
     </g>
    </g>
    <g id="text_15">
     <!-- Rolling Horizon (7 days) -->
     <g transform="translate(442.425 83.876563) scale(0.1 -0.1)">
      <defs>
       <path id="DejaVuSans-6e" d="M 3513 2113 
L 3513 0 
L 2938 0 
L 2938 2094 
Q 2938 2591 2744 2837 
Q 2550 3084 2163 3084 
Q 1697 3084 1428 2787 
Q 1159 2491 1159 1978 
L 1159 0 
L 581 0 
L 581 3500 
L 1159 3500 
L 1159 2956 
Q 1366 3272 1645 3428 
Q 1925 3584 2291 3584 
Q 2894 3584 3203 3211 
Q 3513 2838 3513 2113 
z
" transform="scale(0.015625)"/>
       <path id="DejaVuSans-48" d="M 628 4666 
L 1259 4666 
L 1259 2753 
L 3553 2753 
L 3553 4666 
L 4184 4666 
L 4184 0 
L 3553 0 
L 3553 2222 
L 1259 2222 
L 1259 0 
L 628 0 
L 628 4666 
z
" transform="scale(0.015625)"/>
       <path id="DejaVuSans-7a" d="M 353 3500 
L 3084 3500 
L 3084 2975 
L 922 459 
L 3084 459 
L 3084 0 
L 275 0 
L 275 525 
L 2438 3041 
L 353 3041 
L 353 3500 
z
" transform="scale(0.015625)"/>
       <path id="DejaVuSans-37" d="M 525 4666 
L 3525 4666 
L 3525 4397 
L 1831 0 
L 1172 0 
L 2766 4134 
L 525 4134 
L 525 4666 
z
" transform="scale(0.015625)"/>
      </defs>
      <use xlink:href="#DejaVuSans-52"/>
      <use xlink:href="#DejaVuSans-6f" transform="translate(64.982422 0)"/>
      <use xlink:href="#DejaVuSans-6c" transform="translate(126.164062 0)"/>
      <use xlink:href="#DejaVuSans-6c" transform="translate(153.947266 0)"/>
      <use xlink:href="#DejaVuSans-69" transform="translate(181.730469 0)"/>
      <use xlink:href="#DejaVuSans-6e" transform="translate(209.513672 0)"/>
      <use xlink:href="#DejaVuSans-67" transform="translate(272.892578 0)"/>
      <use xlink:href="#DejaVuSans-20" transform="translate(336.369141 0)"/>
      <use xlink:href="#DejaVuSans-48" transform="translate(368.15625 0)"/>
      <use xlink:href="#DejaVuSans-6f" transform="translate(443.351562 0)"/>
      <use xlink:href="#DejaVuSans-72" transform="translate(504.533203 0)"/>
      <use xlink:href="#DejaVuSans-69" transform="translate(545.646484 0)"/>
      <use xlink:href="#DejaVuSans-7a" transform="translate(573.429688 0)"/>
      <use xlink:href="#DejaVuSans-6f" transform="translate(625.919922 0)"/>
      <use xlink:href="#DejaVuSans-6e" transform="translate(687.101562 0)"/>
      <use xlink:href="#DejaVuSans-20" transform="translate(750.480469 0)"/>
      <use xlink:href="#DejaVuSans-28" transform="translate(782.267578 0)"/>
      <use xlink:href="#DejaVuSans-37" transform="translate(821.28125 0)"/>
      <use xlink:href="#DejaVuSans-20" transform="translate(884.904297 0)"/>
      <use xlink:href="#DejaVuSans-64" transform="translate(916.691406 0)"/>
      <use xlink:href="#DejaVuSans-61" transform="translate(980.167969 0)"/>
      <use xlink:href="#DejaVuSans-79" transform="translate(1041.447266 0)"/>
      <use xlink:href="#DejaVuSans-73" transform="translate(1100.626953 0)"/>
      <use xlink:href="#DejaVuSans-29" transform="translate(1152.726562 0)"/>
     </g>
    </g>
   </g>
  </g>
  <g id="axes_2">
   <g id="patch_8">
    <path d="M 623.525 388.7 
L 1141.2 388.7 
L 1141.2 52.6 
L 623.525 52.6 
z
" style="fill: #ffffff"/>
   </g>
   <g id="matplotlib.axis_3">
    <g id="xtick_6">
     <g id="line2d_25">
      <path d="M 721.363098 388.7 
L 721.363098 52.6 
" clip-path="url(#pd63cc441e0)" style="fill: none; stroke-dasharray: 2.96,1.28; stroke-dashoffset: 0; stroke: #b0b0b0; stroke-opacity: 0.7; stroke-width: 0.8"/>
     </g>
     <g id="line2d_26">
      <g>
       <use xlink:href="#m9e269a5261" x="721.363098" y="388.7" style="stroke: #000000; stroke-width: 0.8"/>
      </g>
     </g>
     <g id="text_16">
      <!-- 20 -->
      <g transform="translate(715.000598 403.298437) scale(0.1 -0.1)">
       <use xlink:href="#DejaVuSans-32"/>
       <use xlink:href="#DejaVuSans-30" transform="translate(63.623047 0)"/>
      </g>
     </g>
    </g>
    <g id="xtick_7">
     <g id="line2d_27">
      <path d="M 820.439653 388.7 
L 820.439653 52.6 
" clip-path="url(#pd63cc441e0)" style="fill: none; stroke-dasharray: 2.96,1.28; stroke-dashoffset: 0; stroke: #b0b0b0; stroke-opacity: 0.7; stroke-width: 0.8"/>
     </g>
     <g id="line2d_28">
      <g>
       <use xlink:href="#m9e269a5261" x="820.439653" y="388.7" style="stroke: #000000; stroke-width: 0.8"/>
      </g>
     </g>
     <g id="text_17">
      <!-- 40 -->
      <g transform="translate(814.077153 403.298437) scale(0.1 -0.1)">
       <use xlink:href="#DejaVuSans-34"/>
       <use xlink:href="#DejaVuSans-30" transform="translate(63.623047 0)"/>
      </g>
     </g>
    </g>
    <g id="xtick_8">
     <g id="line2d_29">
      <path d="M 919.516208 388.7 
L 919.516208 52.6 
" clip-path="url(#pd63cc441e0)" style="fill: none; stroke-dasharray: 2.96,1.28; stroke-dashoffset: 0; stroke: #b0b0b0; stroke-opacity: 0.7; stroke-width: 0.8"/>
     </g>
     <g id="line2d_30">
      <g>
       <use xlink:href="#m9e269a5261" x="919.516208" y="388.7" style="stroke: #000000; stroke-width: 0.8"/>
      </g>
     </g>
     <g id="text_18">
      <!-- 60 -->
      <g transform="translate(913.153708 403.298437) scale(0.1 -0.1)">
       <use xlink:href="#DejaVuSans-36"/>
       <use xlink:href="#DejaVuSans-30" transform="translate(63.623047 0)"/>
      </g>
     </g>
    </g>
    <g id="xtick_9">
     <g id="line2d_31">
      <path d="M 1018.592763 388.7 
L 1018.592763 52.6 
" clip-path="url(#pd63cc441e0)" style="fill: none; stroke-dasharray: 2.96,1.28; stroke-dashoffset: 0; stroke: #b0b0b0; stroke-opacity: 0.7; stroke-width: 0.8"/>
     </g>
     <g id="line2d_32">
      <g>
       <use xlink:href="#m9e269a5261" x="1018.592763" y="388.7" style="stroke: #000000; stroke-width: 0.8"/>
      </g>
     </g>
     <g id="text_19">
      <!-- 80 -->
      <g transform="translate(1012.230263 403.298437) scale(0.1 -0.1)">
       <use xlink:href="#DejaVuSans-38"/>
       <use xlink:href="#DejaVuSans-30" transform="translate(63.623047 0)"/>
      </g>
     </g>
    </g>
    <g id="xtick_10">
     <g id="line2d_33">
      <path d="M 1117.669318 388.7 
L 1117.669318 52.6 
" clip-path="url(#pd63cc441e0)" style="fill: none; stroke-dasharray: 2.96,1.28; stroke-dashoffset: 0; stroke: #b0b0b0; stroke-opacity: 0.7; stroke-width: 0.8"/>
     </g>
     <g id="line2d_34">
      <g>
       <use xlink:href="#m9e269a5261" x="1117.669318" y="388.7" style="stroke: #000000; stroke-width: 0.8"/>
      </g>
     </g>
     <g id="text_20">
      <!-- 100 -->
      <g transform="translate(1108.125568 403.298437) scale(0.1 -0.1)">
       <use xlink:href="#DejaVuSans-31"/>
       <use xlink:href="#DejaVuSans-30" transform="translate(63.623047 0)"/>
       <use xlink:href="#DejaVuSans-30" transform="translate(127.246094 0)"/>
      </g>
     </g>
    </g>
    <g id="text_21">
     <!-- Tier A Capacity (MW) -->
     <g transform="translate(819.221875 418.49625) scale(0.12 -0.12)">
      <use xlink:href="#DejaVuSans-54"/>
      <use xlink:href="#DejaVuSans-69" transform="translate(57.958984 0)"/>
      <use xlink:href="#DejaVuSans-65" transform="translate(85.742188 0)"/>
      <use xlink:href="#DejaVuSans-72" transform="translate(147.265625 0)"/>
      <use xlink:href="#DejaVuSans-20" transform="translate(188.378906 0)"/>
      <use xlink:href="#DejaVuSans-41" transform="translate(220.166016 0)"/>
      <use xlink:href="#DejaVuSans-20" transform="translate(288.574219 0)"/>
      <use xlink:href="#DejaVuSans-43" transform="translate(320.361328 0)"/>
      <use xlink:href="#DejaVuSans-61" transform="translate(390.185547 0)"/>
      <use xlink:href="#DejaVuSans-70" transform="translate(451.464844 0)"/>
      <use xlink:href="#DejaVuSans-61" transform="translate(514.941406 0)"/>
      <use xlink:href="#DejaVuSans-63" transform="translate(576.220703 0)"/>
      <use xlink:href="#DejaVuSans-69" transform="translate(631.201172 0)"/>
      <use xlink:href="#DejaVuSans-74" transform="translate(658.984375 0)"/>
      <use xlink:href="#DejaVuSans-79" transform="translate(698.193359 0)"/>
      <use xlink:href="#DejaVuSans-20" transform="translate(757.373047 0)"/>
      <use xlink:href="#DejaVuSans-28" transform="translate(789.160156 0)"/>
      <use xlink:href="#DejaVuSans-4d" transform="translate(828.173828 0)"/>
      <use xlink:href="#DejaVuSans-57" transform="translate(914.453125 0)"/>
      <use xlink:href="#DejaVuSans-29" transform="translate(1013.330078 0)"/>
     </g>
    </g>
   </g>
   <g id="matplotlib.axis_4">
    <g id="ytick_6">
     <g id="line2d_35">
      <path d="M 623.525 326.788117 
L 1141.2 326.788117 
" clip-path="url(#pd63cc441e0)" style="fill: none; stroke-dasharray: 2.96,1.28; stroke-dashoffset: 0; stroke: #b0b0b0; stroke-opacity: 0.7; stroke-width: 0.8"/>
     </g>
     <g id="line2d_36">
      <g>
       <use xlink:href="#m1bb6860866" x="623.525" y="326.788117" style="stroke: #000000; stroke-width: 0.8"/>
      </g>
     </g>
     <g id="text_22">
      <!-- 60 -->
      <g transform="translate(603.8 330.587336) scale(0.1 -0.1)">
       <use xlink:href="#DejaVuSans-36"/>
       <use xlink:href="#DejaVuSans-30" transform="translate(63.623047 0)"/>
      </g>
     </g>
    </g>
    <g id="ytick_7">
     <g id="line2d_37">
      <path d="M 623.525 262.060406 
L 1141.2 262.060406 
" clip-path="url(#pd63cc441e0)" style="fill: none; stroke-dasharray: 2.96,1.28; stroke-dashoffset: 0; stroke: #b0b0b0; stroke-opacity: 0.7; stroke-width: 0.8"/>
     </g>
     <g id="line2d_38">
      <g>
       <use xlink:href="#m1bb6860866" x="623.525" y="262.060406" style="stroke: #000000; stroke-width: 0.8"/>
      </g>
     </g>
     <g id="text_23">
      <!-- 70 -->
      <g transform="translate(603.8 265.859625) scale(0.1 -0.1)">
       <use xlink:href="#DejaVuSans-37"/>
       <use xlink:href="#DejaVuSans-30" transform="translate(63.623047 0)"/>
      </g>
     </g>
    </g>
    <g id="ytick_8">
     <g id="line2d_39">
      <path d="M 623.525 197.332695 
L 1141.2 197.332695 
" clip-path="url(#pd63cc441e0)" style="fill: none; stroke-dasharray: 2.96,1.28; stroke-dashoffset: 0; stroke: #b0b0b0; stroke-opacity: 0.7; stroke-width: 0.8"/>
     </g>
     <g id="line2d_40">
      <g>
       <use xlink:href="#m1bb6860866" x="623.525" y="197.332695" style="stroke: #000000; stroke-width: 0.8"/>
      </g>
     </g>
     <g id="text_24">
      <!-- 80 -->
      <g transform="translate(603.8 201.131914) scale(0.1 -0.1)">
       <use xlink:href="#DejaVuSans-38"/>
       <use xlink:href="#DejaVuSans-30" transform="translate(63.623047 0)"/>
      </g>
     </g>
    </g>
    <g id="ytick_9">
     <g id="line2d_41">
      <path d="M 623.525 132.604984 
L 1141.2 132.604984 
" clip-path="url(#pd63cc441e0)" style="fill: none; stroke-dasharray: 2.96,1.28; stroke-dashoffset: 0; stroke: #b0b0b0; stroke-opacity: 0.7; stroke-width: 0.8"/>
     </g>
     <g id="line2d_42">
      <g>
       <use xlink:href="#m1bb6860866" x="623.525" y="132.604984" style="stroke: #000000; stroke-width: 0.8"/>
      </g>
     </g>
     <g id="text_25">
      <!-- 90 -->
      <g transform="translate(603.8 136.404203) scale(0.1 -0.1)">
       <defs>
        <path id="DejaVuSans-39" d="M 703 97 
L 703 672 
Q 941 559 1184 500 
Q 1428 441 1663 441 
Q 2288 441 2617 861 
Q 2947 1281 2994 2138 
Q 2813 1869 2534 1725 
Q 2256 1581 1919 1581 
Q 1219 1581 811 2004 
Q 403 2428 403 3163 
Q 403 3881 828 4315 
Q 1253 4750 1959 4750 
Q 2769 4750 3195 4129 
Q 3622 3509 3622 2328 
Q 3622 1225 3098 567 
Q 2575 -91 1691 -91 
Q 1453 -91 1209 -44 
Q 966 3 703 97 
z
M 1959 2075 
Q 2384 2075 2632 2365 
Q 2881 2656 2881 3163 
Q 2881 3666 2632 3958 
Q 2384 4250 1959 4250 
Q 1534 4250 1286 3958 
Q 1038 3666 1038 3163 
Q 1038 2656 1286 2365 
Q 1534 2075 1959 2075 
z
" transform="scale(0.015625)"/>
       </defs>
       <use xlink:href="#DejaVuSans-39"/>
       <use xlink:href="#DejaVuSans-30" transform="translate(63.623047 0)"/>
      </g>
     </g>
    </g>
    <g id="ytick_10">
     <g id="line2d_43">
      <path d="M 623.525 67.877273 
L 1141.2 67.877273 
" clip-path="url(#pd63cc441e0)" style="fill: none; stroke-dasharray: 2.96,1.28; stroke-dashoffset: 0; stroke: #b0b0b0; stroke-opacity: 0.7; stroke-width: 0.8"/>
     </g>
     <g id="line2d_44">
      <g>
       <use xlink:href="#m1bb6860866" x="623.525" y="67.877273" style="stroke: #000000; stroke-width: 0.8"/>
      </g>
     </g>
     <g id="text_26">
      <!-- 100 -->
      <g transform="translate(597.4375 71.676491) scale(0.1 -0.1)">
       <use xlink:href="#DejaVuSans-31"/>
       <use xlink:href="#DejaVuSans-30" transform="translate(63.623047 0)"/>
       <use xlink:href="#DejaVuSans-30" transform="translate(127.246094 0)"/>
      </g>
     </g>
    </g>
    <g id="text_27">
     <!-- Energy Reliability (% of demanded MWh delivered) -->
     <g transform="translate(590.941875 373.536562) rotate(-90) scale(0.12 -0.12)">
      <defs>
       <path id="DejaVuSans-45" d="M 628 4666 
L 3578 4666 
L 3578 4134 
L 1259 4134 
L 1259 2753 
L 3481 2753 
L 3481 2222 
L 1259 2222 
L 1259 531 
L 3634 531 
L 3634 0 
L 628 0 
L 628 4666 
z
" transform="scale(0.015625)"/>
       <path id="DejaVuSans-76" d="M 191 3500 
L 800 3500 
L 1894 563 
L 2988 3500 
L 3597 3500 
L 2284 0 
L 1503 0 
L 191 3500 
z
" transform="scale(0.015625)"/>
      </defs>
      <use xlink:href="#DejaVuSans-45"/>
      <use xlink:href="#DejaVuSans-6e" transform="translate(63.183594 0)"/>
      <use xlink:href="#DejaVuSans-65" transform="translate(126.5625 0)"/>
      <use xlink:href="#DejaVuSans-72" transform="translate(188.085938 0)"/>
      <use xlink:href="#DejaVuSans-67" transform="translate(227.449219 0)"/>
      <use xlink:href="#DejaVuSans-79" transform="translate(290.925781 0)"/>
      <use xlink:href="#DejaVuSans-20" transform="translate(350.105469 0)"/>
      <use xlink:href="#DejaVuSans-52" transform="translate(381.892578 0)"/>
      <use xlink:href="#DejaVuSans-65" transform="translate(446.875 0)"/>
      <use xlink:href="#DejaVuSans-6c" transform="translate(508.398438 0)"/>
      <use xlink:href="#DejaVuSans-69" transform="translate(536.181641 0)"/>
      <use xlink:href="#DejaVuSans-61" transform="translate(563.964844 0)"/>
      <use xlink:href="#DejaVuSans-62" transform="translate(625.244141 0)"/>
      <use xlink:href="#DejaVuSans-69" transform="translate(688.720703 0)"/>
      <use xlink:href="#DejaVuSans-6c" transform="translate(716.503906 0)"/>
      <use xlink:href="#DejaVuSans-69" transform="translate(744.287109 0)"/>
      <use xlink:href="#DejaVuSans-74" transform="translate(772.070312 0)"/>
      <use xlink:href="#DejaVuSans-79" transform="translate(811.279297 0)"/>
      <use xlink:href="#DejaVuSans-20" transform="translate(870.458984 0)"/>
      <use xlink:href="#DejaVuSans-28" transform="translate(902.246094 0)"/>
      <use xlink:href="#DejaVuSans-25" transform="translate(941.259766 0)"/>
      <use xlink:href="#DejaVuSans-20" transform="translate(1036.279297 0)"/>
      <use xlink:href="#DejaVuSans-6f" transform="translate(1068.066406 0)"/>
      <use xlink:href="#DejaVuSans-66" transform="translate(1129.248047 0)"/>
      <use xlink:href="#DejaVuSans-20" transform="translate(1164.453125 0)"/>
      <use xlink:href="#DejaVuSans-64" transform="translate(1196.240234 0)"/>
      <use xlink:href="#DejaVuSans-65" transform="translate(1259.716797 0)"/>
      <use xlink:href="#DejaVuSans-6d" transform="translate(1321.240234 0)"/>
      <use xlink:href="#DejaVuSans-61" transform="translate(1418.652344 0)"/>
      <use xlink:href="#DejaVuSans-6e" transform="translate(1479.931641 0)"/>
      <use xlink:href="#DejaVuSans-64" transform="translate(1543.310547 0)"/>
      <use xlink:href="#DejaVuSans-65" transform="translate(1606.787109 0)"/>
      <use xlink:href="#DejaVuSans-64" transform="translate(1668.310547 0)"/>
      <use xlink:href="#DejaVuSans-20" transform="translate(1731.787109 0)"/>
      <use xlink:href="#DejaVuSans-4d" transform="translate(1763.574219 0)"/>
      <use xlink:href="#DejaVuSans-57" transform="translate(1849.853516 0)"/>
      <use xlink:href="#DejaVuSans-68" transform="translate(1948.730469 0)"/>
      <use xlink:href="#DejaVuSans-20" transform="translate(2012.109375 0)"/>
      <use xlink:href="#DejaVuSans-64" transform="translate(2043.896484 0)"/>
      <use xlink:href="#DejaVuSans-65" transform="translate(2107.373047 0)"/>
      <use xlink:href="#DejaVuSans-6c" transform="translate(2168.896484 0)"/>
      <use xlink:href="#DejaVuSans-69" transform="translate(2196.679688 0)"/>
      <use xlink:href="#DejaVuSans-76" transform="translate(2224.462891 0)"/>
      <use xlink:href="#DejaVuSans-65" transform="translate(2283.642578 0)"/>
      <use xlink:href="#DejaVuSans-72" transform="translate(2345.166016 0)"/>
      <use xlink:href="#DejaVuSans-65" transform="translate(2384.029297 0)"/>
      <use xlink:href="#DejaVuSans-64" transform="translate(2445.552734 0)"/>
      <use xlink:href="#DejaVuSans-29" transform="translate(2509.029297 0)"/>
     </g>
    </g>
   </g>
   <g id="line2d_45">
    <path d="M 647.055682 67.877273 
L 671.824821 68.668828 
L 696.593959 76.093525 
L 721.363098 92.772076 
L 746.132237 112.831341 
L 770.901376 133.387895 
L 795.670514 154.639225 
L 820.439653 175.598677 
L 845.208792 195.059436 
L 869.977931 213.38694 
L 894.747069 231.192636 
L 919.516208 248.32767 
L 944.285347 264.881915 
L 969.054486 281.003544 
L 993.823624 296.911805 
L 1018.592763 312.831848 
L 1043.361902 328.693065 
L 1068.131041 344.215007 
L 1092.900179 359.147588 
L 1117.669318 373.409553 
" clip-path="url(#pd63cc441e0)" style="fill: none; stroke-dasharray: 18.5,8; stroke-dashoffset: 0; stroke: #808080; stroke-width: 5"/>
    <g clip-path="url(#pd63cc441e0)">
     <use xlink:href="#mbadf097a24" x="647.055682" y="67.877273" style="fill: #808080; stroke: #808080"/>
     <use xlink:href="#mbadf097a24" x="671.824821" y="68.668828" style="fill: #808080; stroke: #808080"/>
     <use xlink:href="#mbadf097a24" x="696.593959" y="76.093525" style="fill: #808080; stroke: #808080"/>
     <use xlink:href="#mbadf097a24" x="721.363098" y="92.772076" style="fill: #808080; stroke: #808080"/>
     <use xlink:href="#mbadf097a24" x="746.132237" y="112.831341" style="fill: #808080; stroke: #808080"/>
     <use xlink:href="#mbadf097a24" x="770.901376" y="133.387895" style="fill: #808080; stroke: #808080"/>
     <use xlink:href="#mbadf097a24" x="795.670514" y="154.639225" style="fill: #808080; stroke: #808080"/>
     <use xlink:href="#mbadf097a24" x="820.439653" y="175.598677" style="fill: #808080; stroke: #808080"/>
     <use xlink:href="#mbadf097a24" x="845.208792" y="195.059436" style="fill: #808080; stroke: #808080"/>
     <use xlink:href="#mbadf097a24" x="869.977931" y="213.38694" style="fill: #808080; stroke: #808080"/>
     <use xlink:href="#mbadf097a24" x="894.747069" y="231.192636" style="fill: #808080; stroke: #808080"/>
     <use xlink:href="#mbadf097a24" x="919.516208" y="248.32767" style="fill: #808080; stroke: #808080"/>
     <use xlink:href="#mbadf097a24" x="944.285347" y="264.881915" style="fill: #808080; stroke: #808080"/>
     <use xlink:href="#mbadf097a24" x="969.054486" y="281.003544" style="fill: #808080; stroke: #808080"/>
     <use xlink:href="#mbadf097a24" x="993.823624" y="296.911805" style="fill: #808080; stroke: #808080"/>
     <use xlink:href="#mbadf097a24" x="1018.592763" y="312.831848" style="fill: #808080; stroke: #808080"/>
     <use xlink:href="#mbadf097a24" x="1043.361902" y="328.693065" style="fill: #808080; stroke: #808080"/>
     <use xlink:href="#mbadf097a24" x="1068.131041" y="344.215007" style="fill: #808080; stroke: #808080"/>
     <use xlink:href="#mbadf097a24" x="1092.900179" y="359.147588" style="fill: #808080; stroke: #808080"/>
     <use xlink:href="#mbadf097a24" x="1117.669318" y="373.409553" style="fill: #808080; stroke: #808080"/>
    </g>
   </g>
   <g id="line2d_46">
    <path d="M 647.055682 67.877273 
L 671.824821 68.668828 
L 696.593959 76.093525 
L 721.363098 92.772076 
L 746.132237 112.831341 
L 770.901376 133.387895 
L 795.670514 154.639225 
L 820.439653 175.598677 
L 845.208792 195.059436 
L 869.977931 213.38694 
L 894.747069 231.192636 
L 919.516208 248.32767 
L 944.285347 264.881915 
L 969.054486 281.003544 
L 993.823624 296.911805 
L 1018.592763 312.831848 
L 1043.361902 328.693065 
L 1068.131041 344.215007 
L 1092.900179 359.157567 
L 1117.669318 373.422727 
" clip-path="url(#pd63cc441e0)" style="fill: none; stroke: #2ca02c; stroke-width: 2; stroke-linecap: square"/>
    <defs>
     <path id="m6f74c30428" d="M -3 3 
L 3 3 
L 3 -3 
L -3 -3 
z
" style="stroke: #2ca02c; stroke-linejoin: miter"/>
    </defs>
    <g clip-path="url(#pd63cc441e0)">
     <use xlink:href="#m6f74c30428" x="647.055682" y="67.877273" style="fill: #2ca02c; stroke: #2ca02c; stroke-linejoin: miter"/>
     <use xlink:href="#m6f74c30428" x="671.824821" y="68.668828" style="fill: #2ca02c; stroke: #2ca02c; stroke-linejoin: miter"/>
     <use xlink:href="#m6f74c30428" x="696.593959" y="76.093525" style="fill: #2ca02c; stroke: #2ca02c; stroke-linejoin: miter"/>
     <use xlink:href="#m6f74c30428" x="721.363098" y="92.772076" style="fill: #2ca02c; stroke: #2ca02c; stroke-linejoin: miter"/>
     <use xlink:href="#m6f74c30428" x="746.132237" y="112.831341" style="fill: #2ca02c; stroke: #2ca02c; stroke-linejoin: miter"/>
     <use xlink:href="#m6f74c30428" x="770.901376" y="133.387895" style="fill: #2ca02c; stroke: #2ca02c; stroke-linejoin: miter"/>
     <use xlink:href="#m6f74c30428" x="795.670514" y="154.639225" style="fill: #2ca02c; stroke: #2ca02c; stroke-linejoin: miter"/>
     <use xlink:href="#m6f74c30428" x="820.439653" y="175.598677" style="fill: #2ca02c; stroke: #2ca02c; stroke-linejoin: miter"/>
     <use xlink:href="#m6f74c30428" x="845.208792" y="195.059436" style="fill: #2ca02c; stroke: #2ca02c; stroke-linejoin: miter"/>
     <use xlink:href="#m6f74c30428" x="869.977931" y="213.38694" style="fill: #2ca02c; stroke: #2ca02c; stroke-linejoin: miter"/>
     <use xlink:href="#m6f74c30428" x="894.747069" y="231.192636" style="fill: #2ca02c; stroke: #2ca02c; stroke-linejoin: miter"/>
     <use xlink:href="#m6f74c30428" x="919.516208" y="248.32767" style="fill: #2ca02c; stroke: #2ca02c; stroke-linejoin: miter"/>
     <use xlink:href="#m6f74c30428" x="944.285347" y="264.881915" style="fill: #2ca02c; stroke: #2ca02c; stroke-linejoin: miter"/>
     <use xlink:href="#m6f74c30428" x="969.054486" y="281.003544" style="fill: #2ca02c; stroke: #2ca02c; stroke-linejoin: miter"/>
     <use xlink:href="#m6f74c30428" x="993.823624" y="296.911805" style="fill: #2ca02c; stroke: #2ca02c; stroke-linejoin: miter"/>
     <use xlink:href="#m6f74c30428" x="1018.592763" y="312.831848" style="fill: #2ca02c; stroke: #2ca02c; stroke-linejoin: miter"/>
     <use xlink:href="#m6f74c30428" x="1043.361902" y="328.693065" style="fill: #2ca02c; stroke: #2ca02c; stroke-linejoin: miter"/>
     <use xlink:href="#m6f74c30428" x="1068.131041" y="344.215007" style="fill: #2ca02c; stroke: #2ca02c; stroke-linejoin: miter"/>
     <use xlink:href="#m6f74c30428" x="1092.900179" y="359.157567" style="fill: #2ca02c; stroke: #2ca02c; stroke-linejoin: miter"/>
     <use xlink:href="#m6f74c30428" x="1117.669318" y="373.422727" style="fill: #2ca02c; stroke: #2ca02c; stroke-linejoin: miter"/>
    </g>
   </g>
   <g id="patch_9">
    <path d="M 623.525 388.7 
L 623.525 52.6 
" style="fill: none; stroke: #000000; stroke-width: 0.8; stroke-linejoin: miter; stroke-linecap: square"/>
   </g>
   <g id="patch_10">
    <path d="M 1141.2 388.7 
L 1141.2 52.6 
" style="fill: none; stroke: #000000; stroke-width: 0.8; stroke-linejoin: miter; stroke-linecap: square"/>
   </g>
   <g id="patch_11">
    <path d="M 623.525 388.7 
L 1141.2 388.7 
" style="fill: none; stroke: #000000; stroke-width: 0.8; stroke-linejoin: miter; stroke-linecap: square"/>
   </g>
   <g id="patch_12">
    <path d="M 623.525 52.6 
L 1141.2 52.6 
" style="fill: none; stroke: #000000; stroke-width: 0.8; stroke-linejoin: miter; stroke-linecap: square"/>
   </g>
   <g id="text_28">
    <!-- Energy-Based Reliability -->
    <g transform="translate(809.87125 46.6) scale(0.12 -0.12)">
     <use xlink:href="#DejaVuSans-45"/>
     <use xlink:href="#DejaVuSans-6e" transform="translate(63.183594 0)"/>
     <use xlink:href="#DejaVuSans-65" transform="translate(126.5625 0)"/>
     <use xlink:href="#DejaVuSans-72" transform="translate(188.085938 0)"/>
     <use xlink:href="#DejaVuSans-67" transform="translate(227.449219 0)"/>
     <use xlink:href="#DejaVuSans-79" transform="translate(290.925781 0)"/>
     <use xlink:href="#DejaVuSans-2d" transform="translate(348.355469 0)"/>
     <use xlink:href="#DejaVuSans-42" transform="translate(380.814453 0)"/>
     <use xlink:href="#DejaVuSans-61" transform="translate(449.417969 0)"/>
     <use xlink:href="#DejaVuSans-73" transform="translate(510.697266 0)"/>
     <use xlink:href="#DejaVuSans-65" transform="translate(562.796875 0)"/>
     <use xlink:href="#DejaVuSans-64" transform="translate(624.320312 0)"/>
     <use xlink:href="#DejaVuSans-20" transform="translate(687.796875 0)"/>
     <use xlink:href="#DejaVuSans-52" transform="translate(719.583984 0)"/>
     <use xlink:href="#DejaVuSans-65" transform="translate(784.566406 0)"/>
     <use xlink:href="#DejaVuSans-6c" transform="translate(846.089844 0)"/>
     <use xlink:href="#DejaVuSans-69" transform="translate(873.873047 0)"/>
     <use xlink:href="#DejaVuSans-61" transform="translate(901.65625 0)"/>
     <use xlink:href="#DejaVuSans-62" transform="translate(962.935547 0)"/>
     <use xlink:href="#DejaVuSans-69" transform="translate(1026.412109 0)"/>
     <use xlink:href="#DejaVuSans-6c" transform="translate(1054.195312 0)"/>
     <use xlink:href="#DejaVuSans-69" transform="translate(1081.978516 0)"/>
     <use xlink:href="#DejaVuSans-74" transform="translate(1109.761719 0)"/>
     <use xlink:href="#DejaVuSans-79" transform="translate(1148.970703 0)"/>
    </g>
   </g>
   <g id="legend_2">
    <g id="patch_13">
     <path d="M 983.025 89.95625 
L 1134.2 89.95625 
Q 1136.2 89.95625 1136.2 87.95625 
L 1136.2 59.6 
Q 1136.2 57.6 1134.2 57.6 
L 983.025 57.6 
Q 981.025 57.6 981.025 59.6 
L 981.025 87.95625 
Q 981.025 89.95625 983.025 89.95625 
z
" style="fill: #ffffff; opacity: 0.8; stroke: #cccccc; stroke-linejoin: miter"/>
    </g>
    <g id="line2d_47">
     <path d="M 985.025 65.698438 
L 995.025 65.698438 
L 1005.025 65.698438 
" style="fill: none; stroke-dasharray: 18.5,8; stroke-dashoffset: 0; stroke: #808080; stroke-width: 5"/>
     <g>
      <use xlink:href="#mbadf097a24" x="995.025" y="65.698438" style="fill: #808080; stroke: #808080"/>
     </g>
    </g>
    <g id="text_29">
     <!-- Perfect Foresight -->
     <g transform="translate(1013.025 69.198438) scale(0.1 -0.1)">
      <use xlink:href="#DejaVuSans-50"/>
      <use xlink:href="#DejaVuSans-65" transform="translate(56.677734 0)"/>
      <use xlink:href="#DejaVuSans-72" transform="translate(118.201172 0)"/>
      <use xlink:href="#DejaVuSans-66" transform="translate(159.314453 0)"/>
      <use xlink:href="#DejaVuSans-65" transform="translate(194.519531 0)"/>
      <use xlink:href="#DejaVuSans-63" transform="translate(256.042969 0)"/>
      <use xlink:href="#DejaVuSans-74" transform="translate(311.023438 0)"/>
      <use xlink:href="#DejaVuSans-20" transform="translate(350.232422 0)"/>
      <use xlink:href="#DejaVuSans-46" transform="translate(382.019531 0)"/>
      <use xlink:href="#DejaVuSans-6f" transform="translate(435.914062 0)"/>
      <use xlink:href="#DejaVuSans-72" transform="translate(497.095703 0)"/>
      <use xlink:href="#DejaVuSans-65" transform="translate(535.958984 0)"/>
      <use xlink:href="#DejaVuSans-73" transform="translate(597.482422 0)"/>
      <use xlink:href="#DejaVuSans-69" transform="translate(649.582031 0)"/>
      <use xlink:href="#DejaVuSans-67" transform="translate(677.365234 0)"/>
      <use xlink:href="#DejaVuSans-68" transform="translate(740.841797 0)"/>
      <use xlink:href="#DejaVuSans-74" transform="translate(804.220703 0)"/>
     </g>
    </g>
    <g id="line2d_48">
     <path d="M 985.025 80.376563 
L 995.025 80.376563 
L 1005.025 80.376563 
" style="fill: none; stroke: #2ca02c; stroke-width: 2; stroke-linecap: square"/>
     <g>
      <use xlink:href="#m6f74c30428" x="995.025" y="80.376563" style="fill: #2ca02c; stroke: #2ca02c; stroke-linejoin: miter"/>
     </g>
    </g>
    <g id="text_30">
     <!-- Rolling Horizon (7 days) -->
     <g transform="translate(1013.025 83.876563) scale(0.1 -0.1)">
      <use xlink:href="#DejaVuSans-52"/>
      <use xlink:href="#DejaVuSans-6f" transform="translate(64.982422 0)"/>
      <use xlink:href="#DejaVuSans-6c" transform="translate(126.164062 0)"/>
      <use xlink:href="#DejaVuSans-6c" transform="translate(153.947266 0)"/>
      <use xlink:href="#DejaVuSans-69" transform="translate(181.730469 0)"/>
      <use xlink:href="#DejaVuSans-6e" transform="translate(209.513672 0)"/>
      <use xlink:href="#DejaVuSans-67" transform="translate(272.892578 0)"/>
      <use xlink:href="#DejaVuSans-20" transform="translate(336.369141 0)"/>
      <use xlink:href="#DejaVuSans-48" transform="translate(368.15625 0)"/>
      <use xlink:href="#DejaVuSans-6f" transform="translate(443.351562 0)"/>
      <use xlink:href="#DejaVuSans-72" transform="translate(504.533203 0)"/>
      <use xlink:href="#DejaVuSans-69" transform="translate(545.646484 0)"/>
      <use xlink:href="#DejaVuSans-7a" transform="translate(573.429688 0)"/>
      <use xlink:href="#DejaVuSans-6f" transform="translate(625.919922 0)"/>
      <use xlink:href="#DejaVuSans-6e" transform="translate(687.101562 0)"/>
      <use xlink:href="#DejaVuSans-20" transform="translate(750.480469 0)"/>
      <use xlink:href="#DejaVuSans-28" transform="translate(782.267578 0)"/>
      <use xlink:href="#DejaVuSans-37" transform="translate(821.28125 0)"/>
      <use xlink:href="#DejaVuSans-20" transform="translate(884.904297 0)"/>
      <use xlink:href="#DejaVuSans-64" transform="translate(916.691406 0)"/>
      <use xlink:href="#DejaVuSans-61" transform="translate(980.167969 0)"/>
      <use xlink:href="#DejaVuSans-79" transform="translate(1041.447266 0)"/>
      <use xlink:href="#DejaVuSans-73" transform="translate(1100.626953 0)"/>
      <use xlink:href="#DejaVuSans-29" transform="translate(1152.726562 0)"/>
     </g>
    </g>
   </g>
  </g>
  <g id="text_31">
   <!-- Yearly Optimization vs. Rolling Horizon -->
   <g transform="translate(400.03875 20.7975) scale(0.16 -0.16)">
    <defs>
     <path id="DejaVuSans-Bold-59" d="M -63 4666 
L 1253 4666 
L 2316 3003 
L 3378 4666 
L 4697 4666 
L 2919 1966 
L 2919 0 
L 1716 0 
L 1716 1966 
L -63 4666 
z
" transform="scale(0.015625)"/>
     <path id="DejaVuSans-Bold-65" d="M 4031 1759 
L 4031 1441 
L 1416 1441 
Q 1456 1047 1700 850 
Q 1944 653 2381 653 
Q 2734 653 3104 758 
Q 3475 863 3866 1075 
L 3866 213 
Q 3469 63 3072 -14 
Q 2675 -91 2278 -91 
Q 1328 -91 801 392 
Q 275 875 275 1747 
Q 275 2603 792 3093 
Q 1309 3584 2216 3584 
Q 3041 3584 3536 3087 
Q 4031 2591 4031 1759 
z
M 2881 2131 
Q 2881 2450 2695 2645 
Q 2509 2841 2209 2841 
Q 1884 2841 1681 2658 
Q 1478 2475 1428 2131 
L 2881 2131 
z
" transform="scale(0.015625)"/>
     <path id="DejaVuSans-Bold-61" d="M 2106 1575 
Q 1756 1575 1579 1456 
Q 1403 1338 1403 1106 
Q 1403 894 1545 773 
Q 1688 653 1941 653 
Q 2256 653 2472 879 
Q 2688 1106 2688 1447 
L 2688 1575 
L 2106 1575 
z
M 3816 1997 
L 3816 0 
L 2688 0 
L 2688 519 
Q 2463 200 2181 54 
Q 1900 -91 1497 -91 
Q 953 -91 614 226 
Q 275 544 275 1050 
Q 275 1666 698 1953 
Q 1122 2241 2028 2241 
L 2688 2241 
L 2688 2328 
Q 2688 2594 2478 2717 
Q 2269 2841 1825 2841 
Q 1466 2841 1156 2769 
Q 847 2697 581 2553 
L 581 3406 
Q 941 3494 1303 3539 
Q 1666 3584 2028 3584 
Q 2975 3584 3395 3211 
Q 3816 2838 3816 1997 
z
" transform="scale(0.015625)"/>
     <path id="DejaVuSans-Bold-72" d="M 3138 2547 
Q 2991 2616 2845 2648 
Q 2700 2681 2553 2681 
Q 2122 2681 1889 2404 
Q 1656 2128 1656 1613 
L 1656 0 
L 538 0 
L 538 3500 
L 1656 3500 
L 1656 2925 
Q 1872 3269 2151 3426 
Q 2431 3584 2822 3584 
Q 2878 3584 2943 3579 
Q 3009 3575 3134 3559 
L 3138 2547 
z
" transform="scale(0.015625)"/>
     <path id="DejaVuSans-Bold-6c" d="M 538 4863 
L 1656 4863 
L 1656 0 
L 538 0 
L 538 4863 
z
" transform="scale(0.015625)"/>
     <path id="DejaVuSans-Bold-79" d="M 78 3500 
L 1197 3500 
L 2138 1125 
L 2938 3500 
L 4056 3500 
L 2584 -331 
Q 2363 -916 2067 -1148 
Q 1772 -1381 1288 -1381 
L 641 -1381 
L 641 -647 
L 991 -647 
Q 1275 -647 1404 -556 
Q 1534 -466 1606 -231 
L 1638 -134 
L 78 3500 
z
" transform="scale(0.015625)"/>
     <path id="DejaVuSans-Bold-20" transform="scale(0.015625)"/>
     <path id="DejaVuSans-Bold-4f" d="M 2719 3878 
Q 2169 3878 1866 3472 
Q 1563 3066 1563 2328 
Q 1563 1594 1866 1187 
Q 2169 781 2719 781 
Q 3272 781 3575 1187 
Q 3878 1594 3878 2328 
Q 3878 3066 3575 3472 
Q 3272 3878 2719 3878 
z
M 2719 4750 
Q 3844 4750 4481 4106 
Q 5119 3463 5119 2328 
Q 5119 1197 4481 553 
Q 3844 -91 2719 -91 
Q 1597 -91 958 553 
Q 319 1197 319 2328 
Q 319 3463 958 4106 
Q 1597 4750 2719 4750 
z
" transform="scale(0.015625)"/>
     <path id="DejaVuSans-Bold-70" d="M 1656 506 
L 1656 -1331 
L 538 -1331 
L 538 3500 
L 1656 3500 
L 1656 2988 
Q 1888 3294 2169 3439 
Q 2450 3584 2816 3584 
Q 3463 3584 3878 3070 
Q 4294 2556 4294 1747 
Q 4294 938 3878 423 
Q 3463 -91 2816 -91 
Q 2450 -91 2169 54 
Q 1888 200 1656 506 
z
M 2400 2772 
Q 2041 2772 1848 2508 
Q 1656 2244 1656 1747 
Q 1656 1250 1848 986 
Q 2041 722 2400 722 
Q 2759 722 2948 984 
Q 3138 1247 3138 1747 
Q 3138 2247 2948 2509 
Q 2759 2772 2400 2772 
z
" transform="scale(0.015625)"/>
     <path id="DejaVuSans-Bold-74" d="M 1759 4494 
L 1759 3500 
L 2913 3500 
L 2913 2700 
L 1759 2700 
L 1759 1216 
Q 1759 972 1856 886 
Q 1953 800 2241 800 
L 2816 800 
L 2816 0 
L 1856 0 
Q 1194 0 917 276 
Q 641 553 641 1216 
L 641 2700 
L 84 2700 
L 84 3500 
L 641 3500 
L 641 4494 
L 1759 4494 
z
" transform="scale(0.015625)"/>
     <path id="DejaVuSans-Bold-69" d="M 538 3500 
L 1656 3500 
L 1656 0 
L 538 0 
L 538 3500 
z
M 538 4863 
L 1656 4863 
L 1656 3950 
L 538 3950 
L 538 4863 
z
" transform="scale(0.015625)"/>
     <path id="DejaVuSans-Bold-6d" d="M 3781 2919 
Q 3994 3244 4286 3414 
Q 4578 3584 4928 3584 
Q 5531 3584 5847 3212 
Q 6163 2841 6163 2131 
L 6163 0 
L 5038 0 
L 5038 1825 
Q 5041 1866 5042 1909 
Q 5044 1953 5044 2034 
Q 5044 2406 4934 2573 
Q 4825 2741 4581 2741 
Q 4263 2741 4089 2478 
Q 3916 2216 3909 1719 
L 3909 0 
L 2784 0 
L 2784 1825 
Q 2784 2406 2684 2573 
Q 2584 2741 2328 2741 
Q 2006 2741 1831 2477 
Q 1656 2213 1656 1722 
L 1656 0 
L 531 0 
L 531 3500 
L 1656 3500 
L 1656 2988 
Q 1863 3284 2130 3434 
Q 2397 3584 2719 3584 
Q 3081 3584 3359 3409 
Q 3638 3234 3781 2919 
z
" transform="scale(0.015625)"/>
     <path id="DejaVuSans-Bold-7a" d="M 366 3500 
L 3419 3500 
L 3419 2719 
L 1575 800 
L 3419 800 
L 3419 0 
L 288 0 
L 288 781 
L 2131 2700 
L 366 2700 
L 366 3500 
z
" transform="scale(0.015625)"/>
     <path id="DejaVuSans-Bold-6f" d="M 2203 2784 
Q 1831 2784 1636 2517 
Q 1441 2250 1441 1747 
Q 1441 1244 1636 976 
Q 1831 709 2203 709 
Q 2569 709 2762 976 
Q 2956 1244 2956 1747 
Q 2956 2250 2762 2517 
Q 2569 2784 2203 2784 
z
M 2203 3584 
Q 3106 3584 3614 3096 
Q 4122 2609 4122 1747 
Q 4122 884 3614 396 
Q 3106 -91 2203 -91 
Q 1297 -91 786 396 
Q 275 884 275 1747 
Q 275 2609 786 3096 
Q 1297 3584 2203 3584 
z
" transform="scale(0.015625)"/>
     <path id="DejaVuSans-Bold-6e" d="M 4056 2131 
L 4056 0 
L 2931 0 
L 2931 347 
L 2931 1631 
Q 2931 2084 2911 2256 
Q 2891 2428 2841 2509 
Q 2775 2619 2662 2680 
Q 2550 2741 2406 2741 
Q 2056 2741 1856 2470 
Q 1656 2200 1656 1722 
L 1656 0 
L 538 0 
L 538 3500 
L 1656 3500 
L 1656 2988 
Q 1909 3294 2193 3439 
Q 2478 3584 2822 3584 
Q 3428 3584 3742 3212 
Q 4056 2841 4056 2131 
z
" transform="scale(0.015625)"/>
     <path id="DejaVuSans-Bold-76" d="M 97 3500 
L 1216 3500 
L 2088 1081 
L 2956 3500 
L 4078 3500 
L 2700 0 
L 1472 0 
L 97 3500 
z
" transform="scale(0.015625)"/>
     <path id="DejaVuSans-Bold-73" d="M 3272 3391 
L 3272 2541 
Q 2913 2691 2578 2766 
Q 2244 2841 1947 2841 
Q 1628 2841 1473 2761 
Q 1319 2681 1319 2516 
Q 1319 2381 1436 2309 
Q 1553 2238 1856 2203 
L 2053 2175 
Q 2913 2066 3209 1816 
Q 3506 1566 3506 1031 
Q 3506 472 3093 190 
Q 2681 -91 1863 -91 
Q 1516 -91 1145 -36 
Q 775 19 384 128 
L 384 978 
Q 719 816 1070 734 
Q 1422 653 1784 653 
Q 2113 653 2278 743 
Q 2444 834 2444 1013 
Q 2444 1163 2330 1236 
Q 2216 1309 1875 1350 
L 1678 1375 
Q 931 1469 631 1722 
Q 331 1975 331 2491 
Q 331 3047 712 3315 
Q 1094 3584 1881 3584 
Q 2191 3584 2531 3537 
Q 2872 3491 3272 3391 
z
" transform="scale(0.015625)"/>
     <path id="DejaVuSans-Bold-2e" d="M 653 1209 
L 1778 1209 
L 1778 0 
L 653 0 
L 653 1209 
z
" transform="scale(0.015625)"/>
     <path id="DejaVuSans-Bold-52" d="M 2297 2597 
Q 2675 2597 2839 2737 
Q 3003 2878 3003 3200 
Q 3003 3519 2839 3656 
Q 2675 3794 2297 3794 
L 1791 3794 
L 1791 2597 
L 2297 2597 
z
M 1791 1766 
L 1791 0 
L 588 0 
L 588 4666 
L 2425 4666 
Q 3347 4666 3776 4356 
Q 4206 4047 4206 3378 
Q 4206 2916 3982 2619 
Q 3759 2322 3309 2181 
Q 3556 2125 3751 1926 
Q 3947 1728 4147 1325 
L 4800 0 
L 3519 0 
L 2950 1159 
Q 2778 1509 2601 1637 
Q 2425 1766 2131 1766 
L 1791 1766 
z
" transform="scale(0.015625)"/>
     <path id="DejaVuSans-Bold-67" d="M 2919 594 
Q 2688 288 2409 144 
Q 2131 0 1766 0 
Q 1125 0 706 504 
Q 288 1009 288 1791 
Q 288 2575 706 3076 
Q 1125 3578 1766 3578 
Q 2131 3578 2409 3434 
Q 2688 3291 2919 2981 
L 2919 3500 
L 4044 3500 
L 4044 353 
Q 4044 -491 3511 -936 
Q 2978 -1381 1966 -1381 
Q 1638 -1381 1331 -1331 
Q 1025 -1281 716 -1178 
L 716 -306 
Q 1009 -475 1290 -558 
Q 1572 -641 1856 -641 
Q 2406 -641 2662 -400 
Q 2919 -159 2919 353 
L 2919 594 
z
M 2181 2772 
Q 1834 2772 1640 2515 
Q 1447 2259 1447 1791 
Q 1447 1309 1634 1061 
Q 1822 813 2181 813 
Q 2531 813 2725 1069 
Q 2919 1325 2919 1791 
Q 2919 2259 2725 2515 
Q 2531 2772 2181 2772 
z
" transform="scale(0.015625)"/>
     <path id="DejaVuSans-Bold-48" d="M 588 4666 
L 1791 4666 
L 1791 2888 
L 3566 2888 
L 3566 4666 
L 4769 4666 
L 4769 0 
L 3566 0 
L 3566 1978 
L 1791 1978 
L 1791 0 
L 588 0 
L 588 4666 
z
" transform="scale(0.015625)"/>
    </defs>
    <use xlink:href="#DejaVuSans-Bold-59"/>
    <use xlink:href="#DejaVuSans-Bold-65" transform="translate(63.287109 0)"/>
    <use xlink:href="#DejaVuSans-Bold-61" transform="translate(131.109375 0)"/>
    <use xlink:href="#DejaVuSans-Bold-72" transform="translate(198.589844 0)"/>
    <use xlink:href="#DejaVuSans-Bold-6c" transform="translate(247.90625 0)"/>
    <use xlink:href="#DejaVuSans-Bold-79" transform="translate(282.183594 0)"/>
    <use xlink:href="#DejaVuSans-Bold-20" transform="translate(347.369141 0)"/>
    <use xlink:href="#DejaVuSans-Bold-4f" transform="translate(382.183594 0)"/>
    <use xlink:href="#DejaVuSans-Bold-70" transform="translate(467.193359 0)"/>
    <use xlink:href="#DejaVuSans-Bold-74" transform="translate(538.775391 0)"/>
    <use xlink:href="#DejaVuSans-Bold-69" transform="translate(586.578125 0)"/>
    <use xlink:href="#DejaVuSans-Bold-6d" transform="translate(620.855469 0)"/>
    <use xlink:href="#DejaVuSans-Bold-69" transform="translate(725.054688 0)"/>
    <use xlink:href="#DejaVuSans-Bold-7a" transform="translate(759.332031 0)"/>
    <use xlink:href="#DejaVuSans-Bold-61" transform="translate(817.535156 0)"/>
    <use xlink:href="#DejaVuSans-Bold-74" transform="translate(885.015625 0)"/>
    <use xlink:href="#DejaVuSans-Bold-69" transform="translate(932.818359 0)"/>
    <use xlink:href="#DejaVuSans-Bold-6f" transform="translate(967.095703 0)"/>
    <use xlink:href="#DejaVuSans-Bold-6e" transform="translate(1035.796875 0)"/>
    <use xlink:href="#DejaVuSans-Bold-20" transform="translate(1106.988281 0)"/>
    <use xlink:href="#DejaVuSans-Bold-76" transform="translate(1141.802734 0)"/>
    <use xlink:href="#DejaVuSans-Bold-73" transform="translate(1206.988281 0)"/>
    <use xlink:href="#DejaVuSans-Bold-2e" transform="translate(1266.509766 0)"/>
    <use xlink:href="#DejaVuSans-Bold-20" transform="translate(1304.498047 0)"/>
    <use xlink:href="#DejaVuSans-Bold-52" transform="translate(1339.3125 0)"/>
    <use xlink:href="#DejaVuSans-Bold-6f" transform="translate(1416.314453 0)"/>
    <use xlink:href="#DejaVuSans-Bold-6c" transform="translate(1485.015625 0)"/>
    <use xlink:href="#DejaVuSans-Bold-6c" transform="translate(1519.292969 0)"/>
    <use xlink:href="#DejaVuSans-Bold-69" transform="translate(1553.570312 0)"/>
    <use xlink:href="#DejaVuSans-Bold-6e" transform="translate(1587.847656 0)"/>
    <use xlink:href="#DejaVuSans-Bold-67" transform="translate(1659.039062 0)"/>
    <use xlink:href="#DejaVuSans-Bold-20" transform="translate(1730.621094 0)"/>
    <use xlink:href="#DejaVuSans-Bold-48" transform="translate(1765.435547 0)"/>
    <use xlink:href="#DejaVuSans-Bold-6f" transform="translate(1849.126953 0)"/>
    <use xlink:href="#DejaVuSans-Bold-72" transform="translate(1917.828125 0)"/>
    <use xlink:href="#DejaVuSans-Bold-69" transform="translate(1967.144531 0)"/>
    <use xlink:href="#DejaVuSans-Bold-7a" transform="translate(2001.421875 0)"/>
    <use xlink:href="#DejaVuSans-Bold-6f" transform="translate(2059.625 0)"/>
    <use xlink:href="#DejaVuSans-Bold-6e" transform="translate(2128.326172 0)"/>
   </g>
  </g>
 </g>
 <defs>
  <clipPath id="pbaf51e2f1d">
   <rect x="52.925" y="52.6" width="517.675" height="336.1"/>
  </clipPath>
  <clipPath id="pd63cc441e0">
   <rect x="623.525" y="52.6" width="517.675" height="336.1"/>
  </clipPath>
 </defs>
</svg>
