<?xml version="1.0" encoding="utf-8" standalone="no"?>
<!DOCTYPE svg PUBLIC "-//W3C//DTD SVG 1.1//EN"
  "http://www.w3.org/Graphics/SVG/1.1/DTD/svg11.dtd">
<svg xmlns:xlink="http://www.w3.org/1999/xlink" width="856.684282pt" height="280.774375pt" viewBox="0 0 856.684282 280.774375" xmlns="http://www.w3.org/2000/svg" version="1.1">
 <metadata>
  <rdf:RDF xmlns:dc="http://purl.org/dc/elements/1.1/" xmlns:cc="http://creativecommons.org/ns#" xmlns:rdf="http://www.w3.org/1999/02/22-rdf-syntax-ns#">
   <cc:Work>
    <dc:type rdf:resource="http://purl.org/dc/dcmitype/StillImage"/>
    <dc:date>2026-03-10T12:04:46.614017</dc:date>
    <dc:format>image/svg+xml</dc:format>
    <dc:creator>
     <cc:Agent>
      <dc:title>Matplotlib v3.10.8, https://matplotlib.org/</dc:title>
     </cc:Agent>
    </dc:creator>
   </cc:Work>
  </rdf:RDF>
 </metadata>
 <defs>
  <style type="text/css">*{stroke-linejoin: round; stroke-linecap: butt}</style>
 </defs>
 <g id="figure_1">
  <g id="patch_1">
   <path d="M 0 280.774375 
L 856.684282 280.774375 
L 856.684282 0 
L 0 0 
z
" style="fill: #ffffff"/>
  </g>
  <g id="axes_1">
   <g id="patch_2">
    <path d="M 40.603125 243.218125 
L 841.466401 243.218125 
L 841.466401 22.318125 
L 40.603125 22.318125 
z
" style="fill: #ffffff"/>
   </g>
   <g id="FillBetweenPolyCollection_1">
    <defs>
     <path id="mc5af280983" d="M 77.006001 -91.412297 
L 77.006001 -47.597159 
L 81.365627 -47.597159 
L 85.725253 -47.597159 
L 90.084879 -47.597159 
L 94.444505 -47.597159 
L 98.804131 -47.597159 
L 103.163757 -47.597159 
L 107.523382 -47.597159 
L 111.883008 -47.597159 
L 116.242634 -47.597159 
L 120.60226 -47.597159 
L 124.961886 -47.597159 
L 129.321512 -47.597159 
L 133.681138 -47.597159 
L 138.040764 -47.597159 
L 142.400389 -47.597159 
L 146.760015 -47.597159 
L 151.119641 -47.597159 
L 155.479267 -47.597159 
L 159.838893 -47.597159 
L 164.198519 -47.597159 
L 168.558145 -47.597159 
L 172.917771 -47.597159 
L 177.277397 -47.597159 
L 181.637022 -47.597159 
L 185.996648 -47.597159 
L 190.356274 -47.597159 
L 194.7159 -47.597159 
L 199.075526 -47.597159 
L 203.435152 -47.597159 
L 207.794778 -47.597159 
L 212.154404 -47.597159 
L 216.51403 -47.597159 
L 220.873655 -47.597159 
L 225.233281 -47.597159 
L 229.592907 -47.597159 
L 233.952533 -47.597159 
L 238.312159 -47.597159 
L 242.671785 -47.597159 
L 247.031411 -47.597159 
L 251.391037 -47.597159 
L 255.750663 -47.597159 
L 260.110288 -47.597159 
L 264.469914 -47.597159 
L 268.82954 -47.597159 
L 273.189166 -47.597159 
L 277.548792 -47.597159 
L 281.908418 -47.597159 
L 286.268044 -47.597159 
L 290.62767 -47.597159 
L 294.987296 -47.597159 
L 299.346921 -47.597159 
L 303.706547 -47.597159 
L 308.066173 -47.597159 
L 312.425799 -47.597159 
L 316.785425 -47.597159 
L 321.145051 -47.597159 
L 325.504677 -47.597159 
L 329.864303 -47.597159 
L 334.223929 -47.597159 
L 338.583554 -47.597159 
L 342.94318 -47.597159 
L 347.302806 -47.597159 
L 351.662432 -47.597159 
L 356.022058 -47.597159 
L 360.381684 -47.597159 
L 364.74131 -47.597159 
L 369.100936 -47.597159 
L 373.460562 -47.597159 
L 377.820187 -47.597159 
L 382.179813 -47.597159 
L 386.539439 -47.597159 
L 390.899065 -47.597159 
L 395.258691 -47.597159 
L 399.618317 -47.597159 
L 403.977943 -47.597159 
L 408.337569 -47.597159 
L 412.697195 -47.597159 
L 417.05682 -47.597159 
L 421.416446 -47.597159 
L 425.776072 -47.597159 
L 430.135698 -47.597159 
L 434.495324 -47.597159 
L 438.85495 -47.597159 
L 443.214576 -47.597159 
L 447.574202 -47.597159 
L 451.933828 -47.597159 
L 456.293453 -47.597159 
L 460.653079 -47.597159 
L 465.012705 -47.597159 
L 469.372331 -47.597159 
L 473.731957 -47.597159 
L 478.091583 -47.597159 
L 482.451209 -47.597159 
L 486.810835 -47.597159 
L 491.170461 -47.597159 
L 495.530086 -47.597159 
L 499.889712 -47.597159 
L 504.249338 -47.597159 
L 508.608964 -47.597159 
L 512.96859 -47.597159 
L 517.328216 -47.597159 
L 521.687842 -47.597159 
L 526.047468 -47.597159 
L 530.407094 -47.597159 
L 534.766719 -47.597159 
L 539.126345 -47.597159 
L 543.485971 -47.597159 
L 547.845597 -47.597159 
L 552.205223 -47.597159 
L 556.564849 -47.597159 
L 560.924475 -47.597159 
L 565.284101 -47.597159 
L 569.643727 -47.597159 
L 574.003352 -47.597159 
L 578.362978 -47.597159 
L 582.722604 -47.597159 
L 587.08223 -47.597159 
L 591.441856 -47.597159 
L 595.801482 -47.597159 
L 600.161108 -47.597159 
L 604.520734 -47.597159 
L 608.88036 -47.597159 
L 613.239985 -47.597159 
L 617.599611 -47.597159 
L 621.959237 -47.597159 
L 626.318863 -47.597159 
L 630.678489 -47.597159 
L 635.038115 -47.597159 
L 639.397741 -47.597159 
L 643.757367 -47.597159 
L 648.116993 -47.597159 
L 652.476618 -47.597159 
L 656.836244 -47.597159 
L 661.19587 -47.597159 
L 665.555496 -47.597159 
L 669.915122 -47.597159 
L 674.274748 -47.597159 
L 678.634374 -47.597159 
L 682.994 -47.597159 
L 687.353626 -47.597159 
L 691.713251 -47.597159 
L 696.072877 -47.597159 
L 700.432503 -47.597159 
L 704.792129 -47.597159 
L 709.151755 -47.597159 
L 713.511381 -47.597159 
L 717.871007 -47.597159 
L 722.230633 -47.597159 
L 726.590259 -47.597159 
L 730.949884 -47.597159 
L 735.30951 -47.597159 
L 739.669136 -47.597159 
L 744.028762 -47.597159 
L 748.388388 -47.597159 
L 752.748014 -47.597159 
L 757.10764 -47.597159 
L 761.467266 -47.597159 
L 765.826892 -47.597159 
L 770.186517 -47.597159 
L 774.546143 -47.597159 
L 778.905769 -47.597159 
L 783.265395 -47.597159 
L 787.625021 -47.597159 
L 791.984647 -47.597159 
L 796.344273 -47.597159 
L 800.703899 -47.597159 
L 805.063525 -47.597159 
L 805.063525 -104.187826 
L 805.063525 -104.187826 
L 800.703899 -104.187826 
L 796.344273 -104.187826 
L 791.984647 -104.187826 
L 787.625021 -104.187826 
L 783.265395 -104.187826 
L 778.905769 -104.187826 
L 774.546143 -104.187826 
L 770.186517 -104.187826 
L 765.826892 -104.187826 
L 761.467266 -104.187826 
L 757.10764 -104.187826 
L 752.748014 -104.187826 
L 748.388388 -104.187826 
L 744.028762 -104.187826 
L 739.669136 -104.187826 
L 735.30951 -94.718007 
L 730.949884 -90.194081 
L 726.590259 -102.716854 
L 722.230633 -104.187826 
L 717.871007 -104.187826 
L 713.511381 -104.187826 
L 709.151755 -104.187826 
L 704.792129 -104.187826 
L 700.432503 -104.187826 
L 696.072877 -103.522292 
L 691.713251 -91.391257 
L 687.353626 -87.611154 
L 682.994 -93.300216 
L 678.634374 -91.074635 
L 674.274748 -86.561583 
L 669.915122 -91.260458 
L 665.555496 -93.326234 
L 661.19587 -104.187826 
L 656.836244 -104.187826 
L 652.476618 -104.187826 
L 648.116993 -104.187826 
L 643.757367 -104.187826 
L 639.397741 -59.087068 
L 635.038115 -60.529089 
L 630.678489 -65.091559 
L 626.318863 -70.271933 
L 621.959237 -81.485369 
L 617.599611 -86.689753 
L 613.239985 -86.607106 
L 608.88036 -83.053783 
L 604.520734 -73.967399 
L 600.161108 -71.490992 
L 595.801482 -71.252584 
L 591.441856 -73.400786 
L 587.08223 -71.370226 
L 582.722604 -76.730134 
L 578.362978 -92.253157 
L 574.003352 -104.187826 
L 569.643727 -104.187826 
L 565.284101 -104.187826 
L 560.924475 -104.187826 
L 556.564849 -104.187826 
L 552.205223 -104.187826 
L 547.845597 -104.187826 
L 543.485971 -104.187826 
L 539.126345 -100.891041 
L 534.766719 -104.187826 
L 530.407094 -104.187826 
L 526.047468 -104.187826 
L 521.687842 -104.187826 
L 517.328216 -104.187826 
L 512.96859 -104.187826 
L 508.608964 -85.042831 
L 504.249338 -104.187826 
L 499.889712 -104.187826 
L 495.530086 -104.187826 
L 491.170461 -104.187826 
L 486.810835 -104.187826 
L 482.451209 -104.187826 
L 478.091583 -104.187826 
L 473.731957 -104.187826 
L 469.372331 -104.187826 
L 465.012705 -104.187826 
L 460.653079 -104.187826 
L 456.293453 -104.187826 
L 451.933828 -104.187826 
L 447.574202 -104.187826 
L 443.214576 -104.187826 
L 438.85495 -104.187826 
L 434.495324 -104.187826 
L 430.135698 -104.187826 
L 425.776072 -104.187826 
L 421.416446 -104.187826 
L 417.05682 -104.187826 
L 412.697195 -104.187826 
L 408.337569 -104.187826 
L 403.977943 -104.187826 
L 399.618317 -104.187826 
L 395.258691 -104.187826 
L 390.899065 -104.187826 
L 386.539439 -104.187826 
L 382.179813 -104.187826 
L 377.820187 -104.187826 
L 373.460562 -104.187826 
L 369.100936 -104.187826 
L 364.74131 -104.187826 
L 360.381684 -104.187826 
L 356.022058 -104.187826 
L 351.662432 -104.187826 
L 347.302806 -104.187826 
L 342.94318 -104.187826 
L 338.583554 -104.187826 
L 334.223929 -104.187826 
L 329.864303 -104.187826 
L 325.504677 -104.187826 
L 321.145051 -104.187826 
L 316.785425 -104.187826 
L 312.425799 -104.187826 
L 308.066173 -104.187826 
L 303.706547 -104.187826 
L 299.346921 -104.187826 
L 294.987296 -104.187826 
L 290.62767 -104.187826 
L 286.268044 -104.187826 
L 281.908418 -104.187826 
L 277.548792 -104.187826 
L 273.189166 -104.187826 
L 268.82954 -104.187826 
L 264.469914 -104.187826 
L 260.110288 -104.187826 
L 255.750663 -104.187826 
L 251.391037 -104.187826 
L 247.031411 -104.187826 
L 242.671785 -104.187826 
L 238.312159 -104.187826 
L 233.952533 -104.187826 
L 229.592907 -104.187826 
L 225.233281 -104.187826 
L 220.873655 -104.187826 
L 216.51403 -104.187826 
L 212.154404 -104.168026 
L 207.794778 -94.143264 
L 203.435152 -87.939039 
L 199.075526 -90.505964 
L 194.7159 -87.185791 
L 190.356274 -89.419456 
L 185.996648 -84.919469 
L 181.637022 -82.877873 
L 177.277397 -84.679454 
L 172.917771 -82.240926 
L 168.558145 -87.710074 
L 164.198519 -91.66033 
L 159.838893 -102.60545 
L 155.479267 -104.187826 
L 151.119641 -97.853846 
L 146.760015 -98.118618 
L 142.400389 -104.187826 
L 138.040764 -104.187826 
L 133.681138 -104.187826 
L 129.321512 -104.187826 
L 124.961886 -104.187826 
L 120.60226 -99.426957 
L 116.242634 -104.187826 
L 111.883008 -104.187826 
L 107.523382 -104.187826 
L 103.163757 -104.187826 
L 98.804131 -104.187826 
L 94.444505 -104.187826 
L 90.084879 -104.187826 
L 85.725253 -99.582985 
L 81.365627 -91.568526 
L 77.006001 -91.412297 
z
" style="stroke: #008000; stroke-opacity: 0.6"/>
    </defs>
    <g clip-path="url(#p343bfa2bf8)">
     <use xlink:href="#mc5af280983" x="0" y="280.774375" style="fill: #008000; fill-opacity: 0.6; stroke: #008000; stroke-opacity: 0.6"/>
    </g>
   </g>
   <g id="FillBetweenPolyCollection_2">
    <defs>
     <path id="m9b33aa2e3b" d="M 77.006001 -104.187826 
L 77.006001 -91.412297 
L 81.365627 -91.568526 
L 85.725253 -99.582985 
L 90.084879 -104.187826 
L 94.444505 -104.187826 
L 98.804131 -104.187826 
L 103.163757 -104.187826 
L 107.523382 -104.187826 
L 111.883008 -104.187826 
L 116.242634 -104.187826 
L 120.60226 -99.426957 
L 124.961886 -104.187826 
L 129.321512 -104.187826 
L 133.681138 -104.187826 
L 138.040764 -104.187826 
L 142.400389 -104.187826 
L 146.760015 -98.118618 
L 151.119641 -97.853846 
L 155.479267 -104.187826 
L 159.838893 -102.60545 
L 164.198519 -91.66033 
L 168.558145 -87.710074 
L 172.917771 -82.240926 
L 177.277397 -84.679454 
L 181.637022 -82.877873 
L 185.996648 -84.919469 
L 190.356274 -89.419456 
L 194.7159 -87.185791 
L 199.075526 -90.505964 
L 203.435152 -87.939039 
L 207.794778 -94.143264 
L 212.154404 -104.168026 
L 216.51403 -104.187826 
L 220.873655 -104.187826 
L 225.233281 -104.187826 
L 229.592907 -104.187826 
L 233.952533 -104.187826 
L 238.312159 -104.187826 
L 242.671785 -104.187826 
L 247.031411 -104.187826 
L 251.391037 -104.187826 
L 255.750663 -104.187826 
L 260.110288 -104.187826 
L 264.469914 -104.187826 
L 268.82954 -104.187826 
L 273.189166 -104.187826 
L 277.548792 -104.187826 
L 281.908418 -104.187826 
L 286.268044 -104.187826 
L 290.62767 -104.187826 
L 294.987296 -104.187826 
L 299.346921 -104.187826 
L 303.706547 -104.187826 
L 308.066173 -104.187826 
L 312.425799 -104.187826 
L 316.785425 -104.187826 
L 321.145051 -104.187826 
L 325.504677 -104.187826 
L 329.864303 -104.187826 
L 334.223929 -104.187826 
L 338.583554 -104.187826 
L 342.94318 -104.187826 
L 347.302806 -104.187826 
L 351.662432 -104.187826 
L 356.022058 -104.187826 
L 360.381684 -104.187826 
L 364.74131 -104.187826 
L 369.100936 -104.187826 
L 373.460562 -104.187826 
L 377.820187 -104.187826 
L 382.179813 -104.187826 
L 386.539439 -104.187826 
L 390.899065 -104.187826 
L 395.258691 -104.187826 
L 399.618317 -104.187826 
L 403.977943 -104.187826 
L 408.337569 -104.187826 
L 412.697195 -104.187826 
L 417.05682 -104.187826 
L 421.416446 -104.187826 
L 425.776072 -104.187826 
L 430.135698 -104.187826 
L 434.495324 -104.187826 
L 438.85495 -104.187826 
L 443.214576 -104.187826 
L 447.574202 -104.187826 
L 451.933828 -104.187826 
L 456.293453 -104.187826 
L 460.653079 -104.187826 
L 465.012705 -104.187826 
L 469.372331 -104.187826 
L 473.731957 -104.187826 
L 478.091583 -104.187826 
L 482.451209 -104.187826 
L 486.810835 -104.187826 
L 491.170461 -104.187826 
L 495.530086 -104.187826 
L 499.889712 -104.187826 
L 504.249338 -104.187826 
L 508.608964 -85.042831 
L 512.96859 -104.187826 
L 517.328216 -104.187826 
L 521.687842 -104.187826 
L 526.047468 -104.187826 
L 530.407094 -104.187826 
L 534.766719 -104.187826 
L 539.126345 -100.891041 
L 543.485971 -104.187826 
L 547.845597 -104.187826 
L 552.205223 -104.187826 
L 556.564849 -104.187826 
L 560.924475 -104.187826 
L 565.284101 -104.187826 
L 569.643727 -104.187826 
L 574.003352 -104.187826 
L 578.362978 -92.253157 
L 582.722604 -76.730134 
L 587.08223 -71.370226 
L 591.441856 -73.400786 
L 595.801482 -71.252584 
L 600.161108 -71.490992 
L 604.520734 -73.967399 
L 608.88036 -83.053783 
L 613.239985 -86.607106 
L 617.599611 -86.689753 
L 621.959237 -81.485369 
L 626.318863 -70.271933 
L 630.678489 -65.091559 
L 635.038115 -60.529089 
L 639.397741 -59.087068 
L 643.757367 -104.187826 
L 648.116993 -104.187826 
L 652.476618 -104.187826 
L 656.836244 -104.187826 
L 661.19587 -104.187826 
L 665.555496 -93.326234 
L 669.915122 -91.260458 
L 674.274748 -86.561583 
L 678.634374 -91.074635 
L 682.994 -93.300216 
L 687.353626 -87.611154 
L 691.713251 -91.391257 
L 696.072877 -103.522292 
L 700.432503 -104.187826 
L 704.792129 -104.187826 
L 709.151755 -104.187826 
L 713.511381 -104.187826 
L 717.871007 -104.187826 
L 722.230633 -104.187826 
L 726.590259 -102.716854 
L 730.949884 -90.194081 
L 735.30951 -94.718007 
L 739.669136 -104.187826 
L 744.028762 -104.187826 
L 748.388388 -104.187826 
L 752.748014 -104.187826 
L 757.10764 -104.187826 
L 761.467266 -104.187826 
L 765.826892 -104.187826 
L 770.186517 -104.187826 
L 774.546143 -104.187826 
L 778.905769 -104.187826 
L 783.265395 -104.187826 
L 787.625021 -104.187826 
L 791.984647 -104.187826 
L 796.344273 -104.187826 
L 800.703899 -104.187826 
L 805.063525 -104.187826 
L 805.063525 -104.187826 
L 805.063525 -104.187826 
L 800.703899 -104.187826 
L 796.344273 -104.187826 
L 791.984647 -104.187826 
L 787.625021 -104.187826 
L 783.265395 -104.187826 
L 778.905769 -104.187826 
L 774.546143 -104.187826 
L 770.186517 -104.187826 
L 765.826892 -104.187826 
L 761.467266 -104.187826 
L 757.10764 -104.187826 
L 752.748014 -104.187826 
L 748.388388 -104.187826 
L 744.028762 -104.187826 
L 739.669136 -104.187826 
L 735.30951 -104.187826 
L 730.949884 -104.187826 
L 726.590259 -104.187826 
L 722.230633 -104.187826 
L 717.871007 -104.187826 
L 713.511381 -104.187826 
L 709.151755 -104.187826 
L 704.792129 -104.187826 
L 700.432503 -104.187826 
L 696.072877 -104.187826 
L 691.713251 -104.187826 
L 687.353626 -104.187826 
L 682.994 -104.187826 
L 678.634374 -104.187826 
L 674.274748 -104.187826 
L 669.915122 -104.187826 
L 665.555496 -104.187826 
L 661.19587 -104.187826 
L 656.836244 -104.187826 
L 652.476618 -104.187826 
L 648.116993 -104.187826 
L 643.757367 -104.187826 
L 639.397741 -104.187826 
L 635.038115 -104.187826 
L 630.678489 -104.187826 
L 626.318863 -104.187826 
L 621.959237 -104.187826 
L 617.599611 -104.187826 
L 613.239985 -104.187826 
L 608.88036 -104.187826 
L 604.520734 -104.187826 
L 600.161108 -104.187826 
L 595.801482 -104.187826 
L 591.441856 -104.187826 
L 587.08223 -104.187826 
L 582.722604 -104.187826 
L 578.362978 -104.187826 
L 574.003352 -104.187826 
L 569.643727 -104.187826 
L 565.284101 -104.187826 
L 560.924475 -104.187826 
L 556.564849 -104.187826 
L 552.205223 -104.187826 
L 547.845597 -104.187826 
L 543.485971 -104.187826 
L 539.126345 -104.187826 
L 534.766719 -104.187826 
L 530.407094 -104.187826 
L 526.047468 -104.187826 
L 521.687842 -104.187826 
L 517.328216 -104.187826 
L 512.96859 -104.187826 
L 508.608964 -104.187826 
L 504.249338 -104.187826 
L 499.889712 -104.187826 
L 495.530086 -104.187826 
L 491.170461 -104.187826 
L 486.810835 -104.187826 
L 482.451209 -104.187826 
L 478.091583 -104.187826 
L 473.731957 -104.187826 
L 469.372331 -104.187826 
L 465.012705 -104.187826 
L 460.653079 -104.187826 
L 456.293453 -104.187826 
L 451.933828 -104.187826 
L 447.574202 -104.187826 
L 443.214576 -104.187826 
L 438.85495 -104.187826 
L 434.495324 -104.187826 
L 430.135698 -104.187826 
L 425.776072 -104.187826 
L 421.416446 -104.187826 
L 417.05682 -104.187826 
L 412.697195 -104.187826 
L 408.337569 -104.187826 
L 403.977943 -104.187826 
L 399.618317 -104.187826 
L 395.258691 -104.187826 
L 390.899065 -104.187826 
L 386.539439 -104.187826 
L 382.179813 -104.187826 
L 377.820187 -104.187826 
L 373.460562 -104.187826 
L 369.100936 -104.187826 
L 364.74131 -104.187826 
L 360.381684 -104.187826 
L 356.022058 -104.187826 
L 351.662432 -104.187826 
L 347.302806 -104.187826 
L 342.94318 -104.187826 
L 338.583554 -104.187826 
L 334.223929 -104.187826 
L 329.864303 -104.187826 
L 325.504677 -104.187826 
L 321.145051 -104.187826 
L 316.785425 -104.187826 
L 312.425799 -104.187826 
L 308.066173 -104.187826 
L 303.706547 -104.187826 
L 299.346921 -104.187826 
L 294.987296 -104.187826 
L 290.62767 -104.187826 
L 286.268044 -104.187826 
L 281.908418 -104.187826 
L 277.548792 -104.187826 
L 273.189166 -104.187826 
L 268.82954 -104.187826 
L 264.469914 -104.187826 
L 260.110288 -104.187826 
L 255.750663 -104.187826 
L 251.391037 -104.187826 
L 247.031411 -104.187826 
L 242.671785 -104.187826 
L 238.312159 -104.187826 
L 233.952533 -104.187826 
L 229.592907 -104.187826 
L 225.233281 -104.187826 
L 220.873655 -104.187826 
L 216.51403 -104.187826 
L 212.154404 -104.187826 
L 207.794778 -104.187826 
L 203.435152 -104.187826 
L 199.075526 -104.187826 
L 194.7159 -104.187826 
L 190.356274 -104.187826 
L 185.996648 -104.187826 
L 181.637022 -104.187826 
L 177.277397 -104.187826 
L 172.917771 -104.187826 
L 168.558145 -104.187826 
L 164.198519 -104.187826 
L 159.838893 -104.187826 
L 155.479267 -104.187826 
L 151.119641 -104.187826 
L 146.760015 -104.187826 
L 142.400389 -104.187826 
L 138.040764 -104.187826 
L 133.681138 -104.187826 
L 129.321512 -104.187826 
L 124.961886 -104.187826 
L 120.60226 -104.187826 
L 116.242634 -104.187826 
L 111.883008 -104.187826 
L 107.523382 -104.187826 
L 103.163757 -104.187826 
L 98.804131 -104.187826 
L 94.444505 -104.187826 
L 90.084879 -104.187826 
L 85.725253 -104.187826 
L 81.365627 -104.187826 
L 77.006001 -104.187826 
z
" style="stroke: #ff0000; stroke-opacity: 0.6"/>
    </defs>
    <g clip-path="url(#p343bfa2bf8)">
     <use xlink:href="#m9b33aa2e3b" x="0" y="280.774375" style="fill: #ff0000; fill-opacity: 0.6; stroke: #ff0000; stroke-opacity: 0.6"/>
    </g>
   </g>
   <g id="matplotlib.axis_1">
    <g id="xtick_1">
     <g id="line2d_1">
      <defs>
       <path id="m32a7713da1" d="M 0 0 
L 0 3.5 
" style="stroke: #000000; stroke-width: 0.8"/>
      </defs>
      <g>
       <use xlink:href="#m32a7713da1" x="77.006001" y="243.218125" style="stroke: #000000; stroke-width: 0.8"/>
      </g>
     </g>
     <g id="text_1">
      <!-- 0 -->
      <g transform="translate(73.824751 257.816562) scale(0.1 -0.1)">
       <defs>
        <path id="DejaVuSans-30" d="M 2034 4250 
Q 1547 4250 1301 3770 
Q 1056 3291 1056 2328 
Q 1056 1369 1301 889 
Q 1547 409 2034 409 
Q 2525 409 2770 889 
Q 3016 1369 3016 2328 
Q 3016 3291 2770 3770 
Q 2525 4250 2034 4250 
z
M 2034 4750 
Q 2819 4750 3233 4129 
Q 3647 3509 3647 2328 
Q 3647 1150 3233 529 
Q 2819 -91 2034 -91 
Q 1250 -91 836 529 
Q 422 1150 422 2328 
Q 422 3509 836 4129 
Q 1250 4750 2034 4750 
z
" transform="scale(0.015625)"/>
       </defs>
       <use xlink:href="#DejaVuSans-30"/>
      </g>
     </g>
    </g>
    <g id="xtick_2">
     <g id="line2d_2">
      <g>
       <use xlink:href="#m32a7713da1" x="185.996648" y="243.218125" style="stroke: #000000; stroke-width: 0.8"/>
      </g>
     </g>
     <g id="text_2">
      <!-- 25 -->
      <g transform="translate(179.634148 257.816562) scale(0.1 -0.1)">
       <defs>
        <path id="DejaVuSans-32" d="M 1228 531 
L 3431 531 
L 3431 0 
L 469 0 
L 469 531 
Q 828 903 1448 1529 
Q 2069 2156 2228 2338 
Q 2531 2678 2651 2914 
Q 2772 3150 2772 3378 
Q 2772 3750 2511 3984 
Q 2250 4219 1831 4219 
Q 1534 4219 1204 4116 
Q 875 4013 500 3803 
L 500 4441 
Q 881 4594 1212 4672 
Q 1544 4750 1819 4750 
Q 2544 4750 2975 4387 
Q 3406 4025 3406 3419 
Q 3406 3131 3298 2873 
Q 3191 2616 2906 2266 
Q 2828 2175 2409 1742 
Q 1991 1309 1228 531 
z
" transform="scale(0.015625)"/>
        <path id="DejaVuSans-35" d="M 691 4666 
L 3169 4666 
L 3169 4134 
L 1269 4134 
L 1269 2991 
Q 1406 3038 1543 3061 
Q 1681 3084 1819 3084 
Q 2600 3084 3056 2656 
Q 3513 2228 3513 1497 
Q 3513 744 3044 326 
Q 2575 -91 1722 -91 
Q 1428 -91 1123 -41 
Q 819 9 494 109 
L 494 744 
Q 775 591 1075 516 
Q 1375 441 1709 441 
Q 2250 441 2565 725 
Q 2881 1009 2881 1497 
Q 2881 1984 2565 2268 
Q 2250 2553 1709 2553 
Q 1456 2553 1204 2497 
Q 953 2441 691 2322 
L 691 4666 
z
" transform="scale(0.015625)"/>
       </defs>
       <use xlink:href="#DejaVuSans-32"/>
       <use xlink:href="#DejaVuSans-35" transform="translate(63.623047 0)"/>
      </g>
     </g>
    </g>
    <g id="xtick_3">
     <g id="line2d_3">
      <g>
       <use xlink:href="#m32a7713da1" x="294.987296" y="243.218125" style="stroke: #000000; stroke-width: 0.8"/>
      </g>
     </g>
     <g id="text_3">
      <!-- 50 -->
      <g transform="translate(288.624796 257.816562) scale(0.1 -0.1)">
       <use xlink:href="#DejaVuSans-35"/>
       <use xlink:href="#DejaVuSans-30" transform="translate(63.623047 0)"/>
      </g>
     </g>
    </g>
    <g id="xtick_4">
     <g id="line2d_4">
      <g>
       <use xlink:href="#m32a7713da1" x="403.977943" y="243.218125" style="stroke: #000000; stroke-width: 0.8"/>
      </g>
     </g>
     <g id="text_4">
      <!-- 75 -->
      <g transform="translate(397.615443 257.816562) scale(0.1 -0.1)">
       <defs>
        <path id="DejaVuSans-37" d="M 525 4666 
L 3525 4666 
L 3525 4397 
L 1831 0 
L 1172 0 
L 2766 4134 
L 525 4134 
L 525 4666 
z
" transform="scale(0.015625)"/>
       </defs>
       <use xlink:href="#DejaVuSans-37"/>
       <use xlink:href="#DejaVuSans-35" transform="translate(63.623047 0)"/>
      </g>
     </g>
    </g>
    <g id="xtick_5">
     <g id="line2d_5">
      <g>
       <use xlink:href="#m32a7713da1" x="512.96859" y="243.218125" style="stroke: #000000; stroke-width: 0.8"/>
      </g>
     </g>
     <g id="text_5">
      <!-- 100 -->
      <g transform="translate(503.42484 257.816562) scale(0.1 -0.1)">
       <defs>
        <path id="DejaVuSans-31" d="M 794 531 
L 1825 531 
L 1825 4091 
L 703 3866 
L 703 4441 
L 1819 4666 
L 2450 4666 
L 2450 531 
L 3481 531 
L 3481 0 
L 794 0 
L 794 531 
z
" transform="scale(0.015625)"/>
       </defs>
       <use xlink:href="#DejaVuSans-31"/>
       <use xlink:href="#DejaVuSans-30" transform="translate(63.623047 0)"/>
       <use xlink:href="#DejaVuSans-30" transform="translate(127.246094 0)"/>
      </g>
     </g>
    </g>
    <g id="xtick_6">
     <g id="line2d_6">
      <g>
       <use xlink:href="#m32a7713da1" x="621.959237" y="243.218125" style="stroke: #000000; stroke-width: 0.8"/>
      </g>
     </g>
     <g id="text_6">
      <!-- 125 -->
      <g transform="translate(612.415487 257.816562) scale(0.1 -0.1)">
       <use xlink:href="#DejaVuSans-31"/>
       <use xlink:href="#DejaVuSans-32" transform="translate(63.623047 0)"/>
       <use xlink:href="#DejaVuSans-35" transform="translate(127.246094 0)"/>
      </g>
     </g>
    </g>
    <g id="xtick_7">
     <g id="line2d_7">
      <g>
       <use xlink:href="#m32a7713da1" x="730.949884" y="243.218125" style="stroke: #000000; stroke-width: 0.8"/>
      </g>
     </g>
     <g id="text_7">
      <!-- 150 -->
      <g transform="translate(721.406134 257.816562) scale(0.1 -0.1)">
       <use xlink:href="#DejaVuSans-31"/>
       <use xlink:href="#DejaVuSans-35" transform="translate(63.623047 0)"/>
       <use xlink:href="#DejaVuSans-30" transform="translate(127.246094 0)"/>
      </g>
     </g>
    </g>
    <g id="xtick_8">
     <g id="line2d_8">
      <g>
       <use xlink:href="#m32a7713da1" x="839.940532" y="243.218125" style="stroke: #000000; stroke-width: 0.8"/>
      </g>
     </g>
     <g id="text_8">
      <!-- 175 -->
      <g transform="translate(830.396782 257.816562) scale(0.1 -0.1)">
       <use xlink:href="#DejaVuSans-31"/>
       <use xlink:href="#DejaVuSans-37" transform="translate(63.623047 0)"/>
       <use xlink:href="#DejaVuSans-35" transform="translate(127.246094 0)"/>
      </g>
     </g>
    </g>
    <g id="text_9">
     <!-- Hours -->
     <g transform="translate(426.386325 271.494687) scale(0.1 -0.1)">
      <defs>
       <path id="DejaVuSans-48" d="M 628 4666 
L 1259 4666 
L 1259 2753 
L 3553 2753 
L 3553 4666 
L 4184 4666 
L 4184 0 
L 3553 0 
L 3553 2222 
L 1259 2222 
L 1259 0 
L 628 0 
L 628 4666 
z
" transform="scale(0.015625)"/>
       <path id="DejaVuSans-6f" d="M 1959 3097 
Q 1497 3097 1228 2736 
Q 959 2375 959 1747 
Q 959 1119 1226 758 
Q 1494 397 1959 397 
Q 2419 397 2687 759 
Q 2956 1122 2956 1747 
Q 2956 2369 2687 2733 
Q 2419 3097 1959 3097 
z
M 1959 3584 
Q 2709 3584 3137 3096 
Q 3566 2609 3566 1747 
Q 3566 888 3137 398 
Q 2709 -91 1959 -91 
Q 1206 -91 779 398 
Q 353 888 353 1747 
Q 353 2609 779 3096 
Q 1206 3584 1959 3584 
z
" transform="scale(0.015625)"/>
       <path id="DejaVuSans-75" d="M 544 1381 
L 544 3500 
L 1119 3500 
L 1119 1403 
Q 1119 906 1312 657 
Q 1506 409 1894 409 
Q 2359 409 2629 706 
Q 2900 1003 2900 1516 
L 2900 3500 
L 3475 3500 
L 3475 0 
L 2900 0 
L 2900 538 
Q 2691 219 2414 64 
Q 2138 -91 1772 -91 
Q 1169 -91 856 284 
Q 544 659 544 1381 
z
M 1991 3584 
L 1991 3584 
z
" transform="scale(0.015625)"/>
       <path id="DejaVuSans-72" d="M 2631 2963 
Q 2534 3019 2420 3045 
Q 2306 3072 2169 3072 
Q 1681 3072 1420 2755 
Q 1159 2438 1159 1844 
L 1159 0 
L 581 0 
L 581 3500 
L 1159 3500 
L 1159 2956 
Q 1341 3275 1631 3429 
Q 1922 3584 2338 3584 
Q 2397 3584 2469 3576 
Q 2541 3569 2628 3553 
L 2631 2963 
z
" transform="scale(0.015625)"/>
       <path id="DejaVuSans-73" d="M 2834 3397 
L 2834 2853 
Q 2591 2978 2328 3040 
Q 2066 3103 1784 3103 
Q 1356 3103 1142 2972 
Q 928 2841 928 2578 
Q 928 2378 1081 2264 
Q 1234 2150 1697 2047 
L 1894 2003 
Q 2506 1872 2764 1633 
Q 3022 1394 3022 966 
Q 3022 478 2636 193 
Q 2250 -91 1575 -91 
Q 1294 -91 989 -36 
Q 684 19 347 128 
L 347 722 
Q 666 556 975 473 
Q 1284 391 1588 391 
Q 1994 391 2212 530 
Q 2431 669 2431 922 
Q 2431 1156 2273 1281 
Q 2116 1406 1581 1522 
L 1381 1569 
Q 847 1681 609 1914 
Q 372 2147 372 2553 
Q 372 3047 722 3315 
Q 1072 3584 1716 3584 
Q 2034 3584 2315 3537 
Q 2597 3491 2834 3397 
z
" transform="scale(0.015625)"/>
      </defs>
      <use xlink:href="#DejaVuSans-48"/>
      <use xlink:href="#DejaVuSans-6f" transform="translate(75.195312 0)"/>
      <use xlink:href="#DejaVuSans-75" transform="translate(136.376953 0)"/>
      <use xlink:href="#DejaVuSans-72" transform="translate(199.755859 0)"/>
      <use xlink:href="#DejaVuSans-73" transform="translate(240.869141 0)"/>
     </g>
    </g>
   </g>
   <g id="matplotlib.axis_2">
    <g id="ytick_1">
     <g id="line2d_9">
      <defs>
       <path id="m0c2546c147" d="M 0 0 
L -3.5 0 
" style="stroke: #000000; stroke-width: 0.8"/>
      </defs>
      <g>
       <use xlink:href="#m0c2546c147" x="40.603125" y="233.177216" style="stroke: #000000; stroke-width: 0.8"/>
      </g>
     </g>
     <g id="text_10">
      <!-- 0 -->
      <g transform="translate(27.240625 236.976435) scale(0.1 -0.1)">
       <use xlink:href="#DejaVuSans-30"/>
      </g>
     </g>
    </g>
    <g id="ytick_2">
     <g id="line2d_10">
      <g>
       <use xlink:href="#m0c2546c147" x="40.603125" y="187.904682" style="stroke: #000000; stroke-width: 0.8"/>
      </g>
     </g>
     <g id="text_11">
      <!-- 20 -->
      <g transform="translate(20.878125 191.703901) scale(0.1 -0.1)">
       <use xlink:href="#DejaVuSans-32"/>
       <use xlink:href="#DejaVuSans-30" transform="translate(63.623047 0)"/>
      </g>
     </g>
    </g>
    <g id="ytick_3">
     <g id="line2d_11">
      <g>
       <use xlink:href="#m0c2546c147" x="40.603125" y="142.632149" style="stroke: #000000; stroke-width: 0.8"/>
      </g>
     </g>
     <g id="text_12">
      <!-- 40 -->
      <g transform="translate(20.878125 146.431368) scale(0.1 -0.1)">
       <defs>
        <path id="DejaVuSans-34" d="M 2419 4116 
L 825 1625 
L 2419 1625 
L 2419 4116 
z
M 2253 4666 
L 3047 4666 
L 3047 1625 
L 3713 1625 
L 3713 1100 
L 3047 1100 
L 3047 0 
L 2419 0 
L 2419 1100 
L 313 1100 
L 313 1709 
L 2253 4666 
z
" transform="scale(0.015625)"/>
       </defs>
       <use xlink:href="#DejaVuSans-34"/>
       <use xlink:href="#DejaVuSans-30" transform="translate(63.623047 0)"/>
      </g>
     </g>
    </g>
    <g id="ytick_4">
     <g id="line2d_12">
      <g>
       <use xlink:href="#m0c2546c147" x="40.603125" y="97.359615" style="stroke: #000000; stroke-width: 0.8"/>
      </g>
     </g>
     <g id="text_13">
      <!-- 60 -->
      <g transform="translate(20.878125 101.158834) scale(0.1 -0.1)">
       <defs>
        <path id="DejaVuSans-36" d="M 2113 2584 
Q 1688 2584 1439 2293 
Q 1191 2003 1191 1497 
Q 1191 994 1439 701 
Q 1688 409 2113 409 
Q 2538 409 2786 701 
Q 3034 994 3034 1497 
Q 3034 2003 2786 2293 
Q 2538 2584 2113 2584 
z
M 3366 4563 
L 3366 3988 
Q 3128 4100 2886 4159 
Q 2644 4219 2406 4219 
Q 1781 4219 1451 3797 
Q 1122 3375 1075 2522 
Q 1259 2794 1537 2939 
Q 1816 3084 2150 3084 
Q 2853 3084 3261 2657 
Q 3669 2231 3669 1497 
Q 3669 778 3244 343 
Q 2819 -91 2113 -91 
Q 1303 -91 875 529 
Q 447 1150 447 2328 
Q 447 3434 972 4092 
Q 1497 4750 2381 4750 
Q 2619 4750 2861 4703 
Q 3103 4656 3366 4563 
z
" transform="scale(0.015625)"/>
       </defs>
       <use xlink:href="#DejaVuSans-36"/>
       <use xlink:href="#DejaVuSans-30" transform="translate(63.623047 0)"/>
      </g>
     </g>
    </g>
    <g id="ytick_5">
     <g id="line2d_13">
      <g>
       <use xlink:href="#m0c2546c147" x="40.603125" y="52.087082" style="stroke: #000000; stroke-width: 0.8"/>
      </g>
     </g>
     <g id="text_14">
      <!-- 80 -->
      <g transform="translate(20.878125 55.8863) scale(0.1 -0.1)">
       <defs>
        <path id="DejaVuSans-38" d="M 2034 2216 
Q 1584 2216 1326 1975 
Q 1069 1734 1069 1313 
Q 1069 891 1326 650 
Q 1584 409 2034 409 
Q 2484 409 2743 651 
Q 3003 894 3003 1313 
Q 3003 1734 2745 1975 
Q 2488 2216 2034 2216 
z
M 1403 2484 
Q 997 2584 770 2862 
Q 544 3141 544 3541 
Q 544 4100 942 4425 
Q 1341 4750 2034 4750 
Q 2731 4750 3128 4425 
Q 3525 4100 3525 3541 
Q 3525 3141 3298 2862 
Q 3072 2584 2669 2484 
Q 3125 2378 3379 2068 
Q 3634 1759 3634 1313 
Q 3634 634 3220 271 
Q 2806 -91 2034 -91 
Q 1263 -91 848 271 
Q 434 634 434 1313 
Q 434 1759 690 2068 
Q 947 2378 1403 2484 
z
M 1172 3481 
Q 1172 3119 1398 2916 
Q 1625 2713 2034 2713 
Q 2441 2713 2670 2916 
Q 2900 3119 2900 3481 
Q 2900 3844 2670 4047 
Q 2441 4250 2034 4250 
Q 1625 4250 1398 4047 
Q 1172 3844 1172 3481 
z
" transform="scale(0.015625)"/>
       </defs>
       <use xlink:href="#DejaVuSans-38"/>
       <use xlink:href="#DejaVuSans-30" transform="translate(63.623047 0)"/>
      </g>
     </g>
    </g>
    <g id="text_15">
     <!-- Power (MW) -->
     <g transform="translate(14.798438 162.630625) rotate(-90) scale(0.1 -0.1)">
      <defs>
       <path id="DejaVuSans-50" d="M 1259 4147 
L 1259 2394 
L 2053 2394 
Q 2494 2394 2734 2622 
Q 2975 2850 2975 3272 
Q 2975 3691 2734 3919 
Q 2494 4147 2053 4147 
L 1259 4147 
z
M 628 4666 
L 2053 4666 
Q 2838 4666 3239 4311 
Q 3641 3956 3641 3272 
Q 3641 2581 3239 2228 
Q 2838 1875 2053 1875 
L 1259 1875 
L 1259 0 
L 628 0 
L 628 4666 
z
" transform="scale(0.015625)"/>
       <path id="DejaVuSans-77" d="M 269 3500 
L 844 3500 
L 1563 769 
L 2278 3500 
L 2956 3500 
L 3675 769 
L 4391 3500 
L 4966 3500 
L 4050 0 
L 3372 0 
L 2619 2869 
L 1863 0 
L 1184 0 
L 269 3500 
z
" transform="scale(0.015625)"/>
       <path id="DejaVuSans-65" d="M 3597 1894 
L 3597 1613 
L 953 1613 
Q 991 1019 1311 708 
Q 1631 397 2203 397 
Q 2534 397 2845 478 
Q 3156 559 3463 722 
L 3463 178 
Q 3153 47 2828 -22 
Q 2503 -91 2169 -91 
Q 1331 -91 842 396 
Q 353 884 353 1716 
Q 353 2575 817 3079 
Q 1281 3584 2069 3584 
Q 2775 3584 3186 3129 
Q 3597 2675 3597 1894 
z
M 3022 2063 
Q 3016 2534 2758 2815 
Q 2500 3097 2075 3097 
Q 1594 3097 1305 2825 
Q 1016 2553 972 2059 
L 3022 2063 
z
" transform="scale(0.015625)"/>
       <path id="DejaVuSans-20" transform="scale(0.015625)"/>
       <path id="DejaVuSans-28" d="M 1984 4856 
Q 1566 4138 1362 3434 
Q 1159 2731 1159 2009 
Q 1159 1288 1364 580 
Q 1569 -128 1984 -844 
L 1484 -844 
Q 1016 -109 783 600 
Q 550 1309 550 2009 
Q 550 2706 781 3412 
Q 1013 4119 1484 4856 
L 1984 4856 
z
" transform="scale(0.015625)"/>
       <path id="DejaVuSans-4d" d="M 628 4666 
L 1569 4666 
L 2759 1491 
L 3956 4666 
L 4897 4666 
L 4897 0 
L 4281 0 
L 4281 4097 
L 3078 897 
L 2444 897 
L 1241 4097 
L 1241 0 
L 628 0 
L 628 4666 
z
" transform="scale(0.015625)"/>
       <path id="DejaVuSans-57" d="M 213 4666 
L 850 4666 
L 1831 722 
L 2809 4666 
L 3519 4666 
L 4500 722 
L 5478 4666 
L 6119 4666 
L 4947 0 
L 4153 0 
L 3169 4050 
L 2175 0 
L 1381 0 
L 213 4666 
z
" transform="scale(0.015625)"/>
       <path id="DejaVuSans-29" d="M 513 4856 
L 1013 4856 
Q 1481 4119 1714 3412 
Q 1947 2706 1947 2009 
Q 1947 1309 1714 600 
Q 1481 -109 1013 -844 
L 513 -844 
Q 928 -128 1133 580 
Q 1338 1288 1338 2009 
Q 1338 2731 1133 3434 
Q 928 4138 513 4856 
z
" transform="scale(0.015625)"/>
      </defs>
      <use xlink:href="#DejaVuSans-50"/>
      <use xlink:href="#DejaVuSans-6f" transform="translate(56.677734 0)"/>
      <use xlink:href="#DejaVuSans-77" transform="translate(117.859375 0)"/>
      <use xlink:href="#DejaVuSans-65" transform="translate(199.646484 0)"/>
      <use xlink:href="#DejaVuSans-72" transform="translate(261.169922 0)"/>
      <use xlink:href="#DejaVuSans-20" transform="translate(302.283203 0)"/>
      <use xlink:href="#DejaVuSans-28" transform="translate(334.070312 0)"/>
      <use xlink:href="#DejaVuSans-4d" transform="translate(373.083984 0)"/>
      <use xlink:href="#DejaVuSans-57" transform="translate(459.363281 0)"/>
      <use xlink:href="#DejaVuSans-29" transform="translate(558.240234 0)"/>
     </g>
    </g>
   </g>
   <g id="line2d_14">
    <path d="M 77.006001 182.789807 
L 81.365627 182.610144 
L 85.725253 173.393516 
L 90.084879 157.751177 
L 94.444505 150.097504 
L 98.804131 151.287283 
L 103.163757 149.779402 
L 107.523382 146.061475 
L 111.883008 157.95567 
L 116.242634 161.665565 
L 120.60226 173.572948 
L 124.961886 165.809164 
L 129.321512 159.709195 
L 133.681138 134.034148 
L 138.040764 124.575734 
L 142.400389 157.32755 
L 146.760015 175.077538 
L 151.119641 175.382026 
L 155.479267 163.856763 
L 159.838893 169.917681 
L 164.198519 182.504569 
L 168.558145 187.047364 
L 172.917771 193.336884 
L 177.277397 190.532577 
L 181.637022 192.604395 
L 185.996648 190.256559 
L 190.356274 185.081574 
L 194.7159 187.650289 
L 199.075526 183.83209 
L 203.435152 186.784054 
L 207.794778 179.649196 
L 212.154404 168.120719 
L 220.873655 163.182479 
L 225.233281 124.791767 
L 229.592907 93.893665 
L 233.952533 37.340564 
L 238.312159 33.466939 
L 242.671785 50.93884 
L 247.031411 133.17121 
L 251.391037 136.421853 
L 255.750663 142.670185 
L 260.110288 141.505669 
L 264.469914 145.643558 
L 268.82954 156.309586 
L 273.189166 163.474449 
L 277.548792 164.545521 
L 281.908418 152.086816 
L 286.268044 151.036964 
L 290.62767 145.028347 
L 299.346921 148.02651 
L 303.706547 144.150158 
L 308.066173 143.460796 
L 312.425799 138.638076 
L 316.785425 132.176466 
L 321.145051 122.392504 
L 325.504677 120.252983 
L 329.864303 120.049885 
L 347.302806 120.009136 
L 373.460562 119.995897 
L 430.135698 120.030626 
L 434.495324 90.081314 
L 438.85495 79.21183 
L 443.214576 67.609227 
L 447.574202 34.458697 
L 451.933828 32.359034 
L 456.293453 119.370357 
L 460.653079 120.094585 
L 465.012705 120.209103 
L 469.372331 120.096484 
L 482.451209 120.625656 
L 486.810835 120.463694 
L 491.170461 120.803028 
L 495.530086 128.056892 
L 499.889712 125.322262 
L 504.249338 145.349353 
L 508.608964 190.114693 
L 512.96859 129.067771 
L 517.328216 119.999103 
L 521.687842 120.001104 
L 526.047468 120.201305 
L 530.407094 125.29223 
L 534.766719 156.724575 
L 539.126345 171.889251 
L 543.485971 153.361929 
L 547.845597 83.878251 
L 552.205223 41.853508 
L 556.564849 53.009498 
L 560.924475 120.024562 
L 565.284101 120.030417 
L 569.643727 122.255923 
L 574.003352 151.44241 
L 578.362978 181.822818 
L 582.722604 199.674295 
L 587.08223 205.838189 
L 591.441856 203.503045 
L 595.801482 205.973477 
L 600.161108 205.699309 
L 604.520734 202.85144 
L 608.88036 192.402098 
L 613.239985 188.315777 
L 617.599611 188.220733 
L 621.959237 194.205774 
L 626.318863 207.101226 
L 630.678489 213.058657 
L 635.038115 218.305497 
L 639.397741 219.96382 
L 643.757367 166.599456 
L 648.116993 110.123718 
L 652.476618 71.321858 
L 656.836244 49.799361 
L 661.19587 73.433483 
L 665.555496 180.588779 
L 669.915122 182.964422 
L 674.274748 188.368129 
L 678.634374 183.178119 
L 682.994 180.618701 
L 687.353626 187.161122 
L 691.713251 182.814003 
L 696.072877 168.863313 
L 700.432503 150.5847 
L 704.792129 148.753017 
L 709.151755 149.430236 
L 713.511381 158.332446 
L 717.871007 158.651441 
L 722.230633 155.301037 
L 730.949884 184.190755 
L 735.30951 178.988241 
L 739.669136 152.576826 
L 744.028762 161.289559 
L 748.388388 138.269803 
L 752.748014 126.224169 
L 757.10764 111.126518 
L 761.467266 112.66221 
L 765.826892 60.710785 
L 770.186517 124.139151 
L 774.546143 127.039051 
L 778.905769 128.161325 
L 783.265395 130.363428 
L 787.625021 136.3027 
L 791.984647 133.475956 
L 796.344273 133.766755 
L 800.703899 137.479857 
L 805.063525 134.391709 
L 805.063525 134.391709 
" clip-path="url(#p343bfa2bf8)" style="fill: none; stroke: #000000; stroke-opacity: 0.5; stroke-width: 1.5; stroke-linecap: square"/>
   </g>
   <g id="line2d_15">
    <path d="M 40.603125 176.586549 
L 841.466401 176.586549 
" clip-path="url(#p343bfa2bf8)" style="fill: none; stroke-dasharray: 1.5,2.475; stroke-dashoffset: 0; stroke: #ff0000; stroke-width: 1.5"/>
   </g>
   <g id="patch_3">
    <path d="M 40.603125 243.218125 
L 40.603125 22.318125 
" style="fill: none; stroke: #000000; stroke-width: 0.8; stroke-linejoin: miter; stroke-linecap: square"/>
   </g>
   <g id="patch_4">
    <path d="M 841.466401 243.218125 
L 841.466401 22.318125 
" style="fill: none; stroke: #000000; stroke-width: 0.8; stroke-linejoin: miter; stroke-linecap: square"/>
   </g>
   <g id="patch_5">
    <path d="M 40.603125 243.218125 
L 841.466401 243.218125 
" style="fill: none; stroke: #000000; stroke-width: 0.8; stroke-linejoin: miter; stroke-linecap: square"/>
   </g>
   <g id="patch_6">
    <path d="M 40.603125 22.318125 
L 841.466401 22.318125 
" style="fill: none; stroke: #000000; stroke-width: 0.8; stroke-linejoin: miter; stroke-linecap: square"/>
   </g>
   <g id="text_16">
    <!-- Plot 2b: Firm 25 MW load (tier A) WITHOUT Battery -->
    <g transform="translate(288.630075 16.318125) scale(0.12 -0.12)">
     <defs>
      <path id="DejaVuSans-6c" d="M 603 4863 
L 1178 4863 
L 1178 0 
L 603 0 
L 603 4863 
z
" transform="scale(0.015625)"/>
      <path id="DejaVuSans-74" d="M 1172 4494 
L 1172 3500 
L 2356 3500 
L 2356 3053 
L 1172 3053 
L 1172 1153 
Q 1172 725 1289 603 
Q 1406 481 1766 481 
L 2356 481 
L 2356 0 
L 1766 0 
Q 1100 0 847 248 
Q 594 497 594 1153 
L 594 3053 
L 172 3053 
L 172 3500 
L 594 3500 
L 594 4494 
L 1172 4494 
z
" transform="scale(0.015625)"/>
      <path id="DejaVuSans-62" d="M 3116 1747 
Q 3116 2381 2855 2742 
Q 2594 3103 2138 3103 
Q 1681 3103 1420 2742 
Q 1159 2381 1159 1747 
Q 1159 1113 1420 752 
Q 1681 391 2138 391 
Q 2594 391 2855 752 
Q 3116 1113 3116 1747 
z
M 1159 2969 
Q 1341 3281 1617 3432 
Q 1894 3584 2278 3584 
Q 2916 3584 3314 3078 
Q 3713 2572 3713 1747 
Q 3713 922 3314 415 
Q 2916 -91 2278 -91 
Q 1894 -91 1617 61 
Q 1341 213 1159 525 
L 1159 0 
L 581 0 
L 581 4863 
L 1159 4863 
L 1159 2969 
z
" transform="scale(0.015625)"/>
      <path id="DejaVuSans-3a" d="M 750 794 
L 1409 794 
L 1409 0 
L 750 0 
L 750 794 
z
M 750 3309 
L 1409 3309 
L 1409 2516 
L 750 2516 
L 750 3309 
z
" transform="scale(0.015625)"/>
      <path id="DejaVuSans-46" d="M 628 4666 
L 3309 4666 
L 3309 4134 
L 1259 4134 
L 1259 2759 
L 3109 2759 
L 3109 2228 
L 1259 2228 
L 1259 0 
L 628 0 
L 628 4666 
z
" transform="scale(0.015625)"/>
      <path id="DejaVuSans-69" d="M 603 3500 
L 1178 3500 
L 1178 0 
L 603 0 
L 603 3500 
z
M 603 4863 
L 1178 4863 
L 1178 4134 
L 603 4134 
L 603 4863 
z
" transform="scale(0.015625)"/>
      <path id="DejaVuSans-6d" d="M 3328 2828 
Q 3544 3216 3844 3400 
Q 4144 3584 4550 3584 
Q 5097 3584 5394 3201 
Q 5691 2819 5691 2113 
L 5691 0 
L 5113 0 
L 5113 2094 
Q 5113 2597 4934 2840 
Q 4756 3084 4391 3084 
Q 3944 3084 3684 2787 
Q 3425 2491 3425 1978 
L 3425 0 
L 2847 0 
L 2847 2094 
Q 2847 2600 2669 2842 
Q 2491 3084 2119 3084 
Q 1678 3084 1418 2786 
Q 1159 2488 1159 1978 
L 1159 0 
L 581 0 
L 581 3500 
L 1159 3500 
L 1159 2956 
Q 1356 3278 1631 3431 
Q 1906 3584 2284 3584 
Q 2666 3584 2933 3390 
Q 3200 3197 3328 2828 
z
" transform="scale(0.015625)"/>
      <path id="DejaVuSans-61" d="M 2194 1759 
Q 1497 1759 1228 1600 
Q 959 1441 959 1056 
Q 959 750 1161 570 
Q 1363 391 1709 391 
Q 2188 391 2477 730 
Q 2766 1069 2766 1631 
L 2766 1759 
L 2194 1759 
z
M 3341 1997 
L 3341 0 
L 2766 0 
L 2766 531 
Q 2569 213 2275 61 
Q 1981 -91 1556 -91 
Q 1019 -91 701 211 
Q 384 513 384 1019 
Q 384 1609 779 1909 
Q 1175 2209 1959 2209 
L 2766 2209 
L 2766 2266 
Q 2766 2663 2505 2880 
Q 2244 3097 1772 3097 
Q 1472 3097 1187 3025 
Q 903 2953 641 2809 
L 641 3341 
Q 956 3463 1253 3523 
Q 1550 3584 1831 3584 
Q 2591 3584 2966 3190 
Q 3341 2797 3341 1997 
z
" transform="scale(0.015625)"/>
      <path id="DejaVuSans-64" d="M 2906 2969 
L 2906 4863 
L 3481 4863 
L 3481 0 
L 2906 0 
L 2906 525 
Q 2725 213 2448 61 
Q 2172 -91 1784 -91 
Q 1150 -91 751 415 
Q 353 922 353 1747 
Q 353 2572 751 3078 
Q 1150 3584 1784 3584 
Q 2172 3584 2448 3432 
Q 2725 3281 2906 2969 
z
M 947 1747 
Q 947 1113 1208 752 
Q 1469 391 1925 391 
Q 2381 391 2643 752 
Q 2906 1113 2906 1747 
Q 2906 2381 2643 2742 
Q 2381 3103 1925 3103 
Q 1469 3103 1208 2742 
Q 947 2381 947 1747 
z
" transform="scale(0.015625)"/>
      <path id="DejaVuSans-41" d="M 2188 4044 
L 1331 1722 
L 3047 1722 
L 2188 4044 
z
M 1831 4666 
L 2547 4666 
L 4325 0 
L 3669 0 
L 3244 1197 
L 1141 1197 
L 716 0 
L 50 0 
L 1831 4666 
z
" transform="scale(0.015625)"/>
      <path id="DejaVuSans-49" d="M 628 4666 
L 1259 4666 
L 1259 0 
L 628 0 
L 628 4666 
z
" transform="scale(0.015625)"/>
      <path id="DejaVuSans-54" d="M -19 4666 
L 3928 4666 
L 3928 4134 
L 2272 4134 
L 2272 0 
L 1638 0 
L 1638 4134 
L -19 4134 
L -19 4666 
z
" transform="scale(0.015625)"/>
      <path id="DejaVuSans-4f" d="M 2522 4238 
Q 1834 4238 1429 3725 
Q 1025 3213 1025 2328 
Q 1025 1447 1429 934 
Q 1834 422 2522 422 
Q 3209 422 3611 934 
Q 4013 1447 4013 2328 
Q 4013 3213 3611 3725 
Q 3209 4238 2522 4238 
z
M 2522 4750 
Q 3503 4750 4090 4092 
Q 4678 3434 4678 2328 
Q 4678 1225 4090 567 
Q 3503 -91 2522 -91 
Q 1538 -91 948 565 
Q 359 1222 359 2328 
Q 359 3434 948 4092 
Q 1538 4750 2522 4750 
z
" transform="scale(0.015625)"/>
      <path id="DejaVuSans-55" d="M 556 4666 
L 1191 4666 
L 1191 1831 
Q 1191 1081 1462 751 
Q 1734 422 2344 422 
Q 2950 422 3222 751 
Q 3494 1081 3494 1831 
L 3494 4666 
L 4128 4666 
L 4128 1753 
Q 4128 841 3676 375 
Q 3225 -91 2344 -91 
Q 1459 -91 1007 375 
Q 556 841 556 1753 
L 556 4666 
z
" transform="scale(0.015625)"/>
      <path id="DejaVuSans-42" d="M 1259 2228 
L 1259 519 
L 2272 519 
Q 2781 519 3026 730 
Q 3272 941 3272 1375 
Q 3272 1813 3026 2020 
Q 2781 2228 2272 2228 
L 1259 2228 
z
M 1259 4147 
L 1259 2741 
L 2194 2741 
Q 2656 2741 2882 2914 
Q 3109 3088 3109 3444 
Q 3109 3797 2882 3972 
Q 2656 4147 2194 4147 
L 1259 4147 
z
M 628 4666 
L 2241 4666 
Q 2963 4666 3353 4366 
Q 3744 4066 3744 3513 
Q 3744 3084 3544 2831 
Q 3344 2578 2956 2516 
Q 3422 2416 3680 2098 
Q 3938 1781 3938 1306 
Q 3938 681 3513 340 
Q 3088 0 2303 0 
L 628 0 
L 628 4666 
z
" transform="scale(0.015625)"/>
      <path id="DejaVuSans-79" d="M 2059 -325 
Q 1816 -950 1584 -1140 
Q 1353 -1331 966 -1331 
L 506 -1331 
L 506 -850 
L 844 -850 
Q 1081 -850 1212 -737 
Q 1344 -625 1503 -206 
L 1606 56 
L 191 3500 
L 800 3500 
L 1894 763 
L 2988 3500 
L 3597 3500 
L 2059 -325 
z
" transform="scale(0.015625)"/>
     </defs>
     <use xlink:href="#DejaVuSans-50"/>
     <use xlink:href="#DejaVuSans-6c" transform="translate(60.302734 0)"/>
     <use xlink:href="#DejaVuSans-6f" transform="translate(88.085938 0)"/>
     <use xlink:href="#DejaVuSans-74" transform="translate(149.267578 0)"/>
     <use xlink:href="#DejaVuSans-20" transform="translate(188.476562 0)"/>
     <use xlink:href="#DejaVuSans-32" transform="translate(220.263672 0)"/>
     <use xlink:href="#DejaVuSans-62" transform="translate(283.886719 0)"/>
     <use xlink:href="#DejaVuSans-3a" transform="translate(347.363281 0)"/>
     <use xlink:href="#DejaVuSans-20" transform="translate(381.054688 0)"/>
     <use xlink:href="#DejaVuSans-46" transform="translate(412.841797 0)"/>
     <use xlink:href="#DejaVuSans-69" transform="translate(463.111328 0)"/>
     <use xlink:href="#DejaVuSans-72" transform="translate(490.894531 0)"/>
     <use xlink:href="#DejaVuSans-6d" transform="translate(530.257812 0)"/>
     <use xlink:href="#DejaVuSans-20" transform="translate(627.669922 0)"/>
     <use xlink:href="#DejaVuSans-32" transform="translate(659.457031 0)"/>
     <use xlink:href="#DejaVuSans-35" transform="translate(723.080078 0)"/>
     <use xlink:href="#DejaVuSans-20" transform="translate(786.703125 0)"/>
     <use xlink:href="#DejaVuSans-4d" transform="translate(818.490234 0)"/>
     <use xlink:href="#DejaVuSans-57" transform="translate(904.769531 0)"/>
     <use xlink:href="#DejaVuSans-20" transform="translate(1003.646484 0)"/>
     <use xlink:href="#DejaVuSans-6c" transform="translate(1035.433594 0)"/>
     <use xlink:href="#DejaVuSans-6f" transform="translate(1063.216797 0)"/>
     <use xlink:href="#DejaVuSans-61" transform="translate(1124.398438 0)"/>
     <use xlink:href="#DejaVuSans-64" transform="translate(1185.677734 0)"/>
     <use xlink:href="#DejaVuSans-20" transform="translate(1249.154297 0)"/>
     <use xlink:href="#DejaVuSans-28" transform="translate(1280.941406 0)"/>
     <use xlink:href="#DejaVuSans-74" transform="translate(1319.955078 0)"/>
     <use xlink:href="#DejaVuSans-69" transform="translate(1359.164062 0)"/>
     <use xlink:href="#DejaVuSans-65" transform="translate(1386.947266 0)"/>
     <use xlink:href="#DejaVuSans-72" transform="translate(1448.470703 0)"/>
     <use xlink:href="#DejaVuSans-20" transform="translate(1489.583984 0)"/>
     <use xlink:href="#DejaVuSans-41" transform="translate(1521.371094 0)"/>
     <use xlink:href="#DejaVuSans-29" transform="translate(1589.779297 0)"/>
     <use xlink:href="#DejaVuSans-20" transform="translate(1628.792969 0)"/>
     <use xlink:href="#DejaVuSans-57" transform="translate(1660.580078 0)"/>
     <use xlink:href="#DejaVuSans-49" transform="translate(1759.457031 0)"/>
     <use xlink:href="#DejaVuSans-54" transform="translate(1788.949219 0)"/>
     <use xlink:href="#DejaVuSans-48" transform="translate(1850.033203 0)"/>
     <use xlink:href="#DejaVuSans-4f" transform="translate(1925.228516 0)"/>
     <use xlink:href="#DejaVuSans-55" transform="translate(2003.939453 0)"/>
     <use xlink:href="#DejaVuSans-54" transform="translate(2077.132812 0)"/>
     <use xlink:href="#DejaVuSans-20" transform="translate(2138.216797 0)"/>
     <use xlink:href="#DejaVuSans-42" transform="translate(2170.003906 0)"/>
     <use xlink:href="#DejaVuSans-61" transform="translate(2238.607422 0)"/>
     <use xlink:href="#DejaVuSans-74" transform="translate(2299.886719 0)"/>
     <use xlink:href="#DejaVuSans-74" transform="translate(2339.095703 0)"/>
     <use xlink:href="#DejaVuSans-65" transform="translate(2378.304688 0)"/>
     <use xlink:href="#DejaVuSans-72" transform="translate(2439.828125 0)"/>
     <use xlink:href="#DejaVuSans-79" transform="translate(2480.941406 0)"/>
    </g>
   </g>
   <g id="legend_1">
    <g id="patch_7">
     <path d="M 47.603125 89.030625 
L 214.4625 89.030625 
Q 216.4625 89.030625 216.4625 87.030625 
L 216.4625 29.318125 
Q 216.4625 27.318125 214.4625 27.318125 
L 47.603125 27.318125 
Q 45.603125 27.318125 45.603125 29.318125 
L 45.603125 87.030625 
Q 45.603125 89.030625 47.603125 89.030625 
z
" style="fill: #ffffff; opacity: 0.8; stroke: #cccccc; stroke-linejoin: miter"/>
    </g>
    <g id="line2d_16">
     <path d="M 49.603125 35.416562 
L 59.603125 35.416562 
L 69.603125 35.416562 
" style="fill: none; stroke: #000000; stroke-opacity: 0.5; stroke-width: 1.5; stroke-linecap: square"/>
    </g>
    <g id="text_17">
     <!-- Total Generation -->
     <g transform="translate(77.603125 38.916562) scale(0.1 -0.1)">
      <defs>
       <path id="DejaVuSans-47" d="M 3809 666 
L 3809 1919 
L 2778 1919 
L 2778 2438 
L 4434 2438 
L 4434 434 
Q 4069 175 3628 42 
Q 3188 -91 2688 -91 
Q 1594 -91 976 548 
Q 359 1188 359 2328 
Q 359 3472 976 4111 
Q 1594 4750 2688 4750 
Q 3144 4750 3555 4637 
Q 3966 4525 4313 4306 
L 4313 3634 
Q 3963 3931 3569 4081 
Q 3175 4231 2741 4231 
Q 1884 4231 1454 3753 
Q 1025 3275 1025 2328 
Q 1025 1384 1454 906 
Q 1884 428 2741 428 
Q 3075 428 3337 486 
Q 3600 544 3809 666 
z
" transform="scale(0.015625)"/>
       <path id="DejaVuSans-6e" d="M 3513 2113 
L 3513 0 
L 2938 0 
L 2938 2094 
Q 2938 2591 2744 2837 
Q 2550 3084 2163 3084 
Q 1697 3084 1428 2787 
Q 1159 2491 1159 1978 
L 1159 0 
L 581 0 
L 581 3500 
L 1159 3500 
L 1159 2956 
Q 1366 3272 1645 3428 
Q 1925 3584 2291 3584 
Q 2894 3584 3203 3211 
Q 3513 2838 3513 2113 
z
" transform="scale(0.015625)"/>
      </defs>
      <use xlink:href="#DejaVuSans-54"/>
      <use xlink:href="#DejaVuSans-6f" transform="translate(44.083984 0)"/>
      <use xlink:href="#DejaVuSans-74" transform="translate(105.265625 0)"/>
      <use xlink:href="#DejaVuSans-61" transform="translate(144.474609 0)"/>
      <use xlink:href="#DejaVuSans-6c" transform="translate(205.753906 0)"/>
      <use xlink:href="#DejaVuSans-20" transform="translate(233.537109 0)"/>
      <use xlink:href="#DejaVuSans-47" transform="translate(265.324219 0)"/>
      <use xlink:href="#DejaVuSans-65" transform="translate(342.814453 0)"/>
      <use xlink:href="#DejaVuSans-6e" transform="translate(404.337891 0)"/>
      <use xlink:href="#DejaVuSans-65" transform="translate(467.716797 0)"/>
      <use xlink:href="#DejaVuSans-72" transform="translate(529.240234 0)"/>
      <use xlink:href="#DejaVuSans-61" transform="translate(570.353516 0)"/>
      <use xlink:href="#DejaVuSans-74" transform="translate(631.632812 0)"/>
      <use xlink:href="#DejaVuSans-69" transform="translate(670.841797 0)"/>
      <use xlink:href="#DejaVuSans-6f" transform="translate(698.625 0)"/>
      <use xlink:href="#DejaVuSans-6e" transform="translate(759.806641 0)"/>
     </g>
    </g>
    <g id="line2d_17">
     <path d="M 49.603125 50.094687 
L 59.603125 50.094687 
L 69.603125 50.094687 
" style="fill: none; stroke-dasharray: 1.5,2.475; stroke-dashoffset: 0; stroke: #ff0000; stroke-width: 1.5"/>
    </g>
    <g id="text_18">
     <!-- Target Tier A Load -->
     <g transform="translate(77.603125 53.594687) scale(0.1 -0.1)">
      <defs>
       <path id="DejaVuSans-67" d="M 2906 1791 
Q 2906 2416 2648 2759 
Q 2391 3103 1925 3103 
Q 1463 3103 1205 2759 
Q 947 2416 947 1791 
Q 947 1169 1205 825 
Q 1463 481 1925 481 
Q 2391 481 2648 825 
Q 2906 1169 2906 1791 
z
M 3481 434 
Q 3481 -459 3084 -895 
Q 2688 -1331 1869 -1331 
Q 1566 -1331 1297 -1286 
Q 1028 -1241 775 -1147 
L 775 -588 
Q 1028 -725 1275 -790 
Q 1522 -856 1778 -856 
Q 2344 -856 2625 -561 
Q 2906 -266 2906 331 
L 2906 616 
Q 2728 306 2450 153 
Q 2172 0 1784 0 
Q 1141 0 747 490 
Q 353 981 353 1791 
Q 353 2603 747 3093 
Q 1141 3584 1784 3584 
Q 2172 3584 2450 3431 
Q 2728 3278 2906 2969 
L 2906 3500 
L 3481 3500 
L 3481 434 
z
" transform="scale(0.015625)"/>
       <path id="DejaVuSans-4c" d="M 628 4666 
L 1259 4666 
L 1259 531 
L 3531 531 
L 3531 0 
L 628 0 
L 628 4666 
z
" transform="scale(0.015625)"/>
      </defs>
      <use xlink:href="#DejaVuSans-54"/>
      <use xlink:href="#DejaVuSans-61" transform="translate(44.583984 0)"/>
      <use xlink:href="#DejaVuSans-72" transform="translate(105.863281 0)"/>
      <use xlink:href="#DejaVuSans-67" transform="translate(145.226562 0)"/>
      <use xlink:href="#DejaVuSans-65" transform="translate(208.703125 0)"/>
      <use xlink:href="#DejaVuSans-74" transform="translate(270.226562 0)"/>
      <use xlink:href="#DejaVuSans-20" transform="translate(309.435547 0)"/>
      <use xlink:href="#DejaVuSans-54" transform="translate(341.222656 0)"/>
      <use xlink:href="#DejaVuSans-69" transform="translate(399.181641 0)"/>
      <use xlink:href="#DejaVuSans-65" transform="translate(426.964844 0)"/>
      <use xlink:href="#DejaVuSans-72" transform="translate(488.488281 0)"/>
      <use xlink:href="#DejaVuSans-20" transform="translate(529.601562 0)"/>
      <use xlink:href="#DejaVuSans-41" transform="translate(561.388672 0)"/>
      <use xlink:href="#DejaVuSans-20" transform="translate(629.796875 0)"/>
      <use xlink:href="#DejaVuSans-4c" transform="translate(661.583984 0)"/>
      <use xlink:href="#DejaVuSans-6f" transform="translate(715.546875 0)"/>
      <use xlink:href="#DejaVuSans-61" transform="translate(776.728516 0)"/>
      <use xlink:href="#DejaVuSans-64" transform="translate(838.007812 0)"/>
     </g>
    </g>
    <g id="patch_8">
     <path d="M 49.603125 68.272812 
L 69.603125 68.272812 
L 69.603125 61.272812 
L 49.603125 61.272812 
z
" style="fill: #008000; fill-opacity: 0.6; stroke: #008000; stroke-opacity: 0.6; stroke-linejoin: miter"/>
    </g>
    <g id="text_19">
     <!-- Served Tier A -->
     <g transform="translate(77.603125 68.272812) scale(0.1 -0.1)">
      <defs>
       <path id="DejaVuSans-53" d="M 3425 4513 
L 3425 3897 
Q 3066 4069 2747 4153 
Q 2428 4238 2131 4238 
Q 1616 4238 1336 4038 
Q 1056 3838 1056 3469 
Q 1056 3159 1242 3001 
Q 1428 2844 1947 2747 
L 2328 2669 
Q 3034 2534 3370 2195 
Q 3706 1856 3706 1288 
Q 3706 609 3251 259 
Q 2797 -91 1919 -91 
Q 1588 -91 1214 -16 
Q 841 59 441 206 
L 441 856 
Q 825 641 1194 531 
Q 1563 422 1919 422 
Q 2459 422 2753 634 
Q 3047 847 3047 1241 
Q 3047 1584 2836 1778 
Q 2625 1972 2144 2069 
L 1759 2144 
Q 1053 2284 737 2584 
Q 422 2884 422 3419 
Q 422 4038 858 4394 
Q 1294 4750 2059 4750 
Q 2388 4750 2728 4690 
Q 3069 4631 3425 4513 
z
" transform="scale(0.015625)"/>
       <path id="DejaVuSans-76" d="M 191 3500 
L 800 3500 
L 1894 563 
L 2988 3500 
L 3597 3500 
L 2284 0 
L 1503 0 
L 191 3500 
z
" transform="scale(0.015625)"/>
      </defs>
      <use xlink:href="#DejaVuSans-53"/>
      <use xlink:href="#DejaVuSans-65" transform="translate(63.476562 0)"/>
      <use xlink:href="#DejaVuSans-72" transform="translate(125 0)"/>
      <use xlink:href="#DejaVuSans-76" transform="translate(166.113281 0)"/>
      <use xlink:href="#DejaVuSans-65" transform="translate(225.292969 0)"/>
      <use xlink:href="#DejaVuSans-64" transform="translate(286.816406 0)"/>
      <use xlink:href="#DejaVuSans-20" transform="translate(350.292969 0)"/>
      <use xlink:href="#DejaVuSans-54" transform="translate(382.080078 0)"/>
      <use xlink:href="#DejaVuSans-69" transform="translate(440.039062 0)"/>
      <use xlink:href="#DejaVuSans-65" transform="translate(467.822266 0)"/>
      <use xlink:href="#DejaVuSans-72" transform="translate(529.345703 0)"/>
      <use xlink:href="#DejaVuSans-20" transform="translate(570.458984 0)"/>
      <use xlink:href="#DejaVuSans-41" transform="translate(602.246094 0)"/>
     </g>
    </g>
    <g id="patch_9">
     <path d="M 49.603125 82.950938 
L 69.603125 82.950938 
L 69.603125 75.950938 
L 49.603125 75.950938 
z
" style="fill: #ff0000; fill-opacity: 0.6; stroke: #ff0000; stroke-opacity: 0.6; stroke-linejoin: miter"/>
    </g>
    <g id="text_20">
     <!-- Unserved Load (Cancelled) -->
     <g transform="translate(77.603125 82.950938) scale(0.1 -0.1)">
      <defs>
       <path id="DejaVuSans-43" d="M 4122 4306 
L 4122 3641 
Q 3803 3938 3442 4084 
Q 3081 4231 2675 4231 
Q 1875 4231 1450 3742 
Q 1025 3253 1025 2328 
Q 1025 1406 1450 917 
Q 1875 428 2675 428 
Q 3081 428 3442 575 
Q 3803 722 4122 1019 
L 4122 359 
Q 3791 134 3420 21 
Q 3050 -91 2638 -91 
Q 1578 -91 968 557 
Q 359 1206 359 2328 
Q 359 3453 968 4101 
Q 1578 4750 2638 4750 
Q 3056 4750 3426 4639 
Q 3797 4528 4122 4306 
z
" transform="scale(0.015625)"/>
       <path id="DejaVuSans-63" d="M 3122 3366 
L 3122 2828 
Q 2878 2963 2633 3030 
Q 2388 3097 2138 3097 
Q 1578 3097 1268 2742 
Q 959 2388 959 1747 
Q 959 1106 1268 751 
Q 1578 397 2138 397 
Q 2388 397 2633 464 
Q 2878 531 3122 666 
L 3122 134 
Q 2881 22 2623 -34 
Q 2366 -91 2075 -91 
Q 1284 -91 818 406 
Q 353 903 353 1747 
Q 353 2603 823 3093 
Q 1294 3584 2113 3584 
Q 2378 3584 2631 3529 
Q 2884 3475 3122 3366 
z
" transform="scale(0.015625)"/>
      </defs>
      <use xlink:href="#DejaVuSans-55"/>
      <use xlink:href="#DejaVuSans-6e" transform="translate(73.193359 0)"/>
      <use xlink:href="#DejaVuSans-73" transform="translate(136.572266 0)"/>
      <use xlink:href="#DejaVuSans-65" transform="translate(188.671875 0)"/>
      <use xlink:href="#DejaVuSans-72" transform="translate(250.195312 0)"/>
      <use xlink:href="#DejaVuSans-76" transform="translate(291.308594 0)"/>
      <use xlink:href="#DejaVuSans-65" transform="translate(350.488281 0)"/>
      <use xlink:href="#DejaVuSans-64" transform="translate(412.011719 0)"/>
      <use xlink:href="#DejaVuSans-20" transform="translate(475.488281 0)"/>
      <use xlink:href="#DejaVuSans-4c" transform="translate(507.275391 0)"/>
      <use xlink:href="#DejaVuSans-6f" transform="translate(561.238281 0)"/>
      <use xlink:href="#DejaVuSans-61" transform="translate(622.419922 0)"/>
      <use xlink:href="#DejaVuSans-64" transform="translate(683.699219 0)"/>
      <use xlink:href="#DejaVuSans-20" transform="translate(747.175781 0)"/>
      <use xlink:href="#DejaVuSans-28" transform="translate(778.962891 0)"/>
      <use xlink:href="#DejaVuSans-43" transform="translate(817.976562 0)"/>
      <use xlink:href="#DejaVuSans-61" transform="translate(887.800781 0)"/>
      <use xlink:href="#DejaVuSans-6e" transform="translate(949.080078 0)"/>
      <use xlink:href="#DejaVuSans-63" transform="translate(1012.458984 0)"/>
      <use xlink:href="#DejaVuSans-65" transform="translate(1067.439453 0)"/>
      <use xlink:href="#DejaVuSans-6c" transform="translate(1128.962891 0)"/>
      <use xlink:href="#DejaVuSans-6c" transform="translate(1156.746094 0)"/>
      <use xlink:href="#DejaVuSans-65" transform="translate(1184.529297 0)"/>
      <use xlink:href="#DejaVuSans-64" transform="translate(1246.052734 0)"/>
      <use xlink:href="#DejaVuSans-29" transform="translate(1309.529297 0)"/>
     </g>
    </g>
   </g>
  </g>
 </g>
 <defs>
  <clipPath id="p343bfa2bf8">
   <rect x="40.603125" y="22.318125" width="800.863276" height="220.9"/>
  </clipPath>
 </defs>
</svg>
