<?xml version="1.0" encoding="utf-8" standalone="no"?>
<!DOCTYPE svg PUBLIC "-//W3C//DTD SVG 1.1//EN"
  "http://www.w3.org/Graphics/SVG/1.1/DTD/svg11.dtd">
<svg xmlns:xlink="http://www.w3.org/1999/xlink" width="856.684282pt" height="280.774375pt" viewBox="0 0 856.684282 280.774375" xmlns="http://www.w3.org/2000/svg" version="1.1">
 <metadata>
  <rdf:RDF xmlns:dc="http://purl.org/dc/elements/1.1/" xmlns:cc="http://creativecommons.org/ns#" xmlns:rdf="http://www.w3.org/1999/02/22-rdf-syntax-ns#">
   <cc:Work>
    <dc:type rdf:resource="http://purl.org/dc/dcmitype/StillImage"/>
    <dc:date>2026-03-10T12:04:33.077839</dc:date>
    <dc:format>image/svg+xml</dc:format>
    <dc:creator>
     <cc:Agent>
      <dc:title>Matplotlib v3.10.8, https://matplotlib.org/</dc:title>
     </cc:Agent>
    </dc:creator>
   </cc:Work>
  </rdf:RDF>
 </metadata>
 <defs>
  <style type="text/css">*{stroke-linejoin: round; stroke-linecap: butt}</style>
 </defs>
 <g id="figure_1">
  <g id="patch_1">
   <path d="M 0 280.774375 
L 856.684282 280.774375 
L 856.684282 0 
L 0 0 
z
" style="fill: #ffffff"/>
  </g>
  <g id="axes_1">
   <g id="patch_2">
    <path d="M 40.603125 243.218125 
L 841.466401 243.218125 
L 841.466401 22.318125 
L 40.603125 22.318125 
z
" style="fill: #ffffff"/>
   </g>
   <g id="matplotlib.axis_1">
    <g id="xtick_1">
     <g id="line2d_1">
      <defs>
       <path id="m3e2d49b611" d="M 0 0 
L 0 3.5 
" style="stroke: #000000; stroke-width: 0.8"/>
      </defs>
      <g>
       <use xlink:href="#m3e2d49b611" x="77.006001" y="243.218125" style="stroke: #000000; stroke-width: 0.8"/>
      </g>
     </g>
     <g id="text_1">
      <!-- 0 -->
      <g transform="translate(73.824751 257.816562) scale(0.1 -0.1)">
       <defs>
        <path id="DejaVuSans-30" d="M 2034 4250 
Q 1547 4250 1301 3770 
Q 1056 3291 1056 2328 
Q 1056 1369 1301 889 
Q 1547 409 2034 409 
Q 2525 409 2770 889 
Q 3016 1369 3016 2328 
Q 3016 3291 2770 3770 
Q 2525 4250 2034 4250 
z
M 2034 4750 
Q 2819 4750 3233 4129 
Q 3647 3509 3647 2328 
Q 3647 1150 3233 529 
Q 2819 -91 2034 -91 
Q 1250 -91 836 529 
Q 422 1150 422 2328 
Q 422 3509 836 4129 
Q 1250 4750 2034 4750 
z
" transform="scale(0.015625)"/>
       </defs>
       <use xlink:href="#DejaVuSans-30"/>
      </g>
     </g>
    </g>
    <g id="xtick_2">
     <g id="line2d_2">
      <g>
       <use xlink:href="#m3e2d49b611" x="185.996648" y="243.218125" style="stroke: #000000; stroke-width: 0.8"/>
      </g>
     </g>
     <g id="text_2">
      <!-- 25 -->
      <g transform="translate(179.634148 257.816562) scale(0.1 -0.1)">
       <defs>
        <path id="DejaVuSans-32" d="M 1228 531 
L 3431 531 
L 3431 0 
L 469 0 
L 469 531 
Q 828 903 1448 1529 
Q 2069 2156 2228 2338 
Q 2531 2678 2651 2914 
Q 2772 3150 2772 3378 
Q 2772 3750 2511 3984 
Q 2250 4219 1831 4219 
Q 1534 4219 1204 4116 
Q 875 4013 500 3803 
L 500 4441 
Q 881 4594 1212 4672 
Q 1544 4750 1819 4750 
Q 2544 4750 2975 4387 
Q 3406 4025 3406 3419 
Q 3406 3131 3298 2873 
Q 3191 2616 2906 2266 
Q 2828 2175 2409 1742 
Q 1991 1309 1228 531 
z
" transform="scale(0.015625)"/>
        <path id="DejaVuSans-35" d="M 691 4666 
L 3169 4666 
L 3169 4134 
L 1269 4134 
L 1269 2991 
Q 1406 3038 1543 3061 
Q 1681 3084 1819 3084 
Q 2600 3084 3056 2656 
Q 3513 2228 3513 1497 
Q 3513 744 3044 326 
Q 2575 -91 1722 -91 
Q 1428 -91 1123 -41 
Q 819 9 494 109 
L 494 744 
Q 775 591 1075 516 
Q 1375 441 1709 441 
Q 2250 441 2565 725 
Q 2881 1009 2881 1497 
Q 2881 1984 2565 2268 
Q 2250 2553 1709 2553 
Q 1456 2553 1204 2497 
Q 953 2441 691 2322 
L 691 4666 
z
" transform="scale(0.015625)"/>
       </defs>
       <use xlink:href="#DejaVuSans-32"/>
       <use xlink:href="#DejaVuSans-35" transform="translate(63.623047 0)"/>
      </g>
     </g>
    </g>
    <g id="xtick_3">
     <g id="line2d_3">
      <g>
       <use xlink:href="#m3e2d49b611" x="294.987296" y="243.218125" style="stroke: #000000; stroke-width: 0.8"/>
      </g>
     </g>
     <g id="text_3">
      <!-- 50 -->
      <g transform="translate(288.624796 257.816562) scale(0.1 -0.1)">
       <use xlink:href="#DejaVuSans-35"/>
       <use xlink:href="#DejaVuSans-30" transform="translate(63.623047 0)"/>
      </g>
     </g>
    </g>
    <g id="xtick_4">
     <g id="line2d_4">
      <g>
       <use xlink:href="#m3e2d49b611" x="403.977943" y="243.218125" style="stroke: #000000; stroke-width: 0.8"/>
      </g>
     </g>
     <g id="text_4">
      <!-- 75 -->
      <g transform="translate(397.615443 257.816562) scale(0.1 -0.1)">
       <defs>
        <path id="DejaVuSans-37" d="M 525 4666 
L 3525 4666 
L 3525 4397 
L 1831 0 
L 1172 0 
L 2766 4134 
L 525 4134 
L 525 4666 
z
" transform="scale(0.015625)"/>
       </defs>
       <use xlink:href="#DejaVuSans-37"/>
       <use xlink:href="#DejaVuSans-35" transform="translate(63.623047 0)"/>
      </g>
     </g>
    </g>
    <g id="xtick_5">
     <g id="line2d_5">
      <g>
       <use xlink:href="#m3e2d49b611" x="512.96859" y="243.218125" style="stroke: #000000; stroke-width: 0.8"/>
      </g>
     </g>
     <g id="text_5">
      <!-- 100 -->
      <g transform="translate(503.42484 257.816562) scale(0.1 -0.1)">
       <defs>
        <path id="DejaVuSans-31" d="M 794 531 
L 1825 531 
L 1825 4091 
L 703 3866 
L 703 4441 
L 1819 4666 
L 2450 4666 
L 2450 531 
L 3481 531 
L 3481 0 
L 794 0 
L 794 531 
z
" transform="scale(0.015625)"/>
       </defs>
       <use xlink:href="#DejaVuSans-31"/>
       <use xlink:href="#DejaVuSans-30" transform="translate(63.623047 0)"/>
       <use xlink:href="#DejaVuSans-30" transform="translate(127.246094 0)"/>
      </g>
     </g>
    </g>
    <g id="xtick_6">
     <g id="line2d_6">
      <g>
       <use xlink:href="#m3e2d49b611" x="621.959237" y="243.218125" style="stroke: #000000; stroke-width: 0.8"/>
      </g>
     </g>
     <g id="text_6">
      <!-- 125 -->
      <g transform="translate(612.415487 257.816562) scale(0.1 -0.1)">
       <use xlink:href="#DejaVuSans-31"/>
       <use xlink:href="#DejaVuSans-32" transform="translate(63.623047 0)"/>
       <use xlink:href="#DejaVuSans-35" transform="translate(127.246094 0)"/>
      </g>
     </g>
    </g>
    <g id="xtick_7">
     <g id="line2d_7">
      <g>
       <use xlink:href="#m3e2d49b611" x="730.949884" y="243.218125" style="stroke: #000000; stroke-width: 0.8"/>
      </g>
     </g>
     <g id="text_7">
      <!-- 150 -->
      <g transform="translate(721.406134 257.816562) scale(0.1 -0.1)">
       <use xlink:href="#DejaVuSans-31"/>
       <use xlink:href="#DejaVuSans-35" transform="translate(63.623047 0)"/>
       <use xlink:href="#DejaVuSans-30" transform="translate(127.246094 0)"/>
      </g>
     </g>
    </g>
    <g id="xtick_8">
     <g id="line2d_8">
      <g>
       <use xlink:href="#m3e2d49b611" x="839.940532" y="243.218125" style="stroke: #000000; stroke-width: 0.8"/>
      </g>
     </g>
     <g id="text_8">
      <!-- 175 -->
      <g transform="translate(830.396782 257.816562) scale(0.1 -0.1)">
       <use xlink:href="#DejaVuSans-31"/>
       <use xlink:href="#DejaVuSans-37" transform="translate(63.623047 0)"/>
       <use xlink:href="#DejaVuSans-35" transform="translate(127.246094 0)"/>
      </g>
     </g>
    </g>
    <g id="text_9">
     <!-- Hours -->
     <g transform="translate(426.386325 271.494687) scale(0.1 -0.1)">
      <defs>
       <path id="DejaVuSans-48" d="M 628 4666 
L 1259 4666 
L 1259 2753 
L 3553 2753 
L 3553 4666 
L 4184 4666 
L 4184 0 
L 3553 0 
L 3553 2222 
L 1259 2222 
L 1259 0 
L 628 0 
L 628 4666 
z
" transform="scale(0.015625)"/>
       <path id="DejaVuSans-6f" d="M 1959 3097 
Q 1497 3097 1228 2736 
Q 959 2375 959 1747 
Q 959 1119 1226 758 
Q 1494 397 1959 397 
Q 2419 397 2687 759 
Q 2956 1122 2956 1747 
Q 2956 2369 2687 2733 
Q 2419 3097 1959 3097 
z
M 1959 3584 
Q 2709 3584 3137 3096 
Q 3566 2609 3566 1747 
Q 3566 888 3137 398 
Q 2709 -91 1959 -91 
Q 1206 -91 779 398 
Q 353 888 353 1747 
Q 353 2609 779 3096 
Q 1206 3584 1959 3584 
z
" transform="scale(0.015625)"/>
       <path id="DejaVuSans-75" d="M 544 1381 
L 544 3500 
L 1119 3500 
L 1119 1403 
Q 1119 906 1312 657 
Q 1506 409 1894 409 
Q 2359 409 2629 706 
Q 2900 1003 2900 1516 
L 2900 3500 
L 3475 3500 
L 3475 0 
L 2900 0 
L 2900 538 
Q 2691 219 2414 64 
Q 2138 -91 1772 -91 
Q 1169 -91 856 284 
Q 544 659 544 1381 
z
M 1991 3584 
L 1991 3584 
z
" transform="scale(0.015625)"/>
       <path id="DejaVuSans-72" d="M 2631 2963 
Q 2534 3019 2420 3045 
Q 2306 3072 2169 3072 
Q 1681 3072 1420 2755 
Q 1159 2438 1159 1844 
L 1159 0 
L 581 0 
L 581 3500 
L 1159 3500 
L 1159 2956 
Q 1341 3275 1631 3429 
Q 1922 3584 2338 3584 
Q 2397 3584 2469 3576 
Q 2541 3569 2628 3553 
L 2631 2963 
z
" transform="scale(0.015625)"/>
       <path id="DejaVuSans-73" d="M 2834 3397 
L 2834 2853 
Q 2591 2978 2328 3040 
Q 2066 3103 1784 3103 
Q 1356 3103 1142 2972 
Q 928 2841 928 2578 
Q 928 2378 1081 2264 
Q 1234 2150 1697 2047 
L 1894 2003 
Q 2506 1872 2764 1633 
Q 3022 1394 3022 966 
Q 3022 478 2636 193 
Q 2250 -91 1575 -91 
Q 1294 -91 989 -36 
Q 684 19 347 128 
L 347 722 
Q 666 556 975 473 
Q 1284 391 1588 391 
Q 1994 391 2212 530 
Q 2431 669 2431 922 
Q 2431 1156 2273 1281 
Q 2116 1406 1581 1522 
L 1381 1569 
Q 847 1681 609 1914 
Q 372 2147 372 2553 
Q 372 3047 722 3315 
Q 1072 3584 1716 3584 
Q 2034 3584 2315 3537 
Q 2597 3491 2834 3397 
z
" transform="scale(0.015625)"/>
      </defs>
      <use xlink:href="#DejaVuSans-48"/>
      <use xlink:href="#DejaVuSans-6f" transform="translate(75.195312 0)"/>
      <use xlink:href="#DejaVuSans-75" transform="translate(136.376953 0)"/>
      <use xlink:href="#DejaVuSans-72" transform="translate(199.755859 0)"/>
      <use xlink:href="#DejaVuSans-73" transform="translate(240.869141 0)"/>
     </g>
    </g>
   </g>
   <g id="matplotlib.axis_2">
    <g id="ytick_1">
     <g id="line2d_9">
      <defs>
       <path id="md9e7f8ec5c" d="M 0 0 
L -3.5 0 
" style="stroke: #000000; stroke-width: 0.8"/>
      </defs>
      <g>
       <use xlink:href="#md9e7f8ec5c" x="40.603125" y="233.177216" style="stroke: #000000; stroke-width: 0.8"/>
      </g>
     </g>
     <g id="text_10">
      <!-- 0 -->
      <g transform="translate(27.240625 236.976435) scale(0.1 -0.1)">
       <use xlink:href="#DejaVuSans-30"/>
      </g>
     </g>
    </g>
    <g id="ytick_2">
     <g id="line2d_10">
      <g>
       <use xlink:href="#md9e7f8ec5c" x="40.603125" y="187.904682" style="stroke: #000000; stroke-width: 0.8"/>
      </g>
     </g>
     <g id="text_11">
      <!-- 20 -->
      <g transform="translate(20.878125 191.703901) scale(0.1 -0.1)">
       <use xlink:href="#DejaVuSans-32"/>
       <use xlink:href="#DejaVuSans-30" transform="translate(63.623047 0)"/>
      </g>
     </g>
    </g>
    <g id="ytick_3">
     <g id="line2d_11">
      <g>
       <use xlink:href="#md9e7f8ec5c" x="40.603125" y="142.632149" style="stroke: #000000; stroke-width: 0.8"/>
      </g>
     </g>
     <g id="text_12">
      <!-- 40 -->
      <g transform="translate(20.878125 146.431368) scale(0.1 -0.1)">
       <defs>
        <path id="DejaVuSans-34" d="M 2419 4116 
L 825 1625 
L 2419 1625 
L 2419 4116 
z
M 2253 4666 
L 3047 4666 
L 3047 1625 
L 3713 1625 
L 3713 1100 
L 3047 1100 
L 3047 0 
L 2419 0 
L 2419 1100 
L 313 1100 
L 313 1709 
L 2253 4666 
z
" transform="scale(0.015625)"/>
       </defs>
       <use xlink:href="#DejaVuSans-34"/>
       <use xlink:href="#DejaVuSans-30" transform="translate(63.623047 0)"/>
      </g>
     </g>
    </g>
    <g id="ytick_4">
     <g id="line2d_12">
      <g>
       <use xlink:href="#md9e7f8ec5c" x="40.603125" y="97.359615" style="stroke: #000000; stroke-width: 0.8"/>
      </g>
     </g>
     <g id="text_13">
      <!-- 60 -->
      <g transform="translate(20.878125 101.158834) scale(0.1 -0.1)">
       <defs>
        <path id="DejaVuSans-36" d="M 2113 2584 
Q 1688 2584 1439 2293 
Q 1191 2003 1191 1497 
Q 1191 994 1439 701 
Q 1688 409 2113 409 
Q 2538 409 2786 701 
Q 3034 994 3034 1497 
Q 3034 2003 2786 2293 
Q 2538 2584 2113 2584 
z
M 3366 4563 
L 3366 3988 
Q 3128 4100 2886 4159 
Q 2644 4219 2406 4219 
Q 1781 4219 1451 3797 
Q 1122 3375 1075 2522 
Q 1259 2794 1537 2939 
Q 1816 3084 2150 3084 
Q 2853 3084 3261 2657 
Q 3669 2231 3669 1497 
Q 3669 778 3244 343 
Q 2819 -91 2113 -91 
Q 1303 -91 875 529 
Q 447 1150 447 2328 
Q 447 3434 972 4092 
Q 1497 4750 2381 4750 
Q 2619 4750 2861 4703 
Q 3103 4656 3366 4563 
z
" transform="scale(0.015625)"/>
       </defs>
       <use xlink:href="#DejaVuSans-36"/>
       <use xlink:href="#DejaVuSans-30" transform="translate(63.623047 0)"/>
      </g>
     </g>
    </g>
    <g id="ytick_5">
     <g id="line2d_13">
      <g>
       <use xlink:href="#md9e7f8ec5c" x="40.603125" y="52.087082" style="stroke: #000000; stroke-width: 0.8"/>
      </g>
     </g>
     <g id="text_14">
      <!-- 80 -->
      <g transform="translate(20.878125 55.8863) scale(0.1 -0.1)">
       <defs>
        <path id="DejaVuSans-38" d="M 2034 2216 
Q 1584 2216 1326 1975 
Q 1069 1734 1069 1313 
Q 1069 891 1326 650 
Q 1584 409 2034 409 
Q 2484 409 2743 651 
Q 3003 894 3003 1313 
Q 3003 1734 2745 1975 
Q 2488 2216 2034 2216 
z
M 1403 2484 
Q 997 2584 770 2862 
Q 544 3141 544 3541 
Q 544 4100 942 4425 
Q 1341 4750 2034 4750 
Q 2731 4750 3128 4425 
Q 3525 4100 3525 3541 
Q 3525 3141 3298 2862 
Q 3072 2584 2669 2484 
Q 3125 2378 3379 2068 
Q 3634 1759 3634 1313 
Q 3634 634 3220 271 
Q 2806 -91 2034 -91 
Q 1263 -91 848 271 
Q 434 634 434 1313 
Q 434 1759 690 2068 
Q 947 2378 1403 2484 
z
M 1172 3481 
Q 1172 3119 1398 2916 
Q 1625 2713 2034 2713 
Q 2441 2713 2670 2916 
Q 2900 3119 2900 3481 
Q 2900 3844 2670 4047 
Q 2441 4250 2034 4250 
Q 1625 4250 1398 4047 
Q 1172 3844 1172 3481 
z
" transform="scale(0.015625)"/>
       </defs>
       <use xlink:href="#DejaVuSans-38"/>
       <use xlink:href="#DejaVuSans-30" transform="translate(63.623047 0)"/>
      </g>
     </g>
    </g>
    <g id="text_15">
     <!-- Power (MW) -->
     <g transform="translate(14.798438 162.630625) rotate(-90) scale(0.1 -0.1)">
      <defs>
       <path id="DejaVuSans-50" d="M 1259 4147 
L 1259 2394 
L 2053 2394 
Q 2494 2394 2734 2622 
Q 2975 2850 2975 3272 
Q 2975 3691 2734 3919 
Q 2494 4147 2053 4147 
L 1259 4147 
z
M 628 4666 
L 2053 4666 
Q 2838 4666 3239 4311 
Q 3641 3956 3641 3272 
Q 3641 2581 3239 2228 
Q 2838 1875 2053 1875 
L 1259 1875 
L 1259 0 
L 628 0 
L 628 4666 
z
" transform="scale(0.015625)"/>
       <path id="DejaVuSans-77" d="M 269 3500 
L 844 3500 
L 1563 769 
L 2278 3500 
L 2956 3500 
L 3675 769 
L 4391 3500 
L 4966 3500 
L 4050 0 
L 3372 0 
L 2619 2869 
L 1863 0 
L 1184 0 
L 269 3500 
z
" transform="scale(0.015625)"/>
       <path id="DejaVuSans-65" d="M 3597 1894 
L 3597 1613 
L 953 1613 
Q 991 1019 1311 708 
Q 1631 397 2203 397 
Q 2534 397 2845 478 
Q 3156 559 3463 722 
L 3463 178 
Q 3153 47 2828 -22 
Q 2503 -91 2169 -91 
Q 1331 -91 842 396 
Q 353 884 353 1716 
Q 353 2575 817 3079 
Q 1281 3584 2069 3584 
Q 2775 3584 3186 3129 
Q 3597 2675 3597 1894 
z
M 3022 2063 
Q 3016 2534 2758 2815 
Q 2500 3097 2075 3097 
Q 1594 3097 1305 2825 
Q 1016 2553 972 2059 
L 3022 2063 
z
" transform="scale(0.015625)"/>
       <path id="DejaVuSans-20" transform="scale(0.015625)"/>
       <path id="DejaVuSans-28" d="M 1984 4856 
Q 1566 4138 1362 3434 
Q 1159 2731 1159 2009 
Q 1159 1288 1364 580 
Q 1569 -128 1984 -844 
L 1484 -844 
Q 1016 -109 783 600 
Q 550 1309 550 2009 
Q 550 2706 781 3412 
Q 1013 4119 1484 4856 
L 1984 4856 
z
" transform="scale(0.015625)"/>
       <path id="DejaVuSans-4d" d="M 628 4666 
L 1569 4666 
L 2759 1491 
L 3956 4666 
L 4897 4666 
L 4897 0 
L 4281 0 
L 4281 4097 
L 3078 897 
L 2444 897 
L 1241 4097 
L 1241 0 
L 628 0 
L 628 4666 
z
" transform="scale(0.015625)"/>
       <path id="DejaVuSans-57" d="M 213 4666 
L 850 4666 
L 1831 722 
L 2809 4666 
L 3519 4666 
L 4500 722 
L 5478 4666 
L 6119 4666 
L 4947 0 
L 4153 0 
L 3169 4050 
L 2175 0 
L 1381 0 
L 213 4666 
z
" transform="scale(0.015625)"/>
       <path id="DejaVuSans-29" d="M 513 4856 
L 1013 4856 
Q 1481 4119 1714 3412 
Q 1947 2706 1947 2009 
Q 1947 1309 1714 600 
Q 1481 -109 1013 -844 
L 513 -844 
Q 928 -128 1133 580 
Q 1338 1288 1338 2009 
Q 1338 2731 1133 3434 
Q 928 4138 513 4856 
z
" transform="scale(0.015625)"/>
      </defs>
      <use xlink:href="#DejaVuSans-50"/>
      <use xlink:href="#DejaVuSans-6f" transform="translate(56.677734 0)"/>
      <use xlink:href="#DejaVuSans-77" transform="translate(117.859375 0)"/>
      <use xlink:href="#DejaVuSans-65" transform="translate(199.646484 0)"/>
      <use xlink:href="#DejaVuSans-72" transform="translate(261.169922 0)"/>
      <use xlink:href="#DejaVuSans-20" transform="translate(302.283203 0)"/>
      <use xlink:href="#DejaVuSans-28" transform="translate(334.070312 0)"/>
      <use xlink:href="#DejaVuSans-4d" transform="translate(373.083984 0)"/>
      <use xlink:href="#DejaVuSans-57" transform="translate(459.363281 0)"/>
      <use xlink:href="#DejaVuSans-29" transform="translate(558.240234 0)"/>
     </g>
    </g>
   </g>
   <g id="line2d_14">
    <path d="M 77.006001 182.789807 
L 81.365627 182.610144 
L 85.725253 173.393516 
L 90.084879 157.751177 
L 94.444505 150.097504 
L 98.804131 151.287283 
L 103.163757 149.779402 
L 107.523382 146.061475 
L 111.883008 157.95567 
L 116.242634 161.665565 
L 120.60226 176.811061 
L 129.321512 172.186775 
L 133.681138 157.157626 
L 138.040764 153.648355 
L 142.400389 157.32755 
L 146.760015 175.077538 
L 151.119641 175.382026 
L 155.479267 163.856763 
L 159.838893 169.917681 
L 164.198519 182.504569 
L 168.558145 187.047364 
L 172.917771 193.336884 
L 177.277397 190.532577 
L 181.637022 192.604395 
L 185.996648 190.256559 
L 190.356274 185.081574 
L 194.7159 187.650289 
L 199.075526 183.83209 
L 203.435152 186.784054 
L 207.794778 179.649196 
L 212.154404 168.120719 
L 216.51403 165.588393 
L 220.873655 163.85731 
L 225.233281 163.394645 
L 229.592907 163.316616 
L 233.952533 157.807922 
L 238.312159 160.737553 
L 242.671785 154.56418 
L 247.031411 133.461517 
L 251.391037 136.421853 
L 255.750663 142.670185 
L 260.110288 141.505669 
L 264.469914 145.643558 
L 268.82954 156.309586 
L 273.189166 163.474449 
L 277.548792 164.545521 
L 281.908418 152.086816 
L 286.268044 151.036964 
L 290.62767 145.028347 
L 299.346921 148.02651 
L 303.706547 144.150158 
L 308.066173 143.460796 
L 312.425799 138.638076 
L 316.785425 132.176466 
L 321.145051 122.392504 
L 325.504677 120.252983 
L 329.864303 120.049885 
L 347.302806 120.009136 
L 373.460562 119.995897 
L 430.135698 120.030626 
L 438.85495 120.166417 
L 443.214576 120.722911 
L 447.574202 120.194186 
L 451.933828 120.060577 
L 460.653079 120.094585 
L 465.012705 120.209103 
L 469.372331 120.096484 
L 482.451209 120.625656 
L 486.810835 120.463694 
L 491.170461 120.803028 
L 495.530086 128.056892 
L 499.889712 125.322262 
L 504.249338 145.349353 
L 508.608964 190.114693 
L 512.96859 129.067771 
L 517.328216 119.999103 
L 521.687842 120.001104 
L 526.047468 120.201305 
L 530.407094 125.29223 
L 534.766719 156.724575 
L 539.126345 193.162628 
L 543.485971 194.492685 
L 547.845597 169.488767 
L 556.564849 123.781678 
L 560.924475 120.024562 
L 565.284101 120.030417 
L 569.643727 122.255923 
L 574.003352 151.44241 
L 578.362978 181.822818 
L 582.722604 199.674295 
L 587.08223 205.838189 
L 591.441856 203.503045 
L 595.801482 205.973477 
L 600.161108 205.699309 
L 604.520734 202.85144 
L 608.88036 192.402098 
L 613.239985 188.315777 
L 617.599611 188.220733 
L 621.959237 194.205774 
L 626.318863 207.101226 
L 630.678489 213.058657 
L 635.038115 218.305497 
L 639.397741 222.224465 
L 643.757367 226.722685 
L 648.116993 224.925656 
L 652.476618 214.129965 
L 656.836244 193.67397 
L 661.19587 181.827583 
L 665.555496 182.708834 
L 669.915122 182.964422 
L 674.274748 188.368129 
L 678.634374 183.178119 
L 682.994 180.618701 
L 687.353626 187.161122 
L 691.713251 182.814003 
L 696.072877 168.863313 
L 700.432503 150.5847 
L 704.792129 148.753017 
L 709.151755 149.430236 
L 713.511381 158.332446 
L 717.871007 158.651441 
L 722.230633 155.301037 
L 730.949884 184.190755 
L 735.30951 178.988241 
L 739.669136 152.576826 
L 744.028762 161.446773 
L 748.388388 150.665687 
L 752.748014 145.845894 
L 757.10764 141.248142 
L 761.467266 131.485739 
L 765.826892 125.045746 
L 770.186517 125.532136 
L 774.546143 127.039051 
L 778.905769 128.161325 
L 783.265395 130.363428 
L 787.625021 136.3027 
L 791.984647 133.475956 
L 796.344273 133.766755 
L 800.703899 137.479857 
L 805.063525 134.391709 
L 805.063525 134.391709 
" clip-path="url(#pae3e438cfb)" style="fill: none; stroke: #0000ff; stroke-width: 1.5; stroke-linecap: square"/>
   </g>
   <g id="line2d_15">
    <path d="M 77.006001 233.177216 
L 116.242634 233.177216 
L 120.60226 229.939104 
L 124.961886 224.492446 
L 129.321512 220.699636 
L 133.681138 210.053739 
L 138.040764 204.104594 
L 142.400389 233.177216 
L 216.51403 233.177216 
L 220.873655 232.502385 
L 225.233281 194.574338 
L 229.592907 163.754264 
L 233.952533 112.709858 
L 238.312159 105.906602 
L 242.671785 129.551876 
L 247.031411 232.886908 
L 251.391037 233.177216 
L 430.135698 233.177216 
L 434.495324 203.143782 
L 438.85495 192.222629 
L 443.214576 180.063531 
L 447.574202 147.441726 
L 451.933828 145.475673 
L 456.293453 232.483084 
L 460.653079 233.177216 
L 534.766719 233.177216 
L 539.126345 211.903839 
L 543.485971 192.046459 
L 547.845597 147.566699 
L 552.205223 128.226027 
L 556.564849 162.405035 
L 560.924475 233.177216 
L 635.038115 233.177216 
L 639.397741 230.916571 
L 643.757367 173.053987 
L 648.116993 118.375278 
L 652.476618 90.369109 
L 656.836244 89.302607 
L 661.19587 124.783116 
L 665.555496 231.057161 
L 669.915122 233.177216 
L 739.669136 233.177216 
L 744.028762 233.020002 
L 748.388388 220.781333 
L 752.748014 213.555491 
L 757.10764 203.055592 
L 761.467266 214.353687 
L 765.826892 168.842255 
L 770.186517 231.78423 
L 774.546143 233.177216 
L 805.063525 233.177216 
L 805.063525 233.177216 
" clip-path="url(#pae3e438cfb)" style="fill: none; stroke: #ffa500; stroke-width: 1.5; stroke-linecap: square"/>
   </g>
   <g id="line2d_16">
    <path d="M 77.006001 182.789807 
L 81.365627 182.610144 
L 85.725253 173.393516 
L 90.084879 157.751177 
L 94.444505 150.097504 
L 98.804131 151.287283 
L 103.163757 149.779402 
L 107.523382 146.061475 
L 111.883008 157.95567 
L 116.242634 161.665565 
L 120.60226 173.572948 
L 124.961886 165.809164 
L 129.321512 159.709195 
L 133.681138 134.034148 
L 138.040764 124.575734 
L 142.400389 157.32755 
L 146.760015 175.077538 
L 151.119641 175.382026 
L 155.479267 163.856763 
L 159.838893 169.917681 
L 164.198519 182.504569 
L 168.558145 187.047364 
L 172.917771 193.336884 
L 177.277397 190.532577 
L 181.637022 192.604395 
L 185.996648 190.256559 
L 190.356274 185.081574 
L 194.7159 187.650289 
L 199.075526 183.83209 
L 203.435152 186.784054 
L 207.794778 179.649196 
L 212.154404 168.120719 
L 220.873655 163.182479 
L 225.233281 124.791767 
L 229.592907 93.893665 
L 233.952533 37.340564 
L 238.312159 33.466939 
L 242.671785 50.93884 
L 247.031411 133.17121 
L 251.391037 136.421853 
L 255.750663 142.670185 
L 260.110288 141.505669 
L 264.469914 145.643558 
L 268.82954 156.309586 
L 273.189166 163.474449 
L 277.548792 164.545521 
L 281.908418 152.086816 
L 286.268044 151.036964 
L 290.62767 145.028347 
L 299.346921 148.02651 
L 303.706547 144.150158 
L 308.066173 143.460796 
L 312.425799 138.638076 
L 316.785425 132.176466 
L 321.145051 122.392504 
L 325.504677 120.252983 
L 329.864303 120.049885 
L 347.302806 120.009136 
L 373.460562 119.995897 
L 430.135698 120.030626 
L 434.495324 90.081314 
L 438.85495 79.21183 
L 443.214576 67.609227 
L 447.574202 34.458697 
L 451.933828 32.359034 
L 456.293453 119.370357 
L 460.653079 120.094585 
L 465.012705 120.209103 
L 469.372331 120.096484 
L 482.451209 120.625656 
L 486.810835 120.463694 
L 491.170461 120.803028 
L 495.530086 128.056892 
L 499.889712 125.322262 
L 504.249338 145.349353 
L 508.608964 190.114693 
L 512.96859 129.067771 
L 517.328216 119.999103 
L 521.687842 120.001104 
L 526.047468 120.201305 
L 530.407094 125.29223 
L 534.766719 156.724575 
L 539.126345 171.889251 
L 543.485971 153.361929 
L 547.845597 83.878251 
L 552.205223 41.853508 
L 556.564849 53.009498 
L 560.924475 120.024562 
L 565.284101 120.030417 
L 569.643727 122.255923 
L 574.003352 151.44241 
L 578.362978 181.822818 
L 582.722604 199.674295 
L 587.08223 205.838189 
L 591.441856 203.503045 
L 595.801482 205.973477 
L 600.161108 205.699309 
L 604.520734 202.85144 
L 608.88036 192.402098 
L 613.239985 188.315777 
L 617.599611 188.220733 
L 621.959237 194.205774 
L 626.318863 207.101226 
L 630.678489 213.058657 
L 635.038115 218.305497 
L 639.397741 219.96382 
L 643.757367 166.599456 
L 648.116993 110.123718 
L 652.476618 71.321858 
L 656.836244 49.799361 
L 661.19587 73.433483 
L 665.555496 180.588779 
L 669.915122 182.964422 
L 674.274748 188.368129 
L 678.634374 183.178119 
L 682.994 180.618701 
L 687.353626 187.161122 
L 691.713251 182.814003 
L 696.072877 168.863313 
L 700.432503 150.5847 
L 704.792129 148.753017 
L 709.151755 149.430236 
L 713.511381 158.332446 
L 717.871007 158.651441 
L 722.230633 155.301037 
L 730.949884 184.190755 
L 735.30951 178.988241 
L 739.669136 152.576826 
L 744.028762 161.289559 
L 748.388388 138.269803 
L 752.748014 126.224169 
L 757.10764 111.126518 
L 761.467266 112.66221 
L 765.826892 60.710785 
L 770.186517 124.139151 
L 774.546143 127.039051 
L 778.905769 128.161325 
L 783.265395 130.363428 
L 787.625021 136.3027 
L 791.984647 133.475956 
L 796.344273 133.766755 
L 800.703899 137.479857 
L 805.063525 134.391709 
L 805.063525 134.391709 
" clip-path="url(#pae3e438cfb)" style="fill: none; stroke-dasharray: 5.55,2.4; stroke-dashoffset: 0; stroke: #000000; stroke-width: 1.5"/>
   </g>
   <g id="patch_3">
    <path d="M 40.603125 243.218125 
L 40.603125 22.318125 
" style="fill: none; stroke: #000000; stroke-width: 0.8; stroke-linejoin: miter; stroke-linecap: square"/>
   </g>
   <g id="patch_4">
    <path d="M 841.466401 243.218125 
L 841.466401 22.318125 
" style="fill: none; stroke: #000000; stroke-width: 0.8; stroke-linejoin: miter; stroke-linecap: square"/>
   </g>
   <g id="patch_5">
    <path d="M 40.603125 243.218125 
L 841.466401 243.218125 
" style="fill: none; stroke: #000000; stroke-width: 0.8; stroke-linejoin: miter; stroke-linecap: square"/>
   </g>
   <g id="patch_6">
    <path d="M 40.603125 22.318125 
L 841.466401 22.318125 
" style="fill: none; stroke: #000000; stroke-width: 0.8; stroke-linejoin: miter; stroke-linecap: square"/>
   </g>
   <g id="text_16">
    <!-- Plot 1: Generation (No Load, No Battery) -->
    <g transform="translate(319.463513 16.318125) scale(0.12 -0.12)">
     <defs>
      <path id="DejaVuSans-6c" d="M 603 4863 
L 1178 4863 
L 1178 0 
L 603 0 
L 603 4863 
z
" transform="scale(0.015625)"/>
      <path id="DejaVuSans-74" d="M 1172 4494 
L 1172 3500 
L 2356 3500 
L 2356 3053 
L 1172 3053 
L 1172 1153 
Q 1172 725 1289 603 
Q 1406 481 1766 481 
L 2356 481 
L 2356 0 
L 1766 0 
Q 1100 0 847 248 
Q 594 497 594 1153 
L 594 3053 
L 172 3053 
L 172 3500 
L 594 3500 
L 594 4494 
L 1172 4494 
z
" transform="scale(0.015625)"/>
      <path id="DejaVuSans-3a" d="M 750 794 
L 1409 794 
L 1409 0 
L 750 0 
L 750 794 
z
M 750 3309 
L 1409 3309 
L 1409 2516 
L 750 2516 
L 750 3309 
z
" transform="scale(0.015625)"/>
      <path id="DejaVuSans-47" d="M 3809 666 
L 3809 1919 
L 2778 1919 
L 2778 2438 
L 4434 2438 
L 4434 434 
Q 4069 175 3628 42 
Q 3188 -91 2688 -91 
Q 1594 -91 976 548 
Q 359 1188 359 2328 
Q 359 3472 976 4111 
Q 1594 4750 2688 4750 
Q 3144 4750 3555 4637 
Q 3966 4525 4313 4306 
L 4313 3634 
Q 3963 3931 3569 4081 
Q 3175 4231 2741 4231 
Q 1884 4231 1454 3753 
Q 1025 3275 1025 2328 
Q 1025 1384 1454 906 
Q 1884 428 2741 428 
Q 3075 428 3337 486 
Q 3600 544 3809 666 
z
" transform="scale(0.015625)"/>
      <path id="DejaVuSans-6e" d="M 3513 2113 
L 3513 0 
L 2938 0 
L 2938 2094 
Q 2938 2591 2744 2837 
Q 2550 3084 2163 3084 
Q 1697 3084 1428 2787 
Q 1159 2491 1159 1978 
L 1159 0 
L 581 0 
L 581 3500 
L 1159 3500 
L 1159 2956 
Q 1366 3272 1645 3428 
Q 1925 3584 2291 3584 
Q 2894 3584 3203 3211 
Q 3513 2838 3513 2113 
z
" transform="scale(0.015625)"/>
      <path id="DejaVuSans-61" d="M 2194 1759 
Q 1497 1759 1228 1600 
Q 959 1441 959 1056 
Q 959 750 1161 570 
Q 1363 391 1709 391 
Q 2188 391 2477 730 
Q 2766 1069 2766 1631 
L 2766 1759 
L 2194 1759 
z
M 3341 1997 
L 3341 0 
L 2766 0 
L 2766 531 
Q 2569 213 2275 61 
Q 1981 -91 1556 -91 
Q 1019 -91 701 211 
Q 384 513 384 1019 
Q 384 1609 779 1909 
Q 1175 2209 1959 2209 
L 2766 2209 
L 2766 2266 
Q 2766 2663 2505 2880 
Q 2244 3097 1772 3097 
Q 1472 3097 1187 3025 
Q 903 2953 641 2809 
L 641 3341 
Q 956 3463 1253 3523 
Q 1550 3584 1831 3584 
Q 2591 3584 2966 3190 
Q 3341 2797 3341 1997 
z
" transform="scale(0.015625)"/>
      <path id="DejaVuSans-69" d="M 603 3500 
L 1178 3500 
L 1178 0 
L 603 0 
L 603 3500 
z
M 603 4863 
L 1178 4863 
L 1178 4134 
L 603 4134 
L 603 4863 
z
" transform="scale(0.015625)"/>
      <path id="DejaVuSans-4e" d="M 628 4666 
L 1478 4666 
L 3547 763 
L 3547 4666 
L 4159 4666 
L 4159 0 
L 3309 0 
L 1241 3903 
L 1241 0 
L 628 0 
L 628 4666 
z
" transform="scale(0.015625)"/>
      <path id="DejaVuSans-4c" d="M 628 4666 
L 1259 4666 
L 1259 531 
L 3531 531 
L 3531 0 
L 628 0 
L 628 4666 
z
" transform="scale(0.015625)"/>
      <path id="DejaVuSans-64" d="M 2906 2969 
L 2906 4863 
L 3481 4863 
L 3481 0 
L 2906 0 
L 2906 525 
Q 2725 213 2448 61 
Q 2172 -91 1784 -91 
Q 1150 -91 751 415 
Q 353 922 353 1747 
Q 353 2572 751 3078 
Q 1150 3584 1784 3584 
Q 2172 3584 2448 3432 
Q 2725 3281 2906 2969 
z
M 947 1747 
Q 947 1113 1208 752 
Q 1469 391 1925 391 
Q 2381 391 2643 752 
Q 2906 1113 2906 1747 
Q 2906 2381 2643 2742 
Q 2381 3103 1925 3103 
Q 1469 3103 1208 2742 
Q 947 2381 947 1747 
z
" transform="scale(0.015625)"/>
      <path id="DejaVuSans-2c" d="M 750 794 
L 1409 794 
L 1409 256 
L 897 -744 
L 494 -744 
L 750 256 
L 750 794 
z
" transform="scale(0.015625)"/>
      <path id="DejaVuSans-42" d="M 1259 2228 
L 1259 519 
L 2272 519 
Q 2781 519 3026 730 
Q 3272 941 3272 1375 
Q 3272 1813 3026 2020 
Q 2781 2228 2272 2228 
L 1259 2228 
z
M 1259 4147 
L 1259 2741 
L 2194 2741 
Q 2656 2741 2882 2914 
Q 3109 3088 3109 3444 
Q 3109 3797 2882 3972 
Q 2656 4147 2194 4147 
L 1259 4147 
z
M 628 4666 
L 2241 4666 
Q 2963 4666 3353 4366 
Q 3744 4066 3744 3513 
Q 3744 3084 3544 2831 
Q 3344 2578 2956 2516 
Q 3422 2416 3680 2098 
Q 3938 1781 3938 1306 
Q 3938 681 3513 340 
Q 3088 0 2303 0 
L 628 0 
L 628 4666 
z
" transform="scale(0.015625)"/>
      <path id="DejaVuSans-79" d="M 2059 -325 
Q 1816 -950 1584 -1140 
Q 1353 -1331 966 -1331 
L 506 -1331 
L 506 -850 
L 844 -850 
Q 1081 -850 1212 -737 
Q 1344 -625 1503 -206 
L 1606 56 
L 191 3500 
L 800 3500 
L 1894 763 
L 2988 3500 
L 3597 3500 
L 2059 -325 
z
" transform="scale(0.015625)"/>
     </defs>
     <use xlink:href="#DejaVuSans-50"/>
     <use xlink:href="#DejaVuSans-6c" transform="translate(60.302734 0)"/>
     <use xlink:href="#DejaVuSans-6f" transform="translate(88.085938 0)"/>
     <use xlink:href="#DejaVuSans-74" transform="translate(149.267578 0)"/>
     <use xlink:href="#DejaVuSans-20" transform="translate(188.476562 0)"/>
     <use xlink:href="#DejaVuSans-31" transform="translate(220.263672 0)"/>
     <use xlink:href="#DejaVuSans-3a" transform="translate(283.886719 0)"/>
     <use xlink:href="#DejaVuSans-20" transform="translate(317.578125 0)"/>
     <use xlink:href="#DejaVuSans-47" transform="translate(349.365234 0)"/>
     <use xlink:href="#DejaVuSans-65" transform="translate(426.855469 0)"/>
     <use xlink:href="#DejaVuSans-6e" transform="translate(488.378906 0)"/>
     <use xlink:href="#DejaVuSans-65" transform="translate(551.757812 0)"/>
     <use xlink:href="#DejaVuSans-72" transform="translate(613.28125 0)"/>
     <use xlink:href="#DejaVuSans-61" transform="translate(654.394531 0)"/>
     <use xlink:href="#DejaVuSans-74" transform="translate(715.673828 0)"/>
     <use xlink:href="#DejaVuSans-69" transform="translate(754.882812 0)"/>
     <use xlink:href="#DejaVuSans-6f" transform="translate(782.666016 0)"/>
     <use xlink:href="#DejaVuSans-6e" transform="translate(843.847656 0)"/>
     <use xlink:href="#DejaVuSans-20" transform="translate(907.226562 0)"/>
     <use xlink:href="#DejaVuSans-28" transform="translate(939.013672 0)"/>
     <use xlink:href="#DejaVuSans-4e" transform="translate(978.027344 0)"/>
     <use xlink:href="#DejaVuSans-6f" transform="translate(1052.832031 0)"/>
     <use xlink:href="#DejaVuSans-20" transform="translate(1114.013672 0)"/>
     <use xlink:href="#DejaVuSans-4c" transform="translate(1145.800781 0)"/>
     <use xlink:href="#DejaVuSans-6f" transform="translate(1199.763672 0)"/>
     <use xlink:href="#DejaVuSans-61" transform="translate(1260.945312 0)"/>
     <use xlink:href="#DejaVuSans-64" transform="translate(1322.224609 0)"/>
     <use xlink:href="#DejaVuSans-2c" transform="translate(1385.701172 0)"/>
     <use xlink:href="#DejaVuSans-20" transform="translate(1417.488281 0)"/>
     <use xlink:href="#DejaVuSans-4e" transform="translate(1449.275391 0)"/>
     <use xlink:href="#DejaVuSans-6f" transform="translate(1524.080078 0)"/>
     <use xlink:href="#DejaVuSans-20" transform="translate(1585.261719 0)"/>
     <use xlink:href="#DejaVuSans-42" transform="translate(1617.048828 0)"/>
     <use xlink:href="#DejaVuSans-61" transform="translate(1685.652344 0)"/>
     <use xlink:href="#DejaVuSans-74" transform="translate(1746.931641 0)"/>
     <use xlink:href="#DejaVuSans-74" transform="translate(1786.140625 0)"/>
     <use xlink:href="#DejaVuSans-65" transform="translate(1825.349609 0)"/>
     <use xlink:href="#DejaVuSans-72" transform="translate(1886.873047 0)"/>
     <use xlink:href="#DejaVuSans-79" transform="translate(1927.986328 0)"/>
     <use xlink:href="#DejaVuSans-29" transform="translate(1987.166016 0)"/>
    </g>
   </g>
   <g id="legend_1">
    <g id="patch_7">
     <path d="M 47.603125 74.3525 
L 126.78125 74.3525 
Q 128.78125 74.3525 128.78125 72.3525 
L 128.78125 29.318125 
Q 128.78125 27.318125 126.78125 27.318125 
L 47.603125 27.318125 
Q 45.603125 27.318125 45.603125 29.318125 
L 45.603125 72.3525 
Q 45.603125 74.3525 47.603125 74.3525 
z
" style="fill: #ffffff; opacity: 0.8; stroke: #cccccc; stroke-linejoin: miter"/>
    </g>
    <g id="line2d_17">
     <path d="M 49.603125 35.416563 
L 59.603125 35.416563 
L 69.603125 35.416563 
" style="fill: none; stroke: #0000ff; stroke-width: 1.5; stroke-linecap: square"/>
    </g>
    <g id="text_17">
     <!-- Wind MW -->
     <g transform="translate(77.603125 38.916563) scale(0.1 -0.1)">
      <use xlink:href="#DejaVuSans-57"/>
      <use xlink:href="#DejaVuSans-69" transform="translate(96.626953 0)"/>
      <use xlink:href="#DejaVuSans-6e" transform="translate(124.410156 0)"/>
      <use xlink:href="#DejaVuSans-64" transform="translate(187.789062 0)"/>
      <use xlink:href="#DejaVuSans-20" transform="translate(251.265625 0)"/>
      <use xlink:href="#DejaVuSans-4d" transform="translate(283.052734 0)"/>
      <use xlink:href="#DejaVuSans-57" transform="translate(369.332031 0)"/>
     </g>
    </g>
    <g id="line2d_18">
     <path d="M 49.603125 50.094688 
L 59.603125 50.094688 
L 69.603125 50.094688 
" style="fill: none; stroke: #ffa500; stroke-width: 1.5; stroke-linecap: square"/>
    </g>
    <g id="text_18">
     <!-- Solar MW -->
     <g transform="translate(77.603125 53.594688) scale(0.1 -0.1)">
      <defs>
       <path id="DejaVuSans-53" d="M 3425 4513 
L 3425 3897 
Q 3066 4069 2747 4153 
Q 2428 4238 2131 4238 
Q 1616 4238 1336 4038 
Q 1056 3838 1056 3469 
Q 1056 3159 1242 3001 
Q 1428 2844 1947 2747 
L 2328 2669 
Q 3034 2534 3370 2195 
Q 3706 1856 3706 1288 
Q 3706 609 3251 259 
Q 2797 -91 1919 -91 
Q 1588 -91 1214 -16 
Q 841 59 441 206 
L 441 856 
Q 825 641 1194 531 
Q 1563 422 1919 422 
Q 2459 422 2753 634 
Q 3047 847 3047 1241 
Q 3047 1584 2836 1778 
Q 2625 1972 2144 2069 
L 1759 2144 
Q 1053 2284 737 2584 
Q 422 2884 422 3419 
Q 422 4038 858 4394 
Q 1294 4750 2059 4750 
Q 2388 4750 2728 4690 
Q 3069 4631 3425 4513 
z
" transform="scale(0.015625)"/>
      </defs>
      <use xlink:href="#DejaVuSans-53"/>
      <use xlink:href="#DejaVuSans-6f" transform="translate(63.476562 0)"/>
      <use xlink:href="#DejaVuSans-6c" transform="translate(124.658203 0)"/>
      <use xlink:href="#DejaVuSans-61" transform="translate(152.441406 0)"/>
      <use xlink:href="#DejaVuSans-72" transform="translate(213.720703 0)"/>
      <use xlink:href="#DejaVuSans-20" transform="translate(254.833984 0)"/>
      <use xlink:href="#DejaVuSans-4d" transform="translate(286.621094 0)"/>
      <use xlink:href="#DejaVuSans-57" transform="translate(372.900391 0)"/>
     </g>
    </g>
    <g id="line2d_19">
     <path d="M 49.603125 64.772813 
L 59.603125 64.772813 
L 69.603125 64.772813 
" style="fill: none; stroke-dasharray: 5.55,2.4; stroke-dashoffset: 0; stroke: #000000; stroke-width: 1.5"/>
    </g>
    <g id="text_19">
     <!-- Total Gen -->
     <g transform="translate(77.603125 68.272813) scale(0.1 -0.1)">
      <defs>
       <path id="DejaVuSans-54" d="M -19 4666 
L 3928 4666 
L 3928 4134 
L 2272 4134 
L 2272 0 
L 1638 0 
L 1638 4134 
L -19 4134 
L -19 4666 
z
" transform="scale(0.015625)"/>
      </defs>
      <use xlink:href="#DejaVuSans-54"/>
      <use xlink:href="#DejaVuSans-6f" transform="translate(44.083984 0)"/>
      <use xlink:href="#DejaVuSans-74" transform="translate(105.265625 0)"/>
      <use xlink:href="#DejaVuSans-61" transform="translate(144.474609 0)"/>
      <use xlink:href="#DejaVuSans-6c" transform="translate(205.753906 0)"/>
      <use xlink:href="#DejaVuSans-20" transform="translate(233.537109 0)"/>
      <use xlink:href="#DejaVuSans-47" transform="translate(265.324219 0)"/>
      <use xlink:href="#DejaVuSans-65" transform="translate(342.814453 0)"/>
      <use xlink:href="#DejaVuSans-6e" transform="translate(404.337891 0)"/>
     </g>
    </g>
   </g>
  </g>
 </g>
 <defs>
  <clipPath id="pae3e438cfb">
   <rect x="40.603125" y="22.318125" width="800.863276" height="220.9"/>
  </clipPath>
 </defs>
</svg>
