<?xml version="1.0" encoding="utf-8" standalone="no"?>
<!DOCTYPE svg PUBLIC "-//W3C//DTD SVG 1.1//EN"
  "http://www.w3.org/Graphics/SVG/1.1/DTD/svg11.dtd">
<svg xmlns:xlink="http://www.w3.org/1999/xlink" width="527.520656pt" height="323.00275pt" viewBox="0 0 527.520656 323.00275" xmlns="http://www.w3.org/2000/svg" version="1.1">
 <metadata>
  <rdf:RDF xmlns:dc="http://purl.org/dc/elements/1.1/" xmlns:cc="http://creativecommons.org/ns#" xmlns:rdf="http://www.w3.org/1999/02/22-rdf-syntax-ns#">
   <cc:Work>
    <dc:type rdf:resource="http://purl.org/dc/dcmitype/StillImage"/>
    <dc:date>2026-06-17T15:19:35.163036</dc:date>
    <dc:format>image/svg+xml</dc:format>
    <dc:creator>
     <cc:Agent>
      <dc:title>Matplotlib v3.10.8, https://matplotlib.org/</dc:title>
     </cc:Agent>
    </dc:creator>
   </cc:Work>
  </rdf:RDF>
 </metadata>
 <defs>
  <style type="text/css">*{stroke-linejoin: round; stroke-linecap: butt}</style>
 </defs>
 <g id="figure_1">
  <g id="patch_1">
   <path d="M 0 323.00275 
L 527.520656 323.00275 
L 527.520656 0 
L 0 0 
z
" style="fill: #ffffff"/>
  </g>
  <g id="axes_1">
   <g id="patch_2">
    <path d="M 46.020656 182.145 
L 520.320656 182.145 
L 520.320656 43.545 
L 46.020656 43.545 
z
" style="fill: #ffffff"/>
   </g>
   <g id="matplotlib.axis_1">
    <g id="xtick_1">
     <g id="line2d_1">
      <defs>
       <path id="m2f0ab507d0" d="M 0 0 
L 0 3.5 
" style="stroke: #000000; stroke-width: 0.8"/>
      </defs>
      <g>
       <use xlink:href="#m2f0ab507d0" x="52.700938" y="182.145" style="stroke: #000000; stroke-width: 0.8"/>
      </g>
     </g>
    </g>
    <g id="xtick_2">
     <g id="line2d_2">
      <g>
       <use xlink:href="#m2f0ab507d0" x="132.864318" y="182.145" style="stroke: #000000; stroke-width: 0.8"/>
      </g>
     </g>
    </g>
    <g id="xtick_3">
     <g id="line2d_3">
      <g>
       <use xlink:href="#m2f0ab507d0" x="213.027699" y="182.145" style="stroke: #000000; stroke-width: 0.8"/>
      </g>
     </g>
    </g>
    <g id="xtick_4">
     <g id="line2d_4">
      <g>
       <use xlink:href="#m2f0ab507d0" x="293.191079" y="182.145" style="stroke: #000000; stroke-width: 0.8"/>
      </g>
     </g>
    </g>
    <g id="xtick_5">
     <g id="line2d_5">
      <g>
       <use xlink:href="#m2f0ab507d0" x="373.354459" y="182.145" style="stroke: #000000; stroke-width: 0.8"/>
      </g>
     </g>
    </g>
    <g id="xtick_6">
     <g id="line2d_6">
      <g>
       <use xlink:href="#m2f0ab507d0" x="453.517839" y="182.145" style="stroke: #000000; stroke-width: 0.8"/>
      </g>
     </g>
    </g>
   </g>
   <g id="matplotlib.axis_2">
    <g id="ytick_1">
     <g id="line2d_7">
      <path d="M 46.020656 182.145 
L 520.320656 182.145 
" clip-path="url(#p12aea03574)" style="fill: none; stroke: #b0b0b0; stroke-opacity: 0.3; stroke-width: 0.8; stroke-linecap: square"/>
     </g>
     <g id="line2d_8"/>
     <g id="text_1">
      <!-- 0 -->
      <g transform="translate(38.071906 185.008125) scale(0.08 -0.08)">
       <defs>
        <path id="ArialMT-30" d="M 266 2259 
Q 266 3072 433 3567 
Q 600 4063 929 4331 
Q 1259 4600 1759 4600 
Q 2128 4600 2406 4451 
Q 2684 4303 2865 4023 
Q 3047 3744 3150 3342 
Q 3253 2941 3253 2259 
Q 3253 1453 3087 958 
Q 2922 463 2592 192 
Q 2263 -78 1759 -78 
Q 1097 -78 719 397 
Q 266 969 266 2259 
z
M 844 2259 
Q 844 1131 1108 757 
Q 1372 384 1759 384 
Q 2147 384 2411 759 
Q 2675 1134 2675 2259 
Q 2675 3391 2411 3762 
Q 2147 4134 1753 4134 
Q 1366 4134 1134 3806 
Q 844 3388 844 2259 
z
" transform="scale(0.015625)"/>
       </defs>
       <use xlink:href="#ArialMT-30"/>
      </g>
     </g>
    </g>
    <g id="ytick_2">
     <g id="line2d_9">
      <path d="M 46.020656 159.76351 
L 520.320656 159.76351 
" clip-path="url(#p12aea03574)" style="fill: none; stroke: #b0b0b0; stroke-opacity: 0.3; stroke-width: 0.8; stroke-linecap: square"/>
     </g>
     <g id="line2d_10"/>
     <g id="text_2">
      <!-- 20 -->
      <g transform="translate(33.623156 162.626635) scale(0.08 -0.08)">
       <defs>
        <path id="ArialMT-32" d="M 3222 541 
L 3222 0 
L 194 0 
Q 188 203 259 391 
Q 375 700 629 1000 
Q 884 1300 1366 1694 
Q 2113 2306 2375 2664 
Q 2638 3022 2638 3341 
Q 2638 3675 2398 3904 
Q 2159 4134 1775 4134 
Q 1369 4134 1125 3890 
Q 881 3647 878 3216 
L 300 3275 
Q 359 3922 746 4261 
Q 1134 4600 1788 4600 
Q 2447 4600 2831 4234 
Q 3216 3869 3216 3328 
Q 3216 3053 3103 2787 
Q 2991 2522 2730 2228 
Q 2469 1934 1863 1422 
Q 1356 997 1212 845 
Q 1069 694 975 541 
L 3222 541 
z
" transform="scale(0.015625)"/>
       </defs>
       <use xlink:href="#ArialMT-32"/>
       <use xlink:href="#ArialMT-30" transform="translate(55.615234 0)"/>
      </g>
     </g>
    </g>
    <g id="ytick_3">
     <g id="line2d_11">
      <path d="M 46.020656 137.38202 
L 520.320656 137.38202 
" clip-path="url(#p12aea03574)" style="fill: none; stroke: #b0b0b0; stroke-opacity: 0.3; stroke-width: 0.8; stroke-linecap: square"/>
     </g>
     <g id="line2d_12"/>
     <g id="text_3">
      <!-- 40 -->
      <g transform="translate(33.623156 140.245145) scale(0.08 -0.08)">
       <defs>
        <path id="ArialMT-34" d="M 2069 0 
L 2069 1097 
L 81 1097 
L 81 1613 
L 2172 4581 
L 2631 4581 
L 2631 1613 
L 3250 1613 
L 3250 1097 
L 2631 1097 
L 2631 0 
L 2069 0 
z
M 2069 1613 
L 2069 3678 
L 634 1613 
L 2069 1613 
z
" transform="scale(0.015625)"/>
       </defs>
       <use xlink:href="#ArialMT-34"/>
       <use xlink:href="#ArialMT-30" transform="translate(55.615234 0)"/>
      </g>
     </g>
    </g>
    <g id="ytick_4">
     <g id="line2d_13">
      <path d="M 46.020656 115.00053 
L 520.320656 115.00053 
" clip-path="url(#p12aea03574)" style="fill: none; stroke: #b0b0b0; stroke-opacity: 0.3; stroke-width: 0.8; stroke-linecap: square"/>
     </g>
     <g id="line2d_14"/>
     <g id="text_4">
      <!-- 60 -->
      <g transform="translate(33.623156 117.863655) scale(0.08 -0.08)">
       <defs>
        <path id="ArialMT-36" d="M 3184 3459 
L 2625 3416 
Q 2550 3747 2413 3897 
Q 2184 4138 1850 4138 
Q 1581 4138 1378 3988 
Q 1113 3794 959 3422 
Q 806 3050 800 2363 
Q 1003 2672 1297 2822 
Q 1591 2972 1913 2972 
Q 2475 2972 2870 2558 
Q 3266 2144 3266 1488 
Q 3266 1056 3080 686 
Q 2894 316 2569 119 
Q 2244 -78 1831 -78 
Q 1128 -78 684 439 
Q 241 956 241 2144 
Q 241 3472 731 4075 
Q 1159 4600 1884 4600 
Q 2425 4600 2770 4297 
Q 3116 3994 3184 3459 
z
M 888 1484 
Q 888 1194 1011 928 
Q 1134 663 1356 523 
Q 1578 384 1822 384 
Q 2178 384 2434 671 
Q 2691 959 2691 1453 
Q 2691 1928 2437 2201 
Q 2184 2475 1800 2475 
Q 1419 2475 1153 2201 
Q 888 1928 888 1484 
z
" transform="scale(0.015625)"/>
       </defs>
       <use xlink:href="#ArialMT-36"/>
       <use xlink:href="#ArialMT-30" transform="translate(55.615234 0)"/>
      </g>
     </g>
    </g>
    <g id="ytick_5">
     <g id="line2d_15">
      <path d="M 46.020656 92.619041 
L 520.320656 92.619041 
" clip-path="url(#p12aea03574)" style="fill: none; stroke: #b0b0b0; stroke-opacity: 0.3; stroke-width: 0.8; stroke-linecap: square"/>
     </g>
     <g id="line2d_16"/>
     <g id="text_5">
      <!-- 80 -->
      <g transform="translate(33.623156 95.482166) scale(0.08 -0.08)">
       <defs>
        <path id="ArialMT-38" d="M 1131 2484 
Q 781 2613 612 2850 
Q 444 3088 444 3419 
Q 444 3919 803 4259 
Q 1163 4600 1759 4600 
Q 2359 4600 2725 4251 
Q 3091 3903 3091 3403 
Q 3091 3084 2923 2848 
Q 2756 2613 2416 2484 
Q 2838 2347 3058 2040 
Q 3278 1734 3278 1309 
Q 3278 722 2862 322 
Q 2447 -78 1769 -78 
Q 1091 -78 675 323 
Q 259 725 259 1325 
Q 259 1772 486 2073 
Q 713 2375 1131 2484 
z
M 1019 3438 
Q 1019 3113 1228 2906 
Q 1438 2700 1772 2700 
Q 2097 2700 2305 2904 
Q 2513 3109 2513 3406 
Q 2513 3716 2298 3927 
Q 2084 4138 1766 4138 
Q 1444 4138 1231 3931 
Q 1019 3725 1019 3438 
z
M 838 1322 
Q 838 1081 952 856 
Q 1066 631 1291 507 
Q 1516 384 1775 384 
Q 2178 384 2440 643 
Q 2703 903 2703 1303 
Q 2703 1709 2433 1975 
Q 2163 2241 1756 2241 
Q 1359 2241 1098 1978 
Q 838 1716 838 1322 
z
" transform="scale(0.015625)"/>
       </defs>
       <use xlink:href="#ArialMT-38"/>
       <use xlink:href="#ArialMT-30" transform="translate(55.615234 0)"/>
      </g>
     </g>
    </g>
    <g id="ytick_6">
     <g id="line2d_17">
      <path d="M 46.020656 70.237551 
L 520.320656 70.237551 
" clip-path="url(#p12aea03574)" style="fill: none; stroke: #b0b0b0; stroke-opacity: 0.3; stroke-width: 0.8; stroke-linecap: square"/>
     </g>
     <g id="line2d_18"/>
     <g id="text_6">
      <!-- 100 -->
      <g transform="translate(29.174406 73.100676) scale(0.08 -0.08)">
       <defs>
        <path id="ArialMT-31" d="M 2384 0 
L 1822 0 
L 1822 3584 
Q 1619 3391 1289 3197 
Q 959 3003 697 2906 
L 697 3450 
Q 1169 3672 1522 3987 
Q 1875 4303 2022 4600 
L 2384 4600 
L 2384 0 
z
" transform="scale(0.015625)"/>
       </defs>
       <use xlink:href="#ArialMT-31"/>
       <use xlink:href="#ArialMT-30" transform="translate(55.615234 0)"/>
       <use xlink:href="#ArialMT-30" transform="translate(111.230469 0)"/>
      </g>
     </g>
    </g>
    <g id="ytick_7">
     <g id="line2d_19">
      <path d="M 46.020656 47.856061 
L 520.320656 47.856061 
" clip-path="url(#p12aea03574)" style="fill: none; stroke: #b0b0b0; stroke-opacity: 0.3; stroke-width: 0.8; stroke-linecap: square"/>
     </g>
     <g id="line2d_20"/>
     <g id="text_7">
      <!-- 120 -->
      <g transform="translate(29.174406 50.719186) scale(0.08 -0.08)">
       <use xlink:href="#ArialMT-31"/>
       <use xlink:href="#ArialMT-32" transform="translate(55.615234 0)"/>
       <use xlink:href="#ArialMT-30" transform="translate(111.230469 0)"/>
      </g>
     </g>
    </g>
    <g id="text_8">
     <!-- Power -->
     <g style="fill: #2c3e50" transform="translate(13.642031 126.349219) rotate(-90) scale(0.09 -0.09)">
      <defs>
       <path id="Arial-BoldMT-50" d="M 466 0 
L 466 4581 
L 1950 4581 
Q 2794 4581 3050 4513 
Q 3444 4409 3709 4064 
Q 3975 3719 3975 3172 
Q 3975 2750 3822 2462 
Q 3669 2175 3433 2011 
Q 3197 1847 2953 1794 
Q 2622 1728 1994 1728 
L 1391 1728 
L 1391 0 
L 466 0 
z
M 1391 3806 
L 1391 2506 
L 1897 2506 
Q 2444 2506 2628 2578 
Q 2813 2650 2917 2803 
Q 3022 2956 3022 3159 
Q 3022 3409 2875 3571 
Q 2728 3734 2503 3775 
Q 2338 3806 1838 3806 
L 1391 3806 
z
" transform="scale(0.015625)"/>
       <path id="Arial-BoldMT-6f" d="M 256 1706 
Q 256 2144 472 2553 
Q 688 2963 1083 3178 
Q 1478 3394 1966 3394 
Q 2719 3394 3200 2905 
Q 3681 2416 3681 1669 
Q 3681 916 3195 420 
Q 2709 -75 1972 -75 
Q 1516 -75 1102 131 
Q 688 338 472 736 
Q 256 1134 256 1706 
z
M 1156 1659 
Q 1156 1166 1390 903 
Q 1625 641 1969 641 
Q 2313 641 2545 903 
Q 2778 1166 2778 1666 
Q 2778 2153 2545 2415 
Q 2313 2678 1969 2678 
Q 1625 2678 1390 2415 
Q 1156 2153 1156 1659 
z
" transform="scale(0.015625)"/>
       <path id="Arial-BoldMT-77" d="M 1078 0 
L 28 3319 
L 881 3319 
L 1503 1144 
L 2075 3319 
L 2922 3319 
L 3475 1144 
L 4109 3319 
L 4975 3319 
L 3909 0 
L 3066 0 
L 2494 2134 
L 1931 0 
L 1078 0 
z
" transform="scale(0.015625)"/>
       <path id="Arial-BoldMT-65" d="M 2381 1056 
L 3256 909 
Q 3088 428 2723 176 
Q 2359 -75 1813 -75 
Q 947 -75 531 491 
Q 203 944 203 1634 
Q 203 2459 634 2926 
Q 1066 3394 1725 3394 
Q 2466 3394 2894 2905 
Q 3322 2416 3303 1406 
L 1103 1406 
Q 1113 1016 1316 798 
Q 1519 581 1822 581 
Q 2028 581 2168 693 
Q 2309 806 2381 1056 
z
M 2431 1944 
Q 2422 2325 2234 2523 
Q 2047 2722 1778 2722 
Q 1491 2722 1303 2513 
Q 1116 2303 1119 1944 
L 2431 1944 
z
" transform="scale(0.015625)"/>
       <path id="Arial-BoldMT-72" d="M 1300 0 
L 422 0 
L 422 3319 
L 1238 3319 
L 1238 2847 
Q 1447 3181 1614 3287 
Q 1781 3394 1994 3394 
Q 2294 3394 2572 3228 
L 2300 2463 
Q 2078 2606 1888 2606 
Q 1703 2606 1575 2504 
Q 1447 2403 1373 2137 
Q 1300 1872 1300 1025 
L 1300 0 
z
" transform="scale(0.015625)"/>
      </defs>
      <use xlink:href="#Arial-BoldMT-50"/>
      <use xlink:href="#Arial-BoldMT-6f" transform="translate(66.699219 0)"/>
      <use xlink:href="#Arial-BoldMT-77" transform="translate(127.783203 0)"/>
      <use xlink:href="#Arial-BoldMT-65" transform="translate(205.566406 0)"/>
      <use xlink:href="#Arial-BoldMT-72" transform="translate(261.181641 0)"/>
     </g>
     <!-- (MW) -->
     <g style="fill: #2c3e50" transform="translate(23.280188 123.837656) rotate(-90) scale(0.09 -0.09)">
      <defs>
       <path id="Arial-BoldMT-28" d="M 1916 -1347 
L 1313 -1347 
Q 834 -625 584 153 
Q 334 931 334 1659 
Q 334 2563 644 3369 
Q 913 4069 1325 4659 
L 1925 4659 
Q 1497 3713 1336 3048 
Q 1175 2384 1175 1641 
Q 1175 1128 1270 590 
Q 1366 53 1531 -431 
Q 1641 -750 1916 -1347 
z
" transform="scale(0.015625)"/>
       <path id="Arial-BoldMT-4d" d="M 453 0 
L 453 4581 
L 1838 4581 
L 2669 1456 
L 3491 4581 
L 4878 4581 
L 4878 0 
L 4019 0 
L 4019 3606 
L 3109 0 
L 2219 0 
L 1313 3606 
L 1313 0 
L 453 0 
z
" transform="scale(0.015625)"/>
       <path id="Arial-BoldMT-57" d="M 1116 0 
L 22 4581 
L 969 4581 
L 1659 1434 
L 2497 4581 
L 3597 4581 
L 4400 1381 
L 5103 4581 
L 6034 4581 
L 4922 0 
L 3941 0 
L 3028 3425 
L 2119 0 
L 1116 0 
z
" transform="scale(0.015625)"/>
       <path id="Arial-BoldMT-29" d="M 216 -1347 
Q 475 -791 581 -494 
Q 688 -197 778 190 
Q 869 578 912 926 
Q 956 1275 956 1641 
Q 956 2384 797 3048 
Q 638 3713 209 4659 
L 806 4659 
Q 1278 3988 1539 3234 
Q 1800 2481 1800 1706 
Q 1800 1053 1594 306 
Q 1359 -531 822 -1347 
L 216 -1347 
z
" transform="scale(0.015625)"/>
      </defs>
      <use xlink:href="#Arial-BoldMT-28"/>
      <use xlink:href="#Arial-BoldMT-4d" transform="translate(33.300781 0)"/>
      <use xlink:href="#Arial-BoldMT-57" transform="translate(116.601562 0)"/>
      <use xlink:href="#Arial-BoldMT-29" transform="translate(210.986328 0)"/>
     </g>
    </g>
   </g>
   <g id="patch_3">
    <path d="M 46.020656 182.145 
L 46.020656 43.545 
" style="fill: none; stroke: #2d3748; stroke-linejoin: miter; stroke-linecap: square"/>
   </g>
   <g id="patch_4">
    <path d="M 46.020656 182.145 
L 520.320656 182.145 
" style="fill: none; stroke: #2d3748; stroke-linejoin: miter; stroke-linecap: square"/>
   </g>
   <g id="FillBetweenPolyCollection_1">
    <path d="M 46.020656 173.192404 
L 46.020656 182.145 
L 52.700938 182.145 
L 59.38122 182.145 
L 66.061501 182.145 
L 72.741783 182.145 
L 79.422065 182.145 
L 86.102346 182.145 
L 92.782628 182.145 
L 99.46291 182.145 
L 106.143191 182.145 
L 112.823473 182.145 
L 119.503755 182.145 
L 126.184037 182.145 
L 132.864318 182.145 
L 139.5446 182.145 
L 146.224882 182.145 
L 152.905163 182.145 
L 159.585445 182.145 
L 166.265727 182.145 
L 172.946008 182.145 
L 179.62629 182.145 
L 186.306572 182.145 
L 192.986853 182.145 
L 199.667135 182.145 
L 206.347417 182.145 
L 213.027699 182.145 
L 219.70798 182.145 
L 226.388262 182.145 
L 233.068544 182.145 
L 239.748825 182.145 
L 246.429107 182.145 
L 253.109389 182.145 
L 259.78967 182.145 
L 266.469952 182.145 
L 273.150234 182.145 
L 279.830515 182.145 
L 286.510797 182.145 
L 293.191079 182.145 
L 299.87136 182.145 
L 306.551642 182.145 
L 313.231924 182.145 
L 319.912206 182.145 
L 326.592487 182.145 
L 333.272769 182.145 
L 339.953051 182.145 
L 346.633332 182.145 
L 353.313614 182.145 
L 359.993896 182.145 
L 366.674177 182.145 
L 373.354459 182.145 
L 380.034741 182.145 
L 386.715022 182.145 
L 393.395304 182.145 
L 400.075586 182.145 
L 406.755868 182.145 
L 413.436149 182.145 
L 420.116431 182.145 
L 426.796713 182.145 
L 433.476994 182.145 
L 440.157276 182.145 
L 446.837558 182.145 
L 453.517839 182.145 
L 460.198121 182.145 
L 466.878403 182.145 
L 473.558684 182.145 
L 480.238966 182.145 
L 486.919248 182.145 
L 493.599529 182.145 
L 500.279811 182.145 
L 506.960093 182.145 
L 513.640375 182.145 
L 520.320656 182.145 
L 520.320656 173.192404 
L 520.320656 173.192404 
L 513.640375 173.192404 
L 506.960093 173.192404 
L 500.279811 173.192404 
L 493.599529 173.192404 
L 486.919248 173.192404 
L 480.238966 173.192404 
L 473.558684 173.192404 
L 466.878403 173.192404 
L 460.198121 173.192404 
L 453.517839 173.192404 
L 446.837558 173.192404 
L 440.157276 173.192404 
L 433.476994 173.192404 
L 426.796713 173.192404 
L 420.116431 173.192404 
L 413.436149 173.192404 
L 406.755868 173.192404 
L 400.075586 173.192404 
L 393.395304 173.192404 
L 386.715022 173.192404 
L 380.034741 173.192404 
L 373.354459 173.192404 
L 366.674177 173.192404 
L 359.993896 173.192404 
L 353.313614 173.192404 
L 346.633332 173.192404 
L 339.953051 173.192404 
L 333.272769 173.192404 
L 326.592487 173.192404 
L 319.912206 173.192404 
L 313.231924 173.192404 
L 306.551642 173.192404 
L 299.87136 173.192404 
L 293.191079 173.192404 
L 286.510797 173.192404 
L 279.830515 173.192404 
L 273.150234 173.192404 
L 266.469952 173.192404 
L 259.78967 173.192404 
L 253.109389 173.192404 
L 246.429107 173.192404 
L 239.748825 173.192404 
L 233.068544 173.192404 
L 226.388262 173.192404 
L 219.70798 173.192404 
L 213.027699 173.192404 
L 206.347417 173.192404 
L 199.667135 173.192404 
L 192.986853 173.192404 
L 186.306572 173.192404 
L 179.62629 173.192404 
L 172.946008 173.192404 
L 166.265727 173.192404 
L 159.585445 173.192404 
L 152.905163 173.192404 
L 146.224882 173.192404 
L 139.5446 173.192404 
L 132.864318 173.192404 
L 126.184037 173.192404 
L 119.503755 173.192404 
L 112.823473 173.192404 
L 106.143191 173.192404 
L 99.46291 173.192404 
L 92.782628 173.192404 
L 86.102346 173.192404 
L 79.422065 173.192404 
L 72.741783 173.192404 
L 66.061501 173.192404 
L 59.38122 173.192404 
L 52.700938 173.192404 
L 46.020656 173.192404 
z
" clip-path="url(#p12aea03574)" style="fill: #1a365d; fill-opacity: 0.9"/>
   </g>
   <g id="FillBetweenPolyCollection_2">
    <path d="M 192.986853 173.192404 
L 192.986853 175.597174 
L 199.667135 176.207111 
L 206.347417 178.711994 
L 213.027699 179.369215 
L 219.70798 179.88429 
L 226.388262 180.319721 
L 233.068544 182.145 
L 239.748825 182.145 
L 246.429107 182.145 
L 253.109389 182.145 
L 259.78967 182.145 
L 266.469952 182.145 
L 273.150234 179.314038 
L 279.830515 173.391777 
L 279.830515 173.192404 
L 279.830515 173.192404 
L 273.150234 173.192404 
L 266.469952 173.192404 
L 259.78967 173.192404 
L 253.109389 173.192404 
L 246.429107 173.192404 
L 239.748825 173.192404 
L 233.068544 173.192404 
L 226.388262 173.192404 
L 219.70798 173.192404 
L 213.027699 173.192404 
L 206.347417 173.192404 
L 199.667135 173.192404 
L 192.986853 173.192404 
z
" clip-path="url(#p12aea03574)" style="fill: url(#h973c6ef083); fill-opacity: 0.85"/>
   </g>
   <g id="FillBetweenPolyCollection_3">
    <path d="M 346.633332 143.024178 
L 346.633332 173.192404 
L 353.313614 173.192404 
L 353.313614 143.024178 
L 353.313614 143.024178 
L 346.633332 143.024178 
z
" clip-path="url(#p12aea03574)" style="fill: url(#h81d837281b); fill-opacity: 0.6"/>
    <path d="M 486.919248 143.443742 
L 486.919248 173.192404 
L 493.599529 173.192404 
L 500.279811 173.192404 
L 500.279811 143.024178 
L 500.279811 143.024178 
L 493.599529 147.201212 
L 486.919248 143.443742 
z
" clip-path="url(#p12aea03574)" style="fill: url(#h81d837281b); fill-opacity: 0.6"/>
    <path d="M 513.640375 161.801728 
L 513.640375 173.192404 
L 513.640375 161.801728 
L 513.640375 161.801728 
z
" clip-path="url(#p12aea03574)" style="fill: url(#h81d837281b); fill-opacity: 0.6"/>
   </g>
   <g id="legend_1">
    <g id="patch_5">
     <path d="M 188.520656 16.22375 
L 204.520656 16.22375 
L 204.520656 10.62375 
L 188.520656 10.62375 
z
" style="fill: #1a365d; fill-opacity: 0.9"/>
    </g>
    <g id="text_9">
     <!-- Tier A (8 MW) -->
     <g transform="translate(210.920656 16.22375) scale(0.08 -0.08)">
      <defs>
       <path id="ArialMT-54" d="M 1659 0 
L 1659 4041 
L 150 4041 
L 150 4581 
L 3781 4581 
L 3781 4041 
L 2266 4041 
L 2266 0 
L 1659 0 
z
" transform="scale(0.015625)"/>
       <path id="ArialMT-69" d="M 425 3934 
L 425 4581 
L 988 4581 
L 988 3934 
L 425 3934 
z
M 425 0 
L 425 3319 
L 988 3319 
L 988 0 
L 425 0 
z
" transform="scale(0.015625)"/>
       <path id="ArialMT-65" d="M 2694 1069 
L 3275 997 
Q 3138 488 2766 206 
Q 2394 -75 1816 -75 
Q 1088 -75 661 373 
Q 234 822 234 1631 
Q 234 2469 665 2931 
Q 1097 3394 1784 3394 
Q 2450 3394 2872 2941 
Q 3294 2488 3294 1666 
Q 3294 1616 3291 1516 
L 816 1516 
Q 847 969 1125 678 
Q 1403 388 1819 388 
Q 2128 388 2347 550 
Q 2566 713 2694 1069 
z
M 847 1978 
L 2700 1978 
Q 2663 2397 2488 2606 
Q 2219 2931 1791 2931 
Q 1403 2931 1139 2672 
Q 875 2413 847 1978 
z
" transform="scale(0.015625)"/>
       <path id="ArialMT-72" d="M 416 0 
L 416 3319 
L 922 3319 
L 922 2816 
Q 1116 3169 1280 3281 
Q 1444 3394 1641 3394 
Q 1925 3394 2219 3213 
L 2025 2691 
Q 1819 2813 1613 2813 
Q 1428 2813 1281 2702 
Q 1134 2591 1072 2394 
Q 978 2094 978 1738 
L 978 0 
L 416 0 
z
" transform="scale(0.015625)"/>
       <path id="ArialMT-20" transform="scale(0.015625)"/>
       <path id="ArialMT-41" d="M -9 0 
L 1750 4581 
L 2403 4581 
L 4278 0 
L 3588 0 
L 3053 1388 
L 1138 1388 
L 634 0 
L -9 0 
z
M 1313 1881 
L 2866 1881 
L 2388 3150 
Q 2169 3728 2063 4100 
Q 1975 3659 1816 3225 
L 1313 1881 
z
" transform="scale(0.015625)"/>
       <path id="ArialMT-28" d="M 1497 -1347 
Q 1031 -759 709 28 
Q 388 816 388 1659 
Q 388 2403 628 3084 
Q 909 3875 1497 4659 
L 1900 4659 
Q 1522 4009 1400 3731 
Q 1209 3300 1100 2831 
Q 966 2247 966 1656 
Q 966 153 1900 -1347 
L 1497 -1347 
z
" transform="scale(0.015625)"/>
       <path id="ArialMT-4d" d="M 475 0 
L 475 4581 
L 1388 4581 
L 2472 1338 
Q 2622 884 2691 659 
Q 2769 909 2934 1394 
L 4031 4581 
L 4847 4581 
L 4847 0 
L 4263 0 
L 4263 3834 
L 2931 0 
L 2384 0 
L 1059 3900 
L 1059 0 
L 475 0 
z
" transform="scale(0.015625)"/>
       <path id="ArialMT-57" d="M 1294 0 
L 78 4581 
L 700 4581 
L 1397 1578 
Q 1509 1106 1591 641 
Q 1766 1375 1797 1488 
L 2669 4581 
L 3400 4581 
L 4056 2263 
Q 4303 1400 4413 641 
Q 4500 1075 4641 1638 
L 5359 4581 
L 5969 4581 
L 4713 0 
L 4128 0 
L 3163 3491 
Q 3041 3928 3019 4028 
Q 2947 3713 2884 3491 
L 1913 0 
L 1294 0 
z
" transform="scale(0.015625)"/>
       <path id="ArialMT-29" d="M 791 -1347 
L 388 -1347 
Q 1322 153 1322 1656 
Q 1322 2244 1188 2822 
Q 1081 3291 891 3722 
Q 769 4003 388 4659 
L 791 4659 
Q 1378 3875 1659 3084 
Q 1900 2403 1900 1659 
Q 1900 816 1576 28 
Q 1253 -759 791 -1347 
z
" transform="scale(0.015625)"/>
      </defs>
      <use xlink:href="#ArialMT-54"/>
      <use xlink:href="#ArialMT-69" transform="translate(57.333984 0)"/>
      <use xlink:href="#ArialMT-65" transform="translate(79.550781 0)"/>
      <use xlink:href="#ArialMT-72" transform="translate(135.166016 0)"/>
      <use xlink:href="#ArialMT-20" transform="translate(168.466797 0)"/>
      <use xlink:href="#ArialMT-41" transform="translate(190.75 0)"/>
      <use xlink:href="#ArialMT-20" transform="translate(251.949219 0)"/>
      <use xlink:href="#ArialMT-28" transform="translate(279.732422 0)"/>
      <use xlink:href="#ArialMT-38" transform="translate(313.033203 0)"/>
      <use xlink:href="#ArialMT-20" transform="translate(368.648438 0)"/>
      <use xlink:href="#ArialMT-4d" transform="translate(396.431641 0)"/>
      <use xlink:href="#ArialMT-57" transform="translate(479.732422 0)"/>
      <use xlink:href="#ArialMT-29" transform="translate(574.117188 0)"/>
     </g>
    </g>
    <g id="line2d_21">
     <path d="M 188.520656 24.83375 
L 196.520656 24.83375 
L 204.520656 24.83375 
" style="fill: none; stroke-dasharray: 5.55,2.4; stroke-dashoffset: 0; stroke: #2c3e50; stroke-width: 1.5"/>
    </g>
    <g id="text_10">
     <!-- Total Generation -->
     <g transform="translate(210.920656 27.63375) scale(0.08 -0.08)">
      <defs>
       <path id="ArialMT-6f" d="M 213 1659 
Q 213 2581 725 3025 
Q 1153 3394 1769 3394 
Q 2453 3394 2887 2945 
Q 3322 2497 3322 1706 
Q 3322 1066 3130 698 
Q 2938 331 2570 128 
Q 2203 -75 1769 -75 
Q 1072 -75 642 372 
Q 213 819 213 1659 
z
M 791 1659 
Q 791 1022 1069 705 
Q 1347 388 1769 388 
Q 2188 388 2466 706 
Q 2744 1025 2744 1678 
Q 2744 2294 2464 2611 
Q 2184 2928 1769 2928 
Q 1347 2928 1069 2612 
Q 791 2297 791 1659 
z
" transform="scale(0.015625)"/>
       <path id="ArialMT-74" d="M 1650 503 
L 1731 6 
Q 1494 -44 1306 -44 
Q 1000 -44 831 53 
Q 663 150 594 308 
Q 525 466 525 972 
L 525 2881 
L 113 2881 
L 113 3319 
L 525 3319 
L 525 4141 
L 1084 4478 
L 1084 3319 
L 1650 3319 
L 1650 2881 
L 1084 2881 
L 1084 941 
Q 1084 700 1114 631 
Q 1144 563 1211 522 
Q 1278 481 1403 481 
Q 1497 481 1650 503 
z
" transform="scale(0.015625)"/>
       <path id="ArialMT-61" d="M 2588 409 
Q 2275 144 1986 34 
Q 1697 -75 1366 -75 
Q 819 -75 525 192 
Q 231 459 231 875 
Q 231 1119 342 1320 
Q 453 1522 633 1644 
Q 813 1766 1038 1828 
Q 1203 1872 1538 1913 
Q 2219 1994 2541 2106 
Q 2544 2222 2544 2253 
Q 2544 2597 2384 2738 
Q 2169 2928 1744 2928 
Q 1347 2928 1158 2789 
Q 969 2650 878 2297 
L 328 2372 
Q 403 2725 575 2942 
Q 747 3159 1072 3276 
Q 1397 3394 1825 3394 
Q 2250 3394 2515 3294 
Q 2781 3194 2906 3042 
Q 3031 2891 3081 2659 
Q 3109 2516 3109 2141 
L 3109 1391 
Q 3109 606 3145 398 
Q 3181 191 3288 0 
L 2700 0 
Q 2613 175 2588 409 
z
M 2541 1666 
Q 2234 1541 1622 1453 
Q 1275 1403 1131 1340 
Q 988 1278 909 1158 
Q 831 1038 831 891 
Q 831 666 1001 516 
Q 1172 366 1500 366 
Q 1825 366 2078 508 
Q 2331 650 2450 897 
Q 2541 1088 2541 1459 
L 2541 1666 
z
" transform="scale(0.015625)"/>
       <path id="ArialMT-6c" d="M 409 0 
L 409 4581 
L 972 4581 
L 972 0 
L 409 0 
z
" transform="scale(0.015625)"/>
       <path id="ArialMT-47" d="M 2638 1797 
L 2638 2334 
L 4578 2338 
L 4578 638 
Q 4131 281 3656 101 
Q 3181 -78 2681 -78 
Q 2006 -78 1454 211 
Q 903 500 622 1047 
Q 341 1594 341 2269 
Q 341 2938 620 3517 
Q 900 4097 1425 4378 
Q 1950 4659 2634 4659 
Q 3131 4659 3532 4498 
Q 3934 4338 4162 4050 
Q 4391 3763 4509 3300 
L 3963 3150 
Q 3859 3500 3706 3700 
Q 3553 3900 3268 4020 
Q 2984 4141 2638 4141 
Q 2222 4141 1919 4014 
Q 1616 3888 1430 3681 
Q 1244 3475 1141 3228 
Q 966 2803 966 2306 
Q 966 1694 1177 1281 
Q 1388 869 1791 669 
Q 2194 469 2647 469 
Q 3041 469 3416 620 
Q 3791 772 3984 944 
L 3984 1797 
L 2638 1797 
z
" transform="scale(0.015625)"/>
       <path id="ArialMT-6e" d="M 422 0 
L 422 3319 
L 928 3319 
L 928 2847 
Q 1294 3394 1984 3394 
Q 2284 3394 2536 3286 
Q 2788 3178 2913 3003 
Q 3038 2828 3088 2588 
Q 3119 2431 3119 2041 
L 3119 0 
L 2556 0 
L 2556 2019 
Q 2556 2363 2490 2533 
Q 2425 2703 2258 2804 
Q 2091 2906 1866 2906 
Q 1506 2906 1245 2678 
Q 984 2450 984 1813 
L 984 0 
L 422 0 
z
" transform="scale(0.015625)"/>
      </defs>
      <use xlink:href="#ArialMT-54"/>
      <use xlink:href="#ArialMT-6f" transform="translate(49.958984 0)"/>
      <use xlink:href="#ArialMT-74" transform="translate(105.574219 0)"/>
      <use xlink:href="#ArialMT-61" transform="translate(133.357422 0)"/>
      <use xlink:href="#ArialMT-6c" transform="translate(188.972656 0)"/>
      <use xlink:href="#ArialMT-20" transform="translate(211.189453 0)"/>
      <use xlink:href="#ArialMT-47" transform="translate(238.972656 0)"/>
      <use xlink:href="#ArialMT-65" transform="translate(316.755859 0)"/>
      <use xlink:href="#ArialMT-6e" transform="translate(372.371094 0)"/>
      <use xlink:href="#ArialMT-65" transform="translate(427.986328 0)"/>
      <use xlink:href="#ArialMT-72" transform="translate(483.601562 0)"/>
      <use xlink:href="#ArialMT-61" transform="translate(516.902344 0)"/>
      <use xlink:href="#ArialMT-74" transform="translate(572.517578 0)"/>
      <use xlink:href="#ArialMT-69" transform="translate(600.300781 0)"/>
      <use xlink:href="#ArialMT-6f" transform="translate(622.517578 0)"/>
      <use xlink:href="#ArialMT-6e" transform="translate(678.132812 0)"/>
     </g>
    </g>
    <g id="patch_6">
     <path d="M 285.615656 16.22375 
L 301.615656 16.22375 
L 301.615656 10.62375 
L 285.615656 10.62375 
z
" style="fill: url(#h973c6ef083); fill-opacity: 0.85"/>
    </g>
    <g id="text_11">
     <!-- Battery Discharging -->
     <g transform="translate(308.015656 16.22375) scale(0.08 -0.08)">
      <defs>
       <path id="ArialMT-42" d="M 469 0 
L 469 4581 
L 2188 4581 
Q 2713 4581 3030 4442 
Q 3347 4303 3526 4014 
Q 3706 3725 3706 3409 
Q 3706 3116 3547 2856 
Q 3388 2597 3066 2438 
Q 3481 2316 3704 2022 
Q 3928 1728 3928 1328 
Q 3928 1006 3792 729 
Q 3656 453 3456 303 
Q 3256 153 2954 76 
Q 2653 0 2216 0 
L 469 0 
z
M 1075 2656 
L 2066 2656 
Q 2469 2656 2644 2709 
Q 2875 2778 2992 2937 
Q 3109 3097 3109 3338 
Q 3109 3566 3000 3739 
Q 2891 3913 2687 3977 
Q 2484 4041 1991 4041 
L 1075 4041 
L 1075 2656 
z
M 1075 541 
L 2216 541 
Q 2509 541 2628 563 
Q 2838 600 2978 687 
Q 3119 775 3209 942 
Q 3300 1109 3300 1328 
Q 3300 1584 3169 1773 
Q 3038 1963 2805 2039 
Q 2572 2116 2134 2116 
L 1075 2116 
L 1075 541 
z
" transform="scale(0.015625)"/>
       <path id="ArialMT-79" d="M 397 -1278 
L 334 -750 
Q 519 -800 656 -800 
Q 844 -800 956 -737 
Q 1069 -675 1141 -563 
Q 1194 -478 1313 -144 
Q 1328 -97 1363 -6 
L 103 3319 
L 709 3319 
L 1400 1397 
Q 1534 1031 1641 628 
Q 1738 1016 1872 1384 
L 2581 3319 
L 3144 3319 
L 1881 -56 
Q 1678 -603 1566 -809 
Q 1416 -1088 1222 -1217 
Q 1028 -1347 759 -1347 
Q 597 -1347 397 -1278 
z
" transform="scale(0.015625)"/>
       <path id="ArialMT-44" d="M 494 0 
L 494 4581 
L 2072 4581 
Q 2606 4581 2888 4516 
Q 3281 4425 3559 4188 
Q 3922 3881 4101 3404 
Q 4281 2928 4281 2316 
Q 4281 1794 4159 1391 
Q 4038 988 3847 723 
Q 3656 459 3429 307 
Q 3203 156 2883 78 
Q 2563 0 2147 0 
L 494 0 
z
M 1100 541 
L 2078 541 
Q 2531 541 2789 625 
Q 3047 709 3200 863 
Q 3416 1078 3536 1442 
Q 3656 1806 3656 2325 
Q 3656 3044 3420 3430 
Q 3184 3816 2847 3947 
Q 2603 4041 2063 4041 
L 1100 4041 
L 1100 541 
z
" transform="scale(0.015625)"/>
       <path id="ArialMT-73" d="M 197 991 
L 753 1078 
Q 800 744 1014 566 
Q 1228 388 1613 388 
Q 2000 388 2187 545 
Q 2375 703 2375 916 
Q 2375 1106 2209 1216 
Q 2094 1291 1634 1406 
Q 1016 1563 777 1677 
Q 538 1791 414 1992 
Q 291 2194 291 2438 
Q 291 2659 392 2848 
Q 494 3038 669 3163 
Q 800 3259 1026 3326 
Q 1253 3394 1513 3394 
Q 1903 3394 2198 3281 
Q 2494 3169 2634 2976 
Q 2775 2784 2828 2463 
L 2278 2388 
Q 2241 2644 2061 2787 
Q 1881 2931 1553 2931 
Q 1166 2931 1000 2803 
Q 834 2675 834 2503 
Q 834 2394 903 2306 
Q 972 2216 1119 2156 
Q 1203 2125 1616 2013 
Q 2213 1853 2448 1751 
Q 2684 1650 2818 1456 
Q 2953 1263 2953 975 
Q 2953 694 2789 445 
Q 2625 197 2315 61 
Q 2006 -75 1616 -75 
Q 969 -75 630 194 
Q 291 463 197 991 
z
" transform="scale(0.015625)"/>
       <path id="ArialMT-63" d="M 2588 1216 
L 3141 1144 
Q 3050 572 2676 248 
Q 2303 -75 1759 -75 
Q 1078 -75 664 370 
Q 250 816 250 1647 
Q 250 2184 428 2587 
Q 606 2991 970 3192 
Q 1334 3394 1763 3394 
Q 2303 3394 2647 3120 
Q 2991 2847 3088 2344 
L 2541 2259 
Q 2463 2594 2264 2762 
Q 2066 2931 1784 2931 
Q 1359 2931 1093 2626 
Q 828 2322 828 1663 
Q 828 994 1084 691 
Q 1341 388 1753 388 
Q 2084 388 2306 591 
Q 2528 794 2588 1216 
z
" transform="scale(0.015625)"/>
       <path id="ArialMT-68" d="M 422 0 
L 422 4581 
L 984 4581 
L 984 2938 
Q 1378 3394 1978 3394 
Q 2347 3394 2619 3248 
Q 2891 3103 3008 2847 
Q 3125 2591 3125 2103 
L 3125 0 
L 2563 0 
L 2563 2103 
Q 2563 2525 2380 2717 
Q 2197 2909 1863 2909 
Q 1613 2909 1392 2779 
Q 1172 2650 1078 2428 
Q 984 2206 984 1816 
L 984 0 
L 422 0 
z
" transform="scale(0.015625)"/>
       <path id="ArialMT-67" d="M 319 -275 
L 866 -356 
Q 900 -609 1056 -725 
Q 1266 -881 1628 -881 
Q 2019 -881 2231 -725 
Q 2444 -569 2519 -288 
Q 2563 -116 2559 434 
Q 2191 0 1641 0 
Q 956 0 581 494 
Q 206 988 206 1678 
Q 206 2153 378 2554 
Q 550 2956 876 3175 
Q 1203 3394 1644 3394 
Q 2231 3394 2613 2919 
L 2613 3319 
L 3131 3319 
L 3131 450 
Q 3131 -325 2973 -648 
Q 2816 -972 2473 -1159 
Q 2131 -1347 1631 -1347 
Q 1038 -1347 672 -1080 
Q 306 -813 319 -275 
z
M 784 1719 
Q 784 1066 1043 766 
Q 1303 466 1694 466 
Q 2081 466 2343 764 
Q 2606 1063 2606 1700 
Q 2606 2309 2336 2618 
Q 2066 2928 1684 2928 
Q 1309 2928 1046 2623 
Q 784 2319 784 1719 
z
" transform="scale(0.015625)"/>
      </defs>
      <use xlink:href="#ArialMT-42"/>
      <use xlink:href="#ArialMT-61" transform="translate(66.699219 0)"/>
      <use xlink:href="#ArialMT-74" transform="translate(122.314453 0)"/>
      <use xlink:href="#ArialMT-74" transform="translate(150.097656 0)"/>
      <use xlink:href="#ArialMT-65" transform="translate(177.880859 0)"/>
      <use xlink:href="#ArialMT-72" transform="translate(233.496094 0)"/>
      <use xlink:href="#ArialMT-79" transform="translate(266.796875 0)"/>
      <use xlink:href="#ArialMT-20" transform="translate(316.796875 0)"/>
      <use xlink:href="#ArialMT-44" transform="translate(344.580078 0)"/>
      <use xlink:href="#ArialMT-69" transform="translate(416.796875 0)"/>
      <use xlink:href="#ArialMT-73" transform="translate(439.013672 0)"/>
      <use xlink:href="#ArialMT-63" transform="translate(489.013672 0)"/>
      <use xlink:href="#ArialMT-68" transform="translate(539.013672 0)"/>
      <use xlink:href="#ArialMT-61" transform="translate(594.628906 0)"/>
      <use xlink:href="#ArialMT-72" transform="translate(650.244141 0)"/>
      <use xlink:href="#ArialMT-67" transform="translate(683.544922 0)"/>
      <use xlink:href="#ArialMT-69" transform="translate(739.160156 0)"/>
      <use xlink:href="#ArialMT-6e" transform="translate(761.376953 0)"/>
      <use xlink:href="#ArialMT-67" transform="translate(816.992188 0)"/>
     </g>
    </g>
    <g id="patch_7">
     <path d="M 285.615656 27.73125 
L 301.615656 27.73125 
L 301.615656 22.13125 
L 285.615656 22.13125 
z
" style="fill: url(#h81d837281b); fill-opacity: 0.6"/>
    </g>
    <g id="text_12">
     <!-- Battery Charging -->
     <g transform="translate(308.015656 27.73125) scale(0.08 -0.08)">
      <defs>
       <path id="ArialMT-43" d="M 3763 1606 
L 4369 1453 
Q 4178 706 3683 314 
Q 3188 -78 2472 -78 
Q 1731 -78 1267 223 
Q 803 525 561 1097 
Q 319 1669 319 2325 
Q 319 3041 592 3573 
Q 866 4106 1370 4382 
Q 1875 4659 2481 4659 
Q 3169 4659 3637 4309 
Q 4106 3959 4291 3325 
L 3694 3184 
Q 3534 3684 3231 3912 
Q 2928 4141 2469 4141 
Q 1941 4141 1586 3887 
Q 1231 3634 1087 3207 
Q 944 2781 944 2328 
Q 944 1744 1114 1308 
Q 1284 872 1643 656 
Q 2003 441 2422 441 
Q 2931 441 3284 734 
Q 3638 1028 3763 1606 
z
" transform="scale(0.015625)"/>
      </defs>
      <use xlink:href="#ArialMT-42"/>
      <use xlink:href="#ArialMT-61" transform="translate(66.699219 0)"/>
      <use xlink:href="#ArialMT-74" transform="translate(122.314453 0)"/>
      <use xlink:href="#ArialMT-74" transform="translate(150.097656 0)"/>
      <use xlink:href="#ArialMT-65" transform="translate(177.880859 0)"/>
      <use xlink:href="#ArialMT-72" transform="translate(233.496094 0)"/>
      <use xlink:href="#ArialMT-79" transform="translate(266.796875 0)"/>
      <use xlink:href="#ArialMT-20" transform="translate(316.796875 0)"/>
      <use xlink:href="#ArialMT-43" transform="translate(344.580078 0)"/>
      <use xlink:href="#ArialMT-68" transform="translate(416.796875 0)"/>
      <use xlink:href="#ArialMT-61" transform="translate(472.412109 0)"/>
      <use xlink:href="#ArialMT-72" transform="translate(528.027344 0)"/>
      <use xlink:href="#ArialMT-67" transform="translate(561.328125 0)"/>
      <use xlink:href="#ArialMT-69" transform="translate(616.943359 0)"/>
      <use xlink:href="#ArialMT-6e" transform="translate(639.160156 0)"/>
      <use xlink:href="#ArialMT-67" transform="translate(694.775391 0)"/>
     </g>
    </g>
   </g>
   <g id="line2d_22">
    <path d="M 46.020656 99.676063 
L 52.700938 70.547358 
L 59.38122 71.345141 
L 66.061501 71.556012 
L 72.741783 75.140527 
L 79.422065 76.019652 
L 86.102346 76.377457 
L 92.782628 83.56855 
L 99.46291 94.995534 
L 106.143191 103.002938 
L 112.823473 112.214379 
L 119.503755 119.006526 
L 126.184037 119.816565 
L 132.864318 121.414651 
L 139.5446 126.354279 
L 146.224882 114.879029 
L 152.905163 71.713172 
L 159.585445 50.145 
L 166.265727 59.312768 
L 172.946008 71.733513 
L 179.62629 87.249387 
L 186.306572 169.728399 
L 192.986853 175.597174 
L 199.667135 176.207111 
L 206.347417 178.711994 
L 213.027699 179.369215 
L 219.70798 179.88429 
L 226.388262 180.319721 
L 233.068544 182.145 
L 239.748825 182.145 
L 246.429107 182.145 
L 253.109389 182.145 
L 259.78967 182.145 
L 266.469952 182.145 
L 273.150234 179.314038 
L 279.830515 173.391777 
L 286.510797 163.431235 
L 293.191079 148.385218 
L 299.87136 119.736859 
L 306.551642 82.68491 
L 313.231924 70.275076 
L 319.912206 64.844361 
L 326.592487 66.121161 
L 333.272769 71.234651 
L 339.953051 93.52451 
L 346.633332 77.475184 
L 353.313614 91.957831 
L 359.993896 102.075866 
L 366.674177 102.501398 
L 373.354459 106.102579 
L 380.034741 111.714454 
L 386.715022 104.833127 
L 393.395304 111.404023 
L 400.075586 114.248117 
L 406.755868 119.547919 
L 413.436149 128.672642 
L 420.116431 127.14685 
L 426.796713 131.116027 
L 433.476994 133.452668 
L 440.157276 140.366957 
L 446.837558 152.126536 
L 453.517839 156.985857 
L 460.198121 153.388904 
L 466.878403 144.110823 
L 473.558684 146.79419 
L 480.238966 142.273861 
L 486.919248 142.100853 
L 493.599529 145.858323 
L 500.279811 135.253154 
L 506.960093 167.259756 
L 513.640375 160.458839 
L 520.320656 152.316354 
" clip-path="url(#p12aea03574)" style="fill: none; stroke-dasharray: 5.55,2.4; stroke-dashoffset: 0; stroke: #2c3e50; stroke-width: 1.5"/>
   </g>
  </g>
  <g id="axes_2">
   <g id="patch_8">
    <path d="M 46.020656 293.025 
L 520.320656 293.025 
L 520.320656 223.725 
L 46.020656 223.725 
z
" style="fill: #ffffff"/>
   </g>
   <g id="matplotlib.axis_3">
    <g id="xtick_7">
     <g id="line2d_23">
      <g>
       <use xlink:href="#m2f0ab507d0" x="52.700938" y="293.025" style="stroke: #000000; stroke-width: 0.8"/>
      </g>
     </g>
     <g id="text_13">
      <!-- Jan 19 -->
      <g transform="translate(40.692188 305.75125) scale(0.08 -0.08)">
       <defs>
        <path id="ArialMT-4a" d="M 184 1300 
L 731 1375 
Q 753 850 928 656 
Q 1103 463 1413 463 
Q 1641 463 1806 567 
Q 1972 672 2034 851 
Q 2097 1031 2097 1425 
L 2097 4581 
L 2703 4581 
L 2703 1459 
Q 2703 884 2564 568 
Q 2425 253 2123 87 
Q 1822 -78 1416 -78 
Q 813 -78 492 269 
Q 172 616 184 1300 
z
" transform="scale(0.015625)"/>
        <path id="ArialMT-39" d="M 350 1059 
L 891 1109 
Q 959 728 1153 556 
Q 1347 384 1650 384 
Q 1909 384 2104 503 
Q 2300 622 2425 820 
Q 2550 1019 2634 1356 
Q 2719 1694 2719 2044 
Q 2719 2081 2716 2156 
Q 2547 1888 2255 1720 
Q 1963 1553 1622 1553 
Q 1053 1553 659 1965 
Q 266 2378 266 3053 
Q 266 3750 677 4175 
Q 1088 4600 1706 4600 
Q 2153 4600 2523 4359 
Q 2894 4119 3086 3673 
Q 3278 3228 3278 2384 
Q 3278 1506 3087 986 
Q 2897 466 2520 194 
Q 2144 -78 1638 -78 
Q 1100 -78 759 220 
Q 419 519 350 1059 
z
M 2653 3081 
Q 2653 3566 2395 3850 
Q 2138 4134 1775 4134 
Q 1400 4134 1122 3828 
Q 844 3522 844 3034 
Q 844 2597 1108 2323 
Q 1372 2050 1759 2050 
Q 2150 2050 2401 2323 
Q 2653 2597 2653 3081 
z
" transform="scale(0.015625)"/>
       </defs>
       <use xlink:href="#ArialMT-4a"/>
       <use xlink:href="#ArialMT-61" transform="translate(50 0)"/>
       <use xlink:href="#ArialMT-6e" transform="translate(105.615234 0)"/>
       <use xlink:href="#ArialMT-20" transform="translate(161.230469 0)"/>
       <use xlink:href="#ArialMT-31" transform="translate(189.013672 0)"/>
       <use xlink:href="#ArialMT-39" transform="translate(244.628906 0)"/>
      </g>
      <!-- 19:00 -->
      <g transform="translate(42.692188 314.21275) scale(0.08 -0.08)">
       <defs>
        <path id="ArialMT-3a" d="M 578 2678 
L 578 3319 
L 1219 3319 
L 1219 2678 
L 578 2678 
z
M 578 0 
L 578 641 
L 1219 641 
L 1219 0 
L 578 0 
z
" transform="scale(0.015625)"/>
       </defs>
       <use xlink:href="#ArialMT-31"/>
       <use xlink:href="#ArialMT-39" transform="translate(55.615234 0)"/>
       <use xlink:href="#ArialMT-3a" transform="translate(111.230469 0)"/>
       <use xlink:href="#ArialMT-30" transform="translate(139.013672 0)"/>
       <use xlink:href="#ArialMT-30" transform="translate(194.628906 0)"/>
      </g>
     </g>
    </g>
    <g id="xtick_8">
     <g id="line2d_24">
      <g>
       <use xlink:href="#m2f0ab507d0" x="132.864318" y="293.025" style="stroke: #000000; stroke-width: 0.8"/>
      </g>
     </g>
     <g id="text_14">
      <!-- Jan 20 -->
      <g transform="translate(120.855568 305.75125) scale(0.08 -0.08)">
       <use xlink:href="#ArialMT-4a"/>
       <use xlink:href="#ArialMT-61" transform="translate(50 0)"/>
       <use xlink:href="#ArialMT-6e" transform="translate(105.615234 0)"/>
       <use xlink:href="#ArialMT-20" transform="translate(161.230469 0)"/>
       <use xlink:href="#ArialMT-32" transform="translate(189.013672 0)"/>
       <use xlink:href="#ArialMT-30" transform="translate(244.628906 0)"/>
      </g>
      <!-- 07:00 -->
      <g transform="translate(122.855568 314.21275) scale(0.08 -0.08)">
       <defs>
        <path id="ArialMT-37" d="M 303 3981 
L 303 4522 
L 3269 4522 
L 3269 4084 
Q 2831 3619 2401 2847 
Q 1972 2075 1738 1259 
Q 1569 684 1522 0 
L 944 0 
Q 953 541 1156 1306 
Q 1359 2072 1739 2783 
Q 2119 3494 2547 3981 
L 303 3981 
z
" transform="scale(0.015625)"/>
       </defs>
       <use xlink:href="#ArialMT-30"/>
       <use xlink:href="#ArialMT-37" transform="translate(55.615234 0)"/>
       <use xlink:href="#ArialMT-3a" transform="translate(111.230469 0)"/>
       <use xlink:href="#ArialMT-30" transform="translate(139.013672 0)"/>
       <use xlink:href="#ArialMT-30" transform="translate(194.628906 0)"/>
      </g>
     </g>
    </g>
    <g id="xtick_9">
     <g id="line2d_25">
      <g>
       <use xlink:href="#m2f0ab507d0" x="213.027699" y="293.025" style="stroke: #000000; stroke-width: 0.8"/>
      </g>
     </g>
     <g id="text_15">
      <!-- Jan 20 -->
      <g transform="translate(201.018949 305.75125) scale(0.08 -0.08)">
       <use xlink:href="#ArialMT-4a"/>
       <use xlink:href="#ArialMT-61" transform="translate(50 0)"/>
       <use xlink:href="#ArialMT-6e" transform="translate(105.615234 0)"/>
       <use xlink:href="#ArialMT-20" transform="translate(161.230469 0)"/>
       <use xlink:href="#ArialMT-32" transform="translate(189.013672 0)"/>
       <use xlink:href="#ArialMT-30" transform="translate(244.628906 0)"/>
      </g>
      <!-- 19:00 -->
      <g transform="translate(203.018949 314.21275) scale(0.08 -0.08)">
       <use xlink:href="#ArialMT-31"/>
       <use xlink:href="#ArialMT-39" transform="translate(55.615234 0)"/>
       <use xlink:href="#ArialMT-3a" transform="translate(111.230469 0)"/>
       <use xlink:href="#ArialMT-30" transform="translate(139.013672 0)"/>
       <use xlink:href="#ArialMT-30" transform="translate(194.628906 0)"/>
      </g>
     </g>
    </g>
    <g id="xtick_10">
     <g id="line2d_26">
      <g>
       <use xlink:href="#m2f0ab507d0" x="293.191079" y="293.025" style="stroke: #000000; stroke-width: 0.8"/>
      </g>
     </g>
     <g id="text_16">
      <!-- Jan 21 -->
      <g transform="translate(281.182329 305.75125) scale(0.08 -0.08)">
       <use xlink:href="#ArialMT-4a"/>
       <use xlink:href="#ArialMT-61" transform="translate(50 0)"/>
       <use xlink:href="#ArialMT-6e" transform="translate(105.615234 0)"/>
       <use xlink:href="#ArialMT-20" transform="translate(161.230469 0)"/>
       <use xlink:href="#ArialMT-32" transform="translate(189.013672 0)"/>
       <use xlink:href="#ArialMT-31" transform="translate(244.628906 0)"/>
      </g>
      <!-- 07:00 -->
      <g transform="translate(283.182329 314.21275) scale(0.08 -0.08)">
       <use xlink:href="#ArialMT-30"/>
       <use xlink:href="#ArialMT-37" transform="translate(55.615234 0)"/>
       <use xlink:href="#ArialMT-3a" transform="translate(111.230469 0)"/>
       <use xlink:href="#ArialMT-30" transform="translate(139.013672 0)"/>
       <use xlink:href="#ArialMT-30" transform="translate(194.628906 0)"/>
      </g>
     </g>
    </g>
    <g id="xtick_11">
     <g id="line2d_27">
      <g>
       <use xlink:href="#m2f0ab507d0" x="373.354459" y="293.025" style="stroke: #000000; stroke-width: 0.8"/>
      </g>
     </g>
     <g id="text_17">
      <!-- Jan 21 -->
      <g transform="translate(361.345709 305.75125) scale(0.08 -0.08)">
       <use xlink:href="#ArialMT-4a"/>
       <use xlink:href="#ArialMT-61" transform="translate(50 0)"/>
       <use xlink:href="#ArialMT-6e" transform="translate(105.615234 0)"/>
       <use xlink:href="#ArialMT-20" transform="translate(161.230469 0)"/>
       <use xlink:href="#ArialMT-32" transform="translate(189.013672 0)"/>
       <use xlink:href="#ArialMT-31" transform="translate(244.628906 0)"/>
      </g>
      <!-- 19:00 -->
      <g transform="translate(363.345709 314.21275) scale(0.08 -0.08)">
       <use xlink:href="#ArialMT-31"/>
       <use xlink:href="#ArialMT-39" transform="translate(55.615234 0)"/>
       <use xlink:href="#ArialMT-3a" transform="translate(111.230469 0)"/>
       <use xlink:href="#ArialMT-30" transform="translate(139.013672 0)"/>
       <use xlink:href="#ArialMT-30" transform="translate(194.628906 0)"/>
      </g>
     </g>
    </g>
    <g id="xtick_12">
     <g id="line2d_28">
      <g>
       <use xlink:href="#m2f0ab507d0" x="453.517839" y="293.025" style="stroke: #000000; stroke-width: 0.8"/>
      </g>
     </g>
     <g id="text_18">
      <!-- Jan 22 -->
      <g transform="translate(441.509089 305.75125) scale(0.08 -0.08)">
       <use xlink:href="#ArialMT-4a"/>
       <use xlink:href="#ArialMT-61" transform="translate(50 0)"/>
       <use xlink:href="#ArialMT-6e" transform="translate(105.615234 0)"/>
       <use xlink:href="#ArialMT-20" transform="translate(161.230469 0)"/>
       <use xlink:href="#ArialMT-32" transform="translate(189.013672 0)"/>
       <use xlink:href="#ArialMT-32" transform="translate(244.628906 0)"/>
      </g>
      <!-- 07:00 -->
      <g transform="translate(443.509089 314.21275) scale(0.08 -0.08)">
       <use xlink:href="#ArialMT-30"/>
       <use xlink:href="#ArialMT-37" transform="translate(55.615234 0)"/>
       <use xlink:href="#ArialMT-3a" transform="translate(111.230469 0)"/>
       <use xlink:href="#ArialMT-30" transform="translate(139.013672 0)"/>
       <use xlink:href="#ArialMT-30" transform="translate(194.628906 0)"/>
      </g>
     </g>
    </g>
   </g>
   <g id="matplotlib.axis_4">
    <g id="ytick_8">
     <g id="line2d_29">
      <path d="M 46.020656 293.025 
L 520.320656 293.025 
" clip-path="url(#p7a6e0084ae)" style="fill: none; stroke: #b0b0b0; stroke-opacity: 0.3; stroke-width: 0.8; stroke-linecap: square"/>
     </g>
     <g id="line2d_30"/>
     <g id="text_19">
      <!-- 0 -->
      <g transform="translate(38.071906 295.888125) scale(0.08 -0.08)">
       <use xlink:href="#ArialMT-30"/>
      </g>
     </g>
    </g>
    <g id="ytick_9">
     <g id="line2d_31">
      <path d="M 46.020656 260.025 
L 520.320656 260.025 
" clip-path="url(#p7a6e0084ae)" style="fill: none; stroke: #b0b0b0; stroke-opacity: 0.3; stroke-width: 0.8; stroke-linecap: square"/>
     </g>
     <g id="line2d_32"/>
     <g id="text_20">
      <!-- 50 -->
      <g transform="translate(33.623156 262.888125) scale(0.08 -0.08)">
       <defs>
        <path id="ArialMT-35" d="M 266 1200 
L 856 1250 
Q 922 819 1161 601 
Q 1400 384 1738 384 
Q 2144 384 2425 690 
Q 2706 997 2706 1503 
Q 2706 1984 2436 2262 
Q 2166 2541 1728 2541 
Q 1456 2541 1237 2417 
Q 1019 2294 894 2097 
L 366 2166 
L 809 4519 
L 3088 4519 
L 3088 3981 
L 1259 3981 
L 1013 2750 
Q 1425 3038 1878 3038 
Q 2478 3038 2890 2622 
Q 3303 2206 3303 1553 
Q 3303 931 2941 478 
Q 2500 -78 1738 -78 
Q 1113 -78 717 272 
Q 322 622 266 1200 
z
" transform="scale(0.015625)"/>
       </defs>
       <use xlink:href="#ArialMT-35"/>
       <use xlink:href="#ArialMT-30" transform="translate(55.615234 0)"/>
      </g>
     </g>
    </g>
    <g id="ytick_10">
     <g id="line2d_33">
      <path d="M 46.020656 227.025 
L 520.320656 227.025 
" clip-path="url(#p7a6e0084ae)" style="fill: none; stroke: #b0b0b0; stroke-opacity: 0.3; stroke-width: 0.8; stroke-linecap: square"/>
     </g>
     <g id="line2d_34"/>
     <g id="text_21">
      <!-- 100 -->
      <g transform="translate(29.174406 229.888125) scale(0.08 -0.08)">
       <use xlink:href="#ArialMT-31"/>
       <use xlink:href="#ArialMT-30" transform="translate(55.615234 0)"/>
       <use xlink:href="#ArialMT-30" transform="translate(111.230469 0)"/>
      </g>
     </g>
    </g>
    <g id="text_22">
     <!-- SoC (%) -->
     <g style="fill: #2c3e50" transform="translate(23.280188 275.623359) rotate(-90) scale(0.09 -0.09)">
      <defs>
       <path id="Arial-BoldMT-53" d="M 231 1491 
L 1131 1578 
Q 1213 1125 1461 912 
Q 1709 700 2131 700 
Q 2578 700 2804 889 
Q 3031 1078 3031 1331 
Q 3031 1494 2936 1608 
Q 2841 1722 2603 1806 
Q 2441 1863 1863 2006 
Q 1119 2191 819 2459 
Q 397 2838 397 3381 
Q 397 3731 595 4036 
Q 794 4341 1167 4500 
Q 1541 4659 2069 4659 
Q 2931 4659 3367 4281 
Q 3803 3903 3825 3272 
L 2900 3231 
Q 2841 3584 2645 3739 
Q 2450 3894 2059 3894 
Q 1656 3894 1428 3728 
Q 1281 3622 1281 3444 
Q 1281 3281 1419 3166 
Q 1594 3019 2269 2859 
Q 2944 2700 3267 2529 
Q 3591 2359 3773 2064 
Q 3956 1769 3956 1334 
Q 3956 941 3737 597 
Q 3519 253 3119 86 
Q 2719 -81 2122 -81 
Q 1253 -81 787 320 
Q 322 722 231 1491 
z
" transform="scale(0.015625)"/>
       <path id="Arial-BoldMT-43" d="M 3397 1684 
L 4294 1400 
Q 4088 650 3608 286 
Q 3128 -78 2391 -78 
Q 1478 -78 890 545 
Q 303 1169 303 2250 
Q 303 3394 893 4026 
Q 1484 4659 2447 4659 
Q 3288 4659 3813 4163 
Q 4125 3869 4281 3319 
L 3366 3100 
Q 3284 3456 3026 3662 
Q 2769 3869 2400 3869 
Q 1891 3869 1573 3503 
Q 1256 3138 1256 2319 
Q 1256 1450 1568 1081 
Q 1881 713 2381 713 
Q 2750 713 3015 947 
Q 3281 1181 3397 1684 
z
" transform="scale(0.015625)"/>
       <path id="Arial-BoldMT-20" transform="scale(0.015625)"/>
       <path id="Arial-BoldMT-25" d="M 278 3450 
Q 278 4066 548 4362 
Q 819 4659 1281 4659 
Q 1759 4659 2029 4364 
Q 2300 4069 2300 3450 
Q 2300 2834 2029 2537 
Q 1759 2241 1297 2241 
Q 819 2241 548 2536 
Q 278 2831 278 3450 
z
M 963 3456 
Q 963 3009 1066 2856 
Q 1144 2744 1281 2744 
Q 1422 2744 1500 2856 
Q 1600 3009 1600 3456 
Q 1600 3903 1500 4053 
Q 1422 4169 1281 4169 
Q 1144 4169 1066 4056 
Q 963 3903 963 3456 
z
M 1950 -175 
L 1300 -175 
L 3741 4659 
L 4372 4659 
L 1950 -175 
z
M 3369 1028 
Q 3369 1644 3639 1941 
Q 3909 2238 4378 2238 
Q 4850 2238 5120 1941 
Q 5391 1644 5391 1028 
Q 5391 409 5120 112 
Q 4850 -184 4388 -184 
Q 3909 -184 3639 112 
Q 3369 409 3369 1028 
z
M 4053 1031 
Q 4053 584 4156 434 
Q 4234 319 4372 319 
Q 4513 319 4588 431 
Q 4691 584 4691 1031 
Q 4691 1478 4591 1631 
Q 4513 1744 4372 1744 
Q 4231 1744 4156 1631 
Q 4053 1478 4053 1031 
z
" transform="scale(0.015625)"/>
      </defs>
      <use xlink:href="#Arial-BoldMT-53"/>
      <use xlink:href="#Arial-BoldMT-6f" transform="translate(66.699219 0)"/>
      <use xlink:href="#Arial-BoldMT-43" transform="translate(127.783203 0)"/>
      <use xlink:href="#Arial-BoldMT-20" transform="translate(200 0)"/>
      <use xlink:href="#Arial-BoldMT-28" transform="translate(227.783203 0)"/>
      <use xlink:href="#Arial-BoldMT-25" transform="translate(261.083984 0)"/>
      <use xlink:href="#Arial-BoldMT-29" transform="translate(350 0)"/>
     </g>
    </g>
   </g>
   <g id="patch_9">
    <path d="M 46.020656 293.025 
L 46.020656 223.725 
" style="fill: none; stroke: #2d3748; stroke-linejoin: miter; stroke-linecap: square"/>
   </g>
   <g id="patch_10">
    <path d="M 46.020656 293.025 
L 520.320656 293.025 
" style="fill: none; stroke: #2d3748; stroke-linejoin: miter; stroke-linecap: square"/>
   </g>
   <g id="FillBetweenPolyCollection_4">
    <defs>
     <path id="mce40cf5a3b" d="M 46.020656 -82.433944 
L 46.020656 -29.97775 
L 52.700938 -29.97775 
L 59.38122 -29.97775 
L 66.061501 -29.97775 
L 72.741783 -29.97775 
L 79.422065 -29.97775 
L 86.102346 -29.97775 
L 92.782628 -29.97775 
L 99.46291 -29.97775 
L 106.143191 -29.97775 
L 112.823473 -29.97775 
L 119.503755 -29.97775 
L 126.184037 -29.97775 
L 132.864318 -29.97775 
L 139.5446 -29.97775 
L 146.224882 -29.97775 
L 152.905163 -29.97775 
L 159.585445 -29.97775 
L 166.265727 -29.97775 
L 172.946008 -29.97775 
L 179.62629 -29.97775 
L 186.306572 -29.97775 
L 192.986853 -29.97775 
L 199.667135 -29.97775 
L 206.347417 -29.97775 
L 213.027699 -29.97775 
L 219.70798 -29.97775 
L 226.388262 -29.97775 
L 233.068544 -29.97775 
L 239.748825 -29.97775 
L 246.429107 -29.97775 
L 253.109389 -29.97775 
L 259.78967 -29.97775 
L 266.469952 -29.97775 
L 273.150234 -29.97775 
L 279.830515 -29.97775 
L 286.510797 -29.97775 
L 293.191079 -29.97775 
L 299.87136 -29.97775 
L 306.551642 -29.97775 
L 313.231924 -29.97775 
L 319.912206 -29.97775 
L 326.592487 -29.97775 
L 333.272769 -29.97775 
L 339.953051 -29.97775 
L 346.633332 -29.97775 
L 353.313614 -29.97775 
L 359.993896 -29.97775 
L 366.674177 -29.97775 
L 373.354459 -29.97775 
L 380.034741 -29.97775 
L 386.715022 -29.97775 
L 393.395304 -29.97775 
L 400.075586 -29.97775 
L 406.755868 -29.97775 
L 413.436149 -29.97775 
L 420.116431 -29.97775 
L 426.796713 -29.97775 
L 433.476994 -29.97775 
L 440.157276 -29.97775 
L 446.837558 -29.97775 
L 453.517839 -29.97775 
L 460.198121 -29.97775 
L 466.878403 -29.97775 
L 473.558684 -29.97775 
L 480.238966 -29.97775 
L 486.919248 -29.97775 
L 493.599529 -29.97775 
L 500.279811 -29.97775 
L 506.960093 -29.97775 
L 513.640375 -29.97775 
L 520.320656 -29.97775 
L 520.320656 -90.636084 
L 520.320656 -90.636084 
L 513.640375 -87.521116 
L 506.960093 -87.521116 
L 500.279811 -79.271116 
L 493.599529 -72.163395 
L 486.919248 -64.028132 
L 480.238966 -64.028132 
L 473.558684 -64.028132 
L 466.878403 -64.028132 
L 460.198121 -64.028132 
L 453.517839 -64.028132 
L 446.837558 -64.028132 
L 440.157276 -64.028132 
L 433.476994 -64.028132 
L 426.796713 -64.028132 
L 420.116431 -64.028132 
L 413.436149 -64.028132 
L 406.755868 -64.028132 
L 400.075586 -64.028132 
L 393.395304 -64.028132 
L 386.715022 -64.028132 
L 380.034741 -64.028132 
L 373.354459 -64.028132 
L 366.674177 -64.028132 
L 359.993896 -64.028132 
L 353.313614 -55.778132 
L 346.633332 -47.528132 
L 339.953051 -47.528132 
L 333.272769 -47.528132 
L 326.592487 -47.528132 
L 319.912206 -47.528132 
L 313.231924 -47.528132 
L 306.551642 -47.528132 
L 299.87136 -47.528132 
L 293.191079 -47.528132 
L 286.510797 -47.528132 
L 279.830515 -48.018547 
L 273.150234 -50.392149 
L 266.469952 -53.665952 
L 259.78967 -56.939755 
L 253.109389 -60.213558 
L 246.429107 -63.487361 
L 239.748825 -66.761164 
L 233.068544 -70.034967 
L 226.388262 -72.72836 
L 219.70798 -75.283292 
L 213.027699 -77.674439 
L 206.347417 -79.8566 
L 199.667135 -81.242247 
L 192.986853 -82.433944 
L 186.306572 -82.433944 
L 179.62629 -82.433944 
L 172.946008 -82.433944 
L 166.265727 -82.433944 
L 159.585445 -82.433944 
L 152.905163 -82.433944 
L 146.224882 -82.433944 
L 139.5446 -82.433944 
L 132.864318 -82.433944 
L 126.184037 -82.433944 
L 119.503755 -82.433944 
L 112.823473 -82.433944 
L 106.143191 -82.433944 
L 99.46291 -82.433944 
L 92.782628 -82.433944 
L 86.102346 -82.433944 
L 79.422065 -82.433944 
L 72.741783 -82.433944 
L 66.061501 -82.433944 
L 59.38122 -82.433944 
L 52.700938 -82.433944 
L 46.020656 -82.433944 
z
" style="stroke: #7f8c8d; stroke-opacity: 0.15"/>
    </defs>
    <g clip-path="url(#p7a6e0084ae)">
     <use xlink:href="#mce40cf5a3b" x="0" y="323.00275" style="fill: #7f8c8d; fill-opacity: 0.15; stroke: #7f8c8d; stroke-opacity: 0.15"/>
    </g>
   </g>
   <g id="line2d_35">
    <path d="M 46.020656 240.568806 
L 52.700938 240.568806 
L 59.38122 240.568806 
L 66.061501 240.568806 
L 72.741783 240.568806 
L 79.422065 240.568806 
L 86.102346 240.568806 
L 92.782628 240.568806 
L 99.46291 240.568806 
L 106.143191 240.568806 
L 112.823473 240.568806 
L 119.503755 240.568806 
L 126.184037 240.568806 
L 132.864318 240.568806 
L 139.5446 240.568806 
L 146.224882 240.568806 
L 152.905163 240.568806 
L 159.585445 240.568806 
L 166.265727 240.568806 
L 172.946008 240.568806 
L 179.62629 240.568806 
L 186.306572 240.568806 
L 192.986853 240.568806 
L 199.667135 241.760503 
L 206.347417 243.14615 
L 213.027699 245.328311 
L 219.70798 247.719458 
L 226.388262 250.27439 
L 233.068544 252.967783 
L 239.748825 256.241586 
L 246.429107 259.515389 
L 253.109389 262.789192 
L 259.78967 266.062995 
L 266.469952 269.336798 
L 273.150234 272.610601 
L 279.830515 274.984203 
L 286.510797 275.474618 
L 293.191079 275.474618 
L 299.87136 275.474618 
L 306.551642 275.474618 
L 313.231924 275.474618 
L 319.912206 275.474618 
L 326.592487 275.474618 
L 333.272769 275.474618 
L 339.953051 275.474618 
L 346.633332 275.474618 
L 353.313614 267.224618 
L 359.993896 258.974618 
L 366.674177 258.974618 
L 373.354459 258.974618 
L 380.034741 258.974618 
L 386.715022 258.974618 
L 393.395304 258.974618 
L 400.075586 258.974618 
L 406.755868 258.974618 
L 413.436149 258.974618 
L 420.116431 258.974618 
L 426.796713 258.974618 
L 433.476994 258.974618 
L 440.157276 258.974618 
L 446.837558 258.974618 
L 453.517839 258.974618 
L 460.198121 258.974618 
L 466.878403 258.974618 
L 473.558684 258.974618 
L 480.238966 258.974618 
L 486.919248 258.974618 
L 493.599529 250.839355 
L 500.279811 243.731634 
L 506.960093 235.481634 
L 513.640375 235.481634 
L 520.320656 232.366666 
" clip-path="url(#p7a6e0084ae)" style="fill: none; stroke: #7f8c8d; stroke-width: 1.5; stroke-linecap: square"/>
   </g>
   <g id="legend_2">
    <g id="line2d_36">
     <path d="M 53.220656 233.94875 
L 61.220656 233.94875 
L 69.220656 233.94875 
" style="fill: none; stroke: #7f8c8d; stroke-width: 1.5; stroke-linecap: square"/>
    </g>
    <g id="text_23">
     <!-- State of Charge (%) -->
     <g transform="translate(75.620656 236.74875) scale(0.08 -0.08)">
      <defs>
       <path id="ArialMT-53" d="M 288 1472 
L 859 1522 
Q 900 1178 1048 958 
Q 1197 738 1509 602 
Q 1822 466 2213 466 
Q 2559 466 2825 569 
Q 3091 672 3220 851 
Q 3350 1031 3350 1244 
Q 3350 1459 3225 1620 
Q 3100 1781 2813 1891 
Q 2628 1963 1997 2114 
Q 1366 2266 1113 2400 
Q 784 2572 623 2826 
Q 463 3081 463 3397 
Q 463 3744 659 4045 
Q 856 4347 1234 4503 
Q 1613 4659 2075 4659 
Q 2584 4659 2973 4495 
Q 3363 4331 3572 4012 
Q 3781 3694 3797 3291 
L 3216 3247 
Q 3169 3681 2898 3903 
Q 2628 4125 2100 4125 
Q 1550 4125 1298 3923 
Q 1047 3722 1047 3438 
Q 1047 3191 1225 3031 
Q 1400 2872 2139 2705 
Q 2878 2538 3153 2413 
Q 3553 2228 3743 1945 
Q 3934 1663 3934 1294 
Q 3934 928 3725 604 
Q 3516 281 3123 101 
Q 2731 -78 2241 -78 
Q 1619 -78 1198 103 
Q 778 284 539 648 
Q 300 1013 288 1472 
z
" transform="scale(0.015625)"/>
       <path id="ArialMT-66" d="M 556 0 
L 556 2881 
L 59 2881 
L 59 3319 
L 556 3319 
L 556 3672 
Q 556 4006 616 4169 
Q 697 4388 901 4523 
Q 1106 4659 1475 4659 
Q 1713 4659 2000 4603 
L 1916 4113 
Q 1741 4144 1584 4144 
Q 1328 4144 1222 4034 
Q 1116 3925 1116 3625 
L 1116 3319 
L 1763 3319 
L 1763 2881 
L 1116 2881 
L 1116 0 
L 556 0 
z
" transform="scale(0.015625)"/>
       <path id="ArialMT-25" d="M 372 3481 
Q 372 3972 619 4315 
Q 866 4659 1334 4659 
Q 1766 4659 2048 4351 
Q 2331 4044 2331 3447 
Q 2331 2866 2045 2552 
Q 1759 2238 1341 2238 
Q 925 2238 648 2547 
Q 372 2856 372 3481 
z
M 1350 4272 
Q 1141 4272 1002 4090 
Q 863 3909 863 3425 
Q 863 2984 1003 2804 
Q 1144 2625 1350 2625 
Q 1563 2625 1702 2806 
Q 1841 2988 1841 3469 
Q 1841 3913 1700 4092 
Q 1559 4272 1350 4272 
z
M 1353 -169 
L 3859 4659 
L 4316 4659 
L 1819 -169 
L 1353 -169 
z
M 3334 1075 
Q 3334 1569 3581 1911 
Q 3828 2253 4300 2253 
Q 4731 2253 5014 1945 
Q 5297 1638 5297 1041 
Q 5297 459 5011 145 
Q 4725 -169 4303 -169 
Q 3888 -169 3611 142 
Q 3334 453 3334 1075 
z
M 4316 1866 
Q 4103 1866 3964 1684 
Q 3825 1503 3825 1019 
Q 3825 581 3965 400 
Q 4106 219 4313 219 
Q 4528 219 4667 400 
Q 4806 581 4806 1063 
Q 4806 1506 4665 1686 
Q 4525 1866 4316 1866 
z
" transform="scale(0.015625)"/>
      </defs>
      <use xlink:href="#ArialMT-53"/>
      <use xlink:href="#ArialMT-74" transform="translate(66.699219 0)"/>
      <use xlink:href="#ArialMT-61" transform="translate(94.482422 0)"/>
      <use xlink:href="#ArialMT-74" transform="translate(150.097656 0)"/>
      <use xlink:href="#ArialMT-65" transform="translate(177.880859 0)"/>
      <use xlink:href="#ArialMT-20" transform="translate(233.496094 0)"/>
      <use xlink:href="#ArialMT-6f" transform="translate(261.279297 0)"/>
      <use xlink:href="#ArialMT-66" transform="translate(316.894531 0)"/>
      <use xlink:href="#ArialMT-20" transform="translate(344.677734 0)"/>
      <use xlink:href="#ArialMT-43" transform="translate(372.460938 0)"/>
      <use xlink:href="#ArialMT-68" transform="translate(444.677734 0)"/>
      <use xlink:href="#ArialMT-61" transform="translate(500.292969 0)"/>
      <use xlink:href="#ArialMT-72" transform="translate(555.908203 0)"/>
      <use xlink:href="#ArialMT-67" transform="translate(589.208984 0)"/>
      <use xlink:href="#ArialMT-65" transform="translate(644.824219 0)"/>
      <use xlink:href="#ArialMT-20" transform="translate(700.439453 0)"/>
      <use xlink:href="#ArialMT-28" transform="translate(728.222656 0)"/>
      <use xlink:href="#ArialMT-25" transform="translate(761.523438 0)"/>
      <use xlink:href="#ArialMT-29" transform="translate(850.439453 0)"/>
     </g>
    </g>
   </g>
  </g>
 </g>
 <defs>
  <clipPath id="p12aea03574">
   <rect x="46.020656" y="43.545" width="474.3" height="138.6"/>
  </clipPath>
  <clipPath id="p7a6e0084ae">
   <rect x="46.020656" y="223.725" width="474.3" height="69.3"/>
  </clipPath>
 </defs>
 <defs>
  <pattern id="h973c6ef083" patternUnits="userSpaceOnUse" x="0" y="0" width="72" height="72">
   <rect x="0" y="0" width="73" height="73" fill="#e74c3c"/>
   <path d="M -36 36 
L 36 -36 
M -30 42 
L 42 -30 
M -24 48 
L 48 -24 
M -18 54 
L 54 -18 
M -12 60 
L 60 -12 
M -6 66 
L 66 -6 
M 0 72 
L 72 0 
M 6 78 
L 78 6 
M 12 84 
L 84 12 
M 18 90 
L 90 18 
M 24 96 
L 96 24 
M 30 102 
L 102 30 
M 36 108 
L 108 36 
" style="fill: #000000; stroke: #000000; stroke-width: 1.0; stroke-linecap: butt; stroke-linejoin: miter"/>
  </pattern>
  <pattern id="h81d837281b" patternUnits="userSpaceOnUse" x="0" y="0" width="72" height="72">
   <rect x="0" y="0" width="73" height="73" fill="#00cc66"/>
   <path d="M -36 36 
L 36 108 
M -30 30 
L 42 102 
M -24 24 
L 48 96 
M -18 18 
L 54 90 
M -12 12 
L 60 84 
M -6 6 
L 66 78 
M 0 0 
L 72 72 
M 6 -6 
L 78 66 
M 12 -12 
L 84 60 
M 18 -18 
L 90 54 
M 24 -24 
L 96 48 
M 30 -30 
L 102 42 
M 36 -36 
L 108 36 
" style="fill: #000000; stroke: #000000; stroke-width: 1.0; stroke-linecap: butt; stroke-linejoin: miter"/>
  </pattern>
 </defs>
</svg>
