<?xml version="1.0" encoding="utf-8" standalone="no"?>
<!DOCTYPE svg PUBLIC "-//W3C//DTD SVG 1.1//EN"
  "http://www.w3.org/Graphics/SVG/1.1/DTD/svg11.dtd">
<svg xmlns:xlink="http://www.w3.org/1999/xlink" width="527.520656pt" height="347.9965pt" viewBox="0 0 527.520656 347.9965" xmlns="http://www.w3.org/2000/svg" version="1.1">
 <metadata>
  <rdf:RDF xmlns:dc="http://purl.org/dc/elements/1.1/" xmlns:cc="http://creativecommons.org/ns#" xmlns:rdf="http://www.w3.org/1999/02/22-rdf-syntax-ns#">
   <cc:Work>
    <dc:type rdf:resource="http://purl.org/dc/dcmitype/StillImage"/>
    <dc:date>2026-06-17T15:19:36.159251</dc:date>
    <dc:format>image/svg+xml</dc:format>
    <dc:creator>
     <cc:Agent>
      <dc:title>Matplotlib v3.10.8, https://matplotlib.org/</dc:title>
     </cc:Agent>
    </dc:creator>
   </cc:Work>
  </rdf:RDF>
 </metadata>
 <defs>
  <style type="text/css">*{stroke-linejoin: round; stroke-linecap: butt}</style>
 </defs>
 <g id="figure_1">
  <g id="patch_1">
   <path d="M 0 347.9965 
L 527.520656 347.9965 
L 527.520656 0 
L 0 0 
z
" style="fill: #ffffff"/>
  </g>
  <g id="axes_1">
   <g id="patch_2">
    <path d="M 46.020656 207.13875 
L 520.320656 207.13875 
L 520.320656 68.53875 
L 46.020656 68.53875 
z
" style="fill: #ffffff"/>
   </g>
   <g id="matplotlib.axis_1">
    <g id="xtick_1">
     <g id="line2d_1">
      <defs>
       <path id="me6f1d3e7f7" d="M 0 0 
L 0 3.5 
" style="stroke: #000000; stroke-width: 0.8"/>
      </defs>
      <g>
       <use xlink:href="#me6f1d3e7f7" x="52.700938" y="207.13875" style="stroke: #000000; stroke-width: 0.8"/>
      </g>
     </g>
    </g>
    <g id="xtick_2">
     <g id="line2d_2">
      <g>
       <use xlink:href="#me6f1d3e7f7" x="132.864318" y="207.13875" style="stroke: #000000; stroke-width: 0.8"/>
      </g>
     </g>
    </g>
    <g id="xtick_3">
     <g id="line2d_3">
      <g>
       <use xlink:href="#me6f1d3e7f7" x="213.027699" y="207.13875" style="stroke: #000000; stroke-width: 0.8"/>
      </g>
     </g>
    </g>
    <g id="xtick_4">
     <g id="line2d_4">
      <g>
       <use xlink:href="#me6f1d3e7f7" x="293.191079" y="207.13875" style="stroke: #000000; stroke-width: 0.8"/>
      </g>
     </g>
    </g>
    <g id="xtick_5">
     <g id="line2d_5">
      <g>
       <use xlink:href="#me6f1d3e7f7" x="373.354459" y="207.13875" style="stroke: #000000; stroke-width: 0.8"/>
      </g>
     </g>
    </g>
    <g id="xtick_6">
     <g id="line2d_6">
      <g>
       <use xlink:href="#me6f1d3e7f7" x="453.517839" y="207.13875" style="stroke: #000000; stroke-width: 0.8"/>
      </g>
     </g>
    </g>
   </g>
   <g id="matplotlib.axis_2">
    <g id="ytick_1">
     <g id="line2d_7">
      <path d="M 46.020656 207.13875 
L 520.320656 207.13875 
" clip-path="url(#pbe533f8cef)" style="fill: none; stroke: #b0b0b0; stroke-opacity: 0.3; stroke-width: 0.8; stroke-linecap: square"/>
     </g>
     <g id="line2d_8"/>
     <g id="text_1">
      <!-- 0 -->
      <g transform="translate(38.071906 210.001875) scale(0.08 -0.08)">
       <defs>
        <path id="ArialMT-30" d="M 266 2259 
Q 266 3072 433 3567 
Q 600 4063 929 4331 
Q 1259 4600 1759 4600 
Q 2128 4600 2406 4451 
Q 2684 4303 2865 4023 
Q 3047 3744 3150 3342 
Q 3253 2941 3253 2259 
Q 3253 1453 3087 958 
Q 2922 463 2592 192 
Q 2263 -78 1759 -78 
Q 1097 -78 719 397 
Q 266 969 266 2259 
z
M 844 2259 
Q 844 1131 1108 757 
Q 1372 384 1759 384 
Q 2147 384 2411 759 
Q 2675 1134 2675 2259 
Q 2675 3391 2411 3762 
Q 2147 4134 1753 4134 
Q 1366 4134 1134 3806 
Q 844 3388 844 2259 
z
" transform="scale(0.015625)"/>
       </defs>
       <use xlink:href="#ArialMT-30"/>
      </g>
     </g>
    </g>
    <g id="ytick_2">
     <g id="line2d_9">
      <path d="M 46.020656 184.75726 
L 520.320656 184.75726 
" clip-path="url(#pbe533f8cef)" style="fill: none; stroke: #b0b0b0; stroke-opacity: 0.3; stroke-width: 0.8; stroke-linecap: square"/>
     </g>
     <g id="line2d_10"/>
     <g id="text_2">
      <!-- 20 -->
      <g transform="translate(33.623156 187.620385) scale(0.08 -0.08)">
       <defs>
        <path id="ArialMT-32" d="M 3222 541 
L 3222 0 
L 194 0 
Q 188 203 259 391 
Q 375 700 629 1000 
Q 884 1300 1366 1694 
Q 2113 2306 2375 2664 
Q 2638 3022 2638 3341 
Q 2638 3675 2398 3904 
Q 2159 4134 1775 4134 
Q 1369 4134 1125 3890 
Q 881 3647 878 3216 
L 300 3275 
Q 359 3922 746 4261 
Q 1134 4600 1788 4600 
Q 2447 4600 2831 4234 
Q 3216 3869 3216 3328 
Q 3216 3053 3103 2787 
Q 2991 2522 2730 2228 
Q 2469 1934 1863 1422 
Q 1356 997 1212 845 
Q 1069 694 975 541 
L 3222 541 
z
" transform="scale(0.015625)"/>
       </defs>
       <use xlink:href="#ArialMT-32"/>
       <use xlink:href="#ArialMT-30" transform="translate(55.615234 0)"/>
      </g>
     </g>
    </g>
    <g id="ytick_3">
     <g id="line2d_11">
      <path d="M 46.020656 162.37577 
L 520.320656 162.37577 
" clip-path="url(#pbe533f8cef)" style="fill: none; stroke: #b0b0b0; stroke-opacity: 0.3; stroke-width: 0.8; stroke-linecap: square"/>
     </g>
     <g id="line2d_12"/>
     <g id="text_3">
      <!-- 40 -->
      <g transform="translate(33.623156 165.238895) scale(0.08 -0.08)">
       <defs>
        <path id="ArialMT-34" d="M 2069 0 
L 2069 1097 
L 81 1097 
L 81 1613 
L 2172 4581 
L 2631 4581 
L 2631 1613 
L 3250 1613 
L 3250 1097 
L 2631 1097 
L 2631 0 
L 2069 0 
z
M 2069 1613 
L 2069 3678 
L 634 1613 
L 2069 1613 
z
" transform="scale(0.015625)"/>
       </defs>
       <use xlink:href="#ArialMT-34"/>
       <use xlink:href="#ArialMT-30" transform="translate(55.615234 0)"/>
      </g>
     </g>
    </g>
    <g id="ytick_4">
     <g id="line2d_13">
      <path d="M 46.020656 139.99428 
L 520.320656 139.99428 
" clip-path="url(#pbe533f8cef)" style="fill: none; stroke: #b0b0b0; stroke-opacity: 0.3; stroke-width: 0.8; stroke-linecap: square"/>
     </g>
     <g id="line2d_14"/>
     <g id="text_4">
      <!-- 60 -->
      <g transform="translate(33.623156 142.857405) scale(0.08 -0.08)">
       <defs>
        <path id="ArialMT-36" d="M 3184 3459 
L 2625 3416 
Q 2550 3747 2413 3897 
Q 2184 4138 1850 4138 
Q 1581 4138 1378 3988 
Q 1113 3794 959 3422 
Q 806 3050 800 2363 
Q 1003 2672 1297 2822 
Q 1591 2972 1913 2972 
Q 2475 2972 2870 2558 
Q 3266 2144 3266 1488 
Q 3266 1056 3080 686 
Q 2894 316 2569 119 
Q 2244 -78 1831 -78 
Q 1128 -78 684 439 
Q 241 956 241 2144 
Q 241 3472 731 4075 
Q 1159 4600 1884 4600 
Q 2425 4600 2770 4297 
Q 3116 3994 3184 3459 
z
M 888 1484 
Q 888 1194 1011 928 
Q 1134 663 1356 523 
Q 1578 384 1822 384 
Q 2178 384 2434 671 
Q 2691 959 2691 1453 
Q 2691 1928 2437 2201 
Q 2184 2475 1800 2475 
Q 1419 2475 1153 2201 
Q 888 1928 888 1484 
z
" transform="scale(0.015625)"/>
       </defs>
       <use xlink:href="#ArialMT-36"/>
       <use xlink:href="#ArialMT-30" transform="translate(55.615234 0)"/>
      </g>
     </g>
    </g>
    <g id="ytick_5">
     <g id="line2d_15">
      <path d="M 46.020656 117.612791 
L 520.320656 117.612791 
" clip-path="url(#pbe533f8cef)" style="fill: none; stroke: #b0b0b0; stroke-opacity: 0.3; stroke-width: 0.8; stroke-linecap: square"/>
     </g>
     <g id="line2d_16"/>
     <g id="text_5">
      <!-- 80 -->
      <g transform="translate(33.623156 120.475916) scale(0.08 -0.08)">
       <defs>
        <path id="ArialMT-38" d="M 1131 2484 
Q 781 2613 612 2850 
Q 444 3088 444 3419 
Q 444 3919 803 4259 
Q 1163 4600 1759 4600 
Q 2359 4600 2725 4251 
Q 3091 3903 3091 3403 
Q 3091 3084 2923 2848 
Q 2756 2613 2416 2484 
Q 2838 2347 3058 2040 
Q 3278 1734 3278 1309 
Q 3278 722 2862 322 
Q 2447 -78 1769 -78 
Q 1091 -78 675 323 
Q 259 725 259 1325 
Q 259 1772 486 2073 
Q 713 2375 1131 2484 
z
M 1019 3438 
Q 1019 3113 1228 2906 
Q 1438 2700 1772 2700 
Q 2097 2700 2305 2904 
Q 2513 3109 2513 3406 
Q 2513 3716 2298 3927 
Q 2084 4138 1766 4138 
Q 1444 4138 1231 3931 
Q 1019 3725 1019 3438 
z
M 838 1322 
Q 838 1081 952 856 
Q 1066 631 1291 507 
Q 1516 384 1775 384 
Q 2178 384 2440 643 
Q 2703 903 2703 1303 
Q 2703 1709 2433 1975 
Q 2163 2241 1756 2241 
Q 1359 2241 1098 1978 
Q 838 1716 838 1322 
z
" transform="scale(0.015625)"/>
       </defs>
       <use xlink:href="#ArialMT-38"/>
       <use xlink:href="#ArialMT-30" transform="translate(55.615234 0)"/>
      </g>
     </g>
    </g>
    <g id="ytick_6">
     <g id="line2d_17">
      <path d="M 46.020656 95.231301 
L 520.320656 95.231301 
" clip-path="url(#pbe533f8cef)" style="fill: none; stroke: #b0b0b0; stroke-opacity: 0.3; stroke-width: 0.8; stroke-linecap: square"/>
     </g>
     <g id="line2d_18"/>
     <g id="text_6">
      <!-- 100 -->
      <g transform="translate(29.174406 98.094426) scale(0.08 -0.08)">
       <defs>
        <path id="ArialMT-31" d="M 2384 0 
L 1822 0 
L 1822 3584 
Q 1619 3391 1289 3197 
Q 959 3003 697 2906 
L 697 3450 
Q 1169 3672 1522 3987 
Q 1875 4303 2022 4600 
L 2384 4600 
L 2384 0 
z
" transform="scale(0.015625)"/>
       </defs>
       <use xlink:href="#ArialMT-31"/>
       <use xlink:href="#ArialMT-30" transform="translate(55.615234 0)"/>
       <use xlink:href="#ArialMT-30" transform="translate(111.230469 0)"/>
      </g>
     </g>
    </g>
    <g id="ytick_7">
     <g id="line2d_19">
      <path d="M 46.020656 72.849811 
L 520.320656 72.849811 
" clip-path="url(#pbe533f8cef)" style="fill: none; stroke: #b0b0b0; stroke-opacity: 0.3; stroke-width: 0.8; stroke-linecap: square"/>
     </g>
     <g id="line2d_20"/>
     <g id="text_7">
      <!-- 120 -->
      <g transform="translate(29.174406 75.712936) scale(0.08 -0.08)">
       <use xlink:href="#ArialMT-31"/>
       <use xlink:href="#ArialMT-32" transform="translate(55.615234 0)"/>
       <use xlink:href="#ArialMT-30" transform="translate(111.230469 0)"/>
      </g>
     </g>
    </g>
    <g id="text_8">
     <!-- Power -->
     <g style="fill: #2c3e50" transform="translate(13.642031 151.342969) rotate(-90) scale(0.09 -0.09)">
      <defs>
       <path id="Arial-BoldMT-50" d="M 466 0 
L 466 4581 
L 1950 4581 
Q 2794 4581 3050 4513 
Q 3444 4409 3709 4064 
Q 3975 3719 3975 3172 
Q 3975 2750 3822 2462 
Q 3669 2175 3433 2011 
Q 3197 1847 2953 1794 
Q 2622 1728 1994 1728 
L 1391 1728 
L 1391 0 
L 466 0 
z
M 1391 3806 
L 1391 2506 
L 1897 2506 
Q 2444 2506 2628 2578 
Q 2813 2650 2917 2803 
Q 3022 2956 3022 3159 
Q 3022 3409 2875 3571 
Q 2728 3734 2503 3775 
Q 2338 3806 1838 3806 
L 1391 3806 
z
" transform="scale(0.015625)"/>
       <path id="Arial-BoldMT-6f" d="M 256 1706 
Q 256 2144 472 2553 
Q 688 2963 1083 3178 
Q 1478 3394 1966 3394 
Q 2719 3394 3200 2905 
Q 3681 2416 3681 1669 
Q 3681 916 3195 420 
Q 2709 -75 1972 -75 
Q 1516 -75 1102 131 
Q 688 338 472 736 
Q 256 1134 256 1706 
z
M 1156 1659 
Q 1156 1166 1390 903 
Q 1625 641 1969 641 
Q 2313 641 2545 903 
Q 2778 1166 2778 1666 
Q 2778 2153 2545 2415 
Q 2313 2678 1969 2678 
Q 1625 2678 1390 2415 
Q 1156 2153 1156 1659 
z
" transform="scale(0.015625)"/>
       <path id="Arial-BoldMT-77" d="M 1078 0 
L 28 3319 
L 881 3319 
L 1503 1144 
L 2075 3319 
L 2922 3319 
L 3475 1144 
L 4109 3319 
L 4975 3319 
L 3909 0 
L 3066 0 
L 2494 2134 
L 1931 0 
L 1078 0 
z
" transform="scale(0.015625)"/>
       <path id="Arial-BoldMT-65" d="M 2381 1056 
L 3256 909 
Q 3088 428 2723 176 
Q 2359 -75 1813 -75 
Q 947 -75 531 491 
Q 203 944 203 1634 
Q 203 2459 634 2926 
Q 1066 3394 1725 3394 
Q 2466 3394 2894 2905 
Q 3322 2416 3303 1406 
L 1103 1406 
Q 1113 1016 1316 798 
Q 1519 581 1822 581 
Q 2028 581 2168 693 
Q 2309 806 2381 1056 
z
M 2431 1944 
Q 2422 2325 2234 2523 
Q 2047 2722 1778 2722 
Q 1491 2722 1303 2513 
Q 1116 2303 1119 1944 
L 2431 1944 
z
" transform="scale(0.015625)"/>
       <path id="Arial-BoldMT-72" d="M 1300 0 
L 422 0 
L 422 3319 
L 1238 3319 
L 1238 2847 
Q 1447 3181 1614 3287 
Q 1781 3394 1994 3394 
Q 2294 3394 2572 3228 
L 2300 2463 
Q 2078 2606 1888 2606 
Q 1703 2606 1575 2504 
Q 1447 2403 1373 2137 
Q 1300 1872 1300 1025 
L 1300 0 
z
" transform="scale(0.015625)"/>
      </defs>
      <use xlink:href="#Arial-BoldMT-50"/>
      <use xlink:href="#Arial-BoldMT-6f" transform="translate(66.699219 0)"/>
      <use xlink:href="#Arial-BoldMT-77" transform="translate(127.783203 0)"/>
      <use xlink:href="#Arial-BoldMT-65" transform="translate(205.566406 0)"/>
      <use xlink:href="#Arial-BoldMT-72" transform="translate(261.181641 0)"/>
     </g>
     <!-- (MW) -->
     <g style="fill: #2c3e50" transform="translate(23.280188 148.831406) rotate(-90) scale(0.09 -0.09)">
      <defs>
       <path id="Arial-BoldMT-28" d="M 1916 -1347 
L 1313 -1347 
Q 834 -625 584 153 
Q 334 931 334 1659 
Q 334 2563 644 3369 
Q 913 4069 1325 4659 
L 1925 4659 
Q 1497 3713 1336 3048 
Q 1175 2384 1175 1641 
Q 1175 1128 1270 590 
Q 1366 53 1531 -431 
Q 1641 -750 1916 -1347 
z
" transform="scale(0.015625)"/>
       <path id="Arial-BoldMT-4d" d="M 453 0 
L 453 4581 
L 1838 4581 
L 2669 1456 
L 3491 4581 
L 4878 4581 
L 4878 0 
L 4019 0 
L 4019 3606 
L 3109 0 
L 2219 0 
L 1313 3606 
L 1313 0 
L 453 0 
z
" transform="scale(0.015625)"/>
       <path id="Arial-BoldMT-57" d="M 1116 0 
L 22 4581 
L 969 4581 
L 1659 1434 
L 2497 4581 
L 3597 4581 
L 4400 1381 
L 5103 4581 
L 6034 4581 
L 4922 0 
L 3941 0 
L 3028 3425 
L 2119 0 
L 1116 0 
z
" transform="scale(0.015625)"/>
       <path id="Arial-BoldMT-29" d="M 216 -1347 
Q 475 -791 581 -494 
Q 688 -197 778 190 
Q 869 578 912 926 
Q 956 1275 956 1641 
Q 956 2384 797 3048 
Q 638 3713 209 4659 
L 806 4659 
Q 1278 3988 1539 3234 
Q 1800 2481 1800 1706 
Q 1800 1053 1594 306 
Q 1359 -531 822 -1347 
L 216 -1347 
z
" transform="scale(0.015625)"/>
      </defs>
      <use xlink:href="#Arial-BoldMT-28"/>
      <use xlink:href="#Arial-BoldMT-4d" transform="translate(33.300781 0)"/>
      <use xlink:href="#Arial-BoldMT-57" transform="translate(116.601562 0)"/>
      <use xlink:href="#Arial-BoldMT-29" transform="translate(210.986328 0)"/>
     </g>
    </g>
   </g>
   <g id="patch_3">
    <path d="M 46.020656 207.13875 
L 46.020656 68.53875 
" style="fill: none; stroke: #2d3748; stroke-linejoin: miter; stroke-linecap: square"/>
   </g>
   <g id="patch_4">
    <path d="M 46.020656 207.13875 
L 520.320656 207.13875 
" style="fill: none; stroke: #2d3748; stroke-linejoin: miter; stroke-linecap: square"/>
   </g>
   <g id="FillBetweenPolyCollection_1">
    <path d="M 46.020656 201.543378 
L 46.020656 207.13875 
L 52.700938 207.13875 
L 59.38122 207.13875 
L 66.061501 207.13875 
L 72.741783 207.13875 
L 79.422065 207.13875 
L 86.102346 207.13875 
L 92.782628 207.13875 
L 99.46291 207.13875 
L 106.143191 207.13875 
L 112.823473 207.13875 
L 119.503755 207.13875 
L 126.184037 207.13875 
L 132.864318 207.13875 
L 139.5446 207.13875 
L 146.224882 207.13875 
L 152.905163 207.13875 
L 159.585445 207.13875 
L 166.265727 207.13875 
L 172.946008 207.13875 
L 179.62629 207.13875 
L 186.306572 207.13875 
L 192.986853 207.13875 
L 199.667135 207.13875 
L 206.347417 207.13875 
L 213.027699 207.13875 
L 219.70798 207.13875 
L 226.388262 207.13875 
L 233.068544 207.13875 
L 239.748825 207.13875 
L 246.429107 207.13875 
L 253.109389 207.13875 
L 259.78967 207.13875 
L 266.469952 207.13875 
L 273.150234 207.13875 
L 279.830515 207.13875 
L 286.510797 207.13875 
L 293.191079 207.13875 
L 299.87136 207.13875 
L 306.551642 207.13875 
L 313.231924 207.13875 
L 319.912206 207.13875 
L 326.592487 207.13875 
L 333.272769 207.13875 
L 339.953051 207.13875 
L 346.633332 207.13875 
L 353.313614 207.13875 
L 359.993896 207.13875 
L 366.674177 207.13875 
L 373.354459 207.13875 
L 380.034741 207.13875 
L 386.715022 207.13875 
L 393.395304 207.13875 
L 400.075586 207.13875 
L 406.755868 207.13875 
L 413.436149 207.13875 
L 420.116431 207.13875 
L 426.796713 207.13875 
L 433.476994 207.13875 
L 440.157276 207.13875 
L 446.837558 207.13875 
L 453.517839 207.13875 
L 460.198121 207.13875 
L 466.878403 207.13875 
L 473.558684 207.13875 
L 480.238966 207.13875 
L 486.919248 207.13875 
L 493.599529 207.13875 
L 500.279811 207.13875 
L 506.960093 207.13875 
L 513.640375 207.13875 
L 520.320656 207.13875 
L 520.320656 201.543378 
L 520.320656 201.543378 
L 513.640375 201.543378 
L 506.960093 201.543378 
L 500.279811 201.543378 
L 493.599529 201.543378 
L 486.919248 201.543378 
L 480.238966 201.543378 
L 473.558684 201.543378 
L 466.878403 201.543378 
L 460.198121 201.543378 
L 453.517839 201.543378 
L 446.837558 201.543378 
L 440.157276 201.543378 
L 433.476994 201.543378 
L 426.796713 201.543378 
L 420.116431 201.543378 
L 413.436149 201.543378 
L 406.755868 201.543378 
L 400.075586 201.543378 
L 393.395304 201.543378 
L 386.715022 201.543378 
L 380.034741 201.543378 
L 373.354459 201.543378 
L 366.674177 201.543378 
L 359.993896 201.543378 
L 353.313614 201.543378 
L 346.633332 201.543378 
L 339.953051 201.543378 
L 333.272769 201.543378 
L 326.592487 201.543378 
L 319.912206 201.543378 
L 313.231924 201.543378 
L 306.551642 201.543378 
L 299.87136 201.543378 
L 293.191079 201.543378 
L 286.510797 201.543378 
L 279.830515 201.543378 
L 273.150234 201.543378 
L 266.469952 201.543378 
L 259.78967 201.543378 
L 253.109389 201.543378 
L 246.429107 201.543378 
L 239.748825 201.543378 
L 233.068544 201.543378 
L 226.388262 201.543378 
L 219.70798 201.543378 
L 213.027699 201.543378 
L 206.347417 201.543378 
L 199.667135 201.543378 
L 192.986853 201.543378 
L 186.306572 201.543378 
L 179.62629 201.543378 
L 172.946008 201.543378 
L 166.265727 201.543378 
L 159.585445 201.543378 
L 152.905163 201.543378 
L 146.224882 201.543378 
L 139.5446 201.543378 
L 132.864318 201.543378 
L 126.184037 201.543378 
L 119.503755 201.543378 
L 112.823473 201.543378 
L 106.143191 201.543378 
L 99.46291 201.543378 
L 92.782628 201.543378 
L 86.102346 201.543378 
L 79.422065 201.543378 
L 72.741783 201.543378 
L 66.061501 201.543378 
L 59.38122 201.543378 
L 52.700938 201.543378 
L 46.020656 201.543378 
z
" clip-path="url(#pbe533f8cef)" style="fill: #1a365d; fill-opacity: 0.9"/>
   </g>
   <g id="FillBetweenPolyCollection_2">
    <path d="M 46.020656 190.352633 
L 46.020656 201.543378 
L 52.700938 201.543378 
L 59.38122 201.543378 
L 66.061501 201.543378 
L 72.741783 201.543378 
L 79.422065 201.543378 
L 86.102346 201.543378 
L 92.782628 201.543378 
L 99.46291 201.543378 
L 106.143191 201.543378 
L 112.823473 201.543378 
L 119.503755 201.543378 
L 126.184037 201.543378 
L 132.864318 201.543378 
L 139.5446 201.543378 
L 146.224882 201.543378 
L 152.905163 201.543378 
L 159.585445 201.543378 
L 166.265727 201.543378 
L 172.946008 201.543378 
L 179.62629 201.543378 
L 186.306572 201.543378 
L 192.986853 201.543378 
L 199.667135 201.543378 
L 206.347417 201.543378 
L 213.027699 201.543378 
L 219.70798 201.543378 
L 226.388262 201.543378 
L 233.068544 201.543378 
L 239.748825 201.543378 
L 246.429107 201.543378 
L 253.109389 201.543378 
L 259.78967 201.543378 
L 266.469952 201.543378 
L 273.150234 201.543378 
L 279.830515 201.543378 
L 286.510797 201.543378 
L 293.191079 201.543378 
L 299.87136 201.543378 
L 306.551642 201.543378 
L 313.231924 201.543378 
L 319.912206 201.543378 
L 326.592487 201.543378 
L 333.272769 201.543378 
L 339.953051 201.543378 
L 346.633332 201.543378 
L 353.313614 201.543378 
L 359.993896 201.543378 
L 366.674177 201.543378 
L 373.354459 201.543378 
L 380.034741 201.543378 
L 386.715022 201.543378 
L 393.395304 201.543378 
L 400.075586 201.543378 
L 406.755868 201.543378 
L 413.436149 201.543378 
L 420.116431 201.543378 
L 426.796713 201.543378 
L 433.476994 201.543378 
L 440.157276 201.543378 
L 446.837558 201.543378 
L 453.517839 201.543378 
L 460.198121 201.543378 
L 466.878403 201.543378 
L 473.558684 201.543378 
L 480.238966 201.543378 
L 486.919248 201.543378 
L 493.599529 201.543378 
L 500.279811 201.543378 
L 506.960093 201.543378 
L 513.640375 201.543378 
L 520.320656 201.543378 
L 520.320656 190.352633 
L 520.320656 190.352633 
L 513.640375 190.352633 
L 506.960093 190.352633 
L 500.279811 190.352633 
L 493.599529 190.352633 
L 486.919248 190.352633 
L 480.238966 190.352633 
L 473.558684 190.352633 
L 466.878403 190.352633 
L 460.198121 190.352633 
L 453.517839 190.352633 
L 446.837558 190.352633 
L 440.157276 190.352633 
L 433.476994 190.352633 
L 426.796713 190.352633 
L 420.116431 190.352633 
L 413.436149 190.352633 
L 406.755868 190.352633 
L 400.075586 190.352633 
L 393.395304 190.352633 
L 386.715022 190.352633 
L 380.034741 190.352633 
L 373.354459 190.352633 
L 366.674177 190.352633 
L 359.993896 190.352633 
L 353.313614 190.352633 
L 346.633332 190.352633 
L 339.953051 190.352633 
L 333.272769 190.352633 
L 326.592487 190.352633 
L 319.912206 190.352633 
L 313.231924 190.352633 
L 306.551642 190.352633 
L 299.87136 190.352633 
L 293.191079 190.352633 
L 286.510797 190.865911 
L 279.830515 199.527252 
L 273.150234 201.543378 
L 266.469952 201.543378 
L 259.78967 201.543378 
L 253.109389 196.281941 
L 246.429107 190.352633 
L 239.748825 190.352633 
L 233.068544 190.352633 
L 226.388262 190.352633 
L 219.70798 190.352633 
L 213.027699 190.352633 
L 206.347417 190.352633 
L 199.667135 190.352633 
L 192.986853 190.352633 
L 186.306572 190.352633 
L 179.62629 190.352633 
L 172.946008 190.352633 
L 166.265727 190.352633 
L 159.585445 190.352633 
L 152.905163 190.352633 
L 146.224882 190.352633 
L 139.5446 190.352633 
L 132.864318 190.352633 
L 126.184037 190.352633 
L 119.503755 190.352633 
L 112.823473 190.352633 
L 106.143191 190.352633 
L 99.46291 190.352633 
L 92.782628 190.352633 
L 86.102346 190.352633 
L 79.422065 190.352633 
L 72.741783 190.352633 
L 66.061501 190.352633 
L 59.38122 190.352633 
L 52.700938 190.352633 
L 46.020656 190.352633 
z
" clip-path="url(#pbe533f8cef)" style="fill: #2b6cb0; fill-opacity: 0.9"/>
   </g>
   <g id="FillBetweenPolyCollection_3">
    <path d="M 46.020656 190.352633 
L 46.020656 190.352633 
L 52.700938 190.352633 
L 59.38122 190.352633 
L 66.061501 190.352633 
L 72.741783 190.352633 
L 79.422065 190.352633 
L 86.102346 190.352633 
L 92.782628 190.352633 
L 99.46291 190.352633 
L 106.143191 190.352633 
L 112.823473 190.352633 
L 119.503755 190.352633 
L 126.184037 190.352633 
L 132.864318 190.352633 
L 139.5446 190.352633 
L 146.224882 190.352633 
L 152.905163 190.352633 
L 159.585445 190.352633 
L 166.265727 190.352633 
L 172.946008 190.352633 
L 179.62629 190.352633 
L 186.306572 190.352633 
L 192.986853 190.352633 
L 199.667135 190.352633 
L 206.347417 190.352633 
L 213.027699 190.352633 
L 219.70798 190.352633 
L 226.388262 190.352633 
L 233.068544 190.352633 
L 239.748825 190.352633 
L 246.429107 190.352633 
L 253.109389 196.281941 
L 259.78967 201.543378 
L 266.469952 201.543378 
L 273.150234 201.543378 
L 279.830515 199.527252 
L 286.510797 190.865911 
L 293.191079 190.352633 
L 299.87136 190.352633 
L 306.551642 190.352633 
L 313.231924 190.352633 
L 319.912206 190.352633 
L 326.592487 190.352633 
L 333.272769 190.352633 
L 339.953051 190.352633 
L 346.633332 190.352633 
L 353.313614 190.352633 
L 359.993896 190.352633 
L 366.674177 190.352633 
L 373.354459 190.352633 
L 380.034741 190.352633 
L 386.715022 190.352633 
L 393.395304 190.352633 
L 400.075586 190.352633 
L 406.755868 190.352633 
L 413.436149 190.352633 
L 420.116431 190.352633 
L 426.796713 190.352633 
L 433.476994 190.352633 
L 440.157276 190.352633 
L 446.837558 190.352633 
L 453.517839 190.352633 
L 460.198121 190.352633 
L 466.878403 190.352633 
L 473.558684 190.352633 
L 480.238966 190.352633 
L 486.919248 190.352633 
L 493.599529 190.352633 
L 500.279811 190.352633 
L 506.960093 190.352633 
L 513.640375 190.352633 
L 520.320656 190.352633 
L 520.320656 190.352633 
L 520.320656 190.352633 
L 513.640375 190.352633 
L 506.960093 190.352633 
L 500.279811 190.352633 
L 493.599529 190.352633 
L 486.919248 190.352633 
L 480.238966 190.352633 
L 473.558684 190.352633 
L 466.878403 190.352633 
L 460.198121 190.352633 
L 453.517839 190.352633 
L 446.837558 190.352633 
L 440.157276 190.352633 
L 433.476994 190.352633 
L 426.796713 190.352633 
L 420.116431 190.352633 
L 413.436149 190.352633 
L 406.755868 190.352633 
L 400.075586 190.352633 
L 393.395304 190.352633 
L 386.715022 190.352633 
L 380.034741 190.352633 
L 373.354459 190.352633 
L 366.674177 190.352633 
L 359.993896 190.352633 
L 353.313614 190.352633 
L 346.633332 185.926172 
L 339.953051 184.75726 
L 333.272769 184.75726 
L 326.592487 184.75726 
L 319.912206 184.75726 
L 313.231924 184.75726 
L 306.551642 184.75726 
L 299.87136 184.75726 
L 293.191079 184.75726 
L 286.510797 190.865911 
L 279.830515 199.527252 
L 273.150234 201.543378 
L 266.469952 201.543378 
L 259.78967 201.543378 
L 253.109389 196.281941 
L 246.429107 190.352633 
L 239.748825 190.352633 
L 233.068544 190.352633 
L 226.388262 190.352633 
L 219.70798 190.352633 
L 213.027699 190.352633 
L 206.347417 190.352633 
L 199.667135 190.352633 
L 192.986853 190.352633 
L 186.306572 190.352633 
L 179.62629 190.352633 
L 172.946008 190.352633 
L 166.265727 190.352633 
L 159.585445 190.352633 
L 152.905163 190.352633 
L 146.224882 190.352633 
L 139.5446 190.352633 
L 132.864318 190.352633 
L 126.184037 190.352633 
L 119.503755 190.352633 
L 112.823473 190.352633 
L 106.143191 190.352633 
L 99.46291 190.352633 
L 92.782628 190.352633 
L 86.102346 190.352633 
L 79.422065 190.352633 
L 72.741783 190.352633 
L 66.061501 190.352633 
L 59.38122 190.352633 
L 52.700938 190.352633 
L 46.020656 190.352633 
z
" clip-path="url(#pbe533f8cef)" style="fill: #7cb3f1; fill-opacity: 0.9"/>
   </g>
   <g id="FillBetweenPolyCollection_4">
    <path d="M 46.020656 184.75726 
L 46.020656 190.352633 
L 52.700938 190.352633 
L 59.38122 190.352633 
L 66.061501 190.352633 
L 72.741783 190.352633 
L 79.422065 190.352633 
L 86.102346 190.352633 
L 92.782628 190.352633 
L 99.46291 190.352633 
L 106.143191 190.352633 
L 112.823473 190.352633 
L 119.503755 190.352633 
L 126.184037 190.352633 
L 132.864318 190.352633 
L 139.5446 190.352633 
L 146.224882 190.352633 
L 152.905163 190.352633 
L 159.585445 190.352633 
L 166.265727 190.352633 
L 172.946008 190.352633 
L 179.62629 190.352633 
L 186.306572 190.352633 
L 192.986853 190.352633 
L 199.667135 190.352633 
L 206.347417 190.352633 
L 213.027699 190.352633 
L 219.70798 190.352633 
L 226.388262 190.352633 
L 233.068544 190.352633 
L 239.748825 190.352633 
L 246.429107 190.352633 
L 253.109389 196.281941 
L 259.78967 201.543378 
L 266.469952 201.543378 
L 273.150234 201.543378 
L 279.830515 199.527252 
L 286.510797 190.865911 
L 293.191079 184.75726 
L 299.87136 184.75726 
L 306.551642 184.75726 
L 313.231924 184.75726 
L 319.912206 184.75726 
L 326.592487 184.75726 
L 333.272769 184.75726 
L 339.953051 184.75726 
L 346.633332 185.926172 
L 353.313614 190.352633 
L 359.993896 190.352633 
L 366.674177 190.352633 
L 373.354459 190.352633 
L 380.034741 190.352633 
L 386.715022 190.352633 
L 393.395304 190.352633 
L 400.075586 190.352633 
L 406.755868 190.352633 
L 413.436149 190.352633 
L 420.116431 190.352633 
L 426.796713 190.352633 
L 433.476994 190.352633 
L 440.157276 190.352633 
L 446.837558 190.352633 
L 453.517839 190.352633 
L 460.198121 190.352633 
L 466.878403 190.352633 
L 473.558684 190.352633 
L 480.238966 190.352633 
L 486.919248 190.352633 
L 493.599529 190.352633 
L 500.279811 190.352633 
L 506.960093 190.352633 
L 513.640375 190.352633 
L 520.320656 190.352633 
L 520.320656 184.75726 
L 520.320656 184.75726 
L 513.640375 184.75726 
L 506.960093 184.75726 
L 500.279811 184.75726 
L 493.599529 184.75726 
L 486.919248 184.75726 
L 480.238966 184.75726 
L 473.558684 184.75726 
L 466.878403 184.75726 
L 460.198121 184.75726 
L 453.517839 184.75726 
L 446.837558 184.75726 
L 440.157276 184.75726 
L 433.476994 184.75726 
L 426.796713 184.75726 
L 420.116431 184.75726 
L 413.436149 184.75726 
L 406.755868 184.75726 
L 400.075586 184.75726 
L 393.395304 184.75726 
L 386.715022 184.75726 
L 380.034741 184.75726 
L 373.354459 184.75726 
L 366.674177 184.75726 
L 359.993896 184.75726 
L 353.313614 184.75726 
L 346.633332 184.75726 
L 339.953051 184.75726 
L 333.272769 184.75726 
L 326.592487 184.75726 
L 319.912206 184.75726 
L 313.231924 184.75726 
L 306.551642 184.75726 
L 299.87136 184.75726 
L 293.191079 184.75726 
L 286.510797 190.865911 
L 279.830515 199.527252 
L 273.150234 201.543378 
L 266.469952 201.543378 
L 259.78967 201.543378 
L 253.109389 196.281941 
L 246.429107 190.352633 
L 239.748825 190.352633 
L 233.068544 190.352633 
L 226.388262 190.352633 
L 219.70798 190.352633 
L 213.027699 190.352633 
L 206.347417 190.352633 
L 199.667135 190.352633 
L 192.986853 190.352633 
L 186.306572 190.352633 
L 179.62629 184.75726 
L 172.946008 184.75726 
L 166.265727 184.75726 
L 159.585445 184.75726 
L 152.905163 184.75726 
L 146.224882 184.75726 
L 139.5446 184.75726 
L 132.864318 184.75726 
L 126.184037 184.75726 
L 119.503755 184.75726 
L 112.823473 184.75726 
L 106.143191 184.75726 
L 99.46291 184.75726 
L 92.782628 184.75726 
L 86.102346 184.75726 
L 79.422065 184.75726 
L 72.741783 184.75726 
L 66.061501 184.75726 
L 59.38122 184.75726 
L 52.700938 184.75726 
L 46.020656 184.75726 
z
" clip-path="url(#pbe533f8cef)" style="fill: #00cec9; fill-opacity: 0.9"/>
   </g>
   <g id="FillBetweenPolyCollection_5">
    <path d="M 253.109389 190.352633 
L 253.109389 196.281941 
L 259.78967 201.543378 
L 266.469952 201.543378 
L 273.150234 201.543378 
L 279.830515 199.527252 
L 286.510797 190.865911 
L 286.510797 190.352633 
L 286.510797 190.352633 
L 279.830515 190.352633 
L 273.150234 190.352633 
L 266.469952 190.352633 
L 259.78967 190.352633 
L 253.109389 190.352633 
z
" clip-path="url(#pbe533f8cef)" style="fill: #2b6cb0; fill-opacity: 0.35"/>
   </g>
   <g id="line2d_21">
    <path d="M 46.020656 184.75726 
L 520.320656 184.75726 
" clip-path="url(#pbe533f8cef)" style="fill: none; stroke-dasharray: 6.4,1.6,1,1.6; stroke-dashoffset: 0; stroke: #c0392b; stroke-opacity: 0.8"/>
   </g>
   <g id="FillBetweenPolyCollection_6">
    <path d="M 186.306572 190.352633 
L 186.306572 194.722149 
L 192.986853 200.590924 
L 199.667135 201.200861 
L 206.347417 203.705744 
L 213.027699 204.362965 
L 219.70798 204.87804 
L 226.388262 205.313471 
L 233.068544 207.13875 
L 239.748825 207.13875 
L 246.429107 207.13875 
L 253.109389 207.13875 
L 259.78967 207.13875 
L 266.469952 207.13875 
L 273.150234 204.307788 
L 273.150234 201.543378 
L 273.150234 201.543378 
L 266.469952 201.543378 
L 259.78967 201.543378 
L 253.109389 196.281941 
L 246.429107 190.352633 
L 239.748825 190.352633 
L 233.068544 190.352633 
L 226.388262 190.352633 
L 219.70798 190.352633 
L 213.027699 190.352633 
L 206.347417 190.352633 
L 199.667135 190.352633 
L 192.986853 190.352633 
L 186.306572 190.352633 
z
" clip-path="url(#pbe533f8cef)" style="fill: url(#h1c87b88622); fill-opacity: 0.85"/>
    <path d="M 506.960093 184.75726 
L 506.960093 192.253506 
L 513.640375 185.452589 
L 513.640375 184.75726 
L 513.640375 184.75726 
L 506.960093 184.75726 
z
" clip-path="url(#pbe533f8cef)" style="fill: url(#h1c87b88622); fill-opacity: 0.85"/>
   </g>
   <g id="FillBetweenPolyCollection_7">
    <path d="M 59.38122 154.589034 
L 59.38122 184.75726 
L 59.38122 154.589034 
L 59.38122 154.589034 
z
" clip-path="url(#pbe533f8cef)" style="fill: url(#hac9aa6d34c); fill-opacity: 0.6"/>
    <path d="M 126.184037 154.589034 
L 126.184037 184.75726 
L 126.184037 154.589034 
L 126.184037 154.589034 
z
" clip-path="url(#pbe533f8cef)" style="fill: url(#hac9aa6d34c); fill-opacity: 0.6"/>
    <path d="M 166.265727 154.589034 
L 166.265727 184.75726 
L 166.265727 154.589034 
L 166.265727 154.589034 
z
" clip-path="url(#pbe533f8cef)" style="fill: url(#hac9aa6d34c); fill-opacity: 0.6"/>
    <path d="M 179.62629 154.589034 
L 179.62629 184.75726 
L 179.62629 154.589034 
L 179.62629 154.589034 
z
" clip-path="url(#pbe533f8cef)" style="fill: url(#hac9aa6d34c); fill-opacity: 0.6"/>
    <path d="M 326.592487 155.373439 
L 326.592487 184.75726 
L 326.592487 155.373439 
L 326.592487 155.373439 
z
" clip-path="url(#pbe533f8cef)" style="fill: url(#hac9aa6d34c); fill-opacity: 0.6"/>
    <path d="M 353.313614 154.589034 
L 353.313614 184.75726 
L 353.313614 154.589034 
L 353.313614 154.589034 
z
" clip-path="url(#pbe533f8cef)" style="fill: url(#hac9aa6d34c); fill-opacity: 0.6"/>
    <path d="M 393.395304 154.589034 
L 393.395304 184.75726 
L 393.395304 154.589034 
L 393.395304 154.589034 
z
" clip-path="url(#pbe533f8cef)" style="fill: url(#hac9aa6d34c); fill-opacity: 0.6"/>
    <path d="M 426.796713 159.467 
L 426.796713 184.75726 
L 426.796713 159.467 
L 426.796713 159.467 
z
" clip-path="url(#pbe533f8cef)" style="fill: url(#hac9aa6d34c); fill-opacity: 0.6"/>
    <path d="M 460.198121 181.739878 
L 460.198121 184.75726 
L 466.878403 184.75726 
L 466.878403 172.461797 
L 466.878403 172.461797 
L 460.198121 181.739878 
z
" clip-path="url(#pbe533f8cef)" style="fill: url(#hac9aa6d34c); fill-opacity: 0.6"/>
    <path d="M 500.279811 163.604127 
L 500.279811 184.75726 
L 500.279811 163.604127 
L 500.279811 163.604127 
z
" clip-path="url(#pbe533f8cef)" style="fill: url(#hac9aa6d34c); fill-opacity: 0.6"/>
   </g>
   <g id="legend_1">
    <g id="patch_5">
     <path d="M 93.963156 16.22875 
L 109.963156 16.22875 
L 109.963156 10.62875 
L 93.963156 10.62875 
z
" style="fill: #1a365d; fill-opacity: 0.9"/>
    </g>
    <g id="text_9">
     <!-- Tier A -->
     <g transform="translate(116.363156 16.22875) scale(0.08 -0.08)">
      <defs>
       <path id="ArialMT-54" d="M 1659 0 
L 1659 4041 
L 150 4041 
L 150 4581 
L 3781 4581 
L 3781 4041 
L 2266 4041 
L 2266 0 
L 1659 0 
z
" transform="scale(0.015625)"/>
       <path id="ArialMT-69" d="M 425 3934 
L 425 4581 
L 988 4581 
L 988 3934 
L 425 3934 
z
M 425 0 
L 425 3319 
L 988 3319 
L 988 0 
L 425 0 
z
" transform="scale(0.015625)"/>
       <path id="ArialMT-65" d="M 2694 1069 
L 3275 997 
Q 3138 488 2766 206 
Q 2394 -75 1816 -75 
Q 1088 -75 661 373 
Q 234 822 234 1631 
Q 234 2469 665 2931 
Q 1097 3394 1784 3394 
Q 2450 3394 2872 2941 
Q 3294 2488 3294 1666 
Q 3294 1616 3291 1516 
L 816 1516 
Q 847 969 1125 678 
Q 1403 388 1819 388 
Q 2128 388 2347 550 
Q 2566 713 2694 1069 
z
M 847 1978 
L 2700 1978 
Q 2663 2397 2488 2606 
Q 2219 2931 1791 2931 
Q 1403 2931 1139 2672 
Q 875 2413 847 1978 
z
" transform="scale(0.015625)"/>
       <path id="ArialMT-72" d="M 416 0 
L 416 3319 
L 922 3319 
L 922 2816 
Q 1116 3169 1280 3281 
Q 1444 3394 1641 3394 
Q 1925 3394 2219 3213 
L 2025 2691 
Q 1819 2813 1613 2813 
Q 1428 2813 1281 2702 
Q 1134 2591 1072 2394 
Q 978 2094 978 1738 
L 978 0 
L 416 0 
z
" transform="scale(0.015625)"/>
       <path id="ArialMT-20" transform="scale(0.015625)"/>
       <path id="ArialMT-41" d="M -9 0 
L 1750 4581 
L 2403 4581 
L 4278 0 
L 3588 0 
L 3053 1388 
L 1138 1388 
L 634 0 
L -9 0 
z
M 1313 1881 
L 2866 1881 
L 2388 3150 
Q 2169 3728 2063 4100 
Q 1975 3659 1816 3225 
L 1313 1881 
z
" transform="scale(0.015625)"/>
      </defs>
      <use xlink:href="#ArialMT-54"/>
      <use xlink:href="#ArialMT-69" transform="translate(57.333984 0)"/>
      <use xlink:href="#ArialMT-65" transform="translate(79.550781 0)"/>
      <use xlink:href="#ArialMT-72" transform="translate(135.166016 0)"/>
      <use xlink:href="#ArialMT-20" transform="translate(168.466797 0)"/>
      <use xlink:href="#ArialMT-41" transform="translate(190.75 0)"/>
     </g>
    </g>
    <g id="patch_6">
     <path d="M 93.963156 27.545 
L 109.963156 27.545 
L 109.963156 21.945 
L 93.963156 21.945 
z
" style="fill: #2b6cb0; fill-opacity: 0.9"/>
    </g>
    <g id="text_10">
     <!-- Tier B1 -->
     <g transform="translate(116.363156 27.545) scale(0.08 -0.08)">
      <defs>
       <path id="ArialMT-42" d="M 469 0 
L 469 4581 
L 2188 4581 
Q 2713 4581 3030 4442 
Q 3347 4303 3526 4014 
Q 3706 3725 3706 3409 
Q 3706 3116 3547 2856 
Q 3388 2597 3066 2438 
Q 3481 2316 3704 2022 
Q 3928 1728 3928 1328 
Q 3928 1006 3792 729 
Q 3656 453 3456 303 
Q 3256 153 2954 76 
Q 2653 0 2216 0 
L 469 0 
z
M 1075 2656 
L 2066 2656 
Q 2469 2656 2644 2709 
Q 2875 2778 2992 2937 
Q 3109 3097 3109 3338 
Q 3109 3566 3000 3739 
Q 2891 3913 2687 3977 
Q 2484 4041 1991 4041 
L 1075 4041 
L 1075 2656 
z
M 1075 541 
L 2216 541 
Q 2509 541 2628 563 
Q 2838 600 2978 687 
Q 3119 775 3209 942 
Q 3300 1109 3300 1328 
Q 3300 1584 3169 1773 
Q 3038 1963 2805 2039 
Q 2572 2116 2134 2116 
L 1075 2116 
L 1075 541 
z
" transform="scale(0.015625)"/>
      </defs>
      <use xlink:href="#ArialMT-54"/>
      <use xlink:href="#ArialMT-69" transform="translate(57.333984 0)"/>
      <use xlink:href="#ArialMT-65" transform="translate(79.550781 0)"/>
      <use xlink:href="#ArialMT-72" transform="translate(135.166016 0)"/>
      <use xlink:href="#ArialMT-20" transform="translate(168.466797 0)"/>
      <use xlink:href="#ArialMT-42" transform="translate(196.25 0)"/>
      <use xlink:href="#ArialMT-31" transform="translate(262.949219 0)"/>
     </g>
    </g>
    <g id="patch_7">
     <path d="M 93.963156 38.95875 
L 109.963156 38.95875 
L 109.963156 33.35875 
L 93.963156 33.35875 
z
" style="fill: #7cb3f1; fill-opacity: 0.9"/>
    </g>
    <g id="text_11">
     <!-- Tier B1 Catch-up -->
     <g transform="translate(116.363156 38.95875) scale(0.08 -0.08)">
      <defs>
       <path id="ArialMT-43" d="M 3763 1606 
L 4369 1453 
Q 4178 706 3683 314 
Q 3188 -78 2472 -78 
Q 1731 -78 1267 223 
Q 803 525 561 1097 
Q 319 1669 319 2325 
Q 319 3041 592 3573 
Q 866 4106 1370 4382 
Q 1875 4659 2481 4659 
Q 3169 4659 3637 4309 
Q 4106 3959 4291 3325 
L 3694 3184 
Q 3534 3684 3231 3912 
Q 2928 4141 2469 4141 
Q 1941 4141 1586 3887 
Q 1231 3634 1087 3207 
Q 944 2781 944 2328 
Q 944 1744 1114 1308 
Q 1284 872 1643 656 
Q 2003 441 2422 441 
Q 2931 441 3284 734 
Q 3638 1028 3763 1606 
z
" transform="scale(0.015625)"/>
       <path id="ArialMT-61" d="M 2588 409 
Q 2275 144 1986 34 
Q 1697 -75 1366 -75 
Q 819 -75 525 192 
Q 231 459 231 875 
Q 231 1119 342 1320 
Q 453 1522 633 1644 
Q 813 1766 1038 1828 
Q 1203 1872 1538 1913 
Q 2219 1994 2541 2106 
Q 2544 2222 2544 2253 
Q 2544 2597 2384 2738 
Q 2169 2928 1744 2928 
Q 1347 2928 1158 2789 
Q 969 2650 878 2297 
L 328 2372 
Q 403 2725 575 2942 
Q 747 3159 1072 3276 
Q 1397 3394 1825 3394 
Q 2250 3394 2515 3294 
Q 2781 3194 2906 3042 
Q 3031 2891 3081 2659 
Q 3109 2516 3109 2141 
L 3109 1391 
Q 3109 606 3145 398 
Q 3181 191 3288 0 
L 2700 0 
Q 2613 175 2588 409 
z
M 2541 1666 
Q 2234 1541 1622 1453 
Q 1275 1403 1131 1340 
Q 988 1278 909 1158 
Q 831 1038 831 891 
Q 831 666 1001 516 
Q 1172 366 1500 366 
Q 1825 366 2078 508 
Q 2331 650 2450 897 
Q 2541 1088 2541 1459 
L 2541 1666 
z
" transform="scale(0.015625)"/>
       <path id="ArialMT-74" d="M 1650 503 
L 1731 6 
Q 1494 -44 1306 -44 
Q 1000 -44 831 53 
Q 663 150 594 308 
Q 525 466 525 972 
L 525 2881 
L 113 2881 
L 113 3319 
L 525 3319 
L 525 4141 
L 1084 4478 
L 1084 3319 
L 1650 3319 
L 1650 2881 
L 1084 2881 
L 1084 941 
Q 1084 700 1114 631 
Q 1144 563 1211 522 
Q 1278 481 1403 481 
Q 1497 481 1650 503 
z
" transform="scale(0.015625)"/>
       <path id="ArialMT-63" d="M 2588 1216 
L 3141 1144 
Q 3050 572 2676 248 
Q 2303 -75 1759 -75 
Q 1078 -75 664 370 
Q 250 816 250 1647 
Q 250 2184 428 2587 
Q 606 2991 970 3192 
Q 1334 3394 1763 3394 
Q 2303 3394 2647 3120 
Q 2991 2847 3088 2344 
L 2541 2259 
Q 2463 2594 2264 2762 
Q 2066 2931 1784 2931 
Q 1359 2931 1093 2626 
Q 828 2322 828 1663 
Q 828 994 1084 691 
Q 1341 388 1753 388 
Q 2084 388 2306 591 
Q 2528 794 2588 1216 
z
" transform="scale(0.015625)"/>
       <path id="ArialMT-68" d="M 422 0 
L 422 4581 
L 984 4581 
L 984 2938 
Q 1378 3394 1978 3394 
Q 2347 3394 2619 3248 
Q 2891 3103 3008 2847 
Q 3125 2591 3125 2103 
L 3125 0 
L 2563 0 
L 2563 2103 
Q 2563 2525 2380 2717 
Q 2197 2909 1863 2909 
Q 1613 2909 1392 2779 
Q 1172 2650 1078 2428 
Q 984 2206 984 1816 
L 984 0 
L 422 0 
z
" transform="scale(0.015625)"/>
       <path id="ArialMT-2d" d="M 203 1375 
L 203 1941 
L 1931 1941 
L 1931 1375 
L 203 1375 
z
" transform="scale(0.015625)"/>
       <path id="ArialMT-75" d="M 2597 0 
L 2597 488 
Q 2209 -75 1544 -75 
Q 1250 -75 995 37 
Q 741 150 617 320 
Q 494 491 444 738 
Q 409 903 409 1263 
L 409 3319 
L 972 3319 
L 972 1478 
Q 972 1038 1006 884 
Q 1059 663 1231 536 
Q 1403 409 1656 409 
Q 1909 409 2131 539 
Q 2353 669 2445 892 
Q 2538 1116 2538 1541 
L 2538 3319 
L 3100 3319 
L 3100 0 
L 2597 0 
z
" transform="scale(0.015625)"/>
       <path id="ArialMT-70" d="M 422 -1272 
L 422 3319 
L 934 3319 
L 934 2888 
Q 1116 3141 1344 3267 
Q 1572 3394 1897 3394 
Q 2322 3394 2647 3175 
Q 2972 2956 3137 2557 
Q 3303 2159 3303 1684 
Q 3303 1175 3120 767 
Q 2938 359 2589 142 
Q 2241 -75 1856 -75 
Q 1575 -75 1351 44 
Q 1128 163 984 344 
L 984 -1272 
L 422 -1272 
z
M 931 1641 
Q 931 1000 1190 694 
Q 1450 388 1819 388 
Q 2194 388 2461 705 
Q 2728 1022 2728 1688 
Q 2728 2322 2467 2637 
Q 2206 2953 1844 2953 
Q 1484 2953 1207 2617 
Q 931 2281 931 1641 
z
" transform="scale(0.015625)"/>
      </defs>
      <use xlink:href="#ArialMT-54"/>
      <use xlink:href="#ArialMT-69" transform="translate(57.333984 0)"/>
      <use xlink:href="#ArialMT-65" transform="translate(79.550781 0)"/>
      <use xlink:href="#ArialMT-72" transform="translate(135.166016 0)"/>
      <use xlink:href="#ArialMT-20" transform="translate(168.466797 0)"/>
      <use xlink:href="#ArialMT-42" transform="translate(196.25 0)"/>
      <use xlink:href="#ArialMT-31" transform="translate(262.949219 0)"/>
      <use xlink:href="#ArialMT-20" transform="translate(318.564453 0)"/>
      <use xlink:href="#ArialMT-43" transform="translate(346.347656 0)"/>
      <use xlink:href="#ArialMT-61" transform="translate(418.564453 0)"/>
      <use xlink:href="#ArialMT-74" transform="translate(474.179688 0)"/>
      <use xlink:href="#ArialMT-63" transform="translate(501.962891 0)"/>
      <use xlink:href="#ArialMT-68" transform="translate(551.962891 0)"/>
      <use xlink:href="#ArialMT-2d" transform="translate(607.578125 0)"/>
      <use xlink:href="#ArialMT-75" transform="translate(640.878906 0)"/>
      <use xlink:href="#ArialMT-70" transform="translate(696.494141 0)"/>
     </g>
    </g>
    <g id="patch_8">
     <path d="M 184.528156 16.22875 
L 200.528156 16.22875 
L 200.528156 10.62875 
L 184.528156 10.62875 
z
" style="fill: #00cec9; fill-opacity: 0.9"/>
    </g>
    <g id="text_12">
     <!-- Tier C (Opportunistic) -->
     <g transform="translate(206.928156 16.22875) scale(0.08 -0.08)">
      <defs>
       <path id="ArialMT-28" d="M 1497 -1347 
Q 1031 -759 709 28 
Q 388 816 388 1659 
Q 388 2403 628 3084 
Q 909 3875 1497 4659 
L 1900 4659 
Q 1522 4009 1400 3731 
Q 1209 3300 1100 2831 
Q 966 2247 966 1656 
Q 966 153 1900 -1347 
L 1497 -1347 
z
" transform="scale(0.015625)"/>
       <path id="ArialMT-4f" d="M 309 2231 
Q 309 3372 921 4017 
Q 1534 4663 2503 4663 
Q 3138 4663 3647 4359 
Q 4156 4056 4423 3514 
Q 4691 2972 4691 2284 
Q 4691 1588 4409 1038 
Q 4128 488 3612 205 
Q 3097 -78 2500 -78 
Q 1853 -78 1343 234 
Q 834 547 571 1087 
Q 309 1628 309 2231 
z
M 934 2222 
Q 934 1394 1379 917 
Q 1825 441 2497 441 
Q 3181 441 3623 922 
Q 4066 1403 4066 2288 
Q 4066 2847 3877 3264 
Q 3688 3681 3323 3911 
Q 2959 4141 2506 4141 
Q 1863 4141 1398 3698 
Q 934 3256 934 2222 
z
" transform="scale(0.015625)"/>
       <path id="ArialMT-6f" d="M 213 1659 
Q 213 2581 725 3025 
Q 1153 3394 1769 3394 
Q 2453 3394 2887 2945 
Q 3322 2497 3322 1706 
Q 3322 1066 3130 698 
Q 2938 331 2570 128 
Q 2203 -75 1769 -75 
Q 1072 -75 642 372 
Q 213 819 213 1659 
z
M 791 1659 
Q 791 1022 1069 705 
Q 1347 388 1769 388 
Q 2188 388 2466 706 
Q 2744 1025 2744 1678 
Q 2744 2294 2464 2611 
Q 2184 2928 1769 2928 
Q 1347 2928 1069 2612 
Q 791 2297 791 1659 
z
" transform="scale(0.015625)"/>
       <path id="ArialMT-6e" d="M 422 0 
L 422 3319 
L 928 3319 
L 928 2847 
Q 1294 3394 1984 3394 
Q 2284 3394 2536 3286 
Q 2788 3178 2913 3003 
Q 3038 2828 3088 2588 
Q 3119 2431 3119 2041 
L 3119 0 
L 2556 0 
L 2556 2019 
Q 2556 2363 2490 2533 
Q 2425 2703 2258 2804 
Q 2091 2906 1866 2906 
Q 1506 2906 1245 2678 
Q 984 2450 984 1813 
L 984 0 
L 422 0 
z
" transform="scale(0.015625)"/>
       <path id="ArialMT-73" d="M 197 991 
L 753 1078 
Q 800 744 1014 566 
Q 1228 388 1613 388 
Q 2000 388 2187 545 
Q 2375 703 2375 916 
Q 2375 1106 2209 1216 
Q 2094 1291 1634 1406 
Q 1016 1563 777 1677 
Q 538 1791 414 1992 
Q 291 2194 291 2438 
Q 291 2659 392 2848 
Q 494 3038 669 3163 
Q 800 3259 1026 3326 
Q 1253 3394 1513 3394 
Q 1903 3394 2198 3281 
Q 2494 3169 2634 2976 
Q 2775 2784 2828 2463 
L 2278 2388 
Q 2241 2644 2061 2787 
Q 1881 2931 1553 2931 
Q 1166 2931 1000 2803 
Q 834 2675 834 2503 
Q 834 2394 903 2306 
Q 972 2216 1119 2156 
Q 1203 2125 1616 2013 
Q 2213 1853 2448 1751 
Q 2684 1650 2818 1456 
Q 2953 1263 2953 975 
Q 2953 694 2789 445 
Q 2625 197 2315 61 
Q 2006 -75 1616 -75 
Q 969 -75 630 194 
Q 291 463 197 991 
z
" transform="scale(0.015625)"/>
       <path id="ArialMT-29" d="M 791 -1347 
L 388 -1347 
Q 1322 153 1322 1656 
Q 1322 2244 1188 2822 
Q 1081 3291 891 3722 
Q 769 4003 388 4659 
L 791 4659 
Q 1378 3875 1659 3084 
Q 1900 2403 1900 1659 
Q 1900 816 1576 28 
Q 1253 -759 791 -1347 
z
" transform="scale(0.015625)"/>
      </defs>
      <use xlink:href="#ArialMT-54"/>
      <use xlink:href="#ArialMT-69" transform="translate(57.333984 0)"/>
      <use xlink:href="#ArialMT-65" transform="translate(79.550781 0)"/>
      <use xlink:href="#ArialMT-72" transform="translate(135.166016 0)"/>
      <use xlink:href="#ArialMT-20" transform="translate(168.466797 0)"/>
      <use xlink:href="#ArialMT-43" transform="translate(196.25 0)"/>
      <use xlink:href="#ArialMT-20" transform="translate(268.466797 0)"/>
      <use xlink:href="#ArialMT-28" transform="translate(296.25 0)"/>
      <use xlink:href="#ArialMT-4f" transform="translate(329.550781 0)"/>
      <use xlink:href="#ArialMT-70" transform="translate(407.333984 0)"/>
      <use xlink:href="#ArialMT-70" transform="translate(462.949219 0)"/>
      <use xlink:href="#ArialMT-6f" transform="translate(518.564453 0)"/>
      <use xlink:href="#ArialMT-72" transform="translate(574.179688 0)"/>
      <use xlink:href="#ArialMT-74" transform="translate(607.480469 0)"/>
      <use xlink:href="#ArialMT-75" transform="translate(635.263672 0)"/>
      <use xlink:href="#ArialMT-6e" transform="translate(690.878906 0)"/>
      <use xlink:href="#ArialMT-69" transform="translate(746.494141 0)"/>
      <use xlink:href="#ArialMT-73" transform="translate(768.710938 0)"/>
      <use xlink:href="#ArialMT-74" transform="translate(818.710938 0)"/>
      <use xlink:href="#ArialMT-69" transform="translate(846.494141 0)"/>
      <use xlink:href="#ArialMT-63" transform="translate(868.710938 0)"/>
      <use xlink:href="#ArialMT-29" transform="translate(918.710938 0)"/>
     </g>
    </g>
    <g id="line2d_22">
     <path d="M 184.528156 24.83875 
L 192.528156 24.83875 
L 200.528156 24.83875 
" style="fill: none; stroke-dasharray: 5.55,2.4; stroke-dashoffset: 0; stroke: #2c3e50; stroke-width: 1.5"/>
    </g>
    <g id="text_13">
     <!-- Total Generation -->
     <g transform="translate(206.928156 27.63875) scale(0.08 -0.08)">
      <defs>
       <path id="ArialMT-6c" d="M 409 0 
L 409 4581 
L 972 4581 
L 972 0 
L 409 0 
z
" transform="scale(0.015625)"/>
       <path id="ArialMT-47" d="M 2638 1797 
L 2638 2334 
L 4578 2338 
L 4578 638 
Q 4131 281 3656 101 
Q 3181 -78 2681 -78 
Q 2006 -78 1454 211 
Q 903 500 622 1047 
Q 341 1594 341 2269 
Q 341 2938 620 3517 
Q 900 4097 1425 4378 
Q 1950 4659 2634 4659 
Q 3131 4659 3532 4498 
Q 3934 4338 4162 4050 
Q 4391 3763 4509 3300 
L 3963 3150 
Q 3859 3500 3706 3700 
Q 3553 3900 3268 4020 
Q 2984 4141 2638 4141 
Q 2222 4141 1919 4014 
Q 1616 3888 1430 3681 
Q 1244 3475 1141 3228 
Q 966 2803 966 2306 
Q 966 1694 1177 1281 
Q 1388 869 1791 669 
Q 2194 469 2647 469 
Q 3041 469 3416 620 
Q 3791 772 3984 944 
L 3984 1797 
L 2638 1797 
z
" transform="scale(0.015625)"/>
      </defs>
      <use xlink:href="#ArialMT-54"/>
      <use xlink:href="#ArialMT-6f" transform="translate(49.958984 0)"/>
      <use xlink:href="#ArialMT-74" transform="translate(105.574219 0)"/>
      <use xlink:href="#ArialMT-61" transform="translate(133.357422 0)"/>
      <use xlink:href="#ArialMT-6c" transform="translate(188.972656 0)"/>
      <use xlink:href="#ArialMT-20" transform="translate(211.189453 0)"/>
      <use xlink:href="#ArialMT-47" transform="translate(238.972656 0)"/>
      <use xlink:href="#ArialMT-65" transform="translate(316.755859 0)"/>
      <use xlink:href="#ArialMT-6e" transform="translate(372.371094 0)"/>
      <use xlink:href="#ArialMT-65" transform="translate(427.986328 0)"/>
      <use xlink:href="#ArialMT-72" transform="translate(483.601562 0)"/>
      <use xlink:href="#ArialMT-61" transform="translate(516.902344 0)"/>
      <use xlink:href="#ArialMT-74" transform="translate(572.517578 0)"/>
      <use xlink:href="#ArialMT-69" transform="translate(600.300781 0)"/>
      <use xlink:href="#ArialMT-6f" transform="translate(622.517578 0)"/>
      <use xlink:href="#ArialMT-6e" transform="translate(678.132812 0)"/>
     </g>
    </g>
    <g id="line2d_23">
     <path d="M 291.084406 13.42875 
L 299.084406 13.42875 
L 307.084406 13.42875 
" style="fill: none; stroke-dasharray: 6.4,1.6,1,1.6; stroke-dashoffset: 0; stroke: #c0392b; stroke-opacity: 0.8"/>
    </g>
    <g id="text_14">
     <!-- Hardware Limit -->
     <g transform="translate(313.484406 16.22875) scale(0.08 -0.08)">
      <defs>
       <path id="ArialMT-48" d="M 513 0 
L 513 4581 
L 1119 4581 
L 1119 2700 
L 3500 2700 
L 3500 4581 
L 4106 4581 
L 4106 0 
L 3500 0 
L 3500 2159 
L 1119 2159 
L 1119 0 
L 513 0 
z
" transform="scale(0.015625)"/>
       <path id="ArialMT-64" d="M 2575 0 
L 2575 419 
Q 2259 -75 1647 -75 
Q 1250 -75 917 144 
Q 584 363 401 755 
Q 219 1147 219 1656 
Q 219 2153 384 2558 
Q 550 2963 881 3178 
Q 1213 3394 1622 3394 
Q 1922 3394 2156 3267 
Q 2391 3141 2538 2938 
L 2538 4581 
L 3097 4581 
L 3097 0 
L 2575 0 
z
M 797 1656 
Q 797 1019 1065 703 
Q 1334 388 1700 388 
Q 2069 388 2326 689 
Q 2584 991 2584 1609 
Q 2584 2291 2321 2609 
Q 2059 2928 1675 2928 
Q 1300 2928 1048 2622 
Q 797 2316 797 1656 
z
" transform="scale(0.015625)"/>
       <path id="ArialMT-77" d="M 1034 0 
L 19 3319 
L 600 3319 
L 1128 1403 
L 1325 691 
Q 1338 744 1497 1375 
L 2025 3319 
L 2603 3319 
L 3100 1394 
L 3266 759 
L 3456 1400 
L 4025 3319 
L 4572 3319 
L 3534 0 
L 2950 0 
L 2422 1988 
L 2294 2553 
L 1622 0 
L 1034 0 
z
" transform="scale(0.015625)"/>
       <path id="ArialMT-4c" d="M 469 0 
L 469 4581 
L 1075 4581 
L 1075 541 
L 3331 541 
L 3331 0 
L 469 0 
z
" transform="scale(0.015625)"/>
       <path id="ArialMT-6d" d="M 422 0 
L 422 3319 
L 925 3319 
L 925 2853 
Q 1081 3097 1340 3245 
Q 1600 3394 1931 3394 
Q 2300 3394 2536 3241 
Q 2772 3088 2869 2813 
Q 3263 3394 3894 3394 
Q 4388 3394 4653 3120 
Q 4919 2847 4919 2278 
L 4919 0 
L 4359 0 
L 4359 2091 
Q 4359 2428 4304 2576 
Q 4250 2725 4106 2815 
Q 3963 2906 3769 2906 
Q 3419 2906 3187 2673 
Q 2956 2441 2956 1928 
L 2956 0 
L 2394 0 
L 2394 2156 
Q 2394 2531 2256 2718 
Q 2119 2906 1806 2906 
Q 1569 2906 1367 2781 
Q 1166 2656 1075 2415 
Q 984 2175 984 1722 
L 984 0 
L 422 0 
z
" transform="scale(0.015625)"/>
      </defs>
      <use xlink:href="#ArialMT-48"/>
      <use xlink:href="#ArialMT-61" transform="translate(72.216797 0)"/>
      <use xlink:href="#ArialMT-72" transform="translate(127.832031 0)"/>
      <use xlink:href="#ArialMT-64" transform="translate(161.132812 0)"/>
      <use xlink:href="#ArialMT-77" transform="translate(216.748047 0)"/>
      <use xlink:href="#ArialMT-61" transform="translate(288.964844 0)"/>
      <use xlink:href="#ArialMT-72" transform="translate(344.580078 0)"/>
      <use xlink:href="#ArialMT-65" transform="translate(377.880859 0)"/>
      <use xlink:href="#ArialMT-20" transform="translate(433.496094 0)"/>
      <use xlink:href="#ArialMT-4c" transform="translate(461.279297 0)"/>
      <use xlink:href="#ArialMT-69" transform="translate(516.894531 0)"/>
      <use xlink:href="#ArialMT-6d" transform="translate(539.111328 0)"/>
      <use xlink:href="#ArialMT-69" transform="translate(622.412109 0)"/>
      <use xlink:href="#ArialMT-74" transform="translate(644.628906 0)"/>
     </g>
    </g>
    <g id="patch_9">
     <path d="M 291.084406 27.545 
L 307.084406 27.545 
L 307.084406 21.945 
L 291.084406 21.945 
z
" style="fill: #2b6cb0; fill-opacity: 0.35"/>
    </g>
    <g id="text_15">
     <!-- Deferred Tier B1 -->
     <g transform="translate(313.484406 27.545) scale(0.08 -0.08)">
      <defs>
       <path id="ArialMT-44" d="M 494 0 
L 494 4581 
L 2072 4581 
Q 2606 4581 2888 4516 
Q 3281 4425 3559 4188 
Q 3922 3881 4101 3404 
Q 4281 2928 4281 2316 
Q 4281 1794 4159 1391 
Q 4038 988 3847 723 
Q 3656 459 3429 307 
Q 3203 156 2883 78 
Q 2563 0 2147 0 
L 494 0 
z
M 1100 541 
L 2078 541 
Q 2531 541 2789 625 
Q 3047 709 3200 863 
Q 3416 1078 3536 1442 
Q 3656 1806 3656 2325 
Q 3656 3044 3420 3430 
Q 3184 3816 2847 3947 
Q 2603 4041 2063 4041 
L 1100 4041 
L 1100 541 
z
" transform="scale(0.015625)"/>
       <path id="ArialMT-66" d="M 556 0 
L 556 2881 
L 59 2881 
L 59 3319 
L 556 3319 
L 556 3672 
Q 556 4006 616 4169 
Q 697 4388 901 4523 
Q 1106 4659 1475 4659 
Q 1713 4659 2000 4603 
L 1916 4113 
Q 1741 4144 1584 4144 
Q 1328 4144 1222 4034 
Q 1116 3925 1116 3625 
L 1116 3319 
L 1763 3319 
L 1763 2881 
L 1116 2881 
L 1116 0 
L 556 0 
z
" transform="scale(0.015625)"/>
      </defs>
      <use xlink:href="#ArialMT-44"/>
      <use xlink:href="#ArialMT-65" transform="translate(72.216797 0)"/>
      <use xlink:href="#ArialMT-66" transform="translate(127.832031 0)"/>
      <use xlink:href="#ArialMT-65" transform="translate(155.615234 0)"/>
      <use xlink:href="#ArialMT-72" transform="translate(211.230469 0)"/>
      <use xlink:href="#ArialMT-72" transform="translate(244.53125 0)"/>
      <use xlink:href="#ArialMT-65" transform="translate(277.832031 0)"/>
      <use xlink:href="#ArialMT-64" transform="translate(333.447266 0)"/>
      <use xlink:href="#ArialMT-20" transform="translate(389.0625 0)"/>
      <use xlink:href="#ArialMT-54" transform="translate(415.095703 0)"/>
      <use xlink:href="#ArialMT-69" transform="translate(472.429688 0)"/>
      <use xlink:href="#ArialMT-65" transform="translate(494.646484 0)"/>
      <use xlink:href="#ArialMT-72" transform="translate(550.261719 0)"/>
      <use xlink:href="#ArialMT-20" transform="translate(583.5625 0)"/>
      <use xlink:href="#ArialMT-42" transform="translate(611.345703 0)"/>
      <use xlink:href="#ArialMT-31" transform="translate(678.044922 0)"/>
     </g>
    </g>
    <g id="patch_10">
     <path d="M 380.173156 16.22875 
L 396.173156 16.22875 
L 396.173156 10.62875 
L 380.173156 10.62875 
z
" style="fill: url(#h1c87b88622); fill-opacity: 0.85"/>
    </g>
    <g id="text_16">
     <!-- Battery Discharging -->
     <g transform="translate(402.573156 16.22875) scale(0.08 -0.08)">
      <defs>
       <path id="ArialMT-79" d="M 397 -1278 
L 334 -750 
Q 519 -800 656 -800 
Q 844 -800 956 -737 
Q 1069 -675 1141 -563 
Q 1194 -478 1313 -144 
Q 1328 -97 1363 -6 
L 103 3319 
L 709 3319 
L 1400 1397 
Q 1534 1031 1641 628 
Q 1738 1016 1872 1384 
L 2581 3319 
L 3144 3319 
L 1881 -56 
Q 1678 -603 1566 -809 
Q 1416 -1088 1222 -1217 
Q 1028 -1347 759 -1347 
Q 597 -1347 397 -1278 
z
" transform="scale(0.015625)"/>
       <path id="ArialMT-67" d="M 319 -275 
L 866 -356 
Q 900 -609 1056 -725 
Q 1266 -881 1628 -881 
Q 2019 -881 2231 -725 
Q 2444 -569 2519 -288 
Q 2563 -116 2559 434 
Q 2191 0 1641 0 
Q 956 0 581 494 
Q 206 988 206 1678 
Q 206 2153 378 2554 
Q 550 2956 876 3175 
Q 1203 3394 1644 3394 
Q 2231 3394 2613 2919 
L 2613 3319 
L 3131 3319 
L 3131 450 
Q 3131 -325 2973 -648 
Q 2816 -972 2473 -1159 
Q 2131 -1347 1631 -1347 
Q 1038 -1347 672 -1080 
Q 306 -813 319 -275 
z
M 784 1719 
Q 784 1066 1043 766 
Q 1303 466 1694 466 
Q 2081 466 2343 764 
Q 2606 1063 2606 1700 
Q 2606 2309 2336 2618 
Q 2066 2928 1684 2928 
Q 1309 2928 1046 2623 
Q 784 2319 784 1719 
z
" transform="scale(0.015625)"/>
      </defs>
      <use xlink:href="#ArialMT-42"/>
      <use xlink:href="#ArialMT-61" transform="translate(66.699219 0)"/>
      <use xlink:href="#ArialMT-74" transform="translate(122.314453 0)"/>
      <use xlink:href="#ArialMT-74" transform="translate(150.097656 0)"/>
      <use xlink:href="#ArialMT-65" transform="translate(177.880859 0)"/>
      <use xlink:href="#ArialMT-72" transform="translate(233.496094 0)"/>
      <use xlink:href="#ArialMT-79" transform="translate(266.796875 0)"/>
      <use xlink:href="#ArialMT-20" transform="translate(316.796875 0)"/>
      <use xlink:href="#ArialMT-44" transform="translate(344.580078 0)"/>
      <use xlink:href="#ArialMT-69" transform="translate(416.796875 0)"/>
      <use xlink:href="#ArialMT-73" transform="translate(439.013672 0)"/>
      <use xlink:href="#ArialMT-63" transform="translate(489.013672 0)"/>
      <use xlink:href="#ArialMT-68" transform="translate(539.013672 0)"/>
      <use xlink:href="#ArialMT-61" transform="translate(594.628906 0)"/>
      <use xlink:href="#ArialMT-72" transform="translate(650.244141 0)"/>
      <use xlink:href="#ArialMT-67" transform="translate(683.544922 0)"/>
      <use xlink:href="#ArialMT-69" transform="translate(739.160156 0)"/>
      <use xlink:href="#ArialMT-6e" transform="translate(761.376953 0)"/>
      <use xlink:href="#ArialMT-67" transform="translate(816.992188 0)"/>
     </g>
    </g>
    <g id="patch_11">
     <path d="M 380.173156 27.73625 
L 396.173156 27.73625 
L 396.173156 22.13625 
L 380.173156 22.13625 
z
" style="fill: url(#hac9aa6d34c); fill-opacity: 0.6"/>
    </g>
    <g id="text_17">
     <!-- Battery Charging -->
     <g transform="translate(402.573156 27.73625) scale(0.08 -0.08)">
      <use xlink:href="#ArialMT-42"/>
      <use xlink:href="#ArialMT-61" transform="translate(66.699219 0)"/>
      <use xlink:href="#ArialMT-74" transform="translate(122.314453 0)"/>
      <use xlink:href="#ArialMT-74" transform="translate(150.097656 0)"/>
      <use xlink:href="#ArialMT-65" transform="translate(177.880859 0)"/>
      <use xlink:href="#ArialMT-72" transform="translate(233.496094 0)"/>
      <use xlink:href="#ArialMT-79" transform="translate(266.796875 0)"/>
      <use xlink:href="#ArialMT-20" transform="translate(316.796875 0)"/>
      <use xlink:href="#ArialMT-43" transform="translate(344.580078 0)"/>
      <use xlink:href="#ArialMT-68" transform="translate(416.796875 0)"/>
      <use xlink:href="#ArialMT-61" transform="translate(472.412109 0)"/>
      <use xlink:href="#ArialMT-72" transform="translate(528.027344 0)"/>
      <use xlink:href="#ArialMT-67" transform="translate(561.328125 0)"/>
      <use xlink:href="#ArialMT-69" transform="translate(616.943359 0)"/>
      <use xlink:href="#ArialMT-6e" transform="translate(639.160156 0)"/>
      <use xlink:href="#ArialMT-67" transform="translate(694.775391 0)"/>
     </g>
    </g>
   </g>
   <g id="line2d_24">
    <path d="M 46.020656 124.669813 
L 52.700938 95.541108 
L 59.38122 96.338891 
L 66.061501 96.549762 
L 72.741783 100.134277 
L 79.422065 101.013402 
L 86.102346 101.371207 
L 92.782628 108.5623 
L 99.46291 119.989284 
L 106.143191 127.996688 
L 112.823473 137.208129 
L 119.503755 144.000276 
L 126.184037 144.810315 
L 132.864318 146.408401 
L 139.5446 151.348029 
L 146.224882 139.872779 
L 152.905163 96.706922 
L 159.585445 75.13875 
L 166.265727 84.306518 
L 172.946008 96.727263 
L 179.62629 112.243137 
L 186.306572 194.722149 
L 192.986853 200.590924 
L 199.667135 201.200861 
L 206.347417 203.705744 
L 213.027699 204.362965 
L 219.70798 204.87804 
L 226.388262 205.313471 
L 233.068544 207.13875 
L 239.748825 207.13875 
L 246.429107 207.13875 
L 253.109389 207.13875 
L 259.78967 207.13875 
L 266.469952 207.13875 
L 273.150234 204.307788 
L 279.830515 198.385527 
L 286.510797 188.424985 
L 293.191079 173.378968 
L 299.87136 144.730609 
L 306.551642 107.67866 
L 313.231924 95.268826 
L 319.912206 89.838111 
L 326.592487 91.114911 
L 333.272769 96.228401 
L 339.953051 118.51826 
L 346.633332 102.468934 
L 353.313614 116.951581 
L 359.993896 127.069616 
L 366.674177 127.495148 
L 373.354459 131.096329 
L 380.034741 136.708204 
L 386.715022 129.826877 
L 393.395304 136.397773 
L 400.075586 139.241867 
L 406.755868 144.541669 
L 413.436149 153.666392 
L 420.116431 152.1406 
L 426.796713 156.109777 
L 433.476994 158.446418 
L 440.157276 165.360707 
L 446.837558 177.120286 
L 453.517839 181.979607 
L 460.198121 178.382654 
L 466.878403 169.104573 
L 473.558684 171.78794 
L 480.238966 167.267611 
L 486.919248 167.094603 
L 493.599529 170.852073 
L 500.279811 160.246904 
L 506.960093 192.253506 
L 513.640375 185.452589 
L 520.320656 177.310104 
" clip-path="url(#pbe533f8cef)" style="fill: none; stroke-dasharray: 5.55,2.4; stroke-dashoffset: 0; stroke: #2c3e50; stroke-width: 1.5"/>
   </g>
  </g>
  <g id="axes_2">
   <g id="patch_12">
    <path d="M 46.020656 318.01875 
L 520.320656 318.01875 
L 520.320656 248.71875 
L 46.020656 248.71875 
z
" style="fill: #ffffff"/>
   </g>
   <g id="matplotlib.axis_3">
    <g id="xtick_7">
     <g id="line2d_25">
      <g>
       <use xlink:href="#me6f1d3e7f7" x="52.700938" y="318.01875" style="stroke: #000000; stroke-width: 0.8"/>
      </g>
     </g>
     <g id="text_18">
      <!-- Jan 19 -->
      <g transform="translate(40.692188 330.745) scale(0.08 -0.08)">
       <defs>
        <path id="ArialMT-4a" d="M 184 1300 
L 731 1375 
Q 753 850 928 656 
Q 1103 463 1413 463 
Q 1641 463 1806 567 
Q 1972 672 2034 851 
Q 2097 1031 2097 1425 
L 2097 4581 
L 2703 4581 
L 2703 1459 
Q 2703 884 2564 568 
Q 2425 253 2123 87 
Q 1822 -78 1416 -78 
Q 813 -78 492 269 
Q 172 616 184 1300 
z
" transform="scale(0.015625)"/>
        <path id="ArialMT-39" d="M 350 1059 
L 891 1109 
Q 959 728 1153 556 
Q 1347 384 1650 384 
Q 1909 384 2104 503 
Q 2300 622 2425 820 
Q 2550 1019 2634 1356 
Q 2719 1694 2719 2044 
Q 2719 2081 2716 2156 
Q 2547 1888 2255 1720 
Q 1963 1553 1622 1553 
Q 1053 1553 659 1965 
Q 266 2378 266 3053 
Q 266 3750 677 4175 
Q 1088 4600 1706 4600 
Q 2153 4600 2523 4359 
Q 2894 4119 3086 3673 
Q 3278 3228 3278 2384 
Q 3278 1506 3087 986 
Q 2897 466 2520 194 
Q 2144 -78 1638 -78 
Q 1100 -78 759 220 
Q 419 519 350 1059 
z
M 2653 3081 
Q 2653 3566 2395 3850 
Q 2138 4134 1775 4134 
Q 1400 4134 1122 3828 
Q 844 3522 844 3034 
Q 844 2597 1108 2323 
Q 1372 2050 1759 2050 
Q 2150 2050 2401 2323 
Q 2653 2597 2653 3081 
z
" transform="scale(0.015625)"/>
       </defs>
       <use xlink:href="#ArialMT-4a"/>
       <use xlink:href="#ArialMT-61" transform="translate(50 0)"/>
       <use xlink:href="#ArialMT-6e" transform="translate(105.615234 0)"/>
       <use xlink:href="#ArialMT-20" transform="translate(161.230469 0)"/>
       <use xlink:href="#ArialMT-31" transform="translate(189.013672 0)"/>
       <use xlink:href="#ArialMT-39" transform="translate(244.628906 0)"/>
      </g>
      <!-- 19:00 -->
      <g transform="translate(42.692188 339.2065) scale(0.08 -0.08)">
       <defs>
        <path id="ArialMT-3a" d="M 578 2678 
L 578 3319 
L 1219 3319 
L 1219 2678 
L 578 2678 
z
M 578 0 
L 578 641 
L 1219 641 
L 1219 0 
L 578 0 
z
" transform="scale(0.015625)"/>
       </defs>
       <use xlink:href="#ArialMT-31"/>
       <use xlink:href="#ArialMT-39" transform="translate(55.615234 0)"/>
       <use xlink:href="#ArialMT-3a" transform="translate(111.230469 0)"/>
       <use xlink:href="#ArialMT-30" transform="translate(139.013672 0)"/>
       <use xlink:href="#ArialMT-30" transform="translate(194.628906 0)"/>
      </g>
     </g>
    </g>
    <g id="xtick_8">
     <g id="line2d_26">
      <g>
       <use xlink:href="#me6f1d3e7f7" x="132.864318" y="318.01875" style="stroke: #000000; stroke-width: 0.8"/>
      </g>
     </g>
     <g id="text_19">
      <!-- Jan 20 -->
      <g transform="translate(120.855568 330.745) scale(0.08 -0.08)">
       <use xlink:href="#ArialMT-4a"/>
       <use xlink:href="#ArialMT-61" transform="translate(50 0)"/>
       <use xlink:href="#ArialMT-6e" transform="translate(105.615234 0)"/>
       <use xlink:href="#ArialMT-20" transform="translate(161.230469 0)"/>
       <use xlink:href="#ArialMT-32" transform="translate(189.013672 0)"/>
       <use xlink:href="#ArialMT-30" transform="translate(244.628906 0)"/>
      </g>
      <!-- 07:00 -->
      <g transform="translate(122.855568 339.2065) scale(0.08 -0.08)">
       <defs>
        <path id="ArialMT-37" d="M 303 3981 
L 303 4522 
L 3269 4522 
L 3269 4084 
Q 2831 3619 2401 2847 
Q 1972 2075 1738 1259 
Q 1569 684 1522 0 
L 944 0 
Q 953 541 1156 1306 
Q 1359 2072 1739 2783 
Q 2119 3494 2547 3981 
L 303 3981 
z
" transform="scale(0.015625)"/>
       </defs>
       <use xlink:href="#ArialMT-30"/>
       <use xlink:href="#ArialMT-37" transform="translate(55.615234 0)"/>
       <use xlink:href="#ArialMT-3a" transform="translate(111.230469 0)"/>
       <use xlink:href="#ArialMT-30" transform="translate(139.013672 0)"/>
       <use xlink:href="#ArialMT-30" transform="translate(194.628906 0)"/>
      </g>
     </g>
    </g>
    <g id="xtick_9">
     <g id="line2d_27">
      <g>
       <use xlink:href="#me6f1d3e7f7" x="213.027699" y="318.01875" style="stroke: #000000; stroke-width: 0.8"/>
      </g>
     </g>
     <g id="text_20">
      <!-- Jan 20 -->
      <g transform="translate(201.018949 330.745) scale(0.08 -0.08)">
       <use xlink:href="#ArialMT-4a"/>
       <use xlink:href="#ArialMT-61" transform="translate(50 0)"/>
       <use xlink:href="#ArialMT-6e" transform="translate(105.615234 0)"/>
       <use xlink:href="#ArialMT-20" transform="translate(161.230469 0)"/>
       <use xlink:href="#ArialMT-32" transform="translate(189.013672 0)"/>
       <use xlink:href="#ArialMT-30" transform="translate(244.628906 0)"/>
      </g>
      <!-- 19:00 -->
      <g transform="translate(203.018949 339.2065) scale(0.08 -0.08)">
       <use xlink:href="#ArialMT-31"/>
       <use xlink:href="#ArialMT-39" transform="translate(55.615234 0)"/>
       <use xlink:href="#ArialMT-3a" transform="translate(111.230469 0)"/>
       <use xlink:href="#ArialMT-30" transform="translate(139.013672 0)"/>
       <use xlink:href="#ArialMT-30" transform="translate(194.628906 0)"/>
      </g>
     </g>
    </g>
    <g id="xtick_10">
     <g id="line2d_28">
      <g>
       <use xlink:href="#me6f1d3e7f7" x="293.191079" y="318.01875" style="stroke: #000000; stroke-width: 0.8"/>
      </g>
     </g>
     <g id="text_21">
      <!-- Jan 21 -->
      <g transform="translate(281.182329 330.745) scale(0.08 -0.08)">
       <use xlink:href="#ArialMT-4a"/>
       <use xlink:href="#ArialMT-61" transform="translate(50 0)"/>
       <use xlink:href="#ArialMT-6e" transform="translate(105.615234 0)"/>
       <use xlink:href="#ArialMT-20" transform="translate(161.230469 0)"/>
       <use xlink:href="#ArialMT-32" transform="translate(189.013672 0)"/>
       <use xlink:href="#ArialMT-31" transform="translate(244.628906 0)"/>
      </g>
      <!-- 07:00 -->
      <g transform="translate(283.182329 339.2065) scale(0.08 -0.08)">
       <use xlink:href="#ArialMT-30"/>
       <use xlink:href="#ArialMT-37" transform="translate(55.615234 0)"/>
       <use xlink:href="#ArialMT-3a" transform="translate(111.230469 0)"/>
       <use xlink:href="#ArialMT-30" transform="translate(139.013672 0)"/>
       <use xlink:href="#ArialMT-30" transform="translate(194.628906 0)"/>
      </g>
     </g>
    </g>
    <g id="xtick_11">
     <g id="line2d_29">
      <g>
       <use xlink:href="#me6f1d3e7f7" x="373.354459" y="318.01875" style="stroke: #000000; stroke-width: 0.8"/>
      </g>
     </g>
     <g id="text_22">
      <!-- Jan 21 -->
      <g transform="translate(361.345709 330.745) scale(0.08 -0.08)">
       <use xlink:href="#ArialMT-4a"/>
       <use xlink:href="#ArialMT-61" transform="translate(50 0)"/>
       <use xlink:href="#ArialMT-6e" transform="translate(105.615234 0)"/>
       <use xlink:href="#ArialMT-20" transform="translate(161.230469 0)"/>
       <use xlink:href="#ArialMT-32" transform="translate(189.013672 0)"/>
       <use xlink:href="#ArialMT-31" transform="translate(244.628906 0)"/>
      </g>
      <!-- 19:00 -->
      <g transform="translate(363.345709 339.2065) scale(0.08 -0.08)">
       <use xlink:href="#ArialMT-31"/>
       <use xlink:href="#ArialMT-39" transform="translate(55.615234 0)"/>
       <use xlink:href="#ArialMT-3a" transform="translate(111.230469 0)"/>
       <use xlink:href="#ArialMT-30" transform="translate(139.013672 0)"/>
       <use xlink:href="#ArialMT-30" transform="translate(194.628906 0)"/>
      </g>
     </g>
    </g>
    <g id="xtick_12">
     <g id="line2d_30">
      <g>
       <use xlink:href="#me6f1d3e7f7" x="453.517839" y="318.01875" style="stroke: #000000; stroke-width: 0.8"/>
      </g>
     </g>
     <g id="text_23">
      <!-- Jan 22 -->
      <g transform="translate(441.509089 330.745) scale(0.08 -0.08)">
       <use xlink:href="#ArialMT-4a"/>
       <use xlink:href="#ArialMT-61" transform="translate(50 0)"/>
       <use xlink:href="#ArialMT-6e" transform="translate(105.615234 0)"/>
       <use xlink:href="#ArialMT-20" transform="translate(161.230469 0)"/>
       <use xlink:href="#ArialMT-32" transform="translate(189.013672 0)"/>
       <use xlink:href="#ArialMT-32" transform="translate(244.628906 0)"/>
      </g>
      <!-- 07:00 -->
      <g transform="translate(443.509089 339.2065) scale(0.08 -0.08)">
       <use xlink:href="#ArialMT-30"/>
       <use xlink:href="#ArialMT-37" transform="translate(55.615234 0)"/>
       <use xlink:href="#ArialMT-3a" transform="translate(111.230469 0)"/>
       <use xlink:href="#ArialMT-30" transform="translate(139.013672 0)"/>
       <use xlink:href="#ArialMT-30" transform="translate(194.628906 0)"/>
      </g>
     </g>
    </g>
   </g>
   <g id="matplotlib.axis_4">
    <g id="ytick_8">
     <g id="line2d_31">
      <path d="M 46.020656 318.01875 
L 520.320656 318.01875 
" clip-path="url(#pf329c8b67c)" style="fill: none; stroke: #b0b0b0; stroke-opacity: 0.3; stroke-width: 0.8; stroke-linecap: square"/>
     </g>
     <g id="line2d_32"/>
     <g id="text_24">
      <!-- 0 -->
      <g transform="translate(38.071906 320.881875) scale(0.08 -0.08)">
       <use xlink:href="#ArialMT-30"/>
      </g>
     </g>
    </g>
    <g id="ytick_9">
     <g id="line2d_33">
      <path d="M 46.020656 290.599694 
L 520.320656 290.599694 
" clip-path="url(#pf329c8b67c)" style="fill: none; stroke: #b0b0b0; stroke-opacity: 0.3; stroke-width: 0.8; stroke-linecap: square"/>
     </g>
     <g id="line2d_34"/>
     <g id="text_25">
      <!-- 20 -->
      <g transform="translate(33.623156 293.462819) scale(0.08 -0.08)">
       <use xlink:href="#ArialMT-32"/>
       <use xlink:href="#ArialMT-30" transform="translate(55.615234 0)"/>
      </g>
     </g>
    </g>
    <g id="ytick_10">
     <g id="line2d_35">
      <path d="M 46.020656 263.180637 
L 520.320656 263.180637 
" clip-path="url(#pf329c8b67c)" style="fill: none; stroke: #b0b0b0; stroke-opacity: 0.3; stroke-width: 0.8; stroke-linecap: square"/>
     </g>
     <g id="line2d_36"/>
     <g id="text_26">
      <!-- 40 -->
      <g transform="translate(33.623156 266.043762) scale(0.08 -0.08)">
       <use xlink:href="#ArialMT-34"/>
       <use xlink:href="#ArialMT-30" transform="translate(55.615234 0)"/>
      </g>
     </g>
    </g>
    <g id="text_27">
     <!-- Queue -->
     <g style="fill: #2c3e50" transform="translate(13.642031 297.370781) rotate(-90) scale(0.09 -0.09)">
      <defs>
       <path id="Arial-BoldMT-51" d="M 4153 581 
Q 4494 338 4894 194 
L 4553 -459 
Q 4344 -397 4144 -288 
Q 4100 -266 3528 119 
Q 3078 -78 2531 -78 
Q 1475 -78 876 544 
Q 278 1166 278 2291 
Q 278 3413 878 4036 
Q 1478 4659 2506 4659 
Q 3525 4659 4122 4036 
Q 4719 3413 4719 2291 
Q 4719 1697 4553 1247 
Q 4428 903 4153 581 
z
M 3409 1103 
Q 3588 1313 3677 1609 
Q 3766 1906 3766 2291 
Q 3766 3084 3416 3476 
Q 3066 3869 2500 3869 
Q 1934 3869 1582 3475 
Q 1231 3081 1231 2291 
Q 1231 1488 1582 1089 
Q 1934 691 2472 691 
Q 2672 691 2850 756 
Q 2569 941 2278 1044 
L 2538 1572 
Q 2994 1416 3409 1103 
z
" transform="scale(0.015625)"/>
       <path id="Arial-BoldMT-75" d="M 2644 0 
L 2644 497 
Q 2463 231 2167 78 
Q 1872 -75 1544 -75 
Q 1209 -75 943 72 
Q 678 219 559 484 
Q 441 750 441 1219 
L 441 3319 
L 1319 3319 
L 1319 1794 
Q 1319 1094 1367 936 
Q 1416 778 1544 686 
Q 1672 594 1869 594 
Q 2094 594 2272 717 
Q 2450 841 2515 1023 
Q 2581 1206 2581 1919 
L 2581 3319 
L 3459 3319 
L 3459 0 
L 2644 0 
z
" transform="scale(0.015625)"/>
      </defs>
      <use xlink:href="#Arial-BoldMT-51"/>
      <use xlink:href="#Arial-BoldMT-75" transform="translate(77.783203 0)"/>
      <use xlink:href="#Arial-BoldMT-65" transform="translate(138.867188 0)"/>
      <use xlink:href="#Arial-BoldMT-75" transform="translate(194.482422 0)"/>
      <use xlink:href="#Arial-BoldMT-65" transform="translate(255.566406 0)"/>
     </g>
     <!-- (MWh) -->
     <g style="fill: #2c3e50" transform="translate(23.280188 297.109922) rotate(-90) scale(0.09 -0.09)">
      <defs>
       <path id="Arial-BoldMT-68" d="M 1334 4581 
L 1334 2897 
Q 1759 3394 2350 3394 
Q 2653 3394 2897 3281 
Q 3141 3169 3264 2994 
Q 3388 2819 3433 2606 
Q 3478 2394 3478 1947 
L 3478 0 
L 2600 0 
L 2600 1753 
Q 2600 2275 2550 2415 
Q 2500 2556 2373 2639 
Q 2247 2722 2056 2722 
Q 1838 2722 1666 2615 
Q 1494 2509 1414 2295 
Q 1334 2081 1334 1663 
L 1334 0 
L 456 0 
L 456 4581 
L 1334 4581 
z
" transform="scale(0.015625)"/>
      </defs>
      <use xlink:href="#Arial-BoldMT-28"/>
      <use xlink:href="#Arial-BoldMT-4d" transform="translate(33.300781 0)"/>
      <use xlink:href="#Arial-BoldMT-57" transform="translate(116.601562 0)"/>
      <use xlink:href="#Arial-BoldMT-68" transform="translate(210.986328 0)"/>
      <use xlink:href="#Arial-BoldMT-29" transform="translate(272.070312 0)"/>
     </g>
    </g>
   </g>
   <g id="patch_13">
    <path d="M 46.020656 318.01875 
L 46.020656 248.71875 
" style="fill: none; stroke: #2d3748; stroke-linejoin: miter; stroke-linecap: square"/>
   </g>
   <g id="patch_14">
    <path d="M 46.020656 318.01875 
L 520.320656 318.01875 
" style="fill: none; stroke: #2d3748; stroke-linejoin: miter; stroke-linecap: square"/>
   </g>
   <g id="FillBetweenPolyCollection_8">
    <defs>
     <path id="m18812835fc" d="M 46.020656 -29.97775 
L 46.020656 -29.97775 
L 52.700938 -29.97775 
L 59.38122 -29.97775 
L 66.061501 -29.97775 
L 72.741783 -29.97775 
L 79.422065 -29.97775 
L 86.102346 -29.97775 
L 92.782628 -29.97775 
L 99.46291 -29.97775 
L 106.143191 -29.97775 
L 112.823473 -29.97775 
L 119.503755 -29.97775 
L 126.184037 -29.97775 
L 132.864318 -29.97775 
L 139.5446 -29.97775 
L 146.224882 -29.97775 
L 152.905163 -29.97775 
L 159.585445 -29.97775 
L 166.265727 -29.97775 
L 172.946008 -29.97775 
L 179.62629 -29.97775 
L 186.306572 -29.97775 
L 192.986853 -29.97775 
L 199.667135 -29.97775 
L 206.347417 -29.97775 
L 213.027699 -29.97775 
L 219.70798 -29.97775 
L 226.388262 -29.97775 
L 233.068544 -29.97775 
L 239.748825 -29.97775 
L 246.429107 -29.97775 
L 253.109389 -29.97775 
L 259.78967 -29.97775 
L 266.469952 -29.97775 
L 273.150234 -29.97775 
L 279.830515 -29.97775 
L 286.510797 -29.97775 
L 293.191079 -29.97775 
L 299.87136 -29.97775 
L 306.551642 -29.97775 
L 313.231924 -29.97775 
L 319.912206 -29.97775 
L 326.592487 -29.97775 
L 333.272769 -29.97775 
L 339.953051 -29.97775 
L 346.633332 -29.97775 
L 353.313614 -29.97775 
L 359.993896 -29.97775 
L 366.674177 -29.97775 
L 373.354459 -29.97775 
L 380.034741 -29.97775 
L 386.715022 -29.97775 
L 393.395304 -29.97775 
L 400.075586 -29.97775 
L 406.755868 -29.97775 
L 413.436149 -29.97775 
L 420.116431 -29.97775 
L 426.796713 -29.97775 
L 433.476994 -29.97775 
L 440.157276 -29.97775 
L 446.837558 -29.97775 
L 453.517839 -29.97775 
L 460.198121 -29.97775 
L 466.878403 -29.97775 
L 473.558684 -29.97775 
L 480.238966 -29.97775 
L 486.919248 -29.97775 
L 493.599529 -29.97775 
L 500.279811 -29.97775 
L 506.960093 -29.97775 
L 513.640375 -29.97775 
L 520.320656 -29.97775 
L 520.320656 -29.97775 
L 520.320656 -29.97775 
L 513.640375 -29.97775 
L 506.960093 -29.97775 
L 500.279811 -29.97775 
L 493.599529 -29.97775 
L 486.919248 -29.97775 
L 480.238966 -29.97775 
L 473.558684 -29.97775 
L 466.878403 -29.97775 
L 460.198121 -29.97775 
L 453.517839 -29.97775 
L 446.837558 -29.97775 
L 440.157276 -29.97775 
L 433.476994 -29.97775 
L 426.796713 -29.97775 
L 420.116431 -29.97775 
L 413.436149 -29.97775 
L 406.755868 -29.97775 
L 400.075586 -29.97775 
L 393.395304 -29.97775 
L 386.715022 -29.97775 
L 380.034741 -29.97775 
L 373.354459 -29.97775 
L 366.674177 -29.97775 
L 359.993896 -29.97775 
L 353.313614 -29.97775 
L 346.633332 -29.97775 
L 339.953051 -35.400507 
L 333.272769 -42.255271 
L 326.592487 -49.110035 
L 319.912206 -55.964799 
L 313.231924 -62.819563 
L 306.551642 -69.674327 
L 299.87136 -76.529091 
L 293.191079 -83.383855 
L 286.510797 -90.23862 
L 279.830515 -89.609814 
L 273.150234 -78.370195 
L 266.469952 -64.660667 
L 259.78967 -50.951139 
L 253.109389 -37.241611 
L 246.429107 -29.97775 
L 239.748825 -29.97775 
L 233.068544 -29.97775 
L 226.388262 -29.97775 
L 219.70798 -29.97775 
L 213.027699 -29.97775 
L 206.347417 -29.97775 
L 199.667135 -29.97775 
L 192.986853 -29.97775 
L 186.306572 -29.97775 
L 179.62629 -29.97775 
L 172.946008 -29.97775 
L 166.265727 -29.97775 
L 159.585445 -29.97775 
L 152.905163 -29.97775 
L 146.224882 -29.97775 
L 139.5446 -29.97775 
L 132.864318 -29.97775 
L 126.184037 -29.97775 
L 119.503755 -29.97775 
L 112.823473 -29.97775 
L 106.143191 -29.97775 
L 99.46291 -29.97775 
L 92.782628 -29.97775 
L 86.102346 -29.97775 
L 79.422065 -29.97775 
L 72.741783 -29.97775 
L 66.061501 -29.97775 
L 59.38122 -29.97775 
L 52.700938 -29.97775 
L 46.020656 -29.97775 
z
" style="stroke: #7cb3f1; stroke-opacity: 0.45"/>
    </defs>
    <g clip-path="url(#pf329c8b67c)">
     <use xlink:href="#m18812835fc" x="0" y="347.9965" style="fill: #7cb3f1; fill-opacity: 0.45; stroke: #7cb3f1; stroke-opacity: 0.45"/>
    </g>
   </g>
   <g id="line2d_37">
    <path d="M 46.020656 318.01875 
L 52.700938 318.01875 
L 59.38122 318.01875 
L 66.061501 318.01875 
L 72.741783 318.01875 
L 79.422065 318.01875 
L 86.102346 318.01875 
L 92.782628 318.01875 
L 99.46291 318.01875 
L 106.143191 318.01875 
L 112.823473 318.01875 
L 119.503755 318.01875 
L 126.184037 318.01875 
L 132.864318 318.01875 
L 139.5446 318.01875 
L 146.224882 318.01875 
L 152.905163 318.01875 
L 159.585445 318.01875 
L 166.265727 318.01875 
L 172.946008 318.01875 
L 179.62629 318.01875 
L 186.306572 318.01875 
L 192.986853 318.01875 
L 199.667135 318.01875 
L 206.347417 318.01875 
L 213.027699 318.01875 
L 219.70798 318.01875 
L 226.388262 318.01875 
L 233.068544 318.01875 
L 239.748825 318.01875 
L 246.429107 318.01875 
L 253.109389 310.754889 
L 259.78967 297.045361 
L 266.469952 283.335833 
L 273.150234 269.626305 
L 279.830515 258.386686 
L 286.510797 257.75788 
L 293.191079 264.612645 
L 299.87136 271.467409 
L 306.551642 278.322173 
L 313.231924 285.176937 
L 319.912206 292.031701 
L 326.592487 298.886465 
L 333.272769 305.741229 
L 339.953051 312.595993 
L 346.633332 318.01875 
L 353.313614 318.01875 
L 359.993896 318.01875 
L 366.674177 318.01875 
L 373.354459 318.01875 
L 380.034741 318.01875 
L 386.715022 318.01875 
L 393.395304 318.01875 
L 400.075586 318.01875 
L 406.755868 318.01875 
L 413.436149 318.01875 
L 420.116431 318.01875 
L 426.796713 318.01875 
L 433.476994 318.01875 
L 440.157276 318.01875 
L 446.837558 318.01875 
L 453.517839 318.01875 
L 460.198121 318.01875 
L 466.878403 318.01875 
L 473.558684 318.01875 
L 480.238966 318.01875 
L 486.919248 318.01875 
L 493.599529 318.01875 
L 500.279811 318.01875 
L 506.960093 318.01875 
L 513.640375 318.01875 
L 520.320656 318.01875 
" clip-path="url(#pf329c8b67c)" style="fill: none; stroke: #2b6cb0; stroke-width: 1.5; stroke-linecap: square"/>
   </g>
   <g id="legend_2">
    <g id="line2d_38">
     <path d="M 53.220656 258.845 
L 61.220656 258.845 
L 69.220656 258.845 
" style="fill: none; stroke: #2b6cb0; stroke-width: 1.5; stroke-linecap: square"/>
    </g>
    <g id="text_28">
     <!-- Tier B1 Queue -->
     <g transform="translate(75.620656 261.645) scale(0.08 -0.08)">
      <defs>
       <path id="ArialMT-51" d="M 3966 491 
Q 4388 200 4744 66 
L 4566 -356 
Q 4072 -178 3581 206 
Q 3072 -78 2456 -78 
Q 1834 -78 1328 222 
Q 822 522 548 1065 
Q 275 1609 275 2291 
Q 275 2969 550 3525 
Q 825 4081 1333 4372 
Q 1841 4663 2469 4663 
Q 3103 4663 3612 4361 
Q 4122 4059 4389 3517 
Q 4656 2975 4656 2294 
Q 4656 1728 4484 1276 
Q 4313 825 3966 491 
z
M 2631 1266 
Q 3156 1119 3497 828 
Q 4031 1316 4031 2294 
Q 4031 2850 3842 3265 
Q 3653 3681 3289 3911 
Q 2925 4141 2472 4141 
Q 1794 4141 1347 3677 
Q 900 3213 900 2291 
Q 900 1397 1342 919 
Q 1784 441 2472 441 
Q 2797 441 3084 563 
Q 2800 747 2484 825 
L 2631 1266 
z
" transform="scale(0.015625)"/>
      </defs>
      <use xlink:href="#ArialMT-54"/>
      <use xlink:href="#ArialMT-69" transform="translate(57.333984 0)"/>
      <use xlink:href="#ArialMT-65" transform="translate(79.550781 0)"/>
      <use xlink:href="#ArialMT-72" transform="translate(135.166016 0)"/>
      <use xlink:href="#ArialMT-20" transform="translate(168.466797 0)"/>
      <use xlink:href="#ArialMT-42" transform="translate(196.25 0)"/>
      <use xlink:href="#ArialMT-31" transform="translate(262.949219 0)"/>
      <use xlink:href="#ArialMT-20" transform="translate(318.564453 0)"/>
      <use xlink:href="#ArialMT-51" transform="translate(346.347656 0)"/>
      <use xlink:href="#ArialMT-75" transform="translate(424.130859 0)"/>
      <use xlink:href="#ArialMT-65" transform="translate(479.746094 0)"/>
      <use xlink:href="#ArialMT-75" transform="translate(535.361328 0)"/>
      <use xlink:href="#ArialMT-65" transform="translate(590.976562 0)"/>
     </g>
    </g>
   </g>
  </g>
 </g>
 <defs>
  <clipPath id="pbe533f8cef">
   <rect x="46.020656" y="68.53875" width="474.3" height="138.6"/>
  </clipPath>
  <clipPath id="pf329c8b67c">
   <rect x="46.020656" y="248.71875" width="474.3" height="69.3"/>
  </clipPath>
 </defs>
 <defs>
  <pattern id="h1c87b88622" patternUnits="userSpaceOnUse" x="0" y="0" width="72" height="72">
   <rect x="0" y="0" width="73" height="73" fill="#e74c3c"/>
   <path d="M -36 36 
L 36 -36 
M -30 42 
L 42 -30 
M -24 48 
L 48 -24 
M -18 54 
L 54 -18 
M -12 60 
L 60 -12 
M -6 66 
L 66 -6 
M 0 72 
L 72 0 
M 6 78 
L 78 6 
M 12 84 
L 84 12 
M 18 90 
L 90 18 
M 24 96 
L 96 24 
M 30 102 
L 102 30 
M 36 108 
L 108 36 
" style="fill: #000000; stroke: #000000; stroke-width: 1.0; stroke-linecap: butt; stroke-linejoin: miter"/>
  </pattern>
  <pattern id="hac9aa6d34c" patternUnits="userSpaceOnUse" x="0" y="0" width="72" height="72">
   <rect x="0" y="0" width="73" height="73" fill="#00cc66"/>
   <path d="M -36 36 
L 36 108 
M -30 30 
L 42 102 
M -24 24 
L 48 96 
M -18 18 
L 54 90 
M -12 12 
L 60 84 
M -6 6 
L 66 78 
M 0 0 
L 72 72 
M 6 -6 
L 78 66 
M 12 -12 
L 84 60 
M 18 -18 
L 90 54 
M 24 -24 
L 96 48 
M 30 -30 
L 102 42 
M 36 -36 
L 108 36 
" style="fill: #000000; stroke: #000000; stroke-width: 1.0; stroke-linecap: butt; stroke-linejoin: miter"/>
  </pattern>
 </defs>
</svg>
