<?xml version="1.0" encoding="utf-8" standalone="no"?>
<!DOCTYPE svg PUBLIC "-//W3C//DTD SVG 1.1//EN"
  "http://www.w3.org/Graphics/SVG/1.1/DTD/svg11.dtd">
<svg xmlns:xlink="http://www.w3.org/1999/xlink" width="605.568156pt" height="245.7399pt" viewBox="0 0 605.568156 245.7399" xmlns="http://www.w3.org/2000/svg" version="1.1">
 <metadata>
  <rdf:RDF xmlns:dc="http://purl.org/dc/elements/1.1/" xmlns:cc="http://creativecommons.org/ns#" xmlns:rdf="http://www.w3.org/1999/02/22-rdf-syntax-ns#">
   <cc:Work>
    <dc:type rdf:resource="http://purl.org/dc/dcmitype/StillImage"/>
    <dc:date>2026-06-17T15:19:34.962920</dc:date>
    <dc:format>image/svg+xml</dc:format>
    <dc:creator>
     <cc:Agent>
      <dc:title>Matplotlib v3.10.8, https://matplotlib.org/</dc:title>
     </cc:Agent>
    </dc:creator>
   </cc:Work>
  </rdf:RDF>
 </metadata>
 <defs>
  <style type="text/css">*{stroke-linejoin: round; stroke-linecap: butt}</style>
 </defs>
 <g id="figure_1">
  <g id="patch_1">
   <path d="M 0 245.7399 
L 605.568156 245.7399 
L 605.568156 0 
L 0 0 
z
" style="fill: #ffffff"/>
  </g>
  <g id="axes_1">
   <g id="patch_2">
    <path d="M 46.020656 215.76215 
L 598.368156 215.76215 
L 598.368156 34.00415 
L 46.020656 34.00415 
z
" style="fill: #ffffff"/>
   </g>
   <g id="matplotlib.axis_1">
    <g id="xtick_1">
     <g id="line2d_1">
      <defs>
       <path id="m0eef1f0d59" d="M 0 0 
L 0 3.5 
" style="stroke: #000000; stroke-width: 0.8"/>
      </defs>
      <g>
       <use xlink:href="#m0eef1f0d59" x="53.800199" y="215.76215" style="stroke: #000000; stroke-width: 0.8"/>
      </g>
     </g>
     <g id="text_1">
      <!-- Jan 19 -->
      <g transform="translate(41.791449 228.4884) scale(0.08 -0.08)">
       <defs>
        <path id="ArialMT-4a" d="M 184 1300 
L 731 1375 
Q 753 850 928 656 
Q 1103 463 1413 463 
Q 1641 463 1806 567 
Q 1972 672 2034 851 
Q 2097 1031 2097 1425 
L 2097 4581 
L 2703 4581 
L 2703 1459 
Q 2703 884 2564 568 
Q 2425 253 2123 87 
Q 1822 -78 1416 -78 
Q 813 -78 492 269 
Q 172 616 184 1300 
z
" transform="scale(0.015625)"/>
        <path id="ArialMT-61" d="M 2588 409 
Q 2275 144 1986 34 
Q 1697 -75 1366 -75 
Q 819 -75 525 192 
Q 231 459 231 875 
Q 231 1119 342 1320 
Q 453 1522 633 1644 
Q 813 1766 1038 1828 
Q 1203 1872 1538 1913 
Q 2219 1994 2541 2106 
Q 2544 2222 2544 2253 
Q 2544 2597 2384 2738 
Q 2169 2928 1744 2928 
Q 1347 2928 1158 2789 
Q 969 2650 878 2297 
L 328 2372 
Q 403 2725 575 2942 
Q 747 3159 1072 3276 
Q 1397 3394 1825 3394 
Q 2250 3394 2515 3294 
Q 2781 3194 2906 3042 
Q 3031 2891 3081 2659 
Q 3109 2516 3109 2141 
L 3109 1391 
Q 3109 606 3145 398 
Q 3181 191 3288 0 
L 2700 0 
Q 2613 175 2588 409 
z
M 2541 1666 
Q 2234 1541 1622 1453 
Q 1275 1403 1131 1340 
Q 988 1278 909 1158 
Q 831 1038 831 891 
Q 831 666 1001 516 
Q 1172 366 1500 366 
Q 1825 366 2078 508 
Q 2331 650 2450 897 
Q 2541 1088 2541 1459 
L 2541 1666 
z
" transform="scale(0.015625)"/>
        <path id="ArialMT-6e" d="M 422 0 
L 422 3319 
L 928 3319 
L 928 2847 
Q 1294 3394 1984 3394 
Q 2284 3394 2536 3286 
Q 2788 3178 2913 3003 
Q 3038 2828 3088 2588 
Q 3119 2431 3119 2041 
L 3119 0 
L 2556 0 
L 2556 2019 
Q 2556 2363 2490 2533 
Q 2425 2703 2258 2804 
Q 2091 2906 1866 2906 
Q 1506 2906 1245 2678 
Q 984 2450 984 1813 
L 984 0 
L 422 0 
z
" transform="scale(0.015625)"/>
        <path id="ArialMT-20" transform="scale(0.015625)"/>
        <path id="ArialMT-31" d="M 2384 0 
L 1822 0 
L 1822 3584 
Q 1619 3391 1289 3197 
Q 959 3003 697 2906 
L 697 3450 
Q 1169 3672 1522 3987 
Q 1875 4303 2022 4600 
L 2384 4600 
L 2384 0 
z
" transform="scale(0.015625)"/>
        <path id="ArialMT-39" d="M 350 1059 
L 891 1109 
Q 959 728 1153 556 
Q 1347 384 1650 384 
Q 1909 384 2104 503 
Q 2300 622 2425 820 
Q 2550 1019 2634 1356 
Q 2719 1694 2719 2044 
Q 2719 2081 2716 2156 
Q 2547 1888 2255 1720 
Q 1963 1553 1622 1553 
Q 1053 1553 659 1965 
Q 266 2378 266 3053 
Q 266 3750 677 4175 
Q 1088 4600 1706 4600 
Q 2153 4600 2523 4359 
Q 2894 4119 3086 3673 
Q 3278 3228 3278 2384 
Q 3278 1506 3087 986 
Q 2897 466 2520 194 
Q 2144 -78 1638 -78 
Q 1100 -78 759 220 
Q 419 519 350 1059 
z
M 2653 3081 
Q 2653 3566 2395 3850 
Q 2138 4134 1775 4134 
Q 1400 4134 1122 3828 
Q 844 3522 844 3034 
Q 844 2597 1108 2323 
Q 1372 2050 1759 2050 
Q 2150 2050 2401 2323 
Q 2653 2597 2653 3081 
z
" transform="scale(0.015625)"/>
       </defs>
       <use xlink:href="#ArialMT-4a"/>
       <use xlink:href="#ArialMT-61" transform="translate(50 0)"/>
       <use xlink:href="#ArialMT-6e" transform="translate(105.615234 0)"/>
       <use xlink:href="#ArialMT-20" transform="translate(161.230469 0)"/>
       <use xlink:href="#ArialMT-31" transform="translate(189.013672 0)"/>
       <use xlink:href="#ArialMT-39" transform="translate(244.628906 0)"/>
      </g>
      <!-- 19:00 -->
      <g transform="translate(43.791449 236.9499) scale(0.08 -0.08)">
       <defs>
        <path id="ArialMT-3a" d="M 578 2678 
L 578 3319 
L 1219 3319 
L 1219 2678 
L 578 2678 
z
M 578 0 
L 578 641 
L 1219 641 
L 1219 0 
L 578 0 
z
" transform="scale(0.015625)"/>
        <path id="ArialMT-30" d="M 266 2259 
Q 266 3072 433 3567 
Q 600 4063 929 4331 
Q 1259 4600 1759 4600 
Q 2128 4600 2406 4451 
Q 2684 4303 2865 4023 
Q 3047 3744 3150 3342 
Q 3253 2941 3253 2259 
Q 3253 1453 3087 958 
Q 2922 463 2592 192 
Q 2263 -78 1759 -78 
Q 1097 -78 719 397 
Q 266 969 266 2259 
z
M 844 2259 
Q 844 1131 1108 757 
Q 1372 384 1759 384 
Q 2147 384 2411 759 
Q 2675 1134 2675 2259 
Q 2675 3391 2411 3762 
Q 2147 4134 1753 4134 
Q 1366 4134 1134 3806 
Q 844 3388 844 2259 
z
" transform="scale(0.015625)"/>
       </defs>
       <use xlink:href="#ArialMT-31"/>
       <use xlink:href="#ArialMT-39" transform="translate(55.615234 0)"/>
       <use xlink:href="#ArialMT-3a" transform="translate(111.230469 0)"/>
       <use xlink:href="#ArialMT-30" transform="translate(139.013672 0)"/>
       <use xlink:href="#ArialMT-30" transform="translate(194.628906 0)"/>
      </g>
     </g>
    </g>
    <g id="xtick_2">
     <g id="line2d_2">
      <g>
       <use xlink:href="#m0eef1f0d59" x="147.154706" y="215.76215" style="stroke: #000000; stroke-width: 0.8"/>
      </g>
     </g>
     <g id="text_2">
      <!-- Jan 20 -->
      <g transform="translate(135.145956 228.4884) scale(0.08 -0.08)">
       <defs>
        <path id="ArialMT-32" d="M 3222 541 
L 3222 0 
L 194 0 
Q 188 203 259 391 
Q 375 700 629 1000 
Q 884 1300 1366 1694 
Q 2113 2306 2375 2664 
Q 2638 3022 2638 3341 
Q 2638 3675 2398 3904 
Q 2159 4134 1775 4134 
Q 1369 4134 1125 3890 
Q 881 3647 878 3216 
L 300 3275 
Q 359 3922 746 4261 
Q 1134 4600 1788 4600 
Q 2447 4600 2831 4234 
Q 3216 3869 3216 3328 
Q 3216 3053 3103 2787 
Q 2991 2522 2730 2228 
Q 2469 1934 1863 1422 
Q 1356 997 1212 845 
Q 1069 694 975 541 
L 3222 541 
z
" transform="scale(0.015625)"/>
       </defs>
       <use xlink:href="#ArialMT-4a"/>
       <use xlink:href="#ArialMT-61" transform="translate(50 0)"/>
       <use xlink:href="#ArialMT-6e" transform="translate(105.615234 0)"/>
       <use xlink:href="#ArialMT-20" transform="translate(161.230469 0)"/>
       <use xlink:href="#ArialMT-32" transform="translate(189.013672 0)"/>
       <use xlink:href="#ArialMT-30" transform="translate(244.628906 0)"/>
      </g>
      <!-- 07:00 -->
      <g transform="translate(137.145956 236.9499) scale(0.08 -0.08)">
       <defs>
        <path id="ArialMT-37" d="M 303 3981 
L 303 4522 
L 3269 4522 
L 3269 4084 
Q 2831 3619 2401 2847 
Q 1972 2075 1738 1259 
Q 1569 684 1522 0 
L 944 0 
Q 953 541 1156 1306 
Q 1359 2072 1739 2783 
Q 2119 3494 2547 3981 
L 303 3981 
z
" transform="scale(0.015625)"/>
       </defs>
       <use xlink:href="#ArialMT-30"/>
       <use xlink:href="#ArialMT-37" transform="translate(55.615234 0)"/>
       <use xlink:href="#ArialMT-3a" transform="translate(111.230469 0)"/>
       <use xlink:href="#ArialMT-30" transform="translate(139.013672 0)"/>
       <use xlink:href="#ArialMT-30" transform="translate(194.628906 0)"/>
      </g>
     </g>
    </g>
    <g id="xtick_3">
     <g id="line2d_3">
      <g>
       <use xlink:href="#m0eef1f0d59" x="240.509213" y="215.76215" style="stroke: #000000; stroke-width: 0.8"/>
      </g>
     </g>
     <g id="text_3">
      <!-- Jan 20 -->
      <g transform="translate(228.500463 228.4884) scale(0.08 -0.08)">
       <use xlink:href="#ArialMT-4a"/>
       <use xlink:href="#ArialMT-61" transform="translate(50 0)"/>
       <use xlink:href="#ArialMT-6e" transform="translate(105.615234 0)"/>
       <use xlink:href="#ArialMT-20" transform="translate(161.230469 0)"/>
       <use xlink:href="#ArialMT-32" transform="translate(189.013672 0)"/>
       <use xlink:href="#ArialMT-30" transform="translate(244.628906 0)"/>
      </g>
      <!-- 19:00 -->
      <g transform="translate(230.500463 236.9499) scale(0.08 -0.08)">
       <use xlink:href="#ArialMT-31"/>
       <use xlink:href="#ArialMT-39" transform="translate(55.615234 0)"/>
       <use xlink:href="#ArialMT-3a" transform="translate(111.230469 0)"/>
       <use xlink:href="#ArialMT-30" transform="translate(139.013672 0)"/>
       <use xlink:href="#ArialMT-30" transform="translate(194.628906 0)"/>
      </g>
     </g>
    </g>
    <g id="xtick_4">
     <g id="line2d_4">
      <g>
       <use xlink:href="#m0eef1f0d59" x="333.86372" y="215.76215" style="stroke: #000000; stroke-width: 0.8"/>
      </g>
     </g>
     <g id="text_4">
      <!-- Jan 21 -->
      <g transform="translate(321.85497 228.4884) scale(0.08 -0.08)">
       <use xlink:href="#ArialMT-4a"/>
       <use xlink:href="#ArialMT-61" transform="translate(50 0)"/>
       <use xlink:href="#ArialMT-6e" transform="translate(105.615234 0)"/>
       <use xlink:href="#ArialMT-20" transform="translate(161.230469 0)"/>
       <use xlink:href="#ArialMT-32" transform="translate(189.013672 0)"/>
       <use xlink:href="#ArialMT-31" transform="translate(244.628906 0)"/>
      </g>
      <!-- 07:00 -->
      <g transform="translate(323.85497 236.9499) scale(0.08 -0.08)">
       <use xlink:href="#ArialMT-30"/>
       <use xlink:href="#ArialMT-37" transform="translate(55.615234 0)"/>
       <use xlink:href="#ArialMT-3a" transform="translate(111.230469 0)"/>
       <use xlink:href="#ArialMT-30" transform="translate(139.013672 0)"/>
       <use xlink:href="#ArialMT-30" transform="translate(194.628906 0)"/>
      </g>
     </g>
    </g>
    <g id="xtick_5">
     <g id="line2d_5">
      <g>
       <use xlink:href="#m0eef1f0d59" x="427.218227" y="215.76215" style="stroke: #000000; stroke-width: 0.8"/>
      </g>
     </g>
     <g id="text_5">
      <!-- Jan 21 -->
      <g transform="translate(415.209477 228.4884) scale(0.08 -0.08)">
       <use xlink:href="#ArialMT-4a"/>
       <use xlink:href="#ArialMT-61" transform="translate(50 0)"/>
       <use xlink:href="#ArialMT-6e" transform="translate(105.615234 0)"/>
       <use xlink:href="#ArialMT-20" transform="translate(161.230469 0)"/>
       <use xlink:href="#ArialMT-32" transform="translate(189.013672 0)"/>
       <use xlink:href="#ArialMT-31" transform="translate(244.628906 0)"/>
      </g>
      <!-- 19:00 -->
      <g transform="translate(417.209477 236.9499) scale(0.08 -0.08)">
       <use xlink:href="#ArialMT-31"/>
       <use xlink:href="#ArialMT-39" transform="translate(55.615234 0)"/>
       <use xlink:href="#ArialMT-3a" transform="translate(111.230469 0)"/>
       <use xlink:href="#ArialMT-30" transform="translate(139.013672 0)"/>
       <use xlink:href="#ArialMT-30" transform="translate(194.628906 0)"/>
      </g>
     </g>
    </g>
    <g id="xtick_6">
     <g id="line2d_6">
      <g>
       <use xlink:href="#m0eef1f0d59" x="520.572734" y="215.76215" style="stroke: #000000; stroke-width: 0.8"/>
      </g>
     </g>
     <g id="text_6">
      <!-- Jan 22 -->
      <g transform="translate(508.563984 228.4884) scale(0.08 -0.08)">
       <use xlink:href="#ArialMT-4a"/>
       <use xlink:href="#ArialMT-61" transform="translate(50 0)"/>
       <use xlink:href="#ArialMT-6e" transform="translate(105.615234 0)"/>
       <use xlink:href="#ArialMT-20" transform="translate(161.230469 0)"/>
       <use xlink:href="#ArialMT-32" transform="translate(189.013672 0)"/>
       <use xlink:href="#ArialMT-32" transform="translate(244.628906 0)"/>
      </g>
      <!-- 07:00 -->
      <g transform="translate(510.563984 236.9499) scale(0.08 -0.08)">
       <use xlink:href="#ArialMT-30"/>
       <use xlink:href="#ArialMT-37" transform="translate(55.615234 0)"/>
       <use xlink:href="#ArialMT-3a" transform="translate(111.230469 0)"/>
       <use xlink:href="#ArialMT-30" transform="translate(139.013672 0)"/>
       <use xlink:href="#ArialMT-30" transform="translate(194.628906 0)"/>
      </g>
     </g>
    </g>
   </g>
   <g id="matplotlib.axis_2">
    <g id="ytick_1">
     <g id="line2d_7">
      <path d="M 46.020656 215.76215 
L 598.368156 215.76215 
" clip-path="url(#p2b90c2b977)" style="fill: none; stroke: #b0b0b0; stroke-opacity: 0.3; stroke-width: 0.8; stroke-linecap: square"/>
     </g>
     <g id="line2d_8"/>
     <g id="text_7">
      <!-- 0 -->
      <g transform="translate(38.071906 218.625275) scale(0.08 -0.08)">
       <use xlink:href="#ArialMT-30"/>
      </g>
     </g>
    </g>
    <g id="ytick_2">
     <g id="line2d_9">
      <path d="M 46.020656 186.411394 
L 598.368156 186.411394 
" clip-path="url(#p2b90c2b977)" style="fill: none; stroke: #b0b0b0; stroke-opacity: 0.3; stroke-width: 0.8; stroke-linecap: square"/>
     </g>
     <g id="line2d_10"/>
     <g id="text_8">
      <!-- 20 -->
      <g transform="translate(33.623156 189.274519) scale(0.08 -0.08)">
       <use xlink:href="#ArialMT-32"/>
       <use xlink:href="#ArialMT-30" transform="translate(55.615234 0)"/>
      </g>
     </g>
    </g>
    <g id="ytick_3">
     <g id="line2d_11">
      <path d="M 46.020656 157.060637 
L 598.368156 157.060637 
" clip-path="url(#p2b90c2b977)" style="fill: none; stroke: #b0b0b0; stroke-opacity: 0.3; stroke-width: 0.8; stroke-linecap: square"/>
     </g>
     <g id="line2d_12"/>
     <g id="text_9">
      <!-- 40 -->
      <g transform="translate(33.623156 159.923762) scale(0.08 -0.08)">
       <defs>
        <path id="ArialMT-34" d="M 2069 0 
L 2069 1097 
L 81 1097 
L 81 1613 
L 2172 4581 
L 2631 4581 
L 2631 1613 
L 3250 1613 
L 3250 1097 
L 2631 1097 
L 2631 0 
L 2069 0 
z
M 2069 1613 
L 2069 3678 
L 634 1613 
L 2069 1613 
z
" transform="scale(0.015625)"/>
       </defs>
       <use xlink:href="#ArialMT-34"/>
       <use xlink:href="#ArialMT-30" transform="translate(55.615234 0)"/>
      </g>
     </g>
    </g>
    <g id="ytick_4">
     <g id="line2d_13">
      <path d="M 46.020656 127.709881 
L 598.368156 127.709881 
" clip-path="url(#p2b90c2b977)" style="fill: none; stroke: #b0b0b0; stroke-opacity: 0.3; stroke-width: 0.8; stroke-linecap: square"/>
     </g>
     <g id="line2d_14"/>
     <g id="text_10">
      <!-- 60 -->
      <g transform="translate(33.623156 130.573006) scale(0.08 -0.08)">
       <defs>
        <path id="ArialMT-36" d="M 3184 3459 
L 2625 3416 
Q 2550 3747 2413 3897 
Q 2184 4138 1850 4138 
Q 1581 4138 1378 3988 
Q 1113 3794 959 3422 
Q 806 3050 800 2363 
Q 1003 2672 1297 2822 
Q 1591 2972 1913 2972 
Q 2475 2972 2870 2558 
Q 3266 2144 3266 1488 
Q 3266 1056 3080 686 
Q 2894 316 2569 119 
Q 2244 -78 1831 -78 
Q 1128 -78 684 439 
Q 241 956 241 2144 
Q 241 3472 731 4075 
Q 1159 4600 1884 4600 
Q 2425 4600 2770 4297 
Q 3116 3994 3184 3459 
z
M 888 1484 
Q 888 1194 1011 928 
Q 1134 663 1356 523 
Q 1578 384 1822 384 
Q 2178 384 2434 671 
Q 2691 959 2691 1453 
Q 2691 1928 2437 2201 
Q 2184 2475 1800 2475 
Q 1419 2475 1153 2201 
Q 888 1928 888 1484 
z
" transform="scale(0.015625)"/>
       </defs>
       <use xlink:href="#ArialMT-36"/>
       <use xlink:href="#ArialMT-30" transform="translate(55.615234 0)"/>
      </g>
     </g>
    </g>
    <g id="ytick_5">
     <g id="line2d_15">
      <path d="M 46.020656 98.359125 
L 598.368156 98.359125 
" clip-path="url(#p2b90c2b977)" style="fill: none; stroke: #b0b0b0; stroke-opacity: 0.3; stroke-width: 0.8; stroke-linecap: square"/>
     </g>
     <g id="line2d_16"/>
     <g id="text_11">
      <!-- 80 -->
      <g transform="translate(33.623156 101.22225) scale(0.08 -0.08)">
       <defs>
        <path id="ArialMT-38" d="M 1131 2484 
Q 781 2613 612 2850 
Q 444 3088 444 3419 
Q 444 3919 803 4259 
Q 1163 4600 1759 4600 
Q 2359 4600 2725 4251 
Q 3091 3903 3091 3403 
Q 3091 3084 2923 2848 
Q 2756 2613 2416 2484 
Q 2838 2347 3058 2040 
Q 3278 1734 3278 1309 
Q 3278 722 2862 322 
Q 2447 -78 1769 -78 
Q 1091 -78 675 323 
Q 259 725 259 1325 
Q 259 1772 486 2073 
Q 713 2375 1131 2484 
z
M 1019 3438 
Q 1019 3113 1228 2906 
Q 1438 2700 1772 2700 
Q 2097 2700 2305 2904 
Q 2513 3109 2513 3406 
Q 2513 3716 2298 3927 
Q 2084 4138 1766 4138 
Q 1444 4138 1231 3931 
Q 1019 3725 1019 3438 
z
M 838 1322 
Q 838 1081 952 856 
Q 1066 631 1291 507 
Q 1516 384 1775 384 
Q 2178 384 2440 643 
Q 2703 903 2703 1303 
Q 2703 1709 2433 1975 
Q 2163 2241 1756 2241 
Q 1359 2241 1098 1978 
Q 838 1716 838 1322 
z
" transform="scale(0.015625)"/>
       </defs>
       <use xlink:href="#ArialMT-38"/>
       <use xlink:href="#ArialMT-30" transform="translate(55.615234 0)"/>
      </g>
     </g>
    </g>
    <g id="ytick_6">
     <g id="line2d_17">
      <path d="M 46.020656 69.008368 
L 598.368156 69.008368 
" clip-path="url(#p2b90c2b977)" style="fill: none; stroke: #b0b0b0; stroke-opacity: 0.3; stroke-width: 0.8; stroke-linecap: square"/>
     </g>
     <g id="line2d_18"/>
     <g id="text_12">
      <!-- 100 -->
      <g transform="translate(29.174406 71.871493) scale(0.08 -0.08)">
       <use xlink:href="#ArialMT-31"/>
       <use xlink:href="#ArialMT-30" transform="translate(55.615234 0)"/>
       <use xlink:href="#ArialMT-30" transform="translate(111.230469 0)"/>
      </g>
     </g>
    </g>
    <g id="ytick_7">
     <g id="line2d_19">
      <path d="M 46.020656 39.657612 
L 598.368156 39.657612 
" clip-path="url(#p2b90c2b977)" style="fill: none; stroke: #b0b0b0; stroke-opacity: 0.3; stroke-width: 0.8; stroke-linecap: square"/>
     </g>
     <g id="line2d_20"/>
     <g id="text_13">
      <!-- 120 -->
      <g transform="translate(29.174406 42.520737) scale(0.08 -0.08)">
       <use xlink:href="#ArialMT-31"/>
       <use xlink:href="#ArialMT-32" transform="translate(55.615234 0)"/>
       <use xlink:href="#ArialMT-30" transform="translate(111.230469 0)"/>
      </g>
     </g>
    </g>
    <g id="text_14">
     <!-- Power -->
     <g style="fill: #2c3e50" transform="translate(13.642031 138.387369) rotate(-90) scale(0.09 -0.09)">
      <defs>
       <path id="Arial-BoldMT-50" d="M 466 0 
L 466 4581 
L 1950 4581 
Q 2794 4581 3050 4513 
Q 3444 4409 3709 4064 
Q 3975 3719 3975 3172 
Q 3975 2750 3822 2462 
Q 3669 2175 3433 2011 
Q 3197 1847 2953 1794 
Q 2622 1728 1994 1728 
L 1391 1728 
L 1391 0 
L 466 0 
z
M 1391 3806 
L 1391 2506 
L 1897 2506 
Q 2444 2506 2628 2578 
Q 2813 2650 2917 2803 
Q 3022 2956 3022 3159 
Q 3022 3409 2875 3571 
Q 2728 3734 2503 3775 
Q 2338 3806 1838 3806 
L 1391 3806 
z
" transform="scale(0.015625)"/>
       <path id="Arial-BoldMT-6f" d="M 256 1706 
Q 256 2144 472 2553 
Q 688 2963 1083 3178 
Q 1478 3394 1966 3394 
Q 2719 3394 3200 2905 
Q 3681 2416 3681 1669 
Q 3681 916 3195 420 
Q 2709 -75 1972 -75 
Q 1516 -75 1102 131 
Q 688 338 472 736 
Q 256 1134 256 1706 
z
M 1156 1659 
Q 1156 1166 1390 903 
Q 1625 641 1969 641 
Q 2313 641 2545 903 
Q 2778 1166 2778 1666 
Q 2778 2153 2545 2415 
Q 2313 2678 1969 2678 
Q 1625 2678 1390 2415 
Q 1156 2153 1156 1659 
z
" transform="scale(0.015625)"/>
       <path id="Arial-BoldMT-77" d="M 1078 0 
L 28 3319 
L 881 3319 
L 1503 1144 
L 2075 3319 
L 2922 3319 
L 3475 1144 
L 4109 3319 
L 4975 3319 
L 3909 0 
L 3066 0 
L 2494 2134 
L 1931 0 
L 1078 0 
z
" transform="scale(0.015625)"/>
       <path id="Arial-BoldMT-65" d="M 2381 1056 
L 3256 909 
Q 3088 428 2723 176 
Q 2359 -75 1813 -75 
Q 947 -75 531 491 
Q 203 944 203 1634 
Q 203 2459 634 2926 
Q 1066 3394 1725 3394 
Q 2466 3394 2894 2905 
Q 3322 2416 3303 1406 
L 1103 1406 
Q 1113 1016 1316 798 
Q 1519 581 1822 581 
Q 2028 581 2168 693 
Q 2309 806 2381 1056 
z
M 2431 1944 
Q 2422 2325 2234 2523 
Q 2047 2722 1778 2722 
Q 1491 2722 1303 2513 
Q 1116 2303 1119 1944 
L 2431 1944 
z
" transform="scale(0.015625)"/>
       <path id="Arial-BoldMT-72" d="M 1300 0 
L 422 0 
L 422 3319 
L 1238 3319 
L 1238 2847 
Q 1447 3181 1614 3287 
Q 1781 3394 1994 3394 
Q 2294 3394 2572 3228 
L 2300 2463 
Q 2078 2606 1888 2606 
Q 1703 2606 1575 2504 
Q 1447 2403 1373 2137 
Q 1300 1872 1300 1025 
L 1300 0 
z
" transform="scale(0.015625)"/>
      </defs>
      <use xlink:href="#Arial-BoldMT-50"/>
      <use xlink:href="#Arial-BoldMT-6f" transform="translate(66.699219 0)"/>
      <use xlink:href="#Arial-BoldMT-77" transform="translate(127.783203 0)"/>
      <use xlink:href="#Arial-BoldMT-65" transform="translate(205.566406 0)"/>
      <use xlink:href="#Arial-BoldMT-72" transform="translate(261.181641 0)"/>
     </g>
     <!-- (MW) -->
     <g style="fill: #2c3e50" transform="translate(23.280188 135.875806) rotate(-90) scale(0.09 -0.09)">
      <defs>
       <path id="Arial-BoldMT-28" d="M 1916 -1347 
L 1313 -1347 
Q 834 -625 584 153 
Q 334 931 334 1659 
Q 334 2563 644 3369 
Q 913 4069 1325 4659 
L 1925 4659 
Q 1497 3713 1336 3048 
Q 1175 2384 1175 1641 
Q 1175 1128 1270 590 
Q 1366 53 1531 -431 
Q 1641 -750 1916 -1347 
z
" transform="scale(0.015625)"/>
       <path id="Arial-BoldMT-4d" d="M 453 0 
L 453 4581 
L 1838 4581 
L 2669 1456 
L 3491 4581 
L 4878 4581 
L 4878 0 
L 4019 0 
L 4019 3606 
L 3109 0 
L 2219 0 
L 1313 3606 
L 1313 0 
L 453 0 
z
" transform="scale(0.015625)"/>
       <path id="Arial-BoldMT-57" d="M 1116 0 
L 22 4581 
L 969 4581 
L 1659 1434 
L 2497 4581 
L 3597 4581 
L 4400 1381 
L 5103 4581 
L 6034 4581 
L 4922 0 
L 3941 0 
L 3028 3425 
L 2119 0 
L 1116 0 
z
" transform="scale(0.015625)"/>
       <path id="Arial-BoldMT-29" d="M 216 -1347 
Q 475 -791 581 -494 
Q 688 -197 778 190 
Q 869 578 912 926 
Q 956 1275 956 1641 
Q 956 2384 797 3048 
Q 638 3713 209 4659 
L 806 4659 
Q 1278 3988 1539 3234 
Q 1800 2481 1800 1706 
Q 1800 1053 1594 306 
Q 1359 -531 822 -1347 
L 216 -1347 
z
" transform="scale(0.015625)"/>
      </defs>
      <use xlink:href="#Arial-BoldMT-28"/>
      <use xlink:href="#Arial-BoldMT-4d" transform="translate(33.300781 0)"/>
      <use xlink:href="#Arial-BoldMT-57" transform="translate(116.601562 0)"/>
      <use xlink:href="#Arial-BoldMT-29" transform="translate(210.986328 0)"/>
     </g>
    </g>
   </g>
   <g id="patch_3">
    <path d="M 46.020656 215.76215 
L 46.020656 34.00415 
" style="fill: none; stroke: #2d3748; stroke-linejoin: miter; stroke-linecap: square"/>
   </g>
   <g id="patch_4">
    <path d="M 46.020656 215.76215 
L 598.368156 215.76215 
" style="fill: none; stroke: #2d3748; stroke-linejoin: miter; stroke-linecap: square"/>
   </g>
   <g id="FillBetweenPolyCollection_1">
    <path d="M 46.020656 107.6136 
L 46.020656 215.76215 
L 53.800199 215.76215 
L 61.579741 215.76215 
L 69.359283 215.76215 
L 77.138825 215.76215 
L 84.918368 215.76215 
L 92.69791 215.76215 
L 100.477452 215.76215 
L 108.256994 215.76215 
L 116.036537 215.76215 
L 123.816079 215.76215 
L 131.595621 215.76215 
L 139.375163 215.76215 
L 147.154706 215.76215 
L 154.934248 215.76215 
L 162.71379 215.76215 
L 170.493332 215.76215 
L 178.272875 215.76215 
L 186.052417 215.76215 
L 193.831959 215.76215 
L 201.611501 215.76215 
L 209.391044 215.76215 
L 217.170586 215.76215 
L 224.950128 215.76215 
L 232.72967 215.76215 
L 240.509213 215.76215 
L 248.288755 215.76215 
L 256.068297 215.76215 
L 263.847839 215.76215 
L 271.627382 215.76215 
L 279.406924 215.76215 
L 287.186466 215.76215 
L 294.966008 215.76215 
L 302.745551 215.76215 
L 310.525093 215.76215 
L 318.304635 215.76215 
L 326.084177 215.76215 
L 333.86372 215.76215 
L 341.643262 215.76215 
L 349.422804 215.76215 
L 357.202346 215.76215 
L 364.981889 215.76215 
L 372.761431 215.76215 
L 380.540973 215.76215 
L 388.320515 215.76215 
L 396.100058 215.76215 
L 403.8796 215.76215 
L 411.659142 215.76215 
L 419.438684 215.76215 
L 427.218227 215.76215 
L 434.997769 215.76215 
L 442.777311 215.76215 
L 450.556853 215.76215 
L 458.336396 215.76215 
L 466.115938 215.76215 
L 473.89548 215.76215 
L 481.675022 215.76215 
L 489.454565 215.76215 
L 497.234107 215.76215 
L 505.013649 215.76215 
L 512.793191 215.76215 
L 520.572734 215.76215 
L 528.352276 215.76215 
L 536.131818 215.76215 
L 543.91136 215.76215 
L 551.690903 215.76215 
L 559.470445 215.76215 
L 567.249987 215.76215 
L 575.029529 215.76215 
L 582.809072 215.76215 
L 590.588614 215.76215 
L 598.368156 215.76215 
L 598.368156 176.645303 
L 598.368156 176.645303 
L 590.588614 187.323238 
L 582.809072 201.830353 
L 575.029529 207.612312 
L 567.249987 209.433184 
L 559.470445 204.773885 
L 551.690903 192.058618 
L 543.91136 191.414608 
L 536.131818 175.186001 
L 528.352276 178.051829 
L 520.572734 182.76882 
L 512.793191 176.396378 
L 505.013649 160.97504 
L 497.234107 151.907743 
L 489.454565 148.843505 
L 481.675022 143.638385 
L 473.89548 145.639287 
L 466.115938 133.673259 
L 458.336396 126.723176 
L 450.556853 122.993474 
L 442.777311 114.376498 
L 434.997769 123.400569 
L 427.218227 116.041238 
L 419.438684 111.318702 
L 411.659142 110.760666 
L 403.8796 97.492025 
L 396.100058 82.071541 
L 388.320515 100.732885 
L 380.540973 71.143343 
L 372.761431 69.147095 
L 364.981889 69.303757 
L 357.202346 72.112431 
L 349.422804 86.936348 
L 341.643262 133.921032 
L 333.86372 171.490069 
L 326.084177 191.221194 
L 318.304635 204.283302 
L 310.525093 212.049668 
L 302.745551 215.76215 
L 294.966008 215.76215 
L 287.186466 215.76215 
L 279.406924 215.76215 
L 271.627382 215.76215 
L 263.847839 215.76215 
L 256.068297 213.368506 
L 248.288755 212.797488 
L 240.509213 212.122026 
L 232.72967 211.260157 
L 224.950128 207.975289 
L 217.170586 207.175428 
L 209.391044 205.66984 
L 201.611501 199.472325 
L 193.831959 194.113323 
L 186.052417 195.41926 
L 178.272875 187.885558 
L 170.493332 170.665838 
L 162.71379 154.478486 
L 154.934248 142.599019 
L 147.154706 136.121264 
L 139.375163 134.025557 
L 131.595621 132.963284 
L 123.816079 124.056163 
L 116.036537 111.976415 
L 108.256994 101.475623 
L 100.477452 86.490445 
L 92.69791 77.06015 
L 84.918368 76.590931 
L 77.138825 75.438059 
L 69.359283 70.737379 
L 61.579741 70.460845 
L 53.800199 69.414645 
L 46.020656 107.6136 
z
" clip-path="url(#p2b90c2b977)" style="fill: #4da6ff; fill-opacity: 0.8"/>
   </g>
   <g id="FillBetweenPolyCollection_2">
    <path d="M 46.020656 107.6136 
L 46.020656 107.6136 
L 53.800199 69.414645 
L 61.579741 70.460845 
L 69.359283 70.737379 
L 77.138825 75.438059 
L 84.918368 76.590931 
L 92.69791 77.06015 
L 100.477452 86.490445 
L 108.256994 101.475623 
L 116.036537 111.976415 
L 123.816079 124.056163 
L 131.595621 132.963284 
L 139.375163 134.025557 
L 147.154706 136.121264 
L 154.934248 142.599019 
L 162.71379 154.478486 
L 170.493332 170.665838 
L 178.272875 187.885558 
L 186.052417 195.41926 
L 193.831959 194.113323 
L 201.611501 199.472325 
L 209.391044 205.66984 
L 217.170586 207.175428 
L 224.950128 207.975289 
L 232.72967 211.260157 
L 240.509213 212.122026 
L 248.288755 212.797488 
L 256.068297 213.368506 
L 263.847839 215.76215 
L 271.627382 215.76215 
L 279.406924 215.76215 
L 287.186466 215.76215 
L 294.966008 215.76215 
L 302.745551 215.76215 
L 310.525093 212.049668 
L 318.304635 204.283302 
L 326.084177 191.221194 
L 333.86372 171.490069 
L 341.643262 133.921032 
L 349.422804 86.936348 
L 357.202346 72.112431 
L 364.981889 69.303757 
L 372.761431 69.147095 
L 380.540973 71.143343 
L 388.320515 100.732885 
L 396.100058 82.071541 
L 403.8796 97.492025 
L 411.659142 110.760666 
L 419.438684 111.318702 
L 427.218227 116.041238 
L 434.997769 123.400569 
L 442.777311 114.376498 
L 450.556853 122.993474 
L 458.336396 126.723176 
L 466.115938 133.673259 
L 473.89548 145.639287 
L 481.675022 143.638385 
L 489.454565 148.843505 
L 497.234107 151.907743 
L 505.013649 160.97504 
L 512.793191 176.396378 
L 520.572734 182.76882 
L 528.352276 178.051829 
L 536.131818 175.186001 
L 543.91136 191.414608 
L 551.690903 192.058618 
L 559.470445 204.773885 
L 567.249987 209.433184 
L 575.029529 207.612312 
L 582.809072 201.830353 
L 590.588614 187.323238 
L 598.368156 176.645303 
L 598.368156 176.645303 
L 598.368156 176.645303 
L 590.588614 187.323238 
L 582.809072 196.24186 
L 575.029529 154.268873 
L 567.249987 168.176335 
L 559.470445 163.248845 
L 551.690903 163.475725 
L 543.91136 169.403617 
L 536.131818 165.884691 
L 528.352276 178.051829 
L 520.572734 182.76882 
L 512.793191 176.396378 
L 505.013649 160.97504 
L 497.234107 151.907743 
L 489.454565 148.843505 
L 481.675022 143.638385 
L 473.89548 145.639287 
L 466.115938 133.673259 
L 458.336396 126.723176 
L 450.556853 122.993474 
L 442.777311 114.376498 
L 434.997769 123.400569 
L 427.218227 116.041238 
L 419.438684 111.318702 
L 411.659142 110.760666 
L 403.8796 97.492025 
L 396.100058 78.499694 
L 388.320515 99.546544 
L 380.540973 70.315951 
L 372.761431 63.610195 
L 364.981889 61.935818 
L 357.202346 69.057578 
L 349.422804 85.331651 
L 341.643262 133.921032 
L 333.86372 171.490069 
L 326.084177 191.221194 
L 318.304635 204.283302 
L 310.525093 212.049668 
L 302.745551 215.76215 
L 294.966008 215.76215 
L 287.186466 215.76215 
L 279.406924 215.76215 
L 271.627382 215.76215 
L 263.847839 215.76215 
L 256.068297 213.368506 
L 248.288755 212.797488 
L 240.509213 212.122026 
L 232.72967 211.260157 
L 224.950128 207.975289 
L 217.170586 207.175428 
L 209.391044 199.479203 
L 201.611501 91.31744 
L 193.831959 70.970151 
L 186.052417 54.681768 
L 178.272875 42.659293 
L 170.493332 70.943476 
L 162.71379 127.550545 
L 154.934248 142.599019 
L 147.154706 136.121264 
L 139.375163 134.025557 
L 131.595621 132.963284 
L 123.816079 124.056163 
L 116.036537 111.976415 
L 108.256994 101.475623 
L 100.477452 86.490445 
L 92.69791 77.06015 
L 84.918368 76.590931 
L 77.138825 75.438059 
L 69.359283 70.737379 
L 61.579741 70.460845 
L 53.800199 69.414645 
L 46.020656 107.6136 
z
" clip-path="url(#p2b90c2b977)" style="fill: #ffd166; fill-opacity: 0.8"/>
   </g>
   <g id="legend_1">
    <g id="patch_5">
     <path d="M 182.995031 16.12625 
L 198.995031 16.12625 
L 198.995031 10.52625 
L 182.995031 10.52625 
z
" style="fill: #4da6ff; fill-opacity: 0.8"/>
    </g>
    <g id="text_15">
     <!-- Wind Generation -->
     <g transform="translate(205.395031 16.12625) scale(0.08 -0.08)">
      <defs>
       <path id="ArialMT-57" d="M 1294 0 
L 78 4581 
L 700 4581 
L 1397 1578 
Q 1509 1106 1591 641 
Q 1766 1375 1797 1488 
L 2669 4581 
L 3400 4581 
L 4056 2263 
Q 4303 1400 4413 641 
Q 4500 1075 4641 1638 
L 5359 4581 
L 5969 4581 
L 4713 0 
L 4128 0 
L 3163 3491 
Q 3041 3928 3019 4028 
Q 2947 3713 2884 3491 
L 1913 0 
L 1294 0 
z
" transform="scale(0.015625)"/>
       <path id="ArialMT-69" d="M 425 3934 
L 425 4581 
L 988 4581 
L 988 3934 
L 425 3934 
z
M 425 0 
L 425 3319 
L 988 3319 
L 988 0 
L 425 0 
z
" transform="scale(0.015625)"/>
       <path id="ArialMT-64" d="M 2575 0 
L 2575 419 
Q 2259 -75 1647 -75 
Q 1250 -75 917 144 
Q 584 363 401 755 
Q 219 1147 219 1656 
Q 219 2153 384 2558 
Q 550 2963 881 3178 
Q 1213 3394 1622 3394 
Q 1922 3394 2156 3267 
Q 2391 3141 2538 2938 
L 2538 4581 
L 3097 4581 
L 3097 0 
L 2575 0 
z
M 797 1656 
Q 797 1019 1065 703 
Q 1334 388 1700 388 
Q 2069 388 2326 689 
Q 2584 991 2584 1609 
Q 2584 2291 2321 2609 
Q 2059 2928 1675 2928 
Q 1300 2928 1048 2622 
Q 797 2316 797 1656 
z
" transform="scale(0.015625)"/>
       <path id="ArialMT-47" d="M 2638 1797 
L 2638 2334 
L 4578 2338 
L 4578 638 
Q 4131 281 3656 101 
Q 3181 -78 2681 -78 
Q 2006 -78 1454 211 
Q 903 500 622 1047 
Q 341 1594 341 2269 
Q 341 2938 620 3517 
Q 900 4097 1425 4378 
Q 1950 4659 2634 4659 
Q 3131 4659 3532 4498 
Q 3934 4338 4162 4050 
Q 4391 3763 4509 3300 
L 3963 3150 
Q 3859 3500 3706 3700 
Q 3553 3900 3268 4020 
Q 2984 4141 2638 4141 
Q 2222 4141 1919 4014 
Q 1616 3888 1430 3681 
Q 1244 3475 1141 3228 
Q 966 2803 966 2306 
Q 966 1694 1177 1281 
Q 1388 869 1791 669 
Q 2194 469 2647 469 
Q 3041 469 3416 620 
Q 3791 772 3984 944 
L 3984 1797 
L 2638 1797 
z
" transform="scale(0.015625)"/>
       <path id="ArialMT-65" d="M 2694 1069 
L 3275 997 
Q 3138 488 2766 206 
Q 2394 -75 1816 -75 
Q 1088 -75 661 373 
Q 234 822 234 1631 
Q 234 2469 665 2931 
Q 1097 3394 1784 3394 
Q 2450 3394 2872 2941 
Q 3294 2488 3294 1666 
Q 3294 1616 3291 1516 
L 816 1516 
Q 847 969 1125 678 
Q 1403 388 1819 388 
Q 2128 388 2347 550 
Q 2566 713 2694 1069 
z
M 847 1978 
L 2700 1978 
Q 2663 2397 2488 2606 
Q 2219 2931 1791 2931 
Q 1403 2931 1139 2672 
Q 875 2413 847 1978 
z
" transform="scale(0.015625)"/>
       <path id="ArialMT-72" d="M 416 0 
L 416 3319 
L 922 3319 
L 922 2816 
Q 1116 3169 1280 3281 
Q 1444 3394 1641 3394 
Q 1925 3394 2219 3213 
L 2025 2691 
Q 1819 2813 1613 2813 
Q 1428 2813 1281 2702 
Q 1134 2591 1072 2394 
Q 978 2094 978 1738 
L 978 0 
L 416 0 
z
" transform="scale(0.015625)"/>
       <path id="ArialMT-74" d="M 1650 503 
L 1731 6 
Q 1494 -44 1306 -44 
Q 1000 -44 831 53 
Q 663 150 594 308 
Q 525 466 525 972 
L 525 2881 
L 113 2881 
L 113 3319 
L 525 3319 
L 525 4141 
L 1084 4478 
L 1084 3319 
L 1650 3319 
L 1650 2881 
L 1084 2881 
L 1084 941 
Q 1084 700 1114 631 
Q 1144 563 1211 522 
Q 1278 481 1403 481 
Q 1497 481 1650 503 
z
" transform="scale(0.015625)"/>
       <path id="ArialMT-6f" d="M 213 1659 
Q 213 2581 725 3025 
Q 1153 3394 1769 3394 
Q 2453 3394 2887 2945 
Q 3322 2497 3322 1706 
Q 3322 1066 3130 698 
Q 2938 331 2570 128 
Q 2203 -75 1769 -75 
Q 1072 -75 642 372 
Q 213 819 213 1659 
z
M 791 1659 
Q 791 1022 1069 705 
Q 1347 388 1769 388 
Q 2188 388 2466 706 
Q 2744 1025 2744 1678 
Q 2744 2294 2464 2611 
Q 2184 2928 1769 2928 
Q 1347 2928 1069 2612 
Q 791 2297 791 1659 
z
" transform="scale(0.015625)"/>
      </defs>
      <use xlink:href="#ArialMT-57"/>
      <use xlink:href="#ArialMT-69" transform="translate(94.384766 0)"/>
      <use xlink:href="#ArialMT-6e" transform="translate(116.601562 0)"/>
      <use xlink:href="#ArialMT-64" transform="translate(172.216797 0)"/>
      <use xlink:href="#ArialMT-20" transform="translate(227.832031 0)"/>
      <use xlink:href="#ArialMT-47" transform="translate(255.615234 0)"/>
      <use xlink:href="#ArialMT-65" transform="translate(333.398438 0)"/>
      <use xlink:href="#ArialMT-6e" transform="translate(389.013672 0)"/>
      <use xlink:href="#ArialMT-65" transform="translate(444.628906 0)"/>
      <use xlink:href="#ArialMT-72" transform="translate(500.244141 0)"/>
      <use xlink:href="#ArialMT-61" transform="translate(533.544922 0)"/>
      <use xlink:href="#ArialMT-74" transform="translate(589.160156 0)"/>
      <use xlink:href="#ArialMT-69" transform="translate(616.943359 0)"/>
      <use xlink:href="#ArialMT-6f" transform="translate(639.160156 0)"/>
      <use xlink:href="#ArialMT-6e" transform="translate(694.775391 0)"/>
     </g>
    </g>
    <g id="patch_6">
     <path d="M 281.422531 16.12625 
L 297.422531 16.12625 
L 297.422531 10.52625 
L 281.422531 10.52625 
z
" style="fill: #ffd166; fill-opacity: 0.8"/>
    </g>
    <g id="text_16">
     <!-- Solar Generation -->
     <g transform="translate(303.822531 16.12625) scale(0.08 -0.08)">
      <defs>
       <path id="ArialMT-53" d="M 288 1472 
L 859 1522 
Q 900 1178 1048 958 
Q 1197 738 1509 602 
Q 1822 466 2213 466 
Q 2559 466 2825 569 
Q 3091 672 3220 851 
Q 3350 1031 3350 1244 
Q 3350 1459 3225 1620 
Q 3100 1781 2813 1891 
Q 2628 1963 1997 2114 
Q 1366 2266 1113 2400 
Q 784 2572 623 2826 
Q 463 3081 463 3397 
Q 463 3744 659 4045 
Q 856 4347 1234 4503 
Q 1613 4659 2075 4659 
Q 2584 4659 2973 4495 
Q 3363 4331 3572 4012 
Q 3781 3694 3797 3291 
L 3216 3247 
Q 3169 3681 2898 3903 
Q 2628 4125 2100 4125 
Q 1550 4125 1298 3923 
Q 1047 3722 1047 3438 
Q 1047 3191 1225 3031 
Q 1400 2872 2139 2705 
Q 2878 2538 3153 2413 
Q 3553 2228 3743 1945 
Q 3934 1663 3934 1294 
Q 3934 928 3725 604 
Q 3516 281 3123 101 
Q 2731 -78 2241 -78 
Q 1619 -78 1198 103 
Q 778 284 539 648 
Q 300 1013 288 1472 
z
" transform="scale(0.015625)"/>
       <path id="ArialMT-6c" d="M 409 0 
L 409 4581 
L 972 4581 
L 972 0 
L 409 0 
z
" transform="scale(0.015625)"/>
      </defs>
      <use xlink:href="#ArialMT-53"/>
      <use xlink:href="#ArialMT-6f" transform="translate(66.699219 0)"/>
      <use xlink:href="#ArialMT-6c" transform="translate(122.314453 0)"/>
      <use xlink:href="#ArialMT-61" transform="translate(144.53125 0)"/>
      <use xlink:href="#ArialMT-72" transform="translate(200.146484 0)"/>
      <use xlink:href="#ArialMT-20" transform="translate(233.447266 0)"/>
      <use xlink:href="#ArialMT-47" transform="translate(261.230469 0)"/>
      <use xlink:href="#ArialMT-65" transform="translate(339.013672 0)"/>
      <use xlink:href="#ArialMT-6e" transform="translate(394.628906 0)"/>
      <use xlink:href="#ArialMT-65" transform="translate(450.244141 0)"/>
      <use xlink:href="#ArialMT-72" transform="translate(505.859375 0)"/>
      <use xlink:href="#ArialMT-61" transform="translate(539.160156 0)"/>
      <use xlink:href="#ArialMT-74" transform="translate(594.775391 0)"/>
      <use xlink:href="#ArialMT-69" transform="translate(622.558594 0)"/>
      <use xlink:href="#ArialMT-6f" transform="translate(644.775391 0)"/>
      <use xlink:href="#ArialMT-6e" transform="translate(700.390625 0)"/>
     </g>
    </g>
    <g id="line2d_21">
     <path d="M 380.298781 13.32625 
L 388.298781 13.32625 
L 396.298781 13.32625 
" style="fill: none; stroke-dasharray: 5.55,2.4; stroke-dashoffset: 0; stroke: #2c3e50; stroke-width: 1.5"/>
    </g>
    <g id="text_17">
     <!-- Total Generation -->
     <g transform="translate(402.698781 16.12625) scale(0.08 -0.08)">
      <defs>
       <path id="ArialMT-54" d="M 1659 0 
L 1659 4041 
L 150 4041 
L 150 4581 
L 3781 4581 
L 3781 4041 
L 2266 4041 
L 2266 0 
L 1659 0 
z
" transform="scale(0.015625)"/>
      </defs>
      <use xlink:href="#ArialMT-54"/>
      <use xlink:href="#ArialMT-6f" transform="translate(49.958984 0)"/>
      <use xlink:href="#ArialMT-74" transform="translate(105.574219 0)"/>
      <use xlink:href="#ArialMT-61" transform="translate(133.357422 0)"/>
      <use xlink:href="#ArialMT-6c" transform="translate(188.972656 0)"/>
      <use xlink:href="#ArialMT-20" transform="translate(211.189453 0)"/>
      <use xlink:href="#ArialMT-47" transform="translate(238.972656 0)"/>
      <use xlink:href="#ArialMT-65" transform="translate(316.755859 0)"/>
      <use xlink:href="#ArialMT-6e" transform="translate(372.371094 0)"/>
      <use xlink:href="#ArialMT-65" transform="translate(427.986328 0)"/>
      <use xlink:href="#ArialMT-72" transform="translate(483.601562 0)"/>
      <use xlink:href="#ArialMT-61" transform="translate(516.902344 0)"/>
      <use xlink:href="#ArialMT-74" transform="translate(572.517578 0)"/>
      <use xlink:href="#ArialMT-69" transform="translate(600.300781 0)"/>
      <use xlink:href="#ArialMT-6f" transform="translate(622.517578 0)"/>
      <use xlink:href="#ArialMT-6e" transform="translate(678.132812 0)"/>
     </g>
    </g>
   </g>
   <g id="line2d_22">
    <path d="M 46.020656 107.6136 
L 53.800199 69.414645 
L 61.579741 70.460845 
L 69.359283 70.737379 
L 77.138825 75.438059 
L 84.918368 76.590931 
L 92.69791 77.06015 
L 100.477452 86.490445 
L 108.256994 101.475623 
L 116.036537 111.976415 
L 123.816079 124.056163 
L 131.595621 132.963284 
L 139.375163 134.025557 
L 147.154706 136.121264 
L 154.934248 142.599019 
L 162.71379 127.550545 
L 170.493332 70.943476 
L 178.272875 42.659293 
L 186.052417 54.681768 
L 193.831959 70.970151 
L 201.611501 91.31744 
L 209.391044 199.479203 
L 217.170586 207.175428 
L 224.950128 207.975289 
L 232.72967 211.260157 
L 240.509213 212.122026 
L 248.288755 212.797488 
L 256.068297 213.368506 
L 263.847839 215.76215 
L 271.627382 215.76215 
L 279.406924 215.76215 
L 287.186466 215.76215 
L 294.966008 215.76215 
L 302.745551 215.76215 
L 310.525093 212.049668 
L 318.304635 204.283302 
L 326.084177 191.221194 
L 333.86372 171.490069 
L 341.643262 133.921032 
L 349.422804 85.331651 
L 357.202346 69.057578 
L 364.981889 61.935818 
L 372.761431 63.610195 
L 380.540973 70.315951 
L 388.320515 99.546544 
L 396.100058 78.499694 
L 403.8796 97.492025 
L 411.659142 110.760666 
L 419.438684 111.318702 
L 427.218227 116.041238 
L 434.997769 123.400569 
L 442.777311 114.376498 
L 450.556853 122.993474 
L 458.336396 126.723176 
L 466.115938 133.673259 
L 473.89548 145.639287 
L 481.675022 143.638385 
L 489.454565 148.843505 
L 497.234107 151.907743 
L 505.013649 160.97504 
L 512.793191 176.396378 
L 520.572734 182.76882 
L 528.352276 178.051829 
L 536.131818 165.884691 
L 543.91136 169.403617 
L 551.690903 163.475725 
L 559.470445 163.248845 
L 567.249987 168.176335 
L 575.029529 154.268873 
L 582.809072 196.24186 
L 590.588614 187.323238 
L 598.368156 176.645303 
" clip-path="url(#p2b90c2b977)" style="fill: none; stroke-dasharray: 5.55,2.4; stroke-dashoffset: 0; stroke: #2c3e50; stroke-width: 1.5"/>
   </g>
  </g>
 </g>
 <defs>
  <clipPath id="p2b90c2b977">
   <rect x="46.020656" y="34.00415" width="552.3475" height="181.758"/>
  </clipPath>
 </defs>
</svg>
