<?xml version="1.0" encoding="utf-8" standalone="no"?>
<!DOCTYPE svg PUBLIC "-//W3C//DTD SVG 1.1//EN"
  "http://www.w3.org/Graphics/SVG/1.1/DTD/svg11.dtd">
<svg xmlns:xlink="http://www.w3.org/1999/xlink" width="712.47pt" height="424.583281pt" viewBox="0 0 712.47 424.583281" xmlns="http://www.w3.org/2000/svg" version="1.1">
 <metadata>
  <rdf:RDF xmlns:dc="http://purl.org/dc/elements/1.1/" xmlns:cc="http://creativecommons.org/ns#" xmlns:rdf="http://www.w3.org/1999/02/22-rdf-syntax-ns#">
   <cc:Work>
    <dc:type rdf:resource="http://purl.org/dc/dcmitype/StillImage"/>
    <dc:date>2026-05-11T14:06:01.659822</dc:date>
    <dc:format>image/svg+xml</dc:format>
    <dc:creator>
     <cc:Agent>
      <dc:title>Matplotlib v3.10.8, https://matplotlib.org/</dc:title>
     </cc:Agent>
    </dc:creator>
   </cc:Work>
  </rdf:RDF>
 </metadata>
 <defs>
  <style type="text/css">*{stroke-linejoin: round; stroke-linecap: butt}</style>
 </defs>
 <g id="figure_1">
  <g id="patch_1">
   <path d="M 0 424.583281 
L 712.47 424.583281 
L 712.47 0 
L 0 0 
z
" style="fill: #ffffff"/>
  </g>
  <g id="axes_1">
   <g id="patch_2">
    <path d="M 48.995 384.997656 
L 705.27 384.997656 
L 705.27 33.597656 
L 48.995 33.597656 
z
" style="fill: #ffffff"/>
   </g>
   <g id="matplotlib.axis_1">
    <g id="xtick_1">
     <g id="line2d_1">
      <path d="M 48.995 384.997656 
L 48.995 33.597656 
" clip-path="url(#p3de727a17f)" style="fill: none; stroke-dasharray: 2.96,1.28; stroke-dashoffset: 0; stroke: #b0b0b0; stroke-opacity: 0.3; stroke-width: 0.8"/>
     </g>
     <g id="line2d_2">
      <defs>
       <path id="me4e2409f60" d="M 0 0 
L 0 3.5 
" style="stroke: #000000; stroke-width: 0.8"/>
      </defs>
      <g>
       <use xlink:href="#me4e2409f60" x="48.995" y="384.997656" style="stroke: #000000; stroke-width: 0.8"/>
      </g>
     </g>
     <g id="text_1">
      <!-- 0 -->
      <g transform="translate(45.81375 399.596094) scale(0.1 -0.1)">
       <defs>
        <path id="DejaVuSans-30" d="M 2034 4250 
Q 1547 4250 1301 3770 
Q 1056 3291 1056 2328 
Q 1056 1369 1301 889 
Q 1547 409 2034 409 
Q 2525 409 2770 889 
Q 3016 1369 3016 2328 
Q 3016 3291 2770 3770 
Q 2525 4250 2034 4250 
z
M 2034 4750 
Q 2819 4750 3233 4129 
Q 3647 3509 3647 2328 
Q 3647 1150 3233 529 
Q 2819 -91 2034 -91 
Q 1250 -91 836 529 
Q 422 1150 422 2328 
Q 422 3509 836 4129 
Q 1250 4750 2034 4750 
z
" transform="scale(0.015625)"/>
       </defs>
       <use xlink:href="#DejaVuSans-30"/>
      </g>
     </g>
    </g>
    <g id="xtick_2">
     <g id="line2d_3">
      <path d="M 175.201731 384.997656 
L 175.201731 33.597656 
" clip-path="url(#p3de727a17f)" style="fill: none; stroke-dasharray: 2.96,1.28; stroke-dashoffset: 0; stroke: #b0b0b0; stroke-opacity: 0.3; stroke-width: 0.8"/>
     </g>
     <g id="line2d_4">
      <g>
       <use xlink:href="#me4e2409f60" x="175.201731" y="384.997656" style="stroke: #000000; stroke-width: 0.8"/>
      </g>
     </g>
     <g id="text_2">
      <!-- 10 -->
      <g transform="translate(168.839231 399.596094) scale(0.1 -0.1)">
       <defs>
        <path id="DejaVuSans-31" d="M 794 531 
L 1825 531 
L 1825 4091 
L 703 3866 
L 703 4441 
L 1819 4666 
L 2450 4666 
L 2450 531 
L 3481 531 
L 3481 0 
L 794 0 
L 794 531 
z
" transform="scale(0.015625)"/>
       </defs>
       <use xlink:href="#DejaVuSans-31"/>
       <use xlink:href="#DejaVuSans-30" transform="translate(63.623047 0)"/>
      </g>
     </g>
    </g>
    <g id="xtick_3">
     <g id="line2d_5">
      <path d="M 301.408462 384.997656 
L 301.408462 33.597656 
" clip-path="url(#p3de727a17f)" style="fill: none; stroke-dasharray: 2.96,1.28; stroke-dashoffset: 0; stroke: #b0b0b0; stroke-opacity: 0.3; stroke-width: 0.8"/>
     </g>
     <g id="line2d_6">
      <g>
       <use xlink:href="#me4e2409f60" x="301.408462" y="384.997656" style="stroke: #000000; stroke-width: 0.8"/>
      </g>
     </g>
     <g id="text_3">
      <!-- 20 -->
      <g transform="translate(295.045962 399.596094) scale(0.1 -0.1)">
       <defs>
        <path id="DejaVuSans-32" d="M 1228 531 
L 3431 531 
L 3431 0 
L 469 0 
L 469 531 
Q 828 903 1448 1529 
Q 2069 2156 2228 2338 
Q 2531 2678 2651 2914 
Q 2772 3150 2772 3378 
Q 2772 3750 2511 3984 
Q 2250 4219 1831 4219 
Q 1534 4219 1204 4116 
Q 875 4013 500 3803 
L 500 4441 
Q 881 4594 1212 4672 
Q 1544 4750 1819 4750 
Q 2544 4750 2975 4387 
Q 3406 4025 3406 3419 
Q 3406 3131 3298 2873 
Q 3191 2616 2906 2266 
Q 2828 2175 2409 1742 
Q 1991 1309 1228 531 
z
" transform="scale(0.015625)"/>
       </defs>
       <use xlink:href="#DejaVuSans-32"/>
       <use xlink:href="#DejaVuSans-30" transform="translate(63.623047 0)"/>
      </g>
     </g>
    </g>
    <g id="xtick_4">
     <g id="line2d_7">
      <path d="M 427.615192 384.997656 
L 427.615192 33.597656 
" clip-path="url(#p3de727a17f)" style="fill: none; stroke-dasharray: 2.96,1.28; stroke-dashoffset: 0; stroke: #b0b0b0; stroke-opacity: 0.3; stroke-width: 0.8"/>
     </g>
     <g id="line2d_8">
      <g>
       <use xlink:href="#me4e2409f60" x="427.615192" y="384.997656" style="stroke: #000000; stroke-width: 0.8"/>
      </g>
     </g>
     <g id="text_4">
      <!-- 30 -->
      <g transform="translate(421.252692 399.596094) scale(0.1 -0.1)">
       <defs>
        <path id="DejaVuSans-33" d="M 2597 2516 
Q 3050 2419 3304 2112 
Q 3559 1806 3559 1356 
Q 3559 666 3084 287 
Q 2609 -91 1734 -91 
Q 1441 -91 1130 -33 
Q 819 25 488 141 
L 488 750 
Q 750 597 1062 519 
Q 1375 441 1716 441 
Q 2309 441 2620 675 
Q 2931 909 2931 1356 
Q 2931 1769 2642 2001 
Q 2353 2234 1838 2234 
L 1294 2234 
L 1294 2753 
L 1863 2753 
Q 2328 2753 2575 2939 
Q 2822 3125 2822 3475 
Q 2822 3834 2567 4026 
Q 2313 4219 1838 4219 
Q 1578 4219 1281 4162 
Q 984 4106 628 3988 
L 628 4550 
Q 988 4650 1302 4700 
Q 1616 4750 1894 4750 
Q 2613 4750 3031 4423 
Q 3450 4097 3450 3541 
Q 3450 3153 3228 2886 
Q 3006 2619 2597 2516 
z
" transform="scale(0.015625)"/>
       </defs>
       <use xlink:href="#DejaVuSans-33"/>
       <use xlink:href="#DejaVuSans-30" transform="translate(63.623047 0)"/>
      </g>
     </g>
    </g>
    <g id="xtick_5">
     <g id="line2d_9">
      <path d="M 553.821923 384.997656 
L 553.821923 33.597656 
" clip-path="url(#p3de727a17f)" style="fill: none; stroke-dasharray: 2.96,1.28; stroke-dashoffset: 0; stroke: #b0b0b0; stroke-opacity: 0.3; stroke-width: 0.8"/>
     </g>
     <g id="line2d_10">
      <g>
       <use xlink:href="#me4e2409f60" x="553.821923" y="384.997656" style="stroke: #000000; stroke-width: 0.8"/>
      </g>
     </g>
     <g id="text_5">
      <!-- 40 -->
      <g transform="translate(547.459423 399.596094) scale(0.1 -0.1)">
       <defs>
        <path id="DejaVuSans-34" d="M 2419 4116 
L 825 1625 
L 2419 1625 
L 2419 4116 
z
M 2253 4666 
L 3047 4666 
L 3047 1625 
L 3713 1625 
L 3713 1100 
L 3047 1100 
L 3047 0 
L 2419 0 
L 2419 1100 
L 313 1100 
L 313 1709 
L 2253 4666 
z
" transform="scale(0.015625)"/>
       </defs>
       <use xlink:href="#DejaVuSans-34"/>
       <use xlink:href="#DejaVuSans-30" transform="translate(63.623047 0)"/>
      </g>
     </g>
    </g>
    <g id="xtick_6">
     <g id="line2d_11">
      <path d="M 680.028654 384.997656 
L 680.028654 33.597656 
" clip-path="url(#p3de727a17f)" style="fill: none; stroke-dasharray: 2.96,1.28; stroke-dashoffset: 0; stroke: #b0b0b0; stroke-opacity: 0.3; stroke-width: 0.8"/>
     </g>
     <g id="line2d_12">
      <g>
       <use xlink:href="#me4e2409f60" x="680.028654" y="384.997656" style="stroke: #000000; stroke-width: 0.8"/>
      </g>
     </g>
     <g id="text_6">
      <!-- 50 -->
      <g transform="translate(673.666154 399.596094) scale(0.1 -0.1)">
       <defs>
        <path id="DejaVuSans-35" d="M 691 4666 
L 3169 4666 
L 3169 4134 
L 1269 4134 
L 1269 2991 
Q 1406 3038 1543 3061 
Q 1681 3084 1819 3084 
Q 2600 3084 3056 2656 
Q 3513 2228 3513 1497 
Q 3513 744 3044 326 
Q 2575 -91 1722 -91 
Q 1428 -91 1123 -41 
Q 819 9 494 109 
L 494 744 
Q 775 591 1075 516 
Q 1375 441 1709 441 
Q 2250 441 2565 725 
Q 2881 1009 2881 1497 
Q 2881 1984 2565 2268 
Q 2250 2553 1709 2553 
Q 1456 2553 1204 2497 
Q 953 2441 691 2322 
L 691 4666 
z
" transform="scale(0.015625)"/>
       </defs>
       <use xlink:href="#DejaVuSans-35"/>
       <use xlink:href="#DejaVuSans-30" transform="translate(63.623047 0)"/>
      </g>
     </g>
    </g>
    <g id="text_7">
     <!-- Allocated IT Capacity per Workload Tier (MW) -->
     <g style="fill: #444444" transform="translate(222.799375 414.793906) scale(0.12 -0.12)">
      <defs>
       <path id="DejaVuSans-Bold-41" d="M 3419 850 
L 1538 850 
L 1241 0 
L 31 0 
L 1759 4666 
L 3194 4666 
L 4922 0 
L 3713 0 
L 3419 850 
z
M 1838 1716 
L 3116 1716 
L 2478 3572 
L 1838 1716 
z
" transform="scale(0.015625)"/>
       <path id="DejaVuSans-Bold-6c" d="M 538 4863 
L 1656 4863 
L 1656 0 
L 538 0 
L 538 4863 
z
" transform="scale(0.015625)"/>
       <path id="DejaVuSans-Bold-6f" d="M 2203 2784 
Q 1831 2784 1636 2517 
Q 1441 2250 1441 1747 
Q 1441 1244 1636 976 
Q 1831 709 2203 709 
Q 2569 709 2762 976 
Q 2956 1244 2956 1747 
Q 2956 2250 2762 2517 
Q 2569 2784 2203 2784 
z
M 2203 3584 
Q 3106 3584 3614 3096 
Q 4122 2609 4122 1747 
Q 4122 884 3614 396 
Q 3106 -91 2203 -91 
Q 1297 -91 786 396 
Q 275 884 275 1747 
Q 275 2609 786 3096 
Q 1297 3584 2203 3584 
z
" transform="scale(0.015625)"/>
       <path id="DejaVuSans-Bold-63" d="M 3366 3391 
L 3366 2478 
Q 3138 2634 2908 2709 
Q 2678 2784 2431 2784 
Q 1963 2784 1702 2511 
Q 1441 2238 1441 1747 
Q 1441 1256 1702 982 
Q 1963 709 2431 709 
Q 2694 709 2930 787 
Q 3166 866 3366 1019 
L 3366 103 
Q 3103 6 2833 -42 
Q 2563 -91 2291 -91 
Q 1344 -91 809 395 
Q 275 881 275 1747 
Q 275 2613 809 3098 
Q 1344 3584 2291 3584 
Q 2566 3584 2833 3536 
Q 3100 3488 3366 3391 
z
" transform="scale(0.015625)"/>
       <path id="DejaVuSans-Bold-61" d="M 2106 1575 
Q 1756 1575 1579 1456 
Q 1403 1338 1403 1106 
Q 1403 894 1545 773 
Q 1688 653 1941 653 
Q 2256 653 2472 879 
Q 2688 1106 2688 1447 
L 2688 1575 
L 2106 1575 
z
M 3816 1997 
L 3816 0 
L 2688 0 
L 2688 519 
Q 2463 200 2181 54 
Q 1900 -91 1497 -91 
Q 953 -91 614 226 
Q 275 544 275 1050 
Q 275 1666 698 1953 
Q 1122 2241 2028 2241 
L 2688 2241 
L 2688 2328 
Q 2688 2594 2478 2717 
Q 2269 2841 1825 2841 
Q 1466 2841 1156 2769 
Q 847 2697 581 2553 
L 581 3406 
Q 941 3494 1303 3539 
Q 1666 3584 2028 3584 
Q 2975 3584 3395 3211 
Q 3816 2838 3816 1997 
z
" transform="scale(0.015625)"/>
       <path id="DejaVuSans-Bold-74" d="M 1759 4494 
L 1759 3500 
L 2913 3500 
L 2913 2700 
L 1759 2700 
L 1759 1216 
Q 1759 972 1856 886 
Q 1953 800 2241 800 
L 2816 800 
L 2816 0 
L 1856 0 
Q 1194 0 917 276 
Q 641 553 641 1216 
L 641 2700 
L 84 2700 
L 84 3500 
L 641 3500 
L 641 4494 
L 1759 4494 
z
" transform="scale(0.015625)"/>
       <path id="DejaVuSans-Bold-65" d="M 4031 1759 
L 4031 1441 
L 1416 1441 
Q 1456 1047 1700 850 
Q 1944 653 2381 653 
Q 2734 653 3104 758 
Q 3475 863 3866 1075 
L 3866 213 
Q 3469 63 3072 -14 
Q 2675 -91 2278 -91 
Q 1328 -91 801 392 
Q 275 875 275 1747 
Q 275 2603 792 3093 
Q 1309 3584 2216 3584 
Q 3041 3584 3536 3087 
Q 4031 2591 4031 1759 
z
M 2881 2131 
Q 2881 2450 2695 2645 
Q 2509 2841 2209 2841 
Q 1884 2841 1681 2658 
Q 1478 2475 1428 2131 
L 2881 2131 
z
" transform="scale(0.015625)"/>
       <path id="DejaVuSans-Bold-64" d="M 2919 2988 
L 2919 4863 
L 4044 4863 
L 4044 0 
L 2919 0 
L 2919 506 
Q 2688 197 2409 53 
Q 2131 -91 1766 -91 
Q 1119 -91 703 423 
Q 288 938 288 1747 
Q 288 2556 703 3070 
Q 1119 3584 1766 3584 
Q 2128 3584 2408 3439 
Q 2688 3294 2919 2988 
z
M 2181 722 
Q 2541 722 2730 984 
Q 2919 1247 2919 1747 
Q 2919 2247 2730 2509 
Q 2541 2772 2181 2772 
Q 1825 2772 1636 2509 
Q 1447 2247 1447 1747 
Q 1447 1247 1636 984 
Q 1825 722 2181 722 
z
" transform="scale(0.015625)"/>
       <path id="DejaVuSans-Bold-20" transform="scale(0.015625)"/>
       <path id="DejaVuSans-Bold-49" d="M 588 4666 
L 1791 4666 
L 1791 0 
L 588 0 
L 588 4666 
z
" transform="scale(0.015625)"/>
       <path id="DejaVuSans-Bold-54" d="M 31 4666 
L 4331 4666 
L 4331 3756 
L 2784 3756 
L 2784 0 
L 1581 0 
L 1581 3756 
L 31 3756 
L 31 4666 
z
" transform="scale(0.015625)"/>
       <path id="DejaVuSans-Bold-43" d="M 4288 256 
Q 3956 84 3597 -3 
Q 3238 -91 2847 -91 
Q 1681 -91 1000 561 
Q 319 1213 319 2328 
Q 319 3447 1000 4098 
Q 1681 4750 2847 4750 
Q 3238 4750 3597 4662 
Q 3956 4575 4288 4403 
L 4288 3438 
Q 3953 3666 3628 3772 
Q 3303 3878 2944 3878 
Q 2300 3878 1931 3465 
Q 1563 3053 1563 2328 
Q 1563 1606 1931 1193 
Q 2300 781 2944 781 
Q 3303 781 3628 887 
Q 3953 994 4288 1222 
L 4288 256 
z
" transform="scale(0.015625)"/>
       <path id="DejaVuSans-Bold-70" d="M 1656 506 
L 1656 -1331 
L 538 -1331 
L 538 3500 
L 1656 3500 
L 1656 2988 
Q 1888 3294 2169 3439 
Q 2450 3584 2816 3584 
Q 3463 3584 3878 3070 
Q 4294 2556 4294 1747 
Q 4294 938 3878 423 
Q 3463 -91 2816 -91 
Q 2450 -91 2169 54 
Q 1888 200 1656 506 
z
M 2400 2772 
Q 2041 2772 1848 2508 
Q 1656 2244 1656 1747 
Q 1656 1250 1848 986 
Q 2041 722 2400 722 
Q 2759 722 2948 984 
Q 3138 1247 3138 1747 
Q 3138 2247 2948 2509 
Q 2759 2772 2400 2772 
z
" transform="scale(0.015625)"/>
       <path id="DejaVuSans-Bold-69" d="M 538 3500 
L 1656 3500 
L 1656 0 
L 538 0 
L 538 3500 
z
M 538 4863 
L 1656 4863 
L 1656 3950 
L 538 3950 
L 538 4863 
z
" transform="scale(0.015625)"/>
       <path id="DejaVuSans-Bold-79" d="M 78 3500 
L 1197 3500 
L 2138 1125 
L 2938 3500 
L 4056 3500 
L 2584 -331 
Q 2363 -916 2067 -1148 
Q 1772 -1381 1288 -1381 
L 641 -1381 
L 641 -647 
L 991 -647 
Q 1275 -647 1404 -556 
Q 1534 -466 1606 -231 
L 1638 -134 
L 78 3500 
z
" transform="scale(0.015625)"/>
       <path id="DejaVuSans-Bold-72" d="M 3138 2547 
Q 2991 2616 2845 2648 
Q 2700 2681 2553 2681 
Q 2122 2681 1889 2404 
Q 1656 2128 1656 1613 
L 1656 0 
L 538 0 
L 538 3500 
L 1656 3500 
L 1656 2925 
Q 1872 3269 2151 3426 
Q 2431 3584 2822 3584 
Q 2878 3584 2943 3579 
Q 3009 3575 3134 3559 
L 3138 2547 
z
" transform="scale(0.015625)"/>
       <path id="DejaVuSans-Bold-57" d="M 191 4666 
L 1344 4666 
L 2150 1275 
L 2950 4666 
L 4109 4666 
L 4909 1275 
L 5716 4666 
L 6859 4666 
L 5759 0 
L 4372 0 
L 3525 3547 
L 2688 0 
L 1300 0 
L 191 4666 
z
" transform="scale(0.015625)"/>
       <path id="DejaVuSans-Bold-6b" d="M 538 4863 
L 1656 4863 
L 1656 2216 
L 2944 3500 
L 4244 3500 
L 2534 1894 
L 4378 0 
L 3022 0 
L 1656 1459 
L 1656 0 
L 538 0 
L 538 4863 
z
" transform="scale(0.015625)"/>
       <path id="DejaVuSans-Bold-28" d="M 2413 -844 
L 1484 -844 
Q 1006 -72 778 623 
Q 550 1319 550 2003 
Q 550 2688 779 3389 
Q 1009 4091 1484 4856 
L 2413 4856 
Q 2013 4116 1813 3408 
Q 1613 2700 1613 2009 
Q 1613 1319 1811 609 
Q 2009 -100 2413 -844 
z
" transform="scale(0.015625)"/>
       <path id="DejaVuSans-Bold-4d" d="M 588 4666 
L 2119 4666 
L 3181 2169 
L 4250 4666 
L 5778 4666 
L 5778 0 
L 4641 0 
L 4641 3413 
L 3566 897 
L 2803 897 
L 1728 3413 
L 1728 0 
L 588 0 
L 588 4666 
z
" transform="scale(0.015625)"/>
       <path id="DejaVuSans-Bold-29" d="M 513 -844 
Q 913 -100 1113 609 
Q 1313 1319 1313 2009 
Q 1313 2700 1113 3408 
Q 913 4116 513 4856 
L 1441 4856 
Q 1916 4091 2145 3389 
Q 2375 2688 2375 2003 
Q 2375 1319 2147 623 
Q 1919 -72 1441 -844 
L 513 -844 
z
" transform="scale(0.015625)"/>
      </defs>
      <use xlink:href="#DejaVuSans-Bold-41"/>
      <use xlink:href="#DejaVuSans-Bold-6c" transform="translate(77.392578 0)"/>
      <use xlink:href="#DejaVuSans-Bold-6c" transform="translate(111.669922 0)"/>
      <use xlink:href="#DejaVuSans-Bold-6f" transform="translate(145.947266 0)"/>
      <use xlink:href="#DejaVuSans-Bold-63" transform="translate(214.648438 0)"/>
      <use xlink:href="#DejaVuSans-Bold-61" transform="translate(273.925781 0)"/>
      <use xlink:href="#DejaVuSans-Bold-74" transform="translate(341.40625 0)"/>
      <use xlink:href="#DejaVuSans-Bold-65" transform="translate(389.208984 0)"/>
      <use xlink:href="#DejaVuSans-Bold-64" transform="translate(457.03125 0)"/>
      <use xlink:href="#DejaVuSans-Bold-20" transform="translate(528.613281 0)"/>
      <use xlink:href="#DejaVuSans-Bold-49" transform="translate(563.427734 0)"/>
      <use xlink:href="#DejaVuSans-Bold-54" transform="translate(600.634766 0)"/>
      <use xlink:href="#DejaVuSans-Bold-20" transform="translate(668.847656 0)"/>
      <use xlink:href="#DejaVuSans-Bold-43" transform="translate(703.662109 0)"/>
      <use xlink:href="#DejaVuSans-Bold-61" transform="translate(777.050781 0)"/>
      <use xlink:href="#DejaVuSans-Bold-70" transform="translate(844.53125 0)"/>
      <use xlink:href="#DejaVuSans-Bold-61" transform="translate(916.113281 0)"/>
      <use xlink:href="#DejaVuSans-Bold-63" transform="translate(983.59375 0)"/>
      <use xlink:href="#DejaVuSans-Bold-69" transform="translate(1042.871094 0)"/>
      <use xlink:href="#DejaVuSans-Bold-74" transform="translate(1077.148438 0)"/>
      <use xlink:href="#DejaVuSans-Bold-79" transform="translate(1124.951172 0)"/>
      <use xlink:href="#DejaVuSans-Bold-20" transform="translate(1190.136719 0)"/>
      <use xlink:href="#DejaVuSans-Bold-70" transform="translate(1224.951172 0)"/>
      <use xlink:href="#DejaVuSans-Bold-65" transform="translate(1296.533203 0)"/>
      <use xlink:href="#DejaVuSans-Bold-72" transform="translate(1364.355469 0)"/>
      <use xlink:href="#DejaVuSans-Bold-20" transform="translate(1413.671875 0)"/>
      <use xlink:href="#DejaVuSans-Bold-57" transform="translate(1448.486328 0)"/>
      <use xlink:href="#DejaVuSans-Bold-6f" transform="translate(1555.164062 0)"/>
      <use xlink:href="#DejaVuSans-Bold-72" transform="translate(1623.865234 0)"/>
      <use xlink:href="#DejaVuSans-Bold-6b" transform="translate(1673.181641 0)"/>
      <use xlink:href="#DejaVuSans-Bold-6c" transform="translate(1739.685547 0)"/>
      <use xlink:href="#DejaVuSans-Bold-6f" transform="translate(1773.962891 0)"/>
      <use xlink:href="#DejaVuSans-Bold-61" transform="translate(1842.664062 0)"/>
      <use xlink:href="#DejaVuSans-Bold-64" transform="translate(1910.144531 0)"/>
      <use xlink:href="#DejaVuSans-Bold-20" transform="translate(1981.726562 0)"/>
      <use xlink:href="#DejaVuSans-Bold-54" transform="translate(2016.541016 0)"/>
      <use xlink:href="#DejaVuSans-Bold-69" transform="translate(2084.753906 0)"/>
      <use xlink:href="#DejaVuSans-Bold-65" transform="translate(2119.03125 0)"/>
      <use xlink:href="#DejaVuSans-Bold-72" transform="translate(2186.853516 0)"/>
      <use xlink:href="#DejaVuSans-Bold-20" transform="translate(2236.169922 0)"/>
      <use xlink:href="#DejaVuSans-Bold-28" transform="translate(2270.984375 0)"/>
      <use xlink:href="#DejaVuSans-Bold-4d" transform="translate(2316.6875 0)"/>
      <use xlink:href="#DejaVuSans-Bold-57" transform="translate(2416.199219 0)"/>
      <use xlink:href="#DejaVuSans-Bold-29" transform="translate(2526.501953 0)"/>
     </g>
    </g>
   </g>
   <g id="matplotlib.axis_2">
    <g id="ytick_1">
     <g id="line2d_13">
      <path d="M 48.995 355.714323 
L 705.27 355.714323 
" clip-path="url(#p3de727a17f)" style="fill: none; stroke-dasharray: 2.96,1.28; stroke-dashoffset: 0; stroke: #b0b0b0; stroke-opacity: 0.3; stroke-width: 0.8"/>
     </g>
     <g id="line2d_14">
      <defs>
       <path id="mbbb706e7ab" d="M 0 0 
L -3.5 0 
" style="stroke: #000000; stroke-width: 0.8"/>
      </defs>
      <g>
       <use xlink:href="#mbbb706e7ab" x="48.995" y="355.714323" style="stroke: #000000; stroke-width: 0.8"/>
      </g>
     </g>
     <g id="text_8">
      <!-- 50 -->
      <g transform="translate(29.27 359.513542) scale(0.1 -0.1)">
       <use xlink:href="#DejaVuSans-35"/>
       <use xlink:href="#DejaVuSans-30" transform="translate(63.623047 0)"/>
      </g>
     </g>
    </g>
    <g id="ytick_2">
     <g id="line2d_15">
      <path d="M 48.995 297.147656 
L 705.27 297.147656 
" clip-path="url(#p3de727a17f)" style="fill: none; stroke-dasharray: 2.96,1.28; stroke-dashoffset: 0; stroke: #b0b0b0; stroke-opacity: 0.3; stroke-width: 0.8"/>
     </g>
     <g id="line2d_16">
      <g>
       <use xlink:href="#mbbb706e7ab" x="48.995" y="297.147656" style="stroke: #000000; stroke-width: 0.8"/>
      </g>
     </g>
     <g id="text_9">
      <!-- 60 -->
      <g transform="translate(29.27 300.946875) scale(0.1 -0.1)">
       <defs>
        <path id="DejaVuSans-36" d="M 2113 2584 
Q 1688 2584 1439 2293 
Q 1191 2003 1191 1497 
Q 1191 994 1439 701 
Q 1688 409 2113 409 
Q 2538 409 2786 701 
Q 3034 994 3034 1497 
Q 3034 2003 2786 2293 
Q 2538 2584 2113 2584 
z
M 3366 4563 
L 3366 3988 
Q 3128 4100 2886 4159 
Q 2644 4219 2406 4219 
Q 1781 4219 1451 3797 
Q 1122 3375 1075 2522 
Q 1259 2794 1537 2939 
Q 1816 3084 2150 3084 
Q 2853 3084 3261 2657 
Q 3669 2231 3669 1497 
Q 3669 778 3244 343 
Q 2819 -91 2113 -91 
Q 1303 -91 875 529 
Q 447 1150 447 2328 
Q 447 3434 972 4092 
Q 1497 4750 2381 4750 
Q 2619 4750 2861 4703 
Q 3103 4656 3366 4563 
z
" transform="scale(0.015625)"/>
       </defs>
       <use xlink:href="#DejaVuSans-36"/>
       <use xlink:href="#DejaVuSans-30" transform="translate(63.623047 0)"/>
      </g>
     </g>
    </g>
    <g id="ytick_3">
     <g id="line2d_17">
      <path d="M 48.995 238.58099 
L 705.27 238.58099 
" clip-path="url(#p3de727a17f)" style="fill: none; stroke-dasharray: 2.96,1.28; stroke-dashoffset: 0; stroke: #b0b0b0; stroke-opacity: 0.3; stroke-width: 0.8"/>
     </g>
     <g id="line2d_18">
      <g>
       <use xlink:href="#mbbb706e7ab" x="48.995" y="238.58099" style="stroke: #000000; stroke-width: 0.8"/>
      </g>
     </g>
     <g id="text_10">
      <!-- 70 -->
      <g transform="translate(29.27 242.380208) scale(0.1 -0.1)">
       <defs>
        <path id="DejaVuSans-37" d="M 525 4666 
L 3525 4666 
L 3525 4397 
L 1831 0 
L 1172 0 
L 2766 4134 
L 525 4134 
L 525 4666 
z
" transform="scale(0.015625)"/>
       </defs>
       <use xlink:href="#DejaVuSans-37"/>
       <use xlink:href="#DejaVuSans-30" transform="translate(63.623047 0)"/>
      </g>
     </g>
    </g>
    <g id="ytick_4">
     <g id="line2d_19">
      <path d="M 48.995 180.014323 
L 705.27 180.014323 
" clip-path="url(#p3de727a17f)" style="fill: none; stroke-dasharray: 2.96,1.28; stroke-dashoffset: 0; stroke: #b0b0b0; stroke-opacity: 0.3; stroke-width: 0.8"/>
     </g>
     <g id="line2d_20">
      <g>
       <use xlink:href="#mbbb706e7ab" x="48.995" y="180.014323" style="stroke: #000000; stroke-width: 0.8"/>
      </g>
     </g>
     <g id="text_11">
      <!-- 80 -->
      <g transform="translate(29.27 183.813542) scale(0.1 -0.1)">
       <defs>
        <path id="DejaVuSans-38" d="M 2034 2216 
Q 1584 2216 1326 1975 
Q 1069 1734 1069 1313 
Q 1069 891 1326 650 
Q 1584 409 2034 409 
Q 2484 409 2743 651 
Q 3003 894 3003 1313 
Q 3003 1734 2745 1975 
Q 2488 2216 2034 2216 
z
M 1403 2484 
Q 997 2584 770 2862 
Q 544 3141 544 3541 
Q 544 4100 942 4425 
Q 1341 4750 2034 4750 
Q 2731 4750 3128 4425 
Q 3525 4100 3525 3541 
Q 3525 3141 3298 2862 
Q 3072 2584 2669 2484 
Q 3125 2378 3379 2068 
Q 3634 1759 3634 1313 
Q 3634 634 3220 271 
Q 2806 -91 2034 -91 
Q 1263 -91 848 271 
Q 434 634 434 1313 
Q 434 1759 690 2068 
Q 947 2378 1403 2484 
z
M 1172 3481 
Q 1172 3119 1398 2916 
Q 1625 2713 2034 2713 
Q 2441 2713 2670 2916 
Q 2900 3119 2900 3481 
Q 2900 3844 2670 4047 
Q 2441 4250 2034 4250 
Q 1625 4250 1398 4047 
Q 1172 3844 1172 3481 
z
" transform="scale(0.015625)"/>
       </defs>
       <use xlink:href="#DejaVuSans-38"/>
       <use xlink:href="#DejaVuSans-30" transform="translate(63.623047 0)"/>
      </g>
     </g>
    </g>
    <g id="ytick_5">
     <g id="line2d_21">
      <path d="M 48.995 121.447656 
L 705.27 121.447656 
" clip-path="url(#p3de727a17f)" style="fill: none; stroke-dasharray: 2.96,1.28; stroke-dashoffset: 0; stroke: #b0b0b0; stroke-opacity: 0.3; stroke-width: 0.8"/>
     </g>
     <g id="line2d_22">
      <g>
       <use xlink:href="#mbbb706e7ab" x="48.995" y="121.447656" style="stroke: #000000; stroke-width: 0.8"/>
      </g>
     </g>
     <g id="text_12">
      <!-- 90 -->
      <g transform="translate(29.27 125.246875) scale(0.1 -0.1)">
       <defs>
        <path id="DejaVuSans-39" d="M 703 97 
L 703 672 
Q 941 559 1184 500 
Q 1428 441 1663 441 
Q 2288 441 2617 861 
Q 2947 1281 2994 2138 
Q 2813 1869 2534 1725 
Q 2256 1581 1919 1581 
Q 1219 1581 811 2004 
Q 403 2428 403 3163 
Q 403 3881 828 4315 
Q 1253 4750 1959 4750 
Q 2769 4750 3195 4129 
Q 3622 3509 3622 2328 
Q 3622 1225 3098 567 
Q 2575 -91 1691 -91 
Q 1453 -91 1209 -44 
Q 966 3 703 97 
z
M 1959 2075 
Q 2384 2075 2632 2365 
Q 2881 2656 2881 3163 
Q 2881 3666 2632 3958 
Q 2384 4250 1959 4250 
Q 1534 4250 1286 3958 
Q 1038 3666 1038 3163 
Q 1038 2656 1286 2365 
Q 1534 2075 1959 2075 
z
" transform="scale(0.015625)"/>
       </defs>
       <use xlink:href="#DejaVuSans-39"/>
       <use xlink:href="#DejaVuSans-30" transform="translate(63.623047 0)"/>
      </g>
     </g>
    </g>
    <g id="ytick_6">
     <g id="line2d_23">
      <path d="M 48.995 62.88099 
L 705.27 62.88099 
" clip-path="url(#p3de727a17f)" style="fill: none; stroke-dasharray: 2.96,1.28; stroke-dashoffset: 0; stroke: #b0b0b0; stroke-opacity: 0.3; stroke-width: 0.8"/>
     </g>
     <g id="line2d_24">
      <g>
       <use xlink:href="#mbbb706e7ab" x="48.995" y="62.88099" style="stroke: #000000; stroke-width: 0.8"/>
      </g>
     </g>
     <g id="text_13">
      <!-- 100 -->
      <g transform="translate(22.9075 66.680208) scale(0.1 -0.1)">
       <use xlink:href="#DejaVuSans-31"/>
       <use xlink:href="#DejaVuSans-30" transform="translate(63.623047 0)"/>
       <use xlink:href="#DejaVuSans-30" transform="translate(127.246094 0)"/>
      </g>
     </g>
    </g>
    <g id="text_14">
     <!-- Achieved SLA Reliability (%) -->
     <g style="fill: #444444" transform="translate(16.318125 304.818594) rotate(-90) scale(0.12 -0.12)">
      <defs>
       <path id="DejaVuSans-Bold-68" d="M 4056 2131 
L 4056 0 
L 2931 0 
L 2931 347 
L 2931 1625 
Q 2931 2084 2911 2256 
Q 2891 2428 2841 2509 
Q 2775 2619 2662 2680 
Q 2550 2741 2406 2741 
Q 2056 2741 1856 2470 
Q 1656 2200 1656 1722 
L 1656 0 
L 538 0 
L 538 4863 
L 1656 4863 
L 1656 2988 
Q 1909 3294 2193 3439 
Q 2478 3584 2822 3584 
Q 3428 3584 3742 3212 
Q 4056 2841 4056 2131 
z
" transform="scale(0.015625)"/>
       <path id="DejaVuSans-Bold-76" d="M 97 3500 
L 1216 3500 
L 2088 1081 
L 2956 3500 
L 4078 3500 
L 2700 0 
L 1472 0 
L 97 3500 
z
" transform="scale(0.015625)"/>
       <path id="DejaVuSans-Bold-53" d="M 3834 4519 
L 3834 3531 
Q 3450 3703 3084 3790 
Q 2719 3878 2394 3878 
Q 1963 3878 1756 3759 
Q 1550 3641 1550 3391 
Q 1550 3203 1689 3098 
Q 1828 2994 2194 2919 
L 2706 2816 
Q 3484 2659 3812 2340 
Q 4141 2022 4141 1434 
Q 4141 663 3683 286 
Q 3225 -91 2284 -91 
Q 1841 -91 1394 -6 
Q 947 78 500 244 
L 500 1259 
Q 947 1022 1364 901 
Q 1781 781 2169 781 
Q 2563 781 2772 912 
Q 2981 1044 2981 1288 
Q 2981 1506 2839 1625 
Q 2697 1744 2272 1838 
L 1806 1941 
Q 1106 2091 782 2419 
Q 459 2747 459 3303 
Q 459 4000 909 4375 
Q 1359 4750 2203 4750 
Q 2588 4750 2994 4692 
Q 3400 4634 3834 4519 
z
" transform="scale(0.015625)"/>
       <path id="DejaVuSans-Bold-4c" d="M 588 4666 
L 1791 4666 
L 1791 909 
L 3903 909 
L 3903 0 
L 588 0 
L 588 4666 
z
" transform="scale(0.015625)"/>
       <path id="DejaVuSans-Bold-52" d="M 2297 2597 
Q 2675 2597 2839 2737 
Q 3003 2878 3003 3200 
Q 3003 3519 2839 3656 
Q 2675 3794 2297 3794 
L 1791 3794 
L 1791 2597 
L 2297 2597 
z
M 1791 1766 
L 1791 0 
L 588 0 
L 588 4666 
L 2425 4666 
Q 3347 4666 3776 4356 
Q 4206 4047 4206 3378 
Q 4206 2916 3982 2619 
Q 3759 2322 3309 2181 
Q 3556 2125 3751 1926 
Q 3947 1728 4147 1325 
L 4800 0 
L 3519 0 
L 2950 1159 
Q 2778 1509 2601 1637 
Q 2425 1766 2131 1766 
L 1791 1766 
z
" transform="scale(0.015625)"/>
       <path id="DejaVuSans-Bold-62" d="M 2400 722 
Q 2759 722 2948 984 
Q 3138 1247 3138 1747 
Q 3138 2247 2948 2509 
Q 2759 2772 2400 2772 
Q 2041 2772 1848 2508 
Q 1656 2244 1656 1747 
Q 1656 1250 1848 986 
Q 2041 722 2400 722 
z
M 1656 2988 
Q 1888 3294 2169 3439 
Q 2450 3584 2816 3584 
Q 3463 3584 3878 3070 
Q 4294 2556 4294 1747 
Q 4294 938 3878 423 
Q 3463 -91 2816 -91 
Q 2450 -91 2169 54 
Q 1888 200 1656 506 
L 1656 0 
L 538 0 
L 538 4863 
L 1656 4863 
L 1656 2988 
z
" transform="scale(0.015625)"/>
       <path id="DejaVuSans-Bold-25" d="M 4959 1925 
Q 4738 1925 4616 1733 
Q 4494 1541 4494 1184 
Q 4494 825 4614 633 
Q 4734 441 4959 441 
Q 5184 441 5303 633 
Q 5422 825 5422 1184 
Q 5422 1541 5301 1733 
Q 5181 1925 4959 1925 
z
M 4959 2450 
Q 5541 2450 5875 2112 
Q 6209 1775 6209 1184 
Q 6209 594 5875 251 
Q 5541 -91 4959 -91 
Q 4378 -91 4042 251 
Q 3706 594 3706 1184 
Q 3706 1772 4042 2111 
Q 4378 2450 4959 2450 
z
M 2094 -91 
L 1403 -91 
L 4319 4750 
L 5013 4750 
L 2094 -91 
z
M 1453 4750 
Q 2034 4750 2367 4411 
Q 2700 4072 2700 3481 
Q 2700 2891 2367 2550 
Q 2034 2209 1453 2209 
Q 872 2209 539 2550 
Q 206 2891 206 3481 
Q 206 4072 539 4411 
Q 872 4750 1453 4750 
z
M 1453 4225 
Q 1228 4225 1106 4031 
Q 984 3838 984 3481 
Q 984 3122 1106 2926 
Q 1228 2731 1453 2731 
Q 1678 2731 1798 2926 
Q 1919 3122 1919 3481 
Q 1919 3838 1797 4031 
Q 1675 4225 1453 4225 
z
" transform="scale(0.015625)"/>
      </defs>
      <use xlink:href="#DejaVuSans-Bold-41"/>
      <use xlink:href="#DejaVuSans-Bold-63" transform="translate(77.392578 0)"/>
      <use xlink:href="#DejaVuSans-Bold-68" transform="translate(136.669922 0)"/>
      <use xlink:href="#DejaVuSans-Bold-69" transform="translate(207.861328 0)"/>
      <use xlink:href="#DejaVuSans-Bold-65" transform="translate(242.138672 0)"/>
      <use xlink:href="#DejaVuSans-Bold-76" transform="translate(309.960938 0)"/>
      <use xlink:href="#DejaVuSans-Bold-65" transform="translate(375.146484 0)"/>
      <use xlink:href="#DejaVuSans-Bold-64" transform="translate(442.96875 0)"/>
      <use xlink:href="#DejaVuSans-Bold-20" transform="translate(514.550781 0)"/>
      <use xlink:href="#DejaVuSans-Bold-53" transform="translate(549.365234 0)"/>
      <use xlink:href="#DejaVuSans-Bold-4c" transform="translate(621.386719 0)"/>
      <use xlink:href="#DejaVuSans-Bold-41" transform="translate(685.107422 0)"/>
      <use xlink:href="#DejaVuSans-Bold-20" transform="translate(762.5 0)"/>
      <use xlink:href="#DejaVuSans-Bold-52" transform="translate(797.314453 0)"/>
      <use xlink:href="#DejaVuSans-Bold-65" transform="translate(874.316406 0)"/>
      <use xlink:href="#DejaVuSans-Bold-6c" transform="translate(942.138672 0)"/>
      <use xlink:href="#DejaVuSans-Bold-69" transform="translate(976.416016 0)"/>
      <use xlink:href="#DejaVuSans-Bold-61" transform="translate(1010.693359 0)"/>
      <use xlink:href="#DejaVuSans-Bold-62" transform="translate(1078.173828 0)"/>
      <use xlink:href="#DejaVuSans-Bold-69" transform="translate(1149.755859 0)"/>
      <use xlink:href="#DejaVuSans-Bold-6c" transform="translate(1184.033203 0)"/>
      <use xlink:href="#DejaVuSans-Bold-69" transform="translate(1218.310547 0)"/>
      <use xlink:href="#DejaVuSans-Bold-74" transform="translate(1252.587891 0)"/>
      <use xlink:href="#DejaVuSans-Bold-79" transform="translate(1300.390625 0)"/>
      <use xlink:href="#DejaVuSans-Bold-20" transform="translate(1365.576172 0)"/>
      <use xlink:href="#DejaVuSans-Bold-28" transform="translate(1400.390625 0)"/>
      <use xlink:href="#DejaVuSans-Bold-25" transform="translate(1446.09375 0)"/>
      <use xlink:href="#DejaVuSans-Bold-29" transform="translate(1546.289062 0)"/>
     </g>
    </g>
   </g>
   <g id="line2d_25">
    <path d="M 48.995 62.88099 
L 61.615673 62.88099 
L 74.236346 62.88099 
L 86.857019 62.88099 
L 99.477692 62.88099 
L 112.098365 62.88099 
L 124.719038 62.88099 
L 137.339712 62.88099 
L 149.960385 63.282131 
L 162.581058 63.549559 
L 175.201731 63.883843 
L 187.822404 64.61927 
L 200.443077 66.55812 
L 213.06375 68.96497 
L 225.684423 72.374673 
L 238.305096 75.851233 
L 250.925769 79.728935 
L 263.546442 84.007778 
L 276.167115 88.353478 
L 288.787788 94.103174 
L 301.408462 99.251157 
L 314.029135 119.174521 
L 326.649808 125.592786 
L 339.270481 140.568737 
L 351.891154 149.794993 
L 364.511827 156.948684 
L 377.1325 168.448075 
L 389.753173 175.534909 
L 402.373846 185.162306 
L 414.994519 195.123988 
L 427.615192 204.283387 
L 440.235865 207.225092 
L 452.856538 218.724483 
L 465.477212 229.020449 
L 478.097885 235.572428 
L 490.718558 239.851271 
L 503.339231 248.208387 
L 515.959904 257.635213 
L 528.580577 255.96379 
L 541.20125 274.416302 
L 553.821923 279.430571 
L 566.442596 284.912839 
L 579.063269 290.261393 
L 591.683942 296.746515 
L 604.304615 302.563067 
L 616.925288 307.577337 
L 629.545962 312.457892 
L 642.166635 317.672732 
L 654.787308 322.753859 
L 667.407981 324.625853 
L 680.028654 331.980114 
" clip-path="url(#p3de727a17f)" style="fill: none; stroke: #1f77b4; stroke-width: 2.5; stroke-linecap: square"/>
    <defs>
     <path id="mad04029d9a" d="M 0 2.5 
C 0.663008 2.5 1.29895 2.236584 1.767767 1.767767 
C 2.236584 1.29895 2.5 0.663008 2.5 0 
C 2.5 -0.663008 2.236584 -1.29895 1.767767 -1.767767 
C 1.29895 -2.236584 0.663008 -2.5 0 -2.5 
C -0.663008 -2.5 -1.29895 -2.236584 -1.767767 -1.767767 
C -2.236584 -1.29895 -2.5 -0.663008 -2.5 0 
C -2.5 0.663008 -2.236584 1.29895 -1.767767 1.767767 
C -1.29895 2.236584 -0.663008 2.5 0 2.5 
z
" style="stroke: #1f77b4"/>
    </defs>
    <g clip-path="url(#p3de727a17f)">
     <use xlink:href="#mad04029d9a" x="48.995" y="62.88099" style="fill: #1f77b4; stroke: #1f77b4"/>
     <use xlink:href="#mad04029d9a" x="61.615673" y="62.88099" style="fill: #1f77b4; stroke: #1f77b4"/>
     <use xlink:href="#mad04029d9a" x="74.236346" y="62.88099" style="fill: #1f77b4; stroke: #1f77b4"/>
     <use xlink:href="#mad04029d9a" x="86.857019" y="62.88099" style="fill: #1f77b4; stroke: #1f77b4"/>
     <use xlink:href="#mad04029d9a" x="99.477692" y="62.88099" style="fill: #1f77b4; stroke: #1f77b4"/>
     <use xlink:href="#mad04029d9a" x="112.098365" y="62.88099" style="fill: #1f77b4; stroke: #1f77b4"/>
     <use xlink:href="#mad04029d9a" x="124.719038" y="62.88099" style="fill: #1f77b4; stroke: #1f77b4"/>
     <use xlink:href="#mad04029d9a" x="137.339712" y="62.88099" style="fill: #1f77b4; stroke: #1f77b4"/>
     <use xlink:href="#mad04029d9a" x="149.960385" y="63.282131" style="fill: #1f77b4; stroke: #1f77b4"/>
     <use xlink:href="#mad04029d9a" x="162.581058" y="63.549559" style="fill: #1f77b4; stroke: #1f77b4"/>
     <use xlink:href="#mad04029d9a" x="175.201731" y="63.883843" style="fill: #1f77b4; stroke: #1f77b4"/>
     <use xlink:href="#mad04029d9a" x="187.822404" y="64.61927" style="fill: #1f77b4; stroke: #1f77b4"/>
     <use xlink:href="#mad04029d9a" x="200.443077" y="66.55812" style="fill: #1f77b4; stroke: #1f77b4"/>
     <use xlink:href="#mad04029d9a" x="213.06375" y="68.96497" style="fill: #1f77b4; stroke: #1f77b4"/>
     <use xlink:href="#mad04029d9a" x="225.684423" y="72.374673" style="fill: #1f77b4; stroke: #1f77b4"/>
     <use xlink:href="#mad04029d9a" x="238.305096" y="75.851233" style="fill: #1f77b4; stroke: #1f77b4"/>
     <use xlink:href="#mad04029d9a" x="250.925769" y="79.728935" style="fill: #1f77b4; stroke: #1f77b4"/>
     <use xlink:href="#mad04029d9a" x="263.546442" y="84.007778" style="fill: #1f77b4; stroke: #1f77b4"/>
     <use xlink:href="#mad04029d9a" x="276.167115" y="88.353478" style="fill: #1f77b4; stroke: #1f77b4"/>
     <use xlink:href="#mad04029d9a" x="288.787788" y="94.103174" style="fill: #1f77b4; stroke: #1f77b4"/>
     <use xlink:href="#mad04029d9a" x="301.408462" y="99.251157" style="fill: #1f77b4; stroke: #1f77b4"/>
     <use xlink:href="#mad04029d9a" x="314.029135" y="119.174521" style="fill: #1f77b4; stroke: #1f77b4"/>
     <use xlink:href="#mad04029d9a" x="326.649808" y="125.592786" style="fill: #1f77b4; stroke: #1f77b4"/>
     <use xlink:href="#mad04029d9a" x="339.270481" y="140.568737" style="fill: #1f77b4; stroke: #1f77b4"/>
     <use xlink:href="#mad04029d9a" x="351.891154" y="149.794993" style="fill: #1f77b4; stroke: #1f77b4"/>
     <use xlink:href="#mad04029d9a" x="364.511827" y="156.948684" style="fill: #1f77b4; stroke: #1f77b4"/>
     <use xlink:href="#mad04029d9a" x="377.1325" y="168.448075" style="fill: #1f77b4; stroke: #1f77b4"/>
     <use xlink:href="#mad04029d9a" x="389.753173" y="175.534909" style="fill: #1f77b4; stroke: #1f77b4"/>
     <use xlink:href="#mad04029d9a" x="402.373846" y="185.162306" style="fill: #1f77b4; stroke: #1f77b4"/>
     <use xlink:href="#mad04029d9a" x="414.994519" y="195.123988" style="fill: #1f77b4; stroke: #1f77b4"/>
     <use xlink:href="#mad04029d9a" x="427.615192" y="204.283387" style="fill: #1f77b4; stroke: #1f77b4"/>
     <use xlink:href="#mad04029d9a" x="440.235865" y="207.225092" style="fill: #1f77b4; stroke: #1f77b4"/>
     <use xlink:href="#mad04029d9a" x="452.856538" y="218.724483" style="fill: #1f77b4; stroke: #1f77b4"/>
     <use xlink:href="#mad04029d9a" x="465.477212" y="229.020449" style="fill: #1f77b4; stroke: #1f77b4"/>
     <use xlink:href="#mad04029d9a" x="478.097885" y="235.572428" style="fill: #1f77b4; stroke: #1f77b4"/>
     <use xlink:href="#mad04029d9a" x="490.718558" y="239.851271" style="fill: #1f77b4; stroke: #1f77b4"/>
     <use xlink:href="#mad04029d9a" x="503.339231" y="248.208387" style="fill: #1f77b4; stroke: #1f77b4"/>
     <use xlink:href="#mad04029d9a" x="515.959904" y="257.635213" style="fill: #1f77b4; stroke: #1f77b4"/>
     <use xlink:href="#mad04029d9a" x="528.580577" y="255.96379" style="fill: #1f77b4; stroke: #1f77b4"/>
     <use xlink:href="#mad04029d9a" x="541.20125" y="274.416302" style="fill: #1f77b4; stroke: #1f77b4"/>
     <use xlink:href="#mad04029d9a" x="553.821923" y="279.430571" style="fill: #1f77b4; stroke: #1f77b4"/>
     <use xlink:href="#mad04029d9a" x="566.442596" y="284.912839" style="fill: #1f77b4; stroke: #1f77b4"/>
     <use xlink:href="#mad04029d9a" x="579.063269" y="290.261393" style="fill: #1f77b4; stroke: #1f77b4"/>
     <use xlink:href="#mad04029d9a" x="591.683942" y="296.746515" style="fill: #1f77b4; stroke: #1f77b4"/>
     <use xlink:href="#mad04029d9a" x="604.304615" y="302.563067" style="fill: #1f77b4; stroke: #1f77b4"/>
     <use xlink:href="#mad04029d9a" x="616.925288" y="307.577337" style="fill: #1f77b4; stroke: #1f77b4"/>
     <use xlink:href="#mad04029d9a" x="629.545962" y="312.457892" style="fill: #1f77b4; stroke: #1f77b4"/>
     <use xlink:href="#mad04029d9a" x="642.166635" y="317.672732" style="fill: #1f77b4; stroke: #1f77b4"/>
     <use xlink:href="#mad04029d9a" x="654.787308" y="322.753859" style="fill: #1f77b4; stroke: #1f77b4"/>
     <use xlink:href="#mad04029d9a" x="667.407981" y="324.625853" style="fill: #1f77b4; stroke: #1f77b4"/>
     <use xlink:href="#mad04029d9a" x="680.028654" y="331.980114" style="fill: #1f77b4; stroke: #1f77b4"/>
    </g>
   </g>
   <g id="line2d_26">
    <path d="M 48.995 62.88099 
L 61.615673 62.88099 
L 74.236346 62.88099 
L 86.857019 62.88099 
L 99.477692 62.88099 
L 112.098365 62.88099 
L 124.719038 62.88099 
L 137.339712 62.88099 
L 149.960385 62.88099 
L 162.581058 62.88099 
L 175.201731 62.88099 
L 187.822404 62.88099 
L 200.443077 62.88099 
L 213.06375 62.88099 
L 225.684423 62.88099 
L 238.305096 62.88099 
L 250.925769 66.090122 
L 263.546442 66.090122 
L 276.167115 66.090122 
L 288.787788 67.694688 
L 301.408462 69.299254 
L 314.029135 70.903821 
L 326.649808 78.926652 
L 339.270481 83.74035 
L 351.891154 86.949483 
L 364.511827 86.949483 
L 377.1325 93.367748 
L 389.753173 98.181446 
L 402.373846 98.181446 
L 414.994519 104.599711 
L 427.615192 107.808843 
L 440.235865 107.808843 
L 452.856538 109.41341 
L 465.477212 117.436241 
L 478.097885 123.854506 
L 490.718558 133.481903 
L 503.339231 135.086469 
L 515.959904 147.922999 
L 528.580577 152.736697 
L 541.20125 157.550396 
L 553.821923 159.154962 
L 566.442596 167.177793 
L 579.063269 181.618889 
L 591.683942 191.246286 
L 604.304615 197.664551 
L 616.925288 212.105647 
L 629.545962 221.733044 
L 642.166635 231.360442 
L 654.787308 247.406104 
L 667.407981 266.660898 
L 680.028654 279.497428 
" clip-path="url(#p3de727a17f)" style="fill: none; stroke: #ff7f0e; stroke-width: 2.5; stroke-linecap: square"/>
    <defs>
     <path id="m2259b74e34" d="M -2.5 2.5 
L 2.5 2.5 
L 2.5 -2.5 
L -2.5 -2.5 
z
" style="stroke: #ff7f0e; stroke-linejoin: miter"/>
    </defs>
    <g clip-path="url(#p3de727a17f)">
     <use xlink:href="#m2259b74e34" x="48.995" y="62.88099" style="fill: #ff7f0e; stroke: #ff7f0e; stroke-linejoin: miter"/>
     <use xlink:href="#m2259b74e34" x="61.615673" y="62.88099" style="fill: #ff7f0e; stroke: #ff7f0e; stroke-linejoin: miter"/>
     <use xlink:href="#m2259b74e34" x="74.236346" y="62.88099" style="fill: #ff7f0e; stroke: #ff7f0e; stroke-linejoin: miter"/>
     <use xlink:href="#m2259b74e34" x="86.857019" y="62.88099" style="fill: #ff7f0e; stroke: #ff7f0e; stroke-linejoin: miter"/>
     <use xlink:href="#m2259b74e34" x="99.477692" y="62.88099" style="fill: #ff7f0e; stroke: #ff7f0e; stroke-linejoin: miter"/>
     <use xlink:href="#m2259b74e34" x="112.098365" y="62.88099" style="fill: #ff7f0e; stroke: #ff7f0e; stroke-linejoin: miter"/>
     <use xlink:href="#m2259b74e34" x="124.719038" y="62.88099" style="fill: #ff7f0e; stroke: #ff7f0e; stroke-linejoin: miter"/>
     <use xlink:href="#m2259b74e34" x="137.339712" y="62.88099" style="fill: #ff7f0e; stroke: #ff7f0e; stroke-linejoin: miter"/>
     <use xlink:href="#m2259b74e34" x="149.960385" y="62.88099" style="fill: #ff7f0e; stroke: #ff7f0e; stroke-linejoin: miter"/>
     <use xlink:href="#m2259b74e34" x="162.581058" y="62.88099" style="fill: #ff7f0e; stroke: #ff7f0e; stroke-linejoin: miter"/>
     <use xlink:href="#m2259b74e34" x="175.201731" y="62.88099" style="fill: #ff7f0e; stroke: #ff7f0e; stroke-linejoin: miter"/>
     <use xlink:href="#m2259b74e34" x="187.822404" y="62.88099" style="fill: #ff7f0e; stroke: #ff7f0e; stroke-linejoin: miter"/>
     <use xlink:href="#m2259b74e34" x="200.443077" y="62.88099" style="fill: #ff7f0e; stroke: #ff7f0e; stroke-linejoin: miter"/>
     <use xlink:href="#m2259b74e34" x="213.06375" y="62.88099" style="fill: #ff7f0e; stroke: #ff7f0e; stroke-linejoin: miter"/>
     <use xlink:href="#m2259b74e34" x="225.684423" y="62.88099" style="fill: #ff7f0e; stroke: #ff7f0e; stroke-linejoin: miter"/>
     <use xlink:href="#m2259b74e34" x="238.305096" y="62.88099" style="fill: #ff7f0e; stroke: #ff7f0e; stroke-linejoin: miter"/>
     <use xlink:href="#m2259b74e34" x="250.925769" y="66.090122" style="fill: #ff7f0e; stroke: #ff7f0e; stroke-linejoin: miter"/>
     <use xlink:href="#m2259b74e34" x="263.546442" y="66.090122" style="fill: #ff7f0e; stroke: #ff7f0e; stroke-linejoin: miter"/>
     <use xlink:href="#m2259b74e34" x="276.167115" y="66.090122" style="fill: #ff7f0e; stroke: #ff7f0e; stroke-linejoin: miter"/>
     <use xlink:href="#m2259b74e34" x="288.787788" y="67.694688" style="fill: #ff7f0e; stroke: #ff7f0e; stroke-linejoin: miter"/>
     <use xlink:href="#m2259b74e34" x="301.408462" y="69.299254" style="fill: #ff7f0e; stroke: #ff7f0e; stroke-linejoin: miter"/>
     <use xlink:href="#m2259b74e34" x="314.029135" y="70.903821" style="fill: #ff7f0e; stroke: #ff7f0e; stroke-linejoin: miter"/>
     <use xlink:href="#m2259b74e34" x="326.649808" y="78.926652" style="fill: #ff7f0e; stroke: #ff7f0e; stroke-linejoin: miter"/>
     <use xlink:href="#m2259b74e34" x="339.270481" y="83.74035" style="fill: #ff7f0e; stroke: #ff7f0e; stroke-linejoin: miter"/>
     <use xlink:href="#m2259b74e34" x="351.891154" y="86.949483" style="fill: #ff7f0e; stroke: #ff7f0e; stroke-linejoin: miter"/>
     <use xlink:href="#m2259b74e34" x="364.511827" y="86.949483" style="fill: #ff7f0e; stroke: #ff7f0e; stroke-linejoin: miter"/>
     <use xlink:href="#m2259b74e34" x="377.1325" y="93.367748" style="fill: #ff7f0e; stroke: #ff7f0e; stroke-linejoin: miter"/>
     <use xlink:href="#m2259b74e34" x="389.753173" y="98.181446" style="fill: #ff7f0e; stroke: #ff7f0e; stroke-linejoin: miter"/>
     <use xlink:href="#m2259b74e34" x="402.373846" y="98.181446" style="fill: #ff7f0e; stroke: #ff7f0e; stroke-linejoin: miter"/>
     <use xlink:href="#m2259b74e34" x="414.994519" y="104.599711" style="fill: #ff7f0e; stroke: #ff7f0e; stroke-linejoin: miter"/>
     <use xlink:href="#m2259b74e34" x="427.615192" y="107.808843" style="fill: #ff7f0e; stroke: #ff7f0e; stroke-linejoin: miter"/>
     <use xlink:href="#m2259b74e34" x="440.235865" y="107.808843" style="fill: #ff7f0e; stroke: #ff7f0e; stroke-linejoin: miter"/>
     <use xlink:href="#m2259b74e34" x="452.856538" y="109.41341" style="fill: #ff7f0e; stroke: #ff7f0e; stroke-linejoin: miter"/>
     <use xlink:href="#m2259b74e34" x="465.477212" y="117.436241" style="fill: #ff7f0e; stroke: #ff7f0e; stroke-linejoin: miter"/>
     <use xlink:href="#m2259b74e34" x="478.097885" y="123.854506" style="fill: #ff7f0e; stroke: #ff7f0e; stroke-linejoin: miter"/>
     <use xlink:href="#m2259b74e34" x="490.718558" y="133.481903" style="fill: #ff7f0e; stroke: #ff7f0e; stroke-linejoin: miter"/>
     <use xlink:href="#m2259b74e34" x="503.339231" y="135.086469" style="fill: #ff7f0e; stroke: #ff7f0e; stroke-linejoin: miter"/>
     <use xlink:href="#m2259b74e34" x="515.959904" y="147.922999" style="fill: #ff7f0e; stroke: #ff7f0e; stroke-linejoin: miter"/>
     <use xlink:href="#m2259b74e34" x="528.580577" y="152.736697" style="fill: #ff7f0e; stroke: #ff7f0e; stroke-linejoin: miter"/>
     <use xlink:href="#m2259b74e34" x="541.20125" y="157.550396" style="fill: #ff7f0e; stroke: #ff7f0e; stroke-linejoin: miter"/>
     <use xlink:href="#m2259b74e34" x="553.821923" y="159.154962" style="fill: #ff7f0e; stroke: #ff7f0e; stroke-linejoin: miter"/>
     <use xlink:href="#m2259b74e34" x="566.442596" y="167.177793" style="fill: #ff7f0e; stroke: #ff7f0e; stroke-linejoin: miter"/>
     <use xlink:href="#m2259b74e34" x="579.063269" y="181.618889" style="fill: #ff7f0e; stroke: #ff7f0e; stroke-linejoin: miter"/>
     <use xlink:href="#m2259b74e34" x="591.683942" y="191.246286" style="fill: #ff7f0e; stroke: #ff7f0e; stroke-linejoin: miter"/>
     <use xlink:href="#m2259b74e34" x="604.304615" y="197.664551" style="fill: #ff7f0e; stroke: #ff7f0e; stroke-linejoin: miter"/>
     <use xlink:href="#m2259b74e34" x="616.925288" y="212.105647" style="fill: #ff7f0e; stroke: #ff7f0e; stroke-linejoin: miter"/>
     <use xlink:href="#m2259b74e34" x="629.545962" y="221.733044" style="fill: #ff7f0e; stroke: #ff7f0e; stroke-linejoin: miter"/>
     <use xlink:href="#m2259b74e34" x="642.166635" y="231.360442" style="fill: #ff7f0e; stroke: #ff7f0e; stroke-linejoin: miter"/>
     <use xlink:href="#m2259b74e34" x="654.787308" y="247.406104" style="fill: #ff7f0e; stroke: #ff7f0e; stroke-linejoin: miter"/>
     <use xlink:href="#m2259b74e34" x="667.407981" y="266.660898" style="fill: #ff7f0e; stroke: #ff7f0e; stroke-linejoin: miter"/>
     <use xlink:href="#m2259b74e34" x="680.028654" y="279.497428" style="fill: #ff7f0e; stroke: #ff7f0e; stroke-linejoin: miter"/>
    </g>
   </g>
   <g id="line2d_27">
    <path d="M 48.995 62.88099 
L 61.615673 62.88099 
L 74.236346 62.88099 
L 86.857019 62.88099 
L 99.477692 62.88099 
L 112.098365 62.88099 
L 124.719038 62.88099 
L 137.339712 62.88099 
L 149.960385 62.88099 
L 162.581058 62.88099 
L 175.201731 62.88099 
L 187.822404 62.88099 
L 200.443077 62.88099 
L 213.06375 62.88099 
L 225.684423 62.88099 
L 238.305096 62.88099 
L 250.925769 62.88099 
L 263.546442 62.88099 
L 276.167115 62.88099 
L 288.787788 62.88099 
L 301.408462 62.88099 
L 314.029135 62.88099 
L 326.649808 62.88099 
L 339.270481 62.88099 
L 351.891154 62.88099 
L 364.511827 62.88099 
L 377.1325 62.88099 
L 389.753173 62.88099 
L 402.373846 62.88099 
L 414.994519 62.88099 
L 427.615192 62.88099 
L 440.235865 62.88099 
L 452.856538 62.88099 
L 465.477212 62.88099 
L 478.097885 62.88099 
L 490.718558 62.88099 
L 503.339231 62.88099 
L 515.959904 62.88099 
L 528.580577 62.88099 
L 541.20125 62.88099 
L 553.821923 74.117879 
L 566.442596 79.511586 
L 579.063269 98.38956 
L 591.683942 101.535889 
L 604.304615 107.828547 
L 616.925288 114.121204 
L 629.545962 117.267533 
L 642.166635 118.61596 
L 654.787308 120.413862 
L 667.407981 120.413862 
L 680.028654 122.211765 
" clip-path="url(#p3de727a17f)" style="fill: none; stroke: #2ca02c; stroke-width: 2.5; stroke-linecap: square"/>
    <defs>
     <path id="m3321df9f88" d="M 0 -2.5 
L -2.5 2.5 
L 2.5 2.5 
z
" style="stroke: #2ca02c; stroke-linejoin: miter"/>
    </defs>
    <g clip-path="url(#p3de727a17f)">
     <use xlink:href="#m3321df9f88" x="48.995" y="62.88099" style="fill: #2ca02c; stroke: #2ca02c; stroke-linejoin: miter"/>
     <use xlink:href="#m3321df9f88" x="61.615673" y="62.88099" style="fill: #2ca02c; stroke: #2ca02c; stroke-linejoin: miter"/>
     <use xlink:href="#m3321df9f88" x="74.236346" y="62.88099" style="fill: #2ca02c; stroke: #2ca02c; stroke-linejoin: miter"/>
     <use xlink:href="#m3321df9f88" x="86.857019" y="62.88099" style="fill: #2ca02c; stroke: #2ca02c; stroke-linejoin: miter"/>
     <use xlink:href="#m3321df9f88" x="99.477692" y="62.88099" style="fill: #2ca02c; stroke: #2ca02c; stroke-linejoin: miter"/>
     <use xlink:href="#m3321df9f88" x="112.098365" y="62.88099" style="fill: #2ca02c; stroke: #2ca02c; stroke-linejoin: miter"/>
     <use xlink:href="#m3321df9f88" x="124.719038" y="62.88099" style="fill: #2ca02c; stroke: #2ca02c; stroke-linejoin: miter"/>
     <use xlink:href="#m3321df9f88" x="137.339712" y="62.88099" style="fill: #2ca02c; stroke: #2ca02c; stroke-linejoin: miter"/>
     <use xlink:href="#m3321df9f88" x="149.960385" y="62.88099" style="fill: #2ca02c; stroke: #2ca02c; stroke-linejoin: miter"/>
     <use xlink:href="#m3321df9f88" x="162.581058" y="62.88099" style="fill: #2ca02c; stroke: #2ca02c; stroke-linejoin: miter"/>
     <use xlink:href="#m3321df9f88" x="175.201731" y="62.88099" style="fill: #2ca02c; stroke: #2ca02c; stroke-linejoin: miter"/>
     <use xlink:href="#m3321df9f88" x="187.822404" y="62.88099" style="fill: #2ca02c; stroke: #2ca02c; stroke-linejoin: miter"/>
     <use xlink:href="#m3321df9f88" x="200.443077" y="62.88099" style="fill: #2ca02c; stroke: #2ca02c; stroke-linejoin: miter"/>
     <use xlink:href="#m3321df9f88" x="213.06375" y="62.88099" style="fill: #2ca02c; stroke: #2ca02c; stroke-linejoin: miter"/>
     <use xlink:href="#m3321df9f88" x="225.684423" y="62.88099" style="fill: #2ca02c; stroke: #2ca02c; stroke-linejoin: miter"/>
     <use xlink:href="#m3321df9f88" x="238.305096" y="62.88099" style="fill: #2ca02c; stroke: #2ca02c; stroke-linejoin: miter"/>
     <use xlink:href="#m3321df9f88" x="250.925769" y="62.88099" style="fill: #2ca02c; stroke: #2ca02c; stroke-linejoin: miter"/>
     <use xlink:href="#m3321df9f88" x="263.546442" y="62.88099" style="fill: #2ca02c; stroke: #2ca02c; stroke-linejoin: miter"/>
     <use xlink:href="#m3321df9f88" x="276.167115" y="62.88099" style="fill: #2ca02c; stroke: #2ca02c; stroke-linejoin: miter"/>
     <use xlink:href="#m3321df9f88" x="288.787788" y="62.88099" style="fill: #2ca02c; stroke: #2ca02c; stroke-linejoin: miter"/>
     <use xlink:href="#m3321df9f88" x="301.408462" y="62.88099" style="fill: #2ca02c; stroke: #2ca02c; stroke-linejoin: miter"/>
     <use xlink:href="#m3321df9f88" x="314.029135" y="62.88099" style="fill: #2ca02c; stroke: #2ca02c; stroke-linejoin: miter"/>
     <use xlink:href="#m3321df9f88" x="326.649808" y="62.88099" style="fill: #2ca02c; stroke: #2ca02c; stroke-linejoin: miter"/>
     <use xlink:href="#m3321df9f88" x="339.270481" y="62.88099" style="fill: #2ca02c; stroke: #2ca02c; stroke-linejoin: miter"/>
     <use xlink:href="#m3321df9f88" x="351.891154" y="62.88099" style="fill: #2ca02c; stroke: #2ca02c; stroke-linejoin: miter"/>
     <use xlink:href="#m3321df9f88" x="364.511827" y="62.88099" style="fill: #2ca02c; stroke: #2ca02c; stroke-linejoin: miter"/>
     <use xlink:href="#m3321df9f88" x="377.1325" y="62.88099" style="fill: #2ca02c; stroke: #2ca02c; stroke-linejoin: miter"/>
     <use xlink:href="#m3321df9f88" x="389.753173" y="62.88099" style="fill: #2ca02c; stroke: #2ca02c; stroke-linejoin: miter"/>
     <use xlink:href="#m3321df9f88" x="402.373846" y="62.88099" style="fill: #2ca02c; stroke: #2ca02c; stroke-linejoin: miter"/>
     <use xlink:href="#m3321df9f88" x="414.994519" y="62.88099" style="fill: #2ca02c; stroke: #2ca02c; stroke-linejoin: miter"/>
     <use xlink:href="#m3321df9f88" x="427.615192" y="62.88099" style="fill: #2ca02c; stroke: #2ca02c; stroke-linejoin: miter"/>
     <use xlink:href="#m3321df9f88" x="440.235865" y="62.88099" style="fill: #2ca02c; stroke: #2ca02c; stroke-linejoin: miter"/>
     <use xlink:href="#m3321df9f88" x="452.856538" y="62.88099" style="fill: #2ca02c; stroke: #2ca02c; stroke-linejoin: miter"/>
     <use xlink:href="#m3321df9f88" x="465.477212" y="62.88099" style="fill: #2ca02c; stroke: #2ca02c; stroke-linejoin: miter"/>
     <use xlink:href="#m3321df9f88" x="478.097885" y="62.88099" style="fill: #2ca02c; stroke: #2ca02c; stroke-linejoin: miter"/>
     <use xlink:href="#m3321df9f88" x="490.718558" y="62.88099" style="fill: #2ca02c; stroke: #2ca02c; stroke-linejoin: miter"/>
     <use xlink:href="#m3321df9f88" x="503.339231" y="62.88099" style="fill: #2ca02c; stroke: #2ca02c; stroke-linejoin: miter"/>
     <use xlink:href="#m3321df9f88" x="515.959904" y="62.88099" style="fill: #2ca02c; stroke: #2ca02c; stroke-linejoin: miter"/>
     <use xlink:href="#m3321df9f88" x="528.580577" y="62.88099" style="fill: #2ca02c; stroke: #2ca02c; stroke-linejoin: miter"/>
     <use xlink:href="#m3321df9f88" x="541.20125" y="62.88099" style="fill: #2ca02c; stroke: #2ca02c; stroke-linejoin: miter"/>
     <use xlink:href="#m3321df9f88" x="553.821923" y="74.117879" style="fill: #2ca02c; stroke: #2ca02c; stroke-linejoin: miter"/>
     <use xlink:href="#m3321df9f88" x="566.442596" y="79.511586" style="fill: #2ca02c; stroke: #2ca02c; stroke-linejoin: miter"/>
     <use xlink:href="#m3321df9f88" x="579.063269" y="98.38956" style="fill: #2ca02c; stroke: #2ca02c; stroke-linejoin: miter"/>
     <use xlink:href="#m3321df9f88" x="591.683942" y="101.535889" style="fill: #2ca02c; stroke: #2ca02c; stroke-linejoin: miter"/>
     <use xlink:href="#m3321df9f88" x="604.304615" y="107.828547" style="fill: #2ca02c; stroke: #2ca02c; stroke-linejoin: miter"/>
     <use xlink:href="#m3321df9f88" x="616.925288" y="114.121204" style="fill: #2ca02c; stroke: #2ca02c; stroke-linejoin: miter"/>
     <use xlink:href="#m3321df9f88" x="629.545962" y="117.267533" style="fill: #2ca02c; stroke: #2ca02c; stroke-linejoin: miter"/>
     <use xlink:href="#m3321df9f88" x="642.166635" y="118.61596" style="fill: #2ca02c; stroke: #2ca02c; stroke-linejoin: miter"/>
     <use xlink:href="#m3321df9f88" x="654.787308" y="120.413862" style="fill: #2ca02c; stroke: #2ca02c; stroke-linejoin: miter"/>
     <use xlink:href="#m3321df9f88" x="667.407981" y="120.413862" style="fill: #2ca02c; stroke: #2ca02c; stroke-linejoin: miter"/>
     <use xlink:href="#m3321df9f88" x="680.028654" y="122.211765" style="fill: #2ca02c; stroke: #2ca02c; stroke-linejoin: miter"/>
    </g>
   </g>
   <g id="line2d_28">
    <path d="M 48.995 63.466656 
L 705.27 63.466656 
" clip-path="url(#p3de727a17f)" style="fill: none; stroke-dasharray: 2,3.3; stroke-dashoffset: 0; stroke: #ff0000; stroke-opacity: 0.8; stroke-width: 2"/>
   </g>
   <g id="LineCollection_1">
    <path d="M 149.960385 320.574323 
L 149.960385 63.466656 
" clip-path="url(#p3de727a17f)" style="fill: none; stroke-dasharray: 5.55,2.4; stroke-dashoffset: 0; stroke: #1f77b4; stroke-opacity: 0.8; stroke-width: 1.5"/>
   </g>
   <g id="LineCollection_2">
    <path d="M 238.305096 320.574323 
L 238.305096 63.466656 
" clip-path="url(#p3de727a17f)" style="fill: none; stroke-dasharray: 5.55,2.4; stroke-dashoffset: 0; stroke: #ff7f0e; stroke-opacity: 0.8; stroke-width: 1.5"/>
   </g>
   <g id="LineCollection_3">
    <path d="M 541.20125 320.574323 
L 541.20125 63.466656 
" clip-path="url(#p3de727a17f)" style="fill: none; stroke-dasharray: 5.55,2.4; stroke-dashoffset: 0; stroke: #2ca02c; stroke-opacity: 0.8; stroke-width: 1.5"/>
   </g>
   <g id="patch_3">
    <path d="M 48.995 384.997656 
L 48.995 33.597656 
" style="fill: none; stroke: #000000; stroke-width: 0.8; stroke-linejoin: miter; stroke-linecap: square"/>
   </g>
   <g id="patch_4">
    <path d="M 48.995 384.997656 
L 705.27 384.997656 
" style="fill: none; stroke: #000000; stroke-width: 0.8; stroke-linejoin: miter; stroke-linecap: square"/>
   </g>
   <g id="text_15">
    <!-- Strict Reliability Target (99.9%) -->
    <g style="fill: #8b0000" transform="translate(74.236346 55.452177) scale(0.1 -0.1)">
     <defs>
      <path id="DejaVuSans-Bold-67" d="M 2919 594 
Q 2688 288 2409 144 
Q 2131 0 1766 0 
Q 1125 0 706 504 
Q 288 1009 288 1791 
Q 288 2575 706 3076 
Q 1125 3578 1766 3578 
Q 2131 3578 2409 3434 
Q 2688 3291 2919 2981 
L 2919 3500 
L 4044 3500 
L 4044 353 
Q 4044 -491 3511 -936 
Q 2978 -1381 1966 -1381 
Q 1638 -1381 1331 -1331 
Q 1025 -1281 716 -1178 
L 716 -306 
Q 1009 -475 1290 -558 
Q 1572 -641 1856 -641 
Q 2406 -641 2662 -400 
Q 2919 -159 2919 353 
L 2919 594 
z
M 2181 2772 
Q 1834 2772 1640 2515 
Q 1447 2259 1447 1791 
Q 1447 1309 1634 1061 
Q 1822 813 2181 813 
Q 2531 813 2725 1069 
Q 2919 1325 2919 1791 
Q 2919 2259 2725 2515 
Q 2531 2772 2181 2772 
z
" transform="scale(0.015625)"/>
      <path id="DejaVuSans-Bold-39" d="M 641 103 
L 641 966 
Q 928 831 1190 764 
Q 1453 697 1709 697 
Q 2247 697 2547 995 
Q 2847 1294 2900 1881 
Q 2688 1725 2447 1647 
Q 2206 1569 1925 1569 
Q 1209 1569 770 1986 
Q 331 2403 331 3084 
Q 331 3838 820 4291 
Q 1309 4744 2131 4744 
Q 3044 4744 3544 4128 
Q 4044 3513 4044 2388 
Q 4044 1231 3459 570 
Q 2875 -91 1856 -91 
Q 1528 -91 1228 -42 
Q 928 6 641 103 
z
M 2125 2350 
Q 2441 2350 2600 2554 
Q 2759 2759 2759 3169 
Q 2759 3575 2600 3781 
Q 2441 3988 2125 3988 
Q 1809 3988 1650 3781 
Q 1491 3575 1491 3169 
Q 1491 2759 1650 2554 
Q 1809 2350 2125 2350 
z
" transform="scale(0.015625)"/>
      <path id="DejaVuSans-Bold-2e" d="M 653 1209 
L 1778 1209 
L 1778 0 
L 653 0 
L 653 1209 
z
" transform="scale(0.015625)"/>
     </defs>
     <use xlink:href="#DejaVuSans-Bold-53"/>
     <use xlink:href="#DejaVuSans-Bold-74" transform="translate(72.021484 0)"/>
     <use xlink:href="#DejaVuSans-Bold-72" transform="translate(119.824219 0)"/>
     <use xlink:href="#DejaVuSans-Bold-69" transform="translate(169.140625 0)"/>
     <use xlink:href="#DejaVuSans-Bold-63" transform="translate(203.417969 0)"/>
     <use xlink:href="#DejaVuSans-Bold-74" transform="translate(262.695312 0)"/>
     <use xlink:href="#DejaVuSans-Bold-20" transform="translate(310.498047 0)"/>
     <use xlink:href="#DejaVuSans-Bold-52" transform="translate(345.3125 0)"/>
     <use xlink:href="#DejaVuSans-Bold-65" transform="translate(422.314453 0)"/>
     <use xlink:href="#DejaVuSans-Bold-6c" transform="translate(490.136719 0)"/>
     <use xlink:href="#DejaVuSans-Bold-69" transform="translate(524.414062 0)"/>
     <use xlink:href="#DejaVuSans-Bold-61" transform="translate(558.691406 0)"/>
     <use xlink:href="#DejaVuSans-Bold-62" transform="translate(626.171875 0)"/>
     <use xlink:href="#DejaVuSans-Bold-69" transform="translate(697.753906 0)"/>
     <use xlink:href="#DejaVuSans-Bold-6c" transform="translate(732.03125 0)"/>
     <use xlink:href="#DejaVuSans-Bold-69" transform="translate(766.308594 0)"/>
     <use xlink:href="#DejaVuSans-Bold-74" transform="translate(800.585938 0)"/>
     <use xlink:href="#DejaVuSans-Bold-79" transform="translate(848.388672 0)"/>
     <use xlink:href="#DejaVuSans-Bold-20" transform="translate(913.574219 0)"/>
     <use xlink:href="#DejaVuSans-Bold-54" transform="translate(948.388672 0)"/>
     <use xlink:href="#DejaVuSans-Bold-61" transform="translate(1003.726562 0)"/>
     <use xlink:href="#DejaVuSans-Bold-72" transform="translate(1071.207031 0)"/>
     <use xlink:href="#DejaVuSans-Bold-67" transform="translate(1120.523438 0)"/>
     <use xlink:href="#DejaVuSans-Bold-65" transform="translate(1192.105469 0)"/>
     <use xlink:href="#DejaVuSans-Bold-74" transform="translate(1259.927734 0)"/>
     <use xlink:href="#DejaVuSans-Bold-20" transform="translate(1307.730469 0)"/>
     <use xlink:href="#DejaVuSans-Bold-28" transform="translate(1342.544922 0)"/>
     <use xlink:href="#DejaVuSans-Bold-39" transform="translate(1388.248047 0)"/>
     <use xlink:href="#DejaVuSans-Bold-39" transform="translate(1457.828125 0)"/>
     <use xlink:href="#DejaVuSans-Bold-2e" transform="translate(1527.408203 0)"/>
     <use xlink:href="#DejaVuSans-Bold-39" transform="translate(1565.396484 0)"/>
     <use xlink:href="#DejaVuSans-Bold-25" transform="translate(1634.976562 0)"/>
     <use xlink:href="#DejaVuSans-Bold-29" transform="translate(1735.171875 0)"/>
    </g>
   </g>
   <g id="text_16">
    <!-- Impact of Workload Flexibility on Maximum Reliable IT Capacity -->
    <g style="fill: #333333" transform="translate(107.145391 18.597656) scale(0.15 -0.15)">
     <defs>
      <path id="DejaVuSans-Bold-6d" d="M 3781 2919 
Q 3994 3244 4286 3414 
Q 4578 3584 4928 3584 
Q 5531 3584 5847 3212 
Q 6163 2841 6163 2131 
L 6163 0 
L 5038 0 
L 5038 1825 
Q 5041 1866 5042 1909 
Q 5044 1953 5044 2034 
Q 5044 2406 4934 2573 
Q 4825 2741 4581 2741 
Q 4263 2741 4089 2478 
Q 3916 2216 3909 1719 
L 3909 0 
L 2784 0 
L 2784 1825 
Q 2784 2406 2684 2573 
Q 2584 2741 2328 2741 
Q 2006 2741 1831 2477 
Q 1656 2213 1656 1722 
L 1656 0 
L 531 0 
L 531 3500 
L 1656 3500 
L 1656 2988 
Q 1863 3284 2130 3434 
Q 2397 3584 2719 3584 
Q 3081 3584 3359 3409 
Q 3638 3234 3781 2919 
z
" transform="scale(0.015625)"/>
      <path id="DejaVuSans-Bold-66" d="M 2841 4863 
L 2841 4128 
L 2222 4128 
Q 1984 4128 1890 4042 
Q 1797 3956 1797 3744 
L 1797 3500 
L 2753 3500 
L 2753 2700 
L 1797 2700 
L 1797 0 
L 678 0 
L 678 2700 
L 122 2700 
L 122 3500 
L 678 3500 
L 678 3744 
Q 678 4316 997 4589 
Q 1316 4863 1984 4863 
L 2841 4863 
z
" transform="scale(0.015625)"/>
      <path id="DejaVuSans-Bold-46" d="M 588 4666 
L 3834 4666 
L 3834 3756 
L 1791 3756 
L 1791 2888 
L 3713 2888 
L 3713 1978 
L 1791 1978 
L 1791 0 
L 588 0 
L 588 4666 
z
" transform="scale(0.015625)"/>
      <path id="DejaVuSans-Bold-78" d="M 1422 1791 
L 159 3500 
L 1344 3500 
L 2059 2463 
L 2784 3500 
L 3969 3500 
L 2706 1797 
L 4031 0 
L 2847 0 
L 2059 1106 
L 1281 0 
L 97 0 
L 1422 1791 
z
" transform="scale(0.015625)"/>
      <path id="DejaVuSans-Bold-6e" d="M 4056 2131 
L 4056 0 
L 2931 0 
L 2931 347 
L 2931 1631 
Q 2931 2084 2911 2256 
Q 2891 2428 2841 2509 
Q 2775 2619 2662 2680 
Q 2550 2741 2406 2741 
Q 2056 2741 1856 2470 
Q 1656 2200 1656 1722 
L 1656 0 
L 538 0 
L 538 3500 
L 1656 3500 
L 1656 2988 
Q 1909 3294 2193 3439 
Q 2478 3584 2822 3584 
Q 3428 3584 3742 3212 
Q 4056 2841 4056 2131 
z
" transform="scale(0.015625)"/>
      <path id="DejaVuSans-Bold-75" d="M 500 1363 
L 500 3500 
L 1625 3500 
L 1625 3150 
Q 1625 2866 1622 2436 
Q 1619 2006 1619 1863 
Q 1619 1441 1641 1255 
Q 1663 1069 1716 984 
Q 1784 875 1895 815 
Q 2006 756 2150 756 
Q 2500 756 2700 1025 
Q 2900 1294 2900 1772 
L 2900 3500 
L 4019 3500 
L 4019 0 
L 2900 0 
L 2900 506 
Q 2647 200 2364 54 
Q 2081 -91 1741 -91 
Q 1134 -91 817 281 
Q 500 653 500 1363 
z
" transform="scale(0.015625)"/>
     </defs>
     <use xlink:href="#DejaVuSans-Bold-49"/>
     <use xlink:href="#DejaVuSans-Bold-6d" transform="translate(37.207031 0)"/>
     <use xlink:href="#DejaVuSans-Bold-70" transform="translate(141.40625 0)"/>
     <use xlink:href="#DejaVuSans-Bold-61" transform="translate(212.988281 0)"/>
     <use xlink:href="#DejaVuSans-Bold-63" transform="translate(280.46875 0)"/>
     <use xlink:href="#DejaVuSans-Bold-74" transform="translate(339.746094 0)"/>
     <use xlink:href="#DejaVuSans-Bold-20" transform="translate(387.548828 0)"/>
     <use xlink:href="#DejaVuSans-Bold-6f" transform="translate(422.363281 0)"/>
     <use xlink:href="#DejaVuSans-Bold-66" transform="translate(491.064453 0)"/>
     <use xlink:href="#DejaVuSans-Bold-20" transform="translate(534.570312 0)"/>
     <use xlink:href="#DejaVuSans-Bold-57" transform="translate(569.384766 0)"/>
     <use xlink:href="#DejaVuSans-Bold-6f" transform="translate(676.0625 0)"/>
     <use xlink:href="#DejaVuSans-Bold-72" transform="translate(744.763672 0)"/>
     <use xlink:href="#DejaVuSans-Bold-6b" transform="translate(794.080078 0)"/>
     <use xlink:href="#DejaVuSans-Bold-6c" transform="translate(860.583984 0)"/>
     <use xlink:href="#DejaVuSans-Bold-6f" transform="translate(894.861328 0)"/>
     <use xlink:href="#DejaVuSans-Bold-61" transform="translate(963.5625 0)"/>
     <use xlink:href="#DejaVuSans-Bold-64" transform="translate(1031.042969 0)"/>
     <use xlink:href="#DejaVuSans-Bold-20" transform="translate(1102.625 0)"/>
     <use xlink:href="#DejaVuSans-Bold-46" transform="translate(1137.439453 0)"/>
     <use xlink:href="#DejaVuSans-Bold-6c" transform="translate(1205.75 0)"/>
     <use xlink:href="#DejaVuSans-Bold-65" transform="translate(1240.027344 0)"/>
     <use xlink:href="#DejaVuSans-Bold-78" transform="translate(1307.849609 0)"/>
     <use xlink:href="#DejaVuSans-Bold-69" transform="translate(1372.351562 0)"/>
     <use xlink:href="#DejaVuSans-Bold-62" transform="translate(1406.628906 0)"/>
     <use xlink:href="#DejaVuSans-Bold-69" transform="translate(1478.210938 0)"/>
     <use xlink:href="#DejaVuSans-Bold-6c" transform="translate(1512.488281 0)"/>
     <use xlink:href="#DejaVuSans-Bold-69" transform="translate(1546.765625 0)"/>
     <use xlink:href="#DejaVuSans-Bold-74" transform="translate(1581.042969 0)"/>
     <use xlink:href="#DejaVuSans-Bold-79" transform="translate(1628.845703 0)"/>
     <use xlink:href="#DejaVuSans-Bold-20" transform="translate(1694.03125 0)"/>
     <use xlink:href="#DejaVuSans-Bold-6f" transform="translate(1728.845703 0)"/>
     <use xlink:href="#DejaVuSans-Bold-6e" transform="translate(1797.546875 0)"/>
     <use xlink:href="#DejaVuSans-Bold-20" transform="translate(1868.738281 0)"/>
     <use xlink:href="#DejaVuSans-Bold-4d" transform="translate(1903.552734 0)"/>
     <use xlink:href="#DejaVuSans-Bold-61" transform="translate(2003.064453 0)"/>
     <use xlink:href="#DejaVuSans-Bold-78" transform="translate(2070.544922 0)"/>
     <use xlink:href="#DejaVuSans-Bold-69" transform="translate(2135.046875 0)"/>
     <use xlink:href="#DejaVuSans-Bold-6d" transform="translate(2169.324219 0)"/>
     <use xlink:href="#DejaVuSans-Bold-75" transform="translate(2273.523438 0)"/>
     <use xlink:href="#DejaVuSans-Bold-6d" transform="translate(2344.714844 0)"/>
     <use xlink:href="#DejaVuSans-Bold-20" transform="translate(2448.914062 0)"/>
     <use xlink:href="#DejaVuSans-Bold-52" transform="translate(2483.728516 0)"/>
     <use xlink:href="#DejaVuSans-Bold-65" transform="translate(2560.730469 0)"/>
     <use xlink:href="#DejaVuSans-Bold-6c" transform="translate(2628.552734 0)"/>
     <use xlink:href="#DejaVuSans-Bold-69" transform="translate(2662.830078 0)"/>
     <use xlink:href="#DejaVuSans-Bold-61" transform="translate(2697.107422 0)"/>
     <use xlink:href="#DejaVuSans-Bold-62" transform="translate(2764.587891 0)"/>
     <use xlink:href="#DejaVuSans-Bold-6c" transform="translate(2836.169922 0)"/>
     <use xlink:href="#DejaVuSans-Bold-65" transform="translate(2870.447266 0)"/>
     <use xlink:href="#DejaVuSans-Bold-20" transform="translate(2938.269531 0)"/>
     <use xlink:href="#DejaVuSans-Bold-49" transform="translate(2973.083984 0)"/>
     <use xlink:href="#DejaVuSans-Bold-54" transform="translate(3010.291016 0)"/>
     <use xlink:href="#DejaVuSans-Bold-20" transform="translate(3078.503906 0)"/>
     <use xlink:href="#DejaVuSans-Bold-43" transform="translate(3113.318359 0)"/>
     <use xlink:href="#DejaVuSans-Bold-61" transform="translate(3186.707031 0)"/>
     <use xlink:href="#DejaVuSans-Bold-70" transform="translate(3254.1875 0)"/>
     <use xlink:href="#DejaVuSans-Bold-61" transform="translate(3325.769531 0)"/>
     <use xlink:href="#DejaVuSans-Bold-63" transform="translate(3393.25 0)"/>
     <use xlink:href="#DejaVuSans-Bold-69" transform="translate(3452.527344 0)"/>
     <use xlink:href="#DejaVuSans-Bold-74" transform="translate(3486.804688 0)"/>
     <use xlink:href="#DejaVuSans-Bold-79" transform="translate(3534.607422 0)"/>
    </g>
   </g>
   <g id="text_17">
    <g id="patch_5">
     <path d="M 120.934603 383.14099 
L 178.986166 383.14099 
Q 182.986166 383.14099 182.986166 379.14099 
L 182.986166 358.265052 
Q 182.986166 354.265052 178.986166 354.265052 
L 120.934603 354.265052 
Q 116.934603 354.265052 116.934603 358.265052 
L 116.934603 379.14099 
Q 116.934603 383.14099 120.934603 383.14099 
z
" style="fill: #ffffff; opacity: 0.9; stroke: #1f77b4; stroke-linejoin: miter"/>
    </g>
    <!-- 8 MW Max -->
    <g style="fill: #1f77b4" transform="translate(120.934603 365.86349) scale(0.1 -0.1)">
     <defs>
      <path id="DejaVuSans-Bold-38" d="M 2228 2088 
Q 1891 2088 1709 1903 
Q 1528 1719 1528 1375 
Q 1528 1031 1709 848 
Q 1891 666 2228 666 
Q 2563 666 2741 848 
Q 2919 1031 2919 1375 
Q 2919 1722 2741 1905 
Q 2563 2088 2228 2088 
z
M 1350 2484 
Q 925 2613 709 2878 
Q 494 3144 494 3541 
Q 494 4131 934 4440 
Q 1375 4750 2228 4750 
Q 3075 4750 3515 4442 
Q 3956 4134 3956 3541 
Q 3956 3144 3739 2878 
Q 3522 2613 3097 2484 
Q 3572 2353 3814 2058 
Q 4056 1763 4056 1313 
Q 4056 619 3595 264 
Q 3134 -91 2228 -91 
Q 1319 -91 855 264 
Q 391 619 391 1313 
Q 391 1763 633 2058 
Q 875 2353 1350 2484 
z
M 1631 3419 
Q 1631 3141 1786 2991 
Q 1941 2841 2228 2841 
Q 2509 2841 2662 2991 
Q 2816 3141 2816 3419 
Q 2816 3697 2662 3845 
Q 2509 3994 2228 3994 
Q 1941 3994 1786 3844 
Q 1631 3694 1631 3419 
z
" transform="scale(0.015625)"/>
     </defs>
     <use xlink:href="#DejaVuSans-Bold-38"/>
     <use xlink:href="#DejaVuSans-Bold-20" transform="translate(69.580078 0)"/>
     <use xlink:href="#DejaVuSans-Bold-4d" transform="translate(104.394531 0)"/>
     <use xlink:href="#DejaVuSans-Bold-57" transform="translate(203.90625 0)"/>
     <use xlink:href="#DejaVuSans-Bold-20" transform="translate(314.208984 0)"/>
     <use xlink:href="#DejaVuSans-Bold-4d" transform="translate(349.023438 0)"/>
     <use xlink:href="#DejaVuSans-Bold-61" transform="translate(448.535156 0)"/>
     <use xlink:href="#DejaVuSans-Bold-78" transform="translate(516.015625 0)"/>
    </g>
    <!-- (Firm) -->
    <g style="fill: #1f77b4" transform="translate(132.584603 377.061302) scale(0.1 -0.1)">
     <use xlink:href="#DejaVuSans-Bold-28"/>
     <use xlink:href="#DejaVuSans-Bold-46" transform="translate(45.703125 0)"/>
     <use xlink:href="#DejaVuSans-Bold-69" transform="translate(114.013672 0)"/>
     <use xlink:href="#DejaVuSans-Bold-72" transform="translate(148.291016 0)"/>
     <use xlink:href="#DejaVuSans-Bold-6d" transform="translate(197.607422 0)"/>
     <use xlink:href="#DejaVuSans-Bold-29" transform="translate(301.806641 0)"/>
    </g>
   </g>
   <g id="text_18">
    <g id="patch_6">
     <path d="M 205.800409 383.14099 
L 270.809784 383.14099 
Q 274.809784 383.14099 274.809784 379.14099 
L 274.809784 358.265052 
Q 274.809784 354.265052 270.809784 354.265052 
L 205.800409 354.265052 
Q 201.800409 354.265052 201.800409 358.265052 
L 201.800409 379.14099 
Q 201.800409 383.14099 205.800409 383.14099 
z
" style="fill: #ffffff; opacity: 0.9; stroke: #ff7f0e; stroke-linejoin: miter"/>
    </g>
    <!-- 15 MW Max -->
    <g style="fill: #ff7f0e" transform="translate(205.800409 365.785365) scale(0.1 -0.1)">
     <defs>
      <path id="DejaVuSans-Bold-31" d="M 750 831 
L 1813 831 
L 1813 3847 
L 722 3622 
L 722 4441 
L 1806 4666 
L 2950 4666 
L 2950 831 
L 4013 831 
L 4013 0 
L 750 0 
L 750 831 
z
" transform="scale(0.015625)"/>
      <path id="DejaVuSans-Bold-35" d="M 678 4666 
L 3669 4666 
L 3669 3781 
L 1638 3781 
L 1638 3059 
Q 1775 3097 1914 3117 
Q 2053 3138 2203 3138 
Q 3056 3138 3531 2711 
Q 4006 2284 4006 1522 
Q 4006 766 3489 337 
Q 2972 -91 2053 -91 
Q 1656 -91 1267 -14 
Q 878 63 494 219 
L 494 1166 
Q 875 947 1217 837 
Q 1559 728 1863 728 
Q 2300 728 2551 942 
Q 2803 1156 2803 1522 
Q 2803 1891 2551 2103 
Q 2300 2316 1863 2316 
Q 1603 2316 1309 2248 
Q 1016 2181 678 2041 
L 678 4666 
z
" transform="scale(0.015625)"/>
     </defs>
     <use xlink:href="#DejaVuSans-Bold-31"/>
     <use xlink:href="#DejaVuSans-Bold-35" transform="translate(69.580078 0)"/>
     <use xlink:href="#DejaVuSans-Bold-20" transform="translate(139.160156 0)"/>
     <use xlink:href="#DejaVuSans-Bold-4d" transform="translate(173.974609 0)"/>
     <use xlink:href="#DejaVuSans-Bold-57" transform="translate(273.486328 0)"/>
     <use xlink:href="#DejaVuSans-Bold-20" transform="translate(383.789062 0)"/>
     <use xlink:href="#DejaVuSans-Bold-4d" transform="translate(418.603516 0)"/>
     <use xlink:href="#DejaVuSans-Bold-61" transform="translate(518.115234 0)"/>
     <use xlink:href="#DejaVuSans-Bold-78" transform="translate(585.595703 0)"/>
    </g>
    <!-- (Daily) -->
    <g style="fill: #ff7f0e" transform="translate(219.522284 376.983177) scale(0.1 -0.1)">
     <defs>
      <path id="DejaVuSans-Bold-44" d="M 1791 3756 
L 1791 909 
L 2222 909 
Q 2959 909 3348 1275 
Q 3738 1641 3738 2338 
Q 3738 3031 3350 3393 
Q 2963 3756 2222 3756 
L 1791 3756 
z
M 588 4666 
L 1856 4666 
Q 2919 4666 3439 4514 
Q 3959 4363 4331 4000 
Q 4659 3684 4818 3271 
Q 4978 2859 4978 2338 
Q 4978 1809 4818 1395 
Q 4659 981 4331 666 
Q 3956 303 3431 151 
Q 2906 0 1856 0 
L 588 0 
L 588 4666 
z
" transform="scale(0.015625)"/>
     </defs>
     <use xlink:href="#DejaVuSans-Bold-28"/>
     <use xlink:href="#DejaVuSans-Bold-44" transform="translate(45.703125 0)"/>
     <use xlink:href="#DejaVuSans-Bold-61" transform="translate(128.710938 0)"/>
     <use xlink:href="#DejaVuSans-Bold-69" transform="translate(196.191406 0)"/>
     <use xlink:href="#DejaVuSans-Bold-6c" transform="translate(230.46875 0)"/>
     <use xlink:href="#DejaVuSans-Bold-79" transform="translate(264.746094 0)"/>
     <use xlink:href="#DejaVuSans-Bold-29" transform="translate(329.931641 0)"/>
    </g>
   </g>
   <g id="text_19">
    <g id="patch_7">
     <path d="M 508.696563 383.14099 
L 573.705938 383.14099 
Q 577.705938 383.14099 577.705938 379.14099 
L 577.705938 358.265052 
Q 577.705938 354.265052 573.705938 354.265052 
L 508.696563 354.265052 
Q 504.696563 354.265052 504.696563 358.265052 
L 504.696563 379.14099 
Q 504.696563 383.14099 508.696563 383.14099 
z
" style="fill: #ffffff; opacity: 0.9; stroke: #2ca02c; stroke-linejoin: miter"/>
    </g>
    <!-- 39 MW Max -->
    <g style="fill: #2ca02c" transform="translate(508.696563 365.785365) scale(0.1 -0.1)">
     <defs>
      <path id="DejaVuSans-Bold-33" d="M 2981 2516 
Q 3453 2394 3698 2092 
Q 3944 1791 3944 1325 
Q 3944 631 3412 270 
Q 2881 -91 1863 -91 
Q 1503 -91 1142 -33 
Q 781 25 428 141 
L 428 1069 
Q 766 900 1098 814 
Q 1431 728 1753 728 
Q 2231 728 2486 893 
Q 2741 1059 2741 1369 
Q 2741 1688 2480 1852 
Q 2219 2016 1709 2016 
L 1228 2016 
L 1228 2791 
L 1734 2791 
Q 2188 2791 2409 2933 
Q 2631 3075 2631 3366 
Q 2631 3634 2415 3781 
Q 2200 3928 1806 3928 
Q 1516 3928 1219 3862 
Q 922 3797 628 3669 
L 628 4550 
Q 984 4650 1334 4700 
Q 1684 4750 2022 4750 
Q 2931 4750 3382 4451 
Q 3834 4153 3834 3553 
Q 3834 3144 3618 2883 
Q 3403 2622 2981 2516 
z
" transform="scale(0.015625)"/>
     </defs>
     <use xlink:href="#DejaVuSans-Bold-33"/>
     <use xlink:href="#DejaVuSans-Bold-39" transform="translate(69.580078 0)"/>
     <use xlink:href="#DejaVuSans-Bold-20" transform="translate(139.160156 0)"/>
     <use xlink:href="#DejaVuSans-Bold-4d" transform="translate(173.974609 0)"/>
     <use xlink:href="#DejaVuSans-Bold-57" transform="translate(273.486328 0)"/>
     <use xlink:href="#DejaVuSans-Bold-20" transform="translate(383.789062 0)"/>
     <use xlink:href="#DejaVuSans-Bold-4d" transform="translate(418.603516 0)"/>
     <use xlink:href="#DejaVuSans-Bold-61" transform="translate(518.115234 0)"/>
     <use xlink:href="#DejaVuSans-Bold-78" transform="translate(585.595703 0)"/>
    </g>
    <!-- (Weekly) -->
    <g style="fill: #2ca02c" transform="translate(516.216094 376.983177) scale(0.1 -0.1)">
     <use xlink:href="#DejaVuSans-Bold-28"/>
     <use xlink:href="#DejaVuSans-Bold-57" transform="translate(45.703125 0)"/>
     <use xlink:href="#DejaVuSans-Bold-65" transform="translate(152.380859 0)"/>
     <use xlink:href="#DejaVuSans-Bold-65" transform="translate(220.203125 0)"/>
     <use xlink:href="#DejaVuSans-Bold-6b" transform="translate(288.025391 0)"/>
     <use xlink:href="#DejaVuSans-Bold-6c" transform="translate(354.529297 0)"/>
     <use xlink:href="#DejaVuSans-Bold-79" transform="translate(388.806641 0)"/>
     <use xlink:href="#DejaVuSans-Bold-29" transform="translate(453.992188 0)"/>
    </g>
   </g>
   <g id="legend_1">
    <g id="patch_8">
     <path d="M 525.995781 235.166562 
L 697.57 235.166562 
Q 699.77 235.166562 699.77 232.966563 
L 699.77 185.62875 
Q 699.77 183.42875 697.57 183.42875 
L 525.995781 183.42875 
Q 523.795781 183.42875 523.795781 185.62875 
L 523.795781 232.966563 
Q 523.795781 235.166562 525.995781 235.166562 
z
" style="fill: #ffffff; opacity: 0.9; stroke: #808080; stroke-linejoin: miter"/>
    </g>
    <g id="line2d_29">
     <path d="M 528.195781 192.337031 
L 539.195781 192.337031 
L 550.195781 192.337031 
" style="fill: none; stroke: #1f77b4; stroke-width: 2.5; stroke-linecap: square"/>
     <g>
      <use xlink:href="#mad04029d9a" x="539.195781" y="192.337031" style="fill: #1f77b4; stroke: #1f77b4"/>
     </g>
    </g>
    <g id="text_20">
     <!-- Tier A (Firm Load) -->
     <g transform="translate(558.995781 196.187031) scale(0.11 -0.11)">
      <defs>
       <path id="DejaVuSans-54" d="M -19 4666 
L 3928 4666 
L 3928 4134 
L 2272 4134 
L 2272 0 
L 1638 0 
L 1638 4134 
L -19 4134 
L -19 4666 
z
" transform="scale(0.015625)"/>
       <path id="DejaVuSans-69" d="M 603 3500 
L 1178 3500 
L 1178 0 
L 603 0 
L 603 3500 
z
M 603 4863 
L 1178 4863 
L 1178 4134 
L 603 4134 
L 603 4863 
z
" transform="scale(0.015625)"/>
       <path id="DejaVuSans-65" d="M 3597 1894 
L 3597 1613 
L 953 1613 
Q 991 1019 1311 708 
Q 1631 397 2203 397 
Q 2534 397 2845 478 
Q 3156 559 3463 722 
L 3463 178 
Q 3153 47 2828 -22 
Q 2503 -91 2169 -91 
Q 1331 -91 842 396 
Q 353 884 353 1716 
Q 353 2575 817 3079 
Q 1281 3584 2069 3584 
Q 2775 3584 3186 3129 
Q 3597 2675 3597 1894 
z
M 3022 2063 
Q 3016 2534 2758 2815 
Q 2500 3097 2075 3097 
Q 1594 3097 1305 2825 
Q 1016 2553 972 2059 
L 3022 2063 
z
" transform="scale(0.015625)"/>
       <path id="DejaVuSans-72" d="M 2631 2963 
Q 2534 3019 2420 3045 
Q 2306 3072 2169 3072 
Q 1681 3072 1420 2755 
Q 1159 2438 1159 1844 
L 1159 0 
L 581 0 
L 581 3500 
L 1159 3500 
L 1159 2956 
Q 1341 3275 1631 3429 
Q 1922 3584 2338 3584 
Q 2397 3584 2469 3576 
Q 2541 3569 2628 3553 
L 2631 2963 
z
" transform="scale(0.015625)"/>
       <path id="DejaVuSans-20" transform="scale(0.015625)"/>
       <path id="DejaVuSans-41" d="M 2188 4044 
L 1331 1722 
L 3047 1722 
L 2188 4044 
z
M 1831 4666 
L 2547 4666 
L 4325 0 
L 3669 0 
L 3244 1197 
L 1141 1197 
L 716 0 
L 50 0 
L 1831 4666 
z
" transform="scale(0.015625)"/>
       <path id="DejaVuSans-28" d="M 1984 4856 
Q 1566 4138 1362 3434 
Q 1159 2731 1159 2009 
Q 1159 1288 1364 580 
Q 1569 -128 1984 -844 
L 1484 -844 
Q 1016 -109 783 600 
Q 550 1309 550 2009 
Q 550 2706 781 3412 
Q 1013 4119 1484 4856 
L 1984 4856 
z
" transform="scale(0.015625)"/>
       <path id="DejaVuSans-46" d="M 628 4666 
L 3309 4666 
L 3309 4134 
L 1259 4134 
L 1259 2759 
L 3109 2759 
L 3109 2228 
L 1259 2228 
L 1259 0 
L 628 0 
L 628 4666 
z
" transform="scale(0.015625)"/>
       <path id="DejaVuSans-6d" d="M 3328 2828 
Q 3544 3216 3844 3400 
Q 4144 3584 4550 3584 
Q 5097 3584 5394 3201 
Q 5691 2819 5691 2113 
L 5691 0 
L 5113 0 
L 5113 2094 
Q 5113 2597 4934 2840 
Q 4756 3084 4391 3084 
Q 3944 3084 3684 2787 
Q 3425 2491 3425 1978 
L 3425 0 
L 2847 0 
L 2847 2094 
Q 2847 2600 2669 2842 
Q 2491 3084 2119 3084 
Q 1678 3084 1418 2786 
Q 1159 2488 1159 1978 
L 1159 0 
L 581 0 
L 581 3500 
L 1159 3500 
L 1159 2956 
Q 1356 3278 1631 3431 
Q 1906 3584 2284 3584 
Q 2666 3584 2933 3390 
Q 3200 3197 3328 2828 
z
" transform="scale(0.015625)"/>
       <path id="DejaVuSans-4c" d="M 628 4666 
L 1259 4666 
L 1259 531 
L 3531 531 
L 3531 0 
L 628 0 
L 628 4666 
z
" transform="scale(0.015625)"/>
       <path id="DejaVuSans-6f" d="M 1959 3097 
Q 1497 3097 1228 2736 
Q 959 2375 959 1747 
Q 959 1119 1226 758 
Q 1494 397 1959 397 
Q 2419 397 2687 759 
Q 2956 1122 2956 1747 
Q 2956 2369 2687 2733 
Q 2419 3097 1959 3097 
z
M 1959 3584 
Q 2709 3584 3137 3096 
Q 3566 2609 3566 1747 
Q 3566 888 3137 398 
Q 2709 -91 1959 -91 
Q 1206 -91 779 398 
Q 353 888 353 1747 
Q 353 2609 779 3096 
Q 1206 3584 1959 3584 
z
" transform="scale(0.015625)"/>
       <path id="DejaVuSans-61" d="M 2194 1759 
Q 1497 1759 1228 1600 
Q 959 1441 959 1056 
Q 959 750 1161 570 
Q 1363 391 1709 391 
Q 2188 391 2477 730 
Q 2766 1069 2766 1631 
L 2766 1759 
L 2194 1759 
z
M 3341 1997 
L 3341 0 
L 2766 0 
L 2766 531 
Q 2569 213 2275 61 
Q 1981 -91 1556 -91 
Q 1019 -91 701 211 
Q 384 513 384 1019 
Q 384 1609 779 1909 
Q 1175 2209 1959 2209 
L 2766 2209 
L 2766 2266 
Q 2766 2663 2505 2880 
Q 2244 3097 1772 3097 
Q 1472 3097 1187 3025 
Q 903 2953 641 2809 
L 641 3341 
Q 956 3463 1253 3523 
Q 1550 3584 1831 3584 
Q 2591 3584 2966 3190 
Q 3341 2797 3341 1997 
z
" transform="scale(0.015625)"/>
       <path id="DejaVuSans-64" d="M 2906 2969 
L 2906 4863 
L 3481 4863 
L 3481 0 
L 2906 0 
L 2906 525 
Q 2725 213 2448 61 
Q 2172 -91 1784 -91 
Q 1150 -91 751 415 
Q 353 922 353 1747 
Q 353 2572 751 3078 
Q 1150 3584 1784 3584 
Q 2172 3584 2448 3432 
Q 2725 3281 2906 2969 
z
M 947 1747 
Q 947 1113 1208 752 
Q 1469 391 1925 391 
Q 2381 391 2643 752 
Q 2906 1113 2906 1747 
Q 2906 2381 2643 2742 
Q 2381 3103 1925 3103 
Q 1469 3103 1208 2742 
Q 947 2381 947 1747 
z
" transform="scale(0.015625)"/>
       <path id="DejaVuSans-29" d="M 513 4856 
L 1013 4856 
Q 1481 4119 1714 3412 
Q 1947 2706 1947 2009 
Q 1947 1309 1714 600 
Q 1481 -109 1013 -844 
L 513 -844 
Q 928 -128 1133 580 
Q 1338 1288 1338 2009 
Q 1338 2731 1133 3434 
Q 928 4138 513 4856 
z
" transform="scale(0.015625)"/>
      </defs>
      <use xlink:href="#DejaVuSans-54"/>
      <use xlink:href="#DejaVuSans-69" transform="translate(57.958984 0)"/>
      <use xlink:href="#DejaVuSans-65" transform="translate(85.742188 0)"/>
      <use xlink:href="#DejaVuSans-72" transform="translate(147.265625 0)"/>
      <use xlink:href="#DejaVuSans-20" transform="translate(188.378906 0)"/>
      <use xlink:href="#DejaVuSans-41" transform="translate(220.166016 0)"/>
      <use xlink:href="#DejaVuSans-20" transform="translate(288.574219 0)"/>
      <use xlink:href="#DejaVuSans-28" transform="translate(320.361328 0)"/>
      <use xlink:href="#DejaVuSans-46" transform="translate(359.375 0)"/>
      <use xlink:href="#DejaVuSans-69" transform="translate(409.644531 0)"/>
      <use xlink:href="#DejaVuSans-72" transform="translate(437.427734 0)"/>
      <use xlink:href="#DejaVuSans-6d" transform="translate(476.791016 0)"/>
      <use xlink:href="#DejaVuSans-20" transform="translate(574.203125 0)"/>
      <use xlink:href="#DejaVuSans-4c" transform="translate(605.990234 0)"/>
      <use xlink:href="#DejaVuSans-6f" transform="translate(659.953125 0)"/>
      <use xlink:href="#DejaVuSans-61" transform="translate(721.134766 0)"/>
      <use xlink:href="#DejaVuSans-64" transform="translate(782.414062 0)"/>
      <use xlink:href="#DejaVuSans-29" transform="translate(845.890625 0)"/>
     </g>
    </g>
    <g id="line2d_30">
     <path d="M 528.195781 208.482969 
L 539.195781 208.482969 
L 550.195781 208.482969 
" style="fill: none; stroke: #ff7f0e; stroke-width: 2.5; stroke-linecap: square"/>
     <g>
      <use xlink:href="#m2259b74e34" x="539.195781" y="208.482969" style="fill: #ff7f0e; stroke: #ff7f0e; stroke-linejoin: miter"/>
     </g>
    </g>
    <g id="text_21">
     <!-- Tier B1 (Daily Flexible) -->
     <g transform="translate(558.995781 212.332969) scale(0.11 -0.11)">
      <defs>
       <path id="DejaVuSans-42" d="M 1259 2228 
L 1259 519 
L 2272 519 
Q 2781 519 3026 730 
Q 3272 941 3272 1375 
Q 3272 1813 3026 2020 
Q 2781 2228 2272 2228 
L 1259 2228 
z
M 1259 4147 
L 1259 2741 
L 2194 2741 
Q 2656 2741 2882 2914 
Q 3109 3088 3109 3444 
Q 3109 3797 2882 3972 
Q 2656 4147 2194 4147 
L 1259 4147 
z
M 628 4666 
L 2241 4666 
Q 2963 4666 3353 4366 
Q 3744 4066 3744 3513 
Q 3744 3084 3544 2831 
Q 3344 2578 2956 2516 
Q 3422 2416 3680 2098 
Q 3938 1781 3938 1306 
Q 3938 681 3513 340 
Q 3088 0 2303 0 
L 628 0 
L 628 4666 
z
" transform="scale(0.015625)"/>
       <path id="DejaVuSans-44" d="M 1259 4147 
L 1259 519 
L 2022 519 
Q 2988 519 3436 956 
Q 3884 1394 3884 2338 
Q 3884 3275 3436 3711 
Q 2988 4147 2022 4147 
L 1259 4147 
z
M 628 4666 
L 1925 4666 
Q 3281 4666 3915 4102 
Q 4550 3538 4550 2338 
Q 4550 1131 3912 565 
Q 3275 0 1925 0 
L 628 0 
L 628 4666 
z
" transform="scale(0.015625)"/>
       <path id="DejaVuSans-6c" d="M 603 4863 
L 1178 4863 
L 1178 0 
L 603 0 
L 603 4863 
z
" transform="scale(0.015625)"/>
       <path id="DejaVuSans-79" d="M 2059 -325 
Q 1816 -950 1584 -1140 
Q 1353 -1331 966 -1331 
L 506 -1331 
L 506 -850 
L 844 -850 
Q 1081 -850 1212 -737 
Q 1344 -625 1503 -206 
L 1606 56 
L 191 3500 
L 800 3500 
L 1894 763 
L 2988 3500 
L 3597 3500 
L 2059 -325 
z
" transform="scale(0.015625)"/>
       <path id="DejaVuSans-78" d="M 3513 3500 
L 2247 1797 
L 3578 0 
L 2900 0 
L 1881 1375 
L 863 0 
L 184 0 
L 1544 1831 
L 300 3500 
L 978 3500 
L 1906 2253 
L 2834 3500 
L 3513 3500 
z
" transform="scale(0.015625)"/>
       <path id="DejaVuSans-62" d="M 3116 1747 
Q 3116 2381 2855 2742 
Q 2594 3103 2138 3103 
Q 1681 3103 1420 2742 
Q 1159 2381 1159 1747 
Q 1159 1113 1420 752 
Q 1681 391 2138 391 
Q 2594 391 2855 752 
Q 3116 1113 3116 1747 
z
M 1159 2969 
Q 1341 3281 1617 3432 
Q 1894 3584 2278 3584 
Q 2916 3584 3314 3078 
Q 3713 2572 3713 1747 
Q 3713 922 3314 415 
Q 2916 -91 2278 -91 
Q 1894 -91 1617 61 
Q 1341 213 1159 525 
L 1159 0 
L 581 0 
L 581 4863 
L 1159 4863 
L 1159 2969 
z
" transform="scale(0.015625)"/>
      </defs>
      <use xlink:href="#DejaVuSans-54"/>
      <use xlink:href="#DejaVuSans-69" transform="translate(57.958984 0)"/>
      <use xlink:href="#DejaVuSans-65" transform="translate(85.742188 0)"/>
      <use xlink:href="#DejaVuSans-72" transform="translate(147.265625 0)"/>
      <use xlink:href="#DejaVuSans-20" transform="translate(188.378906 0)"/>
      <use xlink:href="#DejaVuSans-42" transform="translate(220.166016 0)"/>
      <use xlink:href="#DejaVuSans-31" transform="translate(288.769531 0)"/>
      <use xlink:href="#DejaVuSans-20" transform="translate(352.392578 0)"/>
      <use xlink:href="#DejaVuSans-28" transform="translate(384.179688 0)"/>
      <use xlink:href="#DejaVuSans-44" transform="translate(423.193359 0)"/>
      <use xlink:href="#DejaVuSans-61" transform="translate(500.195312 0)"/>
      <use xlink:href="#DejaVuSans-69" transform="translate(561.474609 0)"/>
      <use xlink:href="#DejaVuSans-6c" transform="translate(589.257812 0)"/>
      <use xlink:href="#DejaVuSans-79" transform="translate(617.041016 0)"/>
      <use xlink:href="#DejaVuSans-20" transform="translate(676.220703 0)"/>
      <use xlink:href="#DejaVuSans-46" transform="translate(708.007812 0)"/>
      <use xlink:href="#DejaVuSans-6c" transform="translate(765.527344 0)"/>
      <use xlink:href="#DejaVuSans-65" transform="translate(793.310547 0)"/>
      <use xlink:href="#DejaVuSans-78" transform="translate(853.083984 0)"/>
      <use xlink:href="#DejaVuSans-69" transform="translate(912.263672 0)"/>
      <use xlink:href="#DejaVuSans-62" transform="translate(940.046875 0)"/>
      <use xlink:href="#DejaVuSans-6c" transform="translate(1003.523438 0)"/>
      <use xlink:href="#DejaVuSans-65" transform="translate(1031.306641 0)"/>
      <use xlink:href="#DejaVuSans-29" transform="translate(1092.830078 0)"/>
     </g>
    </g>
    <g id="line2d_31">
     <path d="M 528.195781 224.628906 
L 539.195781 224.628906 
L 550.195781 224.628906 
" style="fill: none; stroke: #2ca02c; stroke-width: 2.5; stroke-linecap: square"/>
     <g>
      <use xlink:href="#m3321df9f88" x="539.195781" y="224.628906" style="fill: #2ca02c; stroke: #2ca02c; stroke-linejoin: miter"/>
     </g>
    </g>
    <g id="text_22">
     <!-- Tier B2 (Weekly Flexible) -->
     <g transform="translate(558.995781 228.478906) scale(0.11 -0.11)">
      <defs>
       <path id="DejaVuSans-57" d="M 213 4666 
L 850 4666 
L 1831 722 
L 2809 4666 
L 3519 4666 
L 4500 722 
L 5478 4666 
L 6119 4666 
L 4947 0 
L 4153 0 
L 3169 4050 
L 2175 0 
L 1381 0 
L 213 4666 
z
" transform="scale(0.015625)"/>
       <path id="DejaVuSans-6b" d="M 581 4863 
L 1159 4863 
L 1159 1991 
L 2875 3500 
L 3609 3500 
L 1753 1863 
L 3688 0 
L 2938 0 
L 1159 1709 
L 1159 0 
L 581 0 
L 581 4863 
z
" transform="scale(0.015625)"/>
      </defs>
      <use xlink:href="#DejaVuSans-54"/>
      <use xlink:href="#DejaVuSans-69" transform="translate(57.958984 0)"/>
      <use xlink:href="#DejaVuSans-65" transform="translate(85.742188 0)"/>
      <use xlink:href="#DejaVuSans-72" transform="translate(147.265625 0)"/>
      <use xlink:href="#DejaVuSans-20" transform="translate(188.378906 0)"/>
      <use xlink:href="#DejaVuSans-42" transform="translate(220.166016 0)"/>
      <use xlink:href="#DejaVuSans-32" transform="translate(288.769531 0)"/>
      <use xlink:href="#DejaVuSans-20" transform="translate(352.392578 0)"/>
      <use xlink:href="#DejaVuSans-28" transform="translate(384.179688 0)"/>
      <use xlink:href="#DejaVuSans-57" transform="translate(423.193359 0)"/>
      <use xlink:href="#DejaVuSans-65" transform="translate(516.195312 0)"/>
      <use xlink:href="#DejaVuSans-65" transform="translate(577.71875 0)"/>
      <use xlink:href="#DejaVuSans-6b" transform="translate(639.242188 0)"/>
      <use xlink:href="#DejaVuSans-6c" transform="translate(697.152344 0)"/>
      <use xlink:href="#DejaVuSans-79" transform="translate(724.935547 0)"/>
      <use xlink:href="#DejaVuSans-20" transform="translate(784.115234 0)"/>
      <use xlink:href="#DejaVuSans-46" transform="translate(815.902344 0)"/>
      <use xlink:href="#DejaVuSans-6c" transform="translate(873.421875 0)"/>
      <use xlink:href="#DejaVuSans-65" transform="translate(901.205078 0)"/>
      <use xlink:href="#DejaVuSans-78" transform="translate(960.978516 0)"/>
      <use xlink:href="#DejaVuSans-69" transform="translate(1020.158203 0)"/>
      <use xlink:href="#DejaVuSans-62" transform="translate(1047.941406 0)"/>
      <use xlink:href="#DejaVuSans-6c" transform="translate(1111.417969 0)"/>
      <use xlink:href="#DejaVuSans-65" transform="translate(1139.201172 0)"/>
      <use xlink:href="#DejaVuSans-29" transform="translate(1200.724609 0)"/>
     </g>
    </g>
   </g>
  </g>
 </g>
 <defs>
  <clipPath id="p3de727a17f">
   <rect x="48.995" y="33.597656" width="656.275" height="351.4"/>
  </clipPath>
 </defs>
</svg>
