<?xml version="1.0" encoding="utf-8" standalone="no"?>
<!DOCTYPE svg PUBLIC "-//W3C//DTD SVG 1.1//EN"
  "http://www.w3.org/Graphics/SVG/1.1/DTD/svg11.dtd">
<svg xmlns:xlink="http://www.w3.org/1999/xlink" width="713.408437pt" height="425.347812pt" viewBox="0 0 713.408437 425.347812" xmlns="http://www.w3.org/2000/svg" version="1.1">
 <metadata>
  <rdf:RDF xmlns:dc="http://purl.org/dc/elements/1.1/" xmlns:cc="http://creativecommons.org/ns#" xmlns:rdf="http://www.w3.org/1999/02/22-rdf-syntax-ns#">
   <cc:Work>
    <dc:type rdf:resource="http://purl.org/dc/dcmitype/StillImage"/>
    <dc:date>2026-05-18T14:14:39.699418</dc:date>
    <dc:format>image/svg+xml</dc:format>
    <dc:creator>
     <cc:Agent>
      <dc:title>Matplotlib v3.10.8, https://matplotlib.org/</dc:title>
     </cc:Agent>
    </dc:creator>
   </cc:Work>
  </rdf:RDF>
 </metadata>
 <defs>
  <style type="text/css">*{stroke-linejoin: round; stroke-linecap: butt}</style>
 </defs>
 <g id="figure_1">
  <g id="patch_1">
   <path d="M -0 425.347812 
L 713.408437 425.347812 
L 713.408437 0 
L -0 0 
z
" style="fill: #ffffff"/>
  </g>
  <g id="axes_1">
   <g id="patch_2">
    <path d="M 47.933438 386.737812 
L 706.208438 386.737812 
L 706.208438 32.837812 
L 47.933438 32.837812 
z
" style="fill: #ffffff"/>
   </g>
   <g id="FillBetweenPolyCollection_1">
    <defs>
     <path id="m416eb6820f" d="M 77.855028 -189.839139 
L 77.855028 -188.648358 
L 106.351782 -210.876263 
L 177.593665 -244.21812 
L 248.835548 -260.889049 
L 320.077431 -277.559978 
L 498.182139 -305.344859 
L 676.286847 -310.901835 
L 676.286847 -333.526667 
L 676.286847 -333.526667 
L 498.182139 -323.603495 
L 320.077431 -289.070857 
L 248.835548 -268.827586 
L 177.593665 -247.393535 
L 106.351782 -211.27319 
L 77.855028 -189.839139 
z
" style="stroke: #f39c12; stroke-opacity: 0.15"/>
    </defs>
    <g clip-path="url(#p1e067cfb0d)">
     <use xlink:href="#m416eb6820f" x="0" y="425.347812" style="fill: #f39c12; fill-opacity: 0.15; stroke: #f39c12; stroke-opacity: 0.15"/>
    </g>
   </g>
   <g id="matplotlib.axis_1">
    <g id="xtick_1">
     <g id="line2d_1">
      <defs>
       <path id="m0d0a00eae2" d="M 0 0 
L 0 3.5 
" style="stroke: #000000; stroke-width: 0.8"/>
      </defs>
      <g>
       <use xlink:href="#m0d0a00eae2" x="77.855028" y="386.737812" style="stroke: #000000; stroke-width: 0.8"/>
      </g>
     </g>
     <g id="text_1">
      <!-- 16 -->
      <g style="fill: #333333" transform="translate(71.492528 401.33625) scale(0.1 -0.1)">
       <defs>
        <path id="DejaVuSans-31" d="M 794 531 
L 1825 531 
L 1825 4091 
L 703 3866 
L 703 4441 
L 1819 4666 
L 2450 4666 
L 2450 531 
L 3481 531 
L 3481 0 
L 794 0 
L 794 531 
z
" transform="scale(0.015625)"/>
        <path id="DejaVuSans-36" d="M 2113 2584 
Q 1688 2584 1439 2293 
Q 1191 2003 1191 1497 
Q 1191 994 1439 701 
Q 1688 409 2113 409 
Q 2538 409 2786 701 
Q 3034 994 3034 1497 
Q 3034 2003 2786 2293 
Q 2538 2584 2113 2584 
z
M 3366 4563 
L 3366 3988 
Q 3128 4100 2886 4159 
Q 2644 4219 2406 4219 
Q 1781 4219 1451 3797 
Q 1122 3375 1075 2522 
Q 1259 2794 1537 2939 
Q 1816 3084 2150 3084 
Q 2853 3084 3261 2657 
Q 3669 2231 3669 1497 
Q 3669 778 3244 343 
Q 2819 -91 2113 -91 
Q 1303 -91 875 529 
Q 447 1150 447 2328 
Q 447 3434 972 4092 
Q 1497 4750 2381 4750 
Q 2619 4750 2861 4703 
Q 3103 4656 3366 4563 
z
" transform="scale(0.015625)"/>
       </defs>
       <use xlink:href="#DejaVuSans-31"/>
       <use xlink:href="#DejaVuSans-36" transform="translate(63.623047 0)"/>
      </g>
     </g>
    </g>
    <g id="xtick_2">
     <g id="line2d_2">
      <g>
       <use xlink:href="#m0d0a00eae2" x="106.351782" y="386.737812" style="stroke: #000000; stroke-width: 0.8"/>
      </g>
     </g>
     <g id="text_2">
      <!-- 20 -->
      <g style="fill: #333333" transform="translate(99.989282 401.33625) scale(0.1 -0.1)">
       <defs>
        <path id="DejaVuSans-32" d="M 1228 531 
L 3431 531 
L 3431 0 
L 469 0 
L 469 531 
Q 828 903 1448 1529 
Q 2069 2156 2228 2338 
Q 2531 2678 2651 2914 
Q 2772 3150 2772 3378 
Q 2772 3750 2511 3984 
Q 2250 4219 1831 4219 
Q 1534 4219 1204 4116 
Q 875 4013 500 3803 
L 500 4441 
Q 881 4594 1212 4672 
Q 1544 4750 1819 4750 
Q 2544 4750 2975 4387 
Q 3406 4025 3406 3419 
Q 3406 3131 3298 2873 
Q 3191 2616 2906 2266 
Q 2828 2175 2409 1742 
Q 1991 1309 1228 531 
z
" transform="scale(0.015625)"/>
        <path id="DejaVuSans-30" d="M 2034 4250 
Q 1547 4250 1301 3770 
Q 1056 3291 1056 2328 
Q 1056 1369 1301 889 
Q 1547 409 2034 409 
Q 2525 409 2770 889 
Q 3016 1369 3016 2328 
Q 3016 3291 2770 3770 
Q 2525 4250 2034 4250 
z
M 2034 4750 
Q 2819 4750 3233 4129 
Q 3647 3509 3647 2328 
Q 3647 1150 3233 529 
Q 2819 -91 2034 -91 
Q 1250 -91 836 529 
Q 422 1150 422 2328 
Q 422 3509 836 4129 
Q 1250 4750 2034 4750 
z
" transform="scale(0.015625)"/>
       </defs>
       <use xlink:href="#DejaVuSans-32"/>
       <use xlink:href="#DejaVuSans-30" transform="translate(63.623047 0)"/>
      </g>
     </g>
    </g>
    <g id="xtick_3">
     <g id="line2d_3">
      <g>
       <use xlink:href="#m0d0a00eae2" x="177.593665" y="386.737812" style="stroke: #000000; stroke-width: 0.8"/>
      </g>
     </g>
     <g id="text_3">
      <!-- 30 -->
      <g style="fill: #333333" transform="translate(171.231165 401.33625) scale(0.1 -0.1)">
       <defs>
        <path id="DejaVuSans-33" d="M 2597 2516 
Q 3050 2419 3304 2112 
Q 3559 1806 3559 1356 
Q 3559 666 3084 287 
Q 2609 -91 1734 -91 
Q 1441 -91 1130 -33 
Q 819 25 488 141 
L 488 750 
Q 750 597 1062 519 
Q 1375 441 1716 441 
Q 2309 441 2620 675 
Q 2931 909 2931 1356 
Q 2931 1769 2642 2001 
Q 2353 2234 1838 2234 
L 1294 2234 
L 1294 2753 
L 1863 2753 
Q 2328 2753 2575 2939 
Q 2822 3125 2822 3475 
Q 2822 3834 2567 4026 
Q 2313 4219 1838 4219 
Q 1578 4219 1281 4162 
Q 984 4106 628 3988 
L 628 4550 
Q 988 4650 1302 4700 
Q 1616 4750 1894 4750 
Q 2613 4750 3031 4423 
Q 3450 4097 3450 3541 
Q 3450 3153 3228 2886 
Q 3006 2619 2597 2516 
z
" transform="scale(0.015625)"/>
       </defs>
       <use xlink:href="#DejaVuSans-33"/>
       <use xlink:href="#DejaVuSans-30" transform="translate(63.623047 0)"/>
      </g>
     </g>
    </g>
    <g id="xtick_4">
     <g id="line2d_4">
      <g>
       <use xlink:href="#m0d0a00eae2" x="248.835548" y="386.737812" style="stroke: #000000; stroke-width: 0.8"/>
      </g>
     </g>
     <g id="text_4">
      <!-- 40 -->
      <g style="fill: #333333" transform="translate(242.473048 401.33625) scale(0.1 -0.1)">
       <defs>
        <path id="DejaVuSans-34" d="M 2419 4116 
L 825 1625 
L 2419 1625 
L 2419 4116 
z
M 2253 4666 
L 3047 4666 
L 3047 1625 
L 3713 1625 
L 3713 1100 
L 3047 1100 
L 3047 0 
L 2419 0 
L 2419 1100 
L 313 1100 
L 313 1709 
L 2253 4666 
z
" transform="scale(0.015625)"/>
       </defs>
       <use xlink:href="#DejaVuSans-34"/>
       <use xlink:href="#DejaVuSans-30" transform="translate(63.623047 0)"/>
      </g>
     </g>
    </g>
    <g id="xtick_5">
     <g id="line2d_5">
      <g>
       <use xlink:href="#m0d0a00eae2" x="320.077431" y="386.737812" style="stroke: #000000; stroke-width: 0.8"/>
      </g>
     </g>
     <g id="text_5">
      <!-- 50 -->
      <g style="fill: #333333" transform="translate(313.714931 401.33625) scale(0.1 -0.1)">
       <defs>
        <path id="DejaVuSans-35" d="M 691 4666 
L 3169 4666 
L 3169 4134 
L 1269 4134 
L 1269 2991 
Q 1406 3038 1543 3061 
Q 1681 3084 1819 3084 
Q 2600 3084 3056 2656 
Q 3513 2228 3513 1497 
Q 3513 744 3044 326 
Q 2575 -91 1722 -91 
Q 1428 -91 1123 -41 
Q 819 9 494 109 
L 494 744 
Q 775 591 1075 516 
Q 1375 441 1709 441 
Q 2250 441 2565 725 
Q 2881 1009 2881 1497 
Q 2881 1984 2565 2268 
Q 2250 2553 1709 2553 
Q 1456 2553 1204 2497 
Q 953 2441 691 2322 
L 691 4666 
z
" transform="scale(0.015625)"/>
       </defs>
       <use xlink:href="#DejaVuSans-35"/>
       <use xlink:href="#DejaVuSans-30" transform="translate(63.623047 0)"/>
      </g>
     </g>
    </g>
    <g id="xtick_6">
     <g id="line2d_6">
      <g>
       <use xlink:href="#m0d0a00eae2" x="498.182139" y="386.737812" style="stroke: #000000; stroke-width: 0.8"/>
      </g>
     </g>
     <g id="text_6">
      <!-- 75 -->
      <g style="fill: #333333" transform="translate(491.819639 401.33625) scale(0.1 -0.1)">
       <defs>
        <path id="DejaVuSans-37" d="M 525 4666 
L 3525 4666 
L 3525 4397 
L 1831 0 
L 1172 0 
L 2766 4134 
L 525 4134 
L 525 4666 
z
" transform="scale(0.015625)"/>
       </defs>
       <use xlink:href="#DejaVuSans-37"/>
       <use xlink:href="#DejaVuSans-35" transform="translate(63.623047 0)"/>
      </g>
     </g>
    </g>
    <g id="xtick_7">
     <g id="line2d_7">
      <g>
       <use xlink:href="#m0d0a00eae2" x="676.286847" y="386.737812" style="stroke: #000000; stroke-width: 0.8"/>
      </g>
     </g>
     <g id="text_7">
      <!-- 100 -->
      <g style="fill: #333333" transform="translate(666.743097 401.33625) scale(0.1 -0.1)">
       <use xlink:href="#DejaVuSans-31"/>
       <use xlink:href="#DejaVuSans-30" transform="translate(63.623047 0)"/>
       <use xlink:href="#DejaVuSans-30" transform="translate(127.246094 0)"/>
      </g>
     </g>
    </g>
    <g id="text_8">
     <!-- Installed IT Capacity (MW) -->
     <g style="fill: #444444" transform="translate(295.191406 415.774219) scale(0.11 -0.11)">
      <defs>
       <path id="DejaVuSans-Bold-49" d="M 588 4666 
L 1791 4666 
L 1791 0 
L 588 0 
L 588 4666 
z
" transform="scale(0.015625)"/>
       <path id="DejaVuSans-Bold-6e" d="M 4056 2131 
L 4056 0 
L 2931 0 
L 2931 347 
L 2931 1631 
Q 2931 2084 2911 2256 
Q 2891 2428 2841 2509 
Q 2775 2619 2662 2680 
Q 2550 2741 2406 2741 
Q 2056 2741 1856 2470 
Q 1656 2200 1656 1722 
L 1656 0 
L 538 0 
L 538 3500 
L 1656 3500 
L 1656 2988 
Q 1909 3294 2193 3439 
Q 2478 3584 2822 3584 
Q 3428 3584 3742 3212 
Q 4056 2841 4056 2131 
z
" transform="scale(0.015625)"/>
       <path id="DejaVuSans-Bold-73" d="M 3272 3391 
L 3272 2541 
Q 2913 2691 2578 2766 
Q 2244 2841 1947 2841 
Q 1628 2841 1473 2761 
Q 1319 2681 1319 2516 
Q 1319 2381 1436 2309 
Q 1553 2238 1856 2203 
L 2053 2175 
Q 2913 2066 3209 1816 
Q 3506 1566 3506 1031 
Q 3506 472 3093 190 
Q 2681 -91 1863 -91 
Q 1516 -91 1145 -36 
Q 775 19 384 128 
L 384 978 
Q 719 816 1070 734 
Q 1422 653 1784 653 
Q 2113 653 2278 743 
Q 2444 834 2444 1013 
Q 2444 1163 2330 1236 
Q 2216 1309 1875 1350 
L 1678 1375 
Q 931 1469 631 1722 
Q 331 1975 331 2491 
Q 331 3047 712 3315 
Q 1094 3584 1881 3584 
Q 2191 3584 2531 3537 
Q 2872 3491 3272 3391 
z
" transform="scale(0.015625)"/>
       <path id="DejaVuSans-Bold-74" d="M 1759 4494 
L 1759 3500 
L 2913 3500 
L 2913 2700 
L 1759 2700 
L 1759 1216 
Q 1759 972 1856 886 
Q 1953 800 2241 800 
L 2816 800 
L 2816 0 
L 1856 0 
Q 1194 0 917 276 
Q 641 553 641 1216 
L 641 2700 
L 84 2700 
L 84 3500 
L 641 3500 
L 641 4494 
L 1759 4494 
z
" transform="scale(0.015625)"/>
       <path id="DejaVuSans-Bold-61" d="M 2106 1575 
Q 1756 1575 1579 1456 
Q 1403 1338 1403 1106 
Q 1403 894 1545 773 
Q 1688 653 1941 653 
Q 2256 653 2472 879 
Q 2688 1106 2688 1447 
L 2688 1575 
L 2106 1575 
z
M 3816 1997 
L 3816 0 
L 2688 0 
L 2688 519 
Q 2463 200 2181 54 
Q 1900 -91 1497 -91 
Q 953 -91 614 226 
Q 275 544 275 1050 
Q 275 1666 698 1953 
Q 1122 2241 2028 2241 
L 2688 2241 
L 2688 2328 
Q 2688 2594 2478 2717 
Q 2269 2841 1825 2841 
Q 1466 2841 1156 2769 
Q 847 2697 581 2553 
L 581 3406 
Q 941 3494 1303 3539 
Q 1666 3584 2028 3584 
Q 2975 3584 3395 3211 
Q 3816 2838 3816 1997 
z
" transform="scale(0.015625)"/>
       <path id="DejaVuSans-Bold-6c" d="M 538 4863 
L 1656 4863 
L 1656 0 
L 538 0 
L 538 4863 
z
" transform="scale(0.015625)"/>
       <path id="DejaVuSans-Bold-65" d="M 4031 1759 
L 4031 1441 
L 1416 1441 
Q 1456 1047 1700 850 
Q 1944 653 2381 653 
Q 2734 653 3104 758 
Q 3475 863 3866 1075 
L 3866 213 
Q 3469 63 3072 -14 
Q 2675 -91 2278 -91 
Q 1328 -91 801 392 
Q 275 875 275 1747 
Q 275 2603 792 3093 
Q 1309 3584 2216 3584 
Q 3041 3584 3536 3087 
Q 4031 2591 4031 1759 
z
M 2881 2131 
Q 2881 2450 2695 2645 
Q 2509 2841 2209 2841 
Q 1884 2841 1681 2658 
Q 1478 2475 1428 2131 
L 2881 2131 
z
" transform="scale(0.015625)"/>
       <path id="DejaVuSans-Bold-64" d="M 2919 2988 
L 2919 4863 
L 4044 4863 
L 4044 0 
L 2919 0 
L 2919 506 
Q 2688 197 2409 53 
Q 2131 -91 1766 -91 
Q 1119 -91 703 423 
Q 288 938 288 1747 
Q 288 2556 703 3070 
Q 1119 3584 1766 3584 
Q 2128 3584 2408 3439 
Q 2688 3294 2919 2988 
z
M 2181 722 
Q 2541 722 2730 984 
Q 2919 1247 2919 1747 
Q 2919 2247 2730 2509 
Q 2541 2772 2181 2772 
Q 1825 2772 1636 2509 
Q 1447 2247 1447 1747 
Q 1447 1247 1636 984 
Q 1825 722 2181 722 
z
" transform="scale(0.015625)"/>
       <path id="DejaVuSans-Bold-20" transform="scale(0.015625)"/>
       <path id="DejaVuSans-Bold-54" d="M 31 4666 
L 4331 4666 
L 4331 3756 
L 2784 3756 
L 2784 0 
L 1581 0 
L 1581 3756 
L 31 3756 
L 31 4666 
z
" transform="scale(0.015625)"/>
       <path id="DejaVuSans-Bold-43" d="M 4288 256 
Q 3956 84 3597 -3 
Q 3238 -91 2847 -91 
Q 1681 -91 1000 561 
Q 319 1213 319 2328 
Q 319 3447 1000 4098 
Q 1681 4750 2847 4750 
Q 3238 4750 3597 4662 
Q 3956 4575 4288 4403 
L 4288 3438 
Q 3953 3666 3628 3772 
Q 3303 3878 2944 3878 
Q 2300 3878 1931 3465 
Q 1563 3053 1563 2328 
Q 1563 1606 1931 1193 
Q 2300 781 2944 781 
Q 3303 781 3628 887 
Q 3953 994 4288 1222 
L 4288 256 
z
" transform="scale(0.015625)"/>
       <path id="DejaVuSans-Bold-70" d="M 1656 506 
L 1656 -1331 
L 538 -1331 
L 538 3500 
L 1656 3500 
L 1656 2988 
Q 1888 3294 2169 3439 
Q 2450 3584 2816 3584 
Q 3463 3584 3878 3070 
Q 4294 2556 4294 1747 
Q 4294 938 3878 423 
Q 3463 -91 2816 -91 
Q 2450 -91 2169 54 
Q 1888 200 1656 506 
z
M 2400 2772 
Q 2041 2772 1848 2508 
Q 1656 2244 1656 1747 
Q 1656 1250 1848 986 
Q 2041 722 2400 722 
Q 2759 722 2948 984 
Q 3138 1247 3138 1747 
Q 3138 2247 2948 2509 
Q 2759 2772 2400 2772 
z
" transform="scale(0.015625)"/>
       <path id="DejaVuSans-Bold-63" d="M 3366 3391 
L 3366 2478 
Q 3138 2634 2908 2709 
Q 2678 2784 2431 2784 
Q 1963 2784 1702 2511 
Q 1441 2238 1441 1747 
Q 1441 1256 1702 982 
Q 1963 709 2431 709 
Q 2694 709 2930 787 
Q 3166 866 3366 1019 
L 3366 103 
Q 3103 6 2833 -42 
Q 2563 -91 2291 -91 
Q 1344 -91 809 395 
Q 275 881 275 1747 
Q 275 2613 809 3098 
Q 1344 3584 2291 3584 
Q 2566 3584 2833 3536 
Q 3100 3488 3366 3391 
z
" transform="scale(0.015625)"/>
       <path id="DejaVuSans-Bold-69" d="M 538 3500 
L 1656 3500 
L 1656 0 
L 538 0 
L 538 3500 
z
M 538 4863 
L 1656 4863 
L 1656 3950 
L 538 3950 
L 538 4863 
z
" transform="scale(0.015625)"/>
       <path id="DejaVuSans-Bold-79" d="M 78 3500 
L 1197 3500 
L 2138 1125 
L 2938 3500 
L 4056 3500 
L 2584 -331 
Q 2363 -916 2067 -1148 
Q 1772 -1381 1288 -1381 
L 641 -1381 
L 641 -647 
L 991 -647 
Q 1275 -647 1404 -556 
Q 1534 -466 1606 -231 
L 1638 -134 
L 78 3500 
z
" transform="scale(0.015625)"/>
       <path id="DejaVuSans-Bold-28" d="M 2413 -844 
L 1484 -844 
Q 1006 -72 778 623 
Q 550 1319 550 2003 
Q 550 2688 779 3389 
Q 1009 4091 1484 4856 
L 2413 4856 
Q 2013 4116 1813 3408 
Q 1613 2700 1613 2009 
Q 1613 1319 1811 609 
Q 2009 -100 2413 -844 
z
" transform="scale(0.015625)"/>
       <path id="DejaVuSans-Bold-4d" d="M 588 4666 
L 2119 4666 
L 3181 2169 
L 4250 4666 
L 5778 4666 
L 5778 0 
L 4641 0 
L 4641 3413 
L 3566 897 
L 2803 897 
L 1728 3413 
L 1728 0 
L 588 0 
L 588 4666 
z
" transform="scale(0.015625)"/>
       <path id="DejaVuSans-Bold-57" d="M 191 4666 
L 1344 4666 
L 2150 1275 
L 2950 4666 
L 4109 4666 
L 4909 1275 
L 5716 4666 
L 6859 4666 
L 5759 0 
L 4372 0 
L 3525 3547 
L 2688 0 
L 1300 0 
L 191 4666 
z
" transform="scale(0.015625)"/>
       <path id="DejaVuSans-Bold-29" d="M 513 -844 
Q 913 -100 1113 609 
Q 1313 1319 1313 2009 
Q 1313 2700 1113 3408 
Q 913 4116 513 4856 
L 1441 4856 
Q 1916 4091 2145 3389 
Q 2375 2688 2375 2003 
Q 2375 1319 2147 623 
Q 1919 -72 1441 -844 
L 513 -844 
z
" transform="scale(0.015625)"/>
      </defs>
      <use xlink:href="#DejaVuSans-Bold-49"/>
      <use xlink:href="#DejaVuSans-Bold-6e" transform="translate(37.207031 0)"/>
      <use xlink:href="#DejaVuSans-Bold-73" transform="translate(108.398438 0)"/>
      <use xlink:href="#DejaVuSans-Bold-74" transform="translate(167.919922 0)"/>
      <use xlink:href="#DejaVuSans-Bold-61" transform="translate(215.722656 0)"/>
      <use xlink:href="#DejaVuSans-Bold-6c" transform="translate(283.203125 0)"/>
      <use xlink:href="#DejaVuSans-Bold-6c" transform="translate(317.480469 0)"/>
      <use xlink:href="#DejaVuSans-Bold-65" transform="translate(351.757812 0)"/>
      <use xlink:href="#DejaVuSans-Bold-64" transform="translate(419.580078 0)"/>
      <use xlink:href="#DejaVuSans-Bold-20" transform="translate(491.162109 0)"/>
      <use xlink:href="#DejaVuSans-Bold-49" transform="translate(525.976562 0)"/>
      <use xlink:href="#DejaVuSans-Bold-54" transform="translate(563.183594 0)"/>
      <use xlink:href="#DejaVuSans-Bold-20" transform="translate(631.396484 0)"/>
      <use xlink:href="#DejaVuSans-Bold-43" transform="translate(666.210938 0)"/>
      <use xlink:href="#DejaVuSans-Bold-61" transform="translate(739.599609 0)"/>
      <use xlink:href="#DejaVuSans-Bold-70" transform="translate(807.080078 0)"/>
      <use xlink:href="#DejaVuSans-Bold-61" transform="translate(878.662109 0)"/>
      <use xlink:href="#DejaVuSans-Bold-63" transform="translate(946.142578 0)"/>
      <use xlink:href="#DejaVuSans-Bold-69" transform="translate(1005.419922 0)"/>
      <use xlink:href="#DejaVuSans-Bold-74" transform="translate(1039.697266 0)"/>
      <use xlink:href="#DejaVuSans-Bold-79" transform="translate(1087.5 0)"/>
      <use xlink:href="#DejaVuSans-Bold-20" transform="translate(1152.685547 0)"/>
      <use xlink:href="#DejaVuSans-Bold-28" transform="translate(1187.5 0)"/>
      <use xlink:href="#DejaVuSans-Bold-4d" transform="translate(1233.203125 0)"/>
      <use xlink:href="#DejaVuSans-Bold-57" transform="translate(1332.714844 0)"/>
      <use xlink:href="#DejaVuSans-Bold-29" transform="translate(1443.017578 0)"/>
     </g>
    </g>
   </g>
   <g id="matplotlib.axis_2">
    <g id="ytick_1">
     <g id="line2d_8">
      <path d="M 47.933438 386.737812 
L 706.208438 386.737812 
" clip-path="url(#p1e067cfb0d)" style="fill: none; stroke: #d3d3d3; stroke-opacity: 0.4; stroke-width: 0.8; stroke-linecap: square"/>
     </g>
     <g id="line2d_9">
      <defs>
       <path id="m0f548d3745" d="M 0 0 
L -3.5 0 
" style="stroke: #000000; stroke-width: 0.8"/>
      </defs>
      <g>
       <use xlink:href="#m0f548d3745" x="47.933438" y="386.737812" style="stroke: #000000; stroke-width: 0.8"/>
      </g>
     </g>
     <g id="text_9">
      <!-- 0 -->
      <g style="fill: #333333" transform="translate(34.570938 390.537031) scale(0.1 -0.1)">
       <use xlink:href="#DejaVuSans-30"/>
      </g>
     </g>
    </g>
    <g id="ytick_2">
     <g id="line2d_10">
      <path d="M 47.933438 307.352438 
L 706.208438 307.352438 
" clip-path="url(#p1e067cfb0d)" style="fill: none; stroke: #d3d3d3; stroke-opacity: 0.4; stroke-width: 0.8; stroke-linecap: square"/>
     </g>
     <g id="line2d_11">
      <g>
       <use xlink:href="#m0f548d3745" x="47.933438" y="307.352438" style="stroke: #000000; stroke-width: 0.8"/>
      </g>
     </g>
     <g id="text_10">
      <!-- 200 -->
      <g style="fill: #333333" transform="translate(21.845938 311.151657) scale(0.1 -0.1)">
       <use xlink:href="#DejaVuSans-32"/>
       <use xlink:href="#DejaVuSans-30" transform="translate(63.623047 0)"/>
       <use xlink:href="#DejaVuSans-30" transform="translate(127.246094 0)"/>
      </g>
     </g>
    </g>
    <g id="ytick_3">
     <g id="line2d_12">
      <path d="M 47.933438 227.967063 
L 706.208438 227.967063 
" clip-path="url(#p1e067cfb0d)" style="fill: none; stroke: #d3d3d3; stroke-opacity: 0.4; stroke-width: 0.8; stroke-linecap: square"/>
     </g>
     <g id="line2d_13">
      <g>
       <use xlink:href="#m0f548d3745" x="47.933438" y="227.967063" style="stroke: #000000; stroke-width: 0.8"/>
      </g>
     </g>
     <g id="text_11">
      <!-- 400 -->
      <g style="fill: #333333" transform="translate(21.845938 231.766282) scale(0.1 -0.1)">
       <use xlink:href="#DejaVuSans-34"/>
       <use xlink:href="#DejaVuSans-30" transform="translate(63.623047 0)"/>
       <use xlink:href="#DejaVuSans-30" transform="translate(127.246094 0)"/>
      </g>
     </g>
    </g>
    <g id="ytick_4">
     <g id="line2d_14">
      <path d="M 47.933438 148.581689 
L 706.208438 148.581689 
" clip-path="url(#p1e067cfb0d)" style="fill: none; stroke: #d3d3d3; stroke-opacity: 0.4; stroke-width: 0.8; stroke-linecap: square"/>
     </g>
     <g id="line2d_15">
      <g>
       <use xlink:href="#m0f548d3745" x="47.933438" y="148.581689" style="stroke: #000000; stroke-width: 0.8"/>
      </g>
     </g>
     <g id="text_12">
      <!-- 600 -->
      <g style="fill: #333333" transform="translate(21.845938 152.380907) scale(0.1 -0.1)">
       <use xlink:href="#DejaVuSans-36"/>
       <use xlink:href="#DejaVuSans-30" transform="translate(63.623047 0)"/>
       <use xlink:href="#DejaVuSans-30" transform="translate(127.246094 0)"/>
      </g>
     </g>
    </g>
    <g id="ytick_5">
     <g id="line2d_16">
      <path d="M 47.933438 69.196314 
L 706.208438 69.196314 
" clip-path="url(#p1e067cfb0d)" style="fill: none; stroke: #d3d3d3; stroke-opacity: 0.4; stroke-width: 0.8; stroke-linecap: square"/>
     </g>
     <g id="line2d_17">
      <g>
       <use xlink:href="#m0f548d3745" x="47.933438" y="69.196314" style="stroke: #000000; stroke-width: 0.8"/>
      </g>
     </g>
     <g id="text_13">
      <!-- 800 -->
      <g style="fill: #333333" transform="translate(21.845938 72.995533) scale(0.1 -0.1)">
       <defs>
        <path id="DejaVuSans-38" d="M 2034 2216 
Q 1584 2216 1326 1975 
Q 1069 1734 1069 1313 
Q 1069 891 1326 650 
Q 1584 409 2034 409 
Q 2484 409 2743 651 
Q 3003 894 3003 1313 
Q 3003 1734 2745 1975 
Q 2488 2216 2034 2216 
z
M 1403 2484 
Q 997 2584 770 2862 
Q 544 3141 544 3541 
Q 544 4100 942 4425 
Q 1341 4750 2034 4750 
Q 2731 4750 3128 4425 
Q 3525 4100 3525 3541 
Q 3525 3141 3298 2862 
Q 3072 2584 2669 2484 
Q 3125 2378 3379 2068 
Q 3634 1759 3634 1313 
Q 3634 634 3220 271 
Q 2806 -91 2034 -91 
Q 1263 -91 848 271 
Q 434 634 434 1313 
Q 434 1759 690 2068 
Q 947 2378 1403 2484 
z
M 1172 3481 
Q 1172 3119 1398 2916 
Q 1625 2713 2034 2713 
Q 2441 2713 2670 2916 
Q 2900 3119 2900 3481 
Q 2900 3844 2670 4047 
Q 2441 4250 2034 4250 
Q 1625 4250 1398 4047 
Q 1172 3844 1172 3481 
z
" transform="scale(0.015625)"/>
       </defs>
       <use xlink:href="#DejaVuSans-38"/>
       <use xlink:href="#DejaVuSans-30" transform="translate(63.623047 0)"/>
       <use xlink:href="#DejaVuSans-30" transform="translate(127.246094 0)"/>
      </g>
     </g>
    </g>
    <g id="text_14">
     <!-- Annual Gross Revenue (Millions €) -->
     <g style="fill: #444444" transform="translate(15.558281 316.277266) rotate(-90) scale(0.11 -0.11)">
      <defs>
       <path id="DejaVuSans-Bold-41" d="M 3419 850 
L 1538 850 
L 1241 0 
L 31 0 
L 1759 4666 
L 3194 4666 
L 4922 0 
L 3713 0 
L 3419 850 
z
M 1838 1716 
L 3116 1716 
L 2478 3572 
L 1838 1716 
z
" transform="scale(0.015625)"/>
       <path id="DejaVuSans-Bold-75" d="M 500 1363 
L 500 3500 
L 1625 3500 
L 1625 3150 
Q 1625 2866 1622 2436 
Q 1619 2006 1619 1863 
Q 1619 1441 1641 1255 
Q 1663 1069 1716 984 
Q 1784 875 1895 815 
Q 2006 756 2150 756 
Q 2500 756 2700 1025 
Q 2900 1294 2900 1772 
L 2900 3500 
L 4019 3500 
L 4019 0 
L 2900 0 
L 2900 506 
Q 2647 200 2364 54 
Q 2081 -91 1741 -91 
Q 1134 -91 817 281 
Q 500 653 500 1363 
z
" transform="scale(0.015625)"/>
       <path id="DejaVuSans-Bold-47" d="M 4781 347 
Q 4331 128 3847 18 
Q 3363 -91 2847 -91 
Q 1681 -91 1000 561 
Q 319 1213 319 2328 
Q 319 3456 1012 4103 
Q 1706 4750 2913 4750 
Q 3378 4750 3804 4662 
Q 4231 4575 4609 4403 
L 4609 3438 
Q 4219 3659 3833 3768 
Q 3447 3878 3059 3878 
Q 2341 3878 1952 3476 
Q 1563 3075 1563 2328 
Q 1563 1588 1938 1184 
Q 2313 781 3003 781 
Q 3191 781 3352 804 
Q 3513 828 3641 878 
L 3641 1784 
L 2906 1784 
L 2906 2591 
L 4781 2591 
L 4781 347 
z
" transform="scale(0.015625)"/>
       <path id="DejaVuSans-Bold-72" d="M 3138 2547 
Q 2991 2616 2845 2648 
Q 2700 2681 2553 2681 
Q 2122 2681 1889 2404 
Q 1656 2128 1656 1613 
L 1656 0 
L 538 0 
L 538 3500 
L 1656 3500 
L 1656 2925 
Q 1872 3269 2151 3426 
Q 2431 3584 2822 3584 
Q 2878 3584 2943 3579 
Q 3009 3575 3134 3559 
L 3138 2547 
z
" transform="scale(0.015625)"/>
       <path id="DejaVuSans-Bold-6f" d="M 2203 2784 
Q 1831 2784 1636 2517 
Q 1441 2250 1441 1747 
Q 1441 1244 1636 976 
Q 1831 709 2203 709 
Q 2569 709 2762 976 
Q 2956 1244 2956 1747 
Q 2956 2250 2762 2517 
Q 2569 2784 2203 2784 
z
M 2203 3584 
Q 3106 3584 3614 3096 
Q 4122 2609 4122 1747 
Q 4122 884 3614 396 
Q 3106 -91 2203 -91 
Q 1297 -91 786 396 
Q 275 884 275 1747 
Q 275 2609 786 3096 
Q 1297 3584 2203 3584 
z
" transform="scale(0.015625)"/>
       <path id="DejaVuSans-Bold-52" d="M 2297 2597 
Q 2675 2597 2839 2737 
Q 3003 2878 3003 3200 
Q 3003 3519 2839 3656 
Q 2675 3794 2297 3794 
L 1791 3794 
L 1791 2597 
L 2297 2597 
z
M 1791 1766 
L 1791 0 
L 588 0 
L 588 4666 
L 2425 4666 
Q 3347 4666 3776 4356 
Q 4206 4047 4206 3378 
Q 4206 2916 3982 2619 
Q 3759 2322 3309 2181 
Q 3556 2125 3751 1926 
Q 3947 1728 4147 1325 
L 4800 0 
L 3519 0 
L 2950 1159 
Q 2778 1509 2601 1637 
Q 2425 1766 2131 1766 
L 1791 1766 
z
" transform="scale(0.015625)"/>
       <path id="DejaVuSans-Bold-76" d="M 97 3500 
L 1216 3500 
L 2088 1081 
L 2956 3500 
L 4078 3500 
L 2700 0 
L 1472 0 
L 97 3500 
z
" transform="scale(0.015625)"/>
       <path id="DejaVuSans-Bold-20ac" d="M 4025 256 
Q 3728 84 3404 -3 
Q 3081 -91 2731 -91 
Q 1913 -91 1352 317 
Q 791 725 556 1491 
L -122 1491 
L 153 2100 
L 459 2100 
Q 456 2144 454 2192 
Q 453 2241 453 2328 
Q 453 2419 454 2469 
Q 456 2519 459 2566 
L -122 2566 
L 153 3175 
L 556 3175 
Q 797 3944 1355 4347 
Q 1913 4750 2731 4750 
Q 3081 4750 3404 4662 
Q 3728 4575 4025 4403 
L 4025 3438 
Q 3772 3681 3484 3804 
Q 3197 3928 2888 3928 
Q 2491 3928 2211 3736 
Q 1931 3544 1791 3175 
L 3475 3175 
L 3206 2566 
L 1666 2566 
Q 1659 2516 1657 2459 
Q 1656 2403 1656 2291 
Q 1656 2250 1657 2201 
Q 1659 2153 1663 2100 
L 3003 2100 
L 2725 1491 
L 1791 1491 
Q 1947 1109 2220 918 
Q 2494 728 2888 728 
Q 3197 728 3480 851 
Q 3763 975 4025 1222 
L 4025 256 
z
" transform="scale(0.015625)"/>
      </defs>
      <use xlink:href="#DejaVuSans-Bold-41"/>
      <use xlink:href="#DejaVuSans-Bold-6e" transform="translate(77.392578 0)"/>
      <use xlink:href="#DejaVuSans-Bold-6e" transform="translate(148.583984 0)"/>
      <use xlink:href="#DejaVuSans-Bold-75" transform="translate(219.775391 0)"/>
      <use xlink:href="#DejaVuSans-Bold-61" transform="translate(290.966797 0)"/>
      <use xlink:href="#DejaVuSans-Bold-6c" transform="translate(358.447266 0)"/>
      <use xlink:href="#DejaVuSans-Bold-20" transform="translate(392.724609 0)"/>
      <use xlink:href="#DejaVuSans-Bold-47" transform="translate(427.539062 0)"/>
      <use xlink:href="#DejaVuSans-Bold-72" transform="translate(509.619141 0)"/>
      <use xlink:href="#DejaVuSans-Bold-6f" transform="translate(558.935547 0)"/>
      <use xlink:href="#DejaVuSans-Bold-73" transform="translate(627.636719 0)"/>
      <use xlink:href="#DejaVuSans-Bold-73" transform="translate(687.158203 0)"/>
      <use xlink:href="#DejaVuSans-Bold-20" transform="translate(746.679688 0)"/>
      <use xlink:href="#DejaVuSans-Bold-52" transform="translate(781.494141 0)"/>
      <use xlink:href="#DejaVuSans-Bold-65" transform="translate(858.496094 0)"/>
      <use xlink:href="#DejaVuSans-Bold-76" transform="translate(926.318359 0)"/>
      <use xlink:href="#DejaVuSans-Bold-65" transform="translate(991.503906 0)"/>
      <use xlink:href="#DejaVuSans-Bold-6e" transform="translate(1059.326172 0)"/>
      <use xlink:href="#DejaVuSans-Bold-75" transform="translate(1130.517578 0)"/>
      <use xlink:href="#DejaVuSans-Bold-65" transform="translate(1201.708984 0)"/>
      <use xlink:href="#DejaVuSans-Bold-20" transform="translate(1269.53125 0)"/>
      <use xlink:href="#DejaVuSans-Bold-28" transform="translate(1304.345703 0)"/>
      <use xlink:href="#DejaVuSans-Bold-4d" transform="translate(1350.048828 0)"/>
      <use xlink:href="#DejaVuSans-Bold-69" transform="translate(1449.560547 0)"/>
      <use xlink:href="#DejaVuSans-Bold-6c" transform="translate(1483.837891 0)"/>
      <use xlink:href="#DejaVuSans-Bold-6c" transform="translate(1518.115234 0)"/>
      <use xlink:href="#DejaVuSans-Bold-69" transform="translate(1552.392578 0)"/>
      <use xlink:href="#DejaVuSans-Bold-6f" transform="translate(1586.669922 0)"/>
      <use xlink:href="#DejaVuSans-Bold-6e" transform="translate(1655.371094 0)"/>
      <use xlink:href="#DejaVuSans-Bold-73" transform="translate(1726.5625 0)"/>
      <use xlink:href="#DejaVuSans-Bold-20" transform="translate(1786.083984 0)"/>
      <use xlink:href="#DejaVuSans-Bold-20ac" transform="translate(1820.898438 0)"/>
      <use xlink:href="#DejaVuSans-Bold-29" transform="translate(1890.478516 0)"/>
     </g>
    </g>
   </g>
   <g id="patch_3">
    <path d="M 47.933438 386.737812 
L 47.933438 32.837812 
" style="fill: none; stroke: #444444; stroke-width: 1.2; stroke-linejoin: miter; stroke-linecap: square"/>
   </g>
   <g id="patch_4">
    <path d="M 47.933438 386.737812 
L 706.208438 386.737812 
" style="fill: none; stroke: #444444; stroke-width: 1.2; stroke-linejoin: miter; stroke-linecap: square"/>
   </g>
   <g id="text_15">
    <!-- €378M -->
    <g style="fill: #113b5e" transform="translate(58.963622 256.699454) scale(0.1 -0.1)">
     <defs>
      <path id="DejaVuSans-Bold-33" d="M 2981 2516 
Q 3453 2394 3698 2092 
Q 3944 1791 3944 1325 
Q 3944 631 3412 270 
Q 2881 -91 1863 -91 
Q 1503 -91 1142 -33 
Q 781 25 428 141 
L 428 1069 
Q 766 900 1098 814 
Q 1431 728 1753 728 
Q 2231 728 2486 893 
Q 2741 1059 2741 1369 
Q 2741 1688 2480 1852 
Q 2219 2016 1709 2016 
L 1228 2016 
L 1228 2791 
L 1734 2791 
Q 2188 2791 2409 2933 
Q 2631 3075 2631 3366 
Q 2631 3634 2415 3781 
Q 2200 3928 1806 3928 
Q 1516 3928 1219 3862 
Q 922 3797 628 3669 
L 628 4550 
Q 984 4650 1334 4700 
Q 1684 4750 2022 4750 
Q 2931 4750 3382 4451 
Q 3834 4153 3834 3553 
Q 3834 3144 3618 2883 
Q 3403 2622 2981 2516 
z
" transform="scale(0.015625)"/>
      <path id="DejaVuSans-Bold-37" d="M 428 4666 
L 3944 4666 
L 3944 3988 
L 2125 0 
L 953 0 
L 2675 3781 
L 428 3781 
L 428 4666 
z
" transform="scale(0.015625)"/>
      <path id="DejaVuSans-Bold-38" d="M 2228 2088 
Q 1891 2088 1709 1903 
Q 1528 1719 1528 1375 
Q 1528 1031 1709 848 
Q 1891 666 2228 666 
Q 2563 666 2741 848 
Q 2919 1031 2919 1375 
Q 2919 1722 2741 1905 
Q 2563 2088 2228 2088 
z
M 1350 2484 
Q 925 2613 709 2878 
Q 494 3144 494 3541 
Q 494 4131 934 4440 
Q 1375 4750 2228 4750 
Q 3075 4750 3515 4442 
Q 3956 4134 3956 3541 
Q 3956 3144 3739 2878 
Q 3522 2613 3097 2484 
Q 3572 2353 3814 2058 
Q 4056 1763 4056 1313 
Q 4056 619 3595 264 
Q 3134 -91 2228 -91 
Q 1319 -91 855 264 
Q 391 619 391 1313 
Q 391 1763 633 2058 
Q 875 2353 1350 2484 
z
M 1631 3419 
Q 1631 3141 1786 2991 
Q 1941 2841 2228 2841 
Q 2509 2841 2662 2991 
Q 2816 3141 2816 3419 
Q 2816 3697 2662 3845 
Q 2509 3994 2228 3994 
Q 1941 3994 1786 3844 
Q 1631 3694 1631 3419 
z
" transform="scale(0.015625)"/>
     </defs>
     <use xlink:href="#DejaVuSans-Bold-20ac"/>
     <use xlink:href="#DejaVuSans-Bold-33" transform="translate(69.580078 0)"/>
     <use xlink:href="#DejaVuSans-Bold-37" transform="translate(139.160156 0)"/>
     <use xlink:href="#DejaVuSans-Bold-38" transform="translate(208.740234 0)"/>
     <use xlink:href="#DejaVuSans-Bold-4d" transform="translate(278.320312 0)"/>
    </g>
   </g>
   <g id="text_16">
    <!-- €381M -->
    <g style="fill: #d35400" transform="translate(58.963622 223.508674) scale(0.1 -0.1)">
     <defs>
      <path id="DejaVuSans-Bold-31" d="M 750 831 
L 1813 831 
L 1813 3847 
L 722 3622 
L 722 4441 
L 1806 4666 
L 2950 4666 
L 2950 831 
L 4013 831 
L 4013 0 
L 750 0 
L 750 831 
z
" transform="scale(0.015625)"/>
     </defs>
     <use xlink:href="#DejaVuSans-Bold-20ac"/>
     <use xlink:href="#DejaVuSans-Bold-33" transform="translate(69.580078 0)"/>
     <use xlink:href="#DejaVuSans-Bold-38" transform="translate(139.160156 0)"/>
     <use xlink:href="#DejaVuSans-Bold-31" transform="translate(208.740234 0)"/>
     <use xlink:href="#DejaVuSans-Bold-4d" transform="translate(278.320312 0)"/>
    </g>
   </g>
   <g id="text_17">
    <!-- €560M -->
    <g style="fill: #113b5e" transform="translate(229.944142 184.458764) scale(0.1 -0.1)">
     <defs>
      <path id="DejaVuSans-Bold-35" d="M 678 4666 
L 3669 4666 
L 3669 3781 
L 1638 3781 
L 1638 3059 
Q 1775 3097 1914 3117 
Q 2053 3138 2203 3138 
Q 3056 3138 3531 2711 
Q 4006 2284 4006 1522 
Q 4006 766 3489 337 
Q 2972 -91 2053 -91 
Q 1656 -91 1267 -14 
Q 878 63 494 219 
L 494 1166 
Q 875 947 1217 837 
Q 1559 728 1863 728 
Q 2300 728 2551 942 
Q 2803 1156 2803 1522 
Q 2803 1891 2551 2103 
Q 2300 2316 1863 2316 
Q 1603 2316 1309 2248 
Q 1016 2181 678 2041 
L 678 4666 
z
" transform="scale(0.015625)"/>
      <path id="DejaVuSans-Bold-36" d="M 2316 2303 
Q 2000 2303 1842 2098 
Q 1684 1894 1684 1484 
Q 1684 1075 1842 870 
Q 2000 666 2316 666 
Q 2634 666 2792 870 
Q 2950 1075 2950 1484 
Q 2950 1894 2792 2098 
Q 2634 2303 2316 2303 
z
M 3803 4544 
L 3803 3681 
Q 3506 3822 3243 3889 
Q 2981 3956 2731 3956 
Q 2194 3956 1894 3657 
Q 1594 3359 1544 2772 
Q 1750 2925 1990 3001 
Q 2231 3078 2516 3078 
Q 3231 3078 3670 2659 
Q 4109 2241 4109 1563 
Q 4109 813 3618 361 
Q 3128 -91 2303 -91 
Q 1394 -91 895 523 
Q 397 1138 397 2266 
Q 397 3422 980 4083 
Q 1563 4744 2578 4744 
Q 2900 4744 3203 4694 
Q 3506 4644 3803 4544 
z
" transform="scale(0.015625)"/>
      <path id="DejaVuSans-Bold-30" d="M 2944 2338 
Q 2944 3213 2780 3570 
Q 2616 3928 2228 3928 
Q 1841 3928 1675 3570 
Q 1509 3213 1509 2338 
Q 1509 1453 1675 1090 
Q 1841 728 2228 728 
Q 2613 728 2778 1090 
Q 2944 1453 2944 2338 
z
M 4147 2328 
Q 4147 1169 3647 539 
Q 3147 -91 2228 -91 
Q 1306 -91 806 539 
Q 306 1169 306 2328 
Q 306 3491 806 4120 
Q 1306 4750 2228 4750 
Q 3147 4750 3647 4120 
Q 4147 3491 4147 2328 
z
" transform="scale(0.015625)"/>
     </defs>
     <use xlink:href="#DejaVuSans-Bold-20ac"/>
     <use xlink:href="#DejaVuSans-Bold-35" transform="translate(69.580078 0)"/>
     <use xlink:href="#DejaVuSans-Bold-36" transform="translate(139.160156 0)"/>
     <use xlink:href="#DejaVuSans-Bold-30" transform="translate(208.740234 0)"/>
     <use xlink:href="#DejaVuSans-Bold-4d" transform="translate(278.320312 0)"/>
    </g>
   </g>
   <g id="text_18">
    <!-- €580M -->
    <g style="fill: #d35400" transform="translate(229.944142 144.520226) scale(0.1 -0.1)">
     <use xlink:href="#DejaVuSans-Bold-20ac"/>
     <use xlink:href="#DejaVuSans-Bold-35" transform="translate(69.580078 0)"/>
     <use xlink:href="#DejaVuSans-Bold-38" transform="translate(139.160156 0)"/>
     <use xlink:href="#DejaVuSans-Bold-30" transform="translate(208.740234 0)"/>
     <use xlink:href="#DejaVuSans-Bold-4d" transform="translate(278.320312 0)"/>
    </g>
   </g>
   <g id="text_19">
    <!-- €672M -->
    <g style="fill: #113b5e" transform="translate(479.290733 140.002954) scale(0.1 -0.1)">
     <defs>
      <path id="DejaVuSans-Bold-32" d="M 1844 884 
L 3897 884 
L 3897 0 
L 506 0 
L 506 884 
L 2209 2388 
Q 2438 2594 2547 2791 
Q 2656 2988 2656 3200 
Q 2656 3528 2436 3728 
Q 2216 3928 1850 3928 
Q 1569 3928 1234 3808 
Q 900 3688 519 3450 
L 519 4475 
Q 925 4609 1322 4679 
Q 1719 4750 2100 4750 
Q 2938 4750 3402 4381 
Q 3866 4013 3866 3353 
Q 3866 2972 3669 2642 
Q 3472 2313 2841 1759 
L 1844 884 
z
" transform="scale(0.015625)"/>
     </defs>
     <use xlink:href="#DejaVuSans-Bold-20ac"/>
     <use xlink:href="#DejaVuSans-Bold-36" transform="translate(69.580078 0)"/>
     <use xlink:href="#DejaVuSans-Bold-37" transform="translate(139.160156 0)"/>
     <use xlink:href="#DejaVuSans-Bold-32" transform="translate(208.740234 0)"/>
     <use xlink:href="#DejaVuSans-Bold-4d" transform="translate(278.320312 0)"/>
    </g>
   </g>
   <g id="text_20">
    <!-- €718M -->
    <g style="fill: #d35400" transform="translate(479.290733 89.744318) scale(0.1 -0.1)">
     <use xlink:href="#DejaVuSans-Bold-20ac"/>
     <use xlink:href="#DejaVuSans-Bold-37" transform="translate(69.580078 0)"/>
     <use xlink:href="#DejaVuSans-Bold-31" transform="translate(139.160156 0)"/>
     <use xlink:href="#DejaVuSans-Bold-38" transform="translate(208.740234 0)"/>
     <use xlink:href="#DejaVuSans-Bold-4d" transform="translate(278.320312 0)"/>
    </g>
   </g>
   <g id="text_21">
    <!-- €686M -->
    <g style="fill: #113b5e" transform="translate(657.39544 134.445978) scale(0.1 -0.1)">
     <use xlink:href="#DejaVuSans-Bold-20ac"/>
     <use xlink:href="#DejaVuSans-Bold-36" transform="translate(69.580078 0)"/>
     <use xlink:href="#DejaVuSans-Bold-38" transform="translate(139.160156 0)"/>
     <use xlink:href="#DejaVuSans-Bold-36" transform="translate(208.740234 0)"/>
     <use xlink:href="#DejaVuSans-Bold-4d" transform="translate(278.320312 0)"/>
    </g>
   </g>
   <g id="text_22">
    <!-- €743M -->
    <g style="fill: #d35400" transform="translate(657.39544 79.821146) scale(0.1 -0.1)">
     <defs>
      <path id="DejaVuSans-Bold-34" d="M 2356 3675 
L 1038 1722 
L 2356 1722 
L 2356 3675 
z
M 2156 4666 
L 3494 4666 
L 3494 1722 
L 4159 1722 
L 4159 850 
L 3494 850 
L 3494 0 
L 2356 0 
L 2356 850 
L 288 850 
L 288 1881 
L 2156 4666 
z
" transform="scale(0.015625)"/>
     </defs>
     <use xlink:href="#DejaVuSans-Bold-20ac"/>
     <use xlink:href="#DejaVuSans-Bold-37" transform="translate(69.580078 0)"/>
     <use xlink:href="#DejaVuSans-Bold-34" transform="translate(139.160156 0)"/>
     <use xlink:href="#DejaVuSans-Bold-33" transform="translate(208.740234 0)"/>
     <use xlink:href="#DejaVuSans-Bold-4d" transform="translate(278.320312 0)"/>
    </g>
   </g>
   <g id="text_23">
    <!-- Annual Gross Revenue by Installed IT Capacity -->
    <g style="fill: #333333" transform="translate(193.069375 17.837812) scale(0.14 -0.14)">
     <defs>
      <path id="DejaVuSans-Bold-62" d="M 2400 722 
Q 2759 722 2948 984 
Q 3138 1247 3138 1747 
Q 3138 2247 2948 2509 
Q 2759 2772 2400 2772 
Q 2041 2772 1848 2508 
Q 1656 2244 1656 1747 
Q 1656 1250 1848 986 
Q 2041 722 2400 722 
z
M 1656 2988 
Q 1888 3294 2169 3439 
Q 2450 3584 2816 3584 
Q 3463 3584 3878 3070 
Q 4294 2556 4294 1747 
Q 4294 938 3878 423 
Q 3463 -91 2816 -91 
Q 2450 -91 2169 54 
Q 1888 200 1656 506 
L 1656 0 
L 538 0 
L 538 4863 
L 1656 4863 
L 1656 2988 
z
" transform="scale(0.015625)"/>
     </defs>
     <use xlink:href="#DejaVuSans-Bold-41"/>
     <use xlink:href="#DejaVuSans-Bold-6e" transform="translate(77.392578 0)"/>
     <use xlink:href="#DejaVuSans-Bold-6e" transform="translate(148.583984 0)"/>
     <use xlink:href="#DejaVuSans-Bold-75" transform="translate(219.775391 0)"/>
     <use xlink:href="#DejaVuSans-Bold-61" transform="translate(290.966797 0)"/>
     <use xlink:href="#DejaVuSans-Bold-6c" transform="translate(358.447266 0)"/>
     <use xlink:href="#DejaVuSans-Bold-20" transform="translate(392.724609 0)"/>
     <use xlink:href="#DejaVuSans-Bold-47" transform="translate(427.539062 0)"/>
     <use xlink:href="#DejaVuSans-Bold-72" transform="translate(509.619141 0)"/>
     <use xlink:href="#DejaVuSans-Bold-6f" transform="translate(558.935547 0)"/>
     <use xlink:href="#DejaVuSans-Bold-73" transform="translate(627.636719 0)"/>
     <use xlink:href="#DejaVuSans-Bold-73" transform="translate(687.158203 0)"/>
     <use xlink:href="#DejaVuSans-Bold-20" transform="translate(746.679688 0)"/>
     <use xlink:href="#DejaVuSans-Bold-52" transform="translate(781.494141 0)"/>
     <use xlink:href="#DejaVuSans-Bold-65" transform="translate(858.496094 0)"/>
     <use xlink:href="#DejaVuSans-Bold-76" transform="translate(926.318359 0)"/>
     <use xlink:href="#DejaVuSans-Bold-65" transform="translate(991.503906 0)"/>
     <use xlink:href="#DejaVuSans-Bold-6e" transform="translate(1059.326172 0)"/>
     <use xlink:href="#DejaVuSans-Bold-75" transform="translate(1130.517578 0)"/>
     <use xlink:href="#DejaVuSans-Bold-65" transform="translate(1201.708984 0)"/>
     <use xlink:href="#DejaVuSans-Bold-20" transform="translate(1269.53125 0)"/>
     <use xlink:href="#DejaVuSans-Bold-62" transform="translate(1304.345703 0)"/>
     <use xlink:href="#DejaVuSans-Bold-79" transform="translate(1375.927734 0)"/>
     <use xlink:href="#DejaVuSans-Bold-20" transform="translate(1441.113281 0)"/>
     <use xlink:href="#DejaVuSans-Bold-49" transform="translate(1475.927734 0)"/>
     <use xlink:href="#DejaVuSans-Bold-6e" transform="translate(1513.134766 0)"/>
     <use xlink:href="#DejaVuSans-Bold-73" transform="translate(1584.326172 0)"/>
     <use xlink:href="#DejaVuSans-Bold-74" transform="translate(1643.847656 0)"/>
     <use xlink:href="#DejaVuSans-Bold-61" transform="translate(1691.650391 0)"/>
     <use xlink:href="#DejaVuSans-Bold-6c" transform="translate(1759.130859 0)"/>
     <use xlink:href="#DejaVuSans-Bold-6c" transform="translate(1793.408203 0)"/>
     <use xlink:href="#DejaVuSans-Bold-65" transform="translate(1827.685547 0)"/>
     <use xlink:href="#DejaVuSans-Bold-64" transform="translate(1895.507812 0)"/>
     <use xlink:href="#DejaVuSans-Bold-20" transform="translate(1967.089844 0)"/>
     <use xlink:href="#DejaVuSans-Bold-49" transform="translate(2001.904297 0)"/>
     <use xlink:href="#DejaVuSans-Bold-54" transform="translate(2039.111328 0)"/>
     <use xlink:href="#DejaVuSans-Bold-20" transform="translate(2107.324219 0)"/>
     <use xlink:href="#DejaVuSans-Bold-43" transform="translate(2142.138672 0)"/>
     <use xlink:href="#DejaVuSans-Bold-61" transform="translate(2215.527344 0)"/>
     <use xlink:href="#DejaVuSans-Bold-70" transform="translate(2283.007812 0)"/>
     <use xlink:href="#DejaVuSans-Bold-61" transform="translate(2354.589844 0)"/>
     <use xlink:href="#DejaVuSans-Bold-63" transform="translate(2422.070312 0)"/>
     <use xlink:href="#DejaVuSans-Bold-69" transform="translate(2481.347656 0)"/>
     <use xlink:href="#DejaVuSans-Bold-74" transform="translate(2515.625 0)"/>
     <use xlink:href="#DejaVuSans-Bold-79" transform="translate(2563.427734 0)"/>
    </g>
   </g>
   <g id="line2d_18">
    <path d="M 77.855028 236.699454 
L 106.351782 214.47155 
L 177.593665 181.129692 
L 248.835548 164.458764 
L 320.077431 147.787835 
L 498.182139 120.002954 
L 676.286847 114.445978 
" clip-path="url(#p1e067cfb0d)" style="fill: none; stroke: #113b5e; stroke-width: 2.5; stroke-linecap: square"/>
    <defs>
     <path id="me4ca16015c" d="M 0 3.5 
C 0.928211 3.5 1.81853 3.131218 2.474874 2.474874 
C 3.131218 1.81853 3.5 0.928211 3.5 0 
C 3.5 -0.928211 3.131218 -1.81853 2.474874 -2.474874 
C 1.81853 -3.131218 0.928211 -3.5 0 -3.5 
C -0.928211 -3.5 -1.81853 -3.131218 -2.474874 -2.474874 
C -3.131218 -1.81853 -3.5 -0.928211 -3.5 0 
C -3.5 0.928211 -3.131218 1.81853 -2.474874 2.474874 
C -1.81853 3.131218 -0.928211 3.5 0 3.5 
z
" style="stroke: #113b5e"/>
    </defs>
    <g clip-path="url(#p1e067cfb0d)">
     <use xlink:href="#me4ca16015c" x="77.855028" y="236.699454" style="fill: #113b5e; stroke: #113b5e"/>
     <use xlink:href="#me4ca16015c" x="106.351782" y="214.47155" style="fill: #113b5e; stroke: #113b5e"/>
     <use xlink:href="#me4ca16015c" x="177.593665" y="181.129692" style="fill: #113b5e; stroke: #113b5e"/>
     <use xlink:href="#me4ca16015c" x="248.835548" y="164.458764" style="fill: #113b5e; stroke: #113b5e"/>
     <use xlink:href="#me4ca16015c" x="320.077431" y="147.787835" style="fill: #113b5e; stroke: #113b5e"/>
     <use xlink:href="#me4ca16015c" x="498.182139" y="120.002954" style="fill: #113b5e; stroke: #113b5e"/>
     <use xlink:href="#me4ca16015c" x="676.286847" y="114.445978" style="fill: #113b5e; stroke: #113b5e"/>
    </g>
   </g>
   <g id="line2d_19">
    <path d="M 77.855028 235.508674 
L 106.351782 214.074623 
L 177.593665 177.954277 
L 248.835548 156.520226 
L 320.077431 136.276956 
L 498.182139 101.744318 
L 676.286847 91.821146 
" clip-path="url(#p1e067cfb0d)" style="fill: none; stroke-dasharray: 9.25,4; stroke-dashoffset: 0; stroke: #e67e22; stroke-width: 2.5"/>
    <defs>
     <path id="md94e3c93cc" d="M 0 4.949747 
L 4.949747 0 
L 0 -4.949747 
L -4.949747 0 
z
" style="stroke: #e67e22; stroke-linejoin: miter"/>
    </defs>
    <g clip-path="url(#p1e067cfb0d)">
     <use xlink:href="#md94e3c93cc" x="77.855028" y="235.508674" style="fill: #e67e22; stroke: #e67e22; stroke-linejoin: miter"/>
     <use xlink:href="#md94e3c93cc" x="106.351782" y="214.074623" style="fill: #e67e22; stroke: #e67e22; stroke-linejoin: miter"/>
     <use xlink:href="#md94e3c93cc" x="177.593665" y="177.954277" style="fill: #e67e22; stroke: #e67e22; stroke-linejoin: miter"/>
     <use xlink:href="#md94e3c93cc" x="248.835548" y="156.520226" style="fill: #e67e22; stroke: #e67e22; stroke-linejoin: miter"/>
     <use xlink:href="#md94e3c93cc" x="320.077431" y="136.276956" style="fill: #e67e22; stroke: #e67e22; stroke-linejoin: miter"/>
     <use xlink:href="#md94e3c93cc" x="498.182139" y="101.744318" style="fill: #e67e22; stroke: #e67e22; stroke-linejoin: miter"/>
     <use xlink:href="#md94e3c93cc" x="676.286847" y="91.821146" style="fill: #e67e22; stroke: #e67e22; stroke-linejoin: miter"/>
    </g>
   </g>
   <g id="legend_1">
    <g id="patch_5">
     <path d="M 488.66 381.737812 
L 699.208438 381.737812 
Q 701.208438 381.737812 701.208438 379.737812 
L 701.208438 324.703437 
Q 701.208438 322.703437 699.208438 322.703437 
L 488.66 322.703437 
Q 486.66 322.703437 486.66 324.703437 
L 486.66 379.737812 
Q 486.66 381.737812 488.66 381.737812 
z
" style="fill: #ffffff; opacity: 0.9; stroke: #e0e0e0; stroke-linejoin: miter"/>
    </g>
    <g id="patch_6">
     <path d="M 496.66 340.301875 
L 516.66 340.301875 
L 516.66 333.301875 
L 496.66 333.301875 
z
" style="fill: #f39c12; fill-opacity: 0.15; stroke: #f39c12; stroke-opacity: 0.15; stroke-linejoin: miter"/>
    </g>
    <g id="text_24">
     <!-- Incremental Revenue (Tier C) -->
     <g transform="translate(524.66 340.301875) scale(0.1 -0.1)">
      <defs>
       <path id="DejaVuSans-49" d="M 628 4666 
L 1259 4666 
L 1259 0 
L 628 0 
L 628 4666 
z
" transform="scale(0.015625)"/>
       <path id="DejaVuSans-6e" d="M 3513 2113 
L 3513 0 
L 2938 0 
L 2938 2094 
Q 2938 2591 2744 2837 
Q 2550 3084 2163 3084 
Q 1697 3084 1428 2787 
Q 1159 2491 1159 1978 
L 1159 0 
L 581 0 
L 581 3500 
L 1159 3500 
L 1159 2956 
Q 1366 3272 1645 3428 
Q 1925 3584 2291 3584 
Q 2894 3584 3203 3211 
Q 3513 2838 3513 2113 
z
" transform="scale(0.015625)"/>
       <path id="DejaVuSans-63" d="M 3122 3366 
L 3122 2828 
Q 2878 2963 2633 3030 
Q 2388 3097 2138 3097 
Q 1578 3097 1268 2742 
Q 959 2388 959 1747 
Q 959 1106 1268 751 
Q 1578 397 2138 397 
Q 2388 397 2633 464 
Q 2878 531 3122 666 
L 3122 134 
Q 2881 22 2623 -34 
Q 2366 -91 2075 -91 
Q 1284 -91 818 406 
Q 353 903 353 1747 
Q 353 2603 823 3093 
Q 1294 3584 2113 3584 
Q 2378 3584 2631 3529 
Q 2884 3475 3122 3366 
z
" transform="scale(0.015625)"/>
       <path id="DejaVuSans-72" d="M 2631 2963 
Q 2534 3019 2420 3045 
Q 2306 3072 2169 3072 
Q 1681 3072 1420 2755 
Q 1159 2438 1159 1844 
L 1159 0 
L 581 0 
L 581 3500 
L 1159 3500 
L 1159 2956 
Q 1341 3275 1631 3429 
Q 1922 3584 2338 3584 
Q 2397 3584 2469 3576 
Q 2541 3569 2628 3553 
L 2631 2963 
z
" transform="scale(0.015625)"/>
       <path id="DejaVuSans-65" d="M 3597 1894 
L 3597 1613 
L 953 1613 
Q 991 1019 1311 708 
Q 1631 397 2203 397 
Q 2534 397 2845 478 
Q 3156 559 3463 722 
L 3463 178 
Q 3153 47 2828 -22 
Q 2503 -91 2169 -91 
Q 1331 -91 842 396 
Q 353 884 353 1716 
Q 353 2575 817 3079 
Q 1281 3584 2069 3584 
Q 2775 3584 3186 3129 
Q 3597 2675 3597 1894 
z
M 3022 2063 
Q 3016 2534 2758 2815 
Q 2500 3097 2075 3097 
Q 1594 3097 1305 2825 
Q 1016 2553 972 2059 
L 3022 2063 
z
" transform="scale(0.015625)"/>
       <path id="DejaVuSans-6d" d="M 3328 2828 
Q 3544 3216 3844 3400 
Q 4144 3584 4550 3584 
Q 5097 3584 5394 3201 
Q 5691 2819 5691 2113 
L 5691 0 
L 5113 0 
L 5113 2094 
Q 5113 2597 4934 2840 
Q 4756 3084 4391 3084 
Q 3944 3084 3684 2787 
Q 3425 2491 3425 1978 
L 3425 0 
L 2847 0 
L 2847 2094 
Q 2847 2600 2669 2842 
Q 2491 3084 2119 3084 
Q 1678 3084 1418 2786 
Q 1159 2488 1159 1978 
L 1159 0 
L 581 0 
L 581 3500 
L 1159 3500 
L 1159 2956 
Q 1356 3278 1631 3431 
Q 1906 3584 2284 3584 
Q 2666 3584 2933 3390 
Q 3200 3197 3328 2828 
z
" transform="scale(0.015625)"/>
       <path id="DejaVuSans-74" d="M 1172 4494 
L 1172 3500 
L 2356 3500 
L 2356 3053 
L 1172 3053 
L 1172 1153 
Q 1172 725 1289 603 
Q 1406 481 1766 481 
L 2356 481 
L 2356 0 
L 1766 0 
Q 1100 0 847 248 
Q 594 497 594 1153 
L 594 3053 
L 172 3053 
L 172 3500 
L 594 3500 
L 594 4494 
L 1172 4494 
z
" transform="scale(0.015625)"/>
       <path id="DejaVuSans-61" d="M 2194 1759 
Q 1497 1759 1228 1600 
Q 959 1441 959 1056 
Q 959 750 1161 570 
Q 1363 391 1709 391 
Q 2188 391 2477 730 
Q 2766 1069 2766 1631 
L 2766 1759 
L 2194 1759 
z
M 3341 1997 
L 3341 0 
L 2766 0 
L 2766 531 
Q 2569 213 2275 61 
Q 1981 -91 1556 -91 
Q 1019 -91 701 211 
Q 384 513 384 1019 
Q 384 1609 779 1909 
Q 1175 2209 1959 2209 
L 2766 2209 
L 2766 2266 
Q 2766 2663 2505 2880 
Q 2244 3097 1772 3097 
Q 1472 3097 1187 3025 
Q 903 2953 641 2809 
L 641 3341 
Q 956 3463 1253 3523 
Q 1550 3584 1831 3584 
Q 2591 3584 2966 3190 
Q 3341 2797 3341 1997 
z
" transform="scale(0.015625)"/>
       <path id="DejaVuSans-6c" d="M 603 4863 
L 1178 4863 
L 1178 0 
L 603 0 
L 603 4863 
z
" transform="scale(0.015625)"/>
       <path id="DejaVuSans-20" transform="scale(0.015625)"/>
       <path id="DejaVuSans-52" d="M 2841 2188 
Q 3044 2119 3236 1894 
Q 3428 1669 3622 1275 
L 4263 0 
L 3584 0 
L 2988 1197 
Q 2756 1666 2539 1819 
Q 2322 1972 1947 1972 
L 1259 1972 
L 1259 0 
L 628 0 
L 628 4666 
L 2053 4666 
Q 2853 4666 3247 4331 
Q 3641 3997 3641 3322 
Q 3641 2881 3436 2590 
Q 3231 2300 2841 2188 
z
M 1259 4147 
L 1259 2491 
L 2053 2491 
Q 2509 2491 2742 2702 
Q 2975 2913 2975 3322 
Q 2975 3731 2742 3939 
Q 2509 4147 2053 4147 
L 1259 4147 
z
" transform="scale(0.015625)"/>
       <path id="DejaVuSans-76" d="M 191 3500 
L 800 3500 
L 1894 563 
L 2988 3500 
L 3597 3500 
L 2284 0 
L 1503 0 
L 191 3500 
z
" transform="scale(0.015625)"/>
       <path id="DejaVuSans-75" d="M 544 1381 
L 544 3500 
L 1119 3500 
L 1119 1403 
Q 1119 906 1312 657 
Q 1506 409 1894 409 
Q 2359 409 2629 706 
Q 2900 1003 2900 1516 
L 2900 3500 
L 3475 3500 
L 3475 0 
L 2900 0 
L 2900 538 
Q 2691 219 2414 64 
Q 2138 -91 1772 -91 
Q 1169 -91 856 284 
Q 544 659 544 1381 
z
M 1991 3584 
L 1991 3584 
z
" transform="scale(0.015625)"/>
       <path id="DejaVuSans-28" d="M 1984 4856 
Q 1566 4138 1362 3434 
Q 1159 2731 1159 2009 
Q 1159 1288 1364 580 
Q 1569 -128 1984 -844 
L 1484 -844 
Q 1016 -109 783 600 
Q 550 1309 550 2009 
Q 550 2706 781 3412 
Q 1013 4119 1484 4856 
L 1984 4856 
z
" transform="scale(0.015625)"/>
       <path id="DejaVuSans-54" d="M -19 4666 
L 3928 4666 
L 3928 4134 
L 2272 4134 
L 2272 0 
L 1638 0 
L 1638 4134 
L -19 4134 
L -19 4666 
z
" transform="scale(0.015625)"/>
       <path id="DejaVuSans-69" d="M 603 3500 
L 1178 3500 
L 1178 0 
L 603 0 
L 603 3500 
z
M 603 4863 
L 1178 4863 
L 1178 4134 
L 603 4134 
L 603 4863 
z
" transform="scale(0.015625)"/>
       <path id="DejaVuSans-43" d="M 4122 4306 
L 4122 3641 
Q 3803 3938 3442 4084 
Q 3081 4231 2675 4231 
Q 1875 4231 1450 3742 
Q 1025 3253 1025 2328 
Q 1025 1406 1450 917 
Q 1875 428 2675 428 
Q 3081 428 3442 575 
Q 3803 722 4122 1019 
L 4122 359 
Q 3791 134 3420 21 
Q 3050 -91 2638 -91 
Q 1578 -91 968 557 
Q 359 1206 359 2328 
Q 359 3453 968 4101 
Q 1578 4750 2638 4750 
Q 3056 4750 3426 4639 
Q 3797 4528 4122 4306 
z
" transform="scale(0.015625)"/>
       <path id="DejaVuSans-29" d="M 513 4856 
L 1013 4856 
Q 1481 4119 1714 3412 
Q 1947 2706 1947 2009 
Q 1947 1309 1714 600 
Q 1481 -109 1013 -844 
L 513 -844 
Q 928 -128 1133 580 
Q 1338 1288 1338 2009 
Q 1338 2731 1133 3434 
Q 928 4138 513 4856 
z
" transform="scale(0.015625)"/>
      </defs>
      <use xlink:href="#DejaVuSans-49"/>
      <use xlink:href="#DejaVuSans-6e" transform="translate(29.492188 0)"/>
      <use xlink:href="#DejaVuSans-63" transform="translate(92.871094 0)"/>
      <use xlink:href="#DejaVuSans-72" transform="translate(147.851562 0)"/>
      <use xlink:href="#DejaVuSans-65" transform="translate(186.714844 0)"/>
      <use xlink:href="#DejaVuSans-6d" transform="translate(248.238281 0)"/>
      <use xlink:href="#DejaVuSans-65" transform="translate(345.650391 0)"/>
      <use xlink:href="#DejaVuSans-6e" transform="translate(407.173828 0)"/>
      <use xlink:href="#DejaVuSans-74" transform="translate(470.552734 0)"/>
      <use xlink:href="#DejaVuSans-61" transform="translate(509.761719 0)"/>
      <use xlink:href="#DejaVuSans-6c" transform="translate(571.041016 0)"/>
      <use xlink:href="#DejaVuSans-20" transform="translate(598.824219 0)"/>
      <use xlink:href="#DejaVuSans-52" transform="translate(630.611328 0)"/>
      <use xlink:href="#DejaVuSans-65" transform="translate(695.59375 0)"/>
      <use xlink:href="#DejaVuSans-76" transform="translate(757.117188 0)"/>
      <use xlink:href="#DejaVuSans-65" transform="translate(816.296875 0)"/>
      <use xlink:href="#DejaVuSans-6e" transform="translate(877.820312 0)"/>
      <use xlink:href="#DejaVuSans-75" transform="translate(941.199219 0)"/>
      <use xlink:href="#DejaVuSans-65" transform="translate(1004.578125 0)"/>
      <use xlink:href="#DejaVuSans-20" transform="translate(1066.101562 0)"/>
      <use xlink:href="#DejaVuSans-28" transform="translate(1097.888672 0)"/>
      <use xlink:href="#DejaVuSans-54" transform="translate(1136.902344 0)"/>
      <use xlink:href="#DejaVuSans-69" transform="translate(1194.861328 0)"/>
      <use xlink:href="#DejaVuSans-65" transform="translate(1222.644531 0)"/>
      <use xlink:href="#DejaVuSans-72" transform="translate(1284.167969 0)"/>
      <use xlink:href="#DejaVuSans-20" transform="translate(1325.28125 0)"/>
      <use xlink:href="#DejaVuSans-43" transform="translate(1357.068359 0)"/>
      <use xlink:href="#DejaVuSans-29" transform="translate(1426.892578 0)"/>
     </g>
    </g>
    <g id="line2d_20">
     <path d="M 496.66 351.48 
L 506.66 351.48 
L 516.66 351.48 
" style="fill: none; stroke: #113b5e; stroke-width: 2.5; stroke-linecap: square"/>
     <g>
      <use xlink:href="#me4ca16015c" x="506.66" y="351.48" style="fill: #113b5e; stroke: #113b5e"/>
     </g>
    </g>
    <g id="text_25">
     <!-- Gross Revenue (Excluding Tier C) -->
     <g transform="translate(524.66 354.98) scale(0.1 -0.1)">
      <defs>
       <path id="DejaVuSans-47" d="M 3809 666 
L 3809 1919 
L 2778 1919 
L 2778 2438 
L 4434 2438 
L 4434 434 
Q 4069 175 3628 42 
Q 3188 -91 2688 -91 
Q 1594 -91 976 548 
Q 359 1188 359 2328 
Q 359 3472 976 4111 
Q 1594 4750 2688 4750 
Q 3144 4750 3555 4637 
Q 3966 4525 4313 4306 
L 4313 3634 
Q 3963 3931 3569 4081 
Q 3175 4231 2741 4231 
Q 1884 4231 1454 3753 
Q 1025 3275 1025 2328 
Q 1025 1384 1454 906 
Q 1884 428 2741 428 
Q 3075 428 3337 486 
Q 3600 544 3809 666 
z
" transform="scale(0.015625)"/>
       <path id="DejaVuSans-6f" d="M 1959 3097 
Q 1497 3097 1228 2736 
Q 959 2375 959 1747 
Q 959 1119 1226 758 
Q 1494 397 1959 397 
Q 2419 397 2687 759 
Q 2956 1122 2956 1747 
Q 2956 2369 2687 2733 
Q 2419 3097 1959 3097 
z
M 1959 3584 
Q 2709 3584 3137 3096 
Q 3566 2609 3566 1747 
Q 3566 888 3137 398 
Q 2709 -91 1959 -91 
Q 1206 -91 779 398 
Q 353 888 353 1747 
Q 353 2609 779 3096 
Q 1206 3584 1959 3584 
z
" transform="scale(0.015625)"/>
       <path id="DejaVuSans-73" d="M 2834 3397 
L 2834 2853 
Q 2591 2978 2328 3040 
Q 2066 3103 1784 3103 
Q 1356 3103 1142 2972 
Q 928 2841 928 2578 
Q 928 2378 1081 2264 
Q 1234 2150 1697 2047 
L 1894 2003 
Q 2506 1872 2764 1633 
Q 3022 1394 3022 966 
Q 3022 478 2636 193 
Q 2250 -91 1575 -91 
Q 1294 -91 989 -36 
Q 684 19 347 128 
L 347 722 
Q 666 556 975 473 
Q 1284 391 1588 391 
Q 1994 391 2212 530 
Q 2431 669 2431 922 
Q 2431 1156 2273 1281 
Q 2116 1406 1581 1522 
L 1381 1569 
Q 847 1681 609 1914 
Q 372 2147 372 2553 
Q 372 3047 722 3315 
Q 1072 3584 1716 3584 
Q 2034 3584 2315 3537 
Q 2597 3491 2834 3397 
z
" transform="scale(0.015625)"/>
       <path id="DejaVuSans-45" d="M 628 4666 
L 3578 4666 
L 3578 4134 
L 1259 4134 
L 1259 2753 
L 3481 2753 
L 3481 2222 
L 1259 2222 
L 1259 531 
L 3634 531 
L 3634 0 
L 628 0 
L 628 4666 
z
" transform="scale(0.015625)"/>
       <path id="DejaVuSans-78" d="M 3513 3500 
L 2247 1797 
L 3578 0 
L 2900 0 
L 1881 1375 
L 863 0 
L 184 0 
L 1544 1831 
L 300 3500 
L 978 3500 
L 1906 2253 
L 2834 3500 
L 3513 3500 
z
" transform="scale(0.015625)"/>
       <path id="DejaVuSans-64" d="M 2906 2969 
L 2906 4863 
L 3481 4863 
L 3481 0 
L 2906 0 
L 2906 525 
Q 2725 213 2448 61 
Q 2172 -91 1784 -91 
Q 1150 -91 751 415 
Q 353 922 353 1747 
Q 353 2572 751 3078 
Q 1150 3584 1784 3584 
Q 2172 3584 2448 3432 
Q 2725 3281 2906 2969 
z
M 947 1747 
Q 947 1113 1208 752 
Q 1469 391 1925 391 
Q 2381 391 2643 752 
Q 2906 1113 2906 1747 
Q 2906 2381 2643 2742 
Q 2381 3103 1925 3103 
Q 1469 3103 1208 2742 
Q 947 2381 947 1747 
z
" transform="scale(0.015625)"/>
       <path id="DejaVuSans-67" d="M 2906 1791 
Q 2906 2416 2648 2759 
Q 2391 3103 1925 3103 
Q 1463 3103 1205 2759 
Q 947 2416 947 1791 
Q 947 1169 1205 825 
Q 1463 481 1925 481 
Q 2391 481 2648 825 
Q 2906 1169 2906 1791 
z
M 3481 434 
Q 3481 -459 3084 -895 
Q 2688 -1331 1869 -1331 
Q 1566 -1331 1297 -1286 
Q 1028 -1241 775 -1147 
L 775 -588 
Q 1028 -725 1275 -790 
Q 1522 -856 1778 -856 
Q 2344 -856 2625 -561 
Q 2906 -266 2906 331 
L 2906 616 
Q 2728 306 2450 153 
Q 2172 0 1784 0 
Q 1141 0 747 490 
Q 353 981 353 1791 
Q 353 2603 747 3093 
Q 1141 3584 1784 3584 
Q 2172 3584 2450 3431 
Q 2728 3278 2906 2969 
L 2906 3500 
L 3481 3500 
L 3481 434 
z
" transform="scale(0.015625)"/>
      </defs>
      <use xlink:href="#DejaVuSans-47"/>
      <use xlink:href="#DejaVuSans-72" transform="translate(77.490234 0)"/>
      <use xlink:href="#DejaVuSans-6f" transform="translate(116.353516 0)"/>
      <use xlink:href="#DejaVuSans-73" transform="translate(177.535156 0)"/>
      <use xlink:href="#DejaVuSans-73" transform="translate(229.634766 0)"/>
      <use xlink:href="#DejaVuSans-20" transform="translate(281.734375 0)"/>
      <use xlink:href="#DejaVuSans-52" transform="translate(313.521484 0)"/>
      <use xlink:href="#DejaVuSans-65" transform="translate(378.503906 0)"/>
      <use xlink:href="#DejaVuSans-76" transform="translate(440.027344 0)"/>
      <use xlink:href="#DejaVuSans-65" transform="translate(499.207031 0)"/>
      <use xlink:href="#DejaVuSans-6e" transform="translate(560.730469 0)"/>
      <use xlink:href="#DejaVuSans-75" transform="translate(624.109375 0)"/>
      <use xlink:href="#DejaVuSans-65" transform="translate(687.488281 0)"/>
      <use xlink:href="#DejaVuSans-20" transform="translate(749.011719 0)"/>
      <use xlink:href="#DejaVuSans-28" transform="translate(780.798828 0)"/>
      <use xlink:href="#DejaVuSans-45" transform="translate(819.8125 0)"/>
      <use xlink:href="#DejaVuSans-78" transform="translate(882.996094 0)"/>
      <use xlink:href="#DejaVuSans-63" transform="translate(940.425781 0)"/>
      <use xlink:href="#DejaVuSans-6c" transform="translate(995.40625 0)"/>
      <use xlink:href="#DejaVuSans-75" transform="translate(1023.189453 0)"/>
      <use xlink:href="#DejaVuSans-64" transform="translate(1086.568359 0)"/>
      <use xlink:href="#DejaVuSans-69" transform="translate(1150.044922 0)"/>
      <use xlink:href="#DejaVuSans-6e" transform="translate(1177.828125 0)"/>
      <use xlink:href="#DejaVuSans-67" transform="translate(1241.207031 0)"/>
      <use xlink:href="#DejaVuSans-20" transform="translate(1304.683594 0)"/>
      <use xlink:href="#DejaVuSans-54" transform="translate(1336.470703 0)"/>
      <use xlink:href="#DejaVuSans-69" transform="translate(1394.429688 0)"/>
      <use xlink:href="#DejaVuSans-65" transform="translate(1422.212891 0)"/>
      <use xlink:href="#DejaVuSans-72" transform="translate(1483.736328 0)"/>
      <use xlink:href="#DejaVuSans-20" transform="translate(1524.849609 0)"/>
      <use xlink:href="#DejaVuSans-43" transform="translate(1556.636719 0)"/>
      <use xlink:href="#DejaVuSans-29" transform="translate(1626.460938 0)"/>
     </g>
    </g>
    <g id="line2d_21">
     <path d="M 496.66 366.158125 
L 506.66 366.158125 
L 516.66 366.158125 
" style="fill: none; stroke-dasharray: 9.25,4; stroke-dashoffset: 0; stroke: #e67e22; stroke-width: 2.5"/>
     <g>
      <use xlink:href="#md94e3c93cc" x="506.66" y="366.158125" style="fill: #e67e22; stroke: #e67e22; stroke-linejoin: miter"/>
     </g>
    </g>
    <g id="text_26">
     <!-- Gross Revenue (Including Tier C) -->
     <g transform="translate(524.66 369.658125) scale(0.1 -0.1)">
      <use xlink:href="#DejaVuSans-47"/>
      <use xlink:href="#DejaVuSans-72" transform="translate(77.490234 0)"/>
      <use xlink:href="#DejaVuSans-6f" transform="translate(116.353516 0)"/>
      <use xlink:href="#DejaVuSans-73" transform="translate(177.535156 0)"/>
      <use xlink:href="#DejaVuSans-73" transform="translate(229.634766 0)"/>
      <use xlink:href="#DejaVuSans-20" transform="translate(281.734375 0)"/>
      <use xlink:href="#DejaVuSans-52" transform="translate(313.521484 0)"/>
      <use xlink:href="#DejaVuSans-65" transform="translate(378.503906 0)"/>
      <use xlink:href="#DejaVuSans-76" transform="translate(440.027344 0)"/>
      <use xlink:href="#DejaVuSans-65" transform="translate(499.207031 0)"/>
      <use xlink:href="#DejaVuSans-6e" transform="translate(560.730469 0)"/>
      <use xlink:href="#DejaVuSans-75" transform="translate(624.109375 0)"/>
      <use xlink:href="#DejaVuSans-65" transform="translate(687.488281 0)"/>
      <use xlink:href="#DejaVuSans-20" transform="translate(749.011719 0)"/>
      <use xlink:href="#DejaVuSans-28" transform="translate(780.798828 0)"/>
      <use xlink:href="#DejaVuSans-49" transform="translate(819.8125 0)"/>
      <use xlink:href="#DejaVuSans-6e" transform="translate(849.304688 0)"/>
      <use xlink:href="#DejaVuSans-63" transform="translate(912.683594 0)"/>
      <use xlink:href="#DejaVuSans-6c" transform="translate(967.664062 0)"/>
      <use xlink:href="#DejaVuSans-75" transform="translate(995.447266 0)"/>
      <use xlink:href="#DejaVuSans-64" transform="translate(1058.826172 0)"/>
      <use xlink:href="#DejaVuSans-69" transform="translate(1122.302734 0)"/>
      <use xlink:href="#DejaVuSans-6e" transform="translate(1150.085938 0)"/>
      <use xlink:href="#DejaVuSans-67" transform="translate(1213.464844 0)"/>
      <use xlink:href="#DejaVuSans-20" transform="translate(1276.941406 0)"/>
      <use xlink:href="#DejaVuSans-54" transform="translate(1308.728516 0)"/>
      <use xlink:href="#DejaVuSans-69" transform="translate(1366.6875 0)"/>
      <use xlink:href="#DejaVuSans-65" transform="translate(1394.470703 0)"/>
      <use xlink:href="#DejaVuSans-72" transform="translate(1455.994141 0)"/>
      <use xlink:href="#DejaVuSans-20" transform="translate(1497.107422 0)"/>
      <use xlink:href="#DejaVuSans-43" transform="translate(1528.894531 0)"/>
      <use xlink:href="#DejaVuSans-29" transform="translate(1598.71875 0)"/>
     </g>
    </g>
   </g>
  </g>
 </g>
 <defs>
  <clipPath id="p1e067cfb0d">
   <rect x="47.933438" y="32.837812" width="658.275" height="353.9"/>
  </clipPath>
 </defs>
</svg>
