<?xml version="1.0" encoding="utf-8" standalone="no"?>
<!DOCTYPE svg PUBLIC "-//W3C//DTD SVG 1.1//EN"
  "http://www.w3.org/Graphics/SVG/1.1/DTD/svg11.dtd">
<svg xmlns:xlink="http://www.w3.org/1999/xlink" width="713.494844pt" height="456.338837pt" viewBox="0 0 713.494844 456.338837" xmlns="http://www.w3.org/2000/svg" version="1.1">
 <metadata>
  <rdf:RDF xmlns:dc="http://purl.org/dc/elements/1.1/" xmlns:cc="http://creativecommons.org/ns#" xmlns:rdf="http://www.w3.org/1999/02/22-rdf-syntax-ns#">
   <cc:Work>
    <dc:type rdf:resource="http://purl.org/dc/dcmitype/StillImage"/>
    <dc:date>2026-05-13T12:21:33.205880</dc:date>
    <dc:format>image/svg+xml</dc:format>
    <dc:creator>
     <cc:Agent>
      <dc:title>Matplotlib v3.10.8, https://matplotlib.org/</dc:title>
     </cc:Agent>
    </dc:creator>
   </cc:Work>
  </rdf:RDF>
 </metadata>
 <defs>
  <style type="text/css">*{stroke-linejoin: round; stroke-linecap: butt}</style>
 </defs>
 <g id="figure_1">
  <g id="patch_1">
   <path d="M 0 456.338837 
L 713.494844 456.338837 
L 713.494844 0 
L 0 0 
z
" style="fill: #ffffff"/>
  </g>
  <g id="axes_1">
   <g id="patch_2">
    <path d="M 41.644844 364.683812 
L 706.294844 364.683812 
L 706.294844 32.837812 
L 41.644844 32.837812 
z
" style="fill: #ffffff"/>
   </g>
   <g id="matplotlib.axis_1">
    <g id="xtick_1">
     <g id="line2d_1">
      <defs>
       <path id="m74605382f9" d="M 0 0 
L 0 3.5 
" style="stroke: #000000; stroke-width: 0.8"/>
      </defs>
      <g>
       <use xlink:href="#m74605382f9" x="97.224528" y="364.683812" style="stroke: #000000; stroke-width: 0.8"/>
      </g>
     </g>
     <g id="text_1">
      <!-- 16 MW -->
      <g style="fill: #333333" transform="translate(80.015153 379.28225) scale(0.1 -0.1)">
       <defs>
        <path id="DejaVuSans-31" d="M 794 531 
L 1825 531 
L 1825 4091 
L 703 3866 
L 703 4441 
L 1819 4666 
L 2450 4666 
L 2450 531 
L 3481 531 
L 3481 0 
L 794 0 
L 794 531 
z
" transform="scale(0.015625)"/>
        <path id="DejaVuSans-36" d="M 2113 2584 
Q 1688 2584 1439 2293 
Q 1191 2003 1191 1497 
Q 1191 994 1439 701 
Q 1688 409 2113 409 
Q 2538 409 2786 701 
Q 3034 994 3034 1497 
Q 3034 2003 2786 2293 
Q 2538 2584 2113 2584 
z
M 3366 4563 
L 3366 3988 
Q 3128 4100 2886 4159 
Q 2644 4219 2406 4219 
Q 1781 4219 1451 3797 
Q 1122 3375 1075 2522 
Q 1259 2794 1537 2939 
Q 1816 3084 2150 3084 
Q 2853 3084 3261 2657 
Q 3669 2231 3669 1497 
Q 3669 778 3244 343 
Q 2819 -91 2113 -91 
Q 1303 -91 875 529 
Q 447 1150 447 2328 
Q 447 3434 972 4092 
Q 1497 4750 2381 4750 
Q 2619 4750 2861 4703 
Q 3103 4656 3366 4563 
z
" transform="scale(0.015625)"/>
        <path id="DejaVuSans-20" transform="scale(0.015625)"/>
        <path id="DejaVuSans-4d" d="M 628 4666 
L 1569 4666 
L 2759 1491 
L 3956 4666 
L 4897 4666 
L 4897 0 
L 4281 0 
L 4281 4097 
L 3078 897 
L 2444 897 
L 1241 4097 
L 1241 0 
L 628 0 
L 628 4666 
z
" transform="scale(0.015625)"/>
        <path id="DejaVuSans-57" d="M 213 4666 
L 850 4666 
L 1831 722 
L 2809 4666 
L 3519 4666 
L 4500 722 
L 5478 4666 
L 6119 4666 
L 4947 0 
L 4153 0 
L 3169 4050 
L 2175 0 
L 1381 0 
L 213 4666 
z
" transform="scale(0.015625)"/>
       </defs>
       <use xlink:href="#DejaVuSans-31"/>
       <use xlink:href="#DejaVuSans-36" transform="translate(63.623047 0)"/>
       <use xlink:href="#DejaVuSans-20" transform="translate(127.246094 0)"/>
       <use xlink:href="#DejaVuSans-4d" transform="translate(159.033203 0)"/>
       <use xlink:href="#DejaVuSans-57" transform="translate(245.3125 0)"/>
      </g>
     </g>
    </g>
    <g id="xtick_2">
     <g id="line2d_2">
      <g>
       <use xlink:href="#m74605382f9" x="189.472967" y="364.683812" style="stroke: #000000; stroke-width: 0.8"/>
      </g>
     </g>
     <g id="text_2">
      <!-- 20 MW -->
      <g style="fill: #333333" transform="translate(172.263592 379.28225) scale(0.1 -0.1)">
       <defs>
        <path id="DejaVuSans-32" d="M 1228 531 
L 3431 531 
L 3431 0 
L 469 0 
L 469 531 
Q 828 903 1448 1529 
Q 2069 2156 2228 2338 
Q 2531 2678 2651 2914 
Q 2772 3150 2772 3378 
Q 2772 3750 2511 3984 
Q 2250 4219 1831 4219 
Q 1534 4219 1204 4116 
Q 875 4013 500 3803 
L 500 4441 
Q 881 4594 1212 4672 
Q 1544 4750 1819 4750 
Q 2544 4750 2975 4387 
Q 3406 4025 3406 3419 
Q 3406 3131 3298 2873 
Q 3191 2616 2906 2266 
Q 2828 2175 2409 1742 
Q 1991 1309 1228 531 
z
" transform="scale(0.015625)"/>
        <path id="DejaVuSans-30" d="M 2034 4250 
Q 1547 4250 1301 3770 
Q 1056 3291 1056 2328 
Q 1056 1369 1301 889 
Q 1547 409 2034 409 
Q 2525 409 2770 889 
Q 3016 1369 3016 2328 
Q 3016 3291 2770 3770 
Q 2525 4250 2034 4250 
z
M 2034 4750 
Q 2819 4750 3233 4129 
Q 3647 3509 3647 2328 
Q 3647 1150 3233 529 
Q 2819 -91 2034 -91 
Q 1250 -91 836 529 
Q 422 1150 422 2328 
Q 422 3509 836 4129 
Q 1250 4750 2034 4750 
z
" transform="scale(0.015625)"/>
       </defs>
       <use xlink:href="#DejaVuSans-32"/>
       <use xlink:href="#DejaVuSans-30" transform="translate(63.623047 0)"/>
       <use xlink:href="#DejaVuSans-20" transform="translate(127.246094 0)"/>
       <use xlink:href="#DejaVuSans-4d" transform="translate(159.033203 0)"/>
       <use xlink:href="#DejaVuSans-57" transform="translate(245.3125 0)"/>
      </g>
     </g>
    </g>
    <g id="xtick_3">
     <g id="line2d_3">
      <g>
       <use xlink:href="#m74605382f9" x="281.721405" y="364.683812" style="stroke: #000000; stroke-width: 0.8"/>
      </g>
     </g>
     <g id="text_3">
      <!-- 30 MW -->
      <g style="fill: #333333" transform="translate(264.51203 379.28225) scale(0.1 -0.1)">
       <defs>
        <path id="DejaVuSans-33" d="M 2597 2516 
Q 3050 2419 3304 2112 
Q 3559 1806 3559 1356 
Q 3559 666 3084 287 
Q 2609 -91 1734 -91 
Q 1441 -91 1130 -33 
Q 819 25 488 141 
L 488 750 
Q 750 597 1062 519 
Q 1375 441 1716 441 
Q 2309 441 2620 675 
Q 2931 909 2931 1356 
Q 2931 1769 2642 2001 
Q 2353 2234 1838 2234 
L 1294 2234 
L 1294 2753 
L 1863 2753 
Q 2328 2753 2575 2939 
Q 2822 3125 2822 3475 
Q 2822 3834 2567 4026 
Q 2313 4219 1838 4219 
Q 1578 4219 1281 4162 
Q 984 4106 628 3988 
L 628 4550 
Q 988 4650 1302 4700 
Q 1616 4750 1894 4750 
Q 2613 4750 3031 4423 
Q 3450 4097 3450 3541 
Q 3450 3153 3228 2886 
Q 3006 2619 2597 2516 
z
" transform="scale(0.015625)"/>
       </defs>
       <use xlink:href="#DejaVuSans-33"/>
       <use xlink:href="#DejaVuSans-30" transform="translate(63.623047 0)"/>
       <use xlink:href="#DejaVuSans-20" transform="translate(127.246094 0)"/>
       <use xlink:href="#DejaVuSans-4d" transform="translate(159.033203 0)"/>
       <use xlink:href="#DejaVuSans-57" transform="translate(245.3125 0)"/>
      </g>
     </g>
    </g>
    <g id="xtick_4">
     <g id="line2d_4">
      <g>
       <use xlink:href="#m74605382f9" x="373.969844" y="364.683812" style="stroke: #000000; stroke-width: 0.8"/>
      </g>
     </g>
     <g id="text_4">
      <!-- 40 MW -->
      <g style="fill: #333333" transform="translate(356.760469 379.28225) scale(0.1 -0.1)">
       <defs>
        <path id="DejaVuSans-34" d="M 2419 4116 
L 825 1625 
L 2419 1625 
L 2419 4116 
z
M 2253 4666 
L 3047 4666 
L 3047 1625 
L 3713 1625 
L 3713 1100 
L 3047 1100 
L 3047 0 
L 2419 0 
L 2419 1100 
L 313 1100 
L 313 1709 
L 2253 4666 
z
" transform="scale(0.015625)"/>
       </defs>
       <use xlink:href="#DejaVuSans-34"/>
       <use xlink:href="#DejaVuSans-30" transform="translate(63.623047 0)"/>
       <use xlink:href="#DejaVuSans-20" transform="translate(127.246094 0)"/>
       <use xlink:href="#DejaVuSans-4d" transform="translate(159.033203 0)"/>
       <use xlink:href="#DejaVuSans-57" transform="translate(245.3125 0)"/>
      </g>
     </g>
    </g>
    <g id="xtick_5">
     <g id="line2d_5">
      <g>
       <use xlink:href="#m74605382f9" x="466.218282" y="364.683812" style="stroke: #000000; stroke-width: 0.8"/>
      </g>
     </g>
     <g id="text_5">
      <!-- 50 MW -->
      <g style="fill: #333333" transform="translate(449.008907 379.28225) scale(0.1 -0.1)">
       <defs>
        <path id="DejaVuSans-35" d="M 691 4666 
L 3169 4666 
L 3169 4134 
L 1269 4134 
L 1269 2991 
Q 1406 3038 1543 3061 
Q 1681 3084 1819 3084 
Q 2600 3084 3056 2656 
Q 3513 2228 3513 1497 
Q 3513 744 3044 326 
Q 2575 -91 1722 -91 
Q 1428 -91 1123 -41 
Q 819 9 494 109 
L 494 744 
Q 775 591 1075 516 
Q 1375 441 1709 441 
Q 2250 441 2565 725 
Q 2881 1009 2881 1497 
Q 2881 1984 2565 2268 
Q 2250 2553 1709 2553 
Q 1456 2553 1204 2497 
Q 953 2441 691 2322 
L 691 4666 
z
" transform="scale(0.015625)"/>
       </defs>
       <use xlink:href="#DejaVuSans-35"/>
       <use xlink:href="#DejaVuSans-30" transform="translate(63.623047 0)"/>
       <use xlink:href="#DejaVuSans-20" transform="translate(127.246094 0)"/>
       <use xlink:href="#DejaVuSans-4d" transform="translate(159.033203 0)"/>
       <use xlink:href="#DejaVuSans-57" transform="translate(245.3125 0)"/>
      </g>
     </g>
    </g>
    <g id="xtick_6">
     <g id="line2d_6">
      <g>
       <use xlink:href="#m74605382f9" x="558.466721" y="364.683812" style="stroke: #000000; stroke-width: 0.8"/>
      </g>
     </g>
     <g id="text_6">
      <!-- 75 MW -->
      <g style="fill: #333333" transform="translate(541.257346 379.28225) scale(0.1 -0.1)">
       <defs>
        <path id="DejaVuSans-37" d="M 525 4666 
L 3525 4666 
L 3525 4397 
L 1831 0 
L 1172 0 
L 2766 4134 
L 525 4134 
L 525 4666 
z
" transform="scale(0.015625)"/>
       </defs>
       <use xlink:href="#DejaVuSans-37"/>
       <use xlink:href="#DejaVuSans-35" transform="translate(63.623047 0)"/>
       <use xlink:href="#DejaVuSans-20" transform="translate(127.246094 0)"/>
       <use xlink:href="#DejaVuSans-4d" transform="translate(159.033203 0)"/>
       <use xlink:href="#DejaVuSans-57" transform="translate(245.3125 0)"/>
      </g>
     </g>
    </g>
    <g id="xtick_7">
     <g id="line2d_7">
      <g>
       <use xlink:href="#m74605382f9" x="650.71516" y="364.683812" style="stroke: #000000; stroke-width: 0.8"/>
      </g>
     </g>
     <g id="text_7">
      <!-- 100 MW -->
      <g style="fill: #333333" transform="translate(630.324535 379.28225) scale(0.1 -0.1)">
       <use xlink:href="#DejaVuSans-31"/>
       <use xlink:href="#DejaVuSans-30" transform="translate(63.623047 0)"/>
       <use xlink:href="#DejaVuSans-30" transform="translate(127.246094 0)"/>
       <use xlink:href="#DejaVuSans-20" transform="translate(190.869141 0)"/>
       <use xlink:href="#DejaVuSans-4d" transform="translate(222.65625 0)"/>
       <use xlink:href="#DejaVuSans-57" transform="translate(308.935547 0)"/>
      </g>
     </g>
    </g>
    <g id="text_8">
     <!-- Installed IT Capacity (MW) -->
     <g style="fill: #444444" transform="translate(292.090312 393.720219) scale(0.11 -0.11)">
      <defs>
       <path id="DejaVuSans-Bold-49" d="M 588 4666 
L 1791 4666 
L 1791 0 
L 588 0 
L 588 4666 
z
" transform="scale(0.015625)"/>
       <path id="DejaVuSans-Bold-6e" d="M 4056 2131 
L 4056 0 
L 2931 0 
L 2931 347 
L 2931 1631 
Q 2931 2084 2911 2256 
Q 2891 2428 2841 2509 
Q 2775 2619 2662 2680 
Q 2550 2741 2406 2741 
Q 2056 2741 1856 2470 
Q 1656 2200 1656 1722 
L 1656 0 
L 538 0 
L 538 3500 
L 1656 3500 
L 1656 2988 
Q 1909 3294 2193 3439 
Q 2478 3584 2822 3584 
Q 3428 3584 3742 3212 
Q 4056 2841 4056 2131 
z
" transform="scale(0.015625)"/>
       <path id="DejaVuSans-Bold-73" d="M 3272 3391 
L 3272 2541 
Q 2913 2691 2578 2766 
Q 2244 2841 1947 2841 
Q 1628 2841 1473 2761 
Q 1319 2681 1319 2516 
Q 1319 2381 1436 2309 
Q 1553 2238 1856 2203 
L 2053 2175 
Q 2913 2066 3209 1816 
Q 3506 1566 3506 1031 
Q 3506 472 3093 190 
Q 2681 -91 1863 -91 
Q 1516 -91 1145 -36 
Q 775 19 384 128 
L 384 978 
Q 719 816 1070 734 
Q 1422 653 1784 653 
Q 2113 653 2278 743 
Q 2444 834 2444 1013 
Q 2444 1163 2330 1236 
Q 2216 1309 1875 1350 
L 1678 1375 
Q 931 1469 631 1722 
Q 331 1975 331 2491 
Q 331 3047 712 3315 
Q 1094 3584 1881 3584 
Q 2191 3584 2531 3537 
Q 2872 3491 3272 3391 
z
" transform="scale(0.015625)"/>
       <path id="DejaVuSans-Bold-74" d="M 1759 4494 
L 1759 3500 
L 2913 3500 
L 2913 2700 
L 1759 2700 
L 1759 1216 
Q 1759 972 1856 886 
Q 1953 800 2241 800 
L 2816 800 
L 2816 0 
L 1856 0 
Q 1194 0 917 276 
Q 641 553 641 1216 
L 641 2700 
L 84 2700 
L 84 3500 
L 641 3500 
L 641 4494 
L 1759 4494 
z
" transform="scale(0.015625)"/>
       <path id="DejaVuSans-Bold-61" d="M 2106 1575 
Q 1756 1575 1579 1456 
Q 1403 1338 1403 1106 
Q 1403 894 1545 773 
Q 1688 653 1941 653 
Q 2256 653 2472 879 
Q 2688 1106 2688 1447 
L 2688 1575 
L 2106 1575 
z
M 3816 1997 
L 3816 0 
L 2688 0 
L 2688 519 
Q 2463 200 2181 54 
Q 1900 -91 1497 -91 
Q 953 -91 614 226 
Q 275 544 275 1050 
Q 275 1666 698 1953 
Q 1122 2241 2028 2241 
L 2688 2241 
L 2688 2328 
Q 2688 2594 2478 2717 
Q 2269 2841 1825 2841 
Q 1466 2841 1156 2769 
Q 847 2697 581 2553 
L 581 3406 
Q 941 3494 1303 3539 
Q 1666 3584 2028 3584 
Q 2975 3584 3395 3211 
Q 3816 2838 3816 1997 
z
" transform="scale(0.015625)"/>
       <path id="DejaVuSans-Bold-6c" d="M 538 4863 
L 1656 4863 
L 1656 0 
L 538 0 
L 538 4863 
z
" transform="scale(0.015625)"/>
       <path id="DejaVuSans-Bold-65" d="M 4031 1759 
L 4031 1441 
L 1416 1441 
Q 1456 1047 1700 850 
Q 1944 653 2381 653 
Q 2734 653 3104 758 
Q 3475 863 3866 1075 
L 3866 213 
Q 3469 63 3072 -14 
Q 2675 -91 2278 -91 
Q 1328 -91 801 392 
Q 275 875 275 1747 
Q 275 2603 792 3093 
Q 1309 3584 2216 3584 
Q 3041 3584 3536 3087 
Q 4031 2591 4031 1759 
z
M 2881 2131 
Q 2881 2450 2695 2645 
Q 2509 2841 2209 2841 
Q 1884 2841 1681 2658 
Q 1478 2475 1428 2131 
L 2881 2131 
z
" transform="scale(0.015625)"/>
       <path id="DejaVuSans-Bold-64" d="M 2919 2988 
L 2919 4863 
L 4044 4863 
L 4044 0 
L 2919 0 
L 2919 506 
Q 2688 197 2409 53 
Q 2131 -91 1766 -91 
Q 1119 -91 703 423 
Q 288 938 288 1747 
Q 288 2556 703 3070 
Q 1119 3584 1766 3584 
Q 2128 3584 2408 3439 
Q 2688 3294 2919 2988 
z
M 2181 722 
Q 2541 722 2730 984 
Q 2919 1247 2919 1747 
Q 2919 2247 2730 2509 
Q 2541 2772 2181 2772 
Q 1825 2772 1636 2509 
Q 1447 2247 1447 1747 
Q 1447 1247 1636 984 
Q 1825 722 2181 722 
z
" transform="scale(0.015625)"/>
       <path id="DejaVuSans-Bold-20" transform="scale(0.015625)"/>
       <path id="DejaVuSans-Bold-54" d="M 31 4666 
L 4331 4666 
L 4331 3756 
L 2784 3756 
L 2784 0 
L 1581 0 
L 1581 3756 
L 31 3756 
L 31 4666 
z
" transform="scale(0.015625)"/>
       <path id="DejaVuSans-Bold-43" d="M 4288 256 
Q 3956 84 3597 -3 
Q 3238 -91 2847 -91 
Q 1681 -91 1000 561 
Q 319 1213 319 2328 
Q 319 3447 1000 4098 
Q 1681 4750 2847 4750 
Q 3238 4750 3597 4662 
Q 3956 4575 4288 4403 
L 4288 3438 
Q 3953 3666 3628 3772 
Q 3303 3878 2944 3878 
Q 2300 3878 1931 3465 
Q 1563 3053 1563 2328 
Q 1563 1606 1931 1193 
Q 2300 781 2944 781 
Q 3303 781 3628 887 
Q 3953 994 4288 1222 
L 4288 256 
z
" transform="scale(0.015625)"/>
       <path id="DejaVuSans-Bold-70" d="M 1656 506 
L 1656 -1331 
L 538 -1331 
L 538 3500 
L 1656 3500 
L 1656 2988 
Q 1888 3294 2169 3439 
Q 2450 3584 2816 3584 
Q 3463 3584 3878 3070 
Q 4294 2556 4294 1747 
Q 4294 938 3878 423 
Q 3463 -91 2816 -91 
Q 2450 -91 2169 54 
Q 1888 200 1656 506 
z
M 2400 2772 
Q 2041 2772 1848 2508 
Q 1656 2244 1656 1747 
Q 1656 1250 1848 986 
Q 2041 722 2400 722 
Q 2759 722 2948 984 
Q 3138 1247 3138 1747 
Q 3138 2247 2948 2509 
Q 2759 2772 2400 2772 
z
" transform="scale(0.015625)"/>
       <path id="DejaVuSans-Bold-63" d="M 3366 3391 
L 3366 2478 
Q 3138 2634 2908 2709 
Q 2678 2784 2431 2784 
Q 1963 2784 1702 2511 
Q 1441 2238 1441 1747 
Q 1441 1256 1702 982 
Q 1963 709 2431 709 
Q 2694 709 2930 787 
Q 3166 866 3366 1019 
L 3366 103 
Q 3103 6 2833 -42 
Q 2563 -91 2291 -91 
Q 1344 -91 809 395 
Q 275 881 275 1747 
Q 275 2613 809 3098 
Q 1344 3584 2291 3584 
Q 2566 3584 2833 3536 
Q 3100 3488 3366 3391 
z
" transform="scale(0.015625)"/>
       <path id="DejaVuSans-Bold-69" d="M 538 3500 
L 1656 3500 
L 1656 0 
L 538 0 
L 538 3500 
z
M 538 4863 
L 1656 4863 
L 1656 3950 
L 538 3950 
L 538 4863 
z
" transform="scale(0.015625)"/>
       <path id="DejaVuSans-Bold-79" d="M 78 3500 
L 1197 3500 
L 2138 1125 
L 2938 3500 
L 4056 3500 
L 2584 -331 
Q 2363 -916 2067 -1148 
Q 1772 -1381 1288 -1381 
L 641 -1381 
L 641 -647 
L 991 -647 
Q 1275 -647 1404 -556 
Q 1534 -466 1606 -231 
L 1638 -134 
L 78 3500 
z
" transform="scale(0.015625)"/>
       <path id="DejaVuSans-Bold-28" d="M 2413 -844 
L 1484 -844 
Q 1006 -72 778 623 
Q 550 1319 550 2003 
Q 550 2688 779 3389 
Q 1009 4091 1484 4856 
L 2413 4856 
Q 2013 4116 1813 3408 
Q 1613 2700 1613 2009 
Q 1613 1319 1811 609 
Q 2009 -100 2413 -844 
z
" transform="scale(0.015625)"/>
       <path id="DejaVuSans-Bold-4d" d="M 588 4666 
L 2119 4666 
L 3181 2169 
L 4250 4666 
L 5778 4666 
L 5778 0 
L 4641 0 
L 4641 3413 
L 3566 897 
L 2803 897 
L 1728 3413 
L 1728 0 
L 588 0 
L 588 4666 
z
" transform="scale(0.015625)"/>
       <path id="DejaVuSans-Bold-57" d="M 191 4666 
L 1344 4666 
L 2150 1275 
L 2950 4666 
L 4109 4666 
L 4909 1275 
L 5716 4666 
L 6859 4666 
L 5759 0 
L 4372 0 
L 3525 3547 
L 2688 0 
L 1300 0 
L 191 4666 
z
" transform="scale(0.015625)"/>
       <path id="DejaVuSans-Bold-29" d="M 513 -844 
Q 913 -100 1113 609 
Q 1313 1319 1313 2009 
Q 1313 2700 1113 3408 
Q 913 4116 513 4856 
L 1441 4856 
Q 1916 4091 2145 3389 
Q 2375 2688 2375 2003 
Q 2375 1319 2147 623 
Q 1919 -72 1441 -844 
L 513 -844 
z
" transform="scale(0.015625)"/>
      </defs>
      <use xlink:href="#DejaVuSans-Bold-49"/>
      <use xlink:href="#DejaVuSans-Bold-6e" transform="translate(37.207031 0)"/>
      <use xlink:href="#DejaVuSans-Bold-73" transform="translate(108.398438 0)"/>
      <use xlink:href="#DejaVuSans-Bold-74" transform="translate(167.919922 0)"/>
      <use xlink:href="#DejaVuSans-Bold-61" transform="translate(215.722656 0)"/>
      <use xlink:href="#DejaVuSans-Bold-6c" transform="translate(283.203125 0)"/>
      <use xlink:href="#DejaVuSans-Bold-6c" transform="translate(317.480469 0)"/>
      <use xlink:href="#DejaVuSans-Bold-65" transform="translate(351.757812 0)"/>
      <use xlink:href="#DejaVuSans-Bold-64" transform="translate(419.580078 0)"/>
      <use xlink:href="#DejaVuSans-Bold-20" transform="translate(491.162109 0)"/>
      <use xlink:href="#DejaVuSans-Bold-49" transform="translate(525.976562 0)"/>
      <use xlink:href="#DejaVuSans-Bold-54" transform="translate(563.183594 0)"/>
      <use xlink:href="#DejaVuSans-Bold-20" transform="translate(631.396484 0)"/>
      <use xlink:href="#DejaVuSans-Bold-43" transform="translate(666.210938 0)"/>
      <use xlink:href="#DejaVuSans-Bold-61" transform="translate(739.599609 0)"/>
      <use xlink:href="#DejaVuSans-Bold-70" transform="translate(807.080078 0)"/>
      <use xlink:href="#DejaVuSans-Bold-61" transform="translate(878.662109 0)"/>
      <use xlink:href="#DejaVuSans-Bold-63" transform="translate(946.142578 0)"/>
      <use xlink:href="#DejaVuSans-Bold-69" transform="translate(1005.419922 0)"/>
      <use xlink:href="#DejaVuSans-Bold-74" transform="translate(1039.697266 0)"/>
      <use xlink:href="#DejaVuSans-Bold-79" transform="translate(1087.5 0)"/>
      <use xlink:href="#DejaVuSans-Bold-20" transform="translate(1152.685547 0)"/>
      <use xlink:href="#DejaVuSans-Bold-28" transform="translate(1187.5 0)"/>
      <use xlink:href="#DejaVuSans-Bold-4d" transform="translate(1233.203125 0)"/>
      <use xlink:href="#DejaVuSans-Bold-57" transform="translate(1332.714844 0)"/>
      <use xlink:href="#DejaVuSans-Bold-29" transform="translate(1443.017578 0)"/>
     </g>
    </g>
   </g>
   <g id="matplotlib.axis_2">
    <g id="ytick_1">
     <g id="line2d_8">
      <path d="M 41.644844 364.683812 
L 706.294844 364.683812 
" clip-path="url(#p6b36d4f484)" style="fill: none; stroke-dasharray: 2.96,1.28; stroke-dashoffset: 0; stroke: #b0b0b0; stroke-opacity: 0.4; stroke-width: 0.8"/>
     </g>
     <g id="line2d_9">
      <defs>
       <path id="mb99683e820" d="M 0 0 
L -3.5 0 
" style="stroke: #333333; stroke-width: 0.8"/>
      </defs>
      <g>
       <use xlink:href="#mb99683e820" x="41.644844" y="364.683812" style="fill: #333333; stroke: #333333; stroke-width: 0.8"/>
      </g>
     </g>
     <g id="text_9">
      <!-- 0 -->
      <g style="fill: #333333" transform="translate(28.282344 368.483031) scale(0.1 -0.1)">
       <use xlink:href="#DejaVuSans-30"/>
      </g>
     </g>
    </g>
    <g id="ytick_2">
     <g id="line2d_10">
      <path d="M 41.644844 313.191523 
L 706.294844 313.191523 
" clip-path="url(#p6b36d4f484)" style="fill: none; stroke-dasharray: 2.96,1.28; stroke-dashoffset: 0; stroke: #b0b0b0; stroke-opacity: 0.4; stroke-width: 0.8"/>
     </g>
     <g id="line2d_11">
      <g>
       <use xlink:href="#mb99683e820" x="41.644844" y="313.191523" style="fill: #333333; stroke: #333333; stroke-width: 0.8"/>
      </g>
     </g>
     <g id="text_10">
      <!-- 10 -->
      <g style="fill: #333333" transform="translate(21.919844 316.990742) scale(0.1 -0.1)">
       <use xlink:href="#DejaVuSans-31"/>
       <use xlink:href="#DejaVuSans-30" transform="translate(63.623047 0)"/>
      </g>
     </g>
    </g>
    <g id="ytick_3">
     <g id="line2d_12">
      <path d="M 41.644844 261.699234 
L 706.294844 261.699234 
" clip-path="url(#p6b36d4f484)" style="fill: none; stroke-dasharray: 2.96,1.28; stroke-dashoffset: 0; stroke: #b0b0b0; stroke-opacity: 0.4; stroke-width: 0.8"/>
     </g>
     <g id="line2d_13">
      <g>
       <use xlink:href="#mb99683e820" x="41.644844" y="261.699234" style="fill: #333333; stroke: #333333; stroke-width: 0.8"/>
      </g>
     </g>
     <g id="text_11">
      <!-- 20 -->
      <g style="fill: #333333" transform="translate(21.919844 265.498453) scale(0.1 -0.1)">
       <use xlink:href="#DejaVuSans-32"/>
       <use xlink:href="#DejaVuSans-30" transform="translate(63.623047 0)"/>
      </g>
     </g>
    </g>
    <g id="ytick_4">
     <g id="line2d_14">
      <path d="M 41.644844 210.206945 
L 706.294844 210.206945 
" clip-path="url(#p6b36d4f484)" style="fill: none; stroke-dasharray: 2.96,1.28; stroke-dashoffset: 0; stroke: #b0b0b0; stroke-opacity: 0.4; stroke-width: 0.8"/>
     </g>
     <g id="line2d_15">
      <g>
       <use xlink:href="#mb99683e820" x="41.644844" y="210.206945" style="fill: #333333; stroke: #333333; stroke-width: 0.8"/>
      </g>
     </g>
     <g id="text_12">
      <!-- 30 -->
      <g style="fill: #333333" transform="translate(21.919844 214.006163) scale(0.1 -0.1)">
       <use xlink:href="#DejaVuSans-33"/>
       <use xlink:href="#DejaVuSans-30" transform="translate(63.623047 0)"/>
      </g>
     </g>
    </g>
    <g id="ytick_5">
     <g id="line2d_16">
      <path d="M 41.644844 158.714655 
L 706.294844 158.714655 
" clip-path="url(#p6b36d4f484)" style="fill: none; stroke-dasharray: 2.96,1.28; stroke-dashoffset: 0; stroke: #b0b0b0; stroke-opacity: 0.4; stroke-width: 0.8"/>
     </g>
     <g id="line2d_17">
      <g>
       <use xlink:href="#mb99683e820" x="41.644844" y="158.714655" style="fill: #333333; stroke: #333333; stroke-width: 0.8"/>
      </g>
     </g>
     <g id="text_13">
      <!-- 40 -->
      <g style="fill: #333333" transform="translate(21.919844 162.513874) scale(0.1 -0.1)">
       <use xlink:href="#DejaVuSans-34"/>
       <use xlink:href="#DejaVuSans-30" transform="translate(63.623047 0)"/>
      </g>
     </g>
    </g>
    <g id="ytick_6">
     <g id="line2d_18">
      <path d="M 41.644844 107.222366 
L 706.294844 107.222366 
" clip-path="url(#p6b36d4f484)" style="fill: none; stroke-dasharray: 2.96,1.28; stroke-dashoffset: 0; stroke: #b0b0b0; stroke-opacity: 0.4; stroke-width: 0.8"/>
     </g>
     <g id="line2d_19">
      <g>
       <use xlink:href="#mb99683e820" x="41.644844" y="107.222366" style="fill: #333333; stroke: #333333; stroke-width: 0.8"/>
      </g>
     </g>
     <g id="text_14">
      <!-- 50 -->
      <g style="fill: #333333" transform="translate(21.919844 111.021585) scale(0.1 -0.1)">
       <use xlink:href="#DejaVuSans-35"/>
       <use xlink:href="#DejaVuSans-30" transform="translate(63.623047 0)"/>
      </g>
     </g>
    </g>
    <g id="ytick_7">
     <g id="line2d_20">
      <path d="M 41.644844 55.730077 
L 706.294844 55.730077 
" clip-path="url(#p6b36d4f484)" style="fill: none; stroke-dasharray: 2.96,1.28; stroke-dashoffset: 0; stroke: #b0b0b0; stroke-opacity: 0.4; stroke-width: 0.8"/>
     </g>
     <g id="line2d_21">
      <g>
       <use xlink:href="#mb99683e820" x="41.644844" y="55.730077" style="fill: #333333; stroke: #333333; stroke-width: 0.8"/>
      </g>
     </g>
     <g id="text_15">
      <!-- 60 -->
      <g style="fill: #333333" transform="translate(21.919844 59.529295) scale(0.1 -0.1)">
       <use xlink:href="#DejaVuSans-36"/>
       <use xlink:href="#DejaVuSans-30" transform="translate(63.623047 0)"/>
      </g>
     </g>
    </g>
    <g id="text_16">
     <!-- Average Power (MW) -->
     <g style="fill: #444444" transform="translate(15.54625 263.955578) rotate(-90) scale(0.11 -0.11)">
      <defs>
       <path id="DejaVuSans-Bold-41" d="M 3419 850 
L 1538 850 
L 1241 0 
L 31 0 
L 1759 4666 
L 3194 4666 
L 4922 0 
L 3713 0 
L 3419 850 
z
M 1838 1716 
L 3116 1716 
L 2478 3572 
L 1838 1716 
z
" transform="scale(0.015625)"/>
       <path id="DejaVuSans-Bold-76" d="M 97 3500 
L 1216 3500 
L 2088 1081 
L 2956 3500 
L 4078 3500 
L 2700 0 
L 1472 0 
L 97 3500 
z
" transform="scale(0.015625)"/>
       <path id="DejaVuSans-Bold-72" d="M 3138 2547 
Q 2991 2616 2845 2648 
Q 2700 2681 2553 2681 
Q 2122 2681 1889 2404 
Q 1656 2128 1656 1613 
L 1656 0 
L 538 0 
L 538 3500 
L 1656 3500 
L 1656 2925 
Q 1872 3269 2151 3426 
Q 2431 3584 2822 3584 
Q 2878 3584 2943 3579 
Q 3009 3575 3134 3559 
L 3138 2547 
z
" transform="scale(0.015625)"/>
       <path id="DejaVuSans-Bold-67" d="M 2919 594 
Q 2688 288 2409 144 
Q 2131 0 1766 0 
Q 1125 0 706 504 
Q 288 1009 288 1791 
Q 288 2575 706 3076 
Q 1125 3578 1766 3578 
Q 2131 3578 2409 3434 
Q 2688 3291 2919 2981 
L 2919 3500 
L 4044 3500 
L 4044 353 
Q 4044 -491 3511 -936 
Q 2978 -1381 1966 -1381 
Q 1638 -1381 1331 -1331 
Q 1025 -1281 716 -1178 
L 716 -306 
Q 1009 -475 1290 -558 
Q 1572 -641 1856 -641 
Q 2406 -641 2662 -400 
Q 2919 -159 2919 353 
L 2919 594 
z
M 2181 2772 
Q 1834 2772 1640 2515 
Q 1447 2259 1447 1791 
Q 1447 1309 1634 1061 
Q 1822 813 2181 813 
Q 2531 813 2725 1069 
Q 2919 1325 2919 1791 
Q 2919 2259 2725 2515 
Q 2531 2772 2181 2772 
z
" transform="scale(0.015625)"/>
       <path id="DejaVuSans-Bold-50" d="M 588 4666 
L 2584 4666 
Q 3475 4666 3951 4270 
Q 4428 3875 4428 3144 
Q 4428 2409 3951 2014 
Q 3475 1619 2584 1619 
L 1791 1619 
L 1791 0 
L 588 0 
L 588 4666 
z
M 1791 3794 
L 1791 2491 
L 2456 2491 
Q 2806 2491 2997 2661 
Q 3188 2831 3188 3144 
Q 3188 3456 2997 3625 
Q 2806 3794 2456 3794 
L 1791 3794 
z
" transform="scale(0.015625)"/>
       <path id="DejaVuSans-Bold-6f" d="M 2203 2784 
Q 1831 2784 1636 2517 
Q 1441 2250 1441 1747 
Q 1441 1244 1636 976 
Q 1831 709 2203 709 
Q 2569 709 2762 976 
Q 2956 1244 2956 1747 
Q 2956 2250 2762 2517 
Q 2569 2784 2203 2784 
z
M 2203 3584 
Q 3106 3584 3614 3096 
Q 4122 2609 4122 1747 
Q 4122 884 3614 396 
Q 3106 -91 2203 -91 
Q 1297 -91 786 396 
Q 275 884 275 1747 
Q 275 2609 786 3096 
Q 1297 3584 2203 3584 
z
" transform="scale(0.015625)"/>
       <path id="DejaVuSans-Bold-77" d="M 225 3500 
L 1313 3500 
L 1900 1088 
L 2491 3500 
L 3425 3500 
L 4013 1113 
L 4603 3500 
L 5691 3500 
L 4769 0 
L 3547 0 
L 2956 2406 
L 2369 0 
L 1147 0 
L 225 3500 
z
" transform="scale(0.015625)"/>
      </defs>
      <use xlink:href="#DejaVuSans-Bold-41"/>
      <use xlink:href="#DejaVuSans-Bold-76" transform="translate(73.767578 0)"/>
      <use xlink:href="#DejaVuSans-Bold-65" transform="translate(138.953125 0)"/>
      <use xlink:href="#DejaVuSans-Bold-72" transform="translate(206.775391 0)"/>
      <use xlink:href="#DejaVuSans-Bold-61" transform="translate(256.091797 0)"/>
      <use xlink:href="#DejaVuSans-Bold-67" transform="translate(323.572266 0)"/>
      <use xlink:href="#DejaVuSans-Bold-65" transform="translate(395.154297 0)"/>
      <use xlink:href="#DejaVuSans-Bold-20" transform="translate(462.976562 0)"/>
      <use xlink:href="#DejaVuSans-Bold-50" transform="translate(497.791016 0)"/>
      <use xlink:href="#DejaVuSans-Bold-6f" transform="translate(571.082031 0)"/>
      <use xlink:href="#DejaVuSans-Bold-77" transform="translate(639.783203 0)"/>
      <use xlink:href="#DejaVuSans-Bold-65" transform="translate(732.166016 0)"/>
      <use xlink:href="#DejaVuSans-Bold-72" transform="translate(799.988281 0)"/>
      <use xlink:href="#DejaVuSans-Bold-20" transform="translate(849.304688 0)"/>
      <use xlink:href="#DejaVuSans-Bold-28" transform="translate(884.119141 0)"/>
      <use xlink:href="#DejaVuSans-Bold-4d" transform="translate(929.822266 0)"/>
      <use xlink:href="#DejaVuSans-Bold-57" transform="translate(1029.333984 0)"/>
      <use xlink:href="#DejaVuSans-Bold-29" transform="translate(1139.636719 0)"/>
     </g>
    </g>
   </g>
   <g id="patch_3">
    <path d="M 41.644844 364.683812 
L 41.644844 32.837812 
" style="fill: none; stroke: #444444; stroke-width: 1.2; stroke-linejoin: miter; stroke-linecap: square"/>
   </g>
   <g id="patch_4">
    <path d="M 41.644844 364.683812 
L 706.294844 364.683812 
" style="fill: none; stroke: #444444; stroke-width: 1.2; stroke-linejoin: miter; stroke-linecap: square"/>
   </g>
   <g id="patch_5">
    <path d="M 71.856207 364.683812 
L 122.592849 364.683812 
L 122.592849 338.937668 
L 71.856207 338.937668 
z
" clip-path="url(#p6b36d4f484)" style="fill: #113b5e; stroke: #ffffff; stroke-width: 0.8; stroke-linejoin: miter"/>
   </g>
   <g id="patch_6">
    <path d="M 164.104646 364.683812 
L 214.841287 364.683812 
L 214.841287 323.508881 
L 164.104646 323.508881 
z
" clip-path="url(#p6b36d4f484)" style="fill: #113b5e; stroke: #ffffff; stroke-width: 0.8; stroke-linejoin: miter"/>
   </g>
   <g id="patch_7">
    <path d="M 256.353085 364.683812 
L 307.089726 364.683812 
L 307.089726 323.508881 
L 256.353085 323.508881 
z
" clip-path="url(#p6b36d4f484)" style="fill: #113b5e; stroke: #ffffff; stroke-width: 0.8; stroke-linejoin: miter"/>
   </g>
   <g id="patch_8">
    <path d="M 348.601523 364.683812 
L 399.338164 364.683812 
L 399.338164 338.937668 
L 348.601523 338.937668 
z
" clip-path="url(#p6b36d4f484)" style="fill: #113b5e; stroke: #ffffff; stroke-width: 0.8; stroke-linejoin: miter"/>
   </g>
   <g id="patch_9">
    <path d="M 440.849962 364.683812 
L 491.586603 364.683812 
L 491.586603 338.937668 
L 440.849962 338.937668 
z
" clip-path="url(#p6b36d4f484)" style="fill: #113b5e; stroke: #ffffff; stroke-width: 0.8; stroke-linejoin: miter"/>
   </g>
   <g id="patch_10">
    <path d="M 533.0984 364.683812 
L 583.835042 364.683812 
L 583.835042 338.937668 
L 533.0984 338.937668 
z
" clip-path="url(#p6b36d4f484)" style="fill: #113b5e; stroke: #ffffff; stroke-width: 0.8; stroke-linejoin: miter"/>
   </g>
   <g id="patch_11">
    <path d="M 625.346839 364.683812 
L 676.08348 364.683812 
L 676.08348 338.937668 
L 625.346839 338.937668 
z
" clip-path="url(#p6b36d4f484)" style="fill: #113b5e; stroke: #ffffff; stroke-width: 0.8; stroke-linejoin: miter"/>
   </g>
   <g id="patch_12">
    <path d="M 71.856207 338.937668 
L 122.592849 338.937668 
L 122.592849 308.042294 
L 71.856207 308.042294 
z
" clip-path="url(#p6b36d4f484)" style="fill: #2879b9; stroke: #ffffff; stroke-width: 0.8; stroke-linejoin: miter"/>
   </g>
   <g id="patch_13">
    <path d="M 164.104646 323.508881 
L 214.841287 323.508881 
L 214.841287 323.508881 
L 164.104646 323.508881 
z
" clip-path="url(#p6b36d4f484)" style="fill: #2879b9; stroke: #ffffff; stroke-width: 0.8; stroke-linejoin: miter"/>
   </g>
   <g id="patch_14">
    <path d="M 256.353085 323.508881 
L 307.089726 323.508881 
L 307.089726 323.508881 
L 256.353085 323.508881 
z
" clip-path="url(#p6b36d4f484)" style="fill: #2879b9; stroke: #ffffff; stroke-width: 0.8; stroke-linejoin: miter"/>
   </g>
   <g id="patch_15">
    <path d="M 348.601523 338.937668 
L 399.338164 338.937668 
L 399.338164 308.042294 
L 348.601523 308.042294 
z
" clip-path="url(#p6b36d4f484)" style="fill: #2879b9; stroke: #ffffff; stroke-width: 0.8; stroke-linejoin: miter"/>
   </g>
   <g id="patch_16">
    <path d="M 440.849962 338.937668 
L 491.586603 338.937668 
L 491.586603 308.042294 
L 440.849962 308.042294 
z
" clip-path="url(#p6b36d4f484)" style="fill: #2879b9; stroke: #ffffff; stroke-width: 0.8; stroke-linejoin: miter"/>
   </g>
   <g id="patch_17">
    <path d="M 533.0984 338.937668 
L 583.835042 338.937668 
L 583.835042 308.042294 
L 533.0984 308.042294 
z
" clip-path="url(#p6b36d4f484)" style="fill: #2879b9; stroke: #ffffff; stroke-width: 0.8; stroke-linejoin: miter"/>
   </g>
   <g id="patch_18">
    <path d="M 625.346839 338.937668 
L 676.08348 338.937668 
L 676.08348 308.042294 
L 625.346839 308.042294 
z
" clip-path="url(#p6b36d4f484)" style="fill: #2879b9; stroke: #ffffff; stroke-width: 0.8; stroke-linejoin: miter"/>
   </g>
   <g id="patch_19">
    <path d="M 71.856207 308.042294 
L 122.592849 308.042294 
L 122.592849 287.445379 
L 71.856207 287.445379 
z
" clip-path="url(#p6b36d4f484)" style="fill: #73b3d8; stroke: #ffffff; stroke-width: 0.8; stroke-linejoin: miter"/>
   </g>
   <g id="patch_20">
    <path d="M 164.104646 323.508881 
L 214.841287 323.508881 
L 214.841287 266.867363 
L 164.104646 266.867363 
z
" clip-path="url(#p6b36d4f484)" style="fill: #73b3d8; stroke: #ffffff; stroke-width: 0.8; stroke-linejoin: miter"/>
   </g>
   <g id="patch_21">
    <path d="M 256.353085 323.508881 
L 307.089726 323.508881 
L 307.089726 235.971989 
L 256.353085 235.971989 
z
" clip-path="url(#p6b36d4f484)" style="fill: #73b3d8; stroke: #ffffff; stroke-width: 0.8; stroke-linejoin: miter"/>
   </g>
   <g id="patch_22">
    <path d="M 348.601523 308.042294 
L 399.338164 308.042294 
L 399.338164 220.505402 
L 348.601523 220.505402 
z
" clip-path="url(#p6b36d4f484)" style="fill: #73b3d8; stroke: #ffffff; stroke-width: 0.8; stroke-linejoin: miter"/>
   </g>
   <g id="patch_23">
    <path d="M 440.849962 308.042294 
L 491.586603 308.042294 
L 491.586603 205.057716 
L 440.849962 205.057716 
z
" clip-path="url(#p6b36d4f484)" style="fill: #73b3d8; stroke: #ffffff; stroke-width: 0.8; stroke-linejoin: miter"/>
   </g>
   <g id="patch_24">
    <path d="M 533.0984 308.042294 
L 583.835042 308.042294 
L 583.835042 179.311571 
L 533.0984 179.311571 
z
" clip-path="url(#p6b36d4f484)" style="fill: #73b3d8; stroke: #ffffff; stroke-width: 0.8; stroke-linejoin: miter"/>
   </g>
   <g id="patch_25">
    <path d="M 625.346839 308.042294 
L 676.08348 308.042294 
L 676.08348 174.162342 
L 625.346839 174.162342 
z
" clip-path="url(#p6b36d4f484)" style="fill: #73b3d8; stroke: #ffffff; stroke-width: 0.8; stroke-linejoin: miter"/>
   </g>
   <g id="patch_26">
    <path d="M 71.856207 287.445379 
L 122.592849 287.445379 
L 122.592849 283.236351 
L 71.856207 283.236351 
z
" clip-path="url(#p6b36d4f484)" style="fill: #c8ddf0; stroke: #ffffff; stroke-width: 0.8; stroke-linejoin: miter"/>
   </g>
   <g id="patch_27">
    <path d="M 164.104646 266.867363 
L 214.841287 266.867363 
L 214.841287 264.576517 
L 164.104646 264.576517 
z
" clip-path="url(#p6b36d4f484)" style="fill: #c8ddf0; stroke: #ffffff; stroke-width: 0.8; stroke-linejoin: miter"/>
   </g>
   <g id="patch_28">
    <path d="M 256.353085 235.971989 
L 307.089726 235.971989 
L 307.089726 224.165655 
L 256.353085 224.165655 
z
" clip-path="url(#p6b36d4f484)" style="fill: #c8ddf0; stroke: #ffffff; stroke-width: 0.8; stroke-linejoin: miter"/>
   </g>
   <g id="patch_29">
    <path d="M 348.601523 220.505402 
L 399.338164 220.505402 
L 399.338164 191.2291 
L 348.601523 191.2291 
z
" clip-path="url(#p6b36d4f484)" style="fill: #c8ddf0; stroke: #ffffff; stroke-width: 0.8; stroke-linejoin: miter"/>
   </g>
   <g id="patch_30">
    <path d="M 440.849962 205.057716 
L 491.586603 205.057716 
L 491.586603 163.040713 
L 440.849962 163.040713 
z
" clip-path="url(#p6b36d4f484)" style="fill: #c8ddf0; stroke: #ffffff; stroke-width: 0.8; stroke-linejoin: miter"/>
   </g>
   <g id="patch_31">
    <path d="M 533.0984 179.311571 
L 583.835042 179.311571 
L 583.835042 112.594699 
L 533.0984 112.594699 
z
" clip-path="url(#p6b36d4f484)" style="fill: #c8ddf0; stroke: #ffffff; stroke-width: 0.8; stroke-linejoin: miter"/>
   </g>
   <g id="patch_32">
    <path d="M 625.346839 174.162342 
L 676.08348 174.162342 
L 676.08348 90.174285 
L 625.346839 90.174285 
z
" clip-path="url(#p6b36d4f484)" style="fill: #c8ddf0; stroke: #ffffff; stroke-width: 0.8; stroke-linejoin: miter"/>
   </g>
   <g id="patch_33">
    <path d="M 71.856207 283.236351 
L 122.592849 283.236351 
L 122.592849 48.640003 
L 71.856207 48.640003 
z
" clip-path="url(#p6b36d4f484)" style="fill: url(#ha0920d5e1f); stroke: #d35400; stroke-width: 1.2; stroke-linejoin: miter"/>
   </g>
   <g id="patch_34">
    <path d="M 164.104646 264.576517 
L 214.841287 264.576517 
L 214.841287 51.199885 
L 164.104646 51.199885 
z
" clip-path="url(#p6b36d4f484)" style="fill: url(#ha0920d5e1f); stroke: #d35400; stroke-width: 1.2; stroke-linejoin: miter"/>
   </g>
   <g id="patch_35">
    <path d="M 256.353085 224.165655 
L 307.089726 224.165655 
L 307.089726 57.49733 
L 256.353085 57.49733 
z
" clip-path="url(#p6b36d4f484)" style="fill: url(#ha0920d5e1f); stroke: #d35400; stroke-width: 1.2; stroke-linejoin: miter"/>
   </g>
   <g id="patch_36">
    <path d="M 348.601523 191.2291 
L 399.338164 191.2291 
L 399.338164 62.792803 
L 348.601523 62.792803 
z
" clip-path="url(#p6b36d4f484)" style="fill: url(#ha0920d5e1f); stroke: #d35400; stroke-width: 1.2; stroke-linejoin: miter"/>
   </g>
   <g id="patch_37">
    <path d="M 440.849962 163.040713 
L 491.586603 163.040713 
L 491.586603 66.936309 
L 440.849962 66.936309 
z
" clip-path="url(#p6b36d4f484)" style="fill: url(#ha0920d5e1f); stroke: #d35400; stroke-width: 1.2; stroke-linejoin: miter"/>
   </g>
   <g id="patch_38">
    <path d="M 533.0984 112.594699 
L 583.835042 112.594699 
L 583.835042 73.715568 
L 533.0984 73.715568 
z
" clip-path="url(#p6b36d4f484)" style="fill: url(#ha0920d5e1f); stroke: #d35400; stroke-width: 1.2; stroke-linejoin: miter"/>
   </g>
   <g id="patch_39">
    <path d="M 625.346839 90.174285 
L 676.08348 90.174285 
L 676.08348 75.764948 
L 625.346839 75.764948 
z
" clip-path="url(#p6b36d4f484)" style="fill: url(#ha0920d5e1f); stroke: #d35400; stroke-width: 1.2; stroke-linejoin: miter"/>
   </g>
   <g id="text_17">
    <!-- Data Center Energy Balance at Optimal Workload Mix -->
    <g style="fill: #333333" transform="translate(162.889219 17.837812) scale(0.14 -0.14)">
     <defs>
      <path id="DejaVuSans-Bold-44" d="M 1791 3756 
L 1791 909 
L 2222 909 
Q 2959 909 3348 1275 
Q 3738 1641 3738 2338 
Q 3738 3031 3350 3393 
Q 2963 3756 2222 3756 
L 1791 3756 
z
M 588 4666 
L 1856 4666 
Q 2919 4666 3439 4514 
Q 3959 4363 4331 4000 
Q 4659 3684 4818 3271 
Q 4978 2859 4978 2338 
Q 4978 1809 4818 1395 
Q 4659 981 4331 666 
Q 3956 303 3431 151 
Q 2906 0 1856 0 
L 588 0 
L 588 4666 
z
" transform="scale(0.015625)"/>
      <path id="DejaVuSans-Bold-45" d="M 588 4666 
L 3834 4666 
L 3834 3756 
L 1791 3756 
L 1791 2888 
L 3713 2888 
L 3713 1978 
L 1791 1978 
L 1791 909 
L 3903 909 
L 3903 0 
L 588 0 
L 588 4666 
z
" transform="scale(0.015625)"/>
      <path id="DejaVuSans-Bold-42" d="M 2456 2859 
Q 2741 2859 2887 2984 
Q 3034 3109 3034 3353 
Q 3034 3594 2887 3720 
Q 2741 3847 2456 3847 
L 1791 3847 
L 1791 2859 
L 2456 2859 
z
M 2497 819 
Q 2859 819 3042 972 
Q 3225 1125 3225 1434 
Q 3225 1738 3044 1889 
Q 2863 2041 2497 2041 
L 1791 2041 
L 1791 819 
L 2497 819 
z
M 3616 2497 
Q 4003 2384 4215 2081 
Q 4428 1778 4428 1338 
Q 4428 663 3972 331 
Q 3516 0 2584 0 
L 588 0 
L 588 4666 
L 2394 4666 
Q 3366 4666 3802 4372 
Q 4238 4078 4238 3431 
Q 4238 3091 4078 2852 
Q 3919 2613 3616 2497 
z
" transform="scale(0.015625)"/>
      <path id="DejaVuSans-Bold-4f" d="M 2719 3878 
Q 2169 3878 1866 3472 
Q 1563 3066 1563 2328 
Q 1563 1594 1866 1187 
Q 2169 781 2719 781 
Q 3272 781 3575 1187 
Q 3878 1594 3878 2328 
Q 3878 3066 3575 3472 
Q 3272 3878 2719 3878 
z
M 2719 4750 
Q 3844 4750 4481 4106 
Q 5119 3463 5119 2328 
Q 5119 1197 4481 553 
Q 3844 -91 2719 -91 
Q 1597 -91 958 553 
Q 319 1197 319 2328 
Q 319 3463 958 4106 
Q 1597 4750 2719 4750 
z
" transform="scale(0.015625)"/>
      <path id="DejaVuSans-Bold-6d" d="M 3781 2919 
Q 3994 3244 4286 3414 
Q 4578 3584 4928 3584 
Q 5531 3584 5847 3212 
Q 6163 2841 6163 2131 
L 6163 0 
L 5038 0 
L 5038 1825 
Q 5041 1866 5042 1909 
Q 5044 1953 5044 2034 
Q 5044 2406 4934 2573 
Q 4825 2741 4581 2741 
Q 4263 2741 4089 2478 
Q 3916 2216 3909 1719 
L 3909 0 
L 2784 0 
L 2784 1825 
Q 2784 2406 2684 2573 
Q 2584 2741 2328 2741 
Q 2006 2741 1831 2477 
Q 1656 2213 1656 1722 
L 1656 0 
L 531 0 
L 531 3500 
L 1656 3500 
L 1656 2988 
Q 1863 3284 2130 3434 
Q 2397 3584 2719 3584 
Q 3081 3584 3359 3409 
Q 3638 3234 3781 2919 
z
" transform="scale(0.015625)"/>
      <path id="DejaVuSans-Bold-6b" d="M 538 4863 
L 1656 4863 
L 1656 2216 
L 2944 3500 
L 4244 3500 
L 2534 1894 
L 4378 0 
L 3022 0 
L 1656 1459 
L 1656 0 
L 538 0 
L 538 4863 
z
" transform="scale(0.015625)"/>
      <path id="DejaVuSans-Bold-78" d="M 1422 1791 
L 159 3500 
L 1344 3500 
L 2059 2463 
L 2784 3500 
L 3969 3500 
L 2706 1797 
L 4031 0 
L 2847 0 
L 2059 1106 
L 1281 0 
L 97 0 
L 1422 1791 
z
" transform="scale(0.015625)"/>
     </defs>
     <use xlink:href="#DejaVuSans-Bold-44"/>
     <use xlink:href="#DejaVuSans-Bold-61" transform="translate(83.007812 0)"/>
     <use xlink:href="#DejaVuSans-Bold-74" transform="translate(150.488281 0)"/>
     <use xlink:href="#DejaVuSans-Bold-61" transform="translate(198.291016 0)"/>
     <use xlink:href="#DejaVuSans-Bold-20" transform="translate(265.771484 0)"/>
     <use xlink:href="#DejaVuSans-Bold-43" transform="translate(300.585938 0)"/>
     <use xlink:href="#DejaVuSans-Bold-65" transform="translate(373.974609 0)"/>
     <use xlink:href="#DejaVuSans-Bold-6e" transform="translate(441.796875 0)"/>
     <use xlink:href="#DejaVuSans-Bold-74" transform="translate(512.988281 0)"/>
     <use xlink:href="#DejaVuSans-Bold-65" transform="translate(560.791016 0)"/>
     <use xlink:href="#DejaVuSans-Bold-72" transform="translate(628.613281 0)"/>
     <use xlink:href="#DejaVuSans-Bold-20" transform="translate(677.929688 0)"/>
     <use xlink:href="#DejaVuSans-Bold-45" transform="translate(712.744141 0)"/>
     <use xlink:href="#DejaVuSans-Bold-6e" transform="translate(781.054688 0)"/>
     <use xlink:href="#DejaVuSans-Bold-65" transform="translate(852.246094 0)"/>
     <use xlink:href="#DejaVuSans-Bold-72" transform="translate(920.068359 0)"/>
     <use xlink:href="#DejaVuSans-Bold-67" transform="translate(969.384766 0)"/>
     <use xlink:href="#DejaVuSans-Bold-79" transform="translate(1040.966797 0)"/>
     <use xlink:href="#DejaVuSans-Bold-20" transform="translate(1106.152344 0)"/>
     <use xlink:href="#DejaVuSans-Bold-42" transform="translate(1140.966797 0)"/>
     <use xlink:href="#DejaVuSans-Bold-61" transform="translate(1217.1875 0)"/>
     <use xlink:href="#DejaVuSans-Bold-6c" transform="translate(1284.667969 0)"/>
     <use xlink:href="#DejaVuSans-Bold-61" transform="translate(1318.945312 0)"/>
     <use xlink:href="#DejaVuSans-Bold-6e" transform="translate(1386.425781 0)"/>
     <use xlink:href="#DejaVuSans-Bold-63" transform="translate(1457.617188 0)"/>
     <use xlink:href="#DejaVuSans-Bold-65" transform="translate(1516.894531 0)"/>
     <use xlink:href="#DejaVuSans-Bold-20" transform="translate(1584.716797 0)"/>
     <use xlink:href="#DejaVuSans-Bold-61" transform="translate(1619.53125 0)"/>
     <use xlink:href="#DejaVuSans-Bold-74" transform="translate(1687.011719 0)"/>
     <use xlink:href="#DejaVuSans-Bold-20" transform="translate(1734.814453 0)"/>
     <use xlink:href="#DejaVuSans-Bold-4f" transform="translate(1769.628906 0)"/>
     <use xlink:href="#DejaVuSans-Bold-70" transform="translate(1854.638672 0)"/>
     <use xlink:href="#DejaVuSans-Bold-74" transform="translate(1926.220703 0)"/>
     <use xlink:href="#DejaVuSans-Bold-69" transform="translate(1974.023438 0)"/>
     <use xlink:href="#DejaVuSans-Bold-6d" transform="translate(2008.300781 0)"/>
     <use xlink:href="#DejaVuSans-Bold-61" transform="translate(2112.5 0)"/>
     <use xlink:href="#DejaVuSans-Bold-6c" transform="translate(2179.980469 0)"/>
     <use xlink:href="#DejaVuSans-Bold-20" transform="translate(2214.257812 0)"/>
     <use xlink:href="#DejaVuSans-Bold-57" transform="translate(2249.072266 0)"/>
     <use xlink:href="#DejaVuSans-Bold-6f" transform="translate(2355.75 0)"/>
     <use xlink:href="#DejaVuSans-Bold-72" transform="translate(2424.451172 0)"/>
     <use xlink:href="#DejaVuSans-Bold-6b" transform="translate(2473.767578 0)"/>
     <use xlink:href="#DejaVuSans-Bold-6c" transform="translate(2540.271484 0)"/>
     <use xlink:href="#DejaVuSans-Bold-6f" transform="translate(2574.548828 0)"/>
     <use xlink:href="#DejaVuSans-Bold-61" transform="translate(2643.25 0)"/>
     <use xlink:href="#DejaVuSans-Bold-64" transform="translate(2710.730469 0)"/>
     <use xlink:href="#DejaVuSans-Bold-20" transform="translate(2782.3125 0)"/>
     <use xlink:href="#DejaVuSans-Bold-4d" transform="translate(2817.126953 0)"/>
     <use xlink:href="#DejaVuSans-Bold-69" transform="translate(2916.638672 0)"/>
     <use xlink:href="#DejaVuSans-Bold-78" transform="translate(2950.916016 0)"/>
    </g>
   </g>
   <g id="text_18">
    <!-- 5 -->
    <g style="fill: #ffffff" transform="translate(93.745622 354.570115) scale(0.1 -0.1)">
     <defs>
      <path id="DejaVuSans-Bold-35" d="M 678 4666 
L 3669 4666 
L 3669 3781 
L 1638 3781 
L 1638 3059 
Q 1775 3097 1914 3117 
Q 2053 3138 2203 3138 
Q 3056 3138 3531 2711 
Q 4006 2284 4006 1522 
Q 4006 766 3489 337 
Q 2972 -91 2053 -91 
Q 1656 -91 1267 -14 
Q 878 63 494 219 
L 494 1166 
Q 875 947 1217 837 
Q 1559 728 1863 728 
Q 2300 728 2551 942 
Q 2803 1156 2803 1522 
Q 2803 1891 2551 2103 
Q 2300 2316 1863 2316 
Q 1603 2316 1309 2248 
Q 1016 2181 678 2041 
L 678 4666 
z
" transform="scale(0.015625)"/>
     </defs>
     <use xlink:href="#DejaVuSans-Bold-35"/>
    </g>
   </g>
   <g id="text_19">
    <!-- 8 -->
    <g style="fill: #ffffff" transform="translate(185.99406 346.855722) scale(0.1 -0.1)">
     <defs>
      <path id="DejaVuSans-Bold-38" d="M 2228 2088 
Q 1891 2088 1709 1903 
Q 1528 1719 1528 1375 
Q 1528 1031 1709 848 
Q 1891 666 2228 666 
Q 2563 666 2741 848 
Q 2919 1031 2919 1375 
Q 2919 1722 2741 1905 
Q 2563 2088 2228 2088 
z
M 1350 2484 
Q 925 2613 709 2878 
Q 494 3144 494 3541 
Q 494 4131 934 4440 
Q 1375 4750 2228 4750 
Q 3075 4750 3515 4442 
Q 3956 4134 3956 3541 
Q 3956 3144 3739 2878 
Q 3522 2613 3097 2484 
Q 3572 2353 3814 2058 
Q 4056 1763 4056 1313 
Q 4056 619 3595 264 
Q 3134 -91 2228 -91 
Q 1319 -91 855 264 
Q 391 619 391 1313 
Q 391 1763 633 2058 
Q 875 2353 1350 2484 
z
M 1631 3419 
Q 1631 3141 1786 2991 
Q 1941 2841 2228 2841 
Q 2509 2841 2662 2991 
Q 2816 3141 2816 3419 
Q 2816 3697 2662 3845 
Q 2509 3994 2228 3994 
Q 1941 3994 1786 3844 
Q 1631 3694 1631 3419 
z
" transform="scale(0.015625)"/>
     </defs>
     <use xlink:href="#DejaVuSans-Bold-38"/>
    </g>
   </g>
   <g id="text_20">
    <!-- 8 -->
    <g style="fill: #ffffff" transform="translate(278.242499 346.855722) scale(0.1 -0.1)">
     <use xlink:href="#DejaVuSans-Bold-38"/>
    </g>
   </g>
   <g id="text_21">
    <!-- 5 -->
    <g style="fill: #ffffff" transform="translate(370.490937 354.570115) scale(0.1 -0.1)">
     <use xlink:href="#DejaVuSans-Bold-35"/>
    </g>
   </g>
   <g id="text_22">
    <!-- 5 -->
    <g style="fill: #ffffff" transform="translate(462.739376 354.570115) scale(0.1 -0.1)">
     <use xlink:href="#DejaVuSans-Bold-35"/>
    </g>
   </g>
   <g id="text_23">
    <!-- 5 -->
    <g style="fill: #ffffff" transform="translate(554.987815 354.570115) scale(0.1 -0.1)">
     <use xlink:href="#DejaVuSans-Bold-35"/>
    </g>
   </g>
   <g id="text_24">
    <!-- 5 -->
    <g style="fill: #ffffff" transform="translate(647.236253 354.570115) scale(0.1 -0.1)">
     <use xlink:href="#DejaVuSans-Bold-35"/>
    </g>
   </g>
   <g id="text_25">
    <!-- 6 -->
    <g style="fill: #ffffff" transform="translate(93.745622 326.249356) scale(0.1 -0.1)">
     <defs>
      <path id="DejaVuSans-Bold-36" d="M 2316 2303 
Q 2000 2303 1842 2098 
Q 1684 1894 1684 1484 
Q 1684 1075 1842 870 
Q 2000 666 2316 666 
Q 2634 666 2792 870 
Q 2950 1075 2950 1484 
Q 2950 1894 2792 2098 
Q 2634 2303 2316 2303 
z
M 3803 4544 
L 3803 3681 
Q 3506 3822 3243 3889 
Q 2981 3956 2731 3956 
Q 2194 3956 1894 3657 
Q 1594 3359 1544 2772 
Q 1750 2925 1990 3001 
Q 2231 3078 2516 3078 
Q 3231 3078 3670 2659 
Q 4109 2241 4109 1563 
Q 4109 813 3618 361 
Q 3128 -91 2303 -91 
Q 1394 -91 895 523 
Q 397 1138 397 2266 
Q 397 3422 980 4083 
Q 1563 4744 2578 4744 
Q 2900 4744 3203 4694 
Q 3506 4644 3803 4544 
z
" transform="scale(0.015625)"/>
     </defs>
     <use xlink:href="#DejaVuSans-Bold-36"/>
    </g>
   </g>
   <g id="text_26">
    <!-- 6 -->
    <g style="fill: #ffffff" transform="translate(370.490937 326.249356) scale(0.1 -0.1)">
     <use xlink:href="#DejaVuSans-Bold-36"/>
    </g>
   </g>
   <g id="text_27">
    <!-- 6 -->
    <g style="fill: #ffffff" transform="translate(462.739376 326.249356) scale(0.1 -0.1)">
     <use xlink:href="#DejaVuSans-Bold-36"/>
    </g>
   </g>
   <g id="text_28">
    <!-- 6 -->
    <g style="fill: #ffffff" transform="translate(554.987815 326.249356) scale(0.1 -0.1)">
     <use xlink:href="#DejaVuSans-Bold-36"/>
    </g>
   </g>
   <g id="text_29">
    <!-- 6 -->
    <g style="fill: #ffffff" transform="translate(647.236253 326.249356) scale(0.1 -0.1)">
     <use xlink:href="#DejaVuSans-Bold-36"/>
    </g>
   </g>
   <g id="text_30">
    <!-- 4 -->
    <g style="fill: #111111" transform="translate(93.745622 300.503211) scale(0.1 -0.1)">
     <defs>
      <path id="DejaVuSans-Bold-34" d="M 2356 3675 
L 1038 1722 
L 2356 1722 
L 2356 3675 
z
M 2156 4666 
L 3494 4666 
L 3494 1722 
L 4159 1722 
L 4159 850 
L 3494 850 
L 3494 0 
L 2356 0 
L 2356 850 
L 288 850 
L 288 1881 
L 2156 4666 
z
" transform="scale(0.015625)"/>
     </defs>
     <use xlink:href="#DejaVuSans-Bold-34"/>
    </g>
   </g>
   <g id="text_31">
    <!-- 11 -->
    <g style="fill: #111111" transform="translate(182.515154 297.947497) scale(0.1 -0.1)">
     <defs>
      <path id="DejaVuSans-Bold-31" d="M 750 831 
L 1813 831 
L 1813 3847 
L 722 3622 
L 722 4441 
L 1806 4666 
L 2950 4666 
L 2950 831 
L 4013 831 
L 4013 0 
L 750 0 
L 750 831 
z
" transform="scale(0.015625)"/>
     </defs>
     <use xlink:href="#DejaVuSans-Bold-31"/>
     <use xlink:href="#DejaVuSans-Bold-31" transform="translate(69.580078 0)"/>
    </g>
   </g>
   <g id="text_32">
    <!-- 17 -->
    <g style="fill: #111111" transform="translate(274.763593 282.49981) scale(0.1 -0.1)">
     <defs>
      <path id="DejaVuSans-Bold-37" d="M 428 4666 
L 3944 4666 
L 3944 3988 
L 2125 0 
L 953 0 
L 2675 3781 
L 428 3781 
L 428 4666 
z
" transform="scale(0.015625)"/>
     </defs>
     <use xlink:href="#DejaVuSans-Bold-31"/>
     <use xlink:href="#DejaVuSans-Bold-37" transform="translate(69.580078 0)"/>
    </g>
   </g>
   <g id="text_33">
    <!-- 17 -->
    <g style="fill: #111111" transform="translate(367.012031 267.033223) scale(0.1 -0.1)">
     <use xlink:href="#DejaVuSans-Bold-31"/>
     <use xlink:href="#DejaVuSans-Bold-37" transform="translate(69.580078 0)"/>
    </g>
   </g>
   <g id="text_34">
    <!-- 20 -->
    <g style="fill: #111111" transform="translate(459.26047 259.30938) scale(0.1 -0.1)">
     <defs>
      <path id="DejaVuSans-Bold-32" d="M 1844 884 
L 3897 884 
L 3897 0 
L 506 0 
L 506 884 
L 2209 2388 
Q 2438 2594 2547 2791 
Q 2656 2988 2656 3200 
Q 2656 3528 2436 3728 
Q 2216 3928 1850 3928 
Q 1569 3928 1234 3808 
Q 900 3688 519 3450 
L 519 4475 
Q 925 4609 1322 4679 
Q 1719 4750 2100 4750 
Q 2938 4750 3402 4381 
Q 3866 4013 3866 3353 
Q 3866 2972 3669 2642 
Q 3472 2313 2841 1759 
L 1844 884 
z
" transform="scale(0.015625)"/>
      <path id="DejaVuSans-Bold-30" d="M 2944 2338 
Q 2944 3213 2780 3570 
Q 2616 3928 2228 3928 
Q 1841 3928 1675 3570 
Q 1509 3213 1509 2338 
Q 1509 1453 1675 1090 
Q 1841 728 2228 728 
Q 2613 728 2778 1090 
Q 2944 1453 2944 2338 
z
M 4147 2328 
Q 4147 1169 3647 539 
Q 3147 -91 2228 -91 
Q 1306 -91 806 539 
Q 306 1169 306 2328 
Q 306 3491 806 4120 
Q 1306 4750 2228 4750 
Q 3147 4750 3647 4120 
Q 4147 3491 4147 2328 
z
" transform="scale(0.015625)"/>
     </defs>
     <use xlink:href="#DejaVuSans-Bold-32"/>
     <use xlink:href="#DejaVuSans-Bold-30" transform="translate(69.580078 0)"/>
    </g>
   </g>
   <g id="text_35">
    <!-- 25 -->
    <g style="fill: #111111" transform="translate(551.508908 246.436308) scale(0.1 -0.1)">
     <use xlink:href="#DejaVuSans-Bold-32"/>
     <use xlink:href="#DejaVuSans-Bold-35" transform="translate(69.580078 0)"/>
    </g>
   </g>
   <g id="text_36">
    <!-- 26 -->
    <g style="fill: #111111" transform="translate(643.757347 243.861693) scale(0.1 -0.1)">
     <use xlink:href="#DejaVuSans-Bold-32"/>
     <use xlink:href="#DejaVuSans-Bold-36" transform="translate(69.580078 0)"/>
    </g>
   </g>
   <g id="text_37">
    <!-- 2 -->
    <g style="fill: #111111" transform="translate(278.242499 232.828197) scale(0.1 -0.1)">
     <use xlink:href="#DejaVuSans-Bold-32"/>
    </g>
   </g>
   <g id="text_38">
    <!-- 6 -->
    <g style="fill: #111111" transform="translate(370.490937 208.626626) scale(0.1 -0.1)">
     <use xlink:href="#DejaVuSans-Bold-36"/>
    </g>
   </g>
   <g id="text_39">
    <!-- 8 -->
    <g style="fill: #111111" transform="translate(462.739376 186.808589) scale(0.1 -0.1)">
     <use xlink:href="#DejaVuSans-Bold-38"/>
    </g>
   </g>
   <g id="text_40">
    <!-- 13 -->
    <g style="fill: #111111" transform="translate(551.508908 148.71251) scale(0.1 -0.1)">
     <defs>
      <path id="DejaVuSans-Bold-33" d="M 2981 2516 
Q 3453 2394 3698 2092 
Q 3944 1791 3944 1325 
Q 3944 631 3412 270 
Q 2881 -91 1863 -91 
Q 1503 -91 1142 -33 
Q 781 25 428 141 
L 428 1069 
Q 766 900 1098 814 
Q 1431 728 1753 728 
Q 2231 728 2486 893 
Q 2741 1059 2741 1369 
Q 2741 1688 2480 1852 
Q 2219 2016 1709 2016 
L 1228 2016 
L 1228 2791 
L 1734 2791 
Q 2188 2791 2409 2933 
Q 2631 3075 2631 3366 
Q 2631 3634 2415 3781 
Q 2200 3928 1806 3928 
Q 1516 3928 1219 3862 
Q 922 3797 628 3669 
L 628 4550 
Q 984 4650 1334 4700 
Q 1684 4750 2022 4750 
Q 2931 4750 3382 4451 
Q 3834 4153 3834 3553 
Q 3834 3144 3618 2883 
Q 3403 2622 2981 2516 
z
" transform="scale(0.015625)"/>
     </defs>
     <use xlink:href="#DejaVuSans-Bold-31"/>
     <use xlink:href="#DejaVuSans-Bold-33" transform="translate(69.580078 0)"/>
    </g>
   </g>
   <g id="text_41">
    <!-- 16 -->
    <g style="fill: #111111" transform="translate(643.757347 134.927688) scale(0.1 -0.1)">
     <use xlink:href="#DejaVuSans-Bold-31"/>
     <use xlink:href="#DejaVuSans-Bold-36" transform="translate(69.580078 0)"/>
    </g>
   </g>
   <g id="text_42">
    <g id="patch_40">
     <path d="M 90.266715 172.777239 
L 104.18234 172.777239 
Q 106.18234 172.777239 106.18234 170.777239 
L 106.18234 161.099114 
Q 106.18234 159.099114 104.18234 159.099114 
L 90.266715 159.099114 
Q 88.266715 159.099114 88.266715 161.099114 
L 88.266715 170.777239 
Q 88.266715 172.777239 90.266715 172.777239 
z
" style="fill: #ffffff; opacity: 0.85"/>
    </g>
    <!-- 46 -->
    <g style="fill: #d35400" transform="translate(90.266715 168.697552) scale(0.1 -0.1)">
     <use xlink:href="#DejaVuSans-Bold-34"/>
     <use xlink:href="#DejaVuSans-Bold-36" transform="translate(69.580078 0)"/>
    </g>
   </g>
   <g id="text_43">
    <g id="patch_41">
     <path d="M 182.515154 164.727264 
L 196.430779 164.727264 
Q 198.430779 164.727264 198.430779 162.727264 
L 198.430779 153.049139 
Q 198.430779 151.049139 196.430779 151.049139 
L 182.515154 151.049139 
Q 180.515154 151.049139 180.515154 153.049139 
L 180.515154 162.727264 
Q 180.515154 164.727264 182.515154 164.727264 
z
" style="fill: #ffffff; opacity: 0.85"/>
    </g>
    <!-- 41 -->
    <g style="fill: #d35400" transform="translate(182.515154 160.647576) scale(0.1 -0.1)">
     <use xlink:href="#DejaVuSans-Bold-34"/>
     <use xlink:href="#DejaVuSans-Bold-31" transform="translate(69.580078 0)"/>
    </g>
   </g>
   <g id="text_44">
    <g id="patch_42">
     <path d="M 274.763593 147.670555 
L 288.679218 147.670555 
Q 290.679218 147.670555 290.679218 145.670555 
L 290.679218 135.99243 
Q 290.679218 133.99243 288.679218 133.99243 
L 274.763593 133.99243 
Q 272.763593 133.99243 272.763593 135.99243 
L 272.763593 145.670555 
Q 272.763593 147.670555 274.763593 147.670555 
z
" style="fill: #ffffff; opacity: 0.85"/>
    </g>
    <!-- 32 -->
    <g style="fill: #d35400" transform="translate(274.763593 143.590868) scale(0.1 -0.1)">
     <use xlink:href="#DejaVuSans-Bold-33"/>
     <use xlink:href="#DejaVuSans-Bold-32" transform="translate(69.580078 0)"/>
    </g>
   </g>
   <g id="text_45">
    <g id="patch_43">
     <path d="M 367.012031 133.850014 
L 380.927656 133.850014 
Q 382.927656 133.850014 382.927656 131.850014 
L 382.927656 122.171889 
Q 382.927656 120.171889 380.927656 120.171889 
L 367.012031 120.171889 
Q 365.012031 120.171889 365.012031 122.171889 
L 365.012031 131.850014 
Q 365.012031 133.850014 367.012031 133.850014 
z
" style="fill: #ffffff; opacity: 0.85"/>
    </g>
    <!-- 25 -->
    <g style="fill: #d35400" transform="translate(367.012031 129.770327) scale(0.1 -0.1)">
     <use xlink:href="#DejaVuSans-Bold-32"/>
     <use xlink:href="#DejaVuSans-Bold-35" transform="translate(69.580078 0)"/>
    </g>
   </g>
   <g id="text_46">
    <g id="patch_44">
     <path d="M 459.26047 121.827573 
L 473.176095 121.827573 
Q 475.176095 121.827573 475.176095 119.827573 
L 475.176095 110.149448 
Q 475.176095 108.149448 473.176095 108.149448 
L 459.26047 108.149448 
Q 457.26047 108.149448 457.26047 110.149448 
L 457.26047 119.827573 
Q 457.26047 121.827573 459.26047 121.827573 
z
" style="fill: #ffffff; opacity: 0.85"/>
    </g>
    <!-- 19 -->
    <g style="fill: #d35400" transform="translate(459.26047 117.747886) scale(0.1 -0.1)">
     <defs>
      <path id="DejaVuSans-Bold-39" d="M 641 103 
L 641 966 
Q 928 831 1190 764 
Q 1453 697 1709 697 
Q 2247 697 2547 995 
Q 2847 1294 2900 1881 
Q 2688 1725 2447 1647 
Q 2206 1569 1925 1569 
Q 1209 1569 770 1986 
Q 331 2403 331 3084 
Q 331 3838 820 4291 
Q 1309 4744 2131 4744 
Q 3044 4744 3544 4128 
Q 4044 3513 4044 2388 
Q 4044 1231 3459 570 
Q 2875 -91 1856 -91 
Q 1528 -91 1228 -42 
Q 928 6 641 103 
z
M 2125 2350 
Q 2441 2350 2600 2554 
Q 2759 2759 2759 3169 
Q 2759 3575 2600 3781 
Q 2441 3988 2125 3988 
Q 1809 3988 1650 3781 
Q 1491 3575 1491 3169 
Q 1491 2759 1650 2554 
Q 1809 2350 2125 2350 
z
" transform="scale(0.015625)"/>
     </defs>
     <use xlink:href="#DejaVuSans-Bold-31"/>
     <use xlink:href="#DejaVuSans-Bold-39" transform="translate(69.580078 0)"/>
    </g>
   </g>
   <g id="text_47">
    <g id="patch_45">
     <path d="M 554.987815 99.994196 
L 561.945627 99.994196 
Q 563.945627 99.994196 563.945627 97.994196 
L 563.945627 88.316071 
Q 563.945627 86.316071 561.945627 86.316071 
L 554.987815 86.316071 
Q 552.987815 86.316071 552.987815 88.316071 
L 552.987815 97.994196 
Q 552.987815 99.994196 554.987815 99.994196 
z
" style="fill: #ffffff; opacity: 0.85"/>
    </g>
    <!-- 8 -->
    <g style="fill: #d35400" transform="translate(554.987815 95.914508) scale(0.1 -0.1)">
     <use xlink:href="#DejaVuSans-Bold-38"/>
    </g>
   </g>
   <g id="text_48">
    <g id="patch_46">
     <path d="M 647.236253 89.808679 
L 654.194066 89.808679 
Q 656.194066 89.808679 656.194066 87.808679 
L 656.194066 78.130554 
Q 656.194066 76.130554 654.194066 76.130554 
L 647.236253 76.130554 
Q 645.236253 76.130554 645.236253 78.130554 
L 645.236253 87.808679 
Q 645.236253 89.808679 647.236253 89.808679 
z
" style="fill: #ffffff; opacity: 0.85"/>
    </g>
    <!-- 3 -->
    <g style="fill: #d35400" transform="translate(647.236253 85.728991) scale(0.1 -0.1)">
     <use xlink:href="#DejaVuSans-Bold-33"/>
    </g>
   </g>
   <g id="legend_1">
    <g id="patch_47">
     <path d="M 162.209687 449.138837 
L 585.73 449.138837 
Q 587.73 449.138837 587.73 447.138837 
L 587.73 421.460712 
Q 587.73 419.460712 585.73 419.460712 
L 162.209687 419.460712 
Q 160.209687 419.460712 160.209687 421.460712 
L 160.209687 447.138837 
Q 160.209687 449.138837 162.209687 449.138837 
z
" style="fill: #ffffff; opacity: 0.9; stroke: #e0e0e0; stroke-linejoin: miter"/>
    </g>
    <g id="patch_48">
     <path d="M 170.209687 437.05915 
L 190.209687 437.05915 
L 190.209687 430.05915 
L 170.209687 430.05915 
z
" style="fill: #113b5e; stroke: #ffffff; stroke-width: 0.8; stroke-linejoin: miter"/>
    </g>
    <g id="text_49">
     <!-- Tier A -->
     <g transform="translate(198.209687 437.05915) scale(0.1 -0.1)">
      <defs>
       <path id="DejaVuSans-54" d="M -19 4666 
L 3928 4666 
L 3928 4134 
L 2272 4134 
L 2272 0 
L 1638 0 
L 1638 4134 
L -19 4134 
L -19 4666 
z
" transform="scale(0.015625)"/>
       <path id="DejaVuSans-69" d="M 603 3500 
L 1178 3500 
L 1178 0 
L 603 0 
L 603 3500 
z
M 603 4863 
L 1178 4863 
L 1178 4134 
L 603 4134 
L 603 4863 
z
" transform="scale(0.015625)"/>
       <path id="DejaVuSans-65" d="M 3597 1894 
L 3597 1613 
L 953 1613 
Q 991 1019 1311 708 
Q 1631 397 2203 397 
Q 2534 397 2845 478 
Q 3156 559 3463 722 
L 3463 178 
Q 3153 47 2828 -22 
Q 2503 -91 2169 -91 
Q 1331 -91 842 396 
Q 353 884 353 1716 
Q 353 2575 817 3079 
Q 1281 3584 2069 3584 
Q 2775 3584 3186 3129 
Q 3597 2675 3597 1894 
z
M 3022 2063 
Q 3016 2534 2758 2815 
Q 2500 3097 2075 3097 
Q 1594 3097 1305 2825 
Q 1016 2553 972 2059 
L 3022 2063 
z
" transform="scale(0.015625)"/>
       <path id="DejaVuSans-72" d="M 2631 2963 
Q 2534 3019 2420 3045 
Q 2306 3072 2169 3072 
Q 1681 3072 1420 2755 
Q 1159 2438 1159 1844 
L 1159 0 
L 581 0 
L 581 3500 
L 1159 3500 
L 1159 2956 
Q 1341 3275 1631 3429 
Q 1922 3584 2338 3584 
Q 2397 3584 2469 3576 
Q 2541 3569 2628 3553 
L 2631 2963 
z
" transform="scale(0.015625)"/>
       <path id="DejaVuSans-41" d="M 2188 4044 
L 1331 1722 
L 3047 1722 
L 2188 4044 
z
M 1831 4666 
L 2547 4666 
L 4325 0 
L 3669 0 
L 3244 1197 
L 1141 1197 
L 716 0 
L 50 0 
L 1831 4666 
z
" transform="scale(0.015625)"/>
      </defs>
      <use xlink:href="#DejaVuSans-54"/>
      <use xlink:href="#DejaVuSans-69" transform="translate(57.958984 0)"/>
      <use xlink:href="#DejaVuSans-65" transform="translate(85.742188 0)"/>
      <use xlink:href="#DejaVuSans-72" transform="translate(147.265625 0)"/>
      <use xlink:href="#DejaVuSans-20" transform="translate(188.378906 0)"/>
      <use xlink:href="#DejaVuSans-41" transform="translate(220.166016 0)"/>
     </g>
    </g>
    <g id="patch_49">
     <path d="M 247.065937 437.05915 
L 267.065937 437.05915 
L 267.065937 430.05915 
L 247.065937 430.05915 
z
" style="fill: #2879b9; stroke: #ffffff; stroke-width: 0.8; stroke-linejoin: miter"/>
    </g>
    <g id="text_50">
     <!-- Tier B1 -->
     <g transform="translate(275.065937 437.05915) scale(0.1 -0.1)">
      <defs>
       <path id="DejaVuSans-42" d="M 1259 2228 
L 1259 519 
L 2272 519 
Q 2781 519 3026 730 
Q 3272 941 3272 1375 
Q 3272 1813 3026 2020 
Q 2781 2228 2272 2228 
L 1259 2228 
z
M 1259 4147 
L 1259 2741 
L 2194 2741 
Q 2656 2741 2882 2914 
Q 3109 3088 3109 3444 
Q 3109 3797 2882 3972 
Q 2656 4147 2194 4147 
L 1259 4147 
z
M 628 4666 
L 2241 4666 
Q 2963 4666 3353 4366 
Q 3744 4066 3744 3513 
Q 3744 3084 3544 2831 
Q 3344 2578 2956 2516 
Q 3422 2416 3680 2098 
Q 3938 1781 3938 1306 
Q 3938 681 3513 340 
Q 3088 0 2303 0 
L 628 0 
L 628 4666 
z
" transform="scale(0.015625)"/>
      </defs>
      <use xlink:href="#DejaVuSans-54"/>
      <use xlink:href="#DejaVuSans-69" transform="translate(57.958984 0)"/>
      <use xlink:href="#DejaVuSans-65" transform="translate(85.742188 0)"/>
      <use xlink:href="#DejaVuSans-72" transform="translate(147.265625 0)"/>
      <use xlink:href="#DejaVuSans-20" transform="translate(188.378906 0)"/>
      <use xlink:href="#DejaVuSans-42" transform="translate(220.166016 0)"/>
      <use xlink:href="#DejaVuSans-31" transform="translate(288.769531 0)"/>
     </g>
    </g>
    <g id="patch_50">
     <path d="M 330.305 437.05915 
L 350.305 437.05915 
L 350.305 430.05915 
L 330.305 430.05915 
z
" style="fill: #73b3d8; stroke: #ffffff; stroke-width: 0.8; stroke-linejoin: miter"/>
    </g>
    <g id="text_51">
     <!-- Tier B2 -->
     <g transform="translate(358.305 437.05915) scale(0.1 -0.1)">
      <use xlink:href="#DejaVuSans-54"/>
      <use xlink:href="#DejaVuSans-69" transform="translate(57.958984 0)"/>
      <use xlink:href="#DejaVuSans-65" transform="translate(85.742188 0)"/>
      <use xlink:href="#DejaVuSans-72" transform="translate(147.265625 0)"/>
      <use xlink:href="#DejaVuSans-20" transform="translate(188.378906 0)"/>
      <use xlink:href="#DejaVuSans-42" transform="translate(220.166016 0)"/>
      <use xlink:href="#DejaVuSans-32" transform="translate(288.769531 0)"/>
     </g>
    </g>
    <g id="patch_51">
     <path d="M 413.544062 437.05915 
L 433.544062 437.05915 
L 433.544062 430.05915 
L 413.544062 430.05915 
z
" style="fill: #c8ddf0; stroke: #ffffff; stroke-width: 0.8; stroke-linejoin: miter"/>
    </g>
    <g id="text_52">
     <!-- Tier C -->
     <g transform="translate(441.544062 437.05915) scale(0.1 -0.1)">
      <defs>
       <path id="DejaVuSans-43" d="M 4122 4306 
L 4122 3641 
Q 3803 3938 3442 4084 
Q 3081 4231 2675 4231 
Q 1875 4231 1450 3742 
Q 1025 3253 1025 2328 
Q 1025 1406 1450 917 
Q 1875 428 2675 428 
Q 3081 428 3442 575 
Q 3803 722 4122 1019 
L 4122 359 
Q 3791 134 3420 21 
Q 3050 -91 2638 -91 
Q 1578 -91 968 557 
Q 359 1206 359 2328 
Q 359 3453 968 4101 
Q 1578 4750 2638 4750 
Q 3056 4750 3426 4639 
Q 3797 4528 4122 4306 
z
" transform="scale(0.015625)"/>
      </defs>
      <use xlink:href="#DejaVuSans-54"/>
      <use xlink:href="#DejaVuSans-69" transform="translate(57.958984 0)"/>
      <use xlink:href="#DejaVuSans-65" transform="translate(85.742188 0)"/>
      <use xlink:href="#DejaVuSans-72" transform="translate(147.265625 0)"/>
      <use xlink:href="#DejaVuSans-20" transform="translate(188.378906 0)"/>
      <use xlink:href="#DejaVuSans-43" transform="translate(220.166016 0)"/>
     </g>
    </g>
    <g id="patch_52">
     <path d="M 490.5425 437.05915 
L 510.5425 437.05915 
L 510.5425 430.05915 
L 490.5425 430.05915 
z
" style="fill: url(#ha0920d5e1f); stroke: #d35400; stroke-width: 1.2; stroke-linejoin: miter"/>
    </g>
    <g id="text_53">
     <!-- Curtailment -->
     <g transform="translate(518.5425 437.05915) scale(0.1 -0.1)">
      <defs>
       <path id="DejaVuSans-75" d="M 544 1381 
L 544 3500 
L 1119 3500 
L 1119 1403 
Q 1119 906 1312 657 
Q 1506 409 1894 409 
Q 2359 409 2629 706 
Q 2900 1003 2900 1516 
L 2900 3500 
L 3475 3500 
L 3475 0 
L 2900 0 
L 2900 538 
Q 2691 219 2414 64 
Q 2138 -91 1772 -91 
Q 1169 -91 856 284 
Q 544 659 544 1381 
z
M 1991 3584 
L 1991 3584 
z
" transform="scale(0.015625)"/>
       <path id="DejaVuSans-74" d="M 1172 4494 
L 1172 3500 
L 2356 3500 
L 2356 3053 
L 1172 3053 
L 1172 1153 
Q 1172 725 1289 603 
Q 1406 481 1766 481 
L 2356 481 
L 2356 0 
L 1766 0 
Q 1100 0 847 248 
Q 594 497 594 1153 
L 594 3053 
L 172 3053 
L 172 3500 
L 594 3500 
L 594 4494 
L 1172 4494 
z
" transform="scale(0.015625)"/>
       <path id="DejaVuSans-61" d="M 2194 1759 
Q 1497 1759 1228 1600 
Q 959 1441 959 1056 
Q 959 750 1161 570 
Q 1363 391 1709 391 
Q 2188 391 2477 730 
Q 2766 1069 2766 1631 
L 2766 1759 
L 2194 1759 
z
M 3341 1997 
L 3341 0 
L 2766 0 
L 2766 531 
Q 2569 213 2275 61 
Q 1981 -91 1556 -91 
Q 1019 -91 701 211 
Q 384 513 384 1019 
Q 384 1609 779 1909 
Q 1175 2209 1959 2209 
L 2766 2209 
L 2766 2266 
Q 2766 2663 2505 2880 
Q 2244 3097 1772 3097 
Q 1472 3097 1187 3025 
Q 903 2953 641 2809 
L 641 3341 
Q 956 3463 1253 3523 
Q 1550 3584 1831 3584 
Q 2591 3584 2966 3190 
Q 3341 2797 3341 1997 
z
" transform="scale(0.015625)"/>
       <path id="DejaVuSans-6c" d="M 603 4863 
L 1178 4863 
L 1178 0 
L 603 0 
L 603 4863 
z
" transform="scale(0.015625)"/>
       <path id="DejaVuSans-6d" d="M 3328 2828 
Q 3544 3216 3844 3400 
Q 4144 3584 4550 3584 
Q 5097 3584 5394 3201 
Q 5691 2819 5691 2113 
L 5691 0 
L 5113 0 
L 5113 2094 
Q 5113 2597 4934 2840 
Q 4756 3084 4391 3084 
Q 3944 3084 3684 2787 
Q 3425 2491 3425 1978 
L 3425 0 
L 2847 0 
L 2847 2094 
Q 2847 2600 2669 2842 
Q 2491 3084 2119 3084 
Q 1678 3084 1418 2786 
Q 1159 2488 1159 1978 
L 1159 0 
L 581 0 
L 581 3500 
L 1159 3500 
L 1159 2956 
Q 1356 3278 1631 3431 
Q 1906 3584 2284 3584 
Q 2666 3584 2933 3390 
Q 3200 3197 3328 2828 
z
" transform="scale(0.015625)"/>
       <path id="DejaVuSans-6e" d="M 3513 2113 
L 3513 0 
L 2938 0 
L 2938 2094 
Q 2938 2591 2744 2837 
Q 2550 3084 2163 3084 
Q 1697 3084 1428 2787 
Q 1159 2491 1159 1978 
L 1159 0 
L 581 0 
L 581 3500 
L 1159 3500 
L 1159 2956 
Q 1366 3272 1645 3428 
Q 1925 3584 2291 3584 
Q 2894 3584 3203 3211 
Q 3513 2838 3513 2113 
z
" transform="scale(0.015625)"/>
      </defs>
      <use xlink:href="#DejaVuSans-43"/>
      <use xlink:href="#DejaVuSans-75" transform="translate(69.824219 0)"/>
      <use xlink:href="#DejaVuSans-72" transform="translate(133.203125 0)"/>
      <use xlink:href="#DejaVuSans-74" transform="translate(174.316406 0)"/>
      <use xlink:href="#DejaVuSans-61" transform="translate(213.525391 0)"/>
      <use xlink:href="#DejaVuSans-69" transform="translate(274.804688 0)"/>
      <use xlink:href="#DejaVuSans-6c" transform="translate(302.587891 0)"/>
      <use xlink:href="#DejaVuSans-6d" transform="translate(330.371094 0)"/>
      <use xlink:href="#DejaVuSans-65" transform="translate(427.783203 0)"/>
      <use xlink:href="#DejaVuSans-6e" transform="translate(489.306641 0)"/>
      <use xlink:href="#DejaVuSans-74" transform="translate(552.685547 0)"/>
     </g>
    </g>
   </g>
  </g>
 </g>
 <defs>
  <clipPath id="p6b36d4f484">
   <rect x="41.644844" y="32.837812" width="664.65" height="331.846"/>
  </clipPath>
 </defs>
 <defs>
  <pattern id="ha0920d5e1f" patternUnits="userSpaceOnUse" x="0" y="0" width="72" height="72">
   <rect x="0" y="0" width="73" height="73" fill="#ffffff"/>
   <path d="M -36 36 
L 36 -36 
M -32 40 
L 40 -32 
M -28 44 
L 44 -28 
M -24 48 
L 48 -24 
M -20 52 
L 52 -20 
M -16 56 
L 56 -16 
M -12 60 
L 60 -12 
M -8 64 
L 64 -8 
M -4 68 
L 68 -4 
M 0 72 
L 72 0 
M 4 76 
L 76 4 
M 8 80 
L 80 8 
M 12 84 
L 84 12 
M 16 88 
L 88 16 
M 20 92 
L 92 20 
M 24 96 
L 96 24 
M 28 100 
L 100 28 
M 32 104 
L 104 32 
M 36 108 
L 108 36 
" style="fill: #d35400; stroke: #d35400; stroke-width: 1.0; stroke-linecap: butt; stroke-linejoin: miter"/>
  </pattern>
 </defs>
</svg>
