<?xml version="1.0" encoding="utf-8" standalone="no"?>
<!DOCTYPE svg PUBLIC "-//W3C//DTD SVG 1.1//EN"
  "http://www.w3.org/Graphics/SVG/1.1/DTD/svg11.dtd">
<svg xmlns:xlink="http://www.w3.org/1999/xlink" width="712.37625pt" height="425.051094pt" viewBox="0 0 712.37625 425.051094" xmlns="http://www.w3.org/2000/svg" version="1.1">
 <metadata>
  <rdf:RDF xmlns:dc="http://purl.org/dc/elements/1.1/" xmlns:cc="http://creativecommons.org/ns#" xmlns:rdf="http://www.w3.org/1999/02/22-rdf-syntax-ns#">
   <cc:Work>
    <dc:type rdf:resource="http://purl.org/dc/dcmitype/StillImage"/>
    <dc:date>2026-05-06T11:36:44.902671</dc:date>
    <dc:format>image/svg+xml</dc:format>
    <dc:creator>
     <cc:Agent>
      <dc:title>Matplotlib v3.10.8, https://matplotlib.org/</dc:title>
     </cc:Agent>
    </dc:creator>
   </cc:Work>
  </rdf:RDF>
 </metadata>
 <defs>
  <style type="text/css">*{stroke-linejoin: round; stroke-linecap: butt}</style>
 </defs>
 <g id="figure_1">
  <g id="patch_1">
   <path d="M 0 425.051094 
L 712.37625 425.051094 
L 712.37625 0 
L 0 0 
z
" style="fill: #ffffff"/>
  </g>
  <g id="axes_1">
   <g id="patch_2">
    <path d="M 48.90125 384.497656 
L 705.17625 384.497656 
L 705.17625 38.597656 
L 48.90125 38.597656 
z
" style="fill: #ffffff"/>
   </g>
   <g id="patch_3">
    <path d="M 78.731932 384.497656 
L 128.82926 384.497656 
L 128.82926 348.875269 
L 78.731932 348.875269 
z
" clip-path="url(#pf404d77775)" style="fill: #2879b9; stroke: #ffffff; stroke-width: 0.5; stroke-linejoin: miter"/>
   </g>
   <g id="patch_4">
    <path d="M 169.817983 384.497656 
L 219.915311 384.497656 
L 219.915311 339.969673 
L 169.817983 339.969673 
z
" clip-path="url(#pf404d77775)" style="fill: #2879b9; stroke: #ffffff; stroke-width: 0.5; stroke-linejoin: miter"/>
   </g>
   <g id="patch_5">
    <path d="M 260.904035 384.497656 
L 311.001363 384.497656 
L 311.001363 317.705681 
L 260.904035 317.705681 
z
" clip-path="url(#pf404d77775)" style="fill: #2879b9; stroke: #ffffff; stroke-width: 0.5; stroke-linejoin: miter"/>
   </g>
   <g id="patch_6">
    <path d="M 351.990086 384.497656 
L 402.087414 384.497656 
L 402.087414 295.441689 
L 351.990086 295.441689 
z
" clip-path="url(#pf404d77775)" style="fill: #2879b9; stroke: #ffffff; stroke-width: 0.5; stroke-linejoin: miter"/>
   </g>
   <g id="patch_7">
    <path d="M 443.076137 384.497656 
L 493.173465 384.497656 
L 493.173465 273.177697 
L 443.076137 273.177697 
z
" clip-path="url(#pf404d77775)" style="fill: #2879b9; stroke: #ffffff; stroke-width: 0.5; stroke-linejoin: miter"/>
   </g>
   <g id="patch_8">
    <path d="M 534.162189 384.497656 
L 584.259517 384.497656 
L 584.259517 217.517717 
L 534.162189 217.517717 
z
" clip-path="url(#pf404d77775)" style="fill: #2879b9; stroke: #ffffff; stroke-width: 0.5; stroke-linejoin: miter"/>
   </g>
   <g id="patch_9">
    <path d="M 625.24824 384.497656 
L 675.345568 384.497656 
L 675.345568 161.857738 
L 625.24824 161.857738 
z
" clip-path="url(#pf404d77775)" style="fill: #2879b9; stroke: #ffffff; stroke-width: 0.5; stroke-linejoin: miter"/>
   </g>
   <g id="patch_10">
    <path d="M 78.731932 348.875269 
L 128.82926 348.875269 
L 128.82926 339.898032 
L 78.731932 339.898032 
z
" clip-path="url(#pf404d77775)" style="fill: #73b3d8; stroke: #ffffff; stroke-width: 0.5; stroke-linejoin: miter"/>
   </g>
   <g id="patch_11">
    <path d="M 169.817983 339.969673 
L 219.915311 339.969673 
L 219.915311 328.748126 
L 169.817983 328.748126 
z
" clip-path="url(#pf404d77775)" style="fill: #73b3d8; stroke: #ffffff; stroke-width: 0.5; stroke-linejoin: miter"/>
   </g>
   <g id="patch_12">
    <path d="M 260.904035 317.705681 
L 311.001363 317.705681 
L 311.001363 300.873361 
L 260.904035 300.873361 
z
" clip-path="url(#pf404d77775)" style="fill: #73b3d8; stroke: #ffffff; stroke-width: 0.5; stroke-linejoin: miter"/>
   </g>
   <g id="patch_13">
    <path d="M 351.990086 295.441689 
L 402.087414 295.441689 
L 402.087414 272.998596 
L 351.990086 272.998596 
z
" clip-path="url(#pf404d77775)" style="fill: #73b3d8; stroke: #ffffff; stroke-width: 0.5; stroke-linejoin: miter"/>
   </g>
   <g id="patch_14">
    <path d="M 443.076137 273.177697 
L 493.173465 273.177697 
L 493.173465 245.123831 
L 443.076137 245.123831 
z
" clip-path="url(#pf404d77775)" style="fill: #73b3d8; stroke: #ffffff; stroke-width: 0.5; stroke-linejoin: miter"/>
   </g>
   <g id="patch_15">
    <path d="M 534.162189 217.517717 
L 584.259517 217.517717 
L 584.259517 175.436919 
L 534.162189 175.436919 
z
" clip-path="url(#pf404d77775)" style="fill: #73b3d8; stroke: #ffffff; stroke-width: 0.5; stroke-linejoin: miter"/>
   </g>
   <g id="patch_16">
    <path d="M 625.24824 161.857738 
L 675.345568 161.857738 
L 675.345568 105.750007 
L 625.24824 105.750007 
z
" clip-path="url(#pf404d77775)" style="fill: #73b3d8; stroke: #ffffff; stroke-width: 0.5; stroke-linejoin: miter"/>
   </g>
   <g id="patch_17">
    <path d="M 78.731932 339.898032 
L 128.82926 339.898032 
L 128.82926 336.372439 
L 78.731932 336.372439 
z
" clip-path="url(#pf404d77775)" style="fill: #c8ddf0; stroke: #ffffff; stroke-width: 0.5; stroke-linejoin: miter"/>
   </g>
   <g id="patch_18">
    <path d="M 169.817983 328.748126 
L 219.915311 328.748126 
L 219.915311 324.341135 
L 169.817983 324.341135 
z
" clip-path="url(#pf404d77775)" style="fill: #c8ddf0; stroke: #ffffff; stroke-width: 0.5; stroke-linejoin: miter"/>
   </g>
   <g id="patch_19">
    <path d="M 260.904035 300.873361 
L 311.001363 300.873361 
L 311.001363 294.262874 
L 260.904035 294.262874 
z
" clip-path="url(#pf404d77775)" style="fill: #c8ddf0; stroke: #ffffff; stroke-width: 0.5; stroke-linejoin: miter"/>
   </g>
   <g id="patch_20">
    <path d="M 351.990086 272.998596 
L 402.087414 272.998596 
L 402.087414 264.184613 
L 351.990086 264.184613 
z
" clip-path="url(#pf404d77775)" style="fill: #c8ddf0; stroke: #ffffff; stroke-width: 0.5; stroke-linejoin: miter"/>
   </g>
   <g id="patch_21">
    <path d="M 443.076137 245.123831 
L 493.173465 245.123831 
L 493.173465 234.106352 
L 443.076137 234.106352 
z
" clip-path="url(#pf404d77775)" style="fill: #c8ddf0; stroke: #ffffff; stroke-width: 0.5; stroke-linejoin: miter"/>
   </g>
   <g id="patch_22">
    <path d="M 534.162189 175.436919 
L 584.259517 175.436919 
L 584.259517 158.9107 
L 534.162189 158.9107 
z
" clip-path="url(#pf404d77775)" style="fill: #c8ddf0; stroke: #ffffff; stroke-width: 0.5; stroke-linejoin: miter"/>
   </g>
   <g id="patch_23">
    <path d="M 625.24824 105.750007 
L 675.345568 105.750007 
L 675.345568 83.715048 
L 625.24824 83.715048 
z
" clip-path="url(#pf404d77775)" style="fill: #c8ddf0; stroke: #ffffff; stroke-width: 0.5; stroke-linejoin: miter"/>
   </g>
   <g id="matplotlib.axis_1">
    <g id="xtick_1">
     <g id="line2d_1">
      <defs>
       <path id="meb3a5054dc" d="M 0 0 
L 0 3.5 
" style="stroke: #000000; stroke-width: 0.8"/>
      </defs>
      <g>
       <use xlink:href="#meb3a5054dc" x="103.780596" y="384.497656" style="stroke: #000000; stroke-width: 0.8"/>
      </g>
     </g>
     <g id="text_1">
      <!-- 16 MW -->
      <g transform="translate(84.850283 399.855937) scale(0.11 -0.11)">
       <defs>
        <path id="DejaVuSans-31" d="M 794 531 
L 1825 531 
L 1825 4091 
L 703 3866 
L 703 4441 
L 1819 4666 
L 2450 4666 
L 2450 531 
L 3481 531 
L 3481 0 
L 794 0 
L 794 531 
z
" transform="scale(0.015625)"/>
        <path id="DejaVuSans-36" d="M 2113 2584 
Q 1688 2584 1439 2293 
Q 1191 2003 1191 1497 
Q 1191 994 1439 701 
Q 1688 409 2113 409 
Q 2538 409 2786 701 
Q 3034 994 3034 1497 
Q 3034 2003 2786 2293 
Q 2538 2584 2113 2584 
z
M 3366 4563 
L 3366 3988 
Q 3128 4100 2886 4159 
Q 2644 4219 2406 4219 
Q 1781 4219 1451 3797 
Q 1122 3375 1075 2522 
Q 1259 2794 1537 2939 
Q 1816 3084 2150 3084 
Q 2853 3084 3261 2657 
Q 3669 2231 3669 1497 
Q 3669 778 3244 343 
Q 2819 -91 2113 -91 
Q 1303 -91 875 529 
Q 447 1150 447 2328 
Q 447 3434 972 4092 
Q 1497 4750 2381 4750 
Q 2619 4750 2861 4703 
Q 3103 4656 3366 4563 
z
" transform="scale(0.015625)"/>
        <path id="DejaVuSans-20" transform="scale(0.015625)"/>
        <path id="DejaVuSans-4d" d="M 628 4666 
L 1569 4666 
L 2759 1491 
L 3956 4666 
L 4897 4666 
L 4897 0 
L 4281 0 
L 4281 4097 
L 3078 897 
L 2444 897 
L 1241 4097 
L 1241 0 
L 628 0 
L 628 4666 
z
" transform="scale(0.015625)"/>
        <path id="DejaVuSans-57" d="M 213 4666 
L 850 4666 
L 1831 722 
L 2809 4666 
L 3519 4666 
L 4500 722 
L 5478 4666 
L 6119 4666 
L 4947 0 
L 4153 0 
L 3169 4050 
L 2175 0 
L 1381 0 
L 213 4666 
z
" transform="scale(0.015625)"/>
       </defs>
       <use xlink:href="#DejaVuSans-31"/>
       <use xlink:href="#DejaVuSans-36" transform="translate(63.623047 0)"/>
       <use xlink:href="#DejaVuSans-20" transform="translate(127.246094 0)"/>
       <use xlink:href="#DejaVuSans-4d" transform="translate(159.033203 0)"/>
       <use xlink:href="#DejaVuSans-57" transform="translate(245.3125 0)"/>
      </g>
     </g>
    </g>
    <g id="xtick_2">
     <g id="line2d_2">
      <g>
       <use xlink:href="#meb3a5054dc" x="194.866647" y="384.497656" style="stroke: #000000; stroke-width: 0.8"/>
      </g>
     </g>
     <g id="text_2">
      <!-- 20 MW -->
      <g transform="translate(175.936335 399.855937) scale(0.11 -0.11)">
       <defs>
        <path id="DejaVuSans-32" d="M 1228 531 
L 3431 531 
L 3431 0 
L 469 0 
L 469 531 
Q 828 903 1448 1529 
Q 2069 2156 2228 2338 
Q 2531 2678 2651 2914 
Q 2772 3150 2772 3378 
Q 2772 3750 2511 3984 
Q 2250 4219 1831 4219 
Q 1534 4219 1204 4116 
Q 875 4013 500 3803 
L 500 4441 
Q 881 4594 1212 4672 
Q 1544 4750 1819 4750 
Q 2544 4750 2975 4387 
Q 3406 4025 3406 3419 
Q 3406 3131 3298 2873 
Q 3191 2616 2906 2266 
Q 2828 2175 2409 1742 
Q 1991 1309 1228 531 
z
" transform="scale(0.015625)"/>
        <path id="DejaVuSans-30" d="M 2034 4250 
Q 1547 4250 1301 3770 
Q 1056 3291 1056 2328 
Q 1056 1369 1301 889 
Q 1547 409 2034 409 
Q 2525 409 2770 889 
Q 3016 1369 3016 2328 
Q 3016 3291 2770 3770 
Q 2525 4250 2034 4250 
z
M 2034 4750 
Q 2819 4750 3233 4129 
Q 3647 3509 3647 2328 
Q 3647 1150 3233 529 
Q 2819 -91 2034 -91 
Q 1250 -91 836 529 
Q 422 1150 422 2328 
Q 422 3509 836 4129 
Q 1250 4750 2034 4750 
z
" transform="scale(0.015625)"/>
       </defs>
       <use xlink:href="#DejaVuSans-32"/>
       <use xlink:href="#DejaVuSans-30" transform="translate(63.623047 0)"/>
       <use xlink:href="#DejaVuSans-20" transform="translate(127.246094 0)"/>
       <use xlink:href="#DejaVuSans-4d" transform="translate(159.033203 0)"/>
       <use xlink:href="#DejaVuSans-57" transform="translate(245.3125 0)"/>
      </g>
     </g>
    </g>
    <g id="xtick_3">
     <g id="line2d_3">
      <g>
       <use xlink:href="#meb3a5054dc" x="285.952699" y="384.497656" style="stroke: #000000; stroke-width: 0.8"/>
      </g>
     </g>
     <g id="text_3">
      <!-- 30 MW -->
      <g transform="translate(267.022386 399.855937) scale(0.11 -0.11)">
       <defs>
        <path id="DejaVuSans-33" d="M 2597 2516 
Q 3050 2419 3304 2112 
Q 3559 1806 3559 1356 
Q 3559 666 3084 287 
Q 2609 -91 1734 -91 
Q 1441 -91 1130 -33 
Q 819 25 488 141 
L 488 750 
Q 750 597 1062 519 
Q 1375 441 1716 441 
Q 2309 441 2620 675 
Q 2931 909 2931 1356 
Q 2931 1769 2642 2001 
Q 2353 2234 1838 2234 
L 1294 2234 
L 1294 2753 
L 1863 2753 
Q 2328 2753 2575 2939 
Q 2822 3125 2822 3475 
Q 2822 3834 2567 4026 
Q 2313 4219 1838 4219 
Q 1578 4219 1281 4162 
Q 984 4106 628 3988 
L 628 4550 
Q 988 4650 1302 4700 
Q 1616 4750 1894 4750 
Q 2613 4750 3031 4423 
Q 3450 4097 3450 3541 
Q 3450 3153 3228 2886 
Q 3006 2619 2597 2516 
z
" transform="scale(0.015625)"/>
       </defs>
       <use xlink:href="#DejaVuSans-33"/>
       <use xlink:href="#DejaVuSans-30" transform="translate(63.623047 0)"/>
       <use xlink:href="#DejaVuSans-20" transform="translate(127.246094 0)"/>
       <use xlink:href="#DejaVuSans-4d" transform="translate(159.033203 0)"/>
       <use xlink:href="#DejaVuSans-57" transform="translate(245.3125 0)"/>
      </g>
     </g>
    </g>
    <g id="xtick_4">
     <g id="line2d_4">
      <g>
       <use xlink:href="#meb3a5054dc" x="377.03875" y="384.497656" style="stroke: #000000; stroke-width: 0.8"/>
      </g>
     </g>
     <g id="text_4">
      <!-- 40 MW -->
      <g transform="translate(358.108437 399.855937) scale(0.11 -0.11)">
       <defs>
        <path id="DejaVuSans-34" d="M 2419 4116 
L 825 1625 
L 2419 1625 
L 2419 4116 
z
M 2253 4666 
L 3047 4666 
L 3047 1625 
L 3713 1625 
L 3713 1100 
L 3047 1100 
L 3047 0 
L 2419 0 
L 2419 1100 
L 313 1100 
L 313 1709 
L 2253 4666 
z
" transform="scale(0.015625)"/>
       </defs>
       <use xlink:href="#DejaVuSans-34"/>
       <use xlink:href="#DejaVuSans-30" transform="translate(63.623047 0)"/>
       <use xlink:href="#DejaVuSans-20" transform="translate(127.246094 0)"/>
       <use xlink:href="#DejaVuSans-4d" transform="translate(159.033203 0)"/>
       <use xlink:href="#DejaVuSans-57" transform="translate(245.3125 0)"/>
      </g>
     </g>
    </g>
    <g id="xtick_5">
     <g id="line2d_5">
      <g>
       <use xlink:href="#meb3a5054dc" x="468.124801" y="384.497656" style="stroke: #000000; stroke-width: 0.8"/>
      </g>
     </g>
     <g id="text_5">
      <!-- 50 MW -->
      <g transform="translate(449.194489 399.855937) scale(0.11 -0.11)">
       <defs>
        <path id="DejaVuSans-35" d="M 691 4666 
L 3169 4666 
L 3169 4134 
L 1269 4134 
L 1269 2991 
Q 1406 3038 1543 3061 
Q 1681 3084 1819 3084 
Q 2600 3084 3056 2656 
Q 3513 2228 3513 1497 
Q 3513 744 3044 326 
Q 2575 -91 1722 -91 
Q 1428 -91 1123 -41 
Q 819 9 494 109 
L 494 744 
Q 775 591 1075 516 
Q 1375 441 1709 441 
Q 2250 441 2565 725 
Q 2881 1009 2881 1497 
Q 2881 1984 2565 2268 
Q 2250 2553 1709 2553 
Q 1456 2553 1204 2497 
Q 953 2441 691 2322 
L 691 4666 
z
" transform="scale(0.015625)"/>
       </defs>
       <use xlink:href="#DejaVuSans-35"/>
       <use xlink:href="#DejaVuSans-30" transform="translate(63.623047 0)"/>
       <use xlink:href="#DejaVuSans-20" transform="translate(127.246094 0)"/>
       <use xlink:href="#DejaVuSans-4d" transform="translate(159.033203 0)"/>
       <use xlink:href="#DejaVuSans-57" transform="translate(245.3125 0)"/>
      </g>
     </g>
    </g>
    <g id="xtick_6">
     <g id="line2d_6">
      <g>
       <use xlink:href="#meb3a5054dc" x="559.210853" y="384.497656" style="stroke: #000000; stroke-width: 0.8"/>
      </g>
     </g>
     <g id="text_6">
      <!-- 75 MW -->
      <g transform="translate(540.28054 399.855937) scale(0.11 -0.11)">
       <defs>
        <path id="DejaVuSans-37" d="M 525 4666 
L 3525 4666 
L 3525 4397 
L 1831 0 
L 1172 0 
L 2766 4134 
L 525 4134 
L 525 4666 
z
" transform="scale(0.015625)"/>
       </defs>
       <use xlink:href="#DejaVuSans-37"/>
       <use xlink:href="#DejaVuSans-35" transform="translate(63.623047 0)"/>
       <use xlink:href="#DejaVuSans-20" transform="translate(127.246094 0)"/>
       <use xlink:href="#DejaVuSans-4d" transform="translate(159.033203 0)"/>
       <use xlink:href="#DejaVuSans-57" transform="translate(245.3125 0)"/>
      </g>
     </g>
    </g>
    <g id="xtick_7">
     <g id="line2d_7">
      <g>
       <use xlink:href="#meb3a5054dc" x="650.296904" y="384.497656" style="stroke: #000000; stroke-width: 0.8"/>
      </g>
     </g>
     <g id="text_7">
      <!-- 100 MW -->
      <g transform="translate(627.867217 399.855937) scale(0.11 -0.11)">
       <use xlink:href="#DejaVuSans-31"/>
       <use xlink:href="#DejaVuSans-30" transform="translate(63.623047 0)"/>
       <use xlink:href="#DejaVuSans-30" transform="translate(127.246094 0)"/>
       <use xlink:href="#DejaVuSans-20" transform="translate(190.869141 0)"/>
       <use xlink:href="#DejaVuSans-4d" transform="translate(222.65625 0)"/>
       <use xlink:href="#DejaVuSans-57" transform="translate(308.935547 0)"/>
      </g>
     </g>
    </g>
    <g id="text_8">
     <!-- Installed IT Capacity (MW) -->
     <g style="fill: #808080" transform="translate(287.715625 415.261719) scale(0.12 -0.12)">
      <defs>
       <path id="DejaVuSans-Bold-49" d="M 588 4666 
L 1791 4666 
L 1791 0 
L 588 0 
L 588 4666 
z
" transform="scale(0.015625)"/>
       <path id="DejaVuSans-Bold-6e" d="M 4056 2131 
L 4056 0 
L 2931 0 
L 2931 347 
L 2931 1631 
Q 2931 2084 2911 2256 
Q 2891 2428 2841 2509 
Q 2775 2619 2662 2680 
Q 2550 2741 2406 2741 
Q 2056 2741 1856 2470 
Q 1656 2200 1656 1722 
L 1656 0 
L 538 0 
L 538 3500 
L 1656 3500 
L 1656 2988 
Q 1909 3294 2193 3439 
Q 2478 3584 2822 3584 
Q 3428 3584 3742 3212 
Q 4056 2841 4056 2131 
z
" transform="scale(0.015625)"/>
       <path id="DejaVuSans-Bold-73" d="M 3272 3391 
L 3272 2541 
Q 2913 2691 2578 2766 
Q 2244 2841 1947 2841 
Q 1628 2841 1473 2761 
Q 1319 2681 1319 2516 
Q 1319 2381 1436 2309 
Q 1553 2238 1856 2203 
L 2053 2175 
Q 2913 2066 3209 1816 
Q 3506 1566 3506 1031 
Q 3506 472 3093 190 
Q 2681 -91 1863 -91 
Q 1516 -91 1145 -36 
Q 775 19 384 128 
L 384 978 
Q 719 816 1070 734 
Q 1422 653 1784 653 
Q 2113 653 2278 743 
Q 2444 834 2444 1013 
Q 2444 1163 2330 1236 
Q 2216 1309 1875 1350 
L 1678 1375 
Q 931 1469 631 1722 
Q 331 1975 331 2491 
Q 331 3047 712 3315 
Q 1094 3584 1881 3584 
Q 2191 3584 2531 3537 
Q 2872 3491 3272 3391 
z
" transform="scale(0.015625)"/>
       <path id="DejaVuSans-Bold-74" d="M 1759 4494 
L 1759 3500 
L 2913 3500 
L 2913 2700 
L 1759 2700 
L 1759 1216 
Q 1759 972 1856 886 
Q 1953 800 2241 800 
L 2816 800 
L 2816 0 
L 1856 0 
Q 1194 0 917 276 
Q 641 553 641 1216 
L 641 2700 
L 84 2700 
L 84 3500 
L 641 3500 
L 641 4494 
L 1759 4494 
z
" transform="scale(0.015625)"/>
       <path id="DejaVuSans-Bold-61" d="M 2106 1575 
Q 1756 1575 1579 1456 
Q 1403 1338 1403 1106 
Q 1403 894 1545 773 
Q 1688 653 1941 653 
Q 2256 653 2472 879 
Q 2688 1106 2688 1447 
L 2688 1575 
L 2106 1575 
z
M 3816 1997 
L 3816 0 
L 2688 0 
L 2688 519 
Q 2463 200 2181 54 
Q 1900 -91 1497 -91 
Q 953 -91 614 226 
Q 275 544 275 1050 
Q 275 1666 698 1953 
Q 1122 2241 2028 2241 
L 2688 2241 
L 2688 2328 
Q 2688 2594 2478 2717 
Q 2269 2841 1825 2841 
Q 1466 2841 1156 2769 
Q 847 2697 581 2553 
L 581 3406 
Q 941 3494 1303 3539 
Q 1666 3584 2028 3584 
Q 2975 3584 3395 3211 
Q 3816 2838 3816 1997 
z
" transform="scale(0.015625)"/>
       <path id="DejaVuSans-Bold-6c" d="M 538 4863 
L 1656 4863 
L 1656 0 
L 538 0 
L 538 4863 
z
" transform="scale(0.015625)"/>
       <path id="DejaVuSans-Bold-65" d="M 4031 1759 
L 4031 1441 
L 1416 1441 
Q 1456 1047 1700 850 
Q 1944 653 2381 653 
Q 2734 653 3104 758 
Q 3475 863 3866 1075 
L 3866 213 
Q 3469 63 3072 -14 
Q 2675 -91 2278 -91 
Q 1328 -91 801 392 
Q 275 875 275 1747 
Q 275 2603 792 3093 
Q 1309 3584 2216 3584 
Q 3041 3584 3536 3087 
Q 4031 2591 4031 1759 
z
M 2881 2131 
Q 2881 2450 2695 2645 
Q 2509 2841 2209 2841 
Q 1884 2841 1681 2658 
Q 1478 2475 1428 2131 
L 2881 2131 
z
" transform="scale(0.015625)"/>
       <path id="DejaVuSans-Bold-64" d="M 2919 2988 
L 2919 4863 
L 4044 4863 
L 4044 0 
L 2919 0 
L 2919 506 
Q 2688 197 2409 53 
Q 2131 -91 1766 -91 
Q 1119 -91 703 423 
Q 288 938 288 1747 
Q 288 2556 703 3070 
Q 1119 3584 1766 3584 
Q 2128 3584 2408 3439 
Q 2688 3294 2919 2988 
z
M 2181 722 
Q 2541 722 2730 984 
Q 2919 1247 2919 1747 
Q 2919 2247 2730 2509 
Q 2541 2772 2181 2772 
Q 1825 2772 1636 2509 
Q 1447 2247 1447 1747 
Q 1447 1247 1636 984 
Q 1825 722 2181 722 
z
" transform="scale(0.015625)"/>
       <path id="DejaVuSans-Bold-20" transform="scale(0.015625)"/>
       <path id="DejaVuSans-Bold-54" d="M 31 4666 
L 4331 4666 
L 4331 3756 
L 2784 3756 
L 2784 0 
L 1581 0 
L 1581 3756 
L 31 3756 
L 31 4666 
z
" transform="scale(0.015625)"/>
       <path id="DejaVuSans-Bold-43" d="M 4288 256 
Q 3956 84 3597 -3 
Q 3238 -91 2847 -91 
Q 1681 -91 1000 561 
Q 319 1213 319 2328 
Q 319 3447 1000 4098 
Q 1681 4750 2847 4750 
Q 3238 4750 3597 4662 
Q 3956 4575 4288 4403 
L 4288 3438 
Q 3953 3666 3628 3772 
Q 3303 3878 2944 3878 
Q 2300 3878 1931 3465 
Q 1563 3053 1563 2328 
Q 1563 1606 1931 1193 
Q 2300 781 2944 781 
Q 3303 781 3628 887 
Q 3953 994 4288 1222 
L 4288 256 
z
" transform="scale(0.015625)"/>
       <path id="DejaVuSans-Bold-70" d="M 1656 506 
L 1656 -1331 
L 538 -1331 
L 538 3500 
L 1656 3500 
L 1656 2988 
Q 1888 3294 2169 3439 
Q 2450 3584 2816 3584 
Q 3463 3584 3878 3070 
Q 4294 2556 4294 1747 
Q 4294 938 3878 423 
Q 3463 -91 2816 -91 
Q 2450 -91 2169 54 
Q 1888 200 1656 506 
z
M 2400 2772 
Q 2041 2772 1848 2508 
Q 1656 2244 1656 1747 
Q 1656 1250 1848 986 
Q 2041 722 2400 722 
Q 2759 722 2948 984 
Q 3138 1247 3138 1747 
Q 3138 2247 2948 2509 
Q 2759 2772 2400 2772 
z
" transform="scale(0.015625)"/>
       <path id="DejaVuSans-Bold-63" d="M 3366 3391 
L 3366 2478 
Q 3138 2634 2908 2709 
Q 2678 2784 2431 2784 
Q 1963 2784 1702 2511 
Q 1441 2238 1441 1747 
Q 1441 1256 1702 982 
Q 1963 709 2431 709 
Q 2694 709 2930 787 
Q 3166 866 3366 1019 
L 3366 103 
Q 3103 6 2833 -42 
Q 2563 -91 2291 -91 
Q 1344 -91 809 395 
Q 275 881 275 1747 
Q 275 2613 809 3098 
Q 1344 3584 2291 3584 
Q 2566 3584 2833 3536 
Q 3100 3488 3366 3391 
z
" transform="scale(0.015625)"/>
       <path id="DejaVuSans-Bold-69" d="M 538 3500 
L 1656 3500 
L 1656 0 
L 538 0 
L 538 3500 
z
M 538 4863 
L 1656 4863 
L 1656 3950 
L 538 3950 
L 538 4863 
z
" transform="scale(0.015625)"/>
       <path id="DejaVuSans-Bold-79" d="M 78 3500 
L 1197 3500 
L 2138 1125 
L 2938 3500 
L 4056 3500 
L 2584 -331 
Q 2363 -916 2067 -1148 
Q 1772 -1381 1288 -1381 
L 641 -1381 
L 641 -647 
L 991 -647 
Q 1275 -647 1404 -556 
Q 1534 -466 1606 -231 
L 1638 -134 
L 78 3500 
z
" transform="scale(0.015625)"/>
       <path id="DejaVuSans-Bold-28" d="M 2413 -844 
L 1484 -844 
Q 1006 -72 778 623 
Q 550 1319 550 2003 
Q 550 2688 779 3389 
Q 1009 4091 1484 4856 
L 2413 4856 
Q 2013 4116 1813 3408 
Q 1613 2700 1613 2009 
Q 1613 1319 1811 609 
Q 2009 -100 2413 -844 
z
" transform="scale(0.015625)"/>
       <path id="DejaVuSans-Bold-4d" d="M 588 4666 
L 2119 4666 
L 3181 2169 
L 4250 4666 
L 5778 4666 
L 5778 0 
L 4641 0 
L 4641 3413 
L 3566 897 
L 2803 897 
L 1728 3413 
L 1728 0 
L 588 0 
L 588 4666 
z
" transform="scale(0.015625)"/>
       <path id="DejaVuSans-Bold-57" d="M 191 4666 
L 1344 4666 
L 2150 1275 
L 2950 4666 
L 4109 4666 
L 4909 1275 
L 5716 4666 
L 6859 4666 
L 5759 0 
L 4372 0 
L 3525 3547 
L 2688 0 
L 1300 0 
L 191 4666 
z
" transform="scale(0.015625)"/>
       <path id="DejaVuSans-Bold-29" d="M 513 -844 
Q 913 -100 1113 609 
Q 1313 1319 1313 2009 
Q 1313 2700 1113 3408 
Q 913 4116 513 4856 
L 1441 4856 
Q 1916 4091 2145 3389 
Q 2375 2688 2375 2003 
Q 2375 1319 2147 623 
Q 1919 -72 1441 -844 
L 513 -844 
z
" transform="scale(0.015625)"/>
      </defs>
      <use xlink:href="#DejaVuSans-Bold-49"/>
      <use xlink:href="#DejaVuSans-Bold-6e" transform="translate(37.207031 0)"/>
      <use xlink:href="#DejaVuSans-Bold-73" transform="translate(108.398438 0)"/>
      <use xlink:href="#DejaVuSans-Bold-74" transform="translate(167.919922 0)"/>
      <use xlink:href="#DejaVuSans-Bold-61" transform="translate(215.722656 0)"/>
      <use xlink:href="#DejaVuSans-Bold-6c" transform="translate(283.203125 0)"/>
      <use xlink:href="#DejaVuSans-Bold-6c" transform="translate(317.480469 0)"/>
      <use xlink:href="#DejaVuSans-Bold-65" transform="translate(351.757812 0)"/>
      <use xlink:href="#DejaVuSans-Bold-64" transform="translate(419.580078 0)"/>
      <use xlink:href="#DejaVuSans-Bold-20" transform="translate(491.162109 0)"/>
      <use xlink:href="#DejaVuSans-Bold-49" transform="translate(525.976562 0)"/>
      <use xlink:href="#DejaVuSans-Bold-54" transform="translate(563.183594 0)"/>
      <use xlink:href="#DejaVuSans-Bold-20" transform="translate(631.396484 0)"/>
      <use xlink:href="#DejaVuSans-Bold-43" transform="translate(666.210938 0)"/>
      <use xlink:href="#DejaVuSans-Bold-61" transform="translate(739.599609 0)"/>
      <use xlink:href="#DejaVuSans-Bold-70" transform="translate(807.080078 0)"/>
      <use xlink:href="#DejaVuSans-Bold-61" transform="translate(878.662109 0)"/>
      <use xlink:href="#DejaVuSans-Bold-63" transform="translate(946.142578 0)"/>
      <use xlink:href="#DejaVuSans-Bold-69" transform="translate(1005.419922 0)"/>
      <use xlink:href="#DejaVuSans-Bold-74" transform="translate(1039.697266 0)"/>
      <use xlink:href="#DejaVuSans-Bold-79" transform="translate(1087.5 0)"/>
      <use xlink:href="#DejaVuSans-Bold-20" transform="translate(1152.685547 0)"/>
      <use xlink:href="#DejaVuSans-Bold-28" transform="translate(1187.5 0)"/>
      <use xlink:href="#DejaVuSans-Bold-4d" transform="translate(1233.203125 0)"/>
      <use xlink:href="#DejaVuSans-Bold-57" transform="translate(1332.714844 0)"/>
      <use xlink:href="#DejaVuSans-Bold-29" transform="translate(1443.017578 0)"/>
     </g>
    </g>
   </g>
   <g id="matplotlib.axis_2">
    <g id="ytick_1">
     <g id="line2d_8">
      <path d="M 48.90125 384.497656 
L 705.17625 384.497656 
" clip-path="url(#pf404d77775)" style="fill: none; stroke: #b0b0b0; stroke-opacity: 0.3; stroke-width: 0.8; stroke-linecap: square"/>
     </g>
     <g id="line2d_9">
      <defs>
       <path id="m833d7a6404" d="M 0 0 
L -3.5 0 
" style="stroke: #000000; stroke-width: 0.8"/>
      </defs>
      <g>
       <use xlink:href="#m833d7a6404" x="48.90125" y="384.497656" style="stroke: #000000; stroke-width: 0.8"/>
      </g>
     </g>
     <g id="text_9">
      <!-- 0 -->
      <g transform="translate(35.53875 388.296875) scale(0.1 -0.1)">
       <use xlink:href="#DejaVuSans-30"/>
      </g>
     </g>
    </g>
    <g id="ytick_2">
     <g id="line2d_10">
      <path d="M 48.90125 326.510922 
L 705.17625 326.510922 
" clip-path="url(#pf404d77775)" style="fill: none; stroke: #b0b0b0; stroke-opacity: 0.3; stroke-width: 0.8; stroke-linecap: square"/>
     </g>
     <g id="line2d_11">
      <g>
       <use xlink:href="#m833d7a6404" x="48.90125" y="326.510922" style="stroke: #000000; stroke-width: 0.8"/>
      </g>
     </g>
     <g id="text_10">
      <!-- 100 -->
      <g transform="translate(22.81375 330.310141) scale(0.1 -0.1)">
       <use xlink:href="#DejaVuSans-31"/>
       <use xlink:href="#DejaVuSans-30" transform="translate(63.623047 0)"/>
       <use xlink:href="#DejaVuSans-30" transform="translate(127.246094 0)"/>
      </g>
     </g>
    </g>
    <g id="ytick_3">
     <g id="line2d_12">
      <path d="M 48.90125 268.524188 
L 705.17625 268.524188 
" clip-path="url(#pf404d77775)" style="fill: none; stroke: #b0b0b0; stroke-opacity: 0.3; stroke-width: 0.8; stroke-linecap: square"/>
     </g>
     <g id="line2d_13">
      <g>
       <use xlink:href="#m833d7a6404" x="48.90125" y="268.524188" style="stroke: #000000; stroke-width: 0.8"/>
      </g>
     </g>
     <g id="text_11">
      <!-- 200 -->
      <g transform="translate(22.81375 272.323406) scale(0.1 -0.1)">
       <use xlink:href="#DejaVuSans-32"/>
       <use xlink:href="#DejaVuSans-30" transform="translate(63.623047 0)"/>
       <use xlink:href="#DejaVuSans-30" transform="translate(127.246094 0)"/>
      </g>
     </g>
    </g>
    <g id="ytick_4">
     <g id="line2d_14">
      <path d="M 48.90125 210.537453 
L 705.17625 210.537453 
" clip-path="url(#pf404d77775)" style="fill: none; stroke: #b0b0b0; stroke-opacity: 0.3; stroke-width: 0.8; stroke-linecap: square"/>
     </g>
     <g id="line2d_15">
      <g>
       <use xlink:href="#m833d7a6404" x="48.90125" y="210.537453" style="stroke: #000000; stroke-width: 0.8"/>
      </g>
     </g>
     <g id="text_12">
      <!-- 300 -->
      <g transform="translate(22.81375 214.336672) scale(0.1 -0.1)">
       <use xlink:href="#DejaVuSans-33"/>
       <use xlink:href="#DejaVuSans-30" transform="translate(63.623047 0)"/>
       <use xlink:href="#DejaVuSans-30" transform="translate(127.246094 0)"/>
      </g>
     </g>
    </g>
    <g id="ytick_5">
     <g id="line2d_16">
      <path d="M 48.90125 152.550719 
L 705.17625 152.550719 
" clip-path="url(#pf404d77775)" style="fill: none; stroke: #b0b0b0; stroke-opacity: 0.3; stroke-width: 0.8; stroke-linecap: square"/>
     </g>
     <g id="line2d_17">
      <g>
       <use xlink:href="#m833d7a6404" x="48.90125" y="152.550719" style="stroke: #000000; stroke-width: 0.8"/>
      </g>
     </g>
     <g id="text_13">
      <!-- 400 -->
      <g transform="translate(22.81375 156.349938) scale(0.1 -0.1)">
       <use xlink:href="#DejaVuSans-34"/>
       <use xlink:href="#DejaVuSans-30" transform="translate(63.623047 0)"/>
       <use xlink:href="#DejaVuSans-30" transform="translate(127.246094 0)"/>
      </g>
     </g>
    </g>
    <g id="ytick_6">
     <g id="line2d_18">
      <path d="M 48.90125 94.563985 
L 705.17625 94.563985 
" clip-path="url(#pf404d77775)" style="fill: none; stroke: #b0b0b0; stroke-opacity: 0.3; stroke-width: 0.8; stroke-linecap: square"/>
     </g>
     <g id="line2d_19">
      <g>
       <use xlink:href="#m833d7a6404" x="48.90125" y="94.563985" style="stroke: #000000; stroke-width: 0.8"/>
      </g>
     </g>
     <g id="text_14">
      <!-- 500 -->
      <g transform="translate(22.81375 98.363203) scale(0.1 -0.1)">
       <use xlink:href="#DejaVuSans-35"/>
       <use xlink:href="#DejaVuSans-30" transform="translate(63.623047 0)"/>
       <use xlink:href="#DejaVuSans-30" transform="translate(127.246094 0)"/>
      </g>
     </g>
    </g>
    <g id="text_15">
     <!-- Annualized Cost (Millions € / Year) -->
     <g style="fill: #808080" transform="translate(16.318125 327.320469) rotate(-90) scale(0.12 -0.12)">
      <defs>
       <path id="DejaVuSans-Bold-41" d="M 3419 850 
L 1538 850 
L 1241 0 
L 31 0 
L 1759 4666 
L 3194 4666 
L 4922 0 
L 3713 0 
L 3419 850 
z
M 1838 1716 
L 3116 1716 
L 2478 3572 
L 1838 1716 
z
" transform="scale(0.015625)"/>
       <path id="DejaVuSans-Bold-75" d="M 500 1363 
L 500 3500 
L 1625 3500 
L 1625 3150 
Q 1625 2866 1622 2436 
Q 1619 2006 1619 1863 
Q 1619 1441 1641 1255 
Q 1663 1069 1716 984 
Q 1784 875 1895 815 
Q 2006 756 2150 756 
Q 2500 756 2700 1025 
Q 2900 1294 2900 1772 
L 2900 3500 
L 4019 3500 
L 4019 0 
L 2900 0 
L 2900 506 
Q 2647 200 2364 54 
Q 2081 -91 1741 -91 
Q 1134 -91 817 281 
Q 500 653 500 1363 
z
" transform="scale(0.015625)"/>
       <path id="DejaVuSans-Bold-7a" d="M 366 3500 
L 3419 3500 
L 3419 2719 
L 1575 800 
L 3419 800 
L 3419 0 
L 288 0 
L 288 781 
L 2131 2700 
L 366 2700 
L 366 3500 
z
" transform="scale(0.015625)"/>
       <path id="DejaVuSans-Bold-6f" d="M 2203 2784 
Q 1831 2784 1636 2517 
Q 1441 2250 1441 1747 
Q 1441 1244 1636 976 
Q 1831 709 2203 709 
Q 2569 709 2762 976 
Q 2956 1244 2956 1747 
Q 2956 2250 2762 2517 
Q 2569 2784 2203 2784 
z
M 2203 3584 
Q 3106 3584 3614 3096 
Q 4122 2609 4122 1747 
Q 4122 884 3614 396 
Q 3106 -91 2203 -91 
Q 1297 -91 786 396 
Q 275 884 275 1747 
Q 275 2609 786 3096 
Q 1297 3584 2203 3584 
z
" transform="scale(0.015625)"/>
       <path id="DejaVuSans-Bold-20ac" d="M 4025 256 
Q 3728 84 3404 -3 
Q 3081 -91 2731 -91 
Q 1913 -91 1352 317 
Q 791 725 556 1491 
L -122 1491 
L 153 2100 
L 459 2100 
Q 456 2144 454 2192 
Q 453 2241 453 2328 
Q 453 2419 454 2469 
Q 456 2519 459 2566 
L -122 2566 
L 153 3175 
L 556 3175 
Q 797 3944 1355 4347 
Q 1913 4750 2731 4750 
Q 3081 4750 3404 4662 
Q 3728 4575 4025 4403 
L 4025 3438 
Q 3772 3681 3484 3804 
Q 3197 3928 2888 3928 
Q 2491 3928 2211 3736 
Q 1931 3544 1791 3175 
L 3475 3175 
L 3206 2566 
L 1666 2566 
Q 1659 2516 1657 2459 
Q 1656 2403 1656 2291 
Q 1656 2250 1657 2201 
Q 1659 2153 1663 2100 
L 3003 2100 
L 2725 1491 
L 1791 1491 
Q 1947 1109 2220 918 
Q 2494 728 2888 728 
Q 3197 728 3480 851 
Q 3763 975 4025 1222 
L 4025 256 
z
" transform="scale(0.015625)"/>
       <path id="DejaVuSans-Bold-2f" d="M 1644 4666 
L 2338 4666 
L 691 -594 
L 0 -594 
L 1644 4666 
z
" transform="scale(0.015625)"/>
       <path id="DejaVuSans-Bold-59" d="M -63 4666 
L 1253 4666 
L 2316 3003 
L 3378 4666 
L 4697 4666 
L 2919 1966 
L 2919 0 
L 1716 0 
L 1716 1966 
L -63 4666 
z
" transform="scale(0.015625)"/>
       <path id="DejaVuSans-Bold-72" d="M 3138 2547 
Q 2991 2616 2845 2648 
Q 2700 2681 2553 2681 
Q 2122 2681 1889 2404 
Q 1656 2128 1656 1613 
L 1656 0 
L 538 0 
L 538 3500 
L 1656 3500 
L 1656 2925 
Q 1872 3269 2151 3426 
Q 2431 3584 2822 3584 
Q 2878 3584 2943 3579 
Q 3009 3575 3134 3559 
L 3138 2547 
z
" transform="scale(0.015625)"/>
      </defs>
      <use xlink:href="#DejaVuSans-Bold-41"/>
      <use xlink:href="#DejaVuSans-Bold-6e" transform="translate(77.392578 0)"/>
      <use xlink:href="#DejaVuSans-Bold-6e" transform="translate(148.583984 0)"/>
      <use xlink:href="#DejaVuSans-Bold-75" transform="translate(219.775391 0)"/>
      <use xlink:href="#DejaVuSans-Bold-61" transform="translate(290.966797 0)"/>
      <use xlink:href="#DejaVuSans-Bold-6c" transform="translate(358.447266 0)"/>
      <use xlink:href="#DejaVuSans-Bold-69" transform="translate(392.724609 0)"/>
      <use xlink:href="#DejaVuSans-Bold-7a" transform="translate(427.001953 0)"/>
      <use xlink:href="#DejaVuSans-Bold-65" transform="translate(485.205078 0)"/>
      <use xlink:href="#DejaVuSans-Bold-64" transform="translate(553.027344 0)"/>
      <use xlink:href="#DejaVuSans-Bold-20" transform="translate(624.609375 0)"/>
      <use xlink:href="#DejaVuSans-Bold-43" transform="translate(659.423828 0)"/>
      <use xlink:href="#DejaVuSans-Bold-6f" transform="translate(732.8125 0)"/>
      <use xlink:href="#DejaVuSans-Bold-73" transform="translate(801.513672 0)"/>
      <use xlink:href="#DejaVuSans-Bold-74" transform="translate(861.035156 0)"/>
      <use xlink:href="#DejaVuSans-Bold-20" transform="translate(908.837891 0)"/>
      <use xlink:href="#DejaVuSans-Bold-28" transform="translate(943.652344 0)"/>
      <use xlink:href="#DejaVuSans-Bold-4d" transform="translate(989.355469 0)"/>
      <use xlink:href="#DejaVuSans-Bold-69" transform="translate(1088.867188 0)"/>
      <use xlink:href="#DejaVuSans-Bold-6c" transform="translate(1123.144531 0)"/>
      <use xlink:href="#DejaVuSans-Bold-6c" transform="translate(1157.421875 0)"/>
      <use xlink:href="#DejaVuSans-Bold-69" transform="translate(1191.699219 0)"/>
      <use xlink:href="#DejaVuSans-Bold-6f" transform="translate(1225.976562 0)"/>
      <use xlink:href="#DejaVuSans-Bold-6e" transform="translate(1294.677734 0)"/>
      <use xlink:href="#DejaVuSans-Bold-73" transform="translate(1365.869141 0)"/>
      <use xlink:href="#DejaVuSans-Bold-20" transform="translate(1425.390625 0)"/>
      <use xlink:href="#DejaVuSans-Bold-20ac" transform="translate(1460.205078 0)"/>
      <use xlink:href="#DejaVuSans-Bold-20" transform="translate(1529.785156 0)"/>
      <use xlink:href="#DejaVuSans-Bold-2f" transform="translate(1564.599609 0)"/>
      <use xlink:href="#DejaVuSans-Bold-20" transform="translate(1601.123047 0)"/>
      <use xlink:href="#DejaVuSans-Bold-59" transform="translate(1635.9375 0)"/>
      <use xlink:href="#DejaVuSans-Bold-65" transform="translate(1699.224609 0)"/>
      <use xlink:href="#DejaVuSans-Bold-61" transform="translate(1767.046875 0)"/>
      <use xlink:href="#DejaVuSans-Bold-72" transform="translate(1834.527344 0)"/>
      <use xlink:href="#DejaVuSans-Bold-29" transform="translate(1883.84375 0)"/>
     </g>
    </g>
   </g>
   <g id="patch_24">
    <path d="M 48.90125 384.497656 
L 48.90125 38.597656 
" style="fill: none; stroke: #808080; stroke-width: 0.8; stroke-linejoin: miter; stroke-linecap: square"/>
   </g>
   <g id="patch_25">
    <path d="M 48.90125 384.497656 
L 705.17625 384.497656 
" style="fill: none; stroke: #808080; stroke-width: 0.8; stroke-linejoin: miter; stroke-linecap: square"/>
   </g>
   <g id="text_16">
    <!-- €83.0M -->
    <g style="fill: #333333" transform="translate(82.989971 329.292751) scale(0.1 -0.1)">
     <defs>
      <path id="DejaVuSans-Bold-38" d="M 2228 2088 
Q 1891 2088 1709 1903 
Q 1528 1719 1528 1375 
Q 1528 1031 1709 848 
Q 1891 666 2228 666 
Q 2563 666 2741 848 
Q 2919 1031 2919 1375 
Q 2919 1722 2741 1905 
Q 2563 2088 2228 2088 
z
M 1350 2484 
Q 925 2613 709 2878 
Q 494 3144 494 3541 
Q 494 4131 934 4440 
Q 1375 4750 2228 4750 
Q 3075 4750 3515 4442 
Q 3956 4134 3956 3541 
Q 3956 3144 3739 2878 
Q 3522 2613 3097 2484 
Q 3572 2353 3814 2058 
Q 4056 1763 4056 1313 
Q 4056 619 3595 264 
Q 3134 -91 2228 -91 
Q 1319 -91 855 264 
Q 391 619 391 1313 
Q 391 1763 633 2058 
Q 875 2353 1350 2484 
z
M 1631 3419 
Q 1631 3141 1786 2991 
Q 1941 2841 2228 2841 
Q 2509 2841 2662 2991 
Q 2816 3141 2816 3419 
Q 2816 3697 2662 3845 
Q 2509 3994 2228 3994 
Q 1941 3994 1786 3844 
Q 1631 3694 1631 3419 
z
" transform="scale(0.015625)"/>
      <path id="DejaVuSans-Bold-33" d="M 2981 2516 
Q 3453 2394 3698 2092 
Q 3944 1791 3944 1325 
Q 3944 631 3412 270 
Q 2881 -91 1863 -91 
Q 1503 -91 1142 -33 
Q 781 25 428 141 
L 428 1069 
Q 766 900 1098 814 
Q 1431 728 1753 728 
Q 2231 728 2486 893 
Q 2741 1059 2741 1369 
Q 2741 1688 2480 1852 
Q 2219 2016 1709 2016 
L 1228 2016 
L 1228 2791 
L 1734 2791 
Q 2188 2791 2409 2933 
Q 2631 3075 2631 3366 
Q 2631 3634 2415 3781 
Q 2200 3928 1806 3928 
Q 1516 3928 1219 3862 
Q 922 3797 628 3669 
L 628 4550 
Q 984 4650 1334 4700 
Q 1684 4750 2022 4750 
Q 2931 4750 3382 4451 
Q 3834 4153 3834 3553 
Q 3834 3144 3618 2883 
Q 3403 2622 2981 2516 
z
" transform="scale(0.015625)"/>
      <path id="DejaVuSans-Bold-2e" d="M 653 1209 
L 1778 1209 
L 1778 0 
L 653 0 
L 653 1209 
z
" transform="scale(0.015625)"/>
      <path id="DejaVuSans-Bold-30" d="M 2944 2338 
Q 2944 3213 2780 3570 
Q 2616 3928 2228 3928 
Q 1841 3928 1675 3570 
Q 1509 3213 1509 2338 
Q 1509 1453 1675 1090 
Q 1841 728 2228 728 
Q 2613 728 2778 1090 
Q 2944 1453 2944 2338 
z
M 4147 2328 
Q 4147 1169 3647 539 
Q 3147 -91 2228 -91 
Q 1306 -91 806 539 
Q 306 1169 306 2328 
Q 306 3491 806 4120 
Q 1306 4750 2228 4750 
Q 3147 4750 3647 4120 
Q 4147 3491 4147 2328 
z
" transform="scale(0.015625)"/>
     </defs>
     <use xlink:href="#DejaVuSans-Bold-20ac"/>
     <use xlink:href="#DejaVuSans-Bold-38" transform="translate(69.580078 0)"/>
     <use xlink:href="#DejaVuSans-Bold-33" transform="translate(139.160156 0)"/>
     <use xlink:href="#DejaVuSans-Bold-2e" transform="translate(208.740234 0)"/>
     <use xlink:href="#DejaVuSans-Bold-30" transform="translate(246.728516 0)"/>
     <use xlink:href="#DejaVuSans-Bold-4d" transform="translate(316.308594 0)"/>
    </g>
   </g>
   <g id="text_17">
    <!-- €103.7M -->
    <g style="fill: #333333" transform="translate(170.597116 317.261447) scale(0.1 -0.1)">
     <defs>
      <path id="DejaVuSans-Bold-31" d="M 750 831 
L 1813 831 
L 1813 3847 
L 722 3622 
L 722 4441 
L 1806 4666 
L 2950 4666 
L 2950 831 
L 4013 831 
L 4013 0 
L 750 0 
L 750 831 
z
" transform="scale(0.015625)"/>
      <path id="DejaVuSans-Bold-37" d="M 428 4666 
L 3944 4666 
L 3944 3988 
L 2125 0 
L 953 0 
L 2675 3781 
L 428 3781 
L 428 4666 
z
" transform="scale(0.015625)"/>
     </defs>
     <use xlink:href="#DejaVuSans-Bold-20ac"/>
     <use xlink:href="#DejaVuSans-Bold-31" transform="translate(69.580078 0)"/>
     <use xlink:href="#DejaVuSans-Bold-30" transform="translate(139.160156 0)"/>
     <use xlink:href="#DejaVuSans-Bold-33" transform="translate(208.740234 0)"/>
     <use xlink:href="#DejaVuSans-Bold-2e" transform="translate(278.320312 0)"/>
     <use xlink:href="#DejaVuSans-Bold-37" transform="translate(316.308594 0)"/>
     <use xlink:href="#DejaVuSans-Bold-4d" transform="translate(385.888672 0)"/>
    </g>
   </g>
   <g id="text_18">
    <!-- €155.6M -->
    <g style="fill: #333333" transform="translate(261.683167 287.183186) scale(0.1 -0.1)">
     <defs>
      <path id="DejaVuSans-Bold-35" d="M 678 4666 
L 3669 4666 
L 3669 3781 
L 1638 3781 
L 1638 3059 
Q 1775 3097 1914 3117 
Q 2053 3138 2203 3138 
Q 3056 3138 3531 2711 
Q 4006 2284 4006 1522 
Q 4006 766 3489 337 
Q 2972 -91 2053 -91 
Q 1656 -91 1267 -14 
Q 878 63 494 219 
L 494 1166 
Q 875 947 1217 837 
Q 1559 728 1863 728 
Q 2300 728 2551 942 
Q 2803 1156 2803 1522 
Q 2803 1891 2551 2103 
Q 2300 2316 1863 2316 
Q 1603 2316 1309 2248 
Q 1016 2181 678 2041 
L 678 4666 
z
" transform="scale(0.015625)"/>
      <path id="DejaVuSans-Bold-36" d="M 2316 2303 
Q 2000 2303 1842 2098 
Q 1684 1894 1684 1484 
Q 1684 1075 1842 870 
Q 2000 666 2316 666 
Q 2634 666 2792 870 
Q 2950 1075 2950 1484 
Q 2950 1894 2792 2098 
Q 2634 2303 2316 2303 
z
M 3803 4544 
L 3803 3681 
Q 3506 3822 3243 3889 
Q 2981 3956 2731 3956 
Q 2194 3956 1894 3657 
Q 1594 3359 1544 2772 
Q 1750 2925 1990 3001 
Q 2231 3078 2516 3078 
Q 3231 3078 3670 2659 
Q 4109 2241 4109 1563 
Q 4109 813 3618 361 
Q 3128 -91 2303 -91 
Q 1394 -91 895 523 
Q 397 1138 397 2266 
Q 397 3422 980 4083 
Q 1563 4744 2578 4744 
Q 2900 4744 3203 4694 
Q 3506 4644 3803 4544 
z
" transform="scale(0.015625)"/>
     </defs>
     <use xlink:href="#DejaVuSans-Bold-20ac"/>
     <use xlink:href="#DejaVuSans-Bold-31" transform="translate(69.580078 0)"/>
     <use xlink:href="#DejaVuSans-Bold-35" transform="translate(139.160156 0)"/>
     <use xlink:href="#DejaVuSans-Bold-35" transform="translate(208.740234 0)"/>
     <use xlink:href="#DejaVuSans-Bold-2e" transform="translate(278.320312 0)"/>
     <use xlink:href="#DejaVuSans-Bold-36" transform="translate(316.308594 0)"/>
     <use xlink:href="#DejaVuSans-Bold-4d" transform="translate(385.888672 0)"/>
    </g>
   </g>
   <g id="text_19">
    <!-- €207.5M -->
    <g style="fill: #333333" transform="translate(352.769219 257.104925) scale(0.1 -0.1)">
     <defs>
      <path id="DejaVuSans-Bold-32" d="M 1844 884 
L 3897 884 
L 3897 0 
L 506 0 
L 506 884 
L 2209 2388 
Q 2438 2594 2547 2791 
Q 2656 2988 2656 3200 
Q 2656 3528 2436 3728 
Q 2216 3928 1850 3928 
Q 1569 3928 1234 3808 
Q 900 3688 519 3450 
L 519 4475 
Q 925 4609 1322 4679 
Q 1719 4750 2100 4750 
Q 2938 4750 3402 4381 
Q 3866 4013 3866 3353 
Q 3866 2972 3669 2642 
Q 3472 2313 2841 1759 
L 1844 884 
z
" transform="scale(0.015625)"/>
     </defs>
     <use xlink:href="#DejaVuSans-Bold-20ac"/>
     <use xlink:href="#DejaVuSans-Bold-32" transform="translate(69.580078 0)"/>
     <use xlink:href="#DejaVuSans-Bold-30" transform="translate(139.160156 0)"/>
     <use xlink:href="#DejaVuSans-Bold-37" transform="translate(208.740234 0)"/>
     <use xlink:href="#DejaVuSans-Bold-2e" transform="translate(278.320312 0)"/>
     <use xlink:href="#DejaVuSans-Bold-35" transform="translate(316.308594 0)"/>
     <use xlink:href="#DejaVuSans-Bold-4d" transform="translate(385.888672 0)"/>
    </g>
   </g>
   <g id="text_20">
    <!-- €259.4M -->
    <g style="fill: #333333" transform="translate(443.85527 227.026664) scale(0.1 -0.1)">
     <defs>
      <path id="DejaVuSans-Bold-39" d="M 641 103 
L 641 966 
Q 928 831 1190 764 
Q 1453 697 1709 697 
Q 2247 697 2547 995 
Q 2847 1294 2900 1881 
Q 2688 1725 2447 1647 
Q 2206 1569 1925 1569 
Q 1209 1569 770 1986 
Q 331 2403 331 3084 
Q 331 3838 820 4291 
Q 1309 4744 2131 4744 
Q 3044 4744 3544 4128 
Q 4044 3513 4044 2388 
Q 4044 1231 3459 570 
Q 2875 -91 1856 -91 
Q 1528 -91 1228 -42 
Q 928 6 641 103 
z
M 2125 2350 
Q 2441 2350 2600 2554 
Q 2759 2759 2759 3169 
Q 2759 3575 2600 3781 
Q 2441 3988 2125 3988 
Q 1809 3988 1650 3781 
Q 1491 3575 1491 3169 
Q 1491 2759 1650 2554 
Q 1809 2350 2125 2350 
z
" transform="scale(0.015625)"/>
      <path id="DejaVuSans-Bold-34" d="M 2356 3675 
L 1038 1722 
L 2356 1722 
L 2356 3675 
z
M 2156 4666 
L 3494 4666 
L 3494 1722 
L 4159 1722 
L 4159 850 
L 3494 850 
L 3494 0 
L 2356 0 
L 2356 850 
L 288 850 
L 288 1881 
L 2156 4666 
z
" transform="scale(0.015625)"/>
     </defs>
     <use xlink:href="#DejaVuSans-Bold-20ac"/>
     <use xlink:href="#DejaVuSans-Bold-32" transform="translate(69.580078 0)"/>
     <use xlink:href="#DejaVuSans-Bold-35" transform="translate(139.160156 0)"/>
     <use xlink:href="#DejaVuSans-Bold-39" transform="translate(208.740234 0)"/>
     <use xlink:href="#DejaVuSans-Bold-2e" transform="translate(278.320312 0)"/>
     <use xlink:href="#DejaVuSans-Bold-34" transform="translate(316.308594 0)"/>
     <use xlink:href="#DejaVuSans-Bold-4d" transform="translate(385.888672 0)"/>
    </g>
   </g>
   <g id="text_21">
    <!-- €389.0M -->
    <g style="fill: #333333" transform="translate(534.941321 151.831012) scale(0.1 -0.1)">
     <use xlink:href="#DejaVuSans-Bold-20ac"/>
     <use xlink:href="#DejaVuSans-Bold-33" transform="translate(69.580078 0)"/>
     <use xlink:href="#DejaVuSans-Bold-38" transform="translate(139.160156 0)"/>
     <use xlink:href="#DejaVuSans-Bold-39" transform="translate(208.740234 0)"/>
     <use xlink:href="#DejaVuSans-Bold-2e" transform="translate(278.320312 0)"/>
     <use xlink:href="#DejaVuSans-Bold-30" transform="translate(316.308594 0)"/>
     <use xlink:href="#DejaVuSans-Bold-4d" transform="translate(385.888672 0)"/>
    </g>
   </g>
   <g id="text_22">
    <!-- €518.7M -->
    <g style="fill: #333333" transform="translate(626.027373 76.63536) scale(0.1 -0.1)">
     <use xlink:href="#DejaVuSans-Bold-20ac"/>
     <use xlink:href="#DejaVuSans-Bold-35" transform="translate(69.580078 0)"/>
     <use xlink:href="#DejaVuSans-Bold-31" transform="translate(139.160156 0)"/>
     <use xlink:href="#DejaVuSans-Bold-38" transform="translate(208.740234 0)"/>
     <use xlink:href="#DejaVuSans-Bold-2e" transform="translate(278.320312 0)"/>
     <use xlink:href="#DejaVuSans-Bold-37" transform="translate(316.308594 0)"/>
     <use xlink:href="#DejaVuSans-Bold-4d" transform="translate(385.888672 0)"/>
    </g>
   </g>
   <g id="text_23">
    <!-- Total Annual Fixed Costs Across IT Capacities -->
    <g style="fill: #333333" transform="translate(185.615312 18.597656) scale(0.15 -0.15)">
     <defs>
      <path id="DejaVuSans-Bold-46" d="M 588 4666 
L 3834 4666 
L 3834 3756 
L 1791 3756 
L 1791 2888 
L 3713 2888 
L 3713 1978 
L 1791 1978 
L 1791 0 
L 588 0 
L 588 4666 
z
" transform="scale(0.015625)"/>
      <path id="DejaVuSans-Bold-78" d="M 1422 1791 
L 159 3500 
L 1344 3500 
L 2059 2463 
L 2784 3500 
L 3969 3500 
L 2706 1797 
L 4031 0 
L 2847 0 
L 2059 1106 
L 1281 0 
L 97 0 
L 1422 1791 
z
" transform="scale(0.015625)"/>
     </defs>
     <use xlink:href="#DejaVuSans-Bold-54"/>
     <use xlink:href="#DejaVuSans-Bold-6f" transform="translate(54.962891 0)"/>
     <use xlink:href="#DejaVuSans-Bold-74" transform="translate(123.664062 0)"/>
     <use xlink:href="#DejaVuSans-Bold-61" transform="translate(171.466797 0)"/>
     <use xlink:href="#DejaVuSans-Bold-6c" transform="translate(238.947266 0)"/>
     <use xlink:href="#DejaVuSans-Bold-20" transform="translate(273.224609 0)"/>
     <use xlink:href="#DejaVuSans-Bold-41" transform="translate(308.039062 0)"/>
     <use xlink:href="#DejaVuSans-Bold-6e" transform="translate(385.431641 0)"/>
     <use xlink:href="#DejaVuSans-Bold-6e" transform="translate(456.623047 0)"/>
     <use xlink:href="#DejaVuSans-Bold-75" transform="translate(527.814453 0)"/>
     <use xlink:href="#DejaVuSans-Bold-61" transform="translate(599.005859 0)"/>
     <use xlink:href="#DejaVuSans-Bold-6c" transform="translate(666.486328 0)"/>
     <use xlink:href="#DejaVuSans-Bold-20" transform="translate(700.763672 0)"/>
     <use xlink:href="#DejaVuSans-Bold-46" transform="translate(735.578125 0)"/>
     <use xlink:href="#DejaVuSans-Bold-69" transform="translate(803.888672 0)"/>
     <use xlink:href="#DejaVuSans-Bold-78" transform="translate(838.166016 0)"/>
     <use xlink:href="#DejaVuSans-Bold-65" transform="translate(902.667969 0)"/>
     <use xlink:href="#DejaVuSans-Bold-64" transform="translate(970.490234 0)"/>
     <use xlink:href="#DejaVuSans-Bold-20" transform="translate(1042.072266 0)"/>
     <use xlink:href="#DejaVuSans-Bold-43" transform="translate(1076.886719 0)"/>
     <use xlink:href="#DejaVuSans-Bold-6f" transform="translate(1150.275391 0)"/>
     <use xlink:href="#DejaVuSans-Bold-73" transform="translate(1218.976562 0)"/>
     <use xlink:href="#DejaVuSans-Bold-74" transform="translate(1278.498047 0)"/>
     <use xlink:href="#DejaVuSans-Bold-73" transform="translate(1326.300781 0)"/>
     <use xlink:href="#DejaVuSans-Bold-20" transform="translate(1385.822266 0)"/>
     <use xlink:href="#DejaVuSans-Bold-41" transform="translate(1420.636719 0)"/>
     <use xlink:href="#DejaVuSans-Bold-63" transform="translate(1498.029297 0)"/>
     <use xlink:href="#DejaVuSans-Bold-72" transform="translate(1557.306641 0)"/>
     <use xlink:href="#DejaVuSans-Bold-6f" transform="translate(1606.623047 0)"/>
     <use xlink:href="#DejaVuSans-Bold-73" transform="translate(1675.324219 0)"/>
     <use xlink:href="#DejaVuSans-Bold-73" transform="translate(1734.845703 0)"/>
     <use xlink:href="#DejaVuSans-Bold-20" transform="translate(1794.367188 0)"/>
     <use xlink:href="#DejaVuSans-Bold-49" transform="translate(1829.181641 0)"/>
     <use xlink:href="#DejaVuSans-Bold-54" transform="translate(1866.388672 0)"/>
     <use xlink:href="#DejaVuSans-Bold-20" transform="translate(1934.601562 0)"/>
     <use xlink:href="#DejaVuSans-Bold-43" transform="translate(1969.416016 0)"/>
     <use xlink:href="#DejaVuSans-Bold-61" transform="translate(2042.804688 0)"/>
     <use xlink:href="#DejaVuSans-Bold-70" transform="translate(2110.285156 0)"/>
     <use xlink:href="#DejaVuSans-Bold-61" transform="translate(2181.867188 0)"/>
     <use xlink:href="#DejaVuSans-Bold-63" transform="translate(2249.347656 0)"/>
     <use xlink:href="#DejaVuSans-Bold-69" transform="translate(2308.625 0)"/>
     <use xlink:href="#DejaVuSans-Bold-74" transform="translate(2342.902344 0)"/>
     <use xlink:href="#DejaVuSans-Bold-69" transform="translate(2390.705078 0)"/>
     <use xlink:href="#DejaVuSans-Bold-65" transform="translate(2424.982422 0)"/>
     <use xlink:href="#DejaVuSans-Bold-73" transform="translate(2492.804688 0)"/>
    </g>
   </g>
   <g id="legend_1">
    <g id="patch_26">
     <path d="M 58.80125 56.855938 
L 80.80125 56.855938 
L 80.80125 49.155938 
L 58.80125 49.155938 
z
" style="fill: #2879b9; stroke: #ffffff; stroke-width: 0.5; stroke-linejoin: miter"/>
    </g>
    <g id="text_24">
     <!-- Annualized IT CAPEX (5yr) -->
     <g transform="translate(89.60125 56.855938) scale(0.11 -0.11)">
      <defs>
       <path id="DejaVuSans-41" d="M 2188 4044 
L 1331 1722 
L 3047 1722 
L 2188 4044 
z
M 1831 4666 
L 2547 4666 
L 4325 0 
L 3669 0 
L 3244 1197 
L 1141 1197 
L 716 0 
L 50 0 
L 1831 4666 
z
" transform="scale(0.015625)"/>
       <path id="DejaVuSans-6e" d="M 3513 2113 
L 3513 0 
L 2938 0 
L 2938 2094 
Q 2938 2591 2744 2837 
Q 2550 3084 2163 3084 
Q 1697 3084 1428 2787 
Q 1159 2491 1159 1978 
L 1159 0 
L 581 0 
L 581 3500 
L 1159 3500 
L 1159 2956 
Q 1366 3272 1645 3428 
Q 1925 3584 2291 3584 
Q 2894 3584 3203 3211 
Q 3513 2838 3513 2113 
z
" transform="scale(0.015625)"/>
       <path id="DejaVuSans-75" d="M 544 1381 
L 544 3500 
L 1119 3500 
L 1119 1403 
Q 1119 906 1312 657 
Q 1506 409 1894 409 
Q 2359 409 2629 706 
Q 2900 1003 2900 1516 
L 2900 3500 
L 3475 3500 
L 3475 0 
L 2900 0 
L 2900 538 
Q 2691 219 2414 64 
Q 2138 -91 1772 -91 
Q 1169 -91 856 284 
Q 544 659 544 1381 
z
M 1991 3584 
L 1991 3584 
z
" transform="scale(0.015625)"/>
       <path id="DejaVuSans-61" d="M 2194 1759 
Q 1497 1759 1228 1600 
Q 959 1441 959 1056 
Q 959 750 1161 570 
Q 1363 391 1709 391 
Q 2188 391 2477 730 
Q 2766 1069 2766 1631 
L 2766 1759 
L 2194 1759 
z
M 3341 1997 
L 3341 0 
L 2766 0 
L 2766 531 
Q 2569 213 2275 61 
Q 1981 -91 1556 -91 
Q 1019 -91 701 211 
Q 384 513 384 1019 
Q 384 1609 779 1909 
Q 1175 2209 1959 2209 
L 2766 2209 
L 2766 2266 
Q 2766 2663 2505 2880 
Q 2244 3097 1772 3097 
Q 1472 3097 1187 3025 
Q 903 2953 641 2809 
L 641 3341 
Q 956 3463 1253 3523 
Q 1550 3584 1831 3584 
Q 2591 3584 2966 3190 
Q 3341 2797 3341 1997 
z
" transform="scale(0.015625)"/>
       <path id="DejaVuSans-6c" d="M 603 4863 
L 1178 4863 
L 1178 0 
L 603 0 
L 603 4863 
z
" transform="scale(0.015625)"/>
       <path id="DejaVuSans-69" d="M 603 3500 
L 1178 3500 
L 1178 0 
L 603 0 
L 603 3500 
z
M 603 4863 
L 1178 4863 
L 1178 4134 
L 603 4134 
L 603 4863 
z
" transform="scale(0.015625)"/>
       <path id="DejaVuSans-7a" d="M 353 3500 
L 3084 3500 
L 3084 2975 
L 922 459 
L 3084 459 
L 3084 0 
L 275 0 
L 275 525 
L 2438 3041 
L 353 3041 
L 353 3500 
z
" transform="scale(0.015625)"/>
       <path id="DejaVuSans-65" d="M 3597 1894 
L 3597 1613 
L 953 1613 
Q 991 1019 1311 708 
Q 1631 397 2203 397 
Q 2534 397 2845 478 
Q 3156 559 3463 722 
L 3463 178 
Q 3153 47 2828 -22 
Q 2503 -91 2169 -91 
Q 1331 -91 842 396 
Q 353 884 353 1716 
Q 353 2575 817 3079 
Q 1281 3584 2069 3584 
Q 2775 3584 3186 3129 
Q 3597 2675 3597 1894 
z
M 3022 2063 
Q 3016 2534 2758 2815 
Q 2500 3097 2075 3097 
Q 1594 3097 1305 2825 
Q 1016 2553 972 2059 
L 3022 2063 
z
" transform="scale(0.015625)"/>
       <path id="DejaVuSans-64" d="M 2906 2969 
L 2906 4863 
L 3481 4863 
L 3481 0 
L 2906 0 
L 2906 525 
Q 2725 213 2448 61 
Q 2172 -91 1784 -91 
Q 1150 -91 751 415 
Q 353 922 353 1747 
Q 353 2572 751 3078 
Q 1150 3584 1784 3584 
Q 2172 3584 2448 3432 
Q 2725 3281 2906 2969 
z
M 947 1747 
Q 947 1113 1208 752 
Q 1469 391 1925 391 
Q 2381 391 2643 752 
Q 2906 1113 2906 1747 
Q 2906 2381 2643 2742 
Q 2381 3103 1925 3103 
Q 1469 3103 1208 2742 
Q 947 2381 947 1747 
z
" transform="scale(0.015625)"/>
       <path id="DejaVuSans-49" d="M 628 4666 
L 1259 4666 
L 1259 0 
L 628 0 
L 628 4666 
z
" transform="scale(0.015625)"/>
       <path id="DejaVuSans-54" d="M -19 4666 
L 3928 4666 
L 3928 4134 
L 2272 4134 
L 2272 0 
L 1638 0 
L 1638 4134 
L -19 4134 
L -19 4666 
z
" transform="scale(0.015625)"/>
       <path id="DejaVuSans-43" d="M 4122 4306 
L 4122 3641 
Q 3803 3938 3442 4084 
Q 3081 4231 2675 4231 
Q 1875 4231 1450 3742 
Q 1025 3253 1025 2328 
Q 1025 1406 1450 917 
Q 1875 428 2675 428 
Q 3081 428 3442 575 
Q 3803 722 4122 1019 
L 4122 359 
Q 3791 134 3420 21 
Q 3050 -91 2638 -91 
Q 1578 -91 968 557 
Q 359 1206 359 2328 
Q 359 3453 968 4101 
Q 1578 4750 2638 4750 
Q 3056 4750 3426 4639 
Q 3797 4528 4122 4306 
z
" transform="scale(0.015625)"/>
       <path id="DejaVuSans-50" d="M 1259 4147 
L 1259 2394 
L 2053 2394 
Q 2494 2394 2734 2622 
Q 2975 2850 2975 3272 
Q 2975 3691 2734 3919 
Q 2494 4147 2053 4147 
L 1259 4147 
z
M 628 4666 
L 2053 4666 
Q 2838 4666 3239 4311 
Q 3641 3956 3641 3272 
Q 3641 2581 3239 2228 
Q 2838 1875 2053 1875 
L 1259 1875 
L 1259 0 
L 628 0 
L 628 4666 
z
" transform="scale(0.015625)"/>
       <path id="DejaVuSans-45" d="M 628 4666 
L 3578 4666 
L 3578 4134 
L 1259 4134 
L 1259 2753 
L 3481 2753 
L 3481 2222 
L 1259 2222 
L 1259 531 
L 3634 531 
L 3634 0 
L 628 0 
L 628 4666 
z
" transform="scale(0.015625)"/>
       <path id="DejaVuSans-58" d="M 403 4666 
L 1081 4666 
L 2241 2931 
L 3406 4666 
L 4084 4666 
L 2584 2425 
L 4184 0 
L 3506 0 
L 2194 1984 
L 872 0 
L 191 0 
L 1856 2491 
L 403 4666 
z
" transform="scale(0.015625)"/>
       <path id="DejaVuSans-28" d="M 1984 4856 
Q 1566 4138 1362 3434 
Q 1159 2731 1159 2009 
Q 1159 1288 1364 580 
Q 1569 -128 1984 -844 
L 1484 -844 
Q 1016 -109 783 600 
Q 550 1309 550 2009 
Q 550 2706 781 3412 
Q 1013 4119 1484 4856 
L 1984 4856 
z
" transform="scale(0.015625)"/>
       <path id="DejaVuSans-79" d="M 2059 -325 
Q 1816 -950 1584 -1140 
Q 1353 -1331 966 -1331 
L 506 -1331 
L 506 -850 
L 844 -850 
Q 1081 -850 1212 -737 
Q 1344 -625 1503 -206 
L 1606 56 
L 191 3500 
L 800 3500 
L 1894 763 
L 2988 3500 
L 3597 3500 
L 2059 -325 
z
" transform="scale(0.015625)"/>
       <path id="DejaVuSans-72" d="M 2631 2963 
Q 2534 3019 2420 3045 
Q 2306 3072 2169 3072 
Q 1681 3072 1420 2755 
Q 1159 2438 1159 1844 
L 1159 0 
L 581 0 
L 581 3500 
L 1159 3500 
L 1159 2956 
Q 1341 3275 1631 3429 
Q 1922 3584 2338 3584 
Q 2397 3584 2469 3576 
Q 2541 3569 2628 3553 
L 2631 2963 
z
" transform="scale(0.015625)"/>
       <path id="DejaVuSans-29" d="M 513 4856 
L 1013 4856 
Q 1481 4119 1714 3412 
Q 1947 2706 1947 2009 
Q 1947 1309 1714 600 
Q 1481 -109 1013 -844 
L 513 -844 
Q 928 -128 1133 580 
Q 1338 1288 1338 2009 
Q 1338 2731 1133 3434 
Q 928 4138 513 4856 
z
" transform="scale(0.015625)"/>
      </defs>
      <use xlink:href="#DejaVuSans-41"/>
      <use xlink:href="#DejaVuSans-6e" transform="translate(68.408203 0)"/>
      <use xlink:href="#DejaVuSans-6e" transform="translate(131.787109 0)"/>
      <use xlink:href="#DejaVuSans-75" transform="translate(195.166016 0)"/>
      <use xlink:href="#DejaVuSans-61" transform="translate(258.544922 0)"/>
      <use xlink:href="#DejaVuSans-6c" transform="translate(319.824219 0)"/>
      <use xlink:href="#DejaVuSans-69" transform="translate(347.607422 0)"/>
      <use xlink:href="#DejaVuSans-7a" transform="translate(375.390625 0)"/>
      <use xlink:href="#DejaVuSans-65" transform="translate(427.880859 0)"/>
      <use xlink:href="#DejaVuSans-64" transform="translate(489.404297 0)"/>
      <use xlink:href="#DejaVuSans-20" transform="translate(552.880859 0)"/>
      <use xlink:href="#DejaVuSans-49" transform="translate(584.667969 0)"/>
      <use xlink:href="#DejaVuSans-54" transform="translate(614.160156 0)"/>
      <use xlink:href="#DejaVuSans-20" transform="translate(675.244141 0)"/>
      <use xlink:href="#DejaVuSans-43" transform="translate(707.03125 0)"/>
      <use xlink:href="#DejaVuSans-41" transform="translate(776.855469 0)"/>
      <use xlink:href="#DejaVuSans-50" transform="translate(845.263672 0)"/>
      <use xlink:href="#DejaVuSans-45" transform="translate(905.566406 0)"/>
      <use xlink:href="#DejaVuSans-58" transform="translate(968.75 0)"/>
      <use xlink:href="#DejaVuSans-20" transform="translate(1037.255859 0)"/>
      <use xlink:href="#DejaVuSans-28" transform="translate(1069.042969 0)"/>
      <use xlink:href="#DejaVuSans-35" transform="translate(1108.056641 0)"/>
      <use xlink:href="#DejaVuSans-79" transform="translate(1171.679688 0)"/>
      <use xlink:href="#DejaVuSans-72" transform="translate(1230.859375 0)"/>
      <use xlink:href="#DejaVuSans-29" transform="translate(1271.972656 0)"/>
     </g>
    </g>
    <g id="patch_27">
     <path d="M 58.80125 73.001875 
L 80.80125 73.001875 
L 80.80125 65.301875 
L 58.80125 65.301875 
z
" style="fill: #73b3d8; stroke: #ffffff; stroke-width: 0.5; stroke-linejoin: miter"/>
    </g>
    <g id="text_25">
     <!-- Annualized Facility CAPEX (20yr) -->
     <g transform="translate(89.60125 73.001875) scale(0.11 -0.11)">
      <defs>
       <path id="DejaVuSans-46" d="M 628 4666 
L 3309 4666 
L 3309 4134 
L 1259 4134 
L 1259 2759 
L 3109 2759 
L 3109 2228 
L 1259 2228 
L 1259 0 
L 628 0 
L 628 4666 
z
" transform="scale(0.015625)"/>
       <path id="DejaVuSans-63" d="M 3122 3366 
L 3122 2828 
Q 2878 2963 2633 3030 
Q 2388 3097 2138 3097 
Q 1578 3097 1268 2742 
Q 959 2388 959 1747 
Q 959 1106 1268 751 
Q 1578 397 2138 397 
Q 2388 397 2633 464 
Q 2878 531 3122 666 
L 3122 134 
Q 2881 22 2623 -34 
Q 2366 -91 2075 -91 
Q 1284 -91 818 406 
Q 353 903 353 1747 
Q 353 2603 823 3093 
Q 1294 3584 2113 3584 
Q 2378 3584 2631 3529 
Q 2884 3475 3122 3366 
z
" transform="scale(0.015625)"/>
       <path id="DejaVuSans-74" d="M 1172 4494 
L 1172 3500 
L 2356 3500 
L 2356 3053 
L 1172 3053 
L 1172 1153 
Q 1172 725 1289 603 
Q 1406 481 1766 481 
L 2356 481 
L 2356 0 
L 1766 0 
Q 1100 0 847 248 
Q 594 497 594 1153 
L 594 3053 
L 172 3053 
L 172 3500 
L 594 3500 
L 594 4494 
L 1172 4494 
z
" transform="scale(0.015625)"/>
      </defs>
      <use xlink:href="#DejaVuSans-41"/>
      <use xlink:href="#DejaVuSans-6e" transform="translate(68.408203 0)"/>
      <use xlink:href="#DejaVuSans-6e" transform="translate(131.787109 0)"/>
      <use xlink:href="#DejaVuSans-75" transform="translate(195.166016 0)"/>
      <use xlink:href="#DejaVuSans-61" transform="translate(258.544922 0)"/>
      <use xlink:href="#DejaVuSans-6c" transform="translate(319.824219 0)"/>
      <use xlink:href="#DejaVuSans-69" transform="translate(347.607422 0)"/>
      <use xlink:href="#DejaVuSans-7a" transform="translate(375.390625 0)"/>
      <use xlink:href="#DejaVuSans-65" transform="translate(427.880859 0)"/>
      <use xlink:href="#DejaVuSans-64" transform="translate(489.404297 0)"/>
      <use xlink:href="#DejaVuSans-20" transform="translate(552.880859 0)"/>
      <use xlink:href="#DejaVuSans-46" transform="translate(584.667969 0)"/>
      <use xlink:href="#DejaVuSans-61" transform="translate(633.0625 0)"/>
      <use xlink:href="#DejaVuSans-63" transform="translate(694.341797 0)"/>
      <use xlink:href="#DejaVuSans-69" transform="translate(749.322266 0)"/>
      <use xlink:href="#DejaVuSans-6c" transform="translate(777.105469 0)"/>
      <use xlink:href="#DejaVuSans-69" transform="translate(804.888672 0)"/>
      <use xlink:href="#DejaVuSans-74" transform="translate(832.671875 0)"/>
      <use xlink:href="#DejaVuSans-79" transform="translate(871.880859 0)"/>
      <use xlink:href="#DejaVuSans-20" transform="translate(931.060547 0)"/>
      <use xlink:href="#DejaVuSans-43" transform="translate(962.847656 0)"/>
      <use xlink:href="#DejaVuSans-41" transform="translate(1032.671875 0)"/>
      <use xlink:href="#DejaVuSans-50" transform="translate(1101.080078 0)"/>
      <use xlink:href="#DejaVuSans-45" transform="translate(1161.382812 0)"/>
      <use xlink:href="#DejaVuSans-58" transform="translate(1224.566406 0)"/>
      <use xlink:href="#DejaVuSans-20" transform="translate(1293.072266 0)"/>
      <use xlink:href="#DejaVuSans-28" transform="translate(1324.859375 0)"/>
      <use xlink:href="#DejaVuSans-32" transform="translate(1363.873047 0)"/>
      <use xlink:href="#DejaVuSans-30" transform="translate(1427.496094 0)"/>
      <use xlink:href="#DejaVuSans-79" transform="translate(1491.119141 0)"/>
      <use xlink:href="#DejaVuSans-72" transform="translate(1550.298828 0)"/>
      <use xlink:href="#DejaVuSans-29" transform="translate(1591.412109 0)"/>
     </g>
    </g>
    <g id="patch_28">
     <path d="M 58.80125 89.147813 
L 80.80125 89.147813 
L 80.80125 81.447813 
L 58.80125 81.447813 
z
" style="fill: #c8ddf0; stroke: #ffffff; stroke-width: 0.5; stroke-linejoin: miter"/>
    </g>
    <g id="text_26">
     <!-- Fixed OPEX -->
     <g transform="translate(89.60125 89.147813) scale(0.11 -0.11)">
      <defs>
       <path id="DejaVuSans-78" d="M 3513 3500 
L 2247 1797 
L 3578 0 
L 2900 0 
L 1881 1375 
L 863 0 
L 184 0 
L 1544 1831 
L 300 3500 
L 978 3500 
L 1906 2253 
L 2834 3500 
L 3513 3500 
z
" transform="scale(0.015625)"/>
       <path id="DejaVuSans-4f" d="M 2522 4238 
Q 1834 4238 1429 3725 
Q 1025 3213 1025 2328 
Q 1025 1447 1429 934 
Q 1834 422 2522 422 
Q 3209 422 3611 934 
Q 4013 1447 4013 2328 
Q 4013 3213 3611 3725 
Q 3209 4238 2522 4238 
z
M 2522 4750 
Q 3503 4750 4090 4092 
Q 4678 3434 4678 2328 
Q 4678 1225 4090 567 
Q 3503 -91 2522 -91 
Q 1538 -91 948 565 
Q 359 1222 359 2328 
Q 359 3434 948 4092 
Q 1538 4750 2522 4750 
z
" transform="scale(0.015625)"/>
      </defs>
      <use xlink:href="#DejaVuSans-46"/>
      <use xlink:href="#DejaVuSans-69" transform="translate(50.269531 0)"/>
      <use xlink:href="#DejaVuSans-78" transform="translate(78.052734 0)"/>
      <use xlink:href="#DejaVuSans-65" transform="translate(134.107422 0)"/>
      <use xlink:href="#DejaVuSans-64" transform="translate(195.630859 0)"/>
      <use xlink:href="#DejaVuSans-20" transform="translate(259.107422 0)"/>
      <use xlink:href="#DejaVuSans-4f" transform="translate(290.894531 0)"/>
      <use xlink:href="#DejaVuSans-50" transform="translate(369.605469 0)"/>
      <use xlink:href="#DejaVuSans-45" transform="translate(429.908203 0)"/>
      <use xlink:href="#DejaVuSans-58" transform="translate(493.091797 0)"/>
     </g>
    </g>
   </g>
  </g>
 </g>
 <defs>
  <clipPath id="pf404d77775">
   <rect x="48.90125" y="38.597656" width="656.275" height="345.9"/>
  </clipPath>
 </defs>
</svg>
