<?xml version="1.0" encoding="utf-8" standalone="no"?>
<!DOCTYPE svg PUBLIC "-//W3C//DTD SVG 1.1//EN"
  "http://www.w3.org/Graphics/SVG/1.1/DTD/svg11.dtd">
<svg xmlns:xlink="http://www.w3.org/1999/xlink" width="856.544375pt" height="309.138125pt" viewBox="0 0 856.544375 309.138125" xmlns="http://www.w3.org/2000/svg" version="1.1">
 <metadata>
  <rdf:RDF xmlns:dc="http://purl.org/dc/elements/1.1/" xmlns:cc="http://creativecommons.org/ns#" xmlns:rdf="http://www.w3.org/1999/02/22-rdf-syntax-ns#">
   <cc:Work>
    <dc:type rdf:resource="http://purl.org/dc/dcmitype/StillImage"/>
    <dc:date>2026-06-22T16:24:43.966552</dc:date>
    <dc:format>image/svg+xml</dc:format>
    <dc:creator>
     <cc:Agent>
      <dc:title>Matplotlib v3.10.8, https://matplotlib.org/</dc:title>
     </cc:Agent>
    </dc:creator>
   </cc:Work>
  </rdf:RDF>
 </metadata>
 <defs>
  <style type="text/css">*{stroke-linejoin: round; stroke-linecap: butt}</style>
 </defs>
 <g id="figure_1">
  <g id="patch_1">
   <path d="M 0 309.138125 
L 856.544375 309.138125 
L 856.544375 0 
L 0 0 
z
" style="fill: #ffffff"/>
  </g>
  <g id="axes_1">
   <g id="patch_2">
    <path d="M 40.384375 242.438125 
L 300.504375 242.438125 
L 300.504375 26.318125 
L 40.384375 26.318125 
z
" style="fill: #ffffff"/>
   </g>
   <g id="matplotlib.axis_1">
    <g id="xtick_1">
     <g id="line2d_1">
      <path d="M 43.499585 242.438125 
L 43.499585 26.318125 
" clip-path="url(#p51f447b59f)" style="fill: none; stroke-dasharray: 2.96,1.28; stroke-dashoffset: 0; stroke: #b0b0b0; stroke-opacity: 0.3; stroke-width: 0.8"/>
     </g>
     <g id="line2d_2">
      <defs>
       <path id="me546a879b0" d="M 0 0 
L 0 3.5 
" style="stroke: #333333; stroke-width: 0.8"/>
      </defs>
      <g>
       <use xlink:href="#me546a879b0" x="43.499585" y="242.438125" style="fill: #333333; stroke: #333333; stroke-width: 0.8"/>
      </g>
     </g>
     <g id="text_1">
      <!-- 0 -->
      <g style="fill: #333333" transform="translate(40.63646 256.276719) scale(0.09 -0.09)">
       <defs>
        <path id="DejaVuSans-30" d="M 2034 4250 
Q 1547 4250 1301 3770 
Q 1056 3291 1056 2328 
Q 1056 1369 1301 889 
Q 1547 409 2034 409 
Q 2525 409 2770 889 
Q 3016 1369 3016 2328 
Q 3016 3291 2770 3770 
Q 2525 4250 2034 4250 
z
M 2034 4750 
Q 2819 4750 3233 4129 
Q 3647 3509 3647 2328 
Q 3647 1150 3233 529 
Q 2819 -91 2034 -91 
Q 1250 -91 836 529 
Q 422 1150 422 2328 
Q 422 3509 836 4129 
Q 1250 4750 2034 4750 
z
" transform="scale(0.015625)"/>
       </defs>
       <use xlink:href="#DejaVuSans-30"/>
      </g>
     </g>
    </g>
    <g id="xtick_2">
     <g id="line2d_3">
      <path d="M 105.803776 242.438125 
L 105.803776 26.318125 
" clip-path="url(#p51f447b59f)" style="fill: none; stroke-dasharray: 2.96,1.28; stroke-dashoffset: 0; stroke: #b0b0b0; stroke-opacity: 0.3; stroke-width: 0.8"/>
     </g>
     <g id="line2d_4">
      <g>
       <use xlink:href="#me546a879b0" x="105.803776" y="242.438125" style="fill: #333333; stroke: #333333; stroke-width: 0.8"/>
      </g>
     </g>
     <g id="text_2">
      <!-- 4 -->
      <g style="fill: #333333" transform="translate(102.940651 256.276719) scale(0.09 -0.09)">
       <defs>
        <path id="DejaVuSans-34" d="M 2419 4116 
L 825 1625 
L 2419 1625 
L 2419 4116 
z
M 2253 4666 
L 3047 4666 
L 3047 1625 
L 3713 1625 
L 3713 1100 
L 3047 1100 
L 3047 0 
L 2419 0 
L 2419 1100 
L 313 1100 
L 313 1709 
L 2253 4666 
z
" transform="scale(0.015625)"/>
       </defs>
       <use xlink:href="#DejaVuSans-34"/>
      </g>
     </g>
    </g>
    <g id="xtick_3">
     <g id="line2d_5">
      <path d="M 168.107968 242.438125 
L 168.107968 26.318125 
" clip-path="url(#p51f447b59f)" style="fill: none; stroke-dasharray: 2.96,1.28; stroke-dashoffset: 0; stroke: #b0b0b0; stroke-opacity: 0.3; stroke-width: 0.8"/>
     </g>
     <g id="line2d_6">
      <g>
       <use xlink:href="#me546a879b0" x="168.107968" y="242.438125" style="fill: #333333; stroke: #333333; stroke-width: 0.8"/>
      </g>
     </g>
     <g id="text_3">
      <!-- 8 -->
      <g style="fill: #333333" transform="translate(165.244843 256.276719) scale(0.09 -0.09)">
       <defs>
        <path id="DejaVuSans-38" d="M 2034 2216 
Q 1584 2216 1326 1975 
Q 1069 1734 1069 1313 
Q 1069 891 1326 650 
Q 1584 409 2034 409 
Q 2484 409 2743 651 
Q 3003 894 3003 1313 
Q 3003 1734 2745 1975 
Q 2488 2216 2034 2216 
z
M 1403 2484 
Q 997 2584 770 2862 
Q 544 3141 544 3541 
Q 544 4100 942 4425 
Q 1341 4750 2034 4750 
Q 2731 4750 3128 4425 
Q 3525 4100 3525 3541 
Q 3525 3141 3298 2862 
Q 3072 2584 2669 2484 
Q 3125 2378 3379 2068 
Q 3634 1759 3634 1313 
Q 3634 634 3220 271 
Q 2806 -91 2034 -91 
Q 1263 -91 848 271 
Q 434 634 434 1313 
Q 434 1759 690 2068 
Q 947 2378 1403 2484 
z
M 1172 3481 
Q 1172 3119 1398 2916 
Q 1625 2713 2034 2713 
Q 2441 2713 2670 2916 
Q 2900 3119 2900 3481 
Q 2900 3844 2670 4047 
Q 2441 4250 2034 4250 
Q 1625 4250 1398 4047 
Q 1172 3844 1172 3481 
z
" transform="scale(0.015625)"/>
       </defs>
       <use xlink:href="#DejaVuSans-38"/>
      </g>
     </g>
    </g>
    <g id="xtick_4">
     <g id="line2d_7">
      <path d="M 230.412159 242.438125 
L 230.412159 26.318125 
" clip-path="url(#p51f447b59f)" style="fill: none; stroke-dasharray: 2.96,1.28; stroke-dashoffset: 0; stroke: #b0b0b0; stroke-opacity: 0.3; stroke-width: 0.8"/>
     </g>
     <g id="line2d_8">
      <g>
       <use xlink:href="#me546a879b0" x="230.412159" y="242.438125" style="fill: #333333; stroke: #333333; stroke-width: 0.8"/>
      </g>
     </g>
     <g id="text_4">
      <!-- 12 -->
      <g style="fill: #333333" transform="translate(224.685909 256.276719) scale(0.09 -0.09)">
       <defs>
        <path id="DejaVuSans-31" d="M 794 531 
L 1825 531 
L 1825 4091 
L 703 3866 
L 703 4441 
L 1819 4666 
L 2450 4666 
L 2450 531 
L 3481 531 
L 3481 0 
L 794 0 
L 794 531 
z
" transform="scale(0.015625)"/>
        <path id="DejaVuSans-32" d="M 1228 531 
L 3431 531 
L 3431 0 
L 469 0 
L 469 531 
Q 828 903 1448 1529 
Q 2069 2156 2228 2338 
Q 2531 2678 2651 2914 
Q 2772 3150 2772 3378 
Q 2772 3750 2511 3984 
Q 2250 4219 1831 4219 
Q 1534 4219 1204 4116 
Q 875 4013 500 3803 
L 500 4441 
Q 881 4594 1212 4672 
Q 1544 4750 1819 4750 
Q 2544 4750 2975 4387 
Q 3406 4025 3406 3419 
Q 3406 3131 3298 2873 
Q 3191 2616 2906 2266 
Q 2828 2175 2409 1742 
Q 1991 1309 1228 531 
z
" transform="scale(0.015625)"/>
       </defs>
       <use xlink:href="#DejaVuSans-31"/>
       <use xlink:href="#DejaVuSans-32" transform="translate(63.623047 0)"/>
      </g>
     </g>
    </g>
    <g id="xtick_5">
     <g id="line2d_9">
      <path d="M 292.716351 242.438125 
L 292.716351 26.318125 
" clip-path="url(#p51f447b59f)" style="fill: none; stroke-dasharray: 2.96,1.28; stroke-dashoffset: 0; stroke: #b0b0b0; stroke-opacity: 0.3; stroke-width: 0.8"/>
     </g>
     <g id="line2d_10">
      <g>
       <use xlink:href="#me546a879b0" x="292.716351" y="242.438125" style="fill: #333333; stroke: #333333; stroke-width: 0.8"/>
      </g>
     </g>
     <g id="text_5">
      <!-- 16 -->
      <g style="fill: #333333" transform="translate(286.990101 256.276719) scale(0.09 -0.09)">
       <defs>
        <path id="DejaVuSans-36" d="M 2113 2584 
Q 1688 2584 1439 2293 
Q 1191 2003 1191 1497 
Q 1191 994 1439 701 
Q 1688 409 2113 409 
Q 2538 409 2786 701 
Q 3034 994 3034 1497 
Q 3034 2003 2786 2293 
Q 2538 2584 2113 2584 
z
M 3366 4563 
L 3366 3988 
Q 3128 4100 2886 4159 
Q 2644 4219 2406 4219 
Q 1781 4219 1451 3797 
Q 1122 3375 1075 2522 
Q 1259 2794 1537 2939 
Q 1816 3084 2150 3084 
Q 2853 3084 3261 2657 
Q 3669 2231 3669 1497 
Q 3669 778 3244 343 
Q 2819 -91 2113 -91 
Q 1303 -91 875 529 
Q 447 1150 447 2328 
Q 447 3434 972 4092 
Q 1497 4750 2381 4750 
Q 2619 4750 2861 4703 
Q 3103 4656 3366 4563 
z
" transform="scale(0.015625)"/>
       </defs>
       <use xlink:href="#DejaVuSans-31"/>
       <use xlink:href="#DejaVuSans-36" transform="translate(63.623047 0)"/>
      </g>
     </g>
    </g>
    <g id="text_6">
     <!-- Tier B1 Capacity (MW) -->
     <g style="fill: #444444" transform="translate(101.277578 270.506719) scale(0.11 -0.11)">
      <defs>
       <path id="DejaVuSans-Bold-54" d="M 31 4666 
L 4331 4666 
L 4331 3756 
L 2784 3756 
L 2784 0 
L 1581 0 
L 1581 3756 
L 31 3756 
L 31 4666 
z
" transform="scale(0.015625)"/>
       <path id="DejaVuSans-Bold-69" d="M 538 3500 
L 1656 3500 
L 1656 0 
L 538 0 
L 538 3500 
z
M 538 4863 
L 1656 4863 
L 1656 3950 
L 538 3950 
L 538 4863 
z
" transform="scale(0.015625)"/>
       <path id="DejaVuSans-Bold-65" d="M 4031 1759 
L 4031 1441 
L 1416 1441 
Q 1456 1047 1700 850 
Q 1944 653 2381 653 
Q 2734 653 3104 758 
Q 3475 863 3866 1075 
L 3866 213 
Q 3469 63 3072 -14 
Q 2675 -91 2278 -91 
Q 1328 -91 801 392 
Q 275 875 275 1747 
Q 275 2603 792 3093 
Q 1309 3584 2216 3584 
Q 3041 3584 3536 3087 
Q 4031 2591 4031 1759 
z
M 2881 2131 
Q 2881 2450 2695 2645 
Q 2509 2841 2209 2841 
Q 1884 2841 1681 2658 
Q 1478 2475 1428 2131 
L 2881 2131 
z
" transform="scale(0.015625)"/>
       <path id="DejaVuSans-Bold-72" d="M 3138 2547 
Q 2991 2616 2845 2648 
Q 2700 2681 2553 2681 
Q 2122 2681 1889 2404 
Q 1656 2128 1656 1613 
L 1656 0 
L 538 0 
L 538 3500 
L 1656 3500 
L 1656 2925 
Q 1872 3269 2151 3426 
Q 2431 3584 2822 3584 
Q 2878 3584 2943 3579 
Q 3009 3575 3134 3559 
L 3138 2547 
z
" transform="scale(0.015625)"/>
       <path id="DejaVuSans-Bold-20" transform="scale(0.015625)"/>
       <path id="DejaVuSans-Bold-42" d="M 2456 2859 
Q 2741 2859 2887 2984 
Q 3034 3109 3034 3353 
Q 3034 3594 2887 3720 
Q 2741 3847 2456 3847 
L 1791 3847 
L 1791 2859 
L 2456 2859 
z
M 2497 819 
Q 2859 819 3042 972 
Q 3225 1125 3225 1434 
Q 3225 1738 3044 1889 
Q 2863 2041 2497 2041 
L 1791 2041 
L 1791 819 
L 2497 819 
z
M 3616 2497 
Q 4003 2384 4215 2081 
Q 4428 1778 4428 1338 
Q 4428 663 3972 331 
Q 3516 0 2584 0 
L 588 0 
L 588 4666 
L 2394 4666 
Q 3366 4666 3802 4372 
Q 4238 4078 4238 3431 
Q 4238 3091 4078 2852 
Q 3919 2613 3616 2497 
z
" transform="scale(0.015625)"/>
       <path id="DejaVuSans-Bold-31" d="M 750 831 
L 1813 831 
L 1813 3847 
L 722 3622 
L 722 4441 
L 1806 4666 
L 2950 4666 
L 2950 831 
L 4013 831 
L 4013 0 
L 750 0 
L 750 831 
z
" transform="scale(0.015625)"/>
       <path id="DejaVuSans-Bold-43" d="M 4288 256 
Q 3956 84 3597 -3 
Q 3238 -91 2847 -91 
Q 1681 -91 1000 561 
Q 319 1213 319 2328 
Q 319 3447 1000 4098 
Q 1681 4750 2847 4750 
Q 3238 4750 3597 4662 
Q 3956 4575 4288 4403 
L 4288 3438 
Q 3953 3666 3628 3772 
Q 3303 3878 2944 3878 
Q 2300 3878 1931 3465 
Q 1563 3053 1563 2328 
Q 1563 1606 1931 1193 
Q 2300 781 2944 781 
Q 3303 781 3628 887 
Q 3953 994 4288 1222 
L 4288 256 
z
" transform="scale(0.015625)"/>
       <path id="DejaVuSans-Bold-61" d="M 2106 1575 
Q 1756 1575 1579 1456 
Q 1403 1338 1403 1106 
Q 1403 894 1545 773 
Q 1688 653 1941 653 
Q 2256 653 2472 879 
Q 2688 1106 2688 1447 
L 2688 1575 
L 2106 1575 
z
M 3816 1997 
L 3816 0 
L 2688 0 
L 2688 519 
Q 2463 200 2181 54 
Q 1900 -91 1497 -91 
Q 953 -91 614 226 
Q 275 544 275 1050 
Q 275 1666 698 1953 
Q 1122 2241 2028 2241 
L 2688 2241 
L 2688 2328 
Q 2688 2594 2478 2717 
Q 2269 2841 1825 2841 
Q 1466 2841 1156 2769 
Q 847 2697 581 2553 
L 581 3406 
Q 941 3494 1303 3539 
Q 1666 3584 2028 3584 
Q 2975 3584 3395 3211 
Q 3816 2838 3816 1997 
z
" transform="scale(0.015625)"/>
       <path id="DejaVuSans-Bold-70" d="M 1656 506 
L 1656 -1331 
L 538 -1331 
L 538 3500 
L 1656 3500 
L 1656 2988 
Q 1888 3294 2169 3439 
Q 2450 3584 2816 3584 
Q 3463 3584 3878 3070 
Q 4294 2556 4294 1747 
Q 4294 938 3878 423 
Q 3463 -91 2816 -91 
Q 2450 -91 2169 54 
Q 1888 200 1656 506 
z
M 2400 2772 
Q 2041 2772 1848 2508 
Q 1656 2244 1656 1747 
Q 1656 1250 1848 986 
Q 2041 722 2400 722 
Q 2759 722 2948 984 
Q 3138 1247 3138 1747 
Q 3138 2247 2948 2509 
Q 2759 2772 2400 2772 
z
" transform="scale(0.015625)"/>
       <path id="DejaVuSans-Bold-63" d="M 3366 3391 
L 3366 2478 
Q 3138 2634 2908 2709 
Q 2678 2784 2431 2784 
Q 1963 2784 1702 2511 
Q 1441 2238 1441 1747 
Q 1441 1256 1702 982 
Q 1963 709 2431 709 
Q 2694 709 2930 787 
Q 3166 866 3366 1019 
L 3366 103 
Q 3103 6 2833 -42 
Q 2563 -91 2291 -91 
Q 1344 -91 809 395 
Q 275 881 275 1747 
Q 275 2613 809 3098 
Q 1344 3584 2291 3584 
Q 2566 3584 2833 3536 
Q 3100 3488 3366 3391 
z
" transform="scale(0.015625)"/>
       <path id="DejaVuSans-Bold-74" d="M 1759 4494 
L 1759 3500 
L 2913 3500 
L 2913 2700 
L 1759 2700 
L 1759 1216 
Q 1759 972 1856 886 
Q 1953 800 2241 800 
L 2816 800 
L 2816 0 
L 1856 0 
Q 1194 0 917 276 
Q 641 553 641 1216 
L 641 2700 
L 84 2700 
L 84 3500 
L 641 3500 
L 641 4494 
L 1759 4494 
z
" transform="scale(0.015625)"/>
       <path id="DejaVuSans-Bold-79" d="M 78 3500 
L 1197 3500 
L 2138 1125 
L 2938 3500 
L 4056 3500 
L 2584 -331 
Q 2363 -916 2067 -1148 
Q 1772 -1381 1288 -1381 
L 641 -1381 
L 641 -647 
L 991 -647 
Q 1275 -647 1404 -556 
Q 1534 -466 1606 -231 
L 1638 -134 
L 78 3500 
z
" transform="scale(0.015625)"/>
       <path id="DejaVuSans-Bold-28" d="M 2413 -844 
L 1484 -844 
Q 1006 -72 778 623 
Q 550 1319 550 2003 
Q 550 2688 779 3389 
Q 1009 4091 1484 4856 
L 2413 4856 
Q 2013 4116 1813 3408 
Q 1613 2700 1613 2009 
Q 1613 1319 1811 609 
Q 2009 -100 2413 -844 
z
" transform="scale(0.015625)"/>
       <path id="DejaVuSans-Bold-4d" d="M 588 4666 
L 2119 4666 
L 3181 2169 
L 4250 4666 
L 5778 4666 
L 5778 0 
L 4641 0 
L 4641 3413 
L 3566 897 
L 2803 897 
L 1728 3413 
L 1728 0 
L 588 0 
L 588 4666 
z
" transform="scale(0.015625)"/>
       <path id="DejaVuSans-Bold-57" d="M 191 4666 
L 1344 4666 
L 2150 1275 
L 2950 4666 
L 4109 4666 
L 4909 1275 
L 5716 4666 
L 6859 4666 
L 5759 0 
L 4372 0 
L 3525 3547 
L 2688 0 
L 1300 0 
L 191 4666 
z
" transform="scale(0.015625)"/>
       <path id="DejaVuSans-Bold-29" d="M 513 -844 
Q 913 -100 1113 609 
Q 1313 1319 1313 2009 
Q 1313 2700 1113 3408 
Q 913 4116 513 4856 
L 1441 4856 
Q 1916 4091 2145 3389 
Q 2375 2688 2375 2003 
Q 2375 1319 2147 623 
Q 1919 -72 1441 -844 
L 513 -844 
z
" transform="scale(0.015625)"/>
      </defs>
      <use xlink:href="#DejaVuSans-Bold-54"/>
      <use xlink:href="#DejaVuSans-Bold-69" transform="translate(68.212891 0)"/>
      <use xlink:href="#DejaVuSans-Bold-65" transform="translate(102.490234 0)"/>
      <use xlink:href="#DejaVuSans-Bold-72" transform="translate(170.3125 0)"/>
      <use xlink:href="#DejaVuSans-Bold-20" transform="translate(219.628906 0)"/>
      <use xlink:href="#DejaVuSans-Bold-42" transform="translate(254.443359 0)"/>
      <use xlink:href="#DejaVuSans-Bold-31" transform="translate(330.664062 0)"/>
      <use xlink:href="#DejaVuSans-Bold-20" transform="translate(400.244141 0)"/>
      <use xlink:href="#DejaVuSans-Bold-43" transform="translate(435.058594 0)"/>
      <use xlink:href="#DejaVuSans-Bold-61" transform="translate(508.447266 0)"/>
      <use xlink:href="#DejaVuSans-Bold-70" transform="translate(575.927734 0)"/>
      <use xlink:href="#DejaVuSans-Bold-61" transform="translate(647.509766 0)"/>
      <use xlink:href="#DejaVuSans-Bold-63" transform="translate(714.990234 0)"/>
      <use xlink:href="#DejaVuSans-Bold-69" transform="translate(774.267578 0)"/>
      <use xlink:href="#DejaVuSans-Bold-74" transform="translate(808.544922 0)"/>
      <use xlink:href="#DejaVuSans-Bold-79" transform="translate(856.347656 0)"/>
      <use xlink:href="#DejaVuSans-Bold-20" transform="translate(921.533203 0)"/>
      <use xlink:href="#DejaVuSans-Bold-28" transform="translate(956.347656 0)"/>
      <use xlink:href="#DejaVuSans-Bold-4d" transform="translate(1002.050781 0)"/>
      <use xlink:href="#DejaVuSans-Bold-57" transform="translate(1101.5625 0)"/>
      <use xlink:href="#DejaVuSans-Bold-29" transform="translate(1211.865234 0)"/>
     </g>
    </g>
   </g>
   <g id="matplotlib.axis_2">
    <g id="ytick_1">
     <g id="line2d_11">
      <path d="M 40.384375 239.849862 
L 300.504375 239.849862 
" clip-path="url(#p51f447b59f)" style="fill: none; stroke-dasharray: 2.96,1.28; stroke-dashoffset: 0; stroke: #b0b0b0; stroke-opacity: 0.3; stroke-width: 0.8"/>
     </g>
     <g id="line2d_12">
      <defs>
       <path id="mb0f3edddb0" d="M 0 0 
L -3.5 0 
" style="stroke: #333333; stroke-width: 0.8"/>
      </defs>
      <g>
       <use xlink:href="#mb0f3edddb0" x="40.384375" y="239.849862" style="fill: #333333; stroke: #333333; stroke-width: 0.8"/>
      </g>
     </g>
     <g id="text_7">
      <!-- 0 -->
      <g style="fill: #333333" transform="translate(27.658125 243.269158) scale(0.09 -0.09)">
       <use xlink:href="#DejaVuSans-30"/>
      </g>
     </g>
    </g>
    <g id="ytick_2">
     <g id="line2d_13">
      <path d="M 40.384375 188.084592 
L 300.504375 188.084592 
" clip-path="url(#p51f447b59f)" style="fill: none; stroke-dasharray: 2.96,1.28; stroke-dashoffset: 0; stroke: #b0b0b0; stroke-opacity: 0.3; stroke-width: 0.8"/>
     </g>
     <g id="line2d_14">
      <g>
       <use xlink:href="#mb0f3edddb0" x="40.384375" y="188.084592" style="fill: #333333; stroke: #333333; stroke-width: 0.8"/>
      </g>
     </g>
     <g id="text_8">
      <!-- 4 -->
      <g style="fill: #333333" transform="translate(27.658125 191.503889) scale(0.09 -0.09)">
       <use xlink:href="#DejaVuSans-34"/>
      </g>
     </g>
    </g>
    <g id="ytick_3">
     <g id="line2d_15">
      <path d="M 40.384375 136.319323 
L 300.504375 136.319323 
" clip-path="url(#p51f447b59f)" style="fill: none; stroke-dasharray: 2.96,1.28; stroke-dashoffset: 0; stroke: #b0b0b0; stroke-opacity: 0.3; stroke-width: 0.8"/>
     </g>
     <g id="line2d_16">
      <g>
       <use xlink:href="#mb0f3edddb0" x="40.384375" y="136.319323" style="fill: #333333; stroke: #333333; stroke-width: 0.8"/>
      </g>
     </g>
     <g id="text_9">
      <!-- 8 -->
      <g style="fill: #333333" transform="translate(27.658125 139.738619) scale(0.09 -0.09)">
       <use xlink:href="#DejaVuSans-38"/>
      </g>
     </g>
    </g>
    <g id="ytick_4">
     <g id="line2d_17">
      <path d="M 40.384375 84.554053 
L 300.504375 84.554053 
" clip-path="url(#p51f447b59f)" style="fill: none; stroke-dasharray: 2.96,1.28; stroke-dashoffset: 0; stroke: #b0b0b0; stroke-opacity: 0.3; stroke-width: 0.8"/>
     </g>
     <g id="line2d_18">
      <g>
       <use xlink:href="#mb0f3edddb0" x="40.384375" y="84.554053" style="fill: #333333; stroke: #333333; stroke-width: 0.8"/>
      </g>
     </g>
     <g id="text_10">
      <!-- 12 -->
      <g style="fill: #333333" transform="translate(21.931875 87.97335) scale(0.09 -0.09)">
       <use xlink:href="#DejaVuSans-31"/>
       <use xlink:href="#DejaVuSans-32" transform="translate(63.623047 0)"/>
      </g>
     </g>
    </g>
    <g id="ytick_5">
     <g id="line2d_19">
      <path d="M 40.384375 32.788784 
L 300.504375 32.788784 
" clip-path="url(#p51f447b59f)" style="fill: none; stroke-dasharray: 2.96,1.28; stroke-dashoffset: 0; stroke: #b0b0b0; stroke-opacity: 0.3; stroke-width: 0.8"/>
     </g>
     <g id="line2d_20">
      <g>
       <use xlink:href="#mb0f3edddb0" x="40.384375" y="32.788784" style="fill: #333333; stroke: #333333; stroke-width: 0.8"/>
      </g>
     </g>
     <g id="text_11">
      <!-- 16 -->
      <g style="fill: #333333" transform="translate(21.931875 36.208081) scale(0.09 -0.09)">
       <use xlink:href="#DejaVuSans-31"/>
       <use xlink:href="#DejaVuSans-36" transform="translate(63.623047 0)"/>
      </g>
     </g>
    </g>
    <g id="text_12">
     <!-- Tier B2 Capacity (MW) -->
     <g style="fill: #444444" transform="translate(15.558281 203.544922) rotate(-90) scale(0.11 -0.11)">
      <defs>
       <path id="DejaVuSans-Bold-32" d="M 1844 884 
L 3897 884 
L 3897 0 
L 506 0 
L 506 884 
L 2209 2388 
Q 2438 2594 2547 2791 
Q 2656 2988 2656 3200 
Q 2656 3528 2436 3728 
Q 2216 3928 1850 3928 
Q 1569 3928 1234 3808 
Q 900 3688 519 3450 
L 519 4475 
Q 925 4609 1322 4679 
Q 1719 4750 2100 4750 
Q 2938 4750 3402 4381 
Q 3866 4013 3866 3353 
Q 3866 2972 3669 2642 
Q 3472 2313 2841 1759 
L 1844 884 
z
" transform="scale(0.015625)"/>
      </defs>
      <use xlink:href="#DejaVuSans-Bold-54"/>
      <use xlink:href="#DejaVuSans-Bold-69" transform="translate(68.212891 0)"/>
      <use xlink:href="#DejaVuSans-Bold-65" transform="translate(102.490234 0)"/>
      <use xlink:href="#DejaVuSans-Bold-72" transform="translate(170.3125 0)"/>
      <use xlink:href="#DejaVuSans-Bold-20" transform="translate(219.628906 0)"/>
      <use xlink:href="#DejaVuSans-Bold-42" transform="translate(254.443359 0)"/>
      <use xlink:href="#DejaVuSans-Bold-32" transform="translate(330.664062 0)"/>
      <use xlink:href="#DejaVuSans-Bold-20" transform="translate(400.244141 0)"/>
      <use xlink:href="#DejaVuSans-Bold-43" transform="translate(435.058594 0)"/>
      <use xlink:href="#DejaVuSans-Bold-61" transform="translate(508.447266 0)"/>
      <use xlink:href="#DejaVuSans-Bold-70" transform="translate(575.927734 0)"/>
      <use xlink:href="#DejaVuSans-Bold-61" transform="translate(647.509766 0)"/>
      <use xlink:href="#DejaVuSans-Bold-63" transform="translate(714.990234 0)"/>
      <use xlink:href="#DejaVuSans-Bold-69" transform="translate(774.267578 0)"/>
      <use xlink:href="#DejaVuSans-Bold-74" transform="translate(808.544922 0)"/>
      <use xlink:href="#DejaVuSans-Bold-79" transform="translate(856.347656 0)"/>
      <use xlink:href="#DejaVuSans-Bold-20" transform="translate(921.533203 0)"/>
      <use xlink:href="#DejaVuSans-Bold-28" transform="translate(956.347656 0)"/>
      <use xlink:href="#DejaVuSans-Bold-4d" transform="translate(1002.050781 0)"/>
      <use xlink:href="#DejaVuSans-Bold-57" transform="translate(1101.5625 0)"/>
      <use xlink:href="#DejaVuSans-Bold-29" transform="translate(1211.865234 0)"/>
     </g>
    </g>
   </g>
   <g id="FillBetweenPolyCollection_1">
    <defs>
     <path id="me22ab13731" d="M 43.499585 -69.288263 
L 43.499585 -69.288263 
L 43.499585 -69.288263 
L 59.075632 -69.288263 
L 74.65168 -69.288263 
L 90.227728 -69.288263 
L 105.803776 -69.288263 
L 121.379824 -69.288263 
L 136.955872 -69.288263 
L 152.53192 -69.288263 
L 168.107968 -69.288263 
L 183.684016 -69.288263 
L 199.260064 -69.288263 
L 214.836112 -69.288263 
L 230.412159 -69.288263 
L 245.988207 -69.288263 
L 261.564255 -69.288263 
L 261.564255 -69.288263 
L 261.564255 -69.288263 
L 261.564255 -69.288263 
L 261.564255 -82.229581 
L 245.988207 -95.170898 
L 230.412159 -108.112216 
L 214.836112 -121.053533 
L 199.260064 -133.99485 
L 183.684016 -146.936168 
L 168.107968 -159.877485 
L 152.53192 -172.818802 
L 136.955872 -185.76012 
L 121.379824 -198.701437 
L 105.803776 -211.642754 
L 90.227728 -224.584072 
L 74.65168 -237.525389 
L 59.075632 -263.408024 
L 43.499585 -276.349341 
L 43.499585 -69.288263 
z
" style="stroke: #8e44ad; stroke-opacity: 0.2"/>
    </defs>
    <g clip-path="url(#p51f447b59f)">
     <use xlink:href="#me22ab13731" x="0" y="309.138125" style="fill: #8e44ad; fill-opacity: 0.2; stroke: #8e44ad; stroke-opacity: 0.2"/>
    </g>
   </g>
   <g id="patch_3">
    <path d="M 40.384375 242.438125 
L 40.384375 26.318125 
" style="fill: none; stroke: #444444; stroke-width: 0.8; stroke-linejoin: miter; stroke-linecap: square"/>
   </g>
   <g id="patch_4">
    <path d="M 40.384375 242.438125 
L 300.504375 242.438125 
" style="fill: none; stroke: #444444; stroke-width: 0.8; stroke-linejoin: miter; stroke-linecap: square"/>
   </g>
   <g id="line2d_21">
    <path d="M 43.499585 32.788784 
L 292.716351 239.849862 
" clip-path="url(#p51f447b59f)" style="fill: none; stroke-dasharray: 6.66,2.88; stroke-dashoffset: 0; stroke: #8c8c8c; stroke-width: 1.8"/>
   </g>
   <g id="text_13">
    <!-- Tier A = 0 MW -->
    <g style="fill: #333333" transform="translate(122.47625 16.318125) scale(0.12 -0.12)">
     <defs>
      <path id="DejaVuSans-Bold-41" d="M 3419 850 
L 1538 850 
L 1241 0 
L 31 0 
L 1759 4666 
L 3194 4666 
L 4922 0 
L 3713 0 
L 3419 850 
z
M 1838 1716 
L 3116 1716 
L 2478 3572 
L 1838 1716 
z
" transform="scale(0.015625)"/>
      <path id="DejaVuSans-Bold-3d" d="M 678 3084 
L 4684 3084 
L 4684 2350 
L 678 2350 
L 678 3084 
z
M 678 1663 
L 4684 1663 
L 4684 922 
L 678 922 
L 678 1663 
z
" transform="scale(0.015625)"/>
      <path id="DejaVuSans-Bold-30" d="M 2944 2338 
Q 2944 3213 2780 3570 
Q 2616 3928 2228 3928 
Q 1841 3928 1675 3570 
Q 1509 3213 1509 2338 
Q 1509 1453 1675 1090 
Q 1841 728 2228 728 
Q 2613 728 2778 1090 
Q 2944 1453 2944 2338 
z
M 4147 2328 
Q 4147 1169 3647 539 
Q 3147 -91 2228 -91 
Q 1306 -91 806 539 
Q 306 1169 306 2328 
Q 306 3491 806 4120 
Q 1306 4750 2228 4750 
Q 3147 4750 3647 4120 
Q 4147 3491 4147 2328 
z
" transform="scale(0.015625)"/>
     </defs>
     <use xlink:href="#DejaVuSans-Bold-54"/>
     <use xlink:href="#DejaVuSans-Bold-69" transform="translate(68.212891 0)"/>
     <use xlink:href="#DejaVuSans-Bold-65" transform="translate(102.490234 0)"/>
     <use xlink:href="#DejaVuSans-Bold-72" transform="translate(170.3125 0)"/>
     <use xlink:href="#DejaVuSans-Bold-20" transform="translate(219.628906 0)"/>
     <use xlink:href="#DejaVuSans-Bold-41" transform="translate(254.443359 0)"/>
     <use xlink:href="#DejaVuSans-Bold-20" transform="translate(331.835938 0)"/>
     <use xlink:href="#DejaVuSans-Bold-3d" transform="translate(366.650391 0)"/>
     <use xlink:href="#DejaVuSans-Bold-20" transform="translate(450.439453 0)"/>
     <use xlink:href="#DejaVuSans-Bold-30" transform="translate(485.253906 0)"/>
     <use xlink:href="#DejaVuSans-Bold-20" transform="translate(554.833984 0)"/>
     <use xlink:href="#DejaVuSans-Bold-4d" transform="translate(589.648438 0)"/>
     <use xlink:href="#DejaVuSans-Bold-57" transform="translate(689.160156 0)"/>
    </g>
   </g>
   <g id="line2d_22">
    <path d="M 43.499585 32.788784 
L 59.075632 45.730101 
L 74.65168 71.612736 
L 90.227728 84.554053 
L 105.803776 97.495371 
L 121.379824 110.436688 
L 136.955872 123.378005 
L 152.53192 136.319323 
L 168.107968 149.26064 
L 183.684016 162.201957 
L 199.260064 175.143275 
L 214.836112 188.084592 
L 230.412159 201.025909 
L 245.988207 213.967227 
L 261.564255 226.908544 
L 261.564255 239.849862 
" clip-path="url(#p51f447b59f)" style="fill: none; stroke: #8e44ad; stroke-width: 3; stroke-linecap: square"/>
   </g>
   <g id="text_14">
    <path d="M 91.088231 161.896057 
L 95.906512 161.896057 
L 95.906512 163.246839 
L 92.873934 163.246839 
L 92.873934 164.535276 
L 95.726902 164.535276 
L 95.726902 165.886057 
L 92.873934 165.886057 
L 92.873934 168.822151 
L 91.088231 168.822151 
L 91.088231 161.896057 
z
M 97.577733 161.896057 
L 102.396014 161.896057 
L 102.396014 163.246839 
L 99.363436 163.246839 
L 99.363436 164.535276 
L 102.216404 164.535276 
L 102.216404 165.886057 
L 99.363436 165.886057 
L 99.363436 167.472854 
L 102.498436 167.472854 
L 102.498436 168.822151 
L 97.577733 168.822151 
L 97.577733 161.896057 
z
M 108.2695 167.560432 
L 105.477391 167.560432 
L 105.036531 168.822151 
L 103.240438 168.822151 
L 105.805438 161.896057 
L 107.935516 161.896057 
L 110.500516 168.822151 
L 108.705906 168.822151 
L 108.2695 167.560432 
z
M 105.922703 166.274964 
L 107.819734 166.274964 
L 106.872703 163.519964 
L 105.922703 166.274964 
z
M 116.237811 162.114261 
L 116.237811 163.580823 
Q 115.667811 163.325511 115.124529 163.19637 
Q 114.582733 163.065745 114.100311 163.065745 
Q 113.460545 163.065745 113.153279 163.242386 
Q 112.847498 163.417542 112.847498 163.788636 
Q 112.847498 164.067698 113.053826 164.223557 
Q 113.260154 164.377932 113.803436 164.489261 
L 114.563436 164.642151 
Q 115.718279 164.875198 116.205154 165.348714 
Q 116.693514 165.820745 116.693514 166.693557 
Q 116.693514 167.838011 116.01367 168.39762 
Q 115.333826 168.957229 113.937029 168.957229 
Q 113.279451 168.957229 112.615936 168.831057 
Q 111.95242 168.70637 111.288904 168.459964 
L 111.288904 166.953323 
Q 111.95242 167.30512 112.571404 167.484729 
Q 113.190389 167.662854 113.766326 167.662854 
Q 114.35117 167.662854 114.661404 167.468401 
Q 114.971639 167.272464 114.971639 166.910276 
Q 114.971639 166.586682 114.760858 166.410042 
Q 114.550076 166.233401 113.919217 166.09387 
L 113.227498 165.940979 
Q 112.188436 165.718323 111.707498 165.231448 
Q 111.228045 164.744573 111.228045 163.919261 
Q 111.228045 162.884651 111.896014 162.328011 
Q 112.563983 161.77137 113.816795 161.77137 
Q 114.388279 161.77137 114.990936 161.857464 
Q 115.593592 161.943557 116.237811 162.114261 
z
M 118.26157 161.896057 
L 120.047274 161.896057 
L 120.047274 168.822151 
L 118.26157 168.822151 
L 118.26157 161.896057 
z
M 124.569051 164.578323 
Q 124.992098 164.578323 125.208817 164.392776 
Q 125.42702 164.207229 125.42702 163.845042 
Q 125.42702 163.487307 125.208817 163.300276 
Q 124.992098 163.111761 124.569051 163.111761 
L 123.581942 163.111761 
L 123.581942 164.578323 
L 124.569051 164.578323 
z
M 124.62991 167.606448 
Q 125.167254 167.606448 125.438895 167.379339 
Q 125.710535 167.152229 125.710535 166.693557 
Q 125.710535 166.242307 125.441863 166.018167 
Q 125.173192 165.792542 124.62991 165.792542 
L 123.581942 165.792542 
L 123.581942 167.606448 
L 124.62991 167.606448 
z
M 126.290926 165.115667 
Q 126.865379 165.283401 127.180067 165.733167 
Q 127.496238 166.182932 127.496238 166.836057 
Q 127.496238 167.838011 126.819363 168.330823 
Q 126.142488 168.822151 124.759051 168.822151 
L 121.796238 168.822151 
L 121.796238 161.896057 
L 124.47702 161.896057 
Q 125.919832 161.896057 126.56702 162.332464 
Q 127.214207 162.76887 127.214207 163.729261 
Q 127.214207 164.233948 126.976707 164.588714 
Q 126.740692 164.943479 126.290926 165.115667 
z
M 129.037205 161.896057 
L 130.822908 161.896057 
L 130.822908 167.472854 
L 133.957908 167.472854 
L 133.957908 168.822151 
L 129.037205 168.822151 
L 129.037205 161.896057 
z
M 135.090672 161.896057 
L 139.908953 161.896057 
L 139.908953 163.246839 
L 136.876375 163.246839 
L 136.876375 164.535276 
L 139.729344 164.535276 
L 139.729344 165.886057 
L 136.876375 165.886057 
L 136.876375 167.472854 
L 140.011375 167.472854 
L 140.011375 168.822151 
L 135.090672 168.822151 
L 135.090672 161.896057 
z
" style="fill: #8e44ad; opacity: 0.9; stroke: #ffffff; stroke-width: 3.5"/>
    <path d="M 91.088231 161.896057 
L 95.906512 161.896057 
L 95.906512 163.246839 
L 92.873934 163.246839 
L 92.873934 164.535276 
L 95.726902 164.535276 
L 95.726902 165.886057 
L 92.873934 165.886057 
L 92.873934 168.822151 
L 91.088231 168.822151 
L 91.088231 161.896057 
z
M 97.577733 161.896057 
L 102.396014 161.896057 
L 102.396014 163.246839 
L 99.363436 163.246839 
L 99.363436 164.535276 
L 102.216404 164.535276 
L 102.216404 165.886057 
L 99.363436 165.886057 
L 99.363436 167.472854 
L 102.498436 167.472854 
L 102.498436 168.822151 
L 97.577733 168.822151 
L 97.577733 161.896057 
z
M 108.2695 167.560432 
L 105.477391 167.560432 
L 105.036531 168.822151 
L 103.240438 168.822151 
L 105.805438 161.896057 
L 107.935516 161.896057 
L 110.500516 168.822151 
L 108.705906 168.822151 
L 108.2695 167.560432 
z
M 105.922703 166.274964 
L 107.819734 166.274964 
L 106.872703 163.519964 
L 105.922703 166.274964 
z
M 116.237811 162.114261 
L 116.237811 163.580823 
Q 115.667811 163.325511 115.124529 163.19637 
Q 114.582733 163.065745 114.100311 163.065745 
Q 113.460545 163.065745 113.153279 163.242386 
Q 112.847498 163.417542 112.847498 163.788636 
Q 112.847498 164.067698 113.053826 164.223557 
Q 113.260154 164.377932 113.803436 164.489261 
L 114.563436 164.642151 
Q 115.718279 164.875198 116.205154 165.348714 
Q 116.693514 165.820745 116.693514 166.693557 
Q 116.693514 167.838011 116.01367 168.39762 
Q 115.333826 168.957229 113.937029 168.957229 
Q 113.279451 168.957229 112.615936 168.831057 
Q 111.95242 168.70637 111.288904 168.459964 
L 111.288904 166.953323 
Q 111.95242 167.30512 112.571404 167.484729 
Q 113.190389 167.662854 113.766326 167.662854 
Q 114.35117 167.662854 114.661404 167.468401 
Q 114.971639 167.272464 114.971639 166.910276 
Q 114.971639 166.586682 114.760858 166.410042 
Q 114.550076 166.233401 113.919217 166.09387 
L 113.227498 165.940979 
Q 112.188436 165.718323 111.707498 165.231448 
Q 111.228045 164.744573 111.228045 163.919261 
Q 111.228045 162.884651 111.896014 162.328011 
Q 112.563983 161.77137 113.816795 161.77137 
Q 114.388279 161.77137 114.990936 161.857464 
Q 115.593592 161.943557 116.237811 162.114261 
z
M 118.26157 161.896057 
L 120.047274 161.896057 
L 120.047274 168.822151 
L 118.26157 168.822151 
L 118.26157 161.896057 
z
M 124.569051 164.578323 
Q 124.992098 164.578323 125.208817 164.392776 
Q 125.42702 164.207229 125.42702 163.845042 
Q 125.42702 163.487307 125.208817 163.300276 
Q 124.992098 163.111761 124.569051 163.111761 
L 123.581942 163.111761 
L 123.581942 164.578323 
L 124.569051 164.578323 
z
M 124.62991 167.606448 
Q 125.167254 167.606448 125.438895 167.379339 
Q 125.710535 167.152229 125.710535 166.693557 
Q 125.710535 166.242307 125.441863 166.018167 
Q 125.173192 165.792542 124.62991 165.792542 
L 123.581942 165.792542 
L 123.581942 167.606448 
L 124.62991 167.606448 
z
M 126.290926 165.115667 
Q 126.865379 165.283401 127.180067 165.733167 
Q 127.496238 166.182932 127.496238 166.836057 
Q 127.496238 167.838011 126.819363 168.330823 
Q 126.142488 168.822151 124.759051 168.822151 
L 121.796238 168.822151 
L 121.796238 161.896057 
L 124.47702 161.896057 
Q 125.919832 161.896057 126.56702 162.332464 
Q 127.214207 162.76887 127.214207 163.729261 
Q 127.214207 164.233948 126.976707 164.588714 
Q 126.740692 164.943479 126.290926 165.115667 
z
M 129.037205 161.896057 
L 130.822908 161.896057 
L 130.822908 167.472854 
L 133.957908 167.472854 
L 133.957908 168.822151 
L 129.037205 168.822151 
L 129.037205 161.896057 
z
M 135.090672 161.896057 
L 139.908953 161.896057 
L 139.908953 163.246839 
L 136.876375 163.246839 
L 136.876375 164.535276 
L 139.729344 164.535276 
L 139.729344 165.886057 
L 136.876375 165.886057 
L 136.876375 167.472854 
L 140.011375 167.472854 
L 140.011375 168.822151 
L 135.090672 168.822151 
L 135.090672 161.896057 
z
" style="fill: #8e44ad"/>
    <path d="M 98.288934 175.605151 
Q 98.850027 175.605151 99.093465 175.397339 
Q 99.336902 175.188042 99.336902 174.710073 
Q 99.336902 174.236557 99.093465 174.033198 
Q 98.850027 173.828354 98.288934 173.828354 
L 97.53784 173.828354 
L 97.53784 175.605151 
L 98.288934 175.605151 
z
M 97.53784 176.838667 
L 97.53784 179.460073 
L 95.752137 179.460073 
L 95.752137 172.533979 
L 98.478934 172.533979 
Q 99.847527 172.533979 100.484324 172.994136 
Q 101.122606 173.452807 101.122606 174.445854 
Q 101.122606 175.131636 100.790106 175.572495 
Q 100.45909 176.013354 99.791121 176.222651 
Q 100.157762 176.305776 100.447215 176.601167 
Q 100.738152 176.895073 101.035027 177.493276 
L 102.004324 179.460073 
L 100.10284 179.460073 
L 99.258231 177.739682 
Q 99.002918 177.220151 98.740184 177.030151 
Q 98.478934 176.838667 98.042527 176.838667 
L 97.53784 176.838667 
z
M 103.067322 172.533979 
L 107.885604 172.533979 
L 107.885604 173.884761 
L 104.853026 173.884761 
L 104.853026 175.173198 
L 107.705994 175.173198 
L 107.705994 176.523979 
L 104.853026 176.523979 
L 104.853026 178.110776 
L 107.988026 178.110776 
L 107.988026 179.460073 
L 103.067322 179.460073 
L 103.067322 172.533979 
z
M 115.780809 178.944995 
Q 115.11284 179.270073 114.394402 179.433354 
Q 113.675965 179.595151 112.910027 179.595151 
Q 111.179246 179.595151 110.168387 178.627339 
Q 109.157527 177.659526 109.157527 176.004448 
Q 109.157527 174.330073 110.186199 173.369682 
Q 111.216356 172.409292 113.007996 172.409292 
Q 113.698231 172.409292 114.330574 172.539917 
Q 114.964402 172.669057 115.525496 172.92437 
L 115.525496 174.356792 
Q 114.94659 174.028745 114.373621 173.866948 
Q 113.800652 173.703667 113.224715 173.703667 
Q 112.158934 173.703667 111.581512 174.300386 
Q 111.00409 174.89562 111.00409 176.004448 
Q 111.00409 177.102886 111.560731 177.702573 
Q 112.117371 178.300776 113.14159 178.300776 
Q 113.420652 178.300776 113.659637 178.266636 
Q 113.898621 178.231011 114.088621 178.156792 
L 114.088621 176.811948 
L 112.997606 176.811948 
L 112.997606 175.614057 
L 115.780809 175.614057 
L 115.780809 178.944995 
z
M 117.354432 172.533979 
L 119.140135 172.533979 
L 119.140135 179.460073 
L 117.354432 179.460073 
L 117.354432 172.533979 
z
M 124.052303 173.703667 
Q 123.235897 173.703667 122.786131 174.306323 
Q 122.336365 174.908979 122.336365 176.004448 
Q 122.336365 177.093979 122.786131 177.69812 
Q 123.235897 178.300776 124.052303 178.300776 
Q 124.873162 178.300776 125.322928 177.69812 
Q 125.772693 177.093979 125.772693 176.004448 
Q 125.772693 174.908979 125.322928 174.306323 
Q 124.873162 173.703667 124.052303 173.703667 
z
M 124.052303 172.409292 
Q 125.722225 172.409292 126.667772 173.365229 
Q 127.614803 174.319682 127.614803 176.004448 
Q 127.614803 177.683276 126.667772 178.639214 
Q 125.722225 179.595151 124.052303 179.595151 
Q 122.386834 179.595151 121.438318 178.639214 
Q 120.489803 177.683276 120.489803 176.004448 
Q 120.489803 174.319682 121.438318 173.365229 
Q 122.386834 172.409292 124.052303 172.409292 
z
M 128.965027 172.533979 
L 130.958543 172.533979 
L 133.477527 177.283979 
L 133.477527 172.533979 
L 135.171199 172.533979 
L 135.171199 179.460073 
L 133.176199 179.460073 
L 130.657215 174.710073 
L 130.657215 179.460073 
L 128.965027 179.460073 
L 128.965027 172.533979 
z
" style="fill: #8e44ad; opacity: 0.9; stroke: #ffffff; stroke-width: 3.5"/>
    <path d="M 98.288934 175.605151 
Q 98.850027 175.605151 99.093465 175.397339 
Q 99.336902 175.188042 99.336902 174.710073 
Q 99.336902 174.236557 99.093465 174.033198 
Q 98.850027 173.828354 98.288934 173.828354 
L 97.53784 173.828354 
L 97.53784 175.605151 
L 98.288934 175.605151 
z
M 97.53784 176.838667 
L 97.53784 179.460073 
L 95.752137 179.460073 
L 95.752137 172.533979 
L 98.478934 172.533979 
Q 99.847527 172.533979 100.484324 172.994136 
Q 101.122606 173.452807 101.122606 174.445854 
Q 101.122606 175.131636 100.790106 175.572495 
Q 100.45909 176.013354 99.791121 176.222651 
Q 100.157762 176.305776 100.447215 176.601167 
Q 100.738152 176.895073 101.035027 177.493276 
L 102.004324 179.460073 
L 100.10284 179.460073 
L 99.258231 177.739682 
Q 99.002918 177.220151 98.740184 177.030151 
Q 98.478934 176.838667 98.042527 176.838667 
L 97.53784 176.838667 
z
M 103.067322 172.533979 
L 107.885604 172.533979 
L 107.885604 173.884761 
L 104.853026 173.884761 
L 104.853026 175.173198 
L 107.705994 175.173198 
L 107.705994 176.523979 
L 104.853026 176.523979 
L 104.853026 178.110776 
L 107.988026 178.110776 
L 107.988026 179.460073 
L 103.067322 179.460073 
L 103.067322 172.533979 
z
M 115.780809 178.944995 
Q 115.11284 179.270073 114.394402 179.433354 
Q 113.675965 179.595151 112.910027 179.595151 
Q 111.179246 179.595151 110.168387 178.627339 
Q 109.157527 177.659526 109.157527 176.004448 
Q 109.157527 174.330073 110.186199 173.369682 
Q 111.216356 172.409292 113.007996 172.409292 
Q 113.698231 172.409292 114.330574 172.539917 
Q 114.964402 172.669057 115.525496 172.92437 
L 115.525496 174.356792 
Q 114.94659 174.028745 114.373621 173.866948 
Q 113.800652 173.703667 113.224715 173.703667 
Q 112.158934 173.703667 111.581512 174.300386 
Q 111.00409 174.89562 111.00409 176.004448 
Q 111.00409 177.102886 111.560731 177.702573 
Q 112.117371 178.300776 113.14159 178.300776 
Q 113.420652 178.300776 113.659637 178.266636 
Q 113.898621 178.231011 114.088621 178.156792 
L 114.088621 176.811948 
L 112.997606 176.811948 
L 112.997606 175.614057 
L 115.780809 175.614057 
L 115.780809 178.944995 
z
M 117.354432 172.533979 
L 119.140135 172.533979 
L 119.140135 179.460073 
L 117.354432 179.460073 
L 117.354432 172.533979 
z
M 124.052303 173.703667 
Q 123.235897 173.703667 122.786131 174.306323 
Q 122.336365 174.908979 122.336365 176.004448 
Q 122.336365 177.093979 122.786131 177.69812 
Q 123.235897 178.300776 124.052303 178.300776 
Q 124.873162 178.300776 125.322928 177.69812 
Q 125.772693 177.093979 125.772693 176.004448 
Q 125.772693 174.908979 125.322928 174.306323 
Q 124.873162 173.703667 124.052303 173.703667 
z
M 124.052303 172.409292 
Q 125.722225 172.409292 126.667772 173.365229 
Q 127.614803 174.319682 127.614803 176.004448 
Q 127.614803 177.683276 126.667772 178.639214 
Q 125.722225 179.595151 124.052303 179.595151 
Q 122.386834 179.595151 121.438318 178.639214 
Q 120.489803 177.683276 120.489803 176.004448 
Q 120.489803 174.319682 121.438318 173.365229 
Q 122.386834 172.409292 124.052303 172.409292 
z
M 128.965027 172.533979 
L 130.958543 172.533979 
L 133.477527 177.283979 
L 133.477527 172.533979 
L 135.171199 172.533979 
L 135.171199 179.460073 
L 133.176199 179.460073 
L 130.657215 174.710073 
L 130.657215 179.460073 
L 128.965027 179.460073 
L 128.965027 172.533979 
z
" style="fill: #8e44ad"/>
   </g>
  </g>
  <g id="axes_2">
   <g id="patch_5">
    <path d="M 314.804375 242.438125 
L 574.924375 242.438125 
L 574.924375 26.318125 
L 314.804375 26.318125 
z
" style="fill: #ffffff"/>
   </g>
   <g id="matplotlib.axis_3">
    <g id="xtick_6">
     <g id="line2d_23">
      <path d="M 317.919585 242.438125 
L 317.919585 26.318125 
" clip-path="url(#p1ecd1bf90b)" style="fill: none; stroke-dasharray: 2.96,1.28; stroke-dashoffset: 0; stroke: #b0b0b0; stroke-opacity: 0.3; stroke-width: 0.8"/>
     </g>
     <g id="line2d_24">
      <g>
       <use xlink:href="#me546a879b0" x="317.919585" y="242.438125" style="fill: #333333; stroke: #333333; stroke-width: 0.8"/>
      </g>
     </g>
     <g id="text_15">
      <!-- 0 -->
      <g style="fill: #333333" transform="translate(315.05646 256.276719) scale(0.09 -0.09)">
       <use xlink:href="#DejaVuSans-30"/>
      </g>
     </g>
    </g>
    <g id="xtick_7">
     <g id="line2d_25">
      <path d="M 380.223776 242.438125 
L 380.223776 26.318125 
" clip-path="url(#p1ecd1bf90b)" style="fill: none; stroke-dasharray: 2.96,1.28; stroke-dashoffset: 0; stroke: #b0b0b0; stroke-opacity: 0.3; stroke-width: 0.8"/>
     </g>
     <g id="line2d_26">
      <g>
       <use xlink:href="#me546a879b0" x="380.223776" y="242.438125" style="fill: #333333; stroke: #333333; stroke-width: 0.8"/>
      </g>
     </g>
     <g id="text_16">
      <!-- 4 -->
      <g style="fill: #333333" transform="translate(377.360651 256.276719) scale(0.09 -0.09)">
       <use xlink:href="#DejaVuSans-34"/>
      </g>
     </g>
    </g>
    <g id="xtick_8">
     <g id="line2d_27">
      <path d="M 442.527968 242.438125 
L 442.527968 26.318125 
" clip-path="url(#p1ecd1bf90b)" style="fill: none; stroke-dasharray: 2.96,1.28; stroke-dashoffset: 0; stroke: #b0b0b0; stroke-opacity: 0.3; stroke-width: 0.8"/>
     </g>
     <g id="line2d_28">
      <g>
       <use xlink:href="#me546a879b0" x="442.527968" y="242.438125" style="fill: #333333; stroke: #333333; stroke-width: 0.8"/>
      </g>
     </g>
     <g id="text_17">
      <!-- 8 -->
      <g style="fill: #333333" transform="translate(439.664843 256.276719) scale(0.09 -0.09)">
       <use xlink:href="#DejaVuSans-38"/>
      </g>
     </g>
    </g>
    <g id="xtick_9">
     <g id="line2d_29">
      <path d="M 504.832159 242.438125 
L 504.832159 26.318125 
" clip-path="url(#p1ecd1bf90b)" style="fill: none; stroke-dasharray: 2.96,1.28; stroke-dashoffset: 0; stroke: #b0b0b0; stroke-opacity: 0.3; stroke-width: 0.8"/>
     </g>
     <g id="line2d_30">
      <g>
       <use xlink:href="#me546a879b0" x="504.832159" y="242.438125" style="fill: #333333; stroke: #333333; stroke-width: 0.8"/>
      </g>
     </g>
     <g id="text_18">
      <!-- 12 -->
      <g style="fill: #333333" transform="translate(499.105909 256.276719) scale(0.09 -0.09)">
       <use xlink:href="#DejaVuSans-31"/>
       <use xlink:href="#DejaVuSans-32" transform="translate(63.623047 0)"/>
      </g>
     </g>
    </g>
    <g id="xtick_10">
     <g id="line2d_31">
      <path d="M 567.136351 242.438125 
L 567.136351 26.318125 
" clip-path="url(#p1ecd1bf90b)" style="fill: none; stroke-dasharray: 2.96,1.28; stroke-dashoffset: 0; stroke: #b0b0b0; stroke-opacity: 0.3; stroke-width: 0.8"/>
     </g>
     <g id="line2d_32">
      <g>
       <use xlink:href="#me546a879b0" x="567.136351" y="242.438125" style="fill: #333333; stroke: #333333; stroke-width: 0.8"/>
      </g>
     </g>
     <g id="text_19">
      <!-- 16 -->
      <g style="fill: #333333" transform="translate(561.410101 256.276719) scale(0.09 -0.09)">
       <use xlink:href="#DejaVuSans-31"/>
       <use xlink:href="#DejaVuSans-36" transform="translate(63.623047 0)"/>
      </g>
     </g>
    </g>
    <g id="text_20">
     <!-- Tier B1 Capacity (MW) -->
     <g style="fill: #444444" transform="translate(375.697578 270.506719) scale(0.11 -0.11)">
      <use xlink:href="#DejaVuSans-Bold-54"/>
      <use xlink:href="#DejaVuSans-Bold-69" transform="translate(68.212891 0)"/>
      <use xlink:href="#DejaVuSans-Bold-65" transform="translate(102.490234 0)"/>
      <use xlink:href="#DejaVuSans-Bold-72" transform="translate(170.3125 0)"/>
      <use xlink:href="#DejaVuSans-Bold-20" transform="translate(219.628906 0)"/>
      <use xlink:href="#DejaVuSans-Bold-42" transform="translate(254.443359 0)"/>
      <use xlink:href="#DejaVuSans-Bold-31" transform="translate(330.664062 0)"/>
      <use xlink:href="#DejaVuSans-Bold-20" transform="translate(400.244141 0)"/>
      <use xlink:href="#DejaVuSans-Bold-43" transform="translate(435.058594 0)"/>
      <use xlink:href="#DejaVuSans-Bold-61" transform="translate(508.447266 0)"/>
      <use xlink:href="#DejaVuSans-Bold-70" transform="translate(575.927734 0)"/>
      <use xlink:href="#DejaVuSans-Bold-61" transform="translate(647.509766 0)"/>
      <use xlink:href="#DejaVuSans-Bold-63" transform="translate(714.990234 0)"/>
      <use xlink:href="#DejaVuSans-Bold-69" transform="translate(774.267578 0)"/>
      <use xlink:href="#DejaVuSans-Bold-74" transform="translate(808.544922 0)"/>
      <use xlink:href="#DejaVuSans-Bold-79" transform="translate(856.347656 0)"/>
      <use xlink:href="#DejaVuSans-Bold-20" transform="translate(921.533203 0)"/>
      <use xlink:href="#DejaVuSans-Bold-28" transform="translate(956.347656 0)"/>
      <use xlink:href="#DejaVuSans-Bold-4d" transform="translate(1002.050781 0)"/>
      <use xlink:href="#DejaVuSans-Bold-57" transform="translate(1101.5625 0)"/>
      <use xlink:href="#DejaVuSans-Bold-29" transform="translate(1211.865234 0)"/>
     </g>
    </g>
   </g>
   <g id="matplotlib.axis_4">
    <g id="ytick_6">
     <g id="line2d_33">
      <path d="M 314.804375 239.849862 
L 574.924375 239.849862 
" clip-path="url(#p1ecd1bf90b)" style="fill: none; stroke-dasharray: 2.96,1.28; stroke-dashoffset: 0; stroke: #b0b0b0; stroke-opacity: 0.3; stroke-width: 0.8"/>
     </g>
     <g id="line2d_34">
      <g>
       <use xlink:href="#mb0f3edddb0" x="314.804375" y="239.849862" style="fill: #333333; stroke: #333333; stroke-width: 0.8"/>
      </g>
     </g>
    </g>
    <g id="ytick_7">
     <g id="line2d_35">
      <path d="M 314.804375 188.084592 
L 574.924375 188.084592 
" clip-path="url(#p1ecd1bf90b)" style="fill: none; stroke-dasharray: 2.96,1.28; stroke-dashoffset: 0; stroke: #b0b0b0; stroke-opacity: 0.3; stroke-width: 0.8"/>
     </g>
     <g id="line2d_36">
      <g>
       <use xlink:href="#mb0f3edddb0" x="314.804375" y="188.084592" style="fill: #333333; stroke: #333333; stroke-width: 0.8"/>
      </g>
     </g>
    </g>
    <g id="ytick_8">
     <g id="line2d_37">
      <path d="M 314.804375 136.319323 
L 574.924375 136.319323 
" clip-path="url(#p1ecd1bf90b)" style="fill: none; stroke-dasharray: 2.96,1.28; stroke-dashoffset: 0; stroke: #b0b0b0; stroke-opacity: 0.3; stroke-width: 0.8"/>
     </g>
     <g id="line2d_38">
      <g>
       <use xlink:href="#mb0f3edddb0" x="314.804375" y="136.319323" style="fill: #333333; stroke: #333333; stroke-width: 0.8"/>
      </g>
     </g>
    </g>
    <g id="ytick_9">
     <g id="line2d_39">
      <path d="M 314.804375 84.554053 
L 574.924375 84.554053 
" clip-path="url(#p1ecd1bf90b)" style="fill: none; stroke-dasharray: 2.96,1.28; stroke-dashoffset: 0; stroke: #b0b0b0; stroke-opacity: 0.3; stroke-width: 0.8"/>
     </g>
     <g id="line2d_40">
      <g>
       <use xlink:href="#mb0f3edddb0" x="314.804375" y="84.554053" style="fill: #333333; stroke: #333333; stroke-width: 0.8"/>
      </g>
     </g>
    </g>
    <g id="ytick_10">
     <g id="line2d_41">
      <path d="M 314.804375 32.788784 
L 574.924375 32.788784 
" clip-path="url(#p1ecd1bf90b)" style="fill: none; stroke-dasharray: 2.96,1.28; stroke-dashoffset: 0; stroke: #b0b0b0; stroke-opacity: 0.3; stroke-width: 0.8"/>
     </g>
     <g id="line2d_42">
      <g>
       <use xlink:href="#mb0f3edddb0" x="314.804375" y="32.788784" style="fill: #333333; stroke: #333333; stroke-width: 0.8"/>
      </g>
     </g>
    </g>
   </g>
   <g id="FillBetweenPolyCollection_2">
    <defs>
     <path id="mdadeeadd5f" d="M 317.919585 -69.288263 
L 317.919585 -69.288263 
L 317.919585 -69.288263 
L 333.495632 -69.288263 
L 349.07168 -69.288263 
L 364.647728 -69.288263 
L 380.223776 -69.288263 
L 395.799824 -69.288263 
L 411.375872 -69.288263 
L 426.95192 -69.288263 
L 442.527968 -69.288263 
L 442.527968 -69.288263 
L 442.527968 -69.288263 
L 442.527968 -69.288263 
L 442.527968 -108.112216 
L 426.95192 -121.053533 
L 411.375872 -133.99485 
L 395.799824 -146.936168 
L 380.223776 -159.877485 
L 364.647728 -172.818802 
L 349.07168 -185.76012 
L 333.495632 -198.701437 
L 317.919585 -211.642754 
L 317.919585 -69.288263 
z
" style="stroke: #8e44ad; stroke-opacity: 0.2"/>
    </defs>
    <g clip-path="url(#p1ecd1bf90b)">
     <use xlink:href="#mdadeeadd5f" x="0" y="309.138125" style="fill: #8e44ad; fill-opacity: 0.2; stroke: #8e44ad; stroke-opacity: 0.2"/>
    </g>
   </g>
   <g id="patch_6">
    <path d="M 314.804375 242.438125 
L 314.804375 26.318125 
" style="fill: none; stroke: #444444; stroke-width: 0.8; stroke-linejoin: miter; stroke-linecap: square"/>
   </g>
   <g id="patch_7">
    <path d="M 314.804375 242.438125 
L 574.924375 242.438125 
" style="fill: none; stroke: #444444; stroke-width: 0.8; stroke-linejoin: miter; stroke-linecap: square"/>
   </g>
   <g id="line2d_43">
    <path d="M 317.919585 84.554053 
L 504.832159 239.849862 
" clip-path="url(#p1ecd1bf90b)" style="fill: none; stroke-dasharray: 6.66,2.88; stroke-dashoffset: 0; stroke: #8c8c8c; stroke-width: 1.8"/>
   </g>
   <g id="text_21">
    <!-- Tier A = 4 MW -->
    <g style="fill: #333333" transform="translate(396.89625 16.318125) scale(0.12 -0.12)">
     <defs>
      <path id="DejaVuSans-Bold-34" d="M 2356 3675 
L 1038 1722 
L 2356 1722 
L 2356 3675 
z
M 2156 4666 
L 3494 4666 
L 3494 1722 
L 4159 1722 
L 4159 850 
L 3494 850 
L 3494 0 
L 2356 0 
L 2356 850 
L 288 850 
L 288 1881 
L 2156 4666 
z
" transform="scale(0.015625)"/>
     </defs>
     <use xlink:href="#DejaVuSans-Bold-54"/>
     <use xlink:href="#DejaVuSans-Bold-69" transform="translate(68.212891 0)"/>
     <use xlink:href="#DejaVuSans-Bold-65" transform="translate(102.490234 0)"/>
     <use xlink:href="#DejaVuSans-Bold-72" transform="translate(170.3125 0)"/>
     <use xlink:href="#DejaVuSans-Bold-20" transform="translate(219.628906 0)"/>
     <use xlink:href="#DejaVuSans-Bold-41" transform="translate(254.443359 0)"/>
     <use xlink:href="#DejaVuSans-Bold-20" transform="translate(331.835938 0)"/>
     <use xlink:href="#DejaVuSans-Bold-3d" transform="translate(366.650391 0)"/>
     <use xlink:href="#DejaVuSans-Bold-20" transform="translate(450.439453 0)"/>
     <use xlink:href="#DejaVuSans-Bold-34" transform="translate(485.253906 0)"/>
     <use xlink:href="#DejaVuSans-Bold-20" transform="translate(554.833984 0)"/>
     <use xlink:href="#DejaVuSans-Bold-4d" transform="translate(589.648438 0)"/>
     <use xlink:href="#DejaVuSans-Bold-57" transform="translate(689.160156 0)"/>
    </g>
   </g>
   <g id="line2d_44">
    <path d="M 317.919585 97.495371 
L 333.495632 110.436688 
L 349.07168 123.378005 
L 364.647728 136.319323 
L 380.223776 149.26064 
L 395.799824 162.201957 
L 411.375872 175.143275 
L 426.95192 188.084592 
L 442.527968 201.025909 
L 442.527968 239.849862 
" clip-path="url(#p1ecd1bf90b)" style="fill: none; stroke: #8e44ad; stroke-width: 3; stroke-linecap: square"/>
   </g>
   <g id="text_22">
    <path d="M 334.667656 183.249231 
L 339.485937 183.249231 
L 339.485937 184.600012 
L 336.453359 184.600012 
L 336.453359 185.88845 
L 339.306328 185.88845 
L 339.306328 187.239231 
L 336.453359 187.239231 
L 336.453359 190.175325 
L 334.667656 190.175325 
L 334.667656 183.249231 
z
M 341.157158 183.249231 
L 345.975439 183.249231 
L 345.975439 184.600012 
L 342.942861 184.600012 
L 342.942861 185.88845 
L 345.79583 185.88845 
L 345.79583 187.239231 
L 342.942861 187.239231 
L 342.942861 188.826028 
L 346.077861 188.826028 
L 346.077861 190.175325 
L 341.157158 190.175325 
L 341.157158 183.249231 
z
M 351.848925 188.913606 
L 349.056816 188.913606 
L 348.615957 190.175325 
L 346.819863 190.175325 
L 349.384863 183.249231 
L 351.514941 183.249231 
L 354.079941 190.175325 
L 352.285332 190.175325 
L 351.848925 188.913606 
z
M 349.502128 187.628137 
L 351.39916 187.628137 
L 350.452128 184.873137 
L 349.502128 187.628137 
z
M 359.817236 183.467434 
L 359.817236 184.933997 
Q 359.247236 184.678684 358.703955 184.549544 
Q 358.162158 184.418919 357.679736 184.418919 
Q 357.03997 184.418919 356.732705 184.595559 
Q 356.426923 184.770715 356.426923 185.141809 
Q 356.426923 185.420872 356.633251 185.576731 
Q 356.83958 185.731106 357.382861 185.842434 
L 358.142861 185.995325 
Q 359.297705 186.228372 359.78458 186.701887 
Q 360.272939 187.173919 360.272939 188.046731 
Q 360.272939 189.191184 359.593095 189.750794 
Q 358.913251 190.310403 357.516455 190.310403 
Q 356.858876 190.310403 356.195361 190.184231 
Q 355.531845 190.059544 354.86833 189.813137 
L 354.86833 188.306497 
Q 355.531845 188.658294 356.15083 188.837903 
Q 356.769814 189.016028 357.345751 189.016028 
Q 357.930595 189.016028 358.24083 188.821575 
Q 358.551064 188.625637 358.551064 188.26345 
Q 358.551064 187.939856 358.340283 187.763215 
Q 358.129501 187.586575 357.498642 187.447044 
L 356.806923 187.294153 
Q 355.767861 187.071497 355.286923 186.584622 
Q 354.80747 186.097747 354.80747 185.272434 
Q 354.80747 184.237825 355.475439 183.681184 
Q 356.143408 183.124544 357.39622 183.124544 
Q 357.967705 183.124544 358.570361 183.210637 
Q 359.173017 183.296731 359.817236 183.467434 
z
M 361.840996 183.249231 
L 363.626699 183.249231 
L 363.626699 190.175325 
L 361.840996 190.175325 
L 361.840996 183.249231 
z
M 368.148476 185.931497 
Q 368.571523 185.931497 368.788242 185.74595 
Q 369.006445 185.560403 369.006445 185.198215 
Q 369.006445 184.840481 368.788242 184.65345 
Q 368.571523 184.464934 368.148476 184.464934 
L 367.161367 184.464934 
L 367.161367 185.931497 
L 368.148476 185.931497 
z
M 368.209335 188.959622 
Q 368.746679 188.959622 369.01832 188.732512 
Q 369.28996 188.505403 369.28996 188.046731 
Q 369.28996 187.595481 369.021289 187.37134 
Q 368.752617 187.145715 368.209335 187.145715 
L 367.161367 187.145715 
L 367.161367 188.959622 
L 368.209335 188.959622 
z
M 369.870351 186.46884 
Q 370.444804 186.636575 370.759492 187.08634 
Q 371.075664 187.536106 371.075664 188.189231 
Q 371.075664 189.191184 370.398789 189.683997 
Q 369.721914 190.175325 368.338476 190.175325 
L 365.375664 190.175325 
L 365.375664 183.249231 
L 368.056445 183.249231 
Q 369.499257 183.249231 370.146445 183.685637 
Q 370.793632 184.122044 370.793632 185.082434 
Q 370.793632 185.587122 370.556132 185.941887 
Q 370.320117 186.296653 369.870351 186.46884 
z
M 372.61663 183.249231 
L 374.402333 183.249231 
L 374.402333 188.826028 
L 377.537333 188.826028 
L 377.537333 190.175325 
L 372.61663 190.175325 
L 372.61663 183.249231 
z
M 378.670097 183.249231 
L 383.488378 183.249231 
L 383.488378 184.600012 
L 380.4558 184.600012 
L 380.4558 185.88845 
L 383.308769 185.88845 
L 383.308769 187.239231 
L 380.4558 187.239231 
L 380.4558 188.826028 
L 383.5908 188.826028 
L 383.5908 190.175325 
L 378.670097 190.175325 
L 378.670097 183.249231 
z
" style="fill: #8e44ad; opacity: 0.9; stroke: #ffffff; stroke-width: 3.5"/>
    <path d="M 334.667656 183.249231 
L 339.485937 183.249231 
L 339.485937 184.600012 
L 336.453359 184.600012 
L 336.453359 185.88845 
L 339.306328 185.88845 
L 339.306328 187.239231 
L 336.453359 187.239231 
L 336.453359 190.175325 
L 334.667656 190.175325 
L 334.667656 183.249231 
z
M 341.157158 183.249231 
L 345.975439 183.249231 
L 345.975439 184.600012 
L 342.942861 184.600012 
L 342.942861 185.88845 
L 345.79583 185.88845 
L 345.79583 187.239231 
L 342.942861 187.239231 
L 342.942861 188.826028 
L 346.077861 188.826028 
L 346.077861 190.175325 
L 341.157158 190.175325 
L 341.157158 183.249231 
z
M 351.848925 188.913606 
L 349.056816 188.913606 
L 348.615957 190.175325 
L 346.819863 190.175325 
L 349.384863 183.249231 
L 351.514941 183.249231 
L 354.079941 190.175325 
L 352.285332 190.175325 
L 351.848925 188.913606 
z
M 349.502128 187.628137 
L 351.39916 187.628137 
L 350.452128 184.873137 
L 349.502128 187.628137 
z
M 359.817236 183.467434 
L 359.817236 184.933997 
Q 359.247236 184.678684 358.703955 184.549544 
Q 358.162158 184.418919 357.679736 184.418919 
Q 357.03997 184.418919 356.732705 184.595559 
Q 356.426923 184.770715 356.426923 185.141809 
Q 356.426923 185.420872 356.633251 185.576731 
Q 356.83958 185.731106 357.382861 185.842434 
L 358.142861 185.995325 
Q 359.297705 186.228372 359.78458 186.701887 
Q 360.272939 187.173919 360.272939 188.046731 
Q 360.272939 189.191184 359.593095 189.750794 
Q 358.913251 190.310403 357.516455 190.310403 
Q 356.858876 190.310403 356.195361 190.184231 
Q 355.531845 190.059544 354.86833 189.813137 
L 354.86833 188.306497 
Q 355.531845 188.658294 356.15083 188.837903 
Q 356.769814 189.016028 357.345751 189.016028 
Q 357.930595 189.016028 358.24083 188.821575 
Q 358.551064 188.625637 358.551064 188.26345 
Q 358.551064 187.939856 358.340283 187.763215 
Q 358.129501 187.586575 357.498642 187.447044 
L 356.806923 187.294153 
Q 355.767861 187.071497 355.286923 186.584622 
Q 354.80747 186.097747 354.80747 185.272434 
Q 354.80747 184.237825 355.475439 183.681184 
Q 356.143408 183.124544 357.39622 183.124544 
Q 357.967705 183.124544 358.570361 183.210637 
Q 359.173017 183.296731 359.817236 183.467434 
z
M 361.840996 183.249231 
L 363.626699 183.249231 
L 363.626699 190.175325 
L 361.840996 190.175325 
L 361.840996 183.249231 
z
M 368.148476 185.931497 
Q 368.571523 185.931497 368.788242 185.74595 
Q 369.006445 185.560403 369.006445 185.198215 
Q 369.006445 184.840481 368.788242 184.65345 
Q 368.571523 184.464934 368.148476 184.464934 
L 367.161367 184.464934 
L 367.161367 185.931497 
L 368.148476 185.931497 
z
M 368.209335 188.959622 
Q 368.746679 188.959622 369.01832 188.732512 
Q 369.28996 188.505403 369.28996 188.046731 
Q 369.28996 187.595481 369.021289 187.37134 
Q 368.752617 187.145715 368.209335 187.145715 
L 367.161367 187.145715 
L 367.161367 188.959622 
L 368.209335 188.959622 
z
M 369.870351 186.46884 
Q 370.444804 186.636575 370.759492 187.08634 
Q 371.075664 187.536106 371.075664 188.189231 
Q 371.075664 189.191184 370.398789 189.683997 
Q 369.721914 190.175325 368.338476 190.175325 
L 365.375664 190.175325 
L 365.375664 183.249231 
L 368.056445 183.249231 
Q 369.499257 183.249231 370.146445 183.685637 
Q 370.793632 184.122044 370.793632 185.082434 
Q 370.793632 185.587122 370.556132 185.941887 
Q 370.320117 186.296653 369.870351 186.46884 
z
M 372.61663 183.249231 
L 374.402333 183.249231 
L 374.402333 188.826028 
L 377.537333 188.826028 
L 377.537333 190.175325 
L 372.61663 190.175325 
L 372.61663 183.249231 
z
M 378.670097 183.249231 
L 383.488378 183.249231 
L 383.488378 184.600012 
L 380.4558 184.600012 
L 380.4558 185.88845 
L 383.308769 185.88845 
L 383.308769 187.239231 
L 380.4558 187.239231 
L 380.4558 188.826028 
L 383.5908 188.826028 
L 383.5908 190.175325 
L 378.670097 190.175325 
L 378.670097 183.249231 
z
" style="fill: #8e44ad"/>
    <path d="M 341.868359 196.958325 
Q 342.429453 196.958325 342.67289 196.750512 
Q 342.916328 196.541215 342.916328 196.063247 
Q 342.916328 195.589731 342.67289 195.386372 
Q 342.429453 195.181528 341.868359 195.181528 
L 341.117265 195.181528 
L 341.117265 196.958325 
L 341.868359 196.958325 
z
M 341.117265 198.19184 
L 341.117265 200.813247 
L 339.331562 200.813247 
L 339.331562 193.887153 
L 342.058359 193.887153 
Q 343.426953 193.887153 344.063749 194.347309 
Q 344.702031 194.805981 344.702031 195.799028 
Q 344.702031 196.484809 344.369531 196.925669 
Q 344.038515 197.366528 343.370546 197.575825 
Q 343.737187 197.65895 344.02664 197.95434 
Q 344.317578 198.248247 344.614453 198.84645 
L 345.583749 200.813247 
L 343.682265 200.813247 
L 342.837656 199.092856 
Q 342.582343 198.573325 342.319609 198.383325 
Q 342.058359 198.19184 341.621953 198.19184 
L 341.117265 198.19184 
z
M 346.646748 193.887153 
L 351.465029 193.887153 
L 351.465029 195.237934 
L 348.432451 195.237934 
L 348.432451 196.526372 
L 351.285419 196.526372 
L 351.285419 197.877153 
L 348.432451 197.877153 
L 348.432451 199.46395 
L 351.567451 199.46395 
L 351.567451 200.813247 
L 346.646748 200.813247 
L 346.646748 193.887153 
z
M 359.360234 200.298169 
Q 358.692265 200.623247 357.973828 200.786528 
Q 357.25539 200.948325 356.489453 200.948325 
Q 354.758671 200.948325 353.747812 199.980512 
Q 352.736953 199.0127 352.736953 197.357622 
Q 352.736953 195.683247 353.765624 194.722856 
Q 354.795781 193.762465 356.587421 193.762465 
Q 357.277656 193.762465 357.909999 193.89309 
Q 358.543828 194.022231 359.104921 194.277544 
L 359.104921 195.709965 
Q 358.526015 195.381919 357.953046 195.220122 
Q 357.380078 195.05684 356.80414 195.05684 
Q 355.738359 195.05684 355.160937 195.653559 
Q 354.583515 196.248794 354.583515 197.357622 
Q 354.583515 198.456059 355.140156 199.055747 
Q 355.696796 199.65395 356.721015 199.65395 
Q 357.000078 199.65395 357.239062 199.619809 
Q 357.478046 199.584184 357.668046 199.509965 
L 357.668046 198.165122 
L 356.577031 198.165122 
L 356.577031 196.967231 
L 359.360234 196.967231 
L 359.360234 200.298169 
z
M 360.933857 193.887153 
L 362.71956 193.887153 
L 362.71956 200.813247 
L 360.933857 200.813247 
L 360.933857 193.887153 
z
M 367.631728 195.05684 
Q 366.815322 195.05684 366.365556 195.659497 
Q 365.915791 196.262153 365.915791 197.357622 
Q 365.915791 198.447153 366.365556 199.051294 
Q 366.815322 199.65395 367.631728 199.65395 
Q 368.452587 199.65395 368.902353 199.051294 
Q 369.352119 198.447153 369.352119 197.357622 
Q 369.352119 196.262153 368.902353 195.659497 
Q 368.452587 195.05684 367.631728 195.05684 
z
M 367.631728 193.762465 
Q 369.30165 193.762465 370.247197 194.718403 
Q 371.194228 195.672856 371.194228 197.357622 
Q 371.194228 199.03645 370.247197 199.992387 
Q 369.30165 200.948325 367.631728 200.948325 
Q 365.966259 200.948325 365.017744 199.992387 
Q 364.069228 199.03645 364.069228 197.357622 
Q 364.069228 195.672856 365.017744 194.718403 
Q 365.966259 193.762465 367.631728 193.762465 
z
M 372.544453 193.887153 
L 374.537968 193.887153 
L 377.056953 198.637153 
L 377.056953 193.887153 
L 378.750624 193.887153 
L 378.750624 200.813247 
L 376.755624 200.813247 
L 374.23664 196.063247 
L 374.23664 200.813247 
L 372.544453 200.813247 
L 372.544453 193.887153 
z
" style="fill: #8e44ad; opacity: 0.9; stroke: #ffffff; stroke-width: 3.5"/>
    <path d="M 341.868359 196.958325 
Q 342.429453 196.958325 342.67289 196.750512 
Q 342.916328 196.541215 342.916328 196.063247 
Q 342.916328 195.589731 342.67289 195.386372 
Q 342.429453 195.181528 341.868359 195.181528 
L 341.117265 195.181528 
L 341.117265 196.958325 
L 341.868359 196.958325 
z
M 341.117265 198.19184 
L 341.117265 200.813247 
L 339.331562 200.813247 
L 339.331562 193.887153 
L 342.058359 193.887153 
Q 343.426953 193.887153 344.063749 194.347309 
Q 344.702031 194.805981 344.702031 195.799028 
Q 344.702031 196.484809 344.369531 196.925669 
Q 344.038515 197.366528 343.370546 197.575825 
Q 343.737187 197.65895 344.02664 197.95434 
Q 344.317578 198.248247 344.614453 198.84645 
L 345.583749 200.813247 
L 343.682265 200.813247 
L 342.837656 199.092856 
Q 342.582343 198.573325 342.319609 198.383325 
Q 342.058359 198.19184 341.621953 198.19184 
L 341.117265 198.19184 
z
M 346.646748 193.887153 
L 351.465029 193.887153 
L 351.465029 195.237934 
L 348.432451 195.237934 
L 348.432451 196.526372 
L 351.285419 196.526372 
L 351.285419 197.877153 
L 348.432451 197.877153 
L 348.432451 199.46395 
L 351.567451 199.46395 
L 351.567451 200.813247 
L 346.646748 200.813247 
L 346.646748 193.887153 
z
M 359.360234 200.298169 
Q 358.692265 200.623247 357.973828 200.786528 
Q 357.25539 200.948325 356.489453 200.948325 
Q 354.758671 200.948325 353.747812 199.980512 
Q 352.736953 199.0127 352.736953 197.357622 
Q 352.736953 195.683247 353.765624 194.722856 
Q 354.795781 193.762465 356.587421 193.762465 
Q 357.277656 193.762465 357.909999 193.89309 
Q 358.543828 194.022231 359.104921 194.277544 
L 359.104921 195.709965 
Q 358.526015 195.381919 357.953046 195.220122 
Q 357.380078 195.05684 356.80414 195.05684 
Q 355.738359 195.05684 355.160937 195.653559 
Q 354.583515 196.248794 354.583515 197.357622 
Q 354.583515 198.456059 355.140156 199.055747 
Q 355.696796 199.65395 356.721015 199.65395 
Q 357.000078 199.65395 357.239062 199.619809 
Q 357.478046 199.584184 357.668046 199.509965 
L 357.668046 198.165122 
L 356.577031 198.165122 
L 356.577031 196.967231 
L 359.360234 196.967231 
L 359.360234 200.298169 
z
M 360.933857 193.887153 
L 362.71956 193.887153 
L 362.71956 200.813247 
L 360.933857 200.813247 
L 360.933857 193.887153 
z
M 367.631728 195.05684 
Q 366.815322 195.05684 366.365556 195.659497 
Q 365.915791 196.262153 365.915791 197.357622 
Q 365.915791 198.447153 366.365556 199.051294 
Q 366.815322 199.65395 367.631728 199.65395 
Q 368.452587 199.65395 368.902353 199.051294 
Q 369.352119 198.447153 369.352119 197.357622 
Q 369.352119 196.262153 368.902353 195.659497 
Q 368.452587 195.05684 367.631728 195.05684 
z
M 367.631728 193.762465 
Q 369.30165 193.762465 370.247197 194.718403 
Q 371.194228 195.672856 371.194228 197.357622 
Q 371.194228 199.03645 370.247197 199.992387 
Q 369.30165 200.948325 367.631728 200.948325 
Q 365.966259 200.948325 365.017744 199.992387 
Q 364.069228 199.03645 364.069228 197.357622 
Q 364.069228 195.672856 365.017744 194.718403 
Q 365.966259 193.762465 367.631728 193.762465 
z
M 372.544453 193.887153 
L 374.537968 193.887153 
L 377.056953 198.637153 
L 377.056953 193.887153 
L 378.750624 193.887153 
L 378.750624 200.813247 
L 376.755624 200.813247 
L 374.23664 196.063247 
L 374.23664 200.813247 
L 372.544453 200.813247 
L 372.544453 193.887153 
z
" style="fill: #8e44ad"/>
   </g>
  </g>
  <g id="axes_3">
   <g id="patch_8">
    <path d="M 589.224375 242.438125 
L 849.344375 242.438125 
L 849.344375 26.318125 
L 589.224375 26.318125 
z
" style="fill: #ffffff"/>
   </g>
   <g id="matplotlib.axis_5">
    <g id="xtick_11">
     <g id="line2d_45">
      <path d="M 592.339585 242.438125 
L 592.339585 26.318125 
" clip-path="url(#p374db900f8)" style="fill: none; stroke-dasharray: 2.96,1.28; stroke-dashoffset: 0; stroke: #b0b0b0; stroke-opacity: 0.3; stroke-width: 0.8"/>
     </g>
     <g id="line2d_46">
      <g>
       <use xlink:href="#me546a879b0" x="592.339585" y="242.438125" style="fill: #333333; stroke: #333333; stroke-width: 0.8"/>
      </g>
     </g>
     <g id="text_23">
      <!-- 0 -->
      <g style="fill: #333333" transform="translate(589.47646 256.276719) scale(0.09 -0.09)">
       <use xlink:href="#DejaVuSans-30"/>
      </g>
     </g>
    </g>
    <g id="xtick_12">
     <g id="line2d_47">
      <path d="M 654.643776 242.438125 
L 654.643776 26.318125 
" clip-path="url(#p374db900f8)" style="fill: none; stroke-dasharray: 2.96,1.28; stroke-dashoffset: 0; stroke: #b0b0b0; stroke-opacity: 0.3; stroke-width: 0.8"/>
     </g>
     <g id="line2d_48">
      <g>
       <use xlink:href="#me546a879b0" x="654.643776" y="242.438125" style="fill: #333333; stroke: #333333; stroke-width: 0.8"/>
      </g>
     </g>
     <g id="text_24">
      <!-- 4 -->
      <g style="fill: #333333" transform="translate(651.780651 256.276719) scale(0.09 -0.09)">
       <use xlink:href="#DejaVuSans-34"/>
      </g>
     </g>
    </g>
    <g id="xtick_13">
     <g id="line2d_49">
      <path d="M 716.947968 242.438125 
L 716.947968 26.318125 
" clip-path="url(#p374db900f8)" style="fill: none; stroke-dasharray: 2.96,1.28; stroke-dashoffset: 0; stroke: #b0b0b0; stroke-opacity: 0.3; stroke-width: 0.8"/>
     </g>
     <g id="line2d_50">
      <g>
       <use xlink:href="#me546a879b0" x="716.947968" y="242.438125" style="fill: #333333; stroke: #333333; stroke-width: 0.8"/>
      </g>
     </g>
     <g id="text_25">
      <!-- 8 -->
      <g style="fill: #333333" transform="translate(714.084843 256.276719) scale(0.09 -0.09)">
       <use xlink:href="#DejaVuSans-38"/>
      </g>
     </g>
    </g>
    <g id="xtick_14">
     <g id="line2d_51">
      <path d="M 779.252159 242.438125 
L 779.252159 26.318125 
" clip-path="url(#p374db900f8)" style="fill: none; stroke-dasharray: 2.96,1.28; stroke-dashoffset: 0; stroke: #b0b0b0; stroke-opacity: 0.3; stroke-width: 0.8"/>
     </g>
     <g id="line2d_52">
      <g>
       <use xlink:href="#me546a879b0" x="779.252159" y="242.438125" style="fill: #333333; stroke: #333333; stroke-width: 0.8"/>
      </g>
     </g>
     <g id="text_26">
      <!-- 12 -->
      <g style="fill: #333333" transform="translate(773.525909 256.276719) scale(0.09 -0.09)">
       <use xlink:href="#DejaVuSans-31"/>
       <use xlink:href="#DejaVuSans-32" transform="translate(63.623047 0)"/>
      </g>
     </g>
    </g>
    <g id="xtick_15">
     <g id="line2d_53">
      <path d="M 841.556351 242.438125 
L 841.556351 26.318125 
" clip-path="url(#p374db900f8)" style="fill: none; stroke-dasharray: 2.96,1.28; stroke-dashoffset: 0; stroke: #b0b0b0; stroke-opacity: 0.3; stroke-width: 0.8"/>
     </g>
     <g id="line2d_54">
      <g>
       <use xlink:href="#me546a879b0" x="841.556351" y="242.438125" style="fill: #333333; stroke: #333333; stroke-width: 0.8"/>
      </g>
     </g>
     <g id="text_27">
      <!-- 16 -->
      <g style="fill: #333333" transform="translate(835.830101 256.276719) scale(0.09 -0.09)">
       <use xlink:href="#DejaVuSans-31"/>
       <use xlink:href="#DejaVuSans-36" transform="translate(63.623047 0)"/>
      </g>
     </g>
    </g>
    <g id="text_28">
     <!-- Tier B1 Capacity (MW) -->
     <g style="fill: #444444" transform="translate(650.117578 270.506719) scale(0.11 -0.11)">
      <use xlink:href="#DejaVuSans-Bold-54"/>
      <use xlink:href="#DejaVuSans-Bold-69" transform="translate(68.212891 0)"/>
      <use xlink:href="#DejaVuSans-Bold-65" transform="translate(102.490234 0)"/>
      <use xlink:href="#DejaVuSans-Bold-72" transform="translate(170.3125 0)"/>
      <use xlink:href="#DejaVuSans-Bold-20" transform="translate(219.628906 0)"/>
      <use xlink:href="#DejaVuSans-Bold-42" transform="translate(254.443359 0)"/>
      <use xlink:href="#DejaVuSans-Bold-31" transform="translate(330.664062 0)"/>
      <use xlink:href="#DejaVuSans-Bold-20" transform="translate(400.244141 0)"/>
      <use xlink:href="#DejaVuSans-Bold-43" transform="translate(435.058594 0)"/>
      <use xlink:href="#DejaVuSans-Bold-61" transform="translate(508.447266 0)"/>
      <use xlink:href="#DejaVuSans-Bold-70" transform="translate(575.927734 0)"/>
      <use xlink:href="#DejaVuSans-Bold-61" transform="translate(647.509766 0)"/>
      <use xlink:href="#DejaVuSans-Bold-63" transform="translate(714.990234 0)"/>
      <use xlink:href="#DejaVuSans-Bold-69" transform="translate(774.267578 0)"/>
      <use xlink:href="#DejaVuSans-Bold-74" transform="translate(808.544922 0)"/>
      <use xlink:href="#DejaVuSans-Bold-79" transform="translate(856.347656 0)"/>
      <use xlink:href="#DejaVuSans-Bold-20" transform="translate(921.533203 0)"/>
      <use xlink:href="#DejaVuSans-Bold-28" transform="translate(956.347656 0)"/>
      <use xlink:href="#DejaVuSans-Bold-4d" transform="translate(1002.050781 0)"/>
      <use xlink:href="#DejaVuSans-Bold-57" transform="translate(1101.5625 0)"/>
      <use xlink:href="#DejaVuSans-Bold-29" transform="translate(1211.865234 0)"/>
     </g>
    </g>
   </g>
   <g id="matplotlib.axis_6">
    <g id="ytick_11">
     <g id="line2d_55">
      <path d="M 589.224375 239.849862 
L 849.344375 239.849862 
" clip-path="url(#p374db900f8)" style="fill: none; stroke-dasharray: 2.96,1.28; stroke-dashoffset: 0; stroke: #b0b0b0; stroke-opacity: 0.3; stroke-width: 0.8"/>
     </g>
     <g id="line2d_56">
      <g>
       <use xlink:href="#mb0f3edddb0" x="589.224375" y="239.849862" style="fill: #333333; stroke: #333333; stroke-width: 0.8"/>
      </g>
     </g>
    </g>
    <g id="ytick_12">
     <g id="line2d_57">
      <path d="M 589.224375 188.084592 
L 849.344375 188.084592 
" clip-path="url(#p374db900f8)" style="fill: none; stroke-dasharray: 2.96,1.28; stroke-dashoffset: 0; stroke: #b0b0b0; stroke-opacity: 0.3; stroke-width: 0.8"/>
     </g>
     <g id="line2d_58">
      <g>
       <use xlink:href="#mb0f3edddb0" x="589.224375" y="188.084592" style="fill: #333333; stroke: #333333; stroke-width: 0.8"/>
      </g>
     </g>
    </g>
    <g id="ytick_13">
     <g id="line2d_59">
      <path d="M 589.224375 136.319323 
L 849.344375 136.319323 
" clip-path="url(#p374db900f8)" style="fill: none; stroke-dasharray: 2.96,1.28; stroke-dashoffset: 0; stroke: #b0b0b0; stroke-opacity: 0.3; stroke-width: 0.8"/>
     </g>
     <g id="line2d_60">
      <g>
       <use xlink:href="#mb0f3edddb0" x="589.224375" y="136.319323" style="fill: #333333; stroke: #333333; stroke-width: 0.8"/>
      </g>
     </g>
    </g>
    <g id="ytick_14">
     <g id="line2d_61">
      <path d="M 589.224375 84.554053 
L 849.344375 84.554053 
" clip-path="url(#p374db900f8)" style="fill: none; stroke-dasharray: 2.96,1.28; stroke-dashoffset: 0; stroke: #b0b0b0; stroke-opacity: 0.3; stroke-width: 0.8"/>
     </g>
     <g id="line2d_62">
      <g>
       <use xlink:href="#mb0f3edddb0" x="589.224375" y="84.554053" style="fill: #333333; stroke: #333333; stroke-width: 0.8"/>
      </g>
     </g>
    </g>
    <g id="ytick_15">
     <g id="line2d_63">
      <path d="M 589.224375 32.788784 
L 849.344375 32.788784 
" clip-path="url(#p374db900f8)" style="fill: none; stroke-dasharray: 2.96,1.28; stroke-dashoffset: 0; stroke: #b0b0b0; stroke-opacity: 0.3; stroke-width: 0.8"/>
     </g>
     <g id="line2d_64">
      <g>
       <use xlink:href="#mb0f3edddb0" x="589.224375" y="32.788784" style="fill: #333333; stroke: #333333; stroke-width: 0.8"/>
      </g>
     </g>
    </g>
   </g>
   <g id="patch_9">
    <path d="M 589.224375 242.438125 
L 589.224375 26.318125 
" style="fill: none; stroke: #444444; stroke-width: 0.8; stroke-linejoin: miter; stroke-linecap: square"/>
   </g>
   <g id="patch_10">
    <path d="M 589.224375 242.438125 
L 849.344375 242.438125 
" style="fill: none; stroke: #444444; stroke-width: 0.8; stroke-linejoin: miter; stroke-linecap: square"/>
   </g>
   <g id="line2d_65">
    <path d="M 592.339585 136.319323 
L 716.947968 239.849862 
" clip-path="url(#p374db900f8)" style="fill: none; stroke-dasharray: 6.66,2.88; stroke-dashoffset: 0; stroke: #8c8c8c; stroke-width: 1.8"/>
   </g>
   <g id="text_29">
    <!-- Tier A = 8 MW -->
    <g style="fill: #333333" transform="translate(671.31625 16.318125) scale(0.12 -0.12)">
     <defs>
      <path id="DejaVuSans-Bold-38" d="M 2228 2088 
Q 1891 2088 1709 1903 
Q 1528 1719 1528 1375 
Q 1528 1031 1709 848 
Q 1891 666 2228 666 
Q 2563 666 2741 848 
Q 2919 1031 2919 1375 
Q 2919 1722 2741 1905 
Q 2563 2088 2228 2088 
z
M 1350 2484 
Q 925 2613 709 2878 
Q 494 3144 494 3541 
Q 494 4131 934 4440 
Q 1375 4750 2228 4750 
Q 3075 4750 3515 4442 
Q 3956 4134 3956 3541 
Q 3956 3144 3739 2878 
Q 3522 2613 3097 2484 
Q 3572 2353 3814 2058 
Q 4056 1763 4056 1313 
Q 4056 619 3595 264 
Q 3134 -91 2228 -91 
Q 1319 -91 855 264 
Q 391 619 391 1313 
Q 391 1763 633 2058 
Q 875 2353 1350 2484 
z
M 1631 3419 
Q 1631 3141 1786 2991 
Q 1941 2841 2228 2841 
Q 2509 2841 2662 2991 
Q 2816 3141 2816 3419 
Q 2816 3697 2662 3845 
Q 2509 3994 2228 3994 
Q 1941 3994 1786 3844 
Q 1631 3694 1631 3419 
z
" transform="scale(0.015625)"/>
     </defs>
     <use xlink:href="#DejaVuSans-Bold-54"/>
     <use xlink:href="#DejaVuSans-Bold-69" transform="translate(68.212891 0)"/>
     <use xlink:href="#DejaVuSans-Bold-65" transform="translate(102.490234 0)"/>
     <use xlink:href="#DejaVuSans-Bold-72" transform="translate(170.3125 0)"/>
     <use xlink:href="#DejaVuSans-Bold-20" transform="translate(219.628906 0)"/>
     <use xlink:href="#DejaVuSans-Bold-41" transform="translate(254.443359 0)"/>
     <use xlink:href="#DejaVuSans-Bold-20" transform="translate(331.835938 0)"/>
     <use xlink:href="#DejaVuSans-Bold-3d" transform="translate(366.650391 0)"/>
     <use xlink:href="#DejaVuSans-Bold-20" transform="translate(450.439453 0)"/>
     <use xlink:href="#DejaVuSans-Bold-38" transform="translate(485.253906 0)"/>
     <use xlink:href="#DejaVuSans-Bold-20" transform="translate(554.833984 0)"/>
     <use xlink:href="#DejaVuSans-Bold-4d" transform="translate(589.648438 0)"/>
     <use xlink:href="#DejaVuSans-Bold-57" transform="translate(689.160156 0)"/>
    </g>
   </g>
   <g id="LineCollection_1">
    <path d="M 592.339585 239.849862 
L 592.339585 149.26064 
" clip-path="url(#p374db900f8)" style="fill: none; stroke: #8e44ad; stroke-width: 3"/>
   </g>
  </g>
  <g id="legend_1">
   <g id="line2d_66">
    <path d="M 161.130547 291.400469 
L 172.130547 291.400469 
L 183.130547 291.400469 
" style="fill: none; stroke: #8e44ad; stroke-width: 3; stroke-linecap: square"/>
   </g>
   <g id="text_30">
    <!-- Max Feasible Tier B1 / B2 Combination -->
    <g transform="translate(191.930547 295.250469) scale(0.11 -0.11)">
     <defs>
      <path id="DejaVuSans-4d" d="M 628 4666 
L 1569 4666 
L 2759 1491 
L 3956 4666 
L 4897 4666 
L 4897 0 
L 4281 0 
L 4281 4097 
L 3078 897 
L 2444 897 
L 1241 4097 
L 1241 0 
L 628 0 
L 628 4666 
z
" transform="scale(0.015625)"/>
      <path id="DejaVuSans-61" d="M 2194 1759 
Q 1497 1759 1228 1600 
Q 959 1441 959 1056 
Q 959 750 1161 570 
Q 1363 391 1709 391 
Q 2188 391 2477 730 
Q 2766 1069 2766 1631 
L 2766 1759 
L 2194 1759 
z
M 3341 1997 
L 3341 0 
L 2766 0 
L 2766 531 
Q 2569 213 2275 61 
Q 1981 -91 1556 -91 
Q 1019 -91 701 211 
Q 384 513 384 1019 
Q 384 1609 779 1909 
Q 1175 2209 1959 2209 
L 2766 2209 
L 2766 2266 
Q 2766 2663 2505 2880 
Q 2244 3097 1772 3097 
Q 1472 3097 1187 3025 
Q 903 2953 641 2809 
L 641 3341 
Q 956 3463 1253 3523 
Q 1550 3584 1831 3584 
Q 2591 3584 2966 3190 
Q 3341 2797 3341 1997 
z
" transform="scale(0.015625)"/>
      <path id="DejaVuSans-78" d="M 3513 3500 
L 2247 1797 
L 3578 0 
L 2900 0 
L 1881 1375 
L 863 0 
L 184 0 
L 1544 1831 
L 300 3500 
L 978 3500 
L 1906 2253 
L 2834 3500 
L 3513 3500 
z
" transform="scale(0.015625)"/>
      <path id="DejaVuSans-20" transform="scale(0.015625)"/>
      <path id="DejaVuSans-46" d="M 628 4666 
L 3309 4666 
L 3309 4134 
L 1259 4134 
L 1259 2759 
L 3109 2759 
L 3109 2228 
L 1259 2228 
L 1259 0 
L 628 0 
L 628 4666 
z
" transform="scale(0.015625)"/>
      <path id="DejaVuSans-65" d="M 3597 1894 
L 3597 1613 
L 953 1613 
Q 991 1019 1311 708 
Q 1631 397 2203 397 
Q 2534 397 2845 478 
Q 3156 559 3463 722 
L 3463 178 
Q 3153 47 2828 -22 
Q 2503 -91 2169 -91 
Q 1331 -91 842 396 
Q 353 884 353 1716 
Q 353 2575 817 3079 
Q 1281 3584 2069 3584 
Q 2775 3584 3186 3129 
Q 3597 2675 3597 1894 
z
M 3022 2063 
Q 3016 2534 2758 2815 
Q 2500 3097 2075 3097 
Q 1594 3097 1305 2825 
Q 1016 2553 972 2059 
L 3022 2063 
z
" transform="scale(0.015625)"/>
      <path id="DejaVuSans-73" d="M 2834 3397 
L 2834 2853 
Q 2591 2978 2328 3040 
Q 2066 3103 1784 3103 
Q 1356 3103 1142 2972 
Q 928 2841 928 2578 
Q 928 2378 1081 2264 
Q 1234 2150 1697 2047 
L 1894 2003 
Q 2506 1872 2764 1633 
Q 3022 1394 3022 966 
Q 3022 478 2636 193 
Q 2250 -91 1575 -91 
Q 1294 -91 989 -36 
Q 684 19 347 128 
L 347 722 
Q 666 556 975 473 
Q 1284 391 1588 391 
Q 1994 391 2212 530 
Q 2431 669 2431 922 
Q 2431 1156 2273 1281 
Q 2116 1406 1581 1522 
L 1381 1569 
Q 847 1681 609 1914 
Q 372 2147 372 2553 
Q 372 3047 722 3315 
Q 1072 3584 1716 3584 
Q 2034 3584 2315 3537 
Q 2597 3491 2834 3397 
z
" transform="scale(0.015625)"/>
      <path id="DejaVuSans-69" d="M 603 3500 
L 1178 3500 
L 1178 0 
L 603 0 
L 603 3500 
z
M 603 4863 
L 1178 4863 
L 1178 4134 
L 603 4134 
L 603 4863 
z
" transform="scale(0.015625)"/>
      <path id="DejaVuSans-62" d="M 3116 1747 
Q 3116 2381 2855 2742 
Q 2594 3103 2138 3103 
Q 1681 3103 1420 2742 
Q 1159 2381 1159 1747 
Q 1159 1113 1420 752 
Q 1681 391 2138 391 
Q 2594 391 2855 752 
Q 3116 1113 3116 1747 
z
M 1159 2969 
Q 1341 3281 1617 3432 
Q 1894 3584 2278 3584 
Q 2916 3584 3314 3078 
Q 3713 2572 3713 1747 
Q 3713 922 3314 415 
Q 2916 -91 2278 -91 
Q 1894 -91 1617 61 
Q 1341 213 1159 525 
L 1159 0 
L 581 0 
L 581 4863 
L 1159 4863 
L 1159 2969 
z
" transform="scale(0.015625)"/>
      <path id="DejaVuSans-6c" d="M 603 4863 
L 1178 4863 
L 1178 0 
L 603 0 
L 603 4863 
z
" transform="scale(0.015625)"/>
      <path id="DejaVuSans-54" d="M -19 4666 
L 3928 4666 
L 3928 4134 
L 2272 4134 
L 2272 0 
L 1638 0 
L 1638 4134 
L -19 4134 
L -19 4666 
z
" transform="scale(0.015625)"/>
      <path id="DejaVuSans-72" d="M 2631 2963 
Q 2534 3019 2420 3045 
Q 2306 3072 2169 3072 
Q 1681 3072 1420 2755 
Q 1159 2438 1159 1844 
L 1159 0 
L 581 0 
L 581 3500 
L 1159 3500 
L 1159 2956 
Q 1341 3275 1631 3429 
Q 1922 3584 2338 3584 
Q 2397 3584 2469 3576 
Q 2541 3569 2628 3553 
L 2631 2963 
z
" transform="scale(0.015625)"/>
      <path id="DejaVuSans-42" d="M 1259 2228 
L 1259 519 
L 2272 519 
Q 2781 519 3026 730 
Q 3272 941 3272 1375 
Q 3272 1813 3026 2020 
Q 2781 2228 2272 2228 
L 1259 2228 
z
M 1259 4147 
L 1259 2741 
L 2194 2741 
Q 2656 2741 2882 2914 
Q 3109 3088 3109 3444 
Q 3109 3797 2882 3972 
Q 2656 4147 2194 4147 
L 1259 4147 
z
M 628 4666 
L 2241 4666 
Q 2963 4666 3353 4366 
Q 3744 4066 3744 3513 
Q 3744 3084 3544 2831 
Q 3344 2578 2956 2516 
Q 3422 2416 3680 2098 
Q 3938 1781 3938 1306 
Q 3938 681 3513 340 
Q 3088 0 2303 0 
L 628 0 
L 628 4666 
z
" transform="scale(0.015625)"/>
      <path id="DejaVuSans-2f" d="M 1625 4666 
L 2156 4666 
L 531 -594 
L 0 -594 
L 1625 4666 
z
" transform="scale(0.015625)"/>
      <path id="DejaVuSans-43" d="M 4122 4306 
L 4122 3641 
Q 3803 3938 3442 4084 
Q 3081 4231 2675 4231 
Q 1875 4231 1450 3742 
Q 1025 3253 1025 2328 
Q 1025 1406 1450 917 
Q 1875 428 2675 428 
Q 3081 428 3442 575 
Q 3803 722 4122 1019 
L 4122 359 
Q 3791 134 3420 21 
Q 3050 -91 2638 -91 
Q 1578 -91 968 557 
Q 359 1206 359 2328 
Q 359 3453 968 4101 
Q 1578 4750 2638 4750 
Q 3056 4750 3426 4639 
Q 3797 4528 4122 4306 
z
" transform="scale(0.015625)"/>
      <path id="DejaVuSans-6f" d="M 1959 3097 
Q 1497 3097 1228 2736 
Q 959 2375 959 1747 
Q 959 1119 1226 758 
Q 1494 397 1959 397 
Q 2419 397 2687 759 
Q 2956 1122 2956 1747 
Q 2956 2369 2687 2733 
Q 2419 3097 1959 3097 
z
M 1959 3584 
Q 2709 3584 3137 3096 
Q 3566 2609 3566 1747 
Q 3566 888 3137 398 
Q 2709 -91 1959 -91 
Q 1206 -91 779 398 
Q 353 888 353 1747 
Q 353 2609 779 3096 
Q 1206 3584 1959 3584 
z
" transform="scale(0.015625)"/>
      <path id="DejaVuSans-6d" d="M 3328 2828 
Q 3544 3216 3844 3400 
Q 4144 3584 4550 3584 
Q 5097 3584 5394 3201 
Q 5691 2819 5691 2113 
L 5691 0 
L 5113 0 
L 5113 2094 
Q 5113 2597 4934 2840 
Q 4756 3084 4391 3084 
Q 3944 3084 3684 2787 
Q 3425 2491 3425 1978 
L 3425 0 
L 2847 0 
L 2847 2094 
Q 2847 2600 2669 2842 
Q 2491 3084 2119 3084 
Q 1678 3084 1418 2786 
Q 1159 2488 1159 1978 
L 1159 0 
L 581 0 
L 581 3500 
L 1159 3500 
L 1159 2956 
Q 1356 3278 1631 3431 
Q 1906 3584 2284 3584 
Q 2666 3584 2933 3390 
Q 3200 3197 3328 2828 
z
" transform="scale(0.015625)"/>
      <path id="DejaVuSans-6e" d="M 3513 2113 
L 3513 0 
L 2938 0 
L 2938 2094 
Q 2938 2591 2744 2837 
Q 2550 3084 2163 3084 
Q 1697 3084 1428 2787 
Q 1159 2491 1159 1978 
L 1159 0 
L 581 0 
L 581 3500 
L 1159 3500 
L 1159 2956 
Q 1366 3272 1645 3428 
Q 1925 3584 2291 3584 
Q 2894 3584 3203 3211 
Q 3513 2838 3513 2113 
z
" transform="scale(0.015625)"/>
      <path id="DejaVuSans-74" d="M 1172 4494 
L 1172 3500 
L 2356 3500 
L 2356 3053 
L 1172 3053 
L 1172 1153 
Q 1172 725 1289 603 
Q 1406 481 1766 481 
L 2356 481 
L 2356 0 
L 1766 0 
Q 1100 0 847 248 
Q 594 497 594 1153 
L 594 3053 
L 172 3053 
L 172 3500 
L 594 3500 
L 594 4494 
L 1172 4494 
z
" transform="scale(0.015625)"/>
     </defs>
     <use xlink:href="#DejaVuSans-4d"/>
     <use xlink:href="#DejaVuSans-61" transform="translate(86.279297 0)"/>
     <use xlink:href="#DejaVuSans-78" transform="translate(147.558594 0)"/>
     <use xlink:href="#DejaVuSans-20" transform="translate(206.738281 0)"/>
     <use xlink:href="#DejaVuSans-46" transform="translate(238.525391 0)"/>
     <use xlink:href="#DejaVuSans-65" transform="translate(290.544922 0)"/>
     <use xlink:href="#DejaVuSans-61" transform="translate(352.068359 0)"/>
     <use xlink:href="#DejaVuSans-73" transform="translate(413.347656 0)"/>
     <use xlink:href="#DejaVuSans-69" transform="translate(465.447266 0)"/>
     <use xlink:href="#DejaVuSans-62" transform="translate(493.230469 0)"/>
     <use xlink:href="#DejaVuSans-6c" transform="translate(556.707031 0)"/>
     <use xlink:href="#DejaVuSans-65" transform="translate(584.490234 0)"/>
     <use xlink:href="#DejaVuSans-20" transform="translate(646.013672 0)"/>
     <use xlink:href="#DejaVuSans-54" transform="translate(677.800781 0)"/>
     <use xlink:href="#DejaVuSans-69" transform="translate(735.759766 0)"/>
     <use xlink:href="#DejaVuSans-65" transform="translate(763.542969 0)"/>
     <use xlink:href="#DejaVuSans-72" transform="translate(825.066406 0)"/>
     <use xlink:href="#DejaVuSans-20" transform="translate(866.179688 0)"/>
     <use xlink:href="#DejaVuSans-42" transform="translate(897.966797 0)"/>
     <use xlink:href="#DejaVuSans-31" transform="translate(966.570312 0)"/>
     <use xlink:href="#DejaVuSans-20" transform="translate(1030.193359 0)"/>
     <use xlink:href="#DejaVuSans-2f" transform="translate(1061.980469 0)"/>
     <use xlink:href="#DejaVuSans-20" transform="translate(1095.671875 0)"/>
     <use xlink:href="#DejaVuSans-42" transform="translate(1127.458984 0)"/>
     <use xlink:href="#DejaVuSans-32" transform="translate(1196.0625 0)"/>
     <use xlink:href="#DejaVuSans-20" transform="translate(1259.685547 0)"/>
     <use xlink:href="#DejaVuSans-43" transform="translate(1291.472656 0)"/>
     <use xlink:href="#DejaVuSans-6f" transform="translate(1361.296875 0)"/>
     <use xlink:href="#DejaVuSans-6d" transform="translate(1422.478516 0)"/>
     <use xlink:href="#DejaVuSans-62" transform="translate(1519.890625 0)"/>
     <use xlink:href="#DejaVuSans-69" transform="translate(1583.367188 0)"/>
     <use xlink:href="#DejaVuSans-6e" transform="translate(1611.150391 0)"/>
     <use xlink:href="#DejaVuSans-61" transform="translate(1674.529297 0)"/>
     <use xlink:href="#DejaVuSans-74" transform="translate(1735.808594 0)"/>
     <use xlink:href="#DejaVuSans-69" transform="translate(1775.017578 0)"/>
     <use xlink:href="#DejaVuSans-6f" transform="translate(1802.800781 0)"/>
     <use xlink:href="#DejaVuSans-6e" transform="translate(1863.982422 0)"/>
    </g>
   </g>
   <g id="line2d_67">
    <path d="M 425.940078 291.400469 
L 436.940078 291.400469 
L 447.940078 291.400469 
" style="fill: none; stroke-dasharray: 6.66,2.88; stroke-dashoffset: 0; stroke: #8c8c8c; stroke-width: 1.8"/>
   </g>
   <g id="text_31">
    <!-- Remaining Hardware Limit (16 MW - Tier A) -->
    <g transform="translate(456.740078 295.250469) scale(0.11 -0.11)">
     <defs>
      <path id="DejaVuSans-52" d="M 2841 2188 
Q 3044 2119 3236 1894 
Q 3428 1669 3622 1275 
L 4263 0 
L 3584 0 
L 2988 1197 
Q 2756 1666 2539 1819 
Q 2322 1972 1947 1972 
L 1259 1972 
L 1259 0 
L 628 0 
L 628 4666 
L 2053 4666 
Q 2853 4666 3247 4331 
Q 3641 3997 3641 3322 
Q 3641 2881 3436 2590 
Q 3231 2300 2841 2188 
z
M 1259 4147 
L 1259 2491 
L 2053 2491 
Q 2509 2491 2742 2702 
Q 2975 2913 2975 3322 
Q 2975 3731 2742 3939 
Q 2509 4147 2053 4147 
L 1259 4147 
z
" transform="scale(0.015625)"/>
      <path id="DejaVuSans-67" d="M 2906 1791 
Q 2906 2416 2648 2759 
Q 2391 3103 1925 3103 
Q 1463 3103 1205 2759 
Q 947 2416 947 1791 
Q 947 1169 1205 825 
Q 1463 481 1925 481 
Q 2391 481 2648 825 
Q 2906 1169 2906 1791 
z
M 3481 434 
Q 3481 -459 3084 -895 
Q 2688 -1331 1869 -1331 
Q 1566 -1331 1297 -1286 
Q 1028 -1241 775 -1147 
L 775 -588 
Q 1028 -725 1275 -790 
Q 1522 -856 1778 -856 
Q 2344 -856 2625 -561 
Q 2906 -266 2906 331 
L 2906 616 
Q 2728 306 2450 153 
Q 2172 0 1784 0 
Q 1141 0 747 490 
Q 353 981 353 1791 
Q 353 2603 747 3093 
Q 1141 3584 1784 3584 
Q 2172 3584 2450 3431 
Q 2728 3278 2906 2969 
L 2906 3500 
L 3481 3500 
L 3481 434 
z
" transform="scale(0.015625)"/>
      <path id="DejaVuSans-48" d="M 628 4666 
L 1259 4666 
L 1259 2753 
L 3553 2753 
L 3553 4666 
L 4184 4666 
L 4184 0 
L 3553 0 
L 3553 2222 
L 1259 2222 
L 1259 0 
L 628 0 
L 628 4666 
z
" transform="scale(0.015625)"/>
      <path id="DejaVuSans-64" d="M 2906 2969 
L 2906 4863 
L 3481 4863 
L 3481 0 
L 2906 0 
L 2906 525 
Q 2725 213 2448 61 
Q 2172 -91 1784 -91 
Q 1150 -91 751 415 
Q 353 922 353 1747 
Q 353 2572 751 3078 
Q 1150 3584 1784 3584 
Q 2172 3584 2448 3432 
Q 2725 3281 2906 2969 
z
M 947 1747 
Q 947 1113 1208 752 
Q 1469 391 1925 391 
Q 2381 391 2643 752 
Q 2906 1113 2906 1747 
Q 2906 2381 2643 2742 
Q 2381 3103 1925 3103 
Q 1469 3103 1208 2742 
Q 947 2381 947 1747 
z
" transform="scale(0.015625)"/>
      <path id="DejaVuSans-77" d="M 269 3500 
L 844 3500 
L 1563 769 
L 2278 3500 
L 2956 3500 
L 3675 769 
L 4391 3500 
L 4966 3500 
L 4050 0 
L 3372 0 
L 2619 2869 
L 1863 0 
L 1184 0 
L 269 3500 
z
" transform="scale(0.015625)"/>
      <path id="DejaVuSans-4c" d="M 628 4666 
L 1259 4666 
L 1259 531 
L 3531 531 
L 3531 0 
L 628 0 
L 628 4666 
z
" transform="scale(0.015625)"/>
      <path id="DejaVuSans-28" d="M 1984 4856 
Q 1566 4138 1362 3434 
Q 1159 2731 1159 2009 
Q 1159 1288 1364 580 
Q 1569 -128 1984 -844 
L 1484 -844 
Q 1016 -109 783 600 
Q 550 1309 550 2009 
Q 550 2706 781 3412 
Q 1013 4119 1484 4856 
L 1984 4856 
z
" transform="scale(0.015625)"/>
      <path id="DejaVuSans-57" d="M 213 4666 
L 850 4666 
L 1831 722 
L 2809 4666 
L 3519 4666 
L 4500 722 
L 5478 4666 
L 6119 4666 
L 4947 0 
L 4153 0 
L 3169 4050 
L 2175 0 
L 1381 0 
L 213 4666 
z
" transform="scale(0.015625)"/>
      <path id="DejaVuSans-2d" d="M 313 2009 
L 1997 2009 
L 1997 1497 
L 313 1497 
L 313 2009 
z
" transform="scale(0.015625)"/>
      <path id="DejaVuSans-41" d="M 2188 4044 
L 1331 1722 
L 3047 1722 
L 2188 4044 
z
M 1831 4666 
L 2547 4666 
L 4325 0 
L 3669 0 
L 3244 1197 
L 1141 1197 
L 716 0 
L 50 0 
L 1831 4666 
z
" transform="scale(0.015625)"/>
      <path id="DejaVuSans-29" d="M 513 4856 
L 1013 4856 
Q 1481 4119 1714 3412 
Q 1947 2706 1947 2009 
Q 1947 1309 1714 600 
Q 1481 -109 1013 -844 
L 513 -844 
Q 928 -128 1133 580 
Q 1338 1288 1338 2009 
Q 1338 2731 1133 3434 
Q 928 4138 513 4856 
z
" transform="scale(0.015625)"/>
     </defs>
     <use xlink:href="#DejaVuSans-52"/>
     <use xlink:href="#DejaVuSans-65" transform="translate(64.982422 0)"/>
     <use xlink:href="#DejaVuSans-6d" transform="translate(126.505859 0)"/>
     <use xlink:href="#DejaVuSans-61" transform="translate(223.917969 0)"/>
     <use xlink:href="#DejaVuSans-69" transform="translate(285.197266 0)"/>
     <use xlink:href="#DejaVuSans-6e" transform="translate(312.980469 0)"/>
     <use xlink:href="#DejaVuSans-69" transform="translate(376.359375 0)"/>
     <use xlink:href="#DejaVuSans-6e" transform="translate(404.142578 0)"/>
     <use xlink:href="#DejaVuSans-67" transform="translate(467.521484 0)"/>
     <use xlink:href="#DejaVuSans-20" transform="translate(530.998047 0)"/>
     <use xlink:href="#DejaVuSans-48" transform="translate(562.785156 0)"/>
     <use xlink:href="#DejaVuSans-61" transform="translate(637.980469 0)"/>
     <use xlink:href="#DejaVuSans-72" transform="translate(699.259766 0)"/>
     <use xlink:href="#DejaVuSans-64" transform="translate(738.623047 0)"/>
     <use xlink:href="#DejaVuSans-77" transform="translate(802.099609 0)"/>
     <use xlink:href="#DejaVuSans-61" transform="translate(883.886719 0)"/>
     <use xlink:href="#DejaVuSans-72" transform="translate(945.166016 0)"/>
     <use xlink:href="#DejaVuSans-65" transform="translate(984.029297 0)"/>
     <use xlink:href="#DejaVuSans-20" transform="translate(1045.552734 0)"/>
     <use xlink:href="#DejaVuSans-4c" transform="translate(1077.339844 0)"/>
     <use xlink:href="#DejaVuSans-69" transform="translate(1133.052734 0)"/>
     <use xlink:href="#DejaVuSans-6d" transform="translate(1160.835938 0)"/>
     <use xlink:href="#DejaVuSans-69" transform="translate(1258.248047 0)"/>
     <use xlink:href="#DejaVuSans-74" transform="translate(1286.03125 0)"/>
     <use xlink:href="#DejaVuSans-20" transform="translate(1325.240234 0)"/>
     <use xlink:href="#DejaVuSans-28" transform="translate(1357.027344 0)"/>
     <use xlink:href="#DejaVuSans-31" transform="translate(1396.041016 0)"/>
     <use xlink:href="#DejaVuSans-36" transform="translate(1459.664062 0)"/>
     <use xlink:href="#DejaVuSans-20" transform="translate(1523.287109 0)"/>
     <use xlink:href="#DejaVuSans-4d" transform="translate(1555.074219 0)"/>
     <use xlink:href="#DejaVuSans-57" transform="translate(1641.353516 0)"/>
     <use xlink:href="#DejaVuSans-20" transform="translate(1740.230469 0)"/>
     <use xlink:href="#DejaVuSans-2d" transform="translate(1772.017578 0)"/>
     <use xlink:href="#DejaVuSans-20" transform="translate(1808.101562 0)"/>
     <use xlink:href="#DejaVuSans-54" transform="translate(1839.888672 0)"/>
     <use xlink:href="#DejaVuSans-69" transform="translate(1897.847656 0)"/>
     <use xlink:href="#DejaVuSans-65" transform="translate(1925.630859 0)"/>
     <use xlink:href="#DejaVuSans-72" transform="translate(1987.154297 0)"/>
     <use xlink:href="#DejaVuSans-20" transform="translate(2028.267578 0)"/>
     <use xlink:href="#DejaVuSans-41" transform="translate(2060.054688 0)"/>
     <use xlink:href="#DejaVuSans-29" transform="translate(2128.462891 0)"/>
    </g>
   </g>
  </g>
 </g>
 <defs>
  <clipPath id="p51f447b59f">
   <rect x="40.384375" y="26.318125" width="260.12" height="216.12"/>
  </clipPath>
  <clipPath id="p1ecd1bf90b">
   <rect x="314.804375" y="26.318125" width="260.12" height="216.12"/>
  </clipPath>
  <clipPath id="p374db900f8">
   <rect x="589.224375" y="26.318125" width="260.12" height="216.12"/>
  </clipPath>
 </defs>
</svg>
