<?xml version="1.0" encoding="utf-8" standalone="no"?>
<!DOCTYPE svg PUBLIC "-//W3C//DTD SVG 1.1//EN"
  "http://www.w3.org/Graphics/SVG/1.1/DTD/svg11.dtd">
<svg xmlns:xlink="http://www.w3.org/1999/xlink" width="1072.945pt" height="425.98275pt" viewBox="0 0 1072.945 425.98275" xmlns="http://www.w3.org/2000/svg" version="1.1">
 <metadata>
  <rdf:RDF xmlns:dc="http://purl.org/dc/elements/1.1/" xmlns:cc="http://creativecommons.org/ns#" xmlns:rdf="http://www.w3.org/1999/02/22-rdf-syntax-ns#">
   <cc:Work>
    <dc:type rdf:resource="http://purl.org/dc/dcmitype/StillImage"/>
    <dc:date>2026-06-03T14:47:35.414771</dc:date>
    <dc:format>image/svg+xml</dc:format>
    <dc:creator>
     <cc:Agent>
      <dc:title>Matplotlib v3.10.8, https://matplotlib.org/</dc:title>
     </cc:Agent>
    </dc:creator>
   </cc:Work>
  </rdf:RDF>
 </metadata>
 <defs>
  <style type="text/css">*{stroke-linejoin: round; stroke-linecap: butt}</style>
 </defs>
 <g id="figure_1">
  <g id="patch_1">
   <path d="M 0 425.98275 
L 1072.945 425.98275 
L 1072.945 -0 
L 0 -0 
z
" style="fill: #ffffff"/>
  </g>
  <g id="axes_1">
   <g id="patch_2">
    <path d="M 43.905 348.24275 
L 374.978333 348.24275 
L 374.978333 48.51475 
L 43.905 48.51475 
z
" style="fill: #ffffff"/>
   </g>
   <g id="matplotlib.axis_1">
    <g id="xtick_1">
     <g id="line2d_1">
      <path d="M 43.905 348.24275 
L 43.905 48.51475 
" clip-path="url(#p21229de7d3)" style="fill: none; stroke: #b0b0b0; stroke-opacity: 0.3; stroke-width: 0.8; stroke-linecap: square"/>
     </g>
     <g id="line2d_2">
      <defs>
       <path id="m1fc3e2a8ad" d="M 0 0 
L 0 3.5 
" style="stroke: #333333; stroke-width: 0.8"/>
      </defs>
      <g>
       <use xlink:href="#m1fc3e2a8ad" x="43.905" y="348.24275" style="fill: #333333; stroke: #333333; stroke-width: 0.8"/>
      </g>
     </g>
     <g id="text_1">
      <!-- 0 -->
      <g style="fill: #333333" transform="translate(40.405625 363.601031) scale(0.11 -0.11)">
       <defs>
        <path id="DejaVuSans-30" d="M 2034 4250 
Q 1547 4250 1301 3770 
Q 1056 3291 1056 2328 
Q 1056 1369 1301 889 
Q 1547 409 2034 409 
Q 2525 409 2770 889 
Q 3016 1369 3016 2328 
Q 3016 3291 2770 3770 
Q 2525 4250 2034 4250 
z
M 2034 4750 
Q 2819 4750 3233 4129 
Q 3647 3509 3647 2328 
Q 3647 1150 3233 529 
Q 2819 -91 2034 -91 
Q 1250 -91 836 529 
Q 422 1150 422 2328 
Q 422 3509 836 4129 
Q 1250 4750 2034 4750 
z
" transform="scale(0.015625)"/>
       </defs>
       <use xlink:href="#DejaVuSans-30"/>
      </g>
     </g>
    </g>
    <g id="xtick_2">
     <g id="line2d_3">
      <path d="M 124.165202 348.24275 
L 124.165202 48.51475 
" clip-path="url(#p21229de7d3)" style="fill: none; stroke: #b0b0b0; stroke-opacity: 0.3; stroke-width: 0.8; stroke-linecap: square"/>
     </g>
     <g id="line2d_4">
      <g>
       <use xlink:href="#m1fc3e2a8ad" x="124.165202" y="348.24275" style="fill: #333333; stroke: #333333; stroke-width: 0.8"/>
      </g>
     </g>
     <g id="text_2">
      <!-- 4 -->
      <g style="fill: #333333" transform="translate(120.665827 363.601031) scale(0.11 -0.11)">
       <defs>
        <path id="DejaVuSans-34" d="M 2419 4116 
L 825 1625 
L 2419 1625 
L 2419 4116 
z
M 2253 4666 
L 3047 4666 
L 3047 1625 
L 3713 1625 
L 3713 1100 
L 3047 1100 
L 3047 0 
L 2419 0 
L 2419 1100 
L 313 1100 
L 313 1709 
L 2253 4666 
z
" transform="scale(0.015625)"/>
       </defs>
       <use xlink:href="#DejaVuSans-34"/>
      </g>
     </g>
    </g>
    <g id="xtick_3">
     <g id="line2d_5">
      <path d="M 204.425404 348.24275 
L 204.425404 48.51475 
" clip-path="url(#p21229de7d3)" style="fill: none; stroke: #b0b0b0; stroke-opacity: 0.3; stroke-width: 0.8; stroke-linecap: square"/>
     </g>
     <g id="line2d_6">
      <g>
       <use xlink:href="#m1fc3e2a8ad" x="204.425404" y="348.24275" style="fill: #333333; stroke: #333333; stroke-width: 0.8"/>
      </g>
     </g>
     <g id="text_3">
      <!-- 8 -->
      <g style="fill: #333333" transform="translate(200.926029 363.601031) scale(0.11 -0.11)">
       <defs>
        <path id="DejaVuSans-38" d="M 2034 2216 
Q 1584 2216 1326 1975 
Q 1069 1734 1069 1313 
Q 1069 891 1326 650 
Q 1584 409 2034 409 
Q 2484 409 2743 651 
Q 3003 894 3003 1313 
Q 3003 1734 2745 1975 
Q 2488 2216 2034 2216 
z
M 1403 2484 
Q 997 2584 770 2862 
Q 544 3141 544 3541 
Q 544 4100 942 4425 
Q 1341 4750 2034 4750 
Q 2731 4750 3128 4425 
Q 3525 4100 3525 3541 
Q 3525 3141 3298 2862 
Q 3072 2584 2669 2484 
Q 3125 2378 3379 2068 
Q 3634 1759 3634 1313 
Q 3634 634 3220 271 
Q 2806 -91 2034 -91 
Q 1263 -91 848 271 
Q 434 634 434 1313 
Q 434 1759 690 2068 
Q 947 2378 1403 2484 
z
M 1172 3481 
Q 1172 3119 1398 2916 
Q 1625 2713 2034 2713 
Q 2441 2713 2670 2916 
Q 2900 3119 2900 3481 
Q 2900 3844 2670 4047 
Q 2441 4250 2034 4250 
Q 1625 4250 1398 4047 
Q 1172 3844 1172 3481 
z
" transform="scale(0.015625)"/>
       </defs>
       <use xlink:href="#DejaVuSans-38"/>
      </g>
     </g>
    </g>
    <g id="xtick_4">
     <g id="line2d_7">
      <path d="M 284.685606 348.24275 
L 284.685606 48.51475 
" clip-path="url(#p21229de7d3)" style="fill: none; stroke: #b0b0b0; stroke-opacity: 0.3; stroke-width: 0.8; stroke-linecap: square"/>
     </g>
     <g id="line2d_8">
      <g>
       <use xlink:href="#m1fc3e2a8ad" x="284.685606" y="348.24275" style="fill: #333333; stroke: #333333; stroke-width: 0.8"/>
      </g>
     </g>
     <g id="text_4">
      <!-- 12 -->
      <g style="fill: #333333" transform="translate(277.686856 363.601031) scale(0.11 -0.11)">
       <defs>
        <path id="DejaVuSans-31" d="M 794 531 
L 1825 531 
L 1825 4091 
L 703 3866 
L 703 4441 
L 1819 4666 
L 2450 4666 
L 2450 531 
L 3481 531 
L 3481 0 
L 794 0 
L 794 531 
z
" transform="scale(0.015625)"/>
        <path id="DejaVuSans-32" d="M 1228 531 
L 3431 531 
L 3431 0 
L 469 0 
L 469 531 
Q 828 903 1448 1529 
Q 2069 2156 2228 2338 
Q 2531 2678 2651 2914 
Q 2772 3150 2772 3378 
Q 2772 3750 2511 3984 
Q 2250 4219 1831 4219 
Q 1534 4219 1204 4116 
Q 875 4013 500 3803 
L 500 4441 
Q 881 4594 1212 4672 
Q 1544 4750 1819 4750 
Q 2544 4750 2975 4387 
Q 3406 4025 3406 3419 
Q 3406 3131 3298 2873 
Q 3191 2616 2906 2266 
Q 2828 2175 2409 1742 
Q 1991 1309 1228 531 
z
" transform="scale(0.015625)"/>
       </defs>
       <use xlink:href="#DejaVuSans-31"/>
       <use xlink:href="#DejaVuSans-32" transform="translate(63.623047 0)"/>
      </g>
     </g>
    </g>
    <g id="xtick_5">
     <g id="line2d_9">
      <path d="M 364.945808 348.24275 
L 364.945808 48.51475 
" clip-path="url(#p21229de7d3)" style="fill: none; stroke: #b0b0b0; stroke-opacity: 0.3; stroke-width: 0.8; stroke-linecap: square"/>
     </g>
     <g id="line2d_10">
      <g>
       <use xlink:href="#m1fc3e2a8ad" x="364.945808" y="348.24275" style="fill: #333333; stroke: #333333; stroke-width: 0.8"/>
      </g>
     </g>
     <g id="text_5">
      <!-- 16 -->
      <g style="fill: #333333" transform="translate(357.947058 363.601031) scale(0.11 -0.11)">
       <defs>
        <path id="DejaVuSans-36" d="M 2113 2584 
Q 1688 2584 1439 2293 
Q 1191 2003 1191 1497 
Q 1191 994 1439 701 
Q 1688 409 2113 409 
Q 2538 409 2786 701 
Q 3034 994 3034 1497 
Q 3034 2003 2786 2293 
Q 2538 2584 2113 2584 
z
M 3366 4563 
L 3366 3988 
Q 3128 4100 2886 4159 
Q 2644 4219 2406 4219 
Q 1781 4219 1451 3797 
Q 1122 3375 1075 2522 
Q 1259 2794 1537 2939 
Q 1816 3084 2150 3084 
Q 2853 3084 3261 2657 
Q 3669 2231 3669 1497 
Q 3669 778 3244 343 
Q 2819 -91 2113 -91 
Q 1303 -91 875 529 
Q 447 1150 447 2328 
Q 447 3434 972 4092 
Q 1497 4750 2381 4750 
Q 2619 4750 2861 4703 
Q 3103 4656 3366 4563 
z
" transform="scale(0.015625)"/>
       </defs>
       <use xlink:href="#DejaVuSans-31"/>
       <use xlink:href="#DejaVuSans-36" transform="translate(63.623047 0)"/>
      </g>
     </g>
    </g>
    <g id="text_6">
     <!-- Tier B1 Capacity [MW] -->
     <g style="fill: #444444" transform="translate(133.986979 379.006812) scale(0.12 -0.12)">
      <defs>
       <path id="DejaVuSans-Bold-54" d="M 31 4666 
L 4331 4666 
L 4331 3756 
L 2784 3756 
L 2784 0 
L 1581 0 
L 1581 3756 
L 31 3756 
L 31 4666 
z
" transform="scale(0.015625)"/>
       <path id="DejaVuSans-Bold-69" d="M 538 3500 
L 1656 3500 
L 1656 0 
L 538 0 
L 538 3500 
z
M 538 4863 
L 1656 4863 
L 1656 3950 
L 538 3950 
L 538 4863 
z
" transform="scale(0.015625)"/>
       <path id="DejaVuSans-Bold-65" d="M 4031 1759 
L 4031 1441 
L 1416 1441 
Q 1456 1047 1700 850 
Q 1944 653 2381 653 
Q 2734 653 3104 758 
Q 3475 863 3866 1075 
L 3866 213 
Q 3469 63 3072 -14 
Q 2675 -91 2278 -91 
Q 1328 -91 801 392 
Q 275 875 275 1747 
Q 275 2603 792 3093 
Q 1309 3584 2216 3584 
Q 3041 3584 3536 3087 
Q 4031 2591 4031 1759 
z
M 2881 2131 
Q 2881 2450 2695 2645 
Q 2509 2841 2209 2841 
Q 1884 2841 1681 2658 
Q 1478 2475 1428 2131 
L 2881 2131 
z
" transform="scale(0.015625)"/>
       <path id="DejaVuSans-Bold-72" d="M 3138 2547 
Q 2991 2616 2845 2648 
Q 2700 2681 2553 2681 
Q 2122 2681 1889 2404 
Q 1656 2128 1656 1613 
L 1656 0 
L 538 0 
L 538 3500 
L 1656 3500 
L 1656 2925 
Q 1872 3269 2151 3426 
Q 2431 3584 2822 3584 
Q 2878 3584 2943 3579 
Q 3009 3575 3134 3559 
L 3138 2547 
z
" transform="scale(0.015625)"/>
       <path id="DejaVuSans-Bold-20" transform="scale(0.015625)"/>
       <path id="DejaVuSans-Bold-42" d="M 2456 2859 
Q 2741 2859 2887 2984 
Q 3034 3109 3034 3353 
Q 3034 3594 2887 3720 
Q 2741 3847 2456 3847 
L 1791 3847 
L 1791 2859 
L 2456 2859 
z
M 2497 819 
Q 2859 819 3042 972 
Q 3225 1125 3225 1434 
Q 3225 1738 3044 1889 
Q 2863 2041 2497 2041 
L 1791 2041 
L 1791 819 
L 2497 819 
z
M 3616 2497 
Q 4003 2384 4215 2081 
Q 4428 1778 4428 1338 
Q 4428 663 3972 331 
Q 3516 0 2584 0 
L 588 0 
L 588 4666 
L 2394 4666 
Q 3366 4666 3802 4372 
Q 4238 4078 4238 3431 
Q 4238 3091 4078 2852 
Q 3919 2613 3616 2497 
z
" transform="scale(0.015625)"/>
       <path id="DejaVuSans-Bold-31" d="M 750 831 
L 1813 831 
L 1813 3847 
L 722 3622 
L 722 4441 
L 1806 4666 
L 2950 4666 
L 2950 831 
L 4013 831 
L 4013 0 
L 750 0 
L 750 831 
z
" transform="scale(0.015625)"/>
       <path id="DejaVuSans-Bold-43" d="M 4288 256 
Q 3956 84 3597 -3 
Q 3238 -91 2847 -91 
Q 1681 -91 1000 561 
Q 319 1213 319 2328 
Q 319 3447 1000 4098 
Q 1681 4750 2847 4750 
Q 3238 4750 3597 4662 
Q 3956 4575 4288 4403 
L 4288 3438 
Q 3953 3666 3628 3772 
Q 3303 3878 2944 3878 
Q 2300 3878 1931 3465 
Q 1563 3053 1563 2328 
Q 1563 1606 1931 1193 
Q 2300 781 2944 781 
Q 3303 781 3628 887 
Q 3953 994 4288 1222 
L 4288 256 
z
" transform="scale(0.015625)"/>
       <path id="DejaVuSans-Bold-61" d="M 2106 1575 
Q 1756 1575 1579 1456 
Q 1403 1338 1403 1106 
Q 1403 894 1545 773 
Q 1688 653 1941 653 
Q 2256 653 2472 879 
Q 2688 1106 2688 1447 
L 2688 1575 
L 2106 1575 
z
M 3816 1997 
L 3816 0 
L 2688 0 
L 2688 519 
Q 2463 200 2181 54 
Q 1900 -91 1497 -91 
Q 953 -91 614 226 
Q 275 544 275 1050 
Q 275 1666 698 1953 
Q 1122 2241 2028 2241 
L 2688 2241 
L 2688 2328 
Q 2688 2594 2478 2717 
Q 2269 2841 1825 2841 
Q 1466 2841 1156 2769 
Q 847 2697 581 2553 
L 581 3406 
Q 941 3494 1303 3539 
Q 1666 3584 2028 3584 
Q 2975 3584 3395 3211 
Q 3816 2838 3816 1997 
z
" transform="scale(0.015625)"/>
       <path id="DejaVuSans-Bold-70" d="M 1656 506 
L 1656 -1331 
L 538 -1331 
L 538 3500 
L 1656 3500 
L 1656 2988 
Q 1888 3294 2169 3439 
Q 2450 3584 2816 3584 
Q 3463 3584 3878 3070 
Q 4294 2556 4294 1747 
Q 4294 938 3878 423 
Q 3463 -91 2816 -91 
Q 2450 -91 2169 54 
Q 1888 200 1656 506 
z
M 2400 2772 
Q 2041 2772 1848 2508 
Q 1656 2244 1656 1747 
Q 1656 1250 1848 986 
Q 2041 722 2400 722 
Q 2759 722 2948 984 
Q 3138 1247 3138 1747 
Q 3138 2247 2948 2509 
Q 2759 2772 2400 2772 
z
" transform="scale(0.015625)"/>
       <path id="DejaVuSans-Bold-63" d="M 3366 3391 
L 3366 2478 
Q 3138 2634 2908 2709 
Q 2678 2784 2431 2784 
Q 1963 2784 1702 2511 
Q 1441 2238 1441 1747 
Q 1441 1256 1702 982 
Q 1963 709 2431 709 
Q 2694 709 2930 787 
Q 3166 866 3366 1019 
L 3366 103 
Q 3103 6 2833 -42 
Q 2563 -91 2291 -91 
Q 1344 -91 809 395 
Q 275 881 275 1747 
Q 275 2613 809 3098 
Q 1344 3584 2291 3584 
Q 2566 3584 2833 3536 
Q 3100 3488 3366 3391 
z
" transform="scale(0.015625)"/>
       <path id="DejaVuSans-Bold-74" d="M 1759 4494 
L 1759 3500 
L 2913 3500 
L 2913 2700 
L 1759 2700 
L 1759 1216 
Q 1759 972 1856 886 
Q 1953 800 2241 800 
L 2816 800 
L 2816 0 
L 1856 0 
Q 1194 0 917 276 
Q 641 553 641 1216 
L 641 2700 
L 84 2700 
L 84 3500 
L 641 3500 
L 641 4494 
L 1759 4494 
z
" transform="scale(0.015625)"/>
       <path id="DejaVuSans-Bold-79" d="M 78 3500 
L 1197 3500 
L 2138 1125 
L 2938 3500 
L 4056 3500 
L 2584 -331 
Q 2363 -916 2067 -1148 
Q 1772 -1381 1288 -1381 
L 641 -1381 
L 641 -647 
L 991 -647 
Q 1275 -647 1404 -556 
Q 1534 -466 1606 -231 
L 1638 -134 
L 78 3500 
z
" transform="scale(0.015625)"/>
       <path id="DejaVuSans-Bold-5b" d="M 550 4863 
L 2491 4863 
L 2491 4159 
L 1613 4159 
L 1613 -141 
L 2491 -141 
L 2491 -844 
L 550 -844 
L 550 4863 
z
" transform="scale(0.015625)"/>
       <path id="DejaVuSans-Bold-4d" d="M 588 4666 
L 2119 4666 
L 3181 2169 
L 4250 4666 
L 5778 4666 
L 5778 0 
L 4641 0 
L 4641 3413 
L 3566 897 
L 2803 897 
L 1728 3413 
L 1728 0 
L 588 0 
L 588 4666 
z
" transform="scale(0.015625)"/>
       <path id="DejaVuSans-Bold-57" d="M 191 4666 
L 1344 4666 
L 2150 1275 
L 2950 4666 
L 4109 4666 
L 4909 1275 
L 5716 4666 
L 6859 4666 
L 5759 0 
L 4372 0 
L 3525 3547 
L 2688 0 
L 1300 0 
L 191 4666 
z
" transform="scale(0.015625)"/>
       <path id="DejaVuSans-Bold-5d" d="M 2375 -844 
L 434 -844 
L 434 -141 
L 1313 -141 
L 1313 4159 
L 434 4159 
L 434 4863 
L 2375 4863 
L 2375 -844 
z
" transform="scale(0.015625)"/>
      </defs>
      <use xlink:href="#DejaVuSans-Bold-54"/>
      <use xlink:href="#DejaVuSans-Bold-69" transform="translate(68.212891 0)"/>
      <use xlink:href="#DejaVuSans-Bold-65" transform="translate(102.490234 0)"/>
      <use xlink:href="#DejaVuSans-Bold-72" transform="translate(170.3125 0)"/>
      <use xlink:href="#DejaVuSans-Bold-20" transform="translate(219.628906 0)"/>
      <use xlink:href="#DejaVuSans-Bold-42" transform="translate(254.443359 0)"/>
      <use xlink:href="#DejaVuSans-Bold-31" transform="translate(330.664062 0)"/>
      <use xlink:href="#DejaVuSans-Bold-20" transform="translate(400.244141 0)"/>
      <use xlink:href="#DejaVuSans-Bold-43" transform="translate(435.058594 0)"/>
      <use xlink:href="#DejaVuSans-Bold-61" transform="translate(508.447266 0)"/>
      <use xlink:href="#DejaVuSans-Bold-70" transform="translate(575.927734 0)"/>
      <use xlink:href="#DejaVuSans-Bold-61" transform="translate(647.509766 0)"/>
      <use xlink:href="#DejaVuSans-Bold-63" transform="translate(714.990234 0)"/>
      <use xlink:href="#DejaVuSans-Bold-69" transform="translate(774.267578 0)"/>
      <use xlink:href="#DejaVuSans-Bold-74" transform="translate(808.544922 0)"/>
      <use xlink:href="#DejaVuSans-Bold-79" transform="translate(856.347656 0)"/>
      <use xlink:href="#DejaVuSans-Bold-20" transform="translate(921.533203 0)"/>
      <use xlink:href="#DejaVuSans-Bold-5b" transform="translate(956.347656 0)"/>
      <use xlink:href="#DejaVuSans-Bold-4d" transform="translate(1002.050781 0)"/>
      <use xlink:href="#DejaVuSans-Bold-57" transform="translate(1101.5625 0)"/>
      <use xlink:href="#DejaVuSans-Bold-5d" transform="translate(1211.865234 0)"/>
     </g>
    </g>
   </g>
   <g id="matplotlib.axis_2">
    <g id="ytick_1">
     <g id="line2d_11">
      <path d="M 43.905 348.24275 
L 374.978333 348.24275 
" clip-path="url(#p21229de7d3)" style="fill: none; stroke: #b0b0b0; stroke-opacity: 0.3; stroke-width: 0.8; stroke-linecap: square"/>
     </g>
     <g id="line2d_12">
      <defs>
       <path id="m84c5bef8dc" d="M 0 0 
L -3.5 0 
" style="stroke: #333333; stroke-width: 0.8"/>
      </defs>
      <g>
       <use xlink:href="#m84c5bef8dc" x="43.905" y="348.24275" style="fill: #333333; stroke: #333333; stroke-width: 0.8"/>
      </g>
     </g>
     <g id="text_7">
      <!-- 0 -->
      <g style="fill: #333333" transform="translate(29.90625 352.421891) scale(0.11 -0.11)">
       <use xlink:href="#DejaVuSans-30"/>
      </g>
     </g>
    </g>
    <g id="ytick_2">
     <g id="line2d_13">
      <path d="M 43.905 275.581417 
L 374.978333 275.581417 
" clip-path="url(#p21229de7d3)" style="fill: none; stroke: #b0b0b0; stroke-opacity: 0.3; stroke-width: 0.8; stroke-linecap: square"/>
     </g>
     <g id="line2d_14">
      <g>
       <use xlink:href="#m84c5bef8dc" x="43.905" y="275.581417" style="fill: #333333; stroke: #333333; stroke-width: 0.8"/>
      </g>
     </g>
     <g id="text_8">
      <!-- 4 -->
      <g style="fill: #333333" transform="translate(29.90625 279.760557) scale(0.11 -0.11)">
       <use xlink:href="#DejaVuSans-34"/>
      </g>
     </g>
    </g>
    <g id="ytick_3">
     <g id="line2d_15">
      <path d="M 43.905 202.920083 
L 374.978333 202.920083 
" clip-path="url(#p21229de7d3)" style="fill: none; stroke: #b0b0b0; stroke-opacity: 0.3; stroke-width: 0.8; stroke-linecap: square"/>
     </g>
     <g id="line2d_16">
      <g>
       <use xlink:href="#m84c5bef8dc" x="43.905" y="202.920083" style="fill: #333333; stroke: #333333; stroke-width: 0.8"/>
      </g>
     </g>
     <g id="text_9">
      <!-- 8 -->
      <g style="fill: #333333" transform="translate(29.90625 207.099224) scale(0.11 -0.11)">
       <use xlink:href="#DejaVuSans-38"/>
      </g>
     </g>
    </g>
    <g id="ytick_4">
     <g id="line2d_17">
      <path d="M 43.905 130.25875 
L 374.978333 130.25875 
" clip-path="url(#p21229de7d3)" style="fill: none; stroke: #b0b0b0; stroke-opacity: 0.3; stroke-width: 0.8; stroke-linecap: square"/>
     </g>
     <g id="line2d_18">
      <g>
       <use xlink:href="#m84c5bef8dc" x="43.905" y="130.25875" style="fill: #333333; stroke: #333333; stroke-width: 0.8"/>
      </g>
     </g>
     <g id="text_10">
      <!-- 12 -->
      <g style="fill: #333333" transform="translate(22.9075 134.437891) scale(0.11 -0.11)">
       <use xlink:href="#DejaVuSans-31"/>
       <use xlink:href="#DejaVuSans-32" transform="translate(63.623047 0)"/>
      </g>
     </g>
    </g>
    <g id="ytick_5">
     <g id="line2d_19">
      <path d="M 43.905 57.597417 
L 374.978333 57.597417 
" clip-path="url(#p21229de7d3)" style="fill: none; stroke: #b0b0b0; stroke-opacity: 0.3; stroke-width: 0.8; stroke-linecap: square"/>
     </g>
     <g id="line2d_20">
      <g>
       <use xlink:href="#m84c5bef8dc" x="43.905" y="57.597417" style="fill: #333333; stroke: #333333; stroke-width: 0.8"/>
      </g>
     </g>
     <g id="text_11">
      <!-- 16 -->
      <g style="fill: #333333" transform="translate(22.9075 61.776557) scale(0.11 -0.11)">
       <use xlink:href="#DejaVuSans-31"/>
       <use xlink:href="#DejaVuSans-36" transform="translate(63.623047 0)"/>
      </g>
     </g>
    </g>
    <g id="text_12">
     <!-- Tier B2 Capacity [MW] -->
     <g style="fill: #444444" transform="translate(16.318125 273.833437) rotate(-90) scale(0.12 -0.12)">
      <defs>
       <path id="DejaVuSans-Bold-32" d="M 1844 884 
L 3897 884 
L 3897 0 
L 506 0 
L 506 884 
L 2209 2388 
Q 2438 2594 2547 2791 
Q 2656 2988 2656 3200 
Q 2656 3528 2436 3728 
Q 2216 3928 1850 3928 
Q 1569 3928 1234 3808 
Q 900 3688 519 3450 
L 519 4475 
Q 925 4609 1322 4679 
Q 1719 4750 2100 4750 
Q 2938 4750 3402 4381 
Q 3866 4013 3866 3353 
Q 3866 2972 3669 2642 
Q 3472 2313 2841 1759 
L 1844 884 
z
" transform="scale(0.015625)"/>
      </defs>
      <use xlink:href="#DejaVuSans-Bold-54"/>
      <use xlink:href="#DejaVuSans-Bold-69" transform="translate(68.212891 0)"/>
      <use xlink:href="#DejaVuSans-Bold-65" transform="translate(102.490234 0)"/>
      <use xlink:href="#DejaVuSans-Bold-72" transform="translate(170.3125 0)"/>
      <use xlink:href="#DejaVuSans-Bold-20" transform="translate(219.628906 0)"/>
      <use xlink:href="#DejaVuSans-Bold-42" transform="translate(254.443359 0)"/>
      <use xlink:href="#DejaVuSans-Bold-32" transform="translate(330.664062 0)"/>
      <use xlink:href="#DejaVuSans-Bold-20" transform="translate(400.244141 0)"/>
      <use xlink:href="#DejaVuSans-Bold-43" transform="translate(435.058594 0)"/>
      <use xlink:href="#DejaVuSans-Bold-61" transform="translate(508.447266 0)"/>
      <use xlink:href="#DejaVuSans-Bold-70" transform="translate(575.927734 0)"/>
      <use xlink:href="#DejaVuSans-Bold-61" transform="translate(647.509766 0)"/>
      <use xlink:href="#DejaVuSans-Bold-63" transform="translate(714.990234 0)"/>
      <use xlink:href="#DejaVuSans-Bold-69" transform="translate(774.267578 0)"/>
      <use xlink:href="#DejaVuSans-Bold-74" transform="translate(808.544922 0)"/>
      <use xlink:href="#DejaVuSans-Bold-79" transform="translate(856.347656 0)"/>
      <use xlink:href="#DejaVuSans-Bold-20" transform="translate(921.533203 0)"/>
      <use xlink:href="#DejaVuSans-Bold-5b" transform="translate(956.347656 0)"/>
      <use xlink:href="#DejaVuSans-Bold-4d" transform="translate(1002.050781 0)"/>
      <use xlink:href="#DejaVuSans-Bold-57" transform="translate(1101.5625 0)"/>
      <use xlink:href="#DejaVuSans-Bold-5d" transform="translate(1211.865234 0)"/>
     </g>
    </g>
   </g>
   <g id="FillBetweenPolyCollection_1">
    <defs>
     <path id="m3a5a6d8255" d="M 43.905 -368.385333 
L 43.905 -77.74 
L 63.970051 -77.74 
L 84.035101 -77.74 
L 104.100152 -77.74 
L 124.165202 -77.74 
L 144.230253 -77.74 
L 164.295303 -77.74 
L 184.360354 -77.74 
L 204.425404 -77.74 
L 224.490455 -77.74 
L 244.555505 -77.74 
L 264.620556 -77.74 
L 284.685606 -77.74 
L 304.750657 -77.74 
L 324.815707 -77.74 
L 324.815707 -77.74 
L 324.815707 -77.74 
L 324.815707 -77.74 
L 324.815707 -95.905333 
L 304.750657 -114.070667 
L 284.685606 -132.236 
L 264.620556 -150.401333 
L 244.555505 -168.566667 
L 224.490455 -186.732 
L 204.425404 -204.897333 
L 184.360354 -223.062667 
L 164.295303 -241.228 
L 144.230253 -259.393333 
L 124.165202 -277.558667 
L 104.100152 -295.724 
L 84.035101 -313.889333 
L 63.970051 -350.22 
L 43.905 -368.385333 
z
" style="stroke: #73b3d8; stroke-opacity: 0.4"/>
    </defs>
    <g clip-path="url(#p21229de7d3)">
     <use xlink:href="#m3a5a6d8255" x="0" y="425.98275" style="fill: #73b3d8; fill-opacity: 0.4; stroke: #73b3d8; stroke-opacity: 0.4"/>
    </g>
   </g>
   <g id="patch_3">
    <path d="M 43.905 348.24275 
L 43.905 48.51475 
" style="fill: none; stroke: #444444; stroke-width: 1.2; stroke-linejoin: miter; stroke-linecap: square"/>
   </g>
   <g id="patch_4">
    <path d="M 43.905 348.24275 
L 374.978333 348.24275 
" style="fill: none; stroke: #444444; stroke-width: 1.2; stroke-linejoin: miter; stroke-linecap: square"/>
   </g>
   <g id="FillBetweenPolyCollection_2">
    <path d="M 43.905 57.597417 
L 43.905 57.597417 
L 63.970051 75.76275 
L 84.035101 112.093417 
L 104.100152 130.25875 
L 124.165202 148.424083 
L 144.230253 166.589417 
L 164.295303 184.75475 
L 184.360354 202.920083 
L 204.425404 221.085417 
L 224.490455 239.25075 
L 244.555505 257.416083 
L 264.620556 275.581417 
L 284.685606 293.74675 
L 304.750657 311.912083 
L 324.815707 330.077417 
L 324.815707 348.24275 
L 364.945808 348.24275 
L 364.945808 348.24275 
L 364.945808 348.24275 
L 324.815707 311.912083 
L 324.815707 311.912083 
L 304.750657 293.74675 
L 284.685606 275.581417 
L 264.620556 257.416083 
L 244.555505 239.25075 
L 224.490455 221.085417 
L 204.425404 202.920083 
L 184.360354 184.75475 
L 164.295303 166.589417 
L 144.230253 148.424083 
L 124.165202 130.25875 
L 104.100152 112.093417 
L 84.035101 93.928083 
L 63.970051 75.76275 
L 43.905 57.597417 
z
" clip-path="url(#p21229de7d3)" style="fill: url(#h1161c6835e); stroke: #c0392b; stroke-opacity: 0.3"/>
   </g>
   <g id="text_13">
    <!-- A. Tier A = 0 MW -->
    <g style="fill: #333333" transform="translate(142.834479 17.837812) scale(0.14 -0.14)">
     <defs>
      <path id="DejaVuSans-Bold-41" d="M 3419 850 
L 1538 850 
L 1241 0 
L 31 0 
L 1759 4666 
L 3194 4666 
L 4922 0 
L 3713 0 
L 3419 850 
z
M 1838 1716 
L 3116 1716 
L 2478 3572 
L 1838 1716 
z
" transform="scale(0.015625)"/>
      <path id="DejaVuSans-Bold-2e" d="M 653 1209 
L 1778 1209 
L 1778 0 
L 653 0 
L 653 1209 
z
" transform="scale(0.015625)"/>
      <path id="DejaVuSans-Bold-3d" d="M 678 3084 
L 4684 3084 
L 4684 2350 
L 678 2350 
L 678 3084 
z
M 678 1663 
L 4684 1663 
L 4684 922 
L 678 922 
L 678 1663 
z
" transform="scale(0.015625)"/>
      <path id="DejaVuSans-Bold-30" d="M 2944 2338 
Q 2944 3213 2780 3570 
Q 2616 3928 2228 3928 
Q 1841 3928 1675 3570 
Q 1509 3213 1509 2338 
Q 1509 1453 1675 1090 
Q 1841 728 2228 728 
Q 2613 728 2778 1090 
Q 2944 1453 2944 2338 
z
M 4147 2328 
Q 4147 1169 3647 539 
Q 3147 -91 2228 -91 
Q 1306 -91 806 539 
Q 306 1169 306 2328 
Q 306 3491 806 4120 
Q 1306 4750 2228 4750 
Q 3147 4750 3647 4120 
Q 4147 3491 4147 2328 
z
" transform="scale(0.015625)"/>
     </defs>
     <use xlink:href="#DejaVuSans-Bold-41"/>
     <use xlink:href="#DejaVuSans-Bold-2e" transform="translate(79.267578 0)"/>
     <use xlink:href="#DejaVuSans-Bold-20" transform="translate(117.255859 0)"/>
     <use xlink:href="#DejaVuSans-Bold-54" transform="translate(152.070312 0)"/>
     <use xlink:href="#DejaVuSans-Bold-69" transform="translate(220.283203 0)"/>
     <use xlink:href="#DejaVuSans-Bold-65" transform="translate(254.560547 0)"/>
     <use xlink:href="#DejaVuSans-Bold-72" transform="translate(322.382812 0)"/>
     <use xlink:href="#DejaVuSans-Bold-20" transform="translate(371.699219 0)"/>
     <use xlink:href="#DejaVuSans-Bold-41" transform="translate(406.513672 0)"/>
     <use xlink:href="#DejaVuSans-Bold-20" transform="translate(483.90625 0)"/>
     <use xlink:href="#DejaVuSans-Bold-3d" transform="translate(518.720703 0)"/>
     <use xlink:href="#DejaVuSans-Bold-20" transform="translate(602.509766 0)"/>
     <use xlink:href="#DejaVuSans-Bold-30" transform="translate(637.324219 0)"/>
     <use xlink:href="#DejaVuSans-Bold-20" transform="translate(706.904297 0)"/>
     <use xlink:href="#DejaVuSans-Bold-4d" transform="translate(741.71875 0)"/>
     <use xlink:href="#DejaVuSans-Bold-57" transform="translate(841.230469 0)"/>
    </g>
    <!-- (Maximum Flexibility) -->
    <g style="fill: #333333" transform="translate(123.467448 33.51475) scale(0.14 -0.14)">
     <defs>
      <path id="DejaVuSans-Bold-28" d="M 2413 -844 
L 1484 -844 
Q 1006 -72 778 623 
Q 550 1319 550 2003 
Q 550 2688 779 3389 
Q 1009 4091 1484 4856 
L 2413 4856 
Q 2013 4116 1813 3408 
Q 1613 2700 1613 2009 
Q 1613 1319 1811 609 
Q 2009 -100 2413 -844 
z
" transform="scale(0.015625)"/>
      <path id="DejaVuSans-Bold-78" d="M 1422 1791 
L 159 3500 
L 1344 3500 
L 2059 2463 
L 2784 3500 
L 3969 3500 
L 2706 1797 
L 4031 0 
L 2847 0 
L 2059 1106 
L 1281 0 
L 97 0 
L 1422 1791 
z
" transform="scale(0.015625)"/>
      <path id="DejaVuSans-Bold-6d" d="M 3781 2919 
Q 3994 3244 4286 3414 
Q 4578 3584 4928 3584 
Q 5531 3584 5847 3212 
Q 6163 2841 6163 2131 
L 6163 0 
L 5038 0 
L 5038 1825 
Q 5041 1866 5042 1909 
Q 5044 1953 5044 2034 
Q 5044 2406 4934 2573 
Q 4825 2741 4581 2741 
Q 4263 2741 4089 2478 
Q 3916 2216 3909 1719 
L 3909 0 
L 2784 0 
L 2784 1825 
Q 2784 2406 2684 2573 
Q 2584 2741 2328 2741 
Q 2006 2741 1831 2477 
Q 1656 2213 1656 1722 
L 1656 0 
L 531 0 
L 531 3500 
L 1656 3500 
L 1656 2988 
Q 1863 3284 2130 3434 
Q 2397 3584 2719 3584 
Q 3081 3584 3359 3409 
Q 3638 3234 3781 2919 
z
" transform="scale(0.015625)"/>
      <path id="DejaVuSans-Bold-75" d="M 500 1363 
L 500 3500 
L 1625 3500 
L 1625 3150 
Q 1625 2866 1622 2436 
Q 1619 2006 1619 1863 
Q 1619 1441 1641 1255 
Q 1663 1069 1716 984 
Q 1784 875 1895 815 
Q 2006 756 2150 756 
Q 2500 756 2700 1025 
Q 2900 1294 2900 1772 
L 2900 3500 
L 4019 3500 
L 4019 0 
L 2900 0 
L 2900 506 
Q 2647 200 2364 54 
Q 2081 -91 1741 -91 
Q 1134 -91 817 281 
Q 500 653 500 1363 
z
" transform="scale(0.015625)"/>
      <path id="DejaVuSans-Bold-46" d="M 588 4666 
L 3834 4666 
L 3834 3756 
L 1791 3756 
L 1791 2888 
L 3713 2888 
L 3713 1978 
L 1791 1978 
L 1791 0 
L 588 0 
L 588 4666 
z
" transform="scale(0.015625)"/>
      <path id="DejaVuSans-Bold-6c" d="M 538 4863 
L 1656 4863 
L 1656 0 
L 538 0 
L 538 4863 
z
" transform="scale(0.015625)"/>
      <path id="DejaVuSans-Bold-62" d="M 2400 722 
Q 2759 722 2948 984 
Q 3138 1247 3138 1747 
Q 3138 2247 2948 2509 
Q 2759 2772 2400 2772 
Q 2041 2772 1848 2508 
Q 1656 2244 1656 1747 
Q 1656 1250 1848 986 
Q 2041 722 2400 722 
z
M 1656 2988 
Q 1888 3294 2169 3439 
Q 2450 3584 2816 3584 
Q 3463 3584 3878 3070 
Q 4294 2556 4294 1747 
Q 4294 938 3878 423 
Q 3463 -91 2816 -91 
Q 2450 -91 2169 54 
Q 1888 200 1656 506 
L 1656 0 
L 538 0 
L 538 4863 
L 1656 4863 
L 1656 2988 
z
" transform="scale(0.015625)"/>
      <path id="DejaVuSans-Bold-29" d="M 513 -844 
Q 913 -100 1113 609 
Q 1313 1319 1313 2009 
Q 1313 2700 1113 3408 
Q 913 4116 513 4856 
L 1441 4856 
Q 1916 4091 2145 3389 
Q 2375 2688 2375 2003 
Q 2375 1319 2147 623 
Q 1919 -72 1441 -844 
L 513 -844 
z
" transform="scale(0.015625)"/>
     </defs>
     <use xlink:href="#DejaVuSans-Bold-28"/>
     <use xlink:href="#DejaVuSans-Bold-4d" transform="translate(45.703125 0)"/>
     <use xlink:href="#DejaVuSans-Bold-61" transform="translate(145.214844 0)"/>
     <use xlink:href="#DejaVuSans-Bold-78" transform="translate(212.695312 0)"/>
     <use xlink:href="#DejaVuSans-Bold-69" transform="translate(277.197266 0)"/>
     <use xlink:href="#DejaVuSans-Bold-6d" transform="translate(311.474609 0)"/>
     <use xlink:href="#DejaVuSans-Bold-75" transform="translate(415.673828 0)"/>
     <use xlink:href="#DejaVuSans-Bold-6d" transform="translate(486.865234 0)"/>
     <use xlink:href="#DejaVuSans-Bold-20" transform="translate(591.064453 0)"/>
     <use xlink:href="#DejaVuSans-Bold-46" transform="translate(625.878906 0)"/>
     <use xlink:href="#DejaVuSans-Bold-6c" transform="translate(694.189453 0)"/>
     <use xlink:href="#DejaVuSans-Bold-65" transform="translate(728.466797 0)"/>
     <use xlink:href="#DejaVuSans-Bold-78" transform="translate(796.289062 0)"/>
     <use xlink:href="#DejaVuSans-Bold-69" transform="translate(860.791016 0)"/>
     <use xlink:href="#DejaVuSans-Bold-62" transform="translate(895.068359 0)"/>
     <use xlink:href="#DejaVuSans-Bold-69" transform="translate(966.650391 0)"/>
     <use xlink:href="#DejaVuSans-Bold-6c" transform="translate(1000.927734 0)"/>
     <use xlink:href="#DejaVuSans-Bold-69" transform="translate(1035.205078 0)"/>
     <use xlink:href="#DejaVuSans-Bold-74" transform="translate(1069.482422 0)"/>
     <use xlink:href="#DejaVuSans-Bold-79" transform="translate(1117.285156 0)"/>
     <use xlink:href="#DejaVuSans-Bold-29" transform="translate(1182.470703 0)"/>
    </g>
   </g>
   <g id="line2d_21">
    <path d="M 43.905 57.597417 
L 63.970051 75.76275 
L 84.035101 112.093417 
L 104.100152 130.25875 
L 124.165202 148.424083 
L 144.230253 166.589417 
L 164.295303 184.75475 
L 184.360354 202.920083 
L 204.425404 221.085417 
L 224.490455 239.25075 
L 244.555505 257.416083 
L 264.620556 275.581417 
L 284.685606 293.74675 
L 304.750657 311.912083 
L 324.815707 330.077417 
L 324.815707 348.24275 
" clip-path="url(#p21229de7d3)" style="fill: none; stroke: #113b5e; stroke-width: 3; stroke-linecap: square"/>
   </g>
   <g id="line2d_22">
    <path d="M 43.905 57.597417 
L 364.945808 348.24275 
" clip-path="url(#p21229de7d3)" style="fill: none; stroke-dasharray: 7.4,3.2; stroke-dashoffset: 0; stroke: #7f8c8d; stroke-width: 2"/>
   </g>
  </g>
  <g id="axes_2">
   <g id="patch_5">
    <path d="M 389.288333 348.24275 
L 720.361667 348.24275 
L 720.361667 48.51475 
L 389.288333 48.51475 
z
" style="fill: #ffffff"/>
   </g>
   <g id="matplotlib.axis_3">
    <g id="xtick_6">
     <g id="line2d_23">
      <path d="M 389.288333 348.24275 
L 389.288333 48.51475 
" clip-path="url(#p0596ec5d94)" style="fill: none; stroke: #b0b0b0; stroke-opacity: 0.3; stroke-width: 0.8; stroke-linecap: square"/>
     </g>
     <g id="line2d_24">
      <g>
       <use xlink:href="#m1fc3e2a8ad" x="389.288333" y="348.24275" style="fill: #333333; stroke: #333333; stroke-width: 0.8"/>
      </g>
     </g>
     <g id="text_14">
      <!-- 0 -->
      <g style="fill: #333333" transform="translate(385.788958 363.601031) scale(0.11 -0.11)">
       <use xlink:href="#DejaVuSans-30"/>
      </g>
     </g>
    </g>
    <g id="xtick_7">
     <g id="line2d_25">
      <path d="M 469.548535 348.24275 
L 469.548535 48.51475 
" clip-path="url(#p0596ec5d94)" style="fill: none; stroke: #b0b0b0; stroke-opacity: 0.3; stroke-width: 0.8; stroke-linecap: square"/>
     </g>
     <g id="line2d_26">
      <g>
       <use xlink:href="#m1fc3e2a8ad" x="469.548535" y="348.24275" style="fill: #333333; stroke: #333333; stroke-width: 0.8"/>
      </g>
     </g>
     <g id="text_15">
      <!-- 4 -->
      <g style="fill: #333333" transform="translate(466.04916 363.601031) scale(0.11 -0.11)">
       <use xlink:href="#DejaVuSans-34"/>
      </g>
     </g>
    </g>
    <g id="xtick_8">
     <g id="line2d_27">
      <path d="M 549.808737 348.24275 
L 549.808737 48.51475 
" clip-path="url(#p0596ec5d94)" style="fill: none; stroke: #b0b0b0; stroke-opacity: 0.3; stroke-width: 0.8; stroke-linecap: square"/>
     </g>
     <g id="line2d_28">
      <g>
       <use xlink:href="#m1fc3e2a8ad" x="549.808737" y="348.24275" style="fill: #333333; stroke: #333333; stroke-width: 0.8"/>
      </g>
     </g>
     <g id="text_16">
      <!-- 8 -->
      <g style="fill: #333333" transform="translate(546.309362 363.601031) scale(0.11 -0.11)">
       <use xlink:href="#DejaVuSans-38"/>
      </g>
     </g>
    </g>
    <g id="xtick_9">
     <g id="line2d_29">
      <path d="M 630.068939 348.24275 
L 630.068939 48.51475 
" clip-path="url(#p0596ec5d94)" style="fill: none; stroke: #b0b0b0; stroke-opacity: 0.3; stroke-width: 0.8; stroke-linecap: square"/>
     </g>
     <g id="line2d_30">
      <g>
       <use xlink:href="#m1fc3e2a8ad" x="630.068939" y="348.24275" style="fill: #333333; stroke: #333333; stroke-width: 0.8"/>
      </g>
     </g>
     <g id="text_17">
      <!-- 12 -->
      <g style="fill: #333333" transform="translate(623.070189 363.601031) scale(0.11 -0.11)">
       <use xlink:href="#DejaVuSans-31"/>
       <use xlink:href="#DejaVuSans-32" transform="translate(63.623047 0)"/>
      </g>
     </g>
    </g>
    <g id="xtick_10">
     <g id="line2d_31">
      <path d="M 710.329141 348.24275 
L 710.329141 48.51475 
" clip-path="url(#p0596ec5d94)" style="fill: none; stroke: #b0b0b0; stroke-opacity: 0.3; stroke-width: 0.8; stroke-linecap: square"/>
     </g>
     <g id="line2d_32">
      <g>
       <use xlink:href="#m1fc3e2a8ad" x="710.329141" y="348.24275" style="fill: #333333; stroke: #333333; stroke-width: 0.8"/>
      </g>
     </g>
     <g id="text_18">
      <!-- 16 -->
      <g style="fill: #333333" transform="translate(703.330391 363.601031) scale(0.11 -0.11)">
       <use xlink:href="#DejaVuSans-31"/>
       <use xlink:href="#DejaVuSans-36" transform="translate(63.623047 0)"/>
      </g>
     </g>
    </g>
    <g id="text_19">
     <!-- Tier B1 Capacity [MW] -->
     <g style="fill: #444444" transform="translate(479.370313 379.006812) scale(0.12 -0.12)">
      <use xlink:href="#DejaVuSans-Bold-54"/>
      <use xlink:href="#DejaVuSans-Bold-69" transform="translate(68.212891 0)"/>
      <use xlink:href="#DejaVuSans-Bold-65" transform="translate(102.490234 0)"/>
      <use xlink:href="#DejaVuSans-Bold-72" transform="translate(170.3125 0)"/>
      <use xlink:href="#DejaVuSans-Bold-20" transform="translate(219.628906 0)"/>
      <use xlink:href="#DejaVuSans-Bold-42" transform="translate(254.443359 0)"/>
      <use xlink:href="#DejaVuSans-Bold-31" transform="translate(330.664062 0)"/>
      <use xlink:href="#DejaVuSans-Bold-20" transform="translate(400.244141 0)"/>
      <use xlink:href="#DejaVuSans-Bold-43" transform="translate(435.058594 0)"/>
      <use xlink:href="#DejaVuSans-Bold-61" transform="translate(508.447266 0)"/>
      <use xlink:href="#DejaVuSans-Bold-70" transform="translate(575.927734 0)"/>
      <use xlink:href="#DejaVuSans-Bold-61" transform="translate(647.509766 0)"/>
      <use xlink:href="#DejaVuSans-Bold-63" transform="translate(714.990234 0)"/>
      <use xlink:href="#DejaVuSans-Bold-69" transform="translate(774.267578 0)"/>
      <use xlink:href="#DejaVuSans-Bold-74" transform="translate(808.544922 0)"/>
      <use xlink:href="#DejaVuSans-Bold-79" transform="translate(856.347656 0)"/>
      <use xlink:href="#DejaVuSans-Bold-20" transform="translate(921.533203 0)"/>
      <use xlink:href="#DejaVuSans-Bold-5b" transform="translate(956.347656 0)"/>
      <use xlink:href="#DejaVuSans-Bold-4d" transform="translate(1002.050781 0)"/>
      <use xlink:href="#DejaVuSans-Bold-57" transform="translate(1101.5625 0)"/>
      <use xlink:href="#DejaVuSans-Bold-5d" transform="translate(1211.865234 0)"/>
     </g>
    </g>
   </g>
   <g id="matplotlib.axis_4">
    <g id="ytick_6">
     <g id="line2d_33">
      <path d="M 389.288333 348.24275 
L 720.361667 348.24275 
" clip-path="url(#p0596ec5d94)" style="fill: none; stroke: #b0b0b0; stroke-opacity: 0.3; stroke-width: 0.8; stroke-linecap: square"/>
     </g>
     <g id="line2d_34">
      <g>
       <use xlink:href="#m84c5bef8dc" x="389.288333" y="348.24275" style="fill: #333333; stroke: #333333; stroke-width: 0.8"/>
      </g>
     </g>
    </g>
    <g id="ytick_7">
     <g id="line2d_35">
      <path d="M 389.288333 275.581417 
L 720.361667 275.581417 
" clip-path="url(#p0596ec5d94)" style="fill: none; stroke: #b0b0b0; stroke-opacity: 0.3; stroke-width: 0.8; stroke-linecap: square"/>
     </g>
     <g id="line2d_36">
      <g>
       <use xlink:href="#m84c5bef8dc" x="389.288333" y="275.581417" style="fill: #333333; stroke: #333333; stroke-width: 0.8"/>
      </g>
     </g>
    </g>
    <g id="ytick_8">
     <g id="line2d_37">
      <path d="M 389.288333 202.920083 
L 720.361667 202.920083 
" clip-path="url(#p0596ec5d94)" style="fill: none; stroke: #b0b0b0; stroke-opacity: 0.3; stroke-width: 0.8; stroke-linecap: square"/>
     </g>
     <g id="line2d_38">
      <g>
       <use xlink:href="#m84c5bef8dc" x="389.288333" y="202.920083" style="fill: #333333; stroke: #333333; stroke-width: 0.8"/>
      </g>
     </g>
    </g>
    <g id="ytick_9">
     <g id="line2d_39">
      <path d="M 389.288333 130.25875 
L 720.361667 130.25875 
" clip-path="url(#p0596ec5d94)" style="fill: none; stroke: #b0b0b0; stroke-opacity: 0.3; stroke-width: 0.8; stroke-linecap: square"/>
     </g>
     <g id="line2d_40">
      <g>
       <use xlink:href="#m84c5bef8dc" x="389.288333" y="130.25875" style="fill: #333333; stroke: #333333; stroke-width: 0.8"/>
      </g>
     </g>
    </g>
    <g id="ytick_10">
     <g id="line2d_41">
      <path d="M 389.288333 57.597417 
L 720.361667 57.597417 
" clip-path="url(#p0596ec5d94)" style="fill: none; stroke: #b0b0b0; stroke-opacity: 0.3; stroke-width: 0.8; stroke-linecap: square"/>
     </g>
     <g id="line2d_42">
      <g>
       <use xlink:href="#m84c5bef8dc" x="389.288333" y="57.597417" style="fill: #333333; stroke: #333333; stroke-width: 0.8"/>
      </g>
     </g>
    </g>
   </g>
   <g id="FillBetweenPolyCollection_3">
    <defs>
     <path id="m7fbfb75d2d" d="M 389.288333 -277.558667 
L 389.288333 -77.74 
L 409.353384 -77.74 
L 429.418434 -77.74 
L 449.483485 -77.74 
L 469.548535 -77.74 
L 489.613586 -77.74 
L 509.678636 -77.74 
L 529.743687 -77.74 
L 549.808737 -77.74 
L 549.808737 -77.74 
L 549.808737 -77.74 
L 549.808737 -77.74 
L 549.808737 -132.236 
L 529.743687 -150.401333 
L 509.678636 -168.566667 
L 489.613586 -186.732 
L 469.548535 -204.897333 
L 449.483485 -223.062667 
L 429.418434 -241.228 
L 409.353384 -259.393333 
L 389.288333 -277.558667 
z
" style="stroke: #73b3d8; stroke-opacity: 0.4"/>
    </defs>
    <g clip-path="url(#p0596ec5d94)">
     <use xlink:href="#m7fbfb75d2d" x="0" y="425.98275" style="fill: #73b3d8; fill-opacity: 0.4; stroke: #73b3d8; stroke-opacity: 0.4"/>
    </g>
   </g>
   <g id="patch_6">
    <path d="M 389.288333 348.24275 
L 389.288333 48.51475 
" style="fill: none; stroke: #444444; stroke-width: 1.2; stroke-linejoin: miter; stroke-linecap: square"/>
   </g>
   <g id="patch_7">
    <path d="M 389.288333 348.24275 
L 720.361667 348.24275 
" style="fill: none; stroke: #444444; stroke-width: 1.2; stroke-linejoin: miter; stroke-linecap: square"/>
   </g>
   <g id="FillBetweenPolyCollection_4">
    <path d="M 389.288333 130.25875 
L 389.288333 148.424083 
L 409.353384 166.589417 
L 429.418434 184.75475 
L 449.483485 202.920083 
L 469.548535 221.085417 
L 489.613586 239.25075 
L 509.678636 257.416083 
L 529.743687 275.581417 
L 549.808737 293.74675 
L 549.808737 348.24275 
L 630.068939 348.24275 
L 630.068939 348.24275 
L 630.068939 348.24275 
L 549.808737 275.581417 
L 549.808737 275.581417 
L 529.743687 257.416083 
L 509.678636 239.25075 
L 489.613586 221.085417 
L 469.548535 202.920083 
L 449.483485 184.75475 
L 429.418434 166.589417 
L 409.353384 148.424083 
L 389.288333 130.25875 
z
" clip-path="url(#p0596ec5d94)" style="fill: url(#h1161c6835e); stroke: #c0392b; stroke-opacity: 0.3"/>
   </g>
   <g id="text_20">
    <!-- B. Tier A = 4 MW -->
    <g style="fill: #333333" transform="translate(488.431094 17.837812) scale(0.14 -0.14)">
     <defs>
      <path id="DejaVuSans-Bold-34" d="M 2356 3675 
L 1038 1722 
L 2356 1722 
L 2356 3675 
z
M 2156 4666 
L 3494 4666 
L 3494 1722 
L 4159 1722 
L 4159 850 
L 3494 850 
L 3494 0 
L 2356 0 
L 2356 850 
L 288 850 
L 288 1881 
L 2156 4666 
z
" transform="scale(0.015625)"/>
     </defs>
     <use xlink:href="#DejaVuSans-Bold-42"/>
     <use xlink:href="#DejaVuSans-Bold-2e" transform="translate(76.220703 0)"/>
     <use xlink:href="#DejaVuSans-Bold-20" transform="translate(114.208984 0)"/>
     <use xlink:href="#DejaVuSans-Bold-54" transform="translate(149.023438 0)"/>
     <use xlink:href="#DejaVuSans-Bold-69" transform="translate(217.236328 0)"/>
     <use xlink:href="#DejaVuSans-Bold-65" transform="translate(251.513672 0)"/>
     <use xlink:href="#DejaVuSans-Bold-72" transform="translate(319.335938 0)"/>
     <use xlink:href="#DejaVuSans-Bold-20" transform="translate(368.652344 0)"/>
     <use xlink:href="#DejaVuSans-Bold-41" transform="translate(403.466797 0)"/>
     <use xlink:href="#DejaVuSans-Bold-20" transform="translate(480.859375 0)"/>
     <use xlink:href="#DejaVuSans-Bold-3d" transform="translate(515.673828 0)"/>
     <use xlink:href="#DejaVuSans-Bold-20" transform="translate(599.462891 0)"/>
     <use xlink:href="#DejaVuSans-Bold-34" transform="translate(634.277344 0)"/>
     <use xlink:href="#DejaVuSans-Bold-20" transform="translate(703.857422 0)"/>
     <use xlink:href="#DejaVuSans-Bold-4d" transform="translate(738.671875 0)"/>
     <use xlink:href="#DejaVuSans-Bold-57" transform="translate(838.183594 0)"/>
    </g>
    <!-- (Mixed Portfolio) -->
    <g style="fill: #333333" transform="translate(488.15 33.51475) scale(0.14 -0.14)">
     <defs>
      <path id="DejaVuSans-Bold-64" d="M 2919 2988 
L 2919 4863 
L 4044 4863 
L 4044 0 
L 2919 0 
L 2919 506 
Q 2688 197 2409 53 
Q 2131 -91 1766 -91 
Q 1119 -91 703 423 
Q 288 938 288 1747 
Q 288 2556 703 3070 
Q 1119 3584 1766 3584 
Q 2128 3584 2408 3439 
Q 2688 3294 2919 2988 
z
M 2181 722 
Q 2541 722 2730 984 
Q 2919 1247 2919 1747 
Q 2919 2247 2730 2509 
Q 2541 2772 2181 2772 
Q 1825 2772 1636 2509 
Q 1447 2247 1447 1747 
Q 1447 1247 1636 984 
Q 1825 722 2181 722 
z
" transform="scale(0.015625)"/>
      <path id="DejaVuSans-Bold-50" d="M 588 4666 
L 2584 4666 
Q 3475 4666 3951 4270 
Q 4428 3875 4428 3144 
Q 4428 2409 3951 2014 
Q 3475 1619 2584 1619 
L 1791 1619 
L 1791 0 
L 588 0 
L 588 4666 
z
M 1791 3794 
L 1791 2491 
L 2456 2491 
Q 2806 2491 2997 2661 
Q 3188 2831 3188 3144 
Q 3188 3456 2997 3625 
Q 2806 3794 2456 3794 
L 1791 3794 
z
" transform="scale(0.015625)"/>
      <path id="DejaVuSans-Bold-6f" d="M 2203 2784 
Q 1831 2784 1636 2517 
Q 1441 2250 1441 1747 
Q 1441 1244 1636 976 
Q 1831 709 2203 709 
Q 2569 709 2762 976 
Q 2956 1244 2956 1747 
Q 2956 2250 2762 2517 
Q 2569 2784 2203 2784 
z
M 2203 3584 
Q 3106 3584 3614 3096 
Q 4122 2609 4122 1747 
Q 4122 884 3614 396 
Q 3106 -91 2203 -91 
Q 1297 -91 786 396 
Q 275 884 275 1747 
Q 275 2609 786 3096 
Q 1297 3584 2203 3584 
z
" transform="scale(0.015625)"/>
      <path id="DejaVuSans-Bold-66" d="M 2841 4863 
L 2841 4128 
L 2222 4128 
Q 1984 4128 1890 4042 
Q 1797 3956 1797 3744 
L 1797 3500 
L 2753 3500 
L 2753 2700 
L 1797 2700 
L 1797 0 
L 678 0 
L 678 2700 
L 122 2700 
L 122 3500 
L 678 3500 
L 678 3744 
Q 678 4316 997 4589 
Q 1316 4863 1984 4863 
L 2841 4863 
z
" transform="scale(0.015625)"/>
     </defs>
     <use xlink:href="#DejaVuSans-Bold-28"/>
     <use xlink:href="#DejaVuSans-Bold-4d" transform="translate(45.703125 0)"/>
     <use xlink:href="#DejaVuSans-Bold-69" transform="translate(145.214844 0)"/>
     <use xlink:href="#DejaVuSans-Bold-78" transform="translate(179.492188 0)"/>
     <use xlink:href="#DejaVuSans-Bold-65" transform="translate(243.994141 0)"/>
     <use xlink:href="#DejaVuSans-Bold-64" transform="translate(311.816406 0)"/>
     <use xlink:href="#DejaVuSans-Bold-20" transform="translate(383.398438 0)"/>
     <use xlink:href="#DejaVuSans-Bold-50" transform="translate(418.212891 0)"/>
     <use xlink:href="#DejaVuSans-Bold-6f" transform="translate(491.503906 0)"/>
     <use xlink:href="#DejaVuSans-Bold-72" transform="translate(560.205078 0)"/>
     <use xlink:href="#DejaVuSans-Bold-74" transform="translate(609.521484 0)"/>
     <use xlink:href="#DejaVuSans-Bold-66" transform="translate(657.324219 0)"/>
     <use xlink:href="#DejaVuSans-Bold-6f" transform="translate(700.830078 0)"/>
     <use xlink:href="#DejaVuSans-Bold-6c" transform="translate(769.53125 0)"/>
     <use xlink:href="#DejaVuSans-Bold-69" transform="translate(803.808594 0)"/>
     <use xlink:href="#DejaVuSans-Bold-6f" transform="translate(838.085938 0)"/>
     <use xlink:href="#DejaVuSans-Bold-29" transform="translate(906.787109 0)"/>
    </g>
   </g>
   <g id="line2d_43">
    <path d="M 389.288333 148.424083 
L 409.353384 166.589417 
L 429.418434 184.75475 
L 449.483485 202.920083 
L 469.548535 221.085417 
L 489.613586 239.25075 
L 509.678636 257.416083 
L 529.743687 275.581417 
L 549.808737 293.74675 
L 549.808737 348.24275 
" clip-path="url(#p0596ec5d94)" style="fill: none; stroke: #113b5e; stroke-width: 3; stroke-linecap: square"/>
   </g>
   <g id="line2d_44">
    <path d="M 389.288333 130.25875 
L 630.068939 348.24275 
" clip-path="url(#p0596ec5d94)" style="fill: none; stroke-dasharray: 7.4,3.2; stroke-dashoffset: 0; stroke: #7f8c8d; stroke-width: 2"/>
   </g>
   <g id="text_21">
    <path d="M 421.262469 255.244135 
L 426.841532 255.244135 
L 426.841532 256.808198 
L 423.330125 256.808198 
L 423.330125 258.300073 
L 426.633563 258.300073 
L 426.633563 259.864135 
L 423.330125 259.864135 
L 423.330125 263.263823 
L 421.262469 263.263823 
L 421.262469 255.244135 
z
M 428.776629 255.244135 
L 434.355692 255.244135 
L 434.355692 256.808198 
L 430.844286 256.808198 
L 430.844286 258.300073 
L 434.147723 258.300073 
L 434.147723 259.864135 
L 430.844286 259.864135 
L 430.844286 261.701479 
L 434.474286 261.701479 
L 434.474286 263.263823 
L 428.776629 263.263823 
L 428.776629 255.244135 
z
M 441.156571 261.802885 
L 437.923602 261.802885 
L 437.413133 263.263823 
L 435.333446 263.263823 
L 438.303446 255.244135 
L 440.769852 255.244135 
L 443.739852 263.263823 
L 441.661883 263.263823 
L 441.156571 261.802885 
z
M 438.439227 260.314448 
L 440.63579 260.314448 
L 439.539227 257.124448 
L 438.439227 260.314448 
z
M 450.383036 255.496792 
L 450.383036 257.194917 
Q 449.723036 256.899292 449.093973 256.74976 
Q 448.466629 256.59851 447.908036 256.59851 
Q 447.167254 256.59851 446.811473 256.803042 
Q 446.457411 257.005854 446.457411 257.435542 
Q 446.457411 257.758667 446.696317 257.939135 
Q 446.935223 258.117885 447.564286 258.246792 
L 448.444286 258.423823 
Q 449.781473 258.693667 450.345223 259.241948 
Q 450.910692 259.78851 450.910692 260.799135 
Q 450.910692 262.124292 450.123504 262.77226 
Q 449.336317 263.420229 447.718973 263.420229 
Q 446.957567 263.420229 446.189286 263.274135 
Q 445.421004 263.12976 444.652723 262.844448 
L 444.652723 261.099917 
Q 445.421004 261.50726 446.137723 261.715229 
Q 446.854442 261.921479 447.521317 261.921479 
Q 448.198504 261.921479 448.557723 261.696323 
Q 448.916942 261.469448 448.916942 261.050073 
Q 448.916942 260.675385 448.672879 260.470854 
Q 448.428817 260.266323 447.698348 260.10476 
L 446.897411 259.927729 
Q 445.694286 259.669917 445.137411 259.106167 
Q 444.582254 258.542417 444.582254 257.586792 
Q 444.582254 256.388823 445.355692 255.744292 
Q 446.129129 255.09976 447.579754 255.09976 
Q 448.241473 255.09976 448.939286 255.199448 
Q 449.637098 255.299135 450.383036 255.496792 
z
M 452.726336 255.244135 
L 454.793993 255.244135 
L 454.793993 263.263823 
L 452.726336 263.263823 
L 452.726336 255.244135 
z
M 460.029735 258.349917 
Q 460.519579 258.349917 460.770516 258.135073 
Q 461.023172 257.920229 461.023172 257.500854 
Q 461.023172 257.086635 460.770516 256.870073 
Q 460.519579 256.651792 460.029735 256.651792 
L 458.886766 256.651792 
L 458.886766 258.349917 
L 460.029735 258.349917 
z
M 460.100204 261.856167 
Q 460.722391 261.856167 461.036922 261.593198 
Q 461.351454 261.330229 461.351454 260.799135 
Q 461.351454 260.276635 461.04036 260.017104 
Q 460.729266 259.755854 460.100204 259.755854 
L 458.886766 259.755854 
L 458.886766 261.856167 
L 460.100204 261.856167 
z
M 462.023485 258.972104 
Q 462.688641 259.166323 463.053016 259.687104 
Q 463.41911 260.207885 463.41911 260.964135 
Q 463.41911 262.124292 462.63536 262.694917 
Q 461.85161 263.263823 460.249735 263.263823 
L 456.81911 263.263823 
L 456.81911 255.244135 
L 459.923172 255.244135 
Q 461.593797 255.244135 462.343172 255.749448 
Q 463.092547 256.25476 463.092547 257.366792 
Q 463.092547 257.951167 462.817547 258.361948 
Q 462.544266 258.772729 462.023485 258.972104 
z
M 465.203387 255.244135 
L 467.271043 255.244135 
L 467.271043 261.701479 
L 470.901043 261.701479 
L 470.901043 263.263823 
L 465.203387 263.263823 
L 465.203387 255.244135 
z
M 472.212665 255.244135 
L 477.791727 255.244135 
L 477.791727 256.808198 
L 474.280321 256.808198 
L 474.280321 258.300073 
L 477.583758 258.300073 
L 477.583758 259.864135 
L 474.280321 259.864135 
L 474.280321 261.701479 
L 477.910321 261.701479 
L 477.910321 263.263823 
L 472.212665 263.263823 
L 472.212665 255.244135 
z
" style="fill: #113b5e; opacity: 0.9; stroke: #ffffff; stroke-width: 3"/>
    <path d="M 421.262469 255.244135 
L 426.841532 255.244135 
L 426.841532 256.808198 
L 423.330125 256.808198 
L 423.330125 258.300073 
L 426.633563 258.300073 
L 426.633563 259.864135 
L 423.330125 259.864135 
L 423.330125 263.263823 
L 421.262469 263.263823 
L 421.262469 255.244135 
z
M 428.776629 255.244135 
L 434.355692 255.244135 
L 434.355692 256.808198 
L 430.844286 256.808198 
L 430.844286 258.300073 
L 434.147723 258.300073 
L 434.147723 259.864135 
L 430.844286 259.864135 
L 430.844286 261.701479 
L 434.474286 261.701479 
L 434.474286 263.263823 
L 428.776629 263.263823 
L 428.776629 255.244135 
z
M 441.156571 261.802885 
L 437.923602 261.802885 
L 437.413133 263.263823 
L 435.333446 263.263823 
L 438.303446 255.244135 
L 440.769852 255.244135 
L 443.739852 263.263823 
L 441.661883 263.263823 
L 441.156571 261.802885 
z
M 438.439227 260.314448 
L 440.63579 260.314448 
L 439.539227 257.124448 
L 438.439227 260.314448 
z
M 450.383036 255.496792 
L 450.383036 257.194917 
Q 449.723036 256.899292 449.093973 256.74976 
Q 448.466629 256.59851 447.908036 256.59851 
Q 447.167254 256.59851 446.811473 256.803042 
Q 446.457411 257.005854 446.457411 257.435542 
Q 446.457411 257.758667 446.696317 257.939135 
Q 446.935223 258.117885 447.564286 258.246792 
L 448.444286 258.423823 
Q 449.781473 258.693667 450.345223 259.241948 
Q 450.910692 259.78851 450.910692 260.799135 
Q 450.910692 262.124292 450.123504 262.77226 
Q 449.336317 263.420229 447.718973 263.420229 
Q 446.957567 263.420229 446.189286 263.274135 
Q 445.421004 263.12976 444.652723 262.844448 
L 444.652723 261.099917 
Q 445.421004 261.50726 446.137723 261.715229 
Q 446.854442 261.921479 447.521317 261.921479 
Q 448.198504 261.921479 448.557723 261.696323 
Q 448.916942 261.469448 448.916942 261.050073 
Q 448.916942 260.675385 448.672879 260.470854 
Q 448.428817 260.266323 447.698348 260.10476 
L 446.897411 259.927729 
Q 445.694286 259.669917 445.137411 259.106167 
Q 444.582254 258.542417 444.582254 257.586792 
Q 444.582254 256.388823 445.355692 255.744292 
Q 446.129129 255.09976 447.579754 255.09976 
Q 448.241473 255.09976 448.939286 255.199448 
Q 449.637098 255.299135 450.383036 255.496792 
z
M 452.726336 255.244135 
L 454.793993 255.244135 
L 454.793993 263.263823 
L 452.726336 263.263823 
L 452.726336 255.244135 
z
M 460.029735 258.349917 
Q 460.519579 258.349917 460.770516 258.135073 
Q 461.023172 257.920229 461.023172 257.500854 
Q 461.023172 257.086635 460.770516 256.870073 
Q 460.519579 256.651792 460.029735 256.651792 
L 458.886766 256.651792 
L 458.886766 258.349917 
L 460.029735 258.349917 
z
M 460.100204 261.856167 
Q 460.722391 261.856167 461.036922 261.593198 
Q 461.351454 261.330229 461.351454 260.799135 
Q 461.351454 260.276635 461.04036 260.017104 
Q 460.729266 259.755854 460.100204 259.755854 
L 458.886766 259.755854 
L 458.886766 261.856167 
L 460.100204 261.856167 
z
M 462.023485 258.972104 
Q 462.688641 259.166323 463.053016 259.687104 
Q 463.41911 260.207885 463.41911 260.964135 
Q 463.41911 262.124292 462.63536 262.694917 
Q 461.85161 263.263823 460.249735 263.263823 
L 456.81911 263.263823 
L 456.81911 255.244135 
L 459.923172 255.244135 
Q 461.593797 255.244135 462.343172 255.749448 
Q 463.092547 256.25476 463.092547 257.366792 
Q 463.092547 257.951167 462.817547 258.361948 
Q 462.544266 258.772729 462.023485 258.972104 
z
M 465.203387 255.244135 
L 467.271043 255.244135 
L 467.271043 261.701479 
L 470.901043 261.701479 
L 470.901043 263.263823 
L 465.203387 263.263823 
L 465.203387 255.244135 
z
M 472.212665 255.244135 
L 477.791727 255.244135 
L 477.791727 256.808198 
L 474.280321 256.808198 
L 474.280321 258.300073 
L 477.583758 258.300073 
L 477.583758 259.864135 
L 474.280321 259.864135 
L 474.280321 261.701479 
L 477.910321 261.701479 
L 477.910321 263.263823 
L 472.212665 263.263823 
L 472.212665 255.244135 
z
" style="fill: #113b5e"/>
    <path d="M 429.600125 271.117823 
Q 430.249813 271.117823 430.531688 270.877198 
Q 430.813563 270.634854 430.813563 270.081417 
Q 430.813563 269.533135 430.531688 269.297667 
Q 430.249813 269.060479 429.600125 269.060479 
L 428.730438 269.060479 
L 428.730438 271.117823 
L 429.600125 271.117823 
z
M 428.730438 272.546104 
L 428.730438 275.581417 
L 426.662782 275.581417 
L 426.662782 267.561729 
L 429.820125 267.561729 
Q 431.404813 267.561729 432.142157 268.094542 
Q 432.881219 268.625635 432.881219 269.775479 
Q 432.881219 270.569542 432.496219 271.08001 
Q 432.112938 271.590479 431.3395 271.832823 
Q 431.764032 271.929073 432.099188 272.271104 
Q 432.436063 272.611417 432.779813 273.304073 
L 433.902157 275.581417 
L 431.700438 275.581417 
L 430.722469 273.589385 
Q 430.426844 272.987823 430.122625 272.767823 
Q 429.820125 272.546104 429.314813 272.546104 
L 428.730438 272.546104 
z
M 435.132997 267.561729 
L 440.712059 267.561729 
L 440.712059 269.125792 
L 437.200653 269.125792 
L 437.200653 270.617667 
L 440.50409 270.617667 
L 440.50409 272.181729 
L 437.200653 272.181729 
L 437.200653 274.019073 
L 440.830653 274.019073 
L 440.830653 275.581417 
L 435.132997 275.581417 
L 435.132997 267.561729 
z
M 449.853875 274.98501 
Q 449.080438 275.361417 448.248563 275.550479 
Q 447.416688 275.737823 446.529813 275.737823 
Q 444.52575 275.737823 443.355282 274.617198 
Q 442.184813 273.496573 442.184813 271.580167 
Q 442.184813 269.641417 443.375907 268.529385 
Q 444.568719 267.417354 446.64325 267.417354 
Q 447.442469 267.417354 448.174657 267.568604 
Q 448.908563 267.718135 449.55825 268.01376 
L 449.55825 269.672354 
Q 448.887938 269.29251 448.2245 269.105167 
Q 447.561063 268.916104 446.894188 268.916104 
Q 445.660125 268.916104 444.991532 269.607042 
Q 444.322938 270.29626 444.322938 271.580167 
Q 444.322938 272.852042 444.967469 273.546417 
Q 445.612 274.239073 446.797938 274.239073 
Q 447.121063 274.239073 447.397782 274.199542 
Q 447.6745 274.158292 447.8945 274.072354 
L 447.8945 272.515167 
L 446.631219 272.515167 
L 446.631219 271.128135 
L 449.853875 271.128135 
L 449.853875 274.98501 
z
M 451.675965 267.561729 
L 453.743622 267.561729 
L 453.743622 275.581417 
L 451.675965 275.581417 
L 451.675965 267.561729 
z
M 459.431395 268.916104 
Q 458.486083 268.916104 457.965301 269.613917 
Q 457.44452 270.311729 457.44452 271.580167 
Q 457.44452 272.841729 457.965301 273.54126 
Q 458.486083 274.239073 459.431395 274.239073 
Q 460.381864 274.239073 460.902645 273.54126 
Q 461.423426 272.841729 461.423426 271.580167 
Q 461.423426 270.311729 460.902645 269.613917 
Q 460.381864 268.916104 459.431395 268.916104 
z
M 459.431395 267.417354 
Q 461.364989 267.417354 462.459833 268.524229 
Q 463.556395 269.629385 463.556395 271.580167 
Q 463.556395 273.524073 462.459833 274.630948 
Q 461.364989 275.737823 459.431395 275.737823 
Q 457.502958 275.737823 456.404676 274.630948 
Q 455.306395 273.524073 455.306395 271.580167 
Q 455.306395 269.629385 456.404676 268.524229 
Q 457.502958 267.417354 459.431395 267.417354 
z
M 465.119813 267.561729 
L 467.428094 267.561729 
L 470.344813 273.061729 
L 470.344813 267.561729 
L 472.305907 267.561729 
L 472.305907 275.581417 
L 469.995907 275.581417 
L 467.079188 270.081417 
L 467.079188 275.581417 
L 465.119813 275.581417 
L 465.119813 267.561729 
z
" style="fill: #113b5e; opacity: 0.9; stroke: #ffffff; stroke-width: 3"/>
    <path d="M 429.600125 271.117823 
Q 430.249813 271.117823 430.531688 270.877198 
Q 430.813563 270.634854 430.813563 270.081417 
Q 430.813563 269.533135 430.531688 269.297667 
Q 430.249813 269.060479 429.600125 269.060479 
L 428.730438 269.060479 
L 428.730438 271.117823 
L 429.600125 271.117823 
z
M 428.730438 272.546104 
L 428.730438 275.581417 
L 426.662782 275.581417 
L 426.662782 267.561729 
L 429.820125 267.561729 
Q 431.404813 267.561729 432.142157 268.094542 
Q 432.881219 268.625635 432.881219 269.775479 
Q 432.881219 270.569542 432.496219 271.08001 
Q 432.112938 271.590479 431.3395 271.832823 
Q 431.764032 271.929073 432.099188 272.271104 
Q 432.436063 272.611417 432.779813 273.304073 
L 433.902157 275.581417 
L 431.700438 275.581417 
L 430.722469 273.589385 
Q 430.426844 272.987823 430.122625 272.767823 
Q 429.820125 272.546104 429.314813 272.546104 
L 428.730438 272.546104 
z
M 435.132997 267.561729 
L 440.712059 267.561729 
L 440.712059 269.125792 
L 437.200653 269.125792 
L 437.200653 270.617667 
L 440.50409 270.617667 
L 440.50409 272.181729 
L 437.200653 272.181729 
L 437.200653 274.019073 
L 440.830653 274.019073 
L 440.830653 275.581417 
L 435.132997 275.581417 
L 435.132997 267.561729 
z
M 449.853875 274.98501 
Q 449.080438 275.361417 448.248563 275.550479 
Q 447.416688 275.737823 446.529813 275.737823 
Q 444.52575 275.737823 443.355282 274.617198 
Q 442.184813 273.496573 442.184813 271.580167 
Q 442.184813 269.641417 443.375907 268.529385 
Q 444.568719 267.417354 446.64325 267.417354 
Q 447.442469 267.417354 448.174657 267.568604 
Q 448.908563 267.718135 449.55825 268.01376 
L 449.55825 269.672354 
Q 448.887938 269.29251 448.2245 269.105167 
Q 447.561063 268.916104 446.894188 268.916104 
Q 445.660125 268.916104 444.991532 269.607042 
Q 444.322938 270.29626 444.322938 271.580167 
Q 444.322938 272.852042 444.967469 273.546417 
Q 445.612 274.239073 446.797938 274.239073 
Q 447.121063 274.239073 447.397782 274.199542 
Q 447.6745 274.158292 447.8945 274.072354 
L 447.8945 272.515167 
L 446.631219 272.515167 
L 446.631219 271.128135 
L 449.853875 271.128135 
L 449.853875 274.98501 
z
M 451.675965 267.561729 
L 453.743622 267.561729 
L 453.743622 275.581417 
L 451.675965 275.581417 
L 451.675965 267.561729 
z
M 459.431395 268.916104 
Q 458.486083 268.916104 457.965301 269.613917 
Q 457.44452 270.311729 457.44452 271.580167 
Q 457.44452 272.841729 457.965301 273.54126 
Q 458.486083 274.239073 459.431395 274.239073 
Q 460.381864 274.239073 460.902645 273.54126 
Q 461.423426 272.841729 461.423426 271.580167 
Q 461.423426 270.311729 460.902645 269.613917 
Q 460.381864 268.916104 459.431395 268.916104 
z
M 459.431395 267.417354 
Q 461.364989 267.417354 462.459833 268.524229 
Q 463.556395 269.629385 463.556395 271.580167 
Q 463.556395 273.524073 462.459833 274.630948 
Q 461.364989 275.737823 459.431395 275.737823 
Q 457.502958 275.737823 456.404676 274.630948 
Q 455.306395 273.524073 455.306395 271.580167 
Q 455.306395 269.629385 456.404676 268.524229 
Q 457.502958 267.417354 459.431395 267.417354 
z
M 465.119813 267.561729 
L 467.428094 267.561729 
L 470.344813 273.061729 
L 470.344813 267.561729 
L 472.305907 267.561729 
L 472.305907 275.581417 
L 469.995907 275.581417 
L 467.079188 270.081417 
L 467.079188 275.581417 
L 465.119813 275.581417 
L 465.119813 267.561729 
z
" style="fill: #113b5e"/>
   </g>
  </g>
  <g id="axes_3">
   <g id="patch_8">
    <path d="M 734.671667 348.24275 
L 1065.745 348.24275 
L 1065.745 48.51475 
L 734.671667 48.51475 
z
" style="fill: #ffffff"/>
   </g>
   <g id="matplotlib.axis_5">
    <g id="xtick_11">
     <g id="line2d_45">
      <path d="M 734.671667 348.24275 
L 734.671667 48.51475 
" clip-path="url(#p9567c3aa6c)" style="fill: none; stroke: #b0b0b0; stroke-opacity: 0.3; stroke-width: 0.8; stroke-linecap: square"/>
     </g>
     <g id="line2d_46">
      <g>
       <use xlink:href="#m1fc3e2a8ad" x="734.671667" y="348.24275" style="fill: #333333; stroke: #333333; stroke-width: 0.8"/>
      </g>
     </g>
     <g id="text_22">
      <!-- 0 -->
      <g style="fill: #333333" transform="translate(731.172292 363.601031) scale(0.11 -0.11)">
       <use xlink:href="#DejaVuSans-30"/>
      </g>
     </g>
    </g>
    <g id="xtick_12">
     <g id="line2d_47">
      <path d="M 814.931869 348.24275 
L 814.931869 48.51475 
" clip-path="url(#p9567c3aa6c)" style="fill: none; stroke: #b0b0b0; stroke-opacity: 0.3; stroke-width: 0.8; stroke-linecap: square"/>
     </g>
     <g id="line2d_48">
      <g>
       <use xlink:href="#m1fc3e2a8ad" x="814.931869" y="348.24275" style="fill: #333333; stroke: #333333; stroke-width: 0.8"/>
      </g>
     </g>
     <g id="text_23">
      <!-- 4 -->
      <g style="fill: #333333" transform="translate(811.432494 363.601031) scale(0.11 -0.11)">
       <use xlink:href="#DejaVuSans-34"/>
      </g>
     </g>
    </g>
    <g id="xtick_13">
     <g id="line2d_49">
      <path d="M 895.192071 348.24275 
L 895.192071 48.51475 
" clip-path="url(#p9567c3aa6c)" style="fill: none; stroke: #b0b0b0; stroke-opacity: 0.3; stroke-width: 0.8; stroke-linecap: square"/>
     </g>
     <g id="line2d_50">
      <g>
       <use xlink:href="#m1fc3e2a8ad" x="895.192071" y="348.24275" style="fill: #333333; stroke: #333333; stroke-width: 0.8"/>
      </g>
     </g>
     <g id="text_24">
      <!-- 8 -->
      <g style="fill: #333333" transform="translate(891.692696 363.601031) scale(0.11 -0.11)">
       <use xlink:href="#DejaVuSans-38"/>
      </g>
     </g>
    </g>
    <g id="xtick_14">
     <g id="line2d_51">
      <path d="M 975.452273 348.24275 
L 975.452273 48.51475 
" clip-path="url(#p9567c3aa6c)" style="fill: none; stroke: #b0b0b0; stroke-opacity: 0.3; stroke-width: 0.8; stroke-linecap: square"/>
     </g>
     <g id="line2d_52">
      <g>
       <use xlink:href="#m1fc3e2a8ad" x="975.452273" y="348.24275" style="fill: #333333; stroke: #333333; stroke-width: 0.8"/>
      </g>
     </g>
     <g id="text_25">
      <!-- 12 -->
      <g style="fill: #333333" transform="translate(968.453523 363.601031) scale(0.11 -0.11)">
       <use xlink:href="#DejaVuSans-31"/>
       <use xlink:href="#DejaVuSans-32" transform="translate(63.623047 0)"/>
      </g>
     </g>
    </g>
    <g id="xtick_15">
     <g id="line2d_53">
      <path d="M 1055.712475 348.24275 
L 1055.712475 48.51475 
" clip-path="url(#p9567c3aa6c)" style="fill: none; stroke: #b0b0b0; stroke-opacity: 0.3; stroke-width: 0.8; stroke-linecap: square"/>
     </g>
     <g id="line2d_54">
      <g>
       <use xlink:href="#m1fc3e2a8ad" x="1055.712475" y="348.24275" style="fill: #333333; stroke: #333333; stroke-width: 0.8"/>
      </g>
     </g>
     <g id="text_26">
      <!-- 16 -->
      <g style="fill: #333333" transform="translate(1048.713725 363.601031) scale(0.11 -0.11)">
       <use xlink:href="#DejaVuSans-31"/>
       <use xlink:href="#DejaVuSans-36" transform="translate(63.623047 0)"/>
      </g>
     </g>
    </g>
    <g id="text_27">
     <!-- Tier B1 Capacity [MW] -->
     <g style="fill: #444444" transform="translate(824.753646 379.006812) scale(0.12 -0.12)">
      <use xlink:href="#DejaVuSans-Bold-54"/>
      <use xlink:href="#DejaVuSans-Bold-69" transform="translate(68.212891 0)"/>
      <use xlink:href="#DejaVuSans-Bold-65" transform="translate(102.490234 0)"/>
      <use xlink:href="#DejaVuSans-Bold-72" transform="translate(170.3125 0)"/>
      <use xlink:href="#DejaVuSans-Bold-20" transform="translate(219.628906 0)"/>
      <use xlink:href="#DejaVuSans-Bold-42" transform="translate(254.443359 0)"/>
      <use xlink:href="#DejaVuSans-Bold-31" transform="translate(330.664062 0)"/>
      <use xlink:href="#DejaVuSans-Bold-20" transform="translate(400.244141 0)"/>
      <use xlink:href="#DejaVuSans-Bold-43" transform="translate(435.058594 0)"/>
      <use xlink:href="#DejaVuSans-Bold-61" transform="translate(508.447266 0)"/>
      <use xlink:href="#DejaVuSans-Bold-70" transform="translate(575.927734 0)"/>
      <use xlink:href="#DejaVuSans-Bold-61" transform="translate(647.509766 0)"/>
      <use xlink:href="#DejaVuSans-Bold-63" transform="translate(714.990234 0)"/>
      <use xlink:href="#DejaVuSans-Bold-69" transform="translate(774.267578 0)"/>
      <use xlink:href="#DejaVuSans-Bold-74" transform="translate(808.544922 0)"/>
      <use xlink:href="#DejaVuSans-Bold-79" transform="translate(856.347656 0)"/>
      <use xlink:href="#DejaVuSans-Bold-20" transform="translate(921.533203 0)"/>
      <use xlink:href="#DejaVuSans-Bold-5b" transform="translate(956.347656 0)"/>
      <use xlink:href="#DejaVuSans-Bold-4d" transform="translate(1002.050781 0)"/>
      <use xlink:href="#DejaVuSans-Bold-57" transform="translate(1101.5625 0)"/>
      <use xlink:href="#DejaVuSans-Bold-5d" transform="translate(1211.865234 0)"/>
     </g>
    </g>
   </g>
   <g id="matplotlib.axis_6">
    <g id="ytick_11">
     <g id="line2d_55">
      <path d="M 734.671667 348.24275 
L 1065.745 348.24275 
" clip-path="url(#p9567c3aa6c)" style="fill: none; stroke: #b0b0b0; stroke-opacity: 0.3; stroke-width: 0.8; stroke-linecap: square"/>
     </g>
     <g id="line2d_56">
      <g>
       <use xlink:href="#m84c5bef8dc" x="734.671667" y="348.24275" style="fill: #333333; stroke: #333333; stroke-width: 0.8"/>
      </g>
     </g>
    </g>
    <g id="ytick_12">
     <g id="line2d_57">
      <path d="M 734.671667 275.581417 
L 1065.745 275.581417 
" clip-path="url(#p9567c3aa6c)" style="fill: none; stroke: #b0b0b0; stroke-opacity: 0.3; stroke-width: 0.8; stroke-linecap: square"/>
     </g>
     <g id="line2d_58">
      <g>
       <use xlink:href="#m84c5bef8dc" x="734.671667" y="275.581417" style="fill: #333333; stroke: #333333; stroke-width: 0.8"/>
      </g>
     </g>
    </g>
    <g id="ytick_13">
     <g id="line2d_59">
      <path d="M 734.671667 202.920083 
L 1065.745 202.920083 
" clip-path="url(#p9567c3aa6c)" style="fill: none; stroke: #b0b0b0; stroke-opacity: 0.3; stroke-width: 0.8; stroke-linecap: square"/>
     </g>
     <g id="line2d_60">
      <g>
       <use xlink:href="#m84c5bef8dc" x="734.671667" y="202.920083" style="fill: #333333; stroke: #333333; stroke-width: 0.8"/>
      </g>
     </g>
    </g>
    <g id="ytick_14">
     <g id="line2d_61">
      <path d="M 734.671667 130.25875 
L 1065.745 130.25875 
" clip-path="url(#p9567c3aa6c)" style="fill: none; stroke: #b0b0b0; stroke-opacity: 0.3; stroke-width: 0.8; stroke-linecap: square"/>
     </g>
     <g id="line2d_62">
      <g>
       <use xlink:href="#m84c5bef8dc" x="734.671667" y="130.25875" style="fill: #333333; stroke: #333333; stroke-width: 0.8"/>
      </g>
     </g>
    </g>
    <g id="ytick_15">
     <g id="line2d_63">
      <path d="M 734.671667 57.597417 
L 1065.745 57.597417 
" clip-path="url(#p9567c3aa6c)" style="fill: none; stroke: #b0b0b0; stroke-opacity: 0.3; stroke-width: 0.8; stroke-linecap: square"/>
     </g>
     <g id="line2d_64">
      <g>
       <use xlink:href="#m84c5bef8dc" x="734.671667" y="57.597417" style="fill: #333333; stroke: #333333; stroke-width: 0.8"/>
      </g>
     </g>
    </g>
   </g>
   <g id="FillBetweenPolyCollection_5">
    <defs>
     <path id="m13a1329314" d="M 734.671667 -204.897333 
L 734.671667 -77.74 
L 734.671667 -77.74 
L 734.671667 -77.74 
L 734.671667 -77.74 
L 734.671667 -204.897333 
z
" style="stroke: #73b3d8; stroke-opacity: 0.4"/>
    </defs>
    <g clip-path="url(#p9567c3aa6c)">
     <use xlink:href="#m13a1329314" x="0" y="425.98275" style="fill: #73b3d8; fill-opacity: 0.4; stroke: #73b3d8; stroke-opacity: 0.4"/>
    </g>
   </g>
   <g id="patch_9">
    <path d="M 734.671667 348.24275 
L 734.671667 48.51475 
" style="fill: none; stroke: #444444; stroke-width: 1.2; stroke-linejoin: miter; stroke-linecap: square"/>
   </g>
   <g id="patch_10">
    <path d="M 734.671667 348.24275 
L 1065.745 348.24275 
" style="fill: none; stroke: #444444; stroke-width: 1.2; stroke-linejoin: miter; stroke-linecap: square"/>
   </g>
   <g id="FillBetweenPolyCollection_6">
    <path d="M 734.671667 202.920083 
L 734.671667 221.085417 
L 734.671667 348.24275 
L 895.192071 348.24275 
L 895.192071 348.24275 
L 895.192071 348.24275 
L 734.671667 202.920083 
L 734.671667 202.920083 
z
" clip-path="url(#p9567c3aa6c)" style="fill: url(#h1161c6835e); stroke: #c0392b; stroke-opacity: 0.3"/>
   </g>
   <g id="text_28">
    <!-- C. Tier A = 8 MW -->
    <g style="fill: #333333" transform="translate(834.012396 17.837812) scale(0.14 -0.14)">
     <defs>
      <path id="DejaVuSans-Bold-38" d="M 2228 2088 
Q 1891 2088 1709 1903 
Q 1528 1719 1528 1375 
Q 1528 1031 1709 848 
Q 1891 666 2228 666 
Q 2563 666 2741 848 
Q 2919 1031 2919 1375 
Q 2919 1722 2741 1905 
Q 2563 2088 2228 2088 
z
M 1350 2484 
Q 925 2613 709 2878 
Q 494 3144 494 3541 
Q 494 4131 934 4440 
Q 1375 4750 2228 4750 
Q 3075 4750 3515 4442 
Q 3956 4134 3956 3541 
Q 3956 3144 3739 2878 
Q 3522 2613 3097 2484 
Q 3572 2353 3814 2058 
Q 4056 1763 4056 1313 
Q 4056 619 3595 264 
Q 3134 -91 2228 -91 
Q 1319 -91 855 264 
Q 391 619 391 1313 
Q 391 1763 633 2058 
Q 875 2353 1350 2484 
z
M 1631 3419 
Q 1631 3141 1786 2991 
Q 1941 2841 2228 2841 
Q 2509 2841 2662 2991 
Q 2816 3141 2816 3419 
Q 2816 3697 2662 3845 
Q 2509 3994 2228 3994 
Q 1941 3994 1786 3844 
Q 1631 3694 1631 3419 
z
" transform="scale(0.015625)"/>
     </defs>
     <use xlink:href="#DejaVuSans-Bold-43"/>
     <use xlink:href="#DejaVuSans-Bold-2e" transform="translate(73.388672 0)"/>
     <use xlink:href="#DejaVuSans-Bold-20" transform="translate(111.376953 0)"/>
     <use xlink:href="#DejaVuSans-Bold-54" transform="translate(146.191406 0)"/>
     <use xlink:href="#DejaVuSans-Bold-69" transform="translate(214.404297 0)"/>
     <use xlink:href="#DejaVuSans-Bold-65" transform="translate(248.681641 0)"/>
     <use xlink:href="#DejaVuSans-Bold-72" transform="translate(316.503906 0)"/>
     <use xlink:href="#DejaVuSans-Bold-20" transform="translate(365.820312 0)"/>
     <use xlink:href="#DejaVuSans-Bold-41" transform="translate(400.634766 0)"/>
     <use xlink:href="#DejaVuSans-Bold-20" transform="translate(478.027344 0)"/>
     <use xlink:href="#DejaVuSans-Bold-3d" transform="translate(512.841797 0)"/>
     <use xlink:href="#DejaVuSans-Bold-20" transform="translate(596.630859 0)"/>
     <use xlink:href="#DejaVuSans-Bold-38" transform="translate(631.445312 0)"/>
     <use xlink:href="#DejaVuSans-Bold-20" transform="translate(701.025391 0)"/>
     <use xlink:href="#DejaVuSans-Bold-4d" transform="translate(735.839844 0)"/>
     <use xlink:href="#DejaVuSans-Bold-57" transform="translate(835.351562 0)"/>
    </g>
    <!-- (Maximum Firm Load) -->
    <g style="fill: #333333" transform="translate(813.828333 33.51475) scale(0.14 -0.14)">
     <defs>
      <path id="DejaVuSans-Bold-4c" d="M 588 4666 
L 1791 4666 
L 1791 909 
L 3903 909 
L 3903 0 
L 588 0 
L 588 4666 
z
" transform="scale(0.015625)"/>
     </defs>
     <use xlink:href="#DejaVuSans-Bold-28"/>
     <use xlink:href="#DejaVuSans-Bold-4d" transform="translate(45.703125 0)"/>
     <use xlink:href="#DejaVuSans-Bold-61" transform="translate(145.214844 0)"/>
     <use xlink:href="#DejaVuSans-Bold-78" transform="translate(212.695312 0)"/>
     <use xlink:href="#DejaVuSans-Bold-69" transform="translate(277.197266 0)"/>
     <use xlink:href="#DejaVuSans-Bold-6d" transform="translate(311.474609 0)"/>
     <use xlink:href="#DejaVuSans-Bold-75" transform="translate(415.673828 0)"/>
     <use xlink:href="#DejaVuSans-Bold-6d" transform="translate(486.865234 0)"/>
     <use xlink:href="#DejaVuSans-Bold-20" transform="translate(591.064453 0)"/>
     <use xlink:href="#DejaVuSans-Bold-46" transform="translate(625.878906 0)"/>
     <use xlink:href="#DejaVuSans-Bold-69" transform="translate(694.189453 0)"/>
     <use xlink:href="#DejaVuSans-Bold-72" transform="translate(728.466797 0)"/>
     <use xlink:href="#DejaVuSans-Bold-6d" transform="translate(777.783203 0)"/>
     <use xlink:href="#DejaVuSans-Bold-20" transform="translate(881.982422 0)"/>
     <use xlink:href="#DejaVuSans-Bold-4c" transform="translate(916.796875 0)"/>
     <use xlink:href="#DejaVuSans-Bold-6f" transform="translate(980.517578 0)"/>
     <use xlink:href="#DejaVuSans-Bold-61" transform="translate(1049.21875 0)"/>
     <use xlink:href="#DejaVuSans-Bold-64" transform="translate(1116.699219 0)"/>
     <use xlink:href="#DejaVuSans-Bold-29" transform="translate(1188.28125 0)"/>
    </g>
   </g>
   <g id="line2d_65">
    <path d="M 734.671667 221.085417 
L 734.671667 348.24275 
" clip-path="url(#p9567c3aa6c)" style="fill: none; stroke: #113b5e; stroke-width: 3; stroke-linecap: square"/>
   </g>
   <g id="line2d_66">
    <path d="M 734.671667 202.920083 
L 895.192071 348.24275 
" clip-path="url(#p9567c3aa6c)" style="fill: none; stroke-dasharray: 7.4,3.2; stroke-dashoffset: 0; stroke: #7f8c8d; stroke-width: 2"/>
   </g>
  </g>
  <g id="legend_1">
   <g id="patch_11">
    <path d="M 119.725781 418.78275 
L 953.364219 418.78275 
Q 955.564219 418.78275 955.564219 416.58275 
L 955.564219 388.336812 
Q 955.564219 386.136812 953.364219 386.136812 
L 119.725781 386.136812 
Q 117.525781 386.136812 117.525781 388.336812 
L 117.525781 416.58275 
Q 117.525781 418.78275 119.725781 418.78275 
z
" style="fill: #ffffff; stroke: #e0e0e0; stroke-linejoin: miter"/>
   </g>
   <g id="patch_12">
    <path d="M 128.525781 405.495094 
L 150.525781 405.495094 
L 150.525781 397.795094 
L 128.525781 397.795094 
z
" style="fill: #73b3d8; opacity: 0.4"/>
   </g>
   <g id="text_29">
    <!-- Feasible Workload Combinations -->
    <g transform="translate(159.325781 405.495094) scale(0.11 -0.11)">
     <defs>
      <path id="DejaVuSans-46" d="M 628 4666 
L 3309 4666 
L 3309 4134 
L 1259 4134 
L 1259 2759 
L 3109 2759 
L 3109 2228 
L 1259 2228 
L 1259 0 
L 628 0 
L 628 4666 
z
" transform="scale(0.015625)"/>
      <path id="DejaVuSans-65" d="M 3597 1894 
L 3597 1613 
L 953 1613 
Q 991 1019 1311 708 
Q 1631 397 2203 397 
Q 2534 397 2845 478 
Q 3156 559 3463 722 
L 3463 178 
Q 3153 47 2828 -22 
Q 2503 -91 2169 -91 
Q 1331 -91 842 396 
Q 353 884 353 1716 
Q 353 2575 817 3079 
Q 1281 3584 2069 3584 
Q 2775 3584 3186 3129 
Q 3597 2675 3597 1894 
z
M 3022 2063 
Q 3016 2534 2758 2815 
Q 2500 3097 2075 3097 
Q 1594 3097 1305 2825 
Q 1016 2553 972 2059 
L 3022 2063 
z
" transform="scale(0.015625)"/>
      <path id="DejaVuSans-61" d="M 2194 1759 
Q 1497 1759 1228 1600 
Q 959 1441 959 1056 
Q 959 750 1161 570 
Q 1363 391 1709 391 
Q 2188 391 2477 730 
Q 2766 1069 2766 1631 
L 2766 1759 
L 2194 1759 
z
M 3341 1997 
L 3341 0 
L 2766 0 
L 2766 531 
Q 2569 213 2275 61 
Q 1981 -91 1556 -91 
Q 1019 -91 701 211 
Q 384 513 384 1019 
Q 384 1609 779 1909 
Q 1175 2209 1959 2209 
L 2766 2209 
L 2766 2266 
Q 2766 2663 2505 2880 
Q 2244 3097 1772 3097 
Q 1472 3097 1187 3025 
Q 903 2953 641 2809 
L 641 3341 
Q 956 3463 1253 3523 
Q 1550 3584 1831 3584 
Q 2591 3584 2966 3190 
Q 3341 2797 3341 1997 
z
" transform="scale(0.015625)"/>
      <path id="DejaVuSans-73" d="M 2834 3397 
L 2834 2853 
Q 2591 2978 2328 3040 
Q 2066 3103 1784 3103 
Q 1356 3103 1142 2972 
Q 928 2841 928 2578 
Q 928 2378 1081 2264 
Q 1234 2150 1697 2047 
L 1894 2003 
Q 2506 1872 2764 1633 
Q 3022 1394 3022 966 
Q 3022 478 2636 193 
Q 2250 -91 1575 -91 
Q 1294 -91 989 -36 
Q 684 19 347 128 
L 347 722 
Q 666 556 975 473 
Q 1284 391 1588 391 
Q 1994 391 2212 530 
Q 2431 669 2431 922 
Q 2431 1156 2273 1281 
Q 2116 1406 1581 1522 
L 1381 1569 
Q 847 1681 609 1914 
Q 372 2147 372 2553 
Q 372 3047 722 3315 
Q 1072 3584 1716 3584 
Q 2034 3584 2315 3537 
Q 2597 3491 2834 3397 
z
" transform="scale(0.015625)"/>
      <path id="DejaVuSans-69" d="M 603 3500 
L 1178 3500 
L 1178 0 
L 603 0 
L 603 3500 
z
M 603 4863 
L 1178 4863 
L 1178 4134 
L 603 4134 
L 603 4863 
z
" transform="scale(0.015625)"/>
      <path id="DejaVuSans-62" d="M 3116 1747 
Q 3116 2381 2855 2742 
Q 2594 3103 2138 3103 
Q 1681 3103 1420 2742 
Q 1159 2381 1159 1747 
Q 1159 1113 1420 752 
Q 1681 391 2138 391 
Q 2594 391 2855 752 
Q 3116 1113 3116 1747 
z
M 1159 2969 
Q 1341 3281 1617 3432 
Q 1894 3584 2278 3584 
Q 2916 3584 3314 3078 
Q 3713 2572 3713 1747 
Q 3713 922 3314 415 
Q 2916 -91 2278 -91 
Q 1894 -91 1617 61 
Q 1341 213 1159 525 
L 1159 0 
L 581 0 
L 581 4863 
L 1159 4863 
L 1159 2969 
z
" transform="scale(0.015625)"/>
      <path id="DejaVuSans-6c" d="M 603 4863 
L 1178 4863 
L 1178 0 
L 603 0 
L 603 4863 
z
" transform="scale(0.015625)"/>
      <path id="DejaVuSans-20" transform="scale(0.015625)"/>
      <path id="DejaVuSans-57" d="M 213 4666 
L 850 4666 
L 1831 722 
L 2809 4666 
L 3519 4666 
L 4500 722 
L 5478 4666 
L 6119 4666 
L 4947 0 
L 4153 0 
L 3169 4050 
L 2175 0 
L 1381 0 
L 213 4666 
z
" transform="scale(0.015625)"/>
      <path id="DejaVuSans-6f" d="M 1959 3097 
Q 1497 3097 1228 2736 
Q 959 2375 959 1747 
Q 959 1119 1226 758 
Q 1494 397 1959 397 
Q 2419 397 2687 759 
Q 2956 1122 2956 1747 
Q 2956 2369 2687 2733 
Q 2419 3097 1959 3097 
z
M 1959 3584 
Q 2709 3584 3137 3096 
Q 3566 2609 3566 1747 
Q 3566 888 3137 398 
Q 2709 -91 1959 -91 
Q 1206 -91 779 398 
Q 353 888 353 1747 
Q 353 2609 779 3096 
Q 1206 3584 1959 3584 
z
" transform="scale(0.015625)"/>
      <path id="DejaVuSans-72" d="M 2631 2963 
Q 2534 3019 2420 3045 
Q 2306 3072 2169 3072 
Q 1681 3072 1420 2755 
Q 1159 2438 1159 1844 
L 1159 0 
L 581 0 
L 581 3500 
L 1159 3500 
L 1159 2956 
Q 1341 3275 1631 3429 
Q 1922 3584 2338 3584 
Q 2397 3584 2469 3576 
Q 2541 3569 2628 3553 
L 2631 2963 
z
" transform="scale(0.015625)"/>
      <path id="DejaVuSans-6b" d="M 581 4863 
L 1159 4863 
L 1159 1991 
L 2875 3500 
L 3609 3500 
L 1753 1863 
L 3688 0 
L 2938 0 
L 1159 1709 
L 1159 0 
L 581 0 
L 581 4863 
z
" transform="scale(0.015625)"/>
      <path id="DejaVuSans-64" d="M 2906 2969 
L 2906 4863 
L 3481 4863 
L 3481 0 
L 2906 0 
L 2906 525 
Q 2725 213 2448 61 
Q 2172 -91 1784 -91 
Q 1150 -91 751 415 
Q 353 922 353 1747 
Q 353 2572 751 3078 
Q 1150 3584 1784 3584 
Q 2172 3584 2448 3432 
Q 2725 3281 2906 2969 
z
M 947 1747 
Q 947 1113 1208 752 
Q 1469 391 1925 391 
Q 2381 391 2643 752 
Q 2906 1113 2906 1747 
Q 2906 2381 2643 2742 
Q 2381 3103 1925 3103 
Q 1469 3103 1208 2742 
Q 947 2381 947 1747 
z
" transform="scale(0.015625)"/>
      <path id="DejaVuSans-43" d="M 4122 4306 
L 4122 3641 
Q 3803 3938 3442 4084 
Q 3081 4231 2675 4231 
Q 1875 4231 1450 3742 
Q 1025 3253 1025 2328 
Q 1025 1406 1450 917 
Q 1875 428 2675 428 
Q 3081 428 3442 575 
Q 3803 722 4122 1019 
L 4122 359 
Q 3791 134 3420 21 
Q 3050 -91 2638 -91 
Q 1578 -91 968 557 
Q 359 1206 359 2328 
Q 359 3453 968 4101 
Q 1578 4750 2638 4750 
Q 3056 4750 3426 4639 
Q 3797 4528 4122 4306 
z
" transform="scale(0.015625)"/>
      <path id="DejaVuSans-6d" d="M 3328 2828 
Q 3544 3216 3844 3400 
Q 4144 3584 4550 3584 
Q 5097 3584 5394 3201 
Q 5691 2819 5691 2113 
L 5691 0 
L 5113 0 
L 5113 2094 
Q 5113 2597 4934 2840 
Q 4756 3084 4391 3084 
Q 3944 3084 3684 2787 
Q 3425 2491 3425 1978 
L 3425 0 
L 2847 0 
L 2847 2094 
Q 2847 2600 2669 2842 
Q 2491 3084 2119 3084 
Q 1678 3084 1418 2786 
Q 1159 2488 1159 1978 
L 1159 0 
L 581 0 
L 581 3500 
L 1159 3500 
L 1159 2956 
Q 1356 3278 1631 3431 
Q 1906 3584 2284 3584 
Q 2666 3584 2933 3390 
Q 3200 3197 3328 2828 
z
" transform="scale(0.015625)"/>
      <path id="DejaVuSans-6e" d="M 3513 2113 
L 3513 0 
L 2938 0 
L 2938 2094 
Q 2938 2591 2744 2837 
Q 2550 3084 2163 3084 
Q 1697 3084 1428 2787 
Q 1159 2491 1159 1978 
L 1159 0 
L 581 0 
L 581 3500 
L 1159 3500 
L 1159 2956 
Q 1366 3272 1645 3428 
Q 1925 3584 2291 3584 
Q 2894 3584 3203 3211 
Q 3513 2838 3513 2113 
z
" transform="scale(0.015625)"/>
      <path id="DejaVuSans-74" d="M 1172 4494 
L 1172 3500 
L 2356 3500 
L 2356 3053 
L 1172 3053 
L 1172 1153 
Q 1172 725 1289 603 
Q 1406 481 1766 481 
L 2356 481 
L 2356 0 
L 1766 0 
Q 1100 0 847 248 
Q 594 497 594 1153 
L 594 3053 
L 172 3053 
L 172 3500 
L 594 3500 
L 594 4494 
L 1172 4494 
z
" transform="scale(0.015625)"/>
     </defs>
     <use xlink:href="#DejaVuSans-46"/>
     <use xlink:href="#DejaVuSans-65" transform="translate(52.019531 0)"/>
     <use xlink:href="#DejaVuSans-61" transform="translate(113.542969 0)"/>
     <use xlink:href="#DejaVuSans-73" transform="translate(174.822266 0)"/>
     <use xlink:href="#DejaVuSans-69" transform="translate(226.921875 0)"/>
     <use xlink:href="#DejaVuSans-62" transform="translate(254.705078 0)"/>
     <use xlink:href="#DejaVuSans-6c" transform="translate(318.181641 0)"/>
     <use xlink:href="#DejaVuSans-65" transform="translate(345.964844 0)"/>
     <use xlink:href="#DejaVuSans-20" transform="translate(407.488281 0)"/>
     <use xlink:href="#DejaVuSans-57" transform="translate(439.275391 0)"/>
     <use xlink:href="#DejaVuSans-6f" transform="translate(532.277344 0)"/>
     <use xlink:href="#DejaVuSans-72" transform="translate(593.458984 0)"/>
     <use xlink:href="#DejaVuSans-6b" transform="translate(634.572266 0)"/>
     <use xlink:href="#DejaVuSans-6c" transform="translate(692.482422 0)"/>
     <use xlink:href="#DejaVuSans-6f" transform="translate(720.265625 0)"/>
     <use xlink:href="#DejaVuSans-61" transform="translate(781.447266 0)"/>
     <use xlink:href="#DejaVuSans-64" transform="translate(842.726562 0)"/>
     <use xlink:href="#DejaVuSans-20" transform="translate(906.203125 0)"/>
     <use xlink:href="#DejaVuSans-43" transform="translate(937.990234 0)"/>
     <use xlink:href="#DejaVuSans-6f" transform="translate(1007.814453 0)"/>
     <use xlink:href="#DejaVuSans-6d" transform="translate(1068.996094 0)"/>
     <use xlink:href="#DejaVuSans-62" transform="translate(1166.408203 0)"/>
     <use xlink:href="#DejaVuSans-69" transform="translate(1229.884766 0)"/>
     <use xlink:href="#DejaVuSans-6e" transform="translate(1257.667969 0)"/>
     <use xlink:href="#DejaVuSans-61" transform="translate(1321.046875 0)"/>
     <use xlink:href="#DejaVuSans-74" transform="translate(1382.326172 0)"/>
     <use xlink:href="#DejaVuSans-69" transform="translate(1421.535156 0)"/>
     <use xlink:href="#DejaVuSans-6f" transform="translate(1449.318359 0)"/>
     <use xlink:href="#DejaVuSans-6e" transform="translate(1510.5 0)"/>
     <use xlink:href="#DejaVuSans-73" transform="translate(1573.878906 0)"/>
    </g>
   </g>
   <g id="line2d_67">
    <path d="M 360.184062 401.645094 
L 371.184062 401.645094 
L 382.184062 401.645094 
" style="fill: none; stroke: #113b5e; stroke-width: 3; stroke-linecap: square"/>
   </g>
   <g id="text_30">
    <!-- Maximum Workload Mix -->
    <g transform="translate(390.984062 405.495094) scale(0.11 -0.11)">
     <defs>
      <path id="DejaVuSans-4d" d="M 628 4666 
L 1569 4666 
L 2759 1491 
L 3956 4666 
L 4897 4666 
L 4897 0 
L 4281 0 
L 4281 4097 
L 3078 897 
L 2444 897 
L 1241 4097 
L 1241 0 
L 628 0 
L 628 4666 
z
" transform="scale(0.015625)"/>
      <path id="DejaVuSans-78" d="M 3513 3500 
L 2247 1797 
L 3578 0 
L 2900 0 
L 1881 1375 
L 863 0 
L 184 0 
L 1544 1831 
L 300 3500 
L 978 3500 
L 1906 2253 
L 2834 3500 
L 3513 3500 
z
" transform="scale(0.015625)"/>
      <path id="DejaVuSans-75" d="M 544 1381 
L 544 3500 
L 1119 3500 
L 1119 1403 
Q 1119 906 1312 657 
Q 1506 409 1894 409 
Q 2359 409 2629 706 
Q 2900 1003 2900 1516 
L 2900 3500 
L 3475 3500 
L 3475 0 
L 2900 0 
L 2900 538 
Q 2691 219 2414 64 
Q 2138 -91 1772 -91 
Q 1169 -91 856 284 
Q 544 659 544 1381 
z
M 1991 3584 
L 1991 3584 
z
" transform="scale(0.015625)"/>
     </defs>
     <use xlink:href="#DejaVuSans-4d"/>
     <use xlink:href="#DejaVuSans-61" transform="translate(86.279297 0)"/>
     <use xlink:href="#DejaVuSans-78" transform="translate(147.558594 0)"/>
     <use xlink:href="#DejaVuSans-69" transform="translate(206.738281 0)"/>
     <use xlink:href="#DejaVuSans-6d" transform="translate(234.521484 0)"/>
     <use xlink:href="#DejaVuSans-75" transform="translate(331.933594 0)"/>
     <use xlink:href="#DejaVuSans-6d" transform="translate(395.3125 0)"/>
     <use xlink:href="#DejaVuSans-20" transform="translate(492.724609 0)"/>
     <use xlink:href="#DejaVuSans-57" transform="translate(524.511719 0)"/>
     <use xlink:href="#DejaVuSans-6f" transform="translate(617.513672 0)"/>
     <use xlink:href="#DejaVuSans-72" transform="translate(678.695312 0)"/>
     <use xlink:href="#DejaVuSans-6b" transform="translate(719.808594 0)"/>
     <use xlink:href="#DejaVuSans-6c" transform="translate(777.71875 0)"/>
     <use xlink:href="#DejaVuSans-6f" transform="translate(805.501953 0)"/>
     <use xlink:href="#DejaVuSans-61" transform="translate(866.683594 0)"/>
     <use xlink:href="#DejaVuSans-64" transform="translate(927.962891 0)"/>
     <use xlink:href="#DejaVuSans-20" transform="translate(991.439453 0)"/>
     <use xlink:href="#DejaVuSans-4d" transform="translate(1023.226562 0)"/>
     <use xlink:href="#DejaVuSans-69" transform="translate(1109.505859 0)"/>
     <use xlink:href="#DejaVuSans-78" transform="translate(1137.289062 0)"/>
    </g>
   </g>
   <g id="line2d_68">
    <path d="M 544.595625 401.645094 
L 555.595625 401.645094 
L 566.595625 401.645094 
" style="fill: none; stroke-dasharray: 7.4,3.2; stroke-dashoffset: 0; stroke: #7f8c8d; stroke-width: 2"/>
   </g>
   <g id="text_31">
    <!-- Remaining Physical Hardware Limit -->
    <g transform="translate(575.395625 405.495094) scale(0.11 -0.11)">
     <defs>
      <path id="DejaVuSans-52" d="M 2841 2188 
Q 3044 2119 3236 1894 
Q 3428 1669 3622 1275 
L 4263 0 
L 3584 0 
L 2988 1197 
Q 2756 1666 2539 1819 
Q 2322 1972 1947 1972 
L 1259 1972 
L 1259 0 
L 628 0 
L 628 4666 
L 2053 4666 
Q 2853 4666 3247 4331 
Q 3641 3997 3641 3322 
Q 3641 2881 3436 2590 
Q 3231 2300 2841 2188 
z
M 1259 4147 
L 1259 2491 
L 2053 2491 
Q 2509 2491 2742 2702 
Q 2975 2913 2975 3322 
Q 2975 3731 2742 3939 
Q 2509 4147 2053 4147 
L 1259 4147 
z
" transform="scale(0.015625)"/>
      <path id="DejaVuSans-67" d="M 2906 1791 
Q 2906 2416 2648 2759 
Q 2391 3103 1925 3103 
Q 1463 3103 1205 2759 
Q 947 2416 947 1791 
Q 947 1169 1205 825 
Q 1463 481 1925 481 
Q 2391 481 2648 825 
Q 2906 1169 2906 1791 
z
M 3481 434 
Q 3481 -459 3084 -895 
Q 2688 -1331 1869 -1331 
Q 1566 -1331 1297 -1286 
Q 1028 -1241 775 -1147 
L 775 -588 
Q 1028 -725 1275 -790 
Q 1522 -856 1778 -856 
Q 2344 -856 2625 -561 
Q 2906 -266 2906 331 
L 2906 616 
Q 2728 306 2450 153 
Q 2172 0 1784 0 
Q 1141 0 747 490 
Q 353 981 353 1791 
Q 353 2603 747 3093 
Q 1141 3584 1784 3584 
Q 2172 3584 2450 3431 
Q 2728 3278 2906 2969 
L 2906 3500 
L 3481 3500 
L 3481 434 
z
" transform="scale(0.015625)"/>
      <path id="DejaVuSans-50" d="M 1259 4147 
L 1259 2394 
L 2053 2394 
Q 2494 2394 2734 2622 
Q 2975 2850 2975 3272 
Q 2975 3691 2734 3919 
Q 2494 4147 2053 4147 
L 1259 4147 
z
M 628 4666 
L 2053 4666 
Q 2838 4666 3239 4311 
Q 3641 3956 3641 3272 
Q 3641 2581 3239 2228 
Q 2838 1875 2053 1875 
L 1259 1875 
L 1259 0 
L 628 0 
L 628 4666 
z
" transform="scale(0.015625)"/>
      <path id="DejaVuSans-68" d="M 3513 2113 
L 3513 0 
L 2938 0 
L 2938 2094 
Q 2938 2591 2744 2837 
Q 2550 3084 2163 3084 
Q 1697 3084 1428 2787 
Q 1159 2491 1159 1978 
L 1159 0 
L 581 0 
L 581 4863 
L 1159 4863 
L 1159 2956 
Q 1366 3272 1645 3428 
Q 1925 3584 2291 3584 
Q 2894 3584 3203 3211 
Q 3513 2838 3513 2113 
z
" transform="scale(0.015625)"/>
      <path id="DejaVuSans-79" d="M 2059 -325 
Q 1816 -950 1584 -1140 
Q 1353 -1331 966 -1331 
L 506 -1331 
L 506 -850 
L 844 -850 
Q 1081 -850 1212 -737 
Q 1344 -625 1503 -206 
L 1606 56 
L 191 3500 
L 800 3500 
L 1894 763 
L 2988 3500 
L 3597 3500 
L 2059 -325 
z
" transform="scale(0.015625)"/>
      <path id="DejaVuSans-63" d="M 3122 3366 
L 3122 2828 
Q 2878 2963 2633 3030 
Q 2388 3097 2138 3097 
Q 1578 3097 1268 2742 
Q 959 2388 959 1747 
Q 959 1106 1268 751 
Q 1578 397 2138 397 
Q 2388 397 2633 464 
Q 2878 531 3122 666 
L 3122 134 
Q 2881 22 2623 -34 
Q 2366 -91 2075 -91 
Q 1284 -91 818 406 
Q 353 903 353 1747 
Q 353 2603 823 3093 
Q 1294 3584 2113 3584 
Q 2378 3584 2631 3529 
Q 2884 3475 3122 3366 
z
" transform="scale(0.015625)"/>
      <path id="DejaVuSans-48" d="M 628 4666 
L 1259 4666 
L 1259 2753 
L 3553 2753 
L 3553 4666 
L 4184 4666 
L 4184 0 
L 3553 0 
L 3553 2222 
L 1259 2222 
L 1259 0 
L 628 0 
L 628 4666 
z
" transform="scale(0.015625)"/>
      <path id="DejaVuSans-77" d="M 269 3500 
L 844 3500 
L 1563 769 
L 2278 3500 
L 2956 3500 
L 3675 769 
L 4391 3500 
L 4966 3500 
L 4050 0 
L 3372 0 
L 2619 2869 
L 1863 0 
L 1184 0 
L 269 3500 
z
" transform="scale(0.015625)"/>
      <path id="DejaVuSans-4c" d="M 628 4666 
L 1259 4666 
L 1259 531 
L 3531 531 
L 3531 0 
L 628 0 
L 628 4666 
z
" transform="scale(0.015625)"/>
     </defs>
     <use xlink:href="#DejaVuSans-52"/>
     <use xlink:href="#DejaVuSans-65" transform="translate(64.982422 0)"/>
     <use xlink:href="#DejaVuSans-6d" transform="translate(126.505859 0)"/>
     <use xlink:href="#DejaVuSans-61" transform="translate(223.917969 0)"/>
     <use xlink:href="#DejaVuSans-69" transform="translate(285.197266 0)"/>
     <use xlink:href="#DejaVuSans-6e" transform="translate(312.980469 0)"/>
     <use xlink:href="#DejaVuSans-69" transform="translate(376.359375 0)"/>
     <use xlink:href="#DejaVuSans-6e" transform="translate(404.142578 0)"/>
     <use xlink:href="#DejaVuSans-67" transform="translate(467.521484 0)"/>
     <use xlink:href="#DejaVuSans-20" transform="translate(530.998047 0)"/>
     <use xlink:href="#DejaVuSans-50" transform="translate(562.785156 0)"/>
     <use xlink:href="#DejaVuSans-68" transform="translate(623.087891 0)"/>
     <use xlink:href="#DejaVuSans-79" transform="translate(686.466797 0)"/>
     <use xlink:href="#DejaVuSans-73" transform="translate(745.646484 0)"/>
     <use xlink:href="#DejaVuSans-69" transform="translate(797.746094 0)"/>
     <use xlink:href="#DejaVuSans-63" transform="translate(825.529297 0)"/>
     <use xlink:href="#DejaVuSans-61" transform="translate(880.509766 0)"/>
     <use xlink:href="#DejaVuSans-6c" transform="translate(941.789062 0)"/>
     <use xlink:href="#DejaVuSans-20" transform="translate(969.572266 0)"/>
     <use xlink:href="#DejaVuSans-48" transform="translate(1001.359375 0)"/>
     <use xlink:href="#DejaVuSans-61" transform="translate(1076.554688 0)"/>
     <use xlink:href="#DejaVuSans-72" transform="translate(1137.833984 0)"/>
     <use xlink:href="#DejaVuSans-64" transform="translate(1177.197266 0)"/>
     <use xlink:href="#DejaVuSans-77" transform="translate(1240.673828 0)"/>
     <use xlink:href="#DejaVuSans-61" transform="translate(1322.460938 0)"/>
     <use xlink:href="#DejaVuSans-72" transform="translate(1383.740234 0)"/>
     <use xlink:href="#DejaVuSans-65" transform="translate(1422.603516 0)"/>
     <use xlink:href="#DejaVuSans-20" transform="translate(1484.126953 0)"/>
     <use xlink:href="#DejaVuSans-4c" transform="translate(1515.914062 0)"/>
     <use xlink:href="#DejaVuSans-69" transform="translate(1571.626953 0)"/>
     <use xlink:href="#DejaVuSans-6d" transform="translate(1599.410156 0)"/>
     <use xlink:href="#DejaVuSans-69" transform="translate(1696.822266 0)"/>
     <use xlink:href="#DejaVuSans-74" transform="translate(1724.605469 0)"/>
    </g>
   </g>
   <g id="patch_13">
    <path d="M 791.413281 405.495094 
L 813.413281 405.495094 
L 813.413281 397.795094 
L 791.413281 397.795094 
z
" style="fill: url(#h5e5aa9a1ea); opacity: 0.6; stroke: #c0392b; stroke-linejoin: miter"/>
   </g>
   <g id="text_32">
    <!-- Cannibalized Capacity -->
    <g transform="translate(822.213281 405.495094) scale(0.11 -0.11)">
     <defs>
      <path id="DejaVuSans-7a" d="M 353 3500 
L 3084 3500 
L 3084 2975 
L 922 459 
L 3084 459 
L 3084 0 
L 275 0 
L 275 525 
L 2438 3041 
L 353 3041 
L 353 3500 
z
" transform="scale(0.015625)"/>
      <path id="DejaVuSans-70" d="M 1159 525 
L 1159 -1331 
L 581 -1331 
L 581 3500 
L 1159 3500 
L 1159 2969 
Q 1341 3281 1617 3432 
Q 1894 3584 2278 3584 
Q 2916 3584 3314 3078 
Q 3713 2572 3713 1747 
Q 3713 922 3314 415 
Q 2916 -91 2278 -91 
Q 1894 -91 1617 61 
Q 1341 213 1159 525 
z
M 3116 1747 
Q 3116 2381 2855 2742 
Q 2594 3103 2138 3103 
Q 1681 3103 1420 2742 
Q 1159 2381 1159 1747 
Q 1159 1113 1420 752 
Q 1681 391 2138 391 
Q 2594 391 2855 752 
Q 3116 1113 3116 1747 
z
" transform="scale(0.015625)"/>
     </defs>
     <use xlink:href="#DejaVuSans-43"/>
     <use xlink:href="#DejaVuSans-61" transform="translate(69.824219 0)"/>
     <use xlink:href="#DejaVuSans-6e" transform="translate(131.103516 0)"/>
     <use xlink:href="#DejaVuSans-6e" transform="translate(194.482422 0)"/>
     <use xlink:href="#DejaVuSans-69" transform="translate(257.861328 0)"/>
     <use xlink:href="#DejaVuSans-62" transform="translate(285.644531 0)"/>
     <use xlink:href="#DejaVuSans-61" transform="translate(349.121094 0)"/>
     <use xlink:href="#DejaVuSans-6c" transform="translate(410.400391 0)"/>
     <use xlink:href="#DejaVuSans-69" transform="translate(438.183594 0)"/>
     <use xlink:href="#DejaVuSans-7a" transform="translate(465.966797 0)"/>
     <use xlink:href="#DejaVuSans-65" transform="translate(518.457031 0)"/>
     <use xlink:href="#DejaVuSans-64" transform="translate(579.980469 0)"/>
     <use xlink:href="#DejaVuSans-20" transform="translate(643.457031 0)"/>
     <use xlink:href="#DejaVuSans-43" transform="translate(675.244141 0)"/>
     <use xlink:href="#DejaVuSans-61" transform="translate(745.068359 0)"/>
     <use xlink:href="#DejaVuSans-70" transform="translate(806.347656 0)"/>
     <use xlink:href="#DejaVuSans-61" transform="translate(869.824219 0)"/>
     <use xlink:href="#DejaVuSans-63" transform="translate(931.103516 0)"/>
     <use xlink:href="#DejaVuSans-69" transform="translate(986.083984 0)"/>
     <use xlink:href="#DejaVuSans-74" transform="translate(1013.867188 0)"/>
     <use xlink:href="#DejaVuSans-79" transform="translate(1053.076172 0)"/>
    </g>
   </g>
  </g>
 </g>
 <defs>
  <clipPath id="p21229de7d3">
   <rect x="43.905" y="48.51475" width="331.073333" height="299.728"/>
  </clipPath>
  <clipPath id="p0596ec5d94">
   <rect x="389.288333" y="48.51475" width="331.073333" height="299.728"/>
  </clipPath>
  <clipPath id="p9567c3aa6c">
   <rect x="734.671667" y="48.51475" width="331.073333" height="299.728"/>
  </clipPath>
 </defs>
 <defs>
  <pattern id="h1161c6835e" patternUnits="userSpaceOnUse" x="0" y="0" width="72" height="72">
   <rect x="0" y="0" width="73" height="73" fill="none"/>
   <path d="M -36 36 
L 36 -36 
M -32 40 
L 40 -32 
M -28 44 
L 44 -28 
M -24 48 
L 48 -24 
M -20 52 
L 52 -20 
M -16 56 
L 56 -16 
M -12 60 
L 60 -12 
M -8 64 
L 64 -8 
M -4 68 
L 68 -4 
M 0 72 
L 72 0 
M 4 76 
L 76 4 
M 8 80 
L 80 8 
M 12 84 
L 84 12 
M 16 88 
L 88 16 
M 20 92 
L 92 20 
M 24 96 
L 96 24 
M 28 100 
L 100 28 
M 32 104 
L 104 32 
M 36 108 
L 108 36 
" style="fill: #c0392b; stroke: #c0392b; stroke-width: 1.0; stroke-linecap: butt; stroke-linejoin: miter; stroke-opacity: 0.3"/>
  </pattern>
  <pattern id="h5e5aa9a1ea" patternUnits="userSpaceOnUse" x="0" y="0" width="72" height="72">
   <rect x="0" y="0" width="73" height="73" fill="none"/>
   <path d="M -36 36 
L 36 -36 
M -32 40 
L 40 -32 
M -28 44 
L 44 -28 
M -24 48 
L 48 -24 
M -20 52 
L 52 -20 
M -16 56 
L 56 -16 
M -12 60 
L 60 -12 
M -8 64 
L 64 -8 
M -4 68 
L 68 -4 
M 0 72 
L 72 0 
M 4 76 
L 76 4 
M 8 80 
L 80 8 
M 12 84 
L 84 12 
M 16 88 
L 88 16 
M 20 92 
L 92 20 
M 24 96 
L 96 24 
M 28 100 
L 100 28 
M 32 104 
L 104 32 
M 36 108 
L 108 36 
" style="fill: #c0392b; stroke: #c0392b; stroke-width: 1.0; stroke-linecap: butt; stroke-linejoin: miter; stroke-opacity: 0.6"/>
  </pattern>
 </defs>
</svg>
