<?xml version="1.0" encoding="utf-8" standalone="no"?>
<!DOCTYPE svg PUBLIC "-//W3C//DTD SVG 1.1//EN"
  "http://www.w3.org/Graphics/SVG/1.1/DTD/svg11.dtd">
<svg xmlns:xlink="http://www.w3.org/1999/xlink" width="1145.408437pt" height="427.605937pt" viewBox="0 0 1145.408437 427.605937" xmlns="http://www.w3.org/2000/svg" version="1.1">
 <metadata>
  <rdf:RDF xmlns:dc="http://purl.org/dc/elements/1.1/" xmlns:cc="http://creativecommons.org/ns#" xmlns:rdf="http://www.w3.org/1999/02/22-rdf-syntax-ns#">
   <cc:Work>
    <dc:type rdf:resource="http://purl.org/dc/dcmitype/StillImage"/>
    <dc:date>2026-03-23T16:27:51.660170</dc:date>
    <dc:format>image/svg+xml</dc:format>
    <dc:creator>
     <cc:Agent>
      <dc:title>Matplotlib v3.10.8, https://matplotlib.org/</dc:title>
     </cc:Agent>
    </dc:creator>
   </cc:Work>
  </rdf:RDF>
 </metadata>
 <defs>
  <style type="text/css">*{stroke-linejoin: round; stroke-linecap: butt}</style>
 </defs>
 <g id="figure_1">
  <g id="patch_1">
   <path d="M 0 427.605937 
L 1145.408437 427.605937 
L 1145.408437 0 
L 0 0 
z
" style="fill: #ffffff"/>
  </g>
  <g id="axes_1">
   <g id="patch_2">
    <path d="M 47.933438 402.76 
L 359.271011 402.76 
L 359.271011 73.26 
L 47.933438 73.26 
z
" style="fill: #ffffff"/>
   </g>
   <g id="patch_3">
    <path d="M 62.085145 402.76 
L 156.429865 402.76 
L 156.429865 278.565661 
L 62.085145 278.565661 
z
" clip-path="url(#p3ef1a13386)" style="fill: #1f77b4; stroke: #ffffff; stroke-linejoin: miter"/>
   </g>
   <g id="patch_4">
    <path d="M 250.774584 402.76 
L 345.119303 402.76 
L 345.119303 253.726794 
L 250.774584 253.726794 
z
" clip-path="url(#p3ef1a13386)" style="fill: #1f77b4; stroke: #ffffff; stroke-linejoin: miter"/>
   </g>
   <g id="patch_5">
    <path d="M 62.085145 278.565661 
L 156.429865 278.565661 
L 156.429865 221.436266 
L 62.085145 221.436266 
z
" clip-path="url(#p3ef1a13386)" style="fill: #ff7f0e; stroke: #ffffff; stroke-linejoin: miter"/>
   </g>
   <g id="patch_6">
    <path d="M 250.774584 253.726794 
L 345.119303 253.726794 
L 345.119303 196.597398 
L 250.774584 196.597398 
z
" clip-path="url(#p3ef1a13386)" style="fill: #ff7f0e; stroke: #ffffff; stroke-linejoin: miter"/>
   </g>
   <g id="patch_7">
    <path d="M 62.085145 221.436266 
L 156.429865 221.436266 
L 156.429865 202.220641 
L 62.085145 202.220641 
z
" clip-path="url(#p3ef1a13386)" style="fill: #9467bd; stroke: #ffffff; stroke-linejoin: miter"/>
   </g>
   <g id="patch_8">
    <path d="M 250.774584 196.597398 
L 345.119303 196.597398 
L 345.119303 158.16615 
L 250.774584 158.16615 
z
" clip-path="url(#p3ef1a13386)" style="fill: #9467bd; stroke: #ffffff; stroke-linejoin: miter"/>
   </g>
   <g id="patch_9">
    <path d="M 62.085145 202.220641 
L 156.429865 202.220641 
L 156.429865 144.913234 
L 62.085145 144.913234 
z
" clip-path="url(#p3ef1a13386)" style="fill: #7f7f7f; stroke: #ffffff; stroke-linejoin: miter"/>
   </g>
   <g id="patch_10">
    <path d="M 250.774584 158.16615 
L 345.119303 158.16615 
L 345.119303 100.858742 
L 250.774584 100.858742 
z
" clip-path="url(#p3ef1a13386)" style="fill: #7f7f7f; stroke: #ffffff; stroke-linejoin: miter"/>
   </g>
   <g id="matplotlib.axis_1">
    <g id="xtick_1">
     <g id="line2d_1">
      <defs>
       <path id="m2a7f9edd9e" d="M 0 0 
L 0 3.5 
" style="stroke: #000000; stroke-width: 0.8"/>
      </defs>
      <g>
       <use xlink:href="#m2a7f9edd9e" x="109.257505" y="402.76" style="stroke: #000000; stroke-width: 0.8"/>
      </g>
     </g>
     <g id="text_1">
      <!-- Baseline -->
      <g transform="translate(85.938364 418.118281) scale(0.11 -0.11)">
       <defs>
        <path id="DejaVuSans-42" d="M 1259 2228 
L 1259 519 
L 2272 519 
Q 2781 519 3026 730 
Q 3272 941 3272 1375 
Q 3272 1813 3026 2020 
Q 2781 2228 2272 2228 
L 1259 2228 
z
M 1259 4147 
L 1259 2741 
L 2194 2741 
Q 2656 2741 2882 2914 
Q 3109 3088 3109 3444 
Q 3109 3797 2882 3972 
Q 2656 4147 2194 4147 
L 1259 4147 
z
M 628 4666 
L 2241 4666 
Q 2963 4666 3353 4366 
Q 3744 4066 3744 3513 
Q 3744 3084 3544 2831 
Q 3344 2578 2956 2516 
Q 3422 2416 3680 2098 
Q 3938 1781 3938 1306 
Q 3938 681 3513 340 
Q 3088 0 2303 0 
L 628 0 
L 628 4666 
z
" transform="scale(0.015625)"/>
        <path id="DejaVuSans-61" d="M 2194 1759 
Q 1497 1759 1228 1600 
Q 959 1441 959 1056 
Q 959 750 1161 570 
Q 1363 391 1709 391 
Q 2188 391 2477 730 
Q 2766 1069 2766 1631 
L 2766 1759 
L 2194 1759 
z
M 3341 1997 
L 3341 0 
L 2766 0 
L 2766 531 
Q 2569 213 2275 61 
Q 1981 -91 1556 -91 
Q 1019 -91 701 211 
Q 384 513 384 1019 
Q 384 1609 779 1909 
Q 1175 2209 1959 2209 
L 2766 2209 
L 2766 2266 
Q 2766 2663 2505 2880 
Q 2244 3097 1772 3097 
Q 1472 3097 1187 3025 
Q 903 2953 641 2809 
L 641 3341 
Q 956 3463 1253 3523 
Q 1550 3584 1831 3584 
Q 2591 3584 2966 3190 
Q 3341 2797 3341 1997 
z
" transform="scale(0.015625)"/>
        <path id="DejaVuSans-73" d="M 2834 3397 
L 2834 2853 
Q 2591 2978 2328 3040 
Q 2066 3103 1784 3103 
Q 1356 3103 1142 2972 
Q 928 2841 928 2578 
Q 928 2378 1081 2264 
Q 1234 2150 1697 2047 
L 1894 2003 
Q 2506 1872 2764 1633 
Q 3022 1394 3022 966 
Q 3022 478 2636 193 
Q 2250 -91 1575 -91 
Q 1294 -91 989 -36 
Q 684 19 347 128 
L 347 722 
Q 666 556 975 473 
Q 1284 391 1588 391 
Q 1994 391 2212 530 
Q 2431 669 2431 922 
Q 2431 1156 2273 1281 
Q 2116 1406 1581 1522 
L 1381 1569 
Q 847 1681 609 1914 
Q 372 2147 372 2553 
Q 372 3047 722 3315 
Q 1072 3584 1716 3584 
Q 2034 3584 2315 3537 
Q 2597 3491 2834 3397 
z
" transform="scale(0.015625)"/>
        <path id="DejaVuSans-65" d="M 3597 1894 
L 3597 1613 
L 953 1613 
Q 991 1019 1311 708 
Q 1631 397 2203 397 
Q 2534 397 2845 478 
Q 3156 559 3463 722 
L 3463 178 
Q 3153 47 2828 -22 
Q 2503 -91 2169 -91 
Q 1331 -91 842 396 
Q 353 884 353 1716 
Q 353 2575 817 3079 
Q 1281 3584 2069 3584 
Q 2775 3584 3186 3129 
Q 3597 2675 3597 1894 
z
M 3022 2063 
Q 3016 2534 2758 2815 
Q 2500 3097 2075 3097 
Q 1594 3097 1305 2825 
Q 1016 2553 972 2059 
L 3022 2063 
z
" transform="scale(0.015625)"/>
        <path id="DejaVuSans-6c" d="M 603 4863 
L 1178 4863 
L 1178 0 
L 603 0 
L 603 4863 
z
" transform="scale(0.015625)"/>
        <path id="DejaVuSans-69" d="M 603 3500 
L 1178 3500 
L 1178 0 
L 603 0 
L 603 3500 
z
M 603 4863 
L 1178 4863 
L 1178 4134 
L 603 4134 
L 603 4863 
z
" transform="scale(0.015625)"/>
        <path id="DejaVuSans-6e" d="M 3513 2113 
L 3513 0 
L 2938 0 
L 2938 2094 
Q 2938 2591 2744 2837 
Q 2550 3084 2163 3084 
Q 1697 3084 1428 2787 
Q 1159 2491 1159 1978 
L 1159 0 
L 581 0 
L 581 3500 
L 1159 3500 
L 1159 2956 
Q 1366 3272 1645 3428 
Q 1925 3584 2291 3584 
Q 2894 3584 3203 3211 
Q 3513 2838 3513 2113 
z
" transform="scale(0.015625)"/>
       </defs>
       <use xlink:href="#DejaVuSans-42"/>
       <use xlink:href="#DejaVuSans-61" transform="translate(68.603516 0)"/>
       <use xlink:href="#DejaVuSans-73" transform="translate(129.882812 0)"/>
       <use xlink:href="#DejaVuSans-65" transform="translate(181.982422 0)"/>
       <use xlink:href="#DejaVuSans-6c" transform="translate(243.505859 0)"/>
       <use xlink:href="#DejaVuSans-69" transform="translate(271.289062 0)"/>
       <use xlink:href="#DejaVuSans-6e" transform="translate(299.072266 0)"/>
       <use xlink:href="#DejaVuSans-65" transform="translate(362.451172 0)"/>
      </g>
     </g>
    </g>
    <g id="xtick_2">
     <g id="line2d_2">
      <g>
       <use xlink:href="#m2a7f9edd9e" x="297.946944" y="402.76" style="stroke: #000000; stroke-width: 0.8"/>
      </g>
     </g>
     <g id="text_2">
      <!-- Shock Scenario -->
      <g transform="translate(255.737022 418.118281) scale(0.11 -0.11)">
       <defs>
        <path id="DejaVuSans-53" d="M 3425 4513 
L 3425 3897 
Q 3066 4069 2747 4153 
Q 2428 4238 2131 4238 
Q 1616 4238 1336 4038 
Q 1056 3838 1056 3469 
Q 1056 3159 1242 3001 
Q 1428 2844 1947 2747 
L 2328 2669 
Q 3034 2534 3370 2195 
Q 3706 1856 3706 1288 
Q 3706 609 3251 259 
Q 2797 -91 1919 -91 
Q 1588 -91 1214 -16 
Q 841 59 441 206 
L 441 856 
Q 825 641 1194 531 
Q 1563 422 1919 422 
Q 2459 422 2753 634 
Q 3047 847 3047 1241 
Q 3047 1584 2836 1778 
Q 2625 1972 2144 2069 
L 1759 2144 
Q 1053 2284 737 2584 
Q 422 2884 422 3419 
Q 422 4038 858 4394 
Q 1294 4750 2059 4750 
Q 2388 4750 2728 4690 
Q 3069 4631 3425 4513 
z
" transform="scale(0.015625)"/>
        <path id="DejaVuSans-68" d="M 3513 2113 
L 3513 0 
L 2938 0 
L 2938 2094 
Q 2938 2591 2744 2837 
Q 2550 3084 2163 3084 
Q 1697 3084 1428 2787 
Q 1159 2491 1159 1978 
L 1159 0 
L 581 0 
L 581 4863 
L 1159 4863 
L 1159 2956 
Q 1366 3272 1645 3428 
Q 1925 3584 2291 3584 
Q 2894 3584 3203 3211 
Q 3513 2838 3513 2113 
z
" transform="scale(0.015625)"/>
        <path id="DejaVuSans-6f" d="M 1959 3097 
Q 1497 3097 1228 2736 
Q 959 2375 959 1747 
Q 959 1119 1226 758 
Q 1494 397 1959 397 
Q 2419 397 2687 759 
Q 2956 1122 2956 1747 
Q 2956 2369 2687 2733 
Q 2419 3097 1959 3097 
z
M 1959 3584 
Q 2709 3584 3137 3096 
Q 3566 2609 3566 1747 
Q 3566 888 3137 398 
Q 2709 -91 1959 -91 
Q 1206 -91 779 398 
Q 353 888 353 1747 
Q 353 2609 779 3096 
Q 1206 3584 1959 3584 
z
" transform="scale(0.015625)"/>
        <path id="DejaVuSans-63" d="M 3122 3366 
L 3122 2828 
Q 2878 2963 2633 3030 
Q 2388 3097 2138 3097 
Q 1578 3097 1268 2742 
Q 959 2388 959 1747 
Q 959 1106 1268 751 
Q 1578 397 2138 397 
Q 2388 397 2633 464 
Q 2878 531 3122 666 
L 3122 134 
Q 2881 22 2623 -34 
Q 2366 -91 2075 -91 
Q 1284 -91 818 406 
Q 353 903 353 1747 
Q 353 2603 823 3093 
Q 1294 3584 2113 3584 
Q 2378 3584 2631 3529 
Q 2884 3475 3122 3366 
z
" transform="scale(0.015625)"/>
        <path id="DejaVuSans-6b" d="M 581 4863 
L 1159 4863 
L 1159 1991 
L 2875 3500 
L 3609 3500 
L 1753 1863 
L 3688 0 
L 2938 0 
L 1159 1709 
L 1159 0 
L 581 0 
L 581 4863 
z
" transform="scale(0.015625)"/>
        <path id="DejaVuSans-20" transform="scale(0.015625)"/>
        <path id="DejaVuSans-72" d="M 2631 2963 
Q 2534 3019 2420 3045 
Q 2306 3072 2169 3072 
Q 1681 3072 1420 2755 
Q 1159 2438 1159 1844 
L 1159 0 
L 581 0 
L 581 3500 
L 1159 3500 
L 1159 2956 
Q 1341 3275 1631 3429 
Q 1922 3584 2338 3584 
Q 2397 3584 2469 3576 
Q 2541 3569 2628 3553 
L 2631 2963 
z
" transform="scale(0.015625)"/>
       </defs>
       <use xlink:href="#DejaVuSans-53"/>
       <use xlink:href="#DejaVuSans-68" transform="translate(63.476562 0)"/>
       <use xlink:href="#DejaVuSans-6f" transform="translate(126.855469 0)"/>
       <use xlink:href="#DejaVuSans-63" transform="translate(188.037109 0)"/>
       <use xlink:href="#DejaVuSans-6b" transform="translate(243.017578 0)"/>
       <use xlink:href="#DejaVuSans-20" transform="translate(300.927734 0)"/>
       <use xlink:href="#DejaVuSans-53" transform="translate(332.714844 0)"/>
       <use xlink:href="#DejaVuSans-63" transform="translate(396.191406 0)"/>
       <use xlink:href="#DejaVuSans-65" transform="translate(451.171875 0)"/>
       <use xlink:href="#DejaVuSans-6e" transform="translate(512.695312 0)"/>
       <use xlink:href="#DejaVuSans-61" transform="translate(576.074219 0)"/>
       <use xlink:href="#DejaVuSans-72" transform="translate(637.353516 0)"/>
       <use xlink:href="#DejaVuSans-69" transform="translate(678.466797 0)"/>
       <use xlink:href="#DejaVuSans-6f" transform="translate(706.25 0)"/>
      </g>
     </g>
    </g>
   </g>
   <g id="matplotlib.axis_2">
    <g id="ytick_1">
     <g id="line2d_3">
      <path d="M 47.933438 402.76 
L 359.271011 402.76 
" clip-path="url(#p3ef1a13386)" style="fill: none; stroke-dasharray: 2.96,1.28; stroke-dashoffset: 0; stroke: #b0b0b0; stroke-opacity: 0.7; stroke-width: 0.8"/>
     </g>
     <g id="line2d_4">
      <defs>
       <path id="md3b91e77df" d="M 0 0 
L -3.5 0 
" style="stroke: #000000; stroke-width: 0.8"/>
      </defs>
      <g>
       <use xlink:href="#md3b91e77df" x="47.933438" y="402.76" style="stroke: #000000; stroke-width: 0.8"/>
      </g>
     </g>
     <g id="text_3">
      <!-- 0 -->
      <g transform="translate(34.570938 406.559219) scale(0.1 -0.1)">
       <defs>
        <path id="DejaVuSans-30" d="M 2034 4250 
Q 1547 4250 1301 3770 
Q 1056 3291 1056 2328 
Q 1056 1369 1301 889 
Q 1547 409 2034 409 
Q 2525 409 2770 889 
Q 3016 1369 3016 2328 
Q 3016 3291 2770 3770 
Q 2525 4250 2034 4250 
z
M 2034 4750 
Q 2819 4750 3233 4129 
Q 3647 3509 3647 2328 
Q 3647 1150 3233 529 
Q 2819 -91 2034 -91 
Q 1250 -91 836 529 
Q 422 1150 422 2328 
Q 422 3509 836 4129 
Q 1250 4750 2034 4750 
z
" transform="scale(0.015625)"/>
       </defs>
       <use xlink:href="#DejaVuSans-30"/>
      </g>
     </g>
    </g>
    <g id="ytick_2">
     <g id="line2d_5">
      <path d="M 47.933438 333.763145 
L 359.271011 333.763145 
" clip-path="url(#p3ef1a13386)" style="fill: none; stroke-dasharray: 2.96,1.28; stroke-dashoffset: 0; stroke: #b0b0b0; stroke-opacity: 0.7; stroke-width: 0.8"/>
     </g>
     <g id="line2d_6">
      <g>
       <use xlink:href="#md3b91e77df" x="47.933438" y="333.763145" style="stroke: #000000; stroke-width: 0.8"/>
      </g>
     </g>
     <g id="text_4">
      <!-- 50 -->
      <g transform="translate(28.208438 337.562364) scale(0.1 -0.1)">
       <defs>
        <path id="DejaVuSans-35" d="M 691 4666 
L 3169 4666 
L 3169 4134 
L 1269 4134 
L 1269 2991 
Q 1406 3038 1543 3061 
Q 1681 3084 1819 3084 
Q 2600 3084 3056 2656 
Q 3513 2228 3513 1497 
Q 3513 744 3044 326 
Q 2575 -91 1722 -91 
Q 1428 -91 1123 -41 
Q 819 9 494 109 
L 494 744 
Q 775 591 1075 516 
Q 1375 441 1709 441 
Q 2250 441 2565 725 
Q 2881 1009 2881 1497 
Q 2881 1984 2565 2268 
Q 2250 2553 1709 2553 
Q 1456 2553 1204 2497 
Q 953 2441 691 2322 
L 691 4666 
z
" transform="scale(0.015625)"/>
       </defs>
       <use xlink:href="#DejaVuSans-35"/>
       <use xlink:href="#DejaVuSans-30" transform="translate(63.623047 0)"/>
      </g>
     </g>
    </g>
    <g id="ytick_3">
     <g id="line2d_7">
      <path d="M 47.933438 264.76629 
L 359.271011 264.76629 
" clip-path="url(#p3ef1a13386)" style="fill: none; stroke-dasharray: 2.96,1.28; stroke-dashoffset: 0; stroke: #b0b0b0; stroke-opacity: 0.7; stroke-width: 0.8"/>
     </g>
     <g id="line2d_8">
      <g>
       <use xlink:href="#md3b91e77df" x="47.933438" y="264.76629" style="stroke: #000000; stroke-width: 0.8"/>
      </g>
     </g>
     <g id="text_5">
      <!-- 100 -->
      <g transform="translate(21.845938 268.565509) scale(0.1 -0.1)">
       <defs>
        <path id="DejaVuSans-31" d="M 794 531 
L 1825 531 
L 1825 4091 
L 703 3866 
L 703 4441 
L 1819 4666 
L 2450 4666 
L 2450 531 
L 3481 531 
L 3481 0 
L 794 0 
L 794 531 
z
" transform="scale(0.015625)"/>
       </defs>
       <use xlink:href="#DejaVuSans-31"/>
       <use xlink:href="#DejaVuSans-30" transform="translate(63.623047 0)"/>
       <use xlink:href="#DejaVuSans-30" transform="translate(127.246094 0)"/>
      </g>
     </g>
    </g>
    <g id="ytick_4">
     <g id="line2d_9">
      <path d="M 47.933438 195.769436 
L 359.271011 195.769436 
" clip-path="url(#p3ef1a13386)" style="fill: none; stroke-dasharray: 2.96,1.28; stroke-dashoffset: 0; stroke: #b0b0b0; stroke-opacity: 0.7; stroke-width: 0.8"/>
     </g>
     <g id="line2d_10">
      <g>
       <use xlink:href="#md3b91e77df" x="47.933438" y="195.769436" style="stroke: #000000; stroke-width: 0.8"/>
      </g>
     </g>
     <g id="text_6">
      <!-- 150 -->
      <g transform="translate(21.845938 199.568654) scale(0.1 -0.1)">
       <use xlink:href="#DejaVuSans-31"/>
       <use xlink:href="#DejaVuSans-35" transform="translate(63.623047 0)"/>
       <use xlink:href="#DejaVuSans-30" transform="translate(127.246094 0)"/>
      </g>
     </g>
    </g>
    <g id="ytick_5">
     <g id="line2d_11">
      <path d="M 47.933438 126.772581 
L 359.271011 126.772581 
" clip-path="url(#p3ef1a13386)" style="fill: none; stroke-dasharray: 2.96,1.28; stroke-dashoffset: 0; stroke: #b0b0b0; stroke-opacity: 0.7; stroke-width: 0.8"/>
     </g>
     <g id="line2d_12">
      <g>
       <use xlink:href="#md3b91e77df" x="47.933438" y="126.772581" style="stroke: #000000; stroke-width: 0.8"/>
      </g>
     </g>
     <g id="text_7">
      <!-- 200 -->
      <g transform="translate(21.845938 130.571799) scale(0.1 -0.1)">
       <defs>
        <path id="DejaVuSans-32" d="M 1228 531 
L 3431 531 
L 3431 0 
L 469 0 
L 469 531 
Q 828 903 1448 1529 
Q 2069 2156 2228 2338 
Q 2531 2678 2651 2914 
Q 2772 3150 2772 3378 
Q 2772 3750 2511 3984 
Q 2250 4219 1831 4219 
Q 1534 4219 1204 4116 
Q 875 4013 500 3803 
L 500 4441 
Q 881 4594 1212 4672 
Q 1544 4750 1819 4750 
Q 2544 4750 2975 4387 
Q 3406 4025 3406 3419 
Q 3406 3131 3298 2873 
Q 3191 2616 2906 2266 
Q 2828 2175 2409 1742 
Q 1991 1309 1228 531 
z
" transform="scale(0.015625)"/>
       </defs>
       <use xlink:href="#DejaVuSans-32"/>
       <use xlink:href="#DejaVuSans-30" transform="translate(63.623047 0)"/>
       <use xlink:href="#DejaVuSans-30" transform="translate(127.246094 0)"/>
      </g>
     </g>
    </g>
    <g id="text_8">
     <!-- Capital Expenditure (€ Millions) -->
     <g transform="translate(15.558281 324.178672) rotate(-90) scale(0.11 -0.11)">
      <defs>
       <path id="DejaVuSans-43" d="M 4122 4306 
L 4122 3641 
Q 3803 3938 3442 4084 
Q 3081 4231 2675 4231 
Q 1875 4231 1450 3742 
Q 1025 3253 1025 2328 
Q 1025 1406 1450 917 
Q 1875 428 2675 428 
Q 3081 428 3442 575 
Q 3803 722 4122 1019 
L 4122 359 
Q 3791 134 3420 21 
Q 3050 -91 2638 -91 
Q 1578 -91 968 557 
Q 359 1206 359 2328 
Q 359 3453 968 4101 
Q 1578 4750 2638 4750 
Q 3056 4750 3426 4639 
Q 3797 4528 4122 4306 
z
" transform="scale(0.015625)"/>
       <path id="DejaVuSans-70" d="M 1159 525 
L 1159 -1331 
L 581 -1331 
L 581 3500 
L 1159 3500 
L 1159 2969 
Q 1341 3281 1617 3432 
Q 1894 3584 2278 3584 
Q 2916 3584 3314 3078 
Q 3713 2572 3713 1747 
Q 3713 922 3314 415 
Q 2916 -91 2278 -91 
Q 1894 -91 1617 61 
Q 1341 213 1159 525 
z
M 3116 1747 
Q 3116 2381 2855 2742 
Q 2594 3103 2138 3103 
Q 1681 3103 1420 2742 
Q 1159 2381 1159 1747 
Q 1159 1113 1420 752 
Q 1681 391 2138 391 
Q 2594 391 2855 752 
Q 3116 1113 3116 1747 
z
" transform="scale(0.015625)"/>
       <path id="DejaVuSans-74" d="M 1172 4494 
L 1172 3500 
L 2356 3500 
L 2356 3053 
L 1172 3053 
L 1172 1153 
Q 1172 725 1289 603 
Q 1406 481 1766 481 
L 2356 481 
L 2356 0 
L 1766 0 
Q 1100 0 847 248 
Q 594 497 594 1153 
L 594 3053 
L 172 3053 
L 172 3500 
L 594 3500 
L 594 4494 
L 1172 4494 
z
" transform="scale(0.015625)"/>
       <path id="DejaVuSans-45" d="M 628 4666 
L 3578 4666 
L 3578 4134 
L 1259 4134 
L 1259 2753 
L 3481 2753 
L 3481 2222 
L 1259 2222 
L 1259 531 
L 3634 531 
L 3634 0 
L 628 0 
L 628 4666 
z
" transform="scale(0.015625)"/>
       <path id="DejaVuSans-78" d="M 3513 3500 
L 2247 1797 
L 3578 0 
L 2900 0 
L 1881 1375 
L 863 0 
L 184 0 
L 1544 1831 
L 300 3500 
L 978 3500 
L 1906 2253 
L 2834 3500 
L 3513 3500 
z
" transform="scale(0.015625)"/>
       <path id="DejaVuSans-64" d="M 2906 2969 
L 2906 4863 
L 3481 4863 
L 3481 0 
L 2906 0 
L 2906 525 
Q 2725 213 2448 61 
Q 2172 -91 1784 -91 
Q 1150 -91 751 415 
Q 353 922 353 1747 
Q 353 2572 751 3078 
Q 1150 3584 1784 3584 
Q 2172 3584 2448 3432 
Q 2725 3281 2906 2969 
z
M 947 1747 
Q 947 1113 1208 752 
Q 1469 391 1925 391 
Q 2381 391 2643 752 
Q 2906 1113 2906 1747 
Q 2906 2381 2643 2742 
Q 2381 3103 1925 3103 
Q 1469 3103 1208 2742 
Q 947 2381 947 1747 
z
" transform="scale(0.015625)"/>
       <path id="DejaVuSans-75" d="M 544 1381 
L 544 3500 
L 1119 3500 
L 1119 1403 
Q 1119 906 1312 657 
Q 1506 409 1894 409 
Q 2359 409 2629 706 
Q 2900 1003 2900 1516 
L 2900 3500 
L 3475 3500 
L 3475 0 
L 2900 0 
L 2900 538 
Q 2691 219 2414 64 
Q 2138 -91 1772 -91 
Q 1169 -91 856 284 
Q 544 659 544 1381 
z
M 1991 3584 
L 1991 3584 
z
" transform="scale(0.015625)"/>
       <path id="DejaVuSans-28" d="M 1984 4856 
Q 1566 4138 1362 3434 
Q 1159 2731 1159 2009 
Q 1159 1288 1364 580 
Q 1569 -128 1984 -844 
L 1484 -844 
Q 1016 -109 783 600 
Q 550 1309 550 2009 
Q 550 2706 781 3412 
Q 1013 4119 1484 4856 
L 1984 4856 
z
" transform="scale(0.015625)"/>
       <path id="DejaVuSans-20ac" d="M 3647 4306 
L 3647 3641 
Q 3363 3969 3098 4109 
Q 2834 4250 2516 4250 
Q 2025 4250 1709 3937 
Q 1394 3625 1294 3041 
L 3097 3041 
L 2925 2656 
L 1244 2656 
Q 1238 2581 1236 2509 
Q 1234 2438 1234 2328 
Q 1234 2228 1236 2156 
Q 1238 2084 1244 2009 
L 2638 2009 
L 2463 1625 
L 1294 1625 
Q 1394 1041 1709 725 
Q 2025 409 2516 409 
Q 2834 409 3098 550 
Q 3363 691 3647 1019 
L 3647 359 
Q 3369 134 3080 21 
Q 2791 -91 2491 -91 
Q 1750 -91 1267 362 
Q 784 816 659 1625 
L 0 1625 
L 172 2009 
L 606 2009 
Q 606 2081 604 2154 
Q 603 2228 603 2328 
Q 603 2438 604 2511 
Q 606 2584 606 2656 
L 0 2656 
L 172 3041 
L 659 3041 
Q 784 3844 1268 4297 
Q 1753 4750 2491 4750 
Q 2797 4750 3086 4639 
Q 3375 4528 3647 4306 
z
" transform="scale(0.015625)"/>
       <path id="DejaVuSans-4d" d="M 628 4666 
L 1569 4666 
L 2759 1491 
L 3956 4666 
L 4897 4666 
L 4897 0 
L 4281 0 
L 4281 4097 
L 3078 897 
L 2444 897 
L 1241 4097 
L 1241 0 
L 628 0 
L 628 4666 
z
" transform="scale(0.015625)"/>
       <path id="DejaVuSans-29" d="M 513 4856 
L 1013 4856 
Q 1481 4119 1714 3412 
Q 1947 2706 1947 2009 
Q 1947 1309 1714 600 
Q 1481 -109 1013 -844 
L 513 -844 
Q 928 -128 1133 580 
Q 1338 1288 1338 2009 
Q 1338 2731 1133 3434 
Q 928 4138 513 4856 
z
" transform="scale(0.015625)"/>
      </defs>
      <use xlink:href="#DejaVuSans-43"/>
      <use xlink:href="#DejaVuSans-61" transform="translate(69.824219 0)"/>
      <use xlink:href="#DejaVuSans-70" transform="translate(131.103516 0)"/>
      <use xlink:href="#DejaVuSans-69" transform="translate(194.580078 0)"/>
      <use xlink:href="#DejaVuSans-74" transform="translate(222.363281 0)"/>
      <use xlink:href="#DejaVuSans-61" transform="translate(261.572266 0)"/>
      <use xlink:href="#DejaVuSans-6c" transform="translate(322.851562 0)"/>
      <use xlink:href="#DejaVuSans-20" transform="translate(350.634766 0)"/>
      <use xlink:href="#DejaVuSans-45" transform="translate(382.421875 0)"/>
      <use xlink:href="#DejaVuSans-78" transform="translate(445.605469 0)"/>
      <use xlink:href="#DejaVuSans-70" transform="translate(504.785156 0)"/>
      <use xlink:href="#DejaVuSans-65" transform="translate(568.261719 0)"/>
      <use xlink:href="#DejaVuSans-6e" transform="translate(629.785156 0)"/>
      <use xlink:href="#DejaVuSans-64" transform="translate(693.164062 0)"/>
      <use xlink:href="#DejaVuSans-69" transform="translate(756.640625 0)"/>
      <use xlink:href="#DejaVuSans-74" transform="translate(784.423828 0)"/>
      <use xlink:href="#DejaVuSans-75" transform="translate(823.632812 0)"/>
      <use xlink:href="#DejaVuSans-72" transform="translate(887.011719 0)"/>
      <use xlink:href="#DejaVuSans-65" transform="translate(925.875 0)"/>
      <use xlink:href="#DejaVuSans-20" transform="translate(987.398438 0)"/>
      <use xlink:href="#DejaVuSans-28" transform="translate(1019.185547 0)"/>
      <use xlink:href="#DejaVuSans-20ac" transform="translate(1058.199219 0)"/>
      <use xlink:href="#DejaVuSans-20" transform="translate(1121.822266 0)"/>
      <use xlink:href="#DejaVuSans-4d" transform="translate(1153.609375 0)"/>
      <use xlink:href="#DejaVuSans-69" transform="translate(1239.888672 0)"/>
      <use xlink:href="#DejaVuSans-6c" transform="translate(1267.671875 0)"/>
      <use xlink:href="#DejaVuSans-6c" transform="translate(1295.455078 0)"/>
      <use xlink:href="#DejaVuSans-69" transform="translate(1323.238281 0)"/>
      <use xlink:href="#DejaVuSans-6f" transform="translate(1351.021484 0)"/>
      <use xlink:href="#DejaVuSans-6e" transform="translate(1412.203125 0)"/>
      <use xlink:href="#DejaVuSans-73" transform="translate(1475.582031 0)"/>
      <use xlink:href="#DejaVuSans-29" transform="translate(1527.681641 0)"/>
     </g>
    </g>
   </g>
   <g id="patch_11">
    <path d="M 47.933438 402.76 
L 47.933438 73.26 
" style="fill: none; stroke: #000000; stroke-width: 0.8; stroke-linejoin: miter; stroke-linecap: square"/>
   </g>
   <g id="patch_12">
    <path d="M 359.271011 402.76 
L 359.271011 73.26 
" style="fill: none; stroke: #000000; stroke-width: 0.8; stroke-linejoin: miter; stroke-linecap: square"/>
   </g>
   <g id="patch_13">
    <path d="M 47.933438 402.76 
L 359.271011 402.76 
" style="fill: none; stroke: #000000; stroke-width: 0.8; stroke-linejoin: miter; stroke-linecap: square"/>
   </g>
   <g id="patch_14">
    <path d="M 47.933438 73.26 
L 359.271011 73.26 
" style="fill: none; stroke: #000000; stroke-width: 0.8; stroke-linejoin: miter; stroke-linecap: square"/>
   </g>
   <g id="text_9">
    <!-- +20% -->
    <g style="fill: #ffffff" transform="translate(283.404912 325.687819) scale(0.09 -0.09)">
     <defs>
      <path id="DejaVuSans-Bold-2b" d="M 3053 4013 
L 3053 2375 
L 4684 2375 
L 4684 1638 
L 3053 1638 
L 3053 0 
L 2309 0 
L 2309 1638 
L 678 1638 
L 678 2375 
L 2309 2375 
L 2309 4013 
L 3053 4013 
z
" transform="scale(0.015625)"/>
      <path id="DejaVuSans-Bold-32" d="M 1844 884 
L 3897 884 
L 3897 0 
L 506 0 
L 506 884 
L 2209 2388 
Q 2438 2594 2547 2791 
Q 2656 2988 2656 3200 
Q 2656 3528 2436 3728 
Q 2216 3928 1850 3928 
Q 1569 3928 1234 3808 
Q 900 3688 519 3450 
L 519 4475 
Q 925 4609 1322 4679 
Q 1719 4750 2100 4750 
Q 2938 4750 3402 4381 
Q 3866 4013 3866 3353 
Q 3866 2972 3669 2642 
Q 3472 2313 2841 1759 
L 1844 884 
z
" transform="scale(0.015625)"/>
      <path id="DejaVuSans-Bold-30" d="M 2944 2338 
Q 2944 3213 2780 3570 
Q 2616 3928 2228 3928 
Q 1841 3928 1675 3570 
Q 1509 3213 1509 2338 
Q 1509 1453 1675 1090 
Q 1841 728 2228 728 
Q 2613 728 2778 1090 
Q 2944 1453 2944 2338 
z
M 4147 2328 
Q 4147 1169 3647 539 
Q 3147 -91 2228 -91 
Q 1306 -91 806 539 
Q 306 1169 306 2328 
Q 306 3491 806 4120 
Q 1306 4750 2228 4750 
Q 3147 4750 3647 4120 
Q 4147 3491 4147 2328 
z
" transform="scale(0.015625)"/>
      <path id="DejaVuSans-Bold-25" d="M 4959 1925 
Q 4738 1925 4616 1733 
Q 4494 1541 4494 1184 
Q 4494 825 4614 633 
Q 4734 441 4959 441 
Q 5184 441 5303 633 
Q 5422 825 5422 1184 
Q 5422 1541 5301 1733 
Q 5181 1925 4959 1925 
z
M 4959 2450 
Q 5541 2450 5875 2112 
Q 6209 1775 6209 1184 
Q 6209 594 5875 251 
Q 5541 -91 4959 -91 
Q 4378 -91 4042 251 
Q 3706 594 3706 1184 
Q 3706 1772 4042 2111 
Q 4378 2450 4959 2450 
z
M 2094 -91 
L 1403 -91 
L 4319 4750 
L 5013 4750 
L 2094 -91 
z
M 1453 4750 
Q 2034 4750 2367 4411 
Q 2700 4072 2700 3481 
Q 2700 2891 2367 2550 
Q 2034 2209 1453 2209 
Q 872 2209 539 2550 
Q 206 2891 206 3481 
Q 206 4072 539 4411 
Q 872 4750 1453 4750 
z
M 1453 4225 
Q 1228 4225 1106 4031 
Q 984 3838 984 3481 
Q 984 3122 1106 2926 
Q 1228 2731 1453 2731 
Q 1678 2731 1798 2926 
Q 1919 3122 1919 3481 
Q 1919 3838 1797 4031 
Q 1675 4225 1453 4225 
z
" transform="scale(0.015625)"/>
     </defs>
     <use xlink:href="#DejaVuSans-Bold-2b"/>
     <use xlink:href="#DejaVuSans-Bold-32" transform="translate(83.789062 0)"/>
     <use xlink:href="#DejaVuSans-Bold-30" transform="translate(153.369141 0)"/>
     <use xlink:href="#DejaVuSans-Bold-25" transform="translate(222.949219 0)"/>
    </g>
    <!-- (+€18M) -->
    <g style="fill: #ffffff" transform="translate(276.191553 335.76585) scale(0.09 -0.09)">
     <defs>
      <path id="DejaVuSans-Bold-28" d="M 2413 -844 
L 1484 -844 
Q 1006 -72 778 623 
Q 550 1319 550 2003 
Q 550 2688 779 3389 
Q 1009 4091 1484 4856 
L 2413 4856 
Q 2013 4116 1813 3408 
Q 1613 2700 1613 2009 
Q 1613 1319 1811 609 
Q 2009 -100 2413 -844 
z
" transform="scale(0.015625)"/>
      <path id="DejaVuSans-Bold-20ac" d="M 4025 256 
Q 3728 84 3404 -3 
Q 3081 -91 2731 -91 
Q 1913 -91 1352 317 
Q 791 725 556 1491 
L -122 1491 
L 153 2100 
L 459 2100 
Q 456 2144 454 2192 
Q 453 2241 453 2328 
Q 453 2419 454 2469 
Q 456 2519 459 2566 
L -122 2566 
L 153 3175 
L 556 3175 
Q 797 3944 1355 4347 
Q 1913 4750 2731 4750 
Q 3081 4750 3404 4662 
Q 3728 4575 4025 4403 
L 4025 3438 
Q 3772 3681 3484 3804 
Q 3197 3928 2888 3928 
Q 2491 3928 2211 3736 
Q 1931 3544 1791 3175 
L 3475 3175 
L 3206 2566 
L 1666 2566 
Q 1659 2516 1657 2459 
Q 1656 2403 1656 2291 
Q 1656 2250 1657 2201 
Q 1659 2153 1663 2100 
L 3003 2100 
L 2725 1491 
L 1791 1491 
Q 1947 1109 2220 918 
Q 2494 728 2888 728 
Q 3197 728 3480 851 
Q 3763 975 4025 1222 
L 4025 256 
z
" transform="scale(0.015625)"/>
      <path id="DejaVuSans-Bold-31" d="M 750 831 
L 1813 831 
L 1813 3847 
L 722 3622 
L 722 4441 
L 1806 4666 
L 2950 4666 
L 2950 831 
L 4013 831 
L 4013 0 
L 750 0 
L 750 831 
z
" transform="scale(0.015625)"/>
      <path id="DejaVuSans-Bold-38" d="M 2228 2088 
Q 1891 2088 1709 1903 
Q 1528 1719 1528 1375 
Q 1528 1031 1709 848 
Q 1891 666 2228 666 
Q 2563 666 2741 848 
Q 2919 1031 2919 1375 
Q 2919 1722 2741 1905 
Q 2563 2088 2228 2088 
z
M 1350 2484 
Q 925 2613 709 2878 
Q 494 3144 494 3541 
Q 494 4131 934 4440 
Q 1375 4750 2228 4750 
Q 3075 4750 3515 4442 
Q 3956 4134 3956 3541 
Q 3956 3144 3739 2878 
Q 3522 2613 3097 2484 
Q 3572 2353 3814 2058 
Q 4056 1763 4056 1313 
Q 4056 619 3595 264 
Q 3134 -91 2228 -91 
Q 1319 -91 855 264 
Q 391 619 391 1313 
Q 391 1763 633 2058 
Q 875 2353 1350 2484 
z
M 1631 3419 
Q 1631 3141 1786 2991 
Q 1941 2841 2228 2841 
Q 2509 2841 2662 2991 
Q 2816 3141 2816 3419 
Q 2816 3697 2662 3845 
Q 2509 3994 2228 3994 
Q 1941 3994 1786 3844 
Q 1631 3694 1631 3419 
z
" transform="scale(0.015625)"/>
      <path id="DejaVuSans-Bold-4d" d="M 588 4666 
L 2119 4666 
L 3181 2169 
L 4250 4666 
L 5778 4666 
L 5778 0 
L 4641 0 
L 4641 3413 
L 3566 897 
L 2803 897 
L 1728 3413 
L 1728 0 
L 588 0 
L 588 4666 
z
" transform="scale(0.015625)"/>
      <path id="DejaVuSans-Bold-29" d="M 513 -844 
Q 913 -100 1113 609 
Q 1313 1319 1313 2009 
Q 1313 2700 1113 3408 
Q 913 4116 513 4856 
L 1441 4856 
Q 1916 4091 2145 3389 
Q 2375 2688 2375 2003 
Q 2375 1319 2147 623 
Q 1919 -72 1441 -844 
L 513 -844 
z
" transform="scale(0.015625)"/>
     </defs>
     <use xlink:href="#DejaVuSans-Bold-28"/>
     <use xlink:href="#DejaVuSans-Bold-2b" transform="translate(45.703125 0)"/>
     <use xlink:href="#DejaVuSans-Bold-20ac" transform="translate(129.492188 0)"/>
     <use xlink:href="#DejaVuSans-Bold-31" transform="translate(199.072266 0)"/>
     <use xlink:href="#DejaVuSans-Bold-38" transform="translate(268.652344 0)"/>
     <use xlink:href="#DejaVuSans-Bold-4d" transform="translate(338.232422 0)"/>
     <use xlink:href="#DejaVuSans-Bold-29" transform="translate(437.744141 0)"/>
    </g>
   </g>
   <g id="text_10">
    <!-- +100% -->
    <g style="fill: #ffffff" transform="translate(280.273897 174.826196) scale(0.09 -0.09)">
     <use xlink:href="#DejaVuSans-Bold-2b"/>
     <use xlink:href="#DejaVuSans-Bold-31" transform="translate(83.789062 0)"/>
     <use xlink:href="#DejaVuSans-Bold-30" transform="translate(153.369141 0)"/>
     <use xlink:href="#DejaVuSans-Bold-30" transform="translate(222.949219 0)"/>
     <use xlink:href="#DejaVuSans-Bold-25" transform="translate(292.529297 0)"/>
    </g>
    <!-- (+€13.9M) -->
    <g style="fill: #ffffff" transform="translate(271.35124 184.904227) scale(0.09 -0.09)">
     <defs>
      <path id="DejaVuSans-Bold-33" d="M 2981 2516 
Q 3453 2394 3698 2092 
Q 3944 1791 3944 1325 
Q 3944 631 3412 270 
Q 2881 -91 1863 -91 
Q 1503 -91 1142 -33 
Q 781 25 428 141 
L 428 1069 
Q 766 900 1098 814 
Q 1431 728 1753 728 
Q 2231 728 2486 893 
Q 2741 1059 2741 1369 
Q 2741 1688 2480 1852 
Q 2219 2016 1709 2016 
L 1228 2016 
L 1228 2791 
L 1734 2791 
Q 2188 2791 2409 2933 
Q 2631 3075 2631 3366 
Q 2631 3634 2415 3781 
Q 2200 3928 1806 3928 
Q 1516 3928 1219 3862 
Q 922 3797 628 3669 
L 628 4550 
Q 984 4650 1334 4700 
Q 1684 4750 2022 4750 
Q 2931 4750 3382 4451 
Q 3834 4153 3834 3553 
Q 3834 3144 3618 2883 
Q 3403 2622 2981 2516 
z
" transform="scale(0.015625)"/>
      <path id="DejaVuSans-Bold-2e" d="M 653 1209 
L 1778 1209 
L 1778 0 
L 653 0 
L 653 1209 
z
" transform="scale(0.015625)"/>
      <path id="DejaVuSans-Bold-39" d="M 641 103 
L 641 966 
Q 928 831 1190 764 
Q 1453 697 1709 697 
Q 2247 697 2547 995 
Q 2847 1294 2900 1881 
Q 2688 1725 2447 1647 
Q 2206 1569 1925 1569 
Q 1209 1569 770 1986 
Q 331 2403 331 3084 
Q 331 3838 820 4291 
Q 1309 4744 2131 4744 
Q 3044 4744 3544 4128 
Q 4044 3513 4044 2388 
Q 4044 1231 3459 570 
Q 2875 -91 1856 -91 
Q 1528 -91 1228 -42 
Q 928 6 641 103 
z
M 2125 2350 
Q 2441 2350 2600 2554 
Q 2759 2759 2759 3169 
Q 2759 3575 2600 3781 
Q 2441 3988 2125 3988 
Q 1809 3988 1650 3781 
Q 1491 3575 1491 3169 
Q 1491 2759 1650 2554 
Q 1809 2350 2125 2350 
z
" transform="scale(0.015625)"/>
     </defs>
     <use xlink:href="#DejaVuSans-Bold-28"/>
     <use xlink:href="#DejaVuSans-Bold-2b" transform="translate(45.703125 0)"/>
     <use xlink:href="#DejaVuSans-Bold-20ac" transform="translate(129.492188 0)"/>
     <use xlink:href="#DejaVuSans-Bold-31" transform="translate(199.072266 0)"/>
     <use xlink:href="#DejaVuSans-Bold-33" transform="translate(268.652344 0)"/>
     <use xlink:href="#DejaVuSans-Bold-2e" transform="translate(338.232422 0)"/>
     <use xlink:href="#DejaVuSans-Bold-39" transform="translate(376.220703 0)"/>
     <use xlink:href="#DejaVuSans-Bold-4d" transform="translate(445.800781 0)"/>
     <use xlink:href="#DejaVuSans-Bold-29" transform="translate(545.3125 0)"/>
    </g>
   </g>
   <g id="text_11">
    <!-- €186.9M -->
    <g transform="translate(84.987974 140.773422) scale(0.1 -0.1)">
     <defs>
      <path id="DejaVuSans-Bold-36" d="M 2316 2303 
Q 2000 2303 1842 2098 
Q 1684 1894 1684 1484 
Q 1684 1075 1842 870 
Q 2000 666 2316 666 
Q 2634 666 2792 870 
Q 2950 1075 2950 1484 
Q 2950 1894 2792 2098 
Q 2634 2303 2316 2303 
z
M 3803 4544 
L 3803 3681 
Q 3506 3822 3243 3889 
Q 2981 3956 2731 3956 
Q 2194 3956 1894 3657 
Q 1594 3359 1544 2772 
Q 1750 2925 1990 3001 
Q 2231 3078 2516 3078 
Q 3231 3078 3670 2659 
Q 4109 2241 4109 1563 
Q 4109 813 3618 361 
Q 3128 -91 2303 -91 
Q 1394 -91 895 523 
Q 397 1138 397 2266 
Q 397 3422 980 4083 
Q 1563 4744 2578 4744 
Q 2900 4744 3203 4694 
Q 3506 4644 3803 4544 
z
" transform="scale(0.015625)"/>
     </defs>
     <use xlink:href="#DejaVuSans-Bold-20ac"/>
     <use xlink:href="#DejaVuSans-Bold-31" transform="translate(69.580078 0)"/>
     <use xlink:href="#DejaVuSans-Bold-38" transform="translate(139.160156 0)"/>
     <use xlink:href="#DejaVuSans-Bold-36" transform="translate(208.740234 0)"/>
     <use xlink:href="#DejaVuSans-Bold-2e" transform="translate(278.320312 0)"/>
     <use xlink:href="#DejaVuSans-Bold-39" transform="translate(316.308594 0)"/>
     <use xlink:href="#DejaVuSans-Bold-4d" transform="translate(385.888672 0)"/>
    </g>
   </g>
   <g id="text_12">
    <!-- €218.8M -->
    <g transform="translate(273.677412 96.718931) scale(0.1 -0.1)">
     <use xlink:href="#DejaVuSans-Bold-20ac"/>
     <use xlink:href="#DejaVuSans-Bold-32" transform="translate(69.580078 0)"/>
     <use xlink:href="#DejaVuSans-Bold-31" transform="translate(139.160156 0)"/>
     <use xlink:href="#DejaVuSans-Bold-38" transform="translate(208.740234 0)"/>
     <use xlink:href="#DejaVuSans-Bold-2e" transform="translate(278.320312 0)"/>
     <use xlink:href="#DejaVuSans-Bold-38" transform="translate(316.308594 0)"/>
     <use xlink:href="#DejaVuSans-Bold-4d" transform="translate(385.888672 0)"/>
    </g>
   </g>
   <g id="text_13">
    <!-- Total CAPEX Composition -->
    <g transform="translate(122.233396 67.26) scale(0.13 -0.13)">
     <defs>
      <path id="DejaVuSans-54" d="M -19 4666 
L 3928 4666 
L 3928 4134 
L 2272 4134 
L 2272 0 
L 1638 0 
L 1638 4134 
L -19 4134 
L -19 4666 
z
" transform="scale(0.015625)"/>
      <path id="DejaVuSans-41" d="M 2188 4044 
L 1331 1722 
L 3047 1722 
L 2188 4044 
z
M 1831 4666 
L 2547 4666 
L 4325 0 
L 3669 0 
L 3244 1197 
L 1141 1197 
L 716 0 
L 50 0 
L 1831 4666 
z
" transform="scale(0.015625)"/>
      <path id="DejaVuSans-50" d="M 1259 4147 
L 1259 2394 
L 2053 2394 
Q 2494 2394 2734 2622 
Q 2975 2850 2975 3272 
Q 2975 3691 2734 3919 
Q 2494 4147 2053 4147 
L 1259 4147 
z
M 628 4666 
L 2053 4666 
Q 2838 4666 3239 4311 
Q 3641 3956 3641 3272 
Q 3641 2581 3239 2228 
Q 2838 1875 2053 1875 
L 1259 1875 
L 1259 0 
L 628 0 
L 628 4666 
z
" transform="scale(0.015625)"/>
      <path id="DejaVuSans-58" d="M 403 4666 
L 1081 4666 
L 2241 2931 
L 3406 4666 
L 4084 4666 
L 2584 2425 
L 4184 0 
L 3506 0 
L 2194 1984 
L 872 0 
L 191 0 
L 1856 2491 
L 403 4666 
z
" transform="scale(0.015625)"/>
      <path id="DejaVuSans-6d" d="M 3328 2828 
Q 3544 3216 3844 3400 
Q 4144 3584 4550 3584 
Q 5097 3584 5394 3201 
Q 5691 2819 5691 2113 
L 5691 0 
L 5113 0 
L 5113 2094 
Q 5113 2597 4934 2840 
Q 4756 3084 4391 3084 
Q 3944 3084 3684 2787 
Q 3425 2491 3425 1978 
L 3425 0 
L 2847 0 
L 2847 2094 
Q 2847 2600 2669 2842 
Q 2491 3084 2119 3084 
Q 1678 3084 1418 2786 
Q 1159 2488 1159 1978 
L 1159 0 
L 581 0 
L 581 3500 
L 1159 3500 
L 1159 2956 
Q 1356 3278 1631 3431 
Q 1906 3584 2284 3584 
Q 2666 3584 2933 3390 
Q 3200 3197 3328 2828 
z
" transform="scale(0.015625)"/>
     </defs>
     <use xlink:href="#DejaVuSans-54"/>
     <use xlink:href="#DejaVuSans-6f" transform="translate(44.083984 0)"/>
     <use xlink:href="#DejaVuSans-74" transform="translate(105.265625 0)"/>
     <use xlink:href="#DejaVuSans-61" transform="translate(144.474609 0)"/>
     <use xlink:href="#DejaVuSans-6c" transform="translate(205.753906 0)"/>
     <use xlink:href="#DejaVuSans-20" transform="translate(233.537109 0)"/>
     <use xlink:href="#DejaVuSans-43" transform="translate(265.324219 0)"/>
     <use xlink:href="#DejaVuSans-41" transform="translate(335.148438 0)"/>
     <use xlink:href="#DejaVuSans-50" transform="translate(403.556641 0)"/>
     <use xlink:href="#DejaVuSans-45" transform="translate(463.859375 0)"/>
     <use xlink:href="#DejaVuSans-58" transform="translate(527.042969 0)"/>
     <use xlink:href="#DejaVuSans-20" transform="translate(595.548828 0)"/>
     <use xlink:href="#DejaVuSans-43" transform="translate(627.335938 0)"/>
     <use xlink:href="#DejaVuSans-6f" transform="translate(697.160156 0)"/>
     <use xlink:href="#DejaVuSans-6d" transform="translate(758.341797 0)"/>
     <use xlink:href="#DejaVuSans-70" transform="translate(855.753906 0)"/>
     <use xlink:href="#DejaVuSans-6f" transform="translate(919.230469 0)"/>
     <use xlink:href="#DejaVuSans-73" transform="translate(980.412109 0)"/>
     <use xlink:href="#DejaVuSans-69" transform="translate(1032.511719 0)"/>
     <use xlink:href="#DejaVuSans-74" transform="translate(1060.294922 0)"/>
     <use xlink:href="#DejaVuSans-69" transform="translate(1099.503906 0)"/>
     <use xlink:href="#DejaVuSans-6f" transform="translate(1127.287109 0)"/>
     <use xlink:href="#DejaVuSans-6e" transform="translate(1188.46875 0)"/>
    </g>
   </g>
   <g id="legend_1">
    <g id="patch_15">
     <path d="M 372.497762 139.9725 
L 439.699325 139.9725 
Q 441.699325 139.9725 441.699325 137.9725 
L 441.699325 80.26 
Q 441.699325 78.26 439.699325 78.26 
L 372.497762 78.26 
Q 370.497762 78.26 370.497762 80.26 
L 370.497762 137.9725 
Q 370.497762 139.9725 372.497762 139.9725 
z
" style="fill: #ffffff; opacity: 0.8; stroke: #cccccc; stroke-linejoin: miter"/>
    </g>
    <g id="patch_16">
     <path d="M 374.497762 89.858438 
L 394.497762 89.858438 
L 394.497762 82.858438 
L 374.497762 82.858438 
z
" style="fill: #1f77b4; stroke: #ffffff; stroke-linejoin: miter"/>
    </g>
    <g id="text_14">
     <!-- Wind -->
     <g transform="translate(402.497762 89.858438) scale(0.1 -0.1)">
      <defs>
       <path id="DejaVuSans-57" d="M 213 4666 
L 850 4666 
L 1831 722 
L 2809 4666 
L 3519 4666 
L 4500 722 
L 5478 4666 
L 6119 4666 
L 4947 0 
L 4153 0 
L 3169 4050 
L 2175 0 
L 1381 0 
L 213 4666 
z
" transform="scale(0.015625)"/>
      </defs>
      <use xlink:href="#DejaVuSans-57"/>
      <use xlink:href="#DejaVuSans-69" transform="translate(96.626953 0)"/>
      <use xlink:href="#DejaVuSans-6e" transform="translate(124.410156 0)"/>
      <use xlink:href="#DejaVuSans-64" transform="translate(187.789062 0)"/>
     </g>
    </g>
    <g id="patch_17">
     <path d="M 374.497762 104.536563 
L 394.497762 104.536563 
L 394.497762 97.536563 
L 374.497762 97.536563 
z
" style="fill: #ff7f0e; stroke: #ffffff; stroke-linejoin: miter"/>
    </g>
    <g id="text_15">
     <!-- Solar -->
     <g transform="translate(402.497762 104.536563) scale(0.1 -0.1)">
      <use xlink:href="#DejaVuSans-53"/>
      <use xlink:href="#DejaVuSans-6f" transform="translate(63.476562 0)"/>
      <use xlink:href="#DejaVuSans-6c" transform="translate(124.658203 0)"/>
      <use xlink:href="#DejaVuSans-61" transform="translate(152.441406 0)"/>
      <use xlink:href="#DejaVuSans-72" transform="translate(213.720703 0)"/>
     </g>
    </g>
    <g id="patch_18">
     <path d="M 374.497762 119.214688 
L 394.497762 119.214688 
L 394.497762 112.214688 
L 374.497762 112.214688 
z
" style="fill: #9467bd; stroke: #ffffff; stroke-linejoin: miter"/>
    </g>
    <g id="text_16">
     <!-- BESS -->
     <g transform="translate(402.497762 119.214688) scale(0.1 -0.1)">
      <use xlink:href="#DejaVuSans-42"/>
      <use xlink:href="#DejaVuSans-45" transform="translate(68.603516 0)"/>
      <use xlink:href="#DejaVuSans-53" transform="translate(131.787109 0)"/>
      <use xlink:href="#DejaVuSans-53" transform="translate(195.263672 0)"/>
     </g>
    </g>
    <g id="patch_19">
     <path d="M 374.497762 133.892813 
L 394.497762 133.892813 
L 394.497762 126.892813 
L 374.497762 126.892813 
z
" style="fill: #7f7f7f; stroke: #ffffff; stroke-linejoin: miter"/>
    </g>
    <g id="text_17">
     <!-- Shared -->
     <g transform="translate(402.497762 133.892813) scale(0.1 -0.1)">
      <use xlink:href="#DejaVuSans-53"/>
      <use xlink:href="#DejaVuSans-68" transform="translate(63.476562 0)"/>
      <use xlink:href="#DejaVuSans-61" transform="translate(126.855469 0)"/>
      <use xlink:href="#DejaVuSans-72" transform="translate(188.134766 0)"/>
      <use xlink:href="#DejaVuSans-65" transform="translate(226.998047 0)"/>
      <use xlink:href="#DejaVuSans-64" transform="translate(288.521484 0)"/>
     </g>
    </g>
   </g>
  </g>
  <g id="axes_2">
   <g id="patch_20">
    <path d="M 489.291746 402.76 
L 800.62932 402.76 
L 800.62932 73.26 
L 489.291746 73.26 
z
" style="fill: #ffffff"/>
   </g>
   <g id="patch_21">
    <path d="M 503.443454 402.76 
L 597.788173 402.76 
L 597.788173 272.203396 
L 503.443454 272.203396 
z
" clip-path="url(#p03c2581eac)" style="fill: #1f77b4; stroke: #ffffff; stroke-linejoin: miter"/>
   </g>
   <g id="patch_22">
    <path d="M 692.132893 402.76 
L 786.477612 402.76 
L 786.477612 246.092075 
L 692.132893 246.092075 
z
" clip-path="url(#p03c2581eac)" style="fill: #1f77b4; stroke: #ffffff; stroke-linejoin: miter"/>
   </g>
   <g id="patch_23">
    <path d="M 503.443454 272.203396 
L 597.788173 272.203396 
L 597.788173 130.456226 
L 503.443454 130.456226 
z
" clip-path="url(#p03c2581eac)" style="fill: #ff7f0e; stroke: #ffffff; stroke-linejoin: miter"/>
   </g>
   <g id="patch_24">
    <path d="M 692.132893 246.092075 
L 786.477612 246.092075 
L 786.477612 104.344906 
L 692.132893 104.344906 
z
" clip-path="url(#p03c2581eac)" style="fill: #ff7f0e; stroke: #ffffff; stroke-linejoin: miter"/>
   </g>
   <g id="patch_25">
    <path d="M 503.443454 130.456226 
L 597.788173 130.456226 
L 597.788173 130.456226 
L 503.443454 130.456226 
z
" clip-path="url(#p03c2581eac)" style="fill: #9467bd; stroke: #ffffff; stroke-linejoin: miter"/>
   </g>
   <g id="patch_26">
    <path d="M 692.132893 104.344906 
L 786.477612 104.344906 
L 786.477612 104.344906 
L 692.132893 104.344906 
z
" clip-path="url(#p03c2581eac)" style="fill: #9467bd; stroke: #ffffff; stroke-linejoin: miter"/>
   </g>
   <g id="matplotlib.axis_3">
    <g id="xtick_3">
     <g id="line2d_13">
      <g>
       <use xlink:href="#m2a7f9edd9e" x="550.615814" y="402.76" style="stroke: #000000; stroke-width: 0.8"/>
      </g>
     </g>
     <g id="text_18">
      <!-- Baseline -->
      <g transform="translate(527.296673 418.118281) scale(0.11 -0.11)">
       <use xlink:href="#DejaVuSans-42"/>
       <use xlink:href="#DejaVuSans-61" transform="translate(68.603516 0)"/>
       <use xlink:href="#DejaVuSans-73" transform="translate(129.882812 0)"/>
       <use xlink:href="#DejaVuSans-65" transform="translate(181.982422 0)"/>
       <use xlink:href="#DejaVuSans-6c" transform="translate(243.505859 0)"/>
       <use xlink:href="#DejaVuSans-69" transform="translate(271.289062 0)"/>
       <use xlink:href="#DejaVuSans-6e" transform="translate(299.072266 0)"/>
       <use xlink:href="#DejaVuSans-65" transform="translate(362.451172 0)"/>
      </g>
     </g>
    </g>
    <g id="xtick_4">
     <g id="line2d_14">
      <g>
       <use xlink:href="#m2a7f9edd9e" x="739.305252" y="402.76" style="stroke: #000000; stroke-width: 0.8"/>
      </g>
     </g>
     <g id="text_19">
      <!-- Shock Scenario -->
      <g transform="translate(697.09533 418.118281) scale(0.11 -0.11)">
       <use xlink:href="#DejaVuSans-53"/>
       <use xlink:href="#DejaVuSans-68" transform="translate(63.476562 0)"/>
       <use xlink:href="#DejaVuSans-6f" transform="translate(126.855469 0)"/>
       <use xlink:href="#DejaVuSans-63" transform="translate(188.037109 0)"/>
       <use xlink:href="#DejaVuSans-6b" transform="translate(243.017578 0)"/>
       <use xlink:href="#DejaVuSans-20" transform="translate(300.927734 0)"/>
       <use xlink:href="#DejaVuSans-53" transform="translate(332.714844 0)"/>
       <use xlink:href="#DejaVuSans-63" transform="translate(396.191406 0)"/>
       <use xlink:href="#DejaVuSans-65" transform="translate(451.171875 0)"/>
       <use xlink:href="#DejaVuSans-6e" transform="translate(512.695312 0)"/>
       <use xlink:href="#DejaVuSans-61" transform="translate(576.074219 0)"/>
       <use xlink:href="#DejaVuSans-72" transform="translate(637.353516 0)"/>
       <use xlink:href="#DejaVuSans-69" transform="translate(678.466797 0)"/>
       <use xlink:href="#DejaVuSans-6f" transform="translate(706.25 0)"/>
      </g>
     </g>
    </g>
   </g>
   <g id="matplotlib.axis_4">
    <g id="ytick_6">
     <g id="line2d_15">
      <path d="M 489.291746 402.76 
L 800.62932 402.76 
" clip-path="url(#p03c2581eac)" style="fill: none; stroke-dasharray: 2.96,1.28; stroke-dashoffset: 0; stroke: #b0b0b0; stroke-opacity: 0.7; stroke-width: 0.8"/>
     </g>
     <g id="line2d_16">
      <g>
       <use xlink:href="#md3b91e77df" x="489.291746" y="402.76" style="stroke: #000000; stroke-width: 0.8"/>
      </g>
     </g>
     <g id="text_20">
      <!-- 0.0 -->
      <g transform="translate(466.388621 406.559219) scale(0.1 -0.1)">
       <defs>
        <path id="DejaVuSans-2e" d="M 684 794 
L 1344 794 
L 1344 0 
L 684 0 
L 684 794 
z
" transform="scale(0.015625)"/>
       </defs>
       <use xlink:href="#DejaVuSans-30"/>
       <use xlink:href="#DejaVuSans-2e" transform="translate(63.623047 0)"/>
       <use xlink:href="#DejaVuSans-30" transform="translate(95.410156 0)"/>
      </g>
     </g>
    </g>
    <g id="ytick_7">
     <g id="line2d_17">
      <path d="M 489.291746 350.951824 
L 800.62932 350.951824 
" clip-path="url(#p03c2581eac)" style="fill: none; stroke-dasharray: 2.96,1.28; stroke-dashoffset: 0; stroke: #b0b0b0; stroke-opacity: 0.7; stroke-width: 0.8"/>
     </g>
     <g id="line2d_18">
      <g>
       <use xlink:href="#md3b91e77df" x="489.291746" y="350.951824" style="stroke: #000000; stroke-width: 0.8"/>
      </g>
     </g>
     <g id="text_21">
      <!-- 0.5 -->
      <g transform="translate(466.388621 354.751043) scale(0.1 -0.1)">
       <use xlink:href="#DejaVuSans-30"/>
       <use xlink:href="#DejaVuSans-2e" transform="translate(63.623047 0)"/>
       <use xlink:href="#DejaVuSans-35" transform="translate(95.410156 0)"/>
      </g>
     </g>
    </g>
    <g id="ytick_8">
     <g id="line2d_19">
      <path d="M 489.291746 299.143648 
L 800.62932 299.143648 
" clip-path="url(#p03c2581eac)" style="fill: none; stroke-dasharray: 2.96,1.28; stroke-dashoffset: 0; stroke: #b0b0b0; stroke-opacity: 0.7; stroke-width: 0.8"/>
     </g>
     <g id="line2d_20">
      <g>
       <use xlink:href="#md3b91e77df" x="489.291746" y="299.143648" style="stroke: #000000; stroke-width: 0.8"/>
      </g>
     </g>
     <g id="text_22">
      <!-- 1.0 -->
      <g transform="translate(466.388621 302.942867) scale(0.1 -0.1)">
       <use xlink:href="#DejaVuSans-31"/>
       <use xlink:href="#DejaVuSans-2e" transform="translate(63.623047 0)"/>
       <use xlink:href="#DejaVuSans-30" transform="translate(95.410156 0)"/>
      </g>
     </g>
    </g>
    <g id="ytick_9">
     <g id="line2d_21">
      <path d="M 489.291746 247.335472 
L 800.62932 247.335472 
" clip-path="url(#p03c2581eac)" style="fill: none; stroke-dasharray: 2.96,1.28; stroke-dashoffset: 0; stroke: #b0b0b0; stroke-opacity: 0.7; stroke-width: 0.8"/>
     </g>
     <g id="line2d_22">
      <g>
       <use xlink:href="#md3b91e77df" x="489.291746" y="247.335472" style="stroke: #000000; stroke-width: 0.8"/>
      </g>
     </g>
     <g id="text_23">
      <!-- 1.5 -->
      <g transform="translate(466.388621 251.13469) scale(0.1 -0.1)">
       <use xlink:href="#DejaVuSans-31"/>
       <use xlink:href="#DejaVuSans-2e" transform="translate(63.623047 0)"/>
       <use xlink:href="#DejaVuSans-35" transform="translate(95.410156 0)"/>
      </g>
     </g>
    </g>
    <g id="ytick_10">
     <g id="line2d_23">
      <path d="M 489.291746 195.527296 
L 800.62932 195.527296 
" clip-path="url(#p03c2581eac)" style="fill: none; stroke-dasharray: 2.96,1.28; stroke-dashoffset: 0; stroke: #b0b0b0; stroke-opacity: 0.7; stroke-width: 0.8"/>
     </g>
     <g id="line2d_24">
      <g>
       <use xlink:href="#md3b91e77df" x="489.291746" y="195.527296" style="stroke: #000000; stroke-width: 0.8"/>
      </g>
     </g>
     <g id="text_24">
      <!-- 2.0 -->
      <g transform="translate(466.388621 199.326514) scale(0.1 -0.1)">
       <use xlink:href="#DejaVuSans-32"/>
       <use xlink:href="#DejaVuSans-2e" transform="translate(63.623047 0)"/>
       <use xlink:href="#DejaVuSans-30" transform="translate(95.410156 0)"/>
      </g>
     </g>
    </g>
    <g id="ytick_11">
     <g id="line2d_25">
      <path d="M 489.291746 143.719119 
L 800.62932 143.719119 
" clip-path="url(#p03c2581eac)" style="fill: none; stroke-dasharray: 2.96,1.28; stroke-dashoffset: 0; stroke: #b0b0b0; stroke-opacity: 0.7; stroke-width: 0.8"/>
     </g>
     <g id="line2d_26">
      <g>
       <use xlink:href="#md3b91e77df" x="489.291746" y="143.719119" style="stroke: #000000; stroke-width: 0.8"/>
      </g>
     </g>
     <g id="text_25">
      <!-- 2.5 -->
      <g transform="translate(466.388621 147.518338) scale(0.1 -0.1)">
       <use xlink:href="#DejaVuSans-32"/>
       <use xlink:href="#DejaVuSans-2e" transform="translate(63.623047 0)"/>
       <use xlink:href="#DejaVuSans-35" transform="translate(95.410156 0)"/>
      </g>
     </g>
    </g>
    <g id="ytick_12">
     <g id="line2d_27">
      <path d="M 489.291746 91.910943 
L 800.62932 91.910943 
" clip-path="url(#p03c2581eac)" style="fill: none; stroke-dasharray: 2.96,1.28; stroke-dashoffset: 0; stroke: #b0b0b0; stroke-opacity: 0.7; stroke-width: 0.8"/>
     </g>
     <g id="line2d_28">
      <g>
       <use xlink:href="#md3b91e77df" x="489.291746" y="91.910943" style="stroke: #000000; stroke-width: 0.8"/>
      </g>
     </g>
     <g id="text_26">
      <!-- 3.0 -->
      <g transform="translate(466.388621 95.710162) scale(0.1 -0.1)">
       <defs>
        <path id="DejaVuSans-33" d="M 2597 2516 
Q 3050 2419 3304 2112 
Q 3559 1806 3559 1356 
Q 3559 666 3084 287 
Q 2609 -91 1734 -91 
Q 1441 -91 1130 -33 
Q 819 25 488 141 
L 488 750 
Q 750 597 1062 519 
Q 1375 441 1716 441 
Q 2309 441 2620 675 
Q 2931 909 2931 1356 
Q 2931 1769 2642 2001 
Q 2353 2234 1838 2234 
L 1294 2234 
L 1294 2753 
L 1863 2753 
Q 2328 2753 2575 2939 
Q 2822 3125 2822 3475 
Q 2822 3834 2567 4026 
Q 2313 4219 1838 4219 
Q 1578 4219 1281 4162 
Q 984 4106 628 3988 
L 628 4550 
Q 988 4650 1302 4700 
Q 1616 4750 1894 4750 
Q 2613 4750 3031 4423 
Q 3450 4097 3450 3541 
Q 3450 3153 3228 2886 
Q 3006 2619 2597 2516 
z
" transform="scale(0.015625)"/>
       </defs>
       <use xlink:href="#DejaVuSans-33"/>
       <use xlink:href="#DejaVuSans-2e" transform="translate(63.623047 0)"/>
       <use xlink:href="#DejaVuSans-30" transform="translate(95.410156 0)"/>
      </g>
     </g>
    </g>
    <g id="text_27">
     <!-- Annual Expenditure (€ Millions / yr) -->
     <g transform="translate(460.100965 334.876172) rotate(-90) scale(0.11 -0.11)">
      <defs>
       <path id="DejaVuSans-2f" d="M 1625 4666 
L 2156 4666 
L 531 -594 
L 0 -594 
L 1625 4666 
z
" transform="scale(0.015625)"/>
       <path id="DejaVuSans-79" d="M 2059 -325 
Q 1816 -950 1584 -1140 
Q 1353 -1331 966 -1331 
L 506 -1331 
L 506 -850 
L 844 -850 
Q 1081 -850 1212 -737 
Q 1344 -625 1503 -206 
L 1606 56 
L 191 3500 
L 800 3500 
L 1894 763 
L 2988 3500 
L 3597 3500 
L 2059 -325 
z
" transform="scale(0.015625)"/>
      </defs>
      <use xlink:href="#DejaVuSans-41"/>
      <use xlink:href="#DejaVuSans-6e" transform="translate(68.408203 0)"/>
      <use xlink:href="#DejaVuSans-6e" transform="translate(131.787109 0)"/>
      <use xlink:href="#DejaVuSans-75" transform="translate(195.166016 0)"/>
      <use xlink:href="#DejaVuSans-61" transform="translate(258.544922 0)"/>
      <use xlink:href="#DejaVuSans-6c" transform="translate(319.824219 0)"/>
      <use xlink:href="#DejaVuSans-20" transform="translate(347.607422 0)"/>
      <use xlink:href="#DejaVuSans-45" transform="translate(379.394531 0)"/>
      <use xlink:href="#DejaVuSans-78" transform="translate(442.578125 0)"/>
      <use xlink:href="#DejaVuSans-70" transform="translate(501.757812 0)"/>
      <use xlink:href="#DejaVuSans-65" transform="translate(565.234375 0)"/>
      <use xlink:href="#DejaVuSans-6e" transform="translate(626.757812 0)"/>
      <use xlink:href="#DejaVuSans-64" transform="translate(690.136719 0)"/>
      <use xlink:href="#DejaVuSans-69" transform="translate(753.613281 0)"/>
      <use xlink:href="#DejaVuSans-74" transform="translate(781.396484 0)"/>
      <use xlink:href="#DejaVuSans-75" transform="translate(820.605469 0)"/>
      <use xlink:href="#DejaVuSans-72" transform="translate(883.984375 0)"/>
      <use xlink:href="#DejaVuSans-65" transform="translate(922.847656 0)"/>
      <use xlink:href="#DejaVuSans-20" transform="translate(984.371094 0)"/>
      <use xlink:href="#DejaVuSans-28" transform="translate(1016.158203 0)"/>
      <use xlink:href="#DejaVuSans-20ac" transform="translate(1055.171875 0)"/>
      <use xlink:href="#DejaVuSans-20" transform="translate(1118.794922 0)"/>
      <use xlink:href="#DejaVuSans-4d" transform="translate(1150.582031 0)"/>
      <use xlink:href="#DejaVuSans-69" transform="translate(1236.861328 0)"/>
      <use xlink:href="#DejaVuSans-6c" transform="translate(1264.644531 0)"/>
      <use xlink:href="#DejaVuSans-6c" transform="translate(1292.427734 0)"/>
      <use xlink:href="#DejaVuSans-69" transform="translate(1320.210938 0)"/>
      <use xlink:href="#DejaVuSans-6f" transform="translate(1347.994141 0)"/>
      <use xlink:href="#DejaVuSans-6e" transform="translate(1409.175781 0)"/>
      <use xlink:href="#DejaVuSans-73" transform="translate(1472.554688 0)"/>
      <use xlink:href="#DejaVuSans-20" transform="translate(1524.654297 0)"/>
      <use xlink:href="#DejaVuSans-2f" transform="translate(1556.441406 0)"/>
      <use xlink:href="#DejaVuSans-20" transform="translate(1590.132812 0)"/>
      <use xlink:href="#DejaVuSans-79" transform="translate(1621.919922 0)"/>
      <use xlink:href="#DejaVuSans-72" transform="translate(1681.099609 0)"/>
      <use xlink:href="#DejaVuSans-29" transform="translate(1722.212891 0)"/>
     </g>
    </g>
   </g>
   <g id="patch_27">
    <path d="M 489.291746 402.76 
L 489.291746 73.26 
" style="fill: none; stroke: #000000; stroke-width: 0.8; stroke-linejoin: miter; stroke-linecap: square"/>
   </g>
   <g id="patch_28">
    <path d="M 800.62932 402.76 
L 800.62932 73.26 
" style="fill: none; stroke: #000000; stroke-width: 0.8; stroke-linejoin: miter; stroke-linecap: square"/>
   </g>
   <g id="patch_29">
    <path d="M 489.291746 402.76 
L 800.62932 402.76 
" style="fill: none; stroke: #000000; stroke-width: 0.8; stroke-linejoin: miter; stroke-linecap: square"/>
   </g>
   <g id="patch_30">
    <path d="M 489.291746 73.26 
L 800.62932 73.26 
" style="fill: none; stroke: #000000; stroke-width: 0.8; stroke-linejoin: miter; stroke-linecap: square"/>
   </g>
   <g id="text_28">
    <!-- +20% -->
    <g style="fill: #ffffff" transform="translate(723.14744 327.185413) scale(0.1 -0.1)">
     <use xlink:href="#DejaVuSans-Bold-2b"/>
     <use xlink:href="#DejaVuSans-Bold-32" transform="translate(83.789062 0)"/>
     <use xlink:href="#DejaVuSans-Bold-30" transform="translate(153.369141 0)"/>
     <use xlink:href="#DejaVuSans-Bold-25" transform="translate(222.949219 0)"/>
    </g>
   </g>
   <g id="text_29">
    <!-- €2.63M -->
    <g transform="translate(529.825189 125.275409) scale(0.1 -0.1)">
     <use xlink:href="#DejaVuSans-Bold-20ac"/>
     <use xlink:href="#DejaVuSans-Bold-32" transform="translate(69.580078 0)"/>
     <use xlink:href="#DejaVuSans-Bold-2e" transform="translate(139.160156 0)"/>
     <use xlink:href="#DejaVuSans-Bold-36" transform="translate(177.148438 0)"/>
     <use xlink:href="#DejaVuSans-Bold-33" transform="translate(246.728516 0)"/>
     <use xlink:href="#DejaVuSans-Bold-4d" transform="translate(316.308594 0)"/>
    </g>
   </g>
   <g id="text_30">
    <!-- €2.88M -->
    <g transform="translate(718.514627 99.164088) scale(0.1 -0.1)">
     <use xlink:href="#DejaVuSans-Bold-20ac"/>
     <use xlink:href="#DejaVuSans-Bold-32" transform="translate(69.580078 0)"/>
     <use xlink:href="#DejaVuSans-Bold-2e" transform="translate(139.160156 0)"/>
     <use xlink:href="#DejaVuSans-Bold-38" transform="translate(177.148438 0)"/>
     <use xlink:href="#DejaVuSans-Bold-38" transform="translate(246.728516 0)"/>
     <use xlink:href="#DejaVuSans-Bold-4d" transform="translate(316.308594 0)"/>
    </g>
   </g>
   <g id="text_31">
    <!-- Annual OPEX Composition -->
    <g transform="translate(560.046158 67.26) scale(0.13 -0.13)">
     <defs>
      <path id="DejaVuSans-4f" d="M 2522 4238 
Q 1834 4238 1429 3725 
Q 1025 3213 1025 2328 
Q 1025 1447 1429 934 
Q 1834 422 2522 422 
Q 3209 422 3611 934 
Q 4013 1447 4013 2328 
Q 4013 3213 3611 3725 
Q 3209 4238 2522 4238 
z
M 2522 4750 
Q 3503 4750 4090 4092 
Q 4678 3434 4678 2328 
Q 4678 1225 4090 567 
Q 3503 -91 2522 -91 
Q 1538 -91 948 565 
Q 359 1222 359 2328 
Q 359 3434 948 4092 
Q 1538 4750 2522 4750 
z
" transform="scale(0.015625)"/>
     </defs>
     <use xlink:href="#DejaVuSans-41"/>
     <use xlink:href="#DejaVuSans-6e" transform="translate(68.408203 0)"/>
     <use xlink:href="#DejaVuSans-6e" transform="translate(131.787109 0)"/>
     <use xlink:href="#DejaVuSans-75" transform="translate(195.166016 0)"/>
     <use xlink:href="#DejaVuSans-61" transform="translate(258.544922 0)"/>
     <use xlink:href="#DejaVuSans-6c" transform="translate(319.824219 0)"/>
     <use xlink:href="#DejaVuSans-20" transform="translate(347.607422 0)"/>
     <use xlink:href="#DejaVuSans-4f" transform="translate(379.394531 0)"/>
     <use xlink:href="#DejaVuSans-50" transform="translate(458.105469 0)"/>
     <use xlink:href="#DejaVuSans-45" transform="translate(518.408203 0)"/>
     <use xlink:href="#DejaVuSans-58" transform="translate(581.591797 0)"/>
     <use xlink:href="#DejaVuSans-20" transform="translate(650.097656 0)"/>
     <use xlink:href="#DejaVuSans-43" transform="translate(681.884766 0)"/>
     <use xlink:href="#DejaVuSans-6f" transform="translate(751.708984 0)"/>
     <use xlink:href="#DejaVuSans-6d" transform="translate(812.890625 0)"/>
     <use xlink:href="#DejaVuSans-70" transform="translate(910.302734 0)"/>
     <use xlink:href="#DejaVuSans-6f" transform="translate(973.779297 0)"/>
     <use xlink:href="#DejaVuSans-73" transform="translate(1034.960938 0)"/>
     <use xlink:href="#DejaVuSans-69" transform="translate(1087.060547 0)"/>
     <use xlink:href="#DejaVuSans-74" transform="translate(1114.84375 0)"/>
     <use xlink:href="#DejaVuSans-69" transform="translate(1154.052734 0)"/>
     <use xlink:href="#DejaVuSans-6f" transform="translate(1181.835938 0)"/>
     <use xlink:href="#DejaVuSans-6e" transform="translate(1243.017578 0)"/>
    </g>
   </g>
  </g>
  <g id="axes_3">
   <g id="patch_31">
    <path d="M 930.650055 402.76 
L 1138.208437 402.76 
L 1138.208437 73.26 
L 930.650055 73.26 
z
" style="fill: #ffffff"/>
   </g>
   <g id="patch_32">
    <path d="M 940.084527 402.76 
L 1010.843067 402.76 
L 1010.843067 169.744877 
L 940.084527 169.744877 
z
" clip-path="url(#pa5052a29dc)" style="fill: #2ca02c; stroke: #000000; stroke-linejoin: miter"/>
   </g>
   <g id="patch_33">
    <path d="M 1058.015426 402.76 
L 1128.773966 402.76 
L 1128.773966 133.904172 
L 1058.015426 133.904172 
z
" clip-path="url(#pa5052a29dc)" style="fill: #d62728; stroke: #000000; stroke-linejoin: miter"/>
   </g>
   <g id="matplotlib.axis_5">
    <g id="xtick_5">
     <g id="line2d_29">
      <g>
       <use xlink:href="#m2a7f9edd9e" x="975.463797" y="402.76" style="stroke: #000000; stroke-width: 0.8"/>
      </g>
     </g>
     <g id="text_32">
      <!-- Baseline -->
      <g transform="translate(952.144656 418.118281) scale(0.11 -0.11)">
       <use xlink:href="#DejaVuSans-42"/>
       <use xlink:href="#DejaVuSans-61" transform="translate(68.603516 0)"/>
       <use xlink:href="#DejaVuSans-73" transform="translate(129.882812 0)"/>
       <use xlink:href="#DejaVuSans-65" transform="translate(181.982422 0)"/>
       <use xlink:href="#DejaVuSans-6c" transform="translate(243.505859 0)"/>
       <use xlink:href="#DejaVuSans-69" transform="translate(271.289062 0)"/>
       <use xlink:href="#DejaVuSans-6e" transform="translate(299.072266 0)"/>
       <use xlink:href="#DejaVuSans-65" transform="translate(362.451172 0)"/>
      </g>
     </g>
    </g>
    <g id="xtick_6">
     <g id="line2d_30">
      <g>
       <use xlink:href="#m2a7f9edd9e" x="1093.394696" y="402.76" style="stroke: #000000; stroke-width: 0.8"/>
      </g>
     </g>
     <g id="text_33">
      <!-- Shock Scenario -->
      <g transform="translate(1051.184774 418.118281) scale(0.11 -0.11)">
       <use xlink:href="#DejaVuSans-53"/>
       <use xlink:href="#DejaVuSans-68" transform="translate(63.476562 0)"/>
       <use xlink:href="#DejaVuSans-6f" transform="translate(126.855469 0)"/>
       <use xlink:href="#DejaVuSans-63" transform="translate(188.037109 0)"/>
       <use xlink:href="#DejaVuSans-6b" transform="translate(243.017578 0)"/>
       <use xlink:href="#DejaVuSans-20" transform="translate(300.927734 0)"/>
       <use xlink:href="#DejaVuSans-53" transform="translate(332.714844 0)"/>
       <use xlink:href="#DejaVuSans-63" transform="translate(396.191406 0)"/>
       <use xlink:href="#DejaVuSans-65" transform="translate(451.171875 0)"/>
       <use xlink:href="#DejaVuSans-6e" transform="translate(512.695312 0)"/>
       <use xlink:href="#DejaVuSans-61" transform="translate(576.074219 0)"/>
       <use xlink:href="#DejaVuSans-72" transform="translate(637.353516 0)"/>
       <use xlink:href="#DejaVuSans-69" transform="translate(678.466797 0)"/>
       <use xlink:href="#DejaVuSans-6f" transform="translate(706.25 0)"/>
      </g>
     </g>
    </g>
   </g>
   <g id="matplotlib.axis_6">
    <g id="ytick_13">
     <g id="line2d_31">
      <path d="M 930.650055 402.76 
L 1138.208437 402.76 
" clip-path="url(#pa5052a29dc)" style="fill: none; stroke-dasharray: 2.96,1.28; stroke-dashoffset: 0; stroke: #b0b0b0; stroke-opacity: 0.7; stroke-width: 0.8"/>
     </g>
     <g id="line2d_32">
      <g>
       <use xlink:href="#md3b91e77df" x="930.650055" y="402.76" style="stroke: #000000; stroke-width: 0.8"/>
      </g>
     </g>
     <g id="text_34">
      <!-- 0 -->
      <g transform="translate(917.287555 406.559219) scale(0.1 -0.1)">
       <use xlink:href="#DejaVuSans-30"/>
      </g>
     </g>
    </g>
    <g id="ytick_14">
     <g id="line2d_33">
      <path d="M 930.650055 362.330552 
L 1138.208437 362.330552 
" clip-path="url(#pa5052a29dc)" style="fill: none; stroke-dasharray: 2.96,1.28; stroke-dashoffset: 0; stroke: #b0b0b0; stroke-opacity: 0.7; stroke-width: 0.8"/>
     </g>
     <g id="line2d_34">
      <g>
       <use xlink:href="#md3b91e77df" x="930.650055" y="362.330552" style="stroke: #000000; stroke-width: 0.8"/>
      </g>
     </g>
     <g id="text_35">
      <!-- 20 -->
      <g transform="translate(910.925055 366.129771) scale(0.1 -0.1)">
       <use xlink:href="#DejaVuSans-32"/>
       <use xlink:href="#DejaVuSans-30" transform="translate(63.623047 0)"/>
      </g>
     </g>
    </g>
    <g id="ytick_15">
     <g id="line2d_35">
      <path d="M 930.650055 321.901104 
L 1138.208437 321.901104 
" clip-path="url(#pa5052a29dc)" style="fill: none; stroke-dasharray: 2.96,1.28; stroke-dashoffset: 0; stroke: #b0b0b0; stroke-opacity: 0.7; stroke-width: 0.8"/>
     </g>
     <g id="line2d_36">
      <g>
       <use xlink:href="#md3b91e77df" x="930.650055" y="321.901104" style="stroke: #000000; stroke-width: 0.8"/>
      </g>
     </g>
     <g id="text_36">
      <!-- 40 -->
      <g transform="translate(910.925055 325.700323) scale(0.1 -0.1)">
       <defs>
        <path id="DejaVuSans-34" d="M 2419 4116 
L 825 1625 
L 2419 1625 
L 2419 4116 
z
M 2253 4666 
L 3047 4666 
L 3047 1625 
L 3713 1625 
L 3713 1100 
L 3047 1100 
L 3047 0 
L 2419 0 
L 2419 1100 
L 313 1100 
L 313 1709 
L 2253 4666 
z
" transform="scale(0.015625)"/>
       </defs>
       <use xlink:href="#DejaVuSans-34"/>
       <use xlink:href="#DejaVuSans-30" transform="translate(63.623047 0)"/>
      </g>
     </g>
    </g>
    <g id="ytick_16">
     <g id="line2d_37">
      <path d="M 930.650055 281.471656 
L 1138.208437 281.471656 
" clip-path="url(#pa5052a29dc)" style="fill: none; stroke-dasharray: 2.96,1.28; stroke-dashoffset: 0; stroke: #b0b0b0; stroke-opacity: 0.7; stroke-width: 0.8"/>
     </g>
     <g id="line2d_38">
      <g>
       <use xlink:href="#md3b91e77df" x="930.650055" y="281.471656" style="stroke: #000000; stroke-width: 0.8"/>
      </g>
     </g>
     <g id="text_37">
      <!-- 60 -->
      <g transform="translate(910.925055 285.270875) scale(0.1 -0.1)">
       <defs>
        <path id="DejaVuSans-36" d="M 2113 2584 
Q 1688 2584 1439 2293 
Q 1191 2003 1191 1497 
Q 1191 994 1439 701 
Q 1688 409 2113 409 
Q 2538 409 2786 701 
Q 3034 994 3034 1497 
Q 3034 2003 2786 2293 
Q 2538 2584 2113 2584 
z
M 3366 4563 
L 3366 3988 
Q 3128 4100 2886 4159 
Q 2644 4219 2406 4219 
Q 1781 4219 1451 3797 
Q 1122 3375 1075 2522 
Q 1259 2794 1537 2939 
Q 1816 3084 2150 3084 
Q 2853 3084 3261 2657 
Q 3669 2231 3669 1497 
Q 3669 778 3244 343 
Q 2819 -91 2113 -91 
Q 1303 -91 875 529 
Q 447 1150 447 2328 
Q 447 3434 972 4092 
Q 1497 4750 2381 4750 
Q 2619 4750 2861 4703 
Q 3103 4656 3366 4563 
z
" transform="scale(0.015625)"/>
       </defs>
       <use xlink:href="#DejaVuSans-36"/>
       <use xlink:href="#DejaVuSans-30" transform="translate(63.623047 0)"/>
      </g>
     </g>
    </g>
    <g id="ytick_17">
     <g id="line2d_39">
      <path d="M 930.650055 241.042209 
L 1138.208437 241.042209 
" clip-path="url(#pa5052a29dc)" style="fill: none; stroke-dasharray: 2.96,1.28; stroke-dashoffset: 0; stroke: #b0b0b0; stroke-opacity: 0.7; stroke-width: 0.8"/>
     </g>
     <g id="line2d_40">
      <g>
       <use xlink:href="#md3b91e77df" x="930.650055" y="241.042209" style="stroke: #000000; stroke-width: 0.8"/>
      </g>
     </g>
     <g id="text_38">
      <!-- 80 -->
      <g transform="translate(910.925055 244.841427) scale(0.1 -0.1)">
       <defs>
        <path id="DejaVuSans-38" d="M 2034 2216 
Q 1584 2216 1326 1975 
Q 1069 1734 1069 1313 
Q 1069 891 1326 650 
Q 1584 409 2034 409 
Q 2484 409 2743 651 
Q 3003 894 3003 1313 
Q 3003 1734 2745 1975 
Q 2488 2216 2034 2216 
z
M 1403 2484 
Q 997 2584 770 2862 
Q 544 3141 544 3541 
Q 544 4100 942 4425 
Q 1341 4750 2034 4750 
Q 2731 4750 3128 4425 
Q 3525 4100 3525 3541 
Q 3525 3141 3298 2862 
Q 3072 2584 2669 2484 
Q 3125 2378 3379 2068 
Q 3634 1759 3634 1313 
Q 3634 634 3220 271 
Q 2806 -91 2034 -91 
Q 1263 -91 848 271 
Q 434 634 434 1313 
Q 434 1759 690 2068 
Q 947 2378 1403 2484 
z
M 1172 3481 
Q 1172 3119 1398 2916 
Q 1625 2713 2034 2713 
Q 2441 2713 2670 2916 
Q 2900 3119 2900 3481 
Q 2900 3844 2670 4047 
Q 2441 4250 2034 4250 
Q 1625 4250 1398 4047 
Q 1172 3844 1172 3481 
z
" transform="scale(0.015625)"/>
       </defs>
       <use xlink:href="#DejaVuSans-38"/>
       <use xlink:href="#DejaVuSans-30" transform="translate(63.623047 0)"/>
      </g>
     </g>
    </g>
    <g id="ytick_18">
     <g id="line2d_41">
      <path d="M 930.650055 200.612761 
L 1138.208437 200.612761 
" clip-path="url(#pa5052a29dc)" style="fill: none; stroke-dasharray: 2.96,1.28; stroke-dashoffset: 0; stroke: #b0b0b0; stroke-opacity: 0.7; stroke-width: 0.8"/>
     </g>
     <g id="line2d_42">
      <g>
       <use xlink:href="#md3b91e77df" x="930.650055" y="200.612761" style="stroke: #000000; stroke-width: 0.8"/>
      </g>
     </g>
     <g id="text_39">
      <!-- 100 -->
      <g transform="translate(904.562555 204.411979) scale(0.1 -0.1)">
       <use xlink:href="#DejaVuSans-31"/>
       <use xlink:href="#DejaVuSans-30" transform="translate(63.623047 0)"/>
       <use xlink:href="#DejaVuSans-30" transform="translate(127.246094 0)"/>
      </g>
     </g>
    </g>
    <g id="ytick_19">
     <g id="line2d_43">
      <path d="M 930.650055 160.183313 
L 1138.208437 160.183313 
" clip-path="url(#pa5052a29dc)" style="fill: none; stroke-dasharray: 2.96,1.28; stroke-dashoffset: 0; stroke: #b0b0b0; stroke-opacity: 0.7; stroke-width: 0.8"/>
     </g>
     <g id="line2d_44">
      <g>
       <use xlink:href="#md3b91e77df" x="930.650055" y="160.183313" style="stroke: #000000; stroke-width: 0.8"/>
      </g>
     </g>
     <g id="text_40">
      <!-- 120 -->
      <g transform="translate(904.562555 163.982532) scale(0.1 -0.1)">
       <use xlink:href="#DejaVuSans-31"/>
       <use xlink:href="#DejaVuSans-32" transform="translate(63.623047 0)"/>
       <use xlink:href="#DejaVuSans-30" transform="translate(127.246094 0)"/>
      </g>
     </g>
    </g>
    <g id="ytick_20">
     <g id="line2d_45">
      <path d="M 930.650055 119.753865 
L 1138.208437 119.753865 
" clip-path="url(#pa5052a29dc)" style="fill: none; stroke-dasharray: 2.96,1.28; stroke-dashoffset: 0; stroke: #b0b0b0; stroke-opacity: 0.7; stroke-width: 0.8"/>
     </g>
     <g id="line2d_46">
      <g>
       <use xlink:href="#md3b91e77df" x="930.650055" y="119.753865" style="stroke: #000000; stroke-width: 0.8"/>
      </g>
     </g>
     <g id="text_41">
      <!-- 140 -->
      <g transform="translate(904.562555 123.553084) scale(0.1 -0.1)">
       <use xlink:href="#DejaVuSans-31"/>
       <use xlink:href="#DejaVuSans-34" transform="translate(63.623047 0)"/>
       <use xlink:href="#DejaVuSans-30" transform="translate(127.246094 0)"/>
      </g>
     </g>
    </g>
    <g id="ytick_21">
     <g id="line2d_47">
      <path d="M 930.650055 79.324417 
L 1138.208437 79.324417 
" clip-path="url(#pa5052a29dc)" style="fill: none; stroke-dasharray: 2.96,1.28; stroke-dashoffset: 0; stroke: #b0b0b0; stroke-opacity: 0.7; stroke-width: 0.8"/>
     </g>
     <g id="line2d_48">
      <g>
       <use xlink:href="#md3b91e77df" x="930.650055" y="79.324417" style="stroke: #000000; stroke-width: 0.8"/>
      </g>
     </g>
     <g id="text_42">
      <!-- 160 -->
      <g transform="translate(904.562555 83.123636) scale(0.1 -0.1)">
       <use xlink:href="#DejaVuSans-31"/>
       <use xlink:href="#DejaVuSans-36" transform="translate(63.623047 0)"/>
       <use xlink:href="#DejaVuSans-30" transform="translate(127.246094 0)"/>
      </g>
     </g>
    </g>
    <g id="text_43">
     <!-- LCOED (€ / MWh) -->
     <g transform="translate(898.274899 285.511953) rotate(-90) scale(0.11 -0.11)">
      <defs>
       <path id="DejaVuSans-4c" d="M 628 4666 
L 1259 4666 
L 1259 531 
L 3531 531 
L 3531 0 
L 628 0 
L 628 4666 
z
" transform="scale(0.015625)"/>
       <path id="DejaVuSans-44" d="M 1259 4147 
L 1259 519 
L 2022 519 
Q 2988 519 3436 956 
Q 3884 1394 3884 2338 
Q 3884 3275 3436 3711 
Q 2988 4147 2022 4147 
L 1259 4147 
z
M 628 4666 
L 1925 4666 
Q 3281 4666 3915 4102 
Q 4550 3538 4550 2338 
Q 4550 1131 3912 565 
Q 3275 0 1925 0 
L 628 0 
L 628 4666 
z
" transform="scale(0.015625)"/>
      </defs>
      <use xlink:href="#DejaVuSans-4c"/>
      <use xlink:href="#DejaVuSans-43" transform="translate(55.712891 0)"/>
      <use xlink:href="#DejaVuSans-4f" transform="translate(125.537109 0)"/>
      <use xlink:href="#DejaVuSans-45" transform="translate(204.248047 0)"/>
      <use xlink:href="#DejaVuSans-44" transform="translate(267.431641 0)"/>
      <use xlink:href="#DejaVuSans-20" transform="translate(344.433594 0)"/>
      <use xlink:href="#DejaVuSans-28" transform="translate(376.220703 0)"/>
      <use xlink:href="#DejaVuSans-20ac" transform="translate(415.234375 0)"/>
      <use xlink:href="#DejaVuSans-20" transform="translate(478.857422 0)"/>
      <use xlink:href="#DejaVuSans-2f" transform="translate(510.644531 0)"/>
      <use xlink:href="#DejaVuSans-20" transform="translate(544.335938 0)"/>
      <use xlink:href="#DejaVuSans-4d" transform="translate(576.123047 0)"/>
      <use xlink:href="#DejaVuSans-57" transform="translate(662.402344 0)"/>
      <use xlink:href="#DejaVuSans-68" transform="translate(761.279297 0)"/>
      <use xlink:href="#DejaVuSans-29" transform="translate(824.658203 0)"/>
     </g>
    </g>
   </g>
   <g id="patch_34">
    <path d="M 930.650055 402.76 
L 930.650055 73.26 
" style="fill: none; stroke: #000000; stroke-width: 0.8; stroke-linejoin: miter; stroke-linecap: square"/>
   </g>
   <g id="patch_35">
    <path d="M 1138.208437 402.76 
L 1138.208437 73.26 
" style="fill: none; stroke: #000000; stroke-width: 0.8; stroke-linejoin: miter; stroke-linecap: square"/>
   </g>
   <g id="patch_36">
    <path d="M 930.650055 402.76 
L 1138.208437 402.76 
" style="fill: none; stroke: #000000; stroke-width: 0.8; stroke-linejoin: miter; stroke-linecap: square"/>
   </g>
   <g id="patch_37">
    <path d="M 930.650055 73.26 
L 1138.208437 73.26 
" style="fill: none; stroke: #000000; stroke-width: 0.8; stroke-linejoin: miter; stroke-linecap: square"/>
   </g>
   <g id="text_44">
    <!-- €115.3 -->
    <g transform="translate(956.170047 163.622245) scale(0.1 -0.1)">
     <defs>
      <path id="DejaVuSans-Bold-35" d="M 678 4666 
L 3669 4666 
L 3669 3781 
L 1638 3781 
L 1638 3059 
Q 1775 3097 1914 3117 
Q 2053 3138 2203 3138 
Q 3056 3138 3531 2711 
Q 4006 2284 4006 1522 
Q 4006 766 3489 337 
Q 2972 -91 2053 -91 
Q 1656 -91 1267 -14 
Q 878 63 494 219 
L 494 1166 
Q 875 947 1217 837 
Q 1559 728 1863 728 
Q 2300 728 2551 942 
Q 2803 1156 2803 1522 
Q 2803 1891 2551 2103 
Q 2300 2316 1863 2316 
Q 1603 2316 1309 2248 
Q 1016 2181 678 2041 
L 678 4666 
z
" transform="scale(0.015625)"/>
     </defs>
     <use xlink:href="#DejaVuSans-Bold-20ac"/>
     <use xlink:href="#DejaVuSans-Bold-31" transform="translate(69.580078 0)"/>
     <use xlink:href="#DejaVuSans-Bold-31" transform="translate(139.160156 0)"/>
     <use xlink:href="#DejaVuSans-Bold-35" transform="translate(208.740234 0)"/>
     <use xlink:href="#DejaVuSans-Bold-2e" transform="translate(278.320312 0)"/>
     <use xlink:href="#DejaVuSans-Bold-33" transform="translate(316.308594 0)"/>
    </g>
   </g>
   <g id="text_45">
    <!-- €133.0 -->
    <g transform="translate(1074.100946 116.583727) scale(0.1 -0.1)">
     <use xlink:href="#DejaVuSans-Bold-20ac"/>
     <use xlink:href="#DejaVuSans-Bold-31" transform="translate(69.580078 0)"/>
     <use xlink:href="#DejaVuSans-Bold-33" transform="translate(139.160156 0)"/>
     <use xlink:href="#DejaVuSans-Bold-33" transform="translate(208.740234 0)"/>
     <use xlink:href="#DejaVuSans-Bold-2e" transform="translate(278.320312 0)"/>
     <use xlink:href="#DejaVuSans-Bold-30" transform="translate(316.308594 0)"/>
    </g>
    <!-- (+15.4%) -->
    <g transform="translate(1067.288446 127.781539) scale(0.1 -0.1)">
     <defs>
      <path id="DejaVuSans-Bold-34" d="M 2356 3675 
L 1038 1722 
L 2356 1722 
L 2356 3675 
z
M 2156 4666 
L 3494 4666 
L 3494 1722 
L 4159 1722 
L 4159 850 
L 3494 850 
L 3494 0 
L 2356 0 
L 2356 850 
L 288 850 
L 288 1881 
L 2156 4666 
z
" transform="scale(0.015625)"/>
     </defs>
     <use xlink:href="#DejaVuSans-Bold-28"/>
     <use xlink:href="#DejaVuSans-Bold-2b" transform="translate(45.703125 0)"/>
     <use xlink:href="#DejaVuSans-Bold-31" transform="translate(129.492188 0)"/>
     <use xlink:href="#DejaVuSans-Bold-35" transform="translate(199.072266 0)"/>
     <use xlink:href="#DejaVuSans-Bold-2e" transform="translate(268.652344 0)"/>
     <use xlink:href="#DejaVuSans-Bold-34" transform="translate(306.640625 0)"/>
     <use xlink:href="#DejaVuSans-Bold-25" transform="translate(376.220703 0)"/>
     <use xlink:href="#DejaVuSans-Bold-29" transform="translate(476.416016 0)"/>
    </g>
   </g>
   <g id="text_46">
    <!-- Impact on LCOE Delivered -->
    <g transform="translate(949.15534 67.26) scale(0.13 -0.13)">
     <defs>
      <path id="DejaVuSans-49" d="M 628 4666 
L 1259 4666 
L 1259 0 
L 628 0 
L 628 4666 
z
" transform="scale(0.015625)"/>
      <path id="DejaVuSans-76" d="M 191 3500 
L 800 3500 
L 1894 563 
L 2988 3500 
L 3597 3500 
L 2284 0 
L 1503 0 
L 191 3500 
z
" transform="scale(0.015625)"/>
     </defs>
     <use xlink:href="#DejaVuSans-49"/>
     <use xlink:href="#DejaVuSans-6d" transform="translate(29.492188 0)"/>
     <use xlink:href="#DejaVuSans-70" transform="translate(126.904297 0)"/>
     <use xlink:href="#DejaVuSans-61" transform="translate(190.380859 0)"/>
     <use xlink:href="#DejaVuSans-63" transform="translate(251.660156 0)"/>
     <use xlink:href="#DejaVuSans-74" transform="translate(306.640625 0)"/>
     <use xlink:href="#DejaVuSans-20" transform="translate(345.849609 0)"/>
     <use xlink:href="#DejaVuSans-6f" transform="translate(377.636719 0)"/>
     <use xlink:href="#DejaVuSans-6e" transform="translate(438.818359 0)"/>
     <use xlink:href="#DejaVuSans-20" transform="translate(502.197266 0)"/>
     <use xlink:href="#DejaVuSans-4c" transform="translate(533.984375 0)"/>
     <use xlink:href="#DejaVuSans-43" transform="translate(589.697266 0)"/>
     <use xlink:href="#DejaVuSans-4f" transform="translate(659.521484 0)"/>
     <use xlink:href="#DejaVuSans-45" transform="translate(738.232422 0)"/>
     <use xlink:href="#DejaVuSans-20" transform="translate(801.416016 0)"/>
     <use xlink:href="#DejaVuSans-44" transform="translate(833.203125 0)"/>
     <use xlink:href="#DejaVuSans-65" transform="translate(910.205078 0)"/>
     <use xlink:href="#DejaVuSans-6c" transform="translate(971.728516 0)"/>
     <use xlink:href="#DejaVuSans-69" transform="translate(999.511719 0)"/>
     <use xlink:href="#DejaVuSans-76" transform="translate(1027.294922 0)"/>
     <use xlink:href="#DejaVuSans-65" transform="translate(1086.474609 0)"/>
     <use xlink:href="#DejaVuSans-72" transform="translate(1147.998047 0)"/>
     <use xlink:href="#DejaVuSans-65" transform="translate(1186.861328 0)"/>
     <use xlink:href="#DejaVuSans-64" transform="translate(1248.384766 0)"/>
    </g>
   </g>
  </g>
  <g id="text_47">
   <!-- Financial Sensitivity: Baseline vs. +20% Wind &amp; +100% BESS Costs -->
   <g transform="translate(270.194687 19.3575) scale(0.16 -0.16)">
    <defs>
     <path id="DejaVuSans-Bold-46" d="M 588 4666 
L 3834 4666 
L 3834 3756 
L 1791 3756 
L 1791 2888 
L 3713 2888 
L 3713 1978 
L 1791 1978 
L 1791 0 
L 588 0 
L 588 4666 
z
" transform="scale(0.015625)"/>
     <path id="DejaVuSans-Bold-69" d="M 538 3500 
L 1656 3500 
L 1656 0 
L 538 0 
L 538 3500 
z
M 538 4863 
L 1656 4863 
L 1656 3950 
L 538 3950 
L 538 4863 
z
" transform="scale(0.015625)"/>
     <path id="DejaVuSans-Bold-6e" d="M 4056 2131 
L 4056 0 
L 2931 0 
L 2931 347 
L 2931 1631 
Q 2931 2084 2911 2256 
Q 2891 2428 2841 2509 
Q 2775 2619 2662 2680 
Q 2550 2741 2406 2741 
Q 2056 2741 1856 2470 
Q 1656 2200 1656 1722 
L 1656 0 
L 538 0 
L 538 3500 
L 1656 3500 
L 1656 2988 
Q 1909 3294 2193 3439 
Q 2478 3584 2822 3584 
Q 3428 3584 3742 3212 
Q 4056 2841 4056 2131 
z
" transform="scale(0.015625)"/>
     <path id="DejaVuSans-Bold-61" d="M 2106 1575 
Q 1756 1575 1579 1456 
Q 1403 1338 1403 1106 
Q 1403 894 1545 773 
Q 1688 653 1941 653 
Q 2256 653 2472 879 
Q 2688 1106 2688 1447 
L 2688 1575 
L 2106 1575 
z
M 3816 1997 
L 3816 0 
L 2688 0 
L 2688 519 
Q 2463 200 2181 54 
Q 1900 -91 1497 -91 
Q 953 -91 614 226 
Q 275 544 275 1050 
Q 275 1666 698 1953 
Q 1122 2241 2028 2241 
L 2688 2241 
L 2688 2328 
Q 2688 2594 2478 2717 
Q 2269 2841 1825 2841 
Q 1466 2841 1156 2769 
Q 847 2697 581 2553 
L 581 3406 
Q 941 3494 1303 3539 
Q 1666 3584 2028 3584 
Q 2975 3584 3395 3211 
Q 3816 2838 3816 1997 
z
" transform="scale(0.015625)"/>
     <path id="DejaVuSans-Bold-63" d="M 3366 3391 
L 3366 2478 
Q 3138 2634 2908 2709 
Q 2678 2784 2431 2784 
Q 1963 2784 1702 2511 
Q 1441 2238 1441 1747 
Q 1441 1256 1702 982 
Q 1963 709 2431 709 
Q 2694 709 2930 787 
Q 3166 866 3366 1019 
L 3366 103 
Q 3103 6 2833 -42 
Q 2563 -91 2291 -91 
Q 1344 -91 809 395 
Q 275 881 275 1747 
Q 275 2613 809 3098 
Q 1344 3584 2291 3584 
Q 2566 3584 2833 3536 
Q 3100 3488 3366 3391 
z
" transform="scale(0.015625)"/>
     <path id="DejaVuSans-Bold-6c" d="M 538 4863 
L 1656 4863 
L 1656 0 
L 538 0 
L 538 4863 
z
" transform="scale(0.015625)"/>
     <path id="DejaVuSans-Bold-20" transform="scale(0.015625)"/>
     <path id="DejaVuSans-Bold-53" d="M 3834 4519 
L 3834 3531 
Q 3450 3703 3084 3790 
Q 2719 3878 2394 3878 
Q 1963 3878 1756 3759 
Q 1550 3641 1550 3391 
Q 1550 3203 1689 3098 
Q 1828 2994 2194 2919 
L 2706 2816 
Q 3484 2659 3812 2340 
Q 4141 2022 4141 1434 
Q 4141 663 3683 286 
Q 3225 -91 2284 -91 
Q 1841 -91 1394 -6 
Q 947 78 500 244 
L 500 1259 
Q 947 1022 1364 901 
Q 1781 781 2169 781 
Q 2563 781 2772 912 
Q 2981 1044 2981 1288 
Q 2981 1506 2839 1625 
Q 2697 1744 2272 1838 
L 1806 1941 
Q 1106 2091 782 2419 
Q 459 2747 459 3303 
Q 459 4000 909 4375 
Q 1359 4750 2203 4750 
Q 2588 4750 2994 4692 
Q 3400 4634 3834 4519 
z
" transform="scale(0.015625)"/>
     <path id="DejaVuSans-Bold-65" d="M 4031 1759 
L 4031 1441 
L 1416 1441 
Q 1456 1047 1700 850 
Q 1944 653 2381 653 
Q 2734 653 3104 758 
Q 3475 863 3866 1075 
L 3866 213 
Q 3469 63 3072 -14 
Q 2675 -91 2278 -91 
Q 1328 -91 801 392 
Q 275 875 275 1747 
Q 275 2603 792 3093 
Q 1309 3584 2216 3584 
Q 3041 3584 3536 3087 
Q 4031 2591 4031 1759 
z
M 2881 2131 
Q 2881 2450 2695 2645 
Q 2509 2841 2209 2841 
Q 1884 2841 1681 2658 
Q 1478 2475 1428 2131 
L 2881 2131 
z
" transform="scale(0.015625)"/>
     <path id="DejaVuSans-Bold-73" d="M 3272 3391 
L 3272 2541 
Q 2913 2691 2578 2766 
Q 2244 2841 1947 2841 
Q 1628 2841 1473 2761 
Q 1319 2681 1319 2516 
Q 1319 2381 1436 2309 
Q 1553 2238 1856 2203 
L 2053 2175 
Q 2913 2066 3209 1816 
Q 3506 1566 3506 1031 
Q 3506 472 3093 190 
Q 2681 -91 1863 -91 
Q 1516 -91 1145 -36 
Q 775 19 384 128 
L 384 978 
Q 719 816 1070 734 
Q 1422 653 1784 653 
Q 2113 653 2278 743 
Q 2444 834 2444 1013 
Q 2444 1163 2330 1236 
Q 2216 1309 1875 1350 
L 1678 1375 
Q 931 1469 631 1722 
Q 331 1975 331 2491 
Q 331 3047 712 3315 
Q 1094 3584 1881 3584 
Q 2191 3584 2531 3537 
Q 2872 3491 3272 3391 
z
" transform="scale(0.015625)"/>
     <path id="DejaVuSans-Bold-74" d="M 1759 4494 
L 1759 3500 
L 2913 3500 
L 2913 2700 
L 1759 2700 
L 1759 1216 
Q 1759 972 1856 886 
Q 1953 800 2241 800 
L 2816 800 
L 2816 0 
L 1856 0 
Q 1194 0 917 276 
Q 641 553 641 1216 
L 641 2700 
L 84 2700 
L 84 3500 
L 641 3500 
L 641 4494 
L 1759 4494 
z
" transform="scale(0.015625)"/>
     <path id="DejaVuSans-Bold-76" d="M 97 3500 
L 1216 3500 
L 2088 1081 
L 2956 3500 
L 4078 3500 
L 2700 0 
L 1472 0 
L 97 3500 
z
" transform="scale(0.015625)"/>
     <path id="DejaVuSans-Bold-79" d="M 78 3500 
L 1197 3500 
L 2138 1125 
L 2938 3500 
L 4056 3500 
L 2584 -331 
Q 2363 -916 2067 -1148 
Q 1772 -1381 1288 -1381 
L 641 -1381 
L 641 -647 
L 991 -647 
Q 1275 -647 1404 -556 
Q 1534 -466 1606 -231 
L 1638 -134 
L 78 3500 
z
" transform="scale(0.015625)"/>
     <path id="DejaVuSans-Bold-3a" d="M 716 3500 
L 1844 3500 
L 1844 2291 
L 716 2291 
L 716 3500 
z
M 716 1209 
L 1844 1209 
L 1844 0 
L 716 0 
L 716 1209 
z
" transform="scale(0.015625)"/>
     <path id="DejaVuSans-Bold-42" d="M 2456 2859 
Q 2741 2859 2887 2984 
Q 3034 3109 3034 3353 
Q 3034 3594 2887 3720 
Q 2741 3847 2456 3847 
L 1791 3847 
L 1791 2859 
L 2456 2859 
z
M 2497 819 
Q 2859 819 3042 972 
Q 3225 1125 3225 1434 
Q 3225 1738 3044 1889 
Q 2863 2041 2497 2041 
L 1791 2041 
L 1791 819 
L 2497 819 
z
M 3616 2497 
Q 4003 2384 4215 2081 
Q 4428 1778 4428 1338 
Q 4428 663 3972 331 
Q 3516 0 2584 0 
L 588 0 
L 588 4666 
L 2394 4666 
Q 3366 4666 3802 4372 
Q 4238 4078 4238 3431 
Q 4238 3091 4078 2852 
Q 3919 2613 3616 2497 
z
" transform="scale(0.015625)"/>
     <path id="DejaVuSans-Bold-57" d="M 191 4666 
L 1344 4666 
L 2150 1275 
L 2950 4666 
L 4109 4666 
L 4909 1275 
L 5716 4666 
L 6859 4666 
L 5759 0 
L 4372 0 
L 3525 3547 
L 2688 0 
L 1300 0 
L 191 4666 
z
" transform="scale(0.015625)"/>
     <path id="DejaVuSans-Bold-64" d="M 2919 2988 
L 2919 4863 
L 4044 4863 
L 4044 0 
L 2919 0 
L 2919 506 
Q 2688 197 2409 53 
Q 2131 -91 1766 -91 
Q 1119 -91 703 423 
Q 288 938 288 1747 
Q 288 2556 703 3070 
Q 1119 3584 1766 3584 
Q 2128 3584 2408 3439 
Q 2688 3294 2919 2988 
z
M 2181 722 
Q 2541 722 2730 984 
Q 2919 1247 2919 1747 
Q 2919 2247 2730 2509 
Q 2541 2772 2181 2772 
Q 1825 2772 1636 2509 
Q 1447 2247 1447 1747 
Q 1447 1247 1636 984 
Q 1825 722 2181 722 
z
" transform="scale(0.015625)"/>
     <path id="DejaVuSans-Bold-26" d="M 2497 3097 
L 3775 1691 
Q 3941 1909 4027 2181 
Q 4113 2453 4128 2797 
L 5100 2797 
Q 5053 2228 4879 1784 
Q 4706 1341 4397 1006 
L 5313 0 
L 3988 0 
L 3681 341 
Q 3353 122 2990 15 
Q 2628 -91 2222 -91 
Q 1400 -91 892 342 
Q 384 775 384 1459 
Q 384 1916 607 2267 
Q 831 2619 1338 2950 
Q 1206 3116 1143 3281 
Q 1081 3447 1081 3628 
Q 1081 4138 1478 4444 
Q 1875 4750 2534 4750 
Q 2819 4750 3126 4704 
Q 3434 4659 3769 4569 
L 3769 3700 
Q 3475 3850 3212 3922 
Q 2950 3994 2700 3994 
Q 2459 3994 2326 3901 
Q 2194 3809 2194 3641 
Q 2194 3534 2270 3398 
Q 2347 3263 2497 3097 
z
M 1875 2322 
Q 1672 2175 1569 1989 
Q 1466 1803 1466 1581 
Q 1466 1222 1731 969 
Q 1997 716 2369 716 
Q 2578 716 2759 780 
Q 2941 844 3097 972 
L 1875 2322 
z
" transform="scale(0.015625)"/>
     <path id="DejaVuSans-Bold-45" d="M 588 4666 
L 3834 4666 
L 3834 3756 
L 1791 3756 
L 1791 2888 
L 3713 2888 
L 3713 1978 
L 1791 1978 
L 1791 909 
L 3903 909 
L 3903 0 
L 588 0 
L 588 4666 
z
" transform="scale(0.015625)"/>
     <path id="DejaVuSans-Bold-43" d="M 4288 256 
Q 3956 84 3597 -3 
Q 3238 -91 2847 -91 
Q 1681 -91 1000 561 
Q 319 1213 319 2328 
Q 319 3447 1000 4098 
Q 1681 4750 2847 4750 
Q 3238 4750 3597 4662 
Q 3956 4575 4288 4403 
L 4288 3438 
Q 3953 3666 3628 3772 
Q 3303 3878 2944 3878 
Q 2300 3878 1931 3465 
Q 1563 3053 1563 2328 
Q 1563 1606 1931 1193 
Q 2300 781 2944 781 
Q 3303 781 3628 887 
Q 3953 994 4288 1222 
L 4288 256 
z
" transform="scale(0.015625)"/>
     <path id="DejaVuSans-Bold-6f" d="M 2203 2784 
Q 1831 2784 1636 2517 
Q 1441 2250 1441 1747 
Q 1441 1244 1636 976 
Q 1831 709 2203 709 
Q 2569 709 2762 976 
Q 2956 1244 2956 1747 
Q 2956 2250 2762 2517 
Q 2569 2784 2203 2784 
z
M 2203 3584 
Q 3106 3584 3614 3096 
Q 4122 2609 4122 1747 
Q 4122 884 3614 396 
Q 3106 -91 2203 -91 
Q 1297 -91 786 396 
Q 275 884 275 1747 
Q 275 2609 786 3096 
Q 1297 3584 2203 3584 
z
" transform="scale(0.015625)"/>
    </defs>
    <use xlink:href="#DejaVuSans-Bold-46"/>
    <use xlink:href="#DejaVuSans-Bold-69" transform="translate(68.310547 0)"/>
    <use xlink:href="#DejaVuSans-Bold-6e" transform="translate(102.587891 0)"/>
    <use xlink:href="#DejaVuSans-Bold-61" transform="translate(173.779297 0)"/>
    <use xlink:href="#DejaVuSans-Bold-6e" transform="translate(241.259766 0)"/>
    <use xlink:href="#DejaVuSans-Bold-63" transform="translate(312.451172 0)"/>
    <use xlink:href="#DejaVuSans-Bold-69" transform="translate(371.728516 0)"/>
    <use xlink:href="#DejaVuSans-Bold-61" transform="translate(406.005859 0)"/>
    <use xlink:href="#DejaVuSans-Bold-6c" transform="translate(473.486328 0)"/>
    <use xlink:href="#DejaVuSans-Bold-20" transform="translate(507.763672 0)"/>
    <use xlink:href="#DejaVuSans-Bold-53" transform="translate(542.578125 0)"/>
    <use xlink:href="#DejaVuSans-Bold-65" transform="translate(614.599609 0)"/>
    <use xlink:href="#DejaVuSans-Bold-6e" transform="translate(682.421875 0)"/>
    <use xlink:href="#DejaVuSans-Bold-73" transform="translate(753.613281 0)"/>
    <use xlink:href="#DejaVuSans-Bold-69" transform="translate(813.134766 0)"/>
    <use xlink:href="#DejaVuSans-Bold-74" transform="translate(847.412109 0)"/>
    <use xlink:href="#DejaVuSans-Bold-69" transform="translate(895.214844 0)"/>
    <use xlink:href="#DejaVuSans-Bold-76" transform="translate(929.492188 0)"/>
    <use xlink:href="#DejaVuSans-Bold-69" transform="translate(994.677734 0)"/>
    <use xlink:href="#DejaVuSans-Bold-74" transform="translate(1028.955078 0)"/>
    <use xlink:href="#DejaVuSans-Bold-79" transform="translate(1076.757812 0)"/>
    <use xlink:href="#DejaVuSans-Bold-3a" transform="translate(1141.943359 0)"/>
    <use xlink:href="#DejaVuSans-Bold-20" transform="translate(1181.933594 0)"/>
    <use xlink:href="#DejaVuSans-Bold-42" transform="translate(1216.748047 0)"/>
    <use xlink:href="#DejaVuSans-Bold-61" transform="translate(1292.96875 0)"/>
    <use xlink:href="#DejaVuSans-Bold-73" transform="translate(1360.449219 0)"/>
    <use xlink:href="#DejaVuSans-Bold-65" transform="translate(1419.970703 0)"/>
    <use xlink:href="#DejaVuSans-Bold-6c" transform="translate(1487.792969 0)"/>
    <use xlink:href="#DejaVuSans-Bold-69" transform="translate(1522.070312 0)"/>
    <use xlink:href="#DejaVuSans-Bold-6e" transform="translate(1556.347656 0)"/>
    <use xlink:href="#DejaVuSans-Bold-65" transform="translate(1627.539062 0)"/>
    <use xlink:href="#DejaVuSans-Bold-20" transform="translate(1695.361328 0)"/>
    <use xlink:href="#DejaVuSans-Bold-76" transform="translate(1730.175781 0)"/>
    <use xlink:href="#DejaVuSans-Bold-73" transform="translate(1795.361328 0)"/>
    <use xlink:href="#DejaVuSans-Bold-2e" transform="translate(1854.882812 0)"/>
    <use xlink:href="#DejaVuSans-Bold-20" transform="translate(1892.871094 0)"/>
    <use xlink:href="#DejaVuSans-Bold-2b" transform="translate(1927.685547 0)"/>
    <use xlink:href="#DejaVuSans-Bold-32" transform="translate(2011.474609 0)"/>
    <use xlink:href="#DejaVuSans-Bold-30" transform="translate(2081.054688 0)"/>
    <use xlink:href="#DejaVuSans-Bold-25" transform="translate(2150.634766 0)"/>
    <use xlink:href="#DejaVuSans-Bold-20" transform="translate(2250.830078 0)"/>
    <use xlink:href="#DejaVuSans-Bold-57" transform="translate(2285.644531 0)"/>
    <use xlink:href="#DejaVuSans-Bold-69" transform="translate(2395.947266 0)"/>
    <use xlink:href="#DejaVuSans-Bold-6e" transform="translate(2430.224609 0)"/>
    <use xlink:href="#DejaVuSans-Bold-64" transform="translate(2501.416016 0)"/>
    <use xlink:href="#DejaVuSans-Bold-20" transform="translate(2572.998047 0)"/>
    <use xlink:href="#DejaVuSans-Bold-26" transform="translate(2607.8125 0)"/>
    <use xlink:href="#DejaVuSans-Bold-20" transform="translate(2695.019531 0)"/>
    <use xlink:href="#DejaVuSans-Bold-2b" transform="translate(2729.833984 0)"/>
    <use xlink:href="#DejaVuSans-Bold-31" transform="translate(2813.623047 0)"/>
    <use xlink:href="#DejaVuSans-Bold-30" transform="translate(2883.203125 0)"/>
    <use xlink:href="#DejaVuSans-Bold-30" transform="translate(2952.783203 0)"/>
    <use xlink:href="#DejaVuSans-Bold-25" transform="translate(3022.363281 0)"/>
    <use xlink:href="#DejaVuSans-Bold-20" transform="translate(3122.558594 0)"/>
    <use xlink:href="#DejaVuSans-Bold-42" transform="translate(3157.373047 0)"/>
    <use xlink:href="#DejaVuSans-Bold-45" transform="translate(3233.59375 0)"/>
    <use xlink:href="#DejaVuSans-Bold-53" transform="translate(3301.904297 0)"/>
    <use xlink:href="#DejaVuSans-Bold-53" transform="translate(3369.425781 0)"/>
    <use xlink:href="#DejaVuSans-Bold-20" transform="translate(3441.447266 0)"/>
    <use xlink:href="#DejaVuSans-Bold-43" transform="translate(3476.261719 0)"/>
    <use xlink:href="#DejaVuSans-Bold-6f" transform="translate(3549.650391 0)"/>
    <use xlink:href="#DejaVuSans-Bold-73" transform="translate(3618.351562 0)"/>
    <use xlink:href="#DejaVuSans-Bold-74" transform="translate(3677.873047 0)"/>
    <use xlink:href="#DejaVuSans-Bold-73" transform="translate(3725.675781 0)"/>
   </g>
  </g>
 </g>
 <defs>
  <clipPath id="p3ef1a13386">
   <rect x="47.933438" y="73.26" width="311.337574" height="329.5"/>
  </clipPath>
  <clipPath id="p03c2581eac">
   <rect x="489.291746" y="73.26" width="311.337574" height="329.5"/>
  </clipPath>
  <clipPath id="pa5052a29dc">
   <rect x="930.650055" y="73.26" width="207.558382" height="329.5"/>
  </clipPath>
 </defs>
</svg>
