<?xml version="1.0" encoding="utf-8" standalone="no"?>
<!DOCTYPE svg PUBLIC "-//W3C//DTD SVG 1.1//EN"
  "http://www.w3.org/Graphics/SVG/1.1/DTD/svg11.dtd">
<svg xmlns:xlink="http://www.w3.org/1999/xlink" width="710.534718pt" height="568.58pt" viewBox="0 0 710.534718 568.58" xmlns="http://www.w3.org/2000/svg" version="1.1">
 <metadata>
  <rdf:RDF xmlns:dc="http://purl.org/dc/elements/1.1/" xmlns:cc="http://creativecommons.org/ns#" xmlns:rdf="http://www.w3.org/1999/02/22-rdf-syntax-ns#">
   <cc:Work>
    <dc:type rdf:resource="http://purl.org/dc/dcmitype/StillImage"/>
    <dc:date>2026-04-14T13:28:29.844576</dc:date>
    <dc:format>image/svg+xml</dc:format>
    <dc:creator>
     <cc:Agent>
      <dc:title>Matplotlib v3.10.8, https://matplotlib.org/</dc:title>
     </cc:Agent>
    </dc:creator>
   </cc:Work>
  </rdf:RDF>
 </metadata>
 <defs>
  <style type="text/css">*{stroke-linejoin: round; stroke-linecap: butt}</style>
 </defs>
 <g id="figure_1">
  <g id="patch_1">
   <path d="M 0 568.58 
L 710.534718 568.58 
L 710.534718 0 
L 0 0 
z
" style="fill: #ffffff"/>
  </g>
  <g id="axes_1">
   <g id="patch_2">
    <path d="M 42.6325 528.994375 
L 614.653868 528.994375 
L 614.653868 55.394375 
L 42.6325 55.394375 
z
" style="fill: #ffffff"/>
   </g>
   <g id="TriContourSet_1">
    <path d="M 42.6325 315.874375 
L 71.233568 327.714375 
L 85.534103 333.634375 
L 99.834637 339.554375 
L 128.435705 351.394375 
L 142.736239 357.314375 
L 157.036774 363.234375 
L 185.637842 375.074375 
L 199.938376 380.994375 
L 214.23891 386.914375 
L 228.539445 392.834375 
L 242.839979 398.754375 
L 271.441047 410.594375 
L 300.042116 422.434375 
L 300.042116 434.274375 
L 328.643184 446.114375 
L 342.943718 452.034375 
L 357.244252 457.954375 
L 385.845321 469.794375 
L 414.446389 481.634375 
L 414.446389 493.474375 
L 414.446389 505.314375 
L 414.446389 517.154375 
L 414.446389 528.994375 
L 443.047458 528.994375 
L 471.648526 528.994375 
L 471.648526 517.154375 
L 471.648526 505.314375 
L 471.648526 493.474375 
L 328.643184 422.434375 
L 300.042116 410.594375 
L 271.441047 398.754375 
L 242.839979 386.914375 
L 214.23891 375.074375 
L 185.637842 363.234375 
L 157.036774 351.394375 
L 128.435705 339.554375 
L 99.834637 327.714375 
L 71.233568 315.874375 
L 42.6325 304.034375 
z
" clip-path="url(#pa8cabddca5)" style="fill: #eaf3fb; fill-opacity: 0.9"/>
    <path d="M 42.6325 327.714375 
L 71.233568 339.554375 
L 99.834637 351.394375 
L 128.435705 363.234375 
L 157.036774 375.074375 
L 185.637842 386.914375 
L 214.23891 398.754375 
L 228.539445 404.674375 
L 242.839979 410.594375 
L 257.140513 416.514375 
L 271.441047 422.434375 
L 271.441047 434.274375 
L 285.741581 440.194375 
L 300.042116 446.114375 
L 314.34265 452.034375 
L 328.643184 457.954375 
L 357.244252 469.794375 
L 357.244252 481.634375 
L 357.244252 493.474375 
L 357.244252 505.314375 
L 357.244252 517.154375 
L 357.244252 528.994375 
L 385.845321 528.994375 
L 414.446389 528.994375 
L 414.446389 517.154375 
L 414.446389 505.314375 
L 414.446389 493.474375 
L 414.446389 481.634375 
L 385.845321 469.794375 
L 357.244252 457.954375 
L 342.943718 452.034375 
L 328.643184 446.114375 
L 300.042116 434.274375 
L 300.042116 422.434375 
L 271.441047 410.594375 
L 242.839979 398.754375 
L 228.539445 392.834375 
L 214.23891 386.914375 
L 199.938376 380.994375 
L 185.637842 375.074375 
L 157.036774 363.234375 
L 142.736239 357.314375 
L 128.435705 351.394375 
L 99.834637 339.554375 
L 85.534103 333.634375 
L 71.233568 327.714375 
L 42.6325 315.874375 
z
" clip-path="url(#pa8cabddca5)" style="fill: #d2e3f3; fill-opacity: 0.9"/>
    <path d="M 42.6325 339.554375 
L 56.933034 345.474375 
L 71.233568 351.394375 
L 85.534103 357.314375 
L 99.834637 363.234375 
L 114.135171 369.154375 
L 128.435705 375.074375 
L 142.736239 380.994375 
L 157.036774 386.914375 
L 171.337308 392.834375 
L 185.637842 398.754375 
L 199.938376 404.674375 
L 214.23891 410.594375 
L 228.539445 416.514375 
L 242.839979 422.434375 
L 242.839979 434.274375 
L 271.441047 446.114375 
L 300.042116 457.954375 
L 300.042116 469.794375 
L 328.643184 469.794375 
L 328.643184 481.634375 
L 328.643184 493.474375 
L 328.643184 505.314375 
L 328.643184 517.154375 
L 328.643184 528.994375 
L 357.244252 528.994375 
L 357.244252 517.154375 
L 357.244252 505.314375 
L 357.244252 493.474375 
L 357.244252 481.634375 
L 357.244252 469.794375 
L 328.643184 457.954375 
L 314.34265 452.034375 
L 300.042116 446.114375 
L 285.741581 440.194375 
L 271.441047 434.274375 
L 271.441047 422.434375 
L 257.140513 416.514375 
L 242.839979 410.594375 
L 228.539445 404.674375 
L 214.23891 398.754375 
L 185.637842 386.914375 
L 157.036774 375.074375 
L 128.435705 363.234375 
L 99.834637 351.394375 
L 71.233568 339.554375 
L 42.6325 327.714375 
z
" clip-path="url(#pa8cabddca5)" style="fill: #b2d2e8; fill-opacity: 0.9"/>
    <path d="M 42.6325 351.394375 
L 71.233568 363.234375 
L 99.834637 375.074375 
L 128.435705 386.914375 
L 157.036774 398.754375 
L 171.337308 404.674375 
L 185.637842 410.594375 
L 214.23891 422.434375 
L 214.23891 434.274375 
L 242.839979 446.114375 
L 242.839979 457.954375 
L 271.441047 457.954375 
L 271.441047 469.794375 
L 271.441047 481.634375 
L 271.441047 493.474375 
L 271.441047 505.314375 
L 271.441047 517.154375 
L 271.441047 528.994375 
L 300.042116 528.994375 
L 328.643184 528.994375 
L 328.643184 517.154375 
L 328.643184 505.314375 
L 328.643184 493.474375 
L 328.643184 481.634375 
L 328.643184 469.794375 
L 300.042116 469.794375 
L 300.042116 457.954375 
L 271.441047 446.114375 
L 242.839979 434.274375 
L 242.839979 422.434375 
L 228.539445 416.514375 
L 214.23891 410.594375 
L 199.938376 404.674375 
L 185.637842 398.754375 
L 171.337308 392.834375 
L 157.036774 386.914375 
L 142.736239 380.994375 
L 128.435705 375.074375 
L 114.135171 369.154375 
L 99.834637 363.234375 
L 85.534103 357.314375 
L 71.233568 351.394375 
L 56.933034 345.474375 
L 42.6325 339.554375 
z
" clip-path="url(#pa8cabddca5)" style="fill: #84bcdb; fill-opacity: 0.9"/>
    <path d="M 42.6325 363.234375 
L 56.933034 369.154375 
L 71.233568 375.074375 
L 99.834637 386.914375 
L 114.135171 392.834375 
L 128.435705 398.754375 
L 157.036774 410.594375 
L 157.036774 422.434375 
L 157.036774 434.274375 
L 185.637842 434.274375 
L 185.637842 446.114375 
L 214.23891 446.114375 
L 214.23891 457.954375 
L 214.23891 469.794375 
L 214.23891 481.634375 
L 214.23891 493.474375 
L 214.23891 505.314375 
L 214.23891 517.154375 
L 214.23891 528.994375 
L 242.839979 528.994375 
L 271.441047 528.994375 
L 271.441047 517.154375 
L 271.441047 505.314375 
L 271.441047 493.474375 
L 271.441047 481.634375 
L 271.441047 469.794375 
L 271.441047 457.954375 
L 242.839979 457.954375 
L 242.839979 446.114375 
L 214.23891 434.274375 
L 214.23891 422.434375 
L 185.637842 410.594375 
L 171.337308 404.674375 
L 157.036774 398.754375 
L 128.435705 386.914375 
L 99.834637 375.074375 
L 71.233568 363.234375 
L 42.6325 351.394375 
z
" clip-path="url(#pa8cabddca5)" style="fill: #56a0ce; fill-opacity: 0.9"/>
    <path d="M 42.6325 375.074375 
L 71.233568 386.914375 
L 71.233568 398.754375 
L 99.834637 398.754375 
L 99.834637 410.594375 
L 128.435705 410.594375 
L 128.435705 422.434375 
L 128.435705 434.274375 
L 128.435705 446.114375 
L 128.435705 457.954375 
L 128.435705 469.794375 
L 128.435705 481.634375 
L 128.435705 493.474375 
L 128.435705 505.314375 
L 128.435705 517.154375 
L 128.435705 528.994375 
L 157.036774 528.994375 
L 185.637842 528.994375 
L 214.23891 528.994375 
L 214.23891 517.154375 
L 214.23891 505.314375 
L 214.23891 493.474375 
L 214.23891 481.634375 
L 214.23891 469.794375 
L 214.23891 457.954375 
L 214.23891 446.114375 
L 185.637842 446.114375 
L 185.637842 434.274375 
L 157.036774 434.274375 
L 157.036774 422.434375 
L 157.036774 410.594375 
L 128.435705 398.754375 
L 114.135171 392.834375 
L 99.834637 386.914375 
L 71.233568 375.074375 
L 56.933034 369.154375 
L 42.6325 363.234375 
z
" clip-path="url(#pa8cabddca5)" style="fill: #3181bd; fill-opacity: 0.9"/>
    <path d="M 42.6325 386.914375 
L 56.933034 392.834375 
L 56.933034 398.754375 
L 56.933034 404.674375 
L 56.933034 410.594375 
L 56.933034 416.514375 
L 56.933034 422.434375 
L 56.933034 428.354375 
L 56.933034 434.274375 
L 56.933034 440.194375 
L 56.933034 446.114375 
L 56.933034 452.034375 
L 56.933034 457.954375 
L 56.933034 463.874375 
L 56.933034 469.794375 
L 56.933034 475.714375 
L 56.933034 481.634375 
L 56.933034 487.554375 
L 56.933034 493.474375 
L 56.933034 499.394375 
L 56.933034 505.314375 
L 56.933034 511.234375 
L 56.933034 517.154375 
L 56.933034 523.074375 
L 56.933034 528.994375 
L 71.233568 528.994375 
L 99.834637 528.994375 
L 128.435705 528.994375 
L 128.435705 517.154375 
L 128.435705 505.314375 
L 128.435705 493.474375 
L 128.435705 481.634375 
L 128.435705 469.794375 
L 128.435705 457.954375 
L 128.435705 446.114375 
L 128.435705 434.274375 
L 128.435705 422.434375 
L 128.435705 410.594375 
L 99.834637 410.594375 
L 99.834637 398.754375 
L 71.233568 398.754375 
L 71.233568 386.914375 
L 42.6325 375.074375 
z
" clip-path="url(#pa8cabddca5)" style="fill: #1460a8; fill-opacity: 0.9"/>
    <path d="M 42.6325 398.754375 
L 42.6325 410.594375 
L 42.6325 422.434375 
L 42.6325 434.274375 
L 42.6325 446.114375 
L 42.6325 457.954375 
L 42.6325 469.794375 
L 42.6325 481.634375 
L 42.6325 493.474375 
L 42.6325 505.314375 
L 42.6325 517.154375 
L 42.6325 528.994375 
L 56.933034 528.994375 
L 56.933034 523.074375 
L 56.933034 517.154375 
L 56.933034 511.234375 
L 56.933034 505.314375 
L 56.933034 499.394375 
L 56.933034 493.474375 
L 56.933034 487.554375 
L 56.933034 481.634375 
L 56.933034 475.714375 
L 56.933034 469.794375 
L 56.933034 463.874375 
L 56.933034 457.954375 
L 56.933034 452.034375 
L 56.933034 446.114375 
L 56.933034 440.194375 
L 56.933034 434.274375 
L 56.933034 428.354375 
L 56.933034 422.434375 
L 56.933034 416.514375 
L 56.933034 410.594375 
L 56.933034 404.674375 
L 56.933034 398.754375 
L 56.933034 392.834375 
L 42.6325 386.914375 
z
" clip-path="url(#pa8cabddca5)" style="fill: #084082; fill-opacity: 0.9"/>
   </g>
   <g id="matplotlib.axis_1">
    <g id="xtick_1">
     <g id="line2d_1">
      <defs>
       <path id="m5de22bdd9b" d="M 0 0 
L 0 3.5 
" style="stroke: #000000; stroke-width: 0.8"/>
      </defs>
      <g>
       <use xlink:href="#m5de22bdd9b" x="42.6325" y="528.994375" style="stroke: #000000; stroke-width: 0.8"/>
      </g>
     </g>
     <g id="text_1">
      <!-- 0.0 -->
      <g transform="translate(34.680938 543.592813) scale(0.1 -0.1)">
       <defs>
        <path id="DejaVuSans-30" d="M 2034 4250 
Q 1547 4250 1301 3770 
Q 1056 3291 1056 2328 
Q 1056 1369 1301 889 
Q 1547 409 2034 409 
Q 2525 409 2770 889 
Q 3016 1369 3016 2328 
Q 3016 3291 2770 3770 
Q 2525 4250 2034 4250 
z
M 2034 4750 
Q 2819 4750 3233 4129 
Q 3647 3509 3647 2328 
Q 3647 1150 3233 529 
Q 2819 -91 2034 -91 
Q 1250 -91 836 529 
Q 422 1150 422 2328 
Q 422 3509 836 4129 
Q 1250 4750 2034 4750 
z
" transform="scale(0.015625)"/>
        <path id="DejaVuSans-2e" d="M 684 794 
L 1344 794 
L 1344 0 
L 684 0 
L 684 794 
z
" transform="scale(0.015625)"/>
       </defs>
       <use xlink:href="#DejaVuSans-30"/>
       <use xlink:href="#DejaVuSans-2e" transform="translate(63.623047 0)"/>
       <use xlink:href="#DejaVuSans-30" transform="translate(95.410156 0)"/>
      </g>
     </g>
    </g>
    <g id="xtick_2">
     <g id="line2d_2">
      <g>
       <use xlink:href="#m5de22bdd9b" x="114.135171" y="528.994375" style="stroke: #000000; stroke-width: 0.8"/>
      </g>
     </g>
     <g id="text_2">
      <!-- 2.5 -->
      <g transform="translate(106.183608 543.592813) scale(0.1 -0.1)">
       <defs>
        <path id="DejaVuSans-32" d="M 1228 531 
L 3431 531 
L 3431 0 
L 469 0 
L 469 531 
Q 828 903 1448 1529 
Q 2069 2156 2228 2338 
Q 2531 2678 2651 2914 
Q 2772 3150 2772 3378 
Q 2772 3750 2511 3984 
Q 2250 4219 1831 4219 
Q 1534 4219 1204 4116 
Q 875 4013 500 3803 
L 500 4441 
Q 881 4594 1212 4672 
Q 1544 4750 1819 4750 
Q 2544 4750 2975 4387 
Q 3406 4025 3406 3419 
Q 3406 3131 3298 2873 
Q 3191 2616 2906 2266 
Q 2828 2175 2409 1742 
Q 1991 1309 1228 531 
z
" transform="scale(0.015625)"/>
        <path id="DejaVuSans-35" d="M 691 4666 
L 3169 4666 
L 3169 4134 
L 1269 4134 
L 1269 2991 
Q 1406 3038 1543 3061 
Q 1681 3084 1819 3084 
Q 2600 3084 3056 2656 
Q 3513 2228 3513 1497 
Q 3513 744 3044 326 
Q 2575 -91 1722 -91 
Q 1428 -91 1123 -41 
Q 819 9 494 109 
L 494 744 
Q 775 591 1075 516 
Q 1375 441 1709 441 
Q 2250 441 2565 725 
Q 2881 1009 2881 1497 
Q 2881 1984 2565 2268 
Q 2250 2553 1709 2553 
Q 1456 2553 1204 2497 
Q 953 2441 691 2322 
L 691 4666 
z
" transform="scale(0.015625)"/>
       </defs>
       <use xlink:href="#DejaVuSans-32"/>
       <use xlink:href="#DejaVuSans-2e" transform="translate(63.623047 0)"/>
       <use xlink:href="#DejaVuSans-35" transform="translate(95.410156 0)"/>
      </g>
     </g>
    </g>
    <g id="xtick_3">
     <g id="line2d_3">
      <g>
       <use xlink:href="#m5de22bdd9b" x="185.637842" y="528.994375" style="stroke: #000000; stroke-width: 0.8"/>
      </g>
     </g>
     <g id="text_3">
      <!-- 5.0 -->
      <g transform="translate(177.686279 543.592813) scale(0.1 -0.1)">
       <use xlink:href="#DejaVuSans-35"/>
       <use xlink:href="#DejaVuSans-2e" transform="translate(63.623047 0)"/>
       <use xlink:href="#DejaVuSans-30" transform="translate(95.410156 0)"/>
      </g>
     </g>
    </g>
    <g id="xtick_4">
     <g id="line2d_4">
      <g>
       <use xlink:href="#m5de22bdd9b" x="257.140513" y="528.994375" style="stroke: #000000; stroke-width: 0.8"/>
      </g>
     </g>
     <g id="text_4">
      <!-- 7.5 -->
      <g transform="translate(249.18895 543.592813) scale(0.1 -0.1)">
       <defs>
        <path id="DejaVuSans-37" d="M 525 4666 
L 3525 4666 
L 3525 4397 
L 1831 0 
L 1172 0 
L 2766 4134 
L 525 4134 
L 525 4666 
z
" transform="scale(0.015625)"/>
       </defs>
       <use xlink:href="#DejaVuSans-37"/>
       <use xlink:href="#DejaVuSans-2e" transform="translate(63.623047 0)"/>
       <use xlink:href="#DejaVuSans-35" transform="translate(95.410156 0)"/>
      </g>
     </g>
    </g>
    <g id="xtick_5">
     <g id="line2d_5">
      <g>
       <use xlink:href="#m5de22bdd9b" x="328.643184" y="528.994375" style="stroke: #000000; stroke-width: 0.8"/>
      </g>
     </g>
     <g id="text_5">
      <!-- 10.0 -->
      <g transform="translate(317.510371 543.592813) scale(0.1 -0.1)">
       <defs>
        <path id="DejaVuSans-31" d="M 794 531 
L 1825 531 
L 1825 4091 
L 703 3866 
L 703 4441 
L 1819 4666 
L 2450 4666 
L 2450 531 
L 3481 531 
L 3481 0 
L 794 0 
L 794 531 
z
" transform="scale(0.015625)"/>
       </defs>
       <use xlink:href="#DejaVuSans-31"/>
       <use xlink:href="#DejaVuSans-30" transform="translate(63.623047 0)"/>
       <use xlink:href="#DejaVuSans-2e" transform="translate(127.246094 0)"/>
       <use xlink:href="#DejaVuSans-30" transform="translate(159.033203 0)"/>
      </g>
     </g>
    </g>
    <g id="xtick_6">
     <g id="line2d_6">
      <g>
       <use xlink:href="#m5de22bdd9b" x="400.145855" y="528.994375" style="stroke: #000000; stroke-width: 0.8"/>
      </g>
     </g>
     <g id="text_6">
      <!-- 12.5 -->
      <g transform="translate(389.013042 543.592813) scale(0.1 -0.1)">
       <use xlink:href="#DejaVuSans-31"/>
       <use xlink:href="#DejaVuSans-32" transform="translate(63.623047 0)"/>
       <use xlink:href="#DejaVuSans-2e" transform="translate(127.246094 0)"/>
       <use xlink:href="#DejaVuSans-35" transform="translate(159.033203 0)"/>
      </g>
     </g>
    </g>
    <g id="xtick_7">
     <g id="line2d_7">
      <g>
       <use xlink:href="#m5de22bdd9b" x="471.648526" y="528.994375" style="stroke: #000000; stroke-width: 0.8"/>
      </g>
     </g>
     <g id="text_7">
      <!-- 15.0 -->
      <g transform="translate(460.515713 543.592813) scale(0.1 -0.1)">
       <use xlink:href="#DejaVuSans-31"/>
       <use xlink:href="#DejaVuSans-35" transform="translate(63.623047 0)"/>
       <use xlink:href="#DejaVuSans-2e" transform="translate(127.246094 0)"/>
       <use xlink:href="#DejaVuSans-30" transform="translate(159.033203 0)"/>
      </g>
     </g>
    </g>
    <g id="xtick_8">
     <g id="line2d_8">
      <g>
       <use xlink:href="#m5de22bdd9b" x="543.151197" y="528.994375" style="stroke: #000000; stroke-width: 0.8"/>
      </g>
     </g>
     <g id="text_8">
      <!-- 17.5 -->
      <g transform="translate(532.018384 543.592813) scale(0.1 -0.1)">
       <use xlink:href="#DejaVuSans-31"/>
       <use xlink:href="#DejaVuSans-37" transform="translate(63.623047 0)"/>
       <use xlink:href="#DejaVuSans-2e" transform="translate(127.246094 0)"/>
       <use xlink:href="#DejaVuSans-35" transform="translate(159.033203 0)"/>
      </g>
     </g>
    </g>
    <g id="xtick_9">
     <g id="line2d_9">
      <g>
       <use xlink:href="#m5de22bdd9b" x="614.653868" y="528.994375" style="stroke: #000000; stroke-width: 0.8"/>
      </g>
     </g>
     <g id="text_9">
      <!-- 20.0 -->
      <g transform="translate(603.521055 543.592813) scale(0.1 -0.1)">
       <use xlink:href="#DejaVuSans-32"/>
       <use xlink:href="#DejaVuSans-30" transform="translate(63.623047 0)"/>
       <use xlink:href="#DejaVuSans-2e" transform="translate(127.246094 0)"/>
       <use xlink:href="#DejaVuSans-30" transform="translate(159.033203 0)"/>
      </g>
     </g>
    </g>
    <g id="text_10">
     <!-- Tier B1 Capacity [MW] -->
     <g style="fill: #595959" transform="translate(253.188496 558.790625) scale(0.12 -0.12)">
      <defs>
       <path id="DejaVuSans-Bold-54" d="M 31 4666 
L 4331 4666 
L 4331 3756 
L 2784 3756 
L 2784 0 
L 1581 0 
L 1581 3756 
L 31 3756 
L 31 4666 
z
" transform="scale(0.015625)"/>
       <path id="DejaVuSans-Bold-69" d="M 538 3500 
L 1656 3500 
L 1656 0 
L 538 0 
L 538 3500 
z
M 538 4863 
L 1656 4863 
L 1656 3950 
L 538 3950 
L 538 4863 
z
" transform="scale(0.015625)"/>
       <path id="DejaVuSans-Bold-65" d="M 4031 1759 
L 4031 1441 
L 1416 1441 
Q 1456 1047 1700 850 
Q 1944 653 2381 653 
Q 2734 653 3104 758 
Q 3475 863 3866 1075 
L 3866 213 
Q 3469 63 3072 -14 
Q 2675 -91 2278 -91 
Q 1328 -91 801 392 
Q 275 875 275 1747 
Q 275 2603 792 3093 
Q 1309 3584 2216 3584 
Q 3041 3584 3536 3087 
Q 4031 2591 4031 1759 
z
M 2881 2131 
Q 2881 2450 2695 2645 
Q 2509 2841 2209 2841 
Q 1884 2841 1681 2658 
Q 1478 2475 1428 2131 
L 2881 2131 
z
" transform="scale(0.015625)"/>
       <path id="DejaVuSans-Bold-72" d="M 3138 2547 
Q 2991 2616 2845 2648 
Q 2700 2681 2553 2681 
Q 2122 2681 1889 2404 
Q 1656 2128 1656 1613 
L 1656 0 
L 538 0 
L 538 3500 
L 1656 3500 
L 1656 2925 
Q 1872 3269 2151 3426 
Q 2431 3584 2822 3584 
Q 2878 3584 2943 3579 
Q 3009 3575 3134 3559 
L 3138 2547 
z
" transform="scale(0.015625)"/>
       <path id="DejaVuSans-Bold-20" transform="scale(0.015625)"/>
       <path id="DejaVuSans-Bold-42" d="M 2456 2859 
Q 2741 2859 2887 2984 
Q 3034 3109 3034 3353 
Q 3034 3594 2887 3720 
Q 2741 3847 2456 3847 
L 1791 3847 
L 1791 2859 
L 2456 2859 
z
M 2497 819 
Q 2859 819 3042 972 
Q 3225 1125 3225 1434 
Q 3225 1738 3044 1889 
Q 2863 2041 2497 2041 
L 1791 2041 
L 1791 819 
L 2497 819 
z
M 3616 2497 
Q 4003 2384 4215 2081 
Q 4428 1778 4428 1338 
Q 4428 663 3972 331 
Q 3516 0 2584 0 
L 588 0 
L 588 4666 
L 2394 4666 
Q 3366 4666 3802 4372 
Q 4238 4078 4238 3431 
Q 4238 3091 4078 2852 
Q 3919 2613 3616 2497 
z
" transform="scale(0.015625)"/>
       <path id="DejaVuSans-Bold-31" d="M 750 831 
L 1813 831 
L 1813 3847 
L 722 3622 
L 722 4441 
L 1806 4666 
L 2950 4666 
L 2950 831 
L 4013 831 
L 4013 0 
L 750 0 
L 750 831 
z
" transform="scale(0.015625)"/>
       <path id="DejaVuSans-Bold-43" d="M 4288 256 
Q 3956 84 3597 -3 
Q 3238 -91 2847 -91 
Q 1681 -91 1000 561 
Q 319 1213 319 2328 
Q 319 3447 1000 4098 
Q 1681 4750 2847 4750 
Q 3238 4750 3597 4662 
Q 3956 4575 4288 4403 
L 4288 3438 
Q 3953 3666 3628 3772 
Q 3303 3878 2944 3878 
Q 2300 3878 1931 3465 
Q 1563 3053 1563 2328 
Q 1563 1606 1931 1193 
Q 2300 781 2944 781 
Q 3303 781 3628 887 
Q 3953 994 4288 1222 
L 4288 256 
z
" transform="scale(0.015625)"/>
       <path id="DejaVuSans-Bold-61" d="M 2106 1575 
Q 1756 1575 1579 1456 
Q 1403 1338 1403 1106 
Q 1403 894 1545 773 
Q 1688 653 1941 653 
Q 2256 653 2472 879 
Q 2688 1106 2688 1447 
L 2688 1575 
L 2106 1575 
z
M 3816 1997 
L 3816 0 
L 2688 0 
L 2688 519 
Q 2463 200 2181 54 
Q 1900 -91 1497 -91 
Q 953 -91 614 226 
Q 275 544 275 1050 
Q 275 1666 698 1953 
Q 1122 2241 2028 2241 
L 2688 2241 
L 2688 2328 
Q 2688 2594 2478 2717 
Q 2269 2841 1825 2841 
Q 1466 2841 1156 2769 
Q 847 2697 581 2553 
L 581 3406 
Q 941 3494 1303 3539 
Q 1666 3584 2028 3584 
Q 2975 3584 3395 3211 
Q 3816 2838 3816 1997 
z
" transform="scale(0.015625)"/>
       <path id="DejaVuSans-Bold-70" d="M 1656 506 
L 1656 -1331 
L 538 -1331 
L 538 3500 
L 1656 3500 
L 1656 2988 
Q 1888 3294 2169 3439 
Q 2450 3584 2816 3584 
Q 3463 3584 3878 3070 
Q 4294 2556 4294 1747 
Q 4294 938 3878 423 
Q 3463 -91 2816 -91 
Q 2450 -91 2169 54 
Q 1888 200 1656 506 
z
M 2400 2772 
Q 2041 2772 1848 2508 
Q 1656 2244 1656 1747 
Q 1656 1250 1848 986 
Q 2041 722 2400 722 
Q 2759 722 2948 984 
Q 3138 1247 3138 1747 
Q 3138 2247 2948 2509 
Q 2759 2772 2400 2772 
z
" transform="scale(0.015625)"/>
       <path id="DejaVuSans-Bold-63" d="M 3366 3391 
L 3366 2478 
Q 3138 2634 2908 2709 
Q 2678 2784 2431 2784 
Q 1963 2784 1702 2511 
Q 1441 2238 1441 1747 
Q 1441 1256 1702 982 
Q 1963 709 2431 709 
Q 2694 709 2930 787 
Q 3166 866 3366 1019 
L 3366 103 
Q 3103 6 2833 -42 
Q 2563 -91 2291 -91 
Q 1344 -91 809 395 
Q 275 881 275 1747 
Q 275 2613 809 3098 
Q 1344 3584 2291 3584 
Q 2566 3584 2833 3536 
Q 3100 3488 3366 3391 
z
" transform="scale(0.015625)"/>
       <path id="DejaVuSans-Bold-74" d="M 1759 4494 
L 1759 3500 
L 2913 3500 
L 2913 2700 
L 1759 2700 
L 1759 1216 
Q 1759 972 1856 886 
Q 1953 800 2241 800 
L 2816 800 
L 2816 0 
L 1856 0 
Q 1194 0 917 276 
Q 641 553 641 1216 
L 641 2700 
L 84 2700 
L 84 3500 
L 641 3500 
L 641 4494 
L 1759 4494 
z
" transform="scale(0.015625)"/>
       <path id="DejaVuSans-Bold-79" d="M 78 3500 
L 1197 3500 
L 2138 1125 
L 2938 3500 
L 4056 3500 
L 2584 -331 
Q 2363 -916 2067 -1148 
Q 1772 -1381 1288 -1381 
L 641 -1381 
L 641 -647 
L 991 -647 
Q 1275 -647 1404 -556 
Q 1534 -466 1606 -231 
L 1638 -134 
L 78 3500 
z
" transform="scale(0.015625)"/>
       <path id="DejaVuSans-Bold-5b" d="M 550 4863 
L 2491 4863 
L 2491 4159 
L 1613 4159 
L 1613 -141 
L 2491 -141 
L 2491 -844 
L 550 -844 
L 550 4863 
z
" transform="scale(0.015625)"/>
       <path id="DejaVuSans-Bold-4d" d="M 588 4666 
L 2119 4666 
L 3181 2169 
L 4250 4666 
L 5778 4666 
L 5778 0 
L 4641 0 
L 4641 3413 
L 3566 897 
L 2803 897 
L 1728 3413 
L 1728 0 
L 588 0 
L 588 4666 
z
" transform="scale(0.015625)"/>
       <path id="DejaVuSans-Bold-57" d="M 191 4666 
L 1344 4666 
L 2150 1275 
L 2950 4666 
L 4109 4666 
L 4909 1275 
L 5716 4666 
L 6859 4666 
L 5759 0 
L 4372 0 
L 3525 3547 
L 2688 0 
L 1300 0 
L 191 4666 
z
" transform="scale(0.015625)"/>
       <path id="DejaVuSans-Bold-5d" d="M 2375 -844 
L 434 -844 
L 434 -141 
L 1313 -141 
L 1313 4159 
L 434 4159 
L 434 4863 
L 2375 4863 
L 2375 -844 
z
" transform="scale(0.015625)"/>
      </defs>
      <use xlink:href="#DejaVuSans-Bold-54"/>
      <use xlink:href="#DejaVuSans-Bold-69" transform="translate(68.212891 0)"/>
      <use xlink:href="#DejaVuSans-Bold-65" transform="translate(102.490234 0)"/>
      <use xlink:href="#DejaVuSans-Bold-72" transform="translate(170.3125 0)"/>
      <use xlink:href="#DejaVuSans-Bold-20" transform="translate(219.628906 0)"/>
      <use xlink:href="#DejaVuSans-Bold-42" transform="translate(254.443359 0)"/>
      <use xlink:href="#DejaVuSans-Bold-31" transform="translate(330.664062 0)"/>
      <use xlink:href="#DejaVuSans-Bold-20" transform="translate(400.244141 0)"/>
      <use xlink:href="#DejaVuSans-Bold-43" transform="translate(435.058594 0)"/>
      <use xlink:href="#DejaVuSans-Bold-61" transform="translate(508.447266 0)"/>
      <use xlink:href="#DejaVuSans-Bold-70" transform="translate(575.927734 0)"/>
      <use xlink:href="#DejaVuSans-Bold-61" transform="translate(647.509766 0)"/>
      <use xlink:href="#DejaVuSans-Bold-63" transform="translate(714.990234 0)"/>
      <use xlink:href="#DejaVuSans-Bold-69" transform="translate(774.267578 0)"/>
      <use xlink:href="#DejaVuSans-Bold-74" transform="translate(808.544922 0)"/>
      <use xlink:href="#DejaVuSans-Bold-79" transform="translate(856.347656 0)"/>
      <use xlink:href="#DejaVuSans-Bold-20" transform="translate(921.533203 0)"/>
      <use xlink:href="#DejaVuSans-Bold-5b" transform="translate(956.347656 0)"/>
      <use xlink:href="#DejaVuSans-Bold-4d" transform="translate(1002.050781 0)"/>
      <use xlink:href="#DejaVuSans-Bold-57" transform="translate(1101.5625 0)"/>
      <use xlink:href="#DejaVuSans-Bold-5d" transform="translate(1211.865234 0)"/>
     </g>
    </g>
   </g>
   <g id="matplotlib.axis_2">
    <g id="ytick_1">
     <g id="line2d_10">
      <defs>
       <path id="m4ccb9fcf62" d="M 0 0 
L -3.5 0 
" style="stroke: #000000; stroke-width: 0.8"/>
      </defs>
      <g>
       <use xlink:href="#m4ccb9fcf62" x="42.6325" y="528.994375" style="stroke: #000000; stroke-width: 0.8"/>
      </g>
     </g>
     <g id="text_11">
      <!-- 0 -->
      <g transform="translate(29.27 532.793594) scale(0.1 -0.1)">
       <use xlink:href="#DejaVuSans-30"/>
      </g>
     </g>
    </g>
    <g id="ytick_2">
     <g id="line2d_11">
      <g>
       <use xlink:href="#m4ccb9fcf62" x="42.6325" y="469.794375" style="stroke: #000000; stroke-width: 0.8"/>
      </g>
     </g>
     <g id="text_12">
      <!-- 5 -->
      <g transform="translate(29.27 473.593594) scale(0.1 -0.1)">
       <use xlink:href="#DejaVuSans-35"/>
      </g>
     </g>
    </g>
    <g id="ytick_3">
     <g id="line2d_12">
      <g>
       <use xlink:href="#m4ccb9fcf62" x="42.6325" y="410.594375" style="stroke: #000000; stroke-width: 0.8"/>
      </g>
     </g>
     <g id="text_13">
      <!-- 10 -->
      <g transform="translate(22.9075 414.393594) scale(0.1 -0.1)">
       <use xlink:href="#DejaVuSans-31"/>
       <use xlink:href="#DejaVuSans-30" transform="translate(63.623047 0)"/>
      </g>
     </g>
    </g>
    <g id="ytick_4">
     <g id="line2d_13">
      <g>
       <use xlink:href="#m4ccb9fcf62" x="42.6325" y="351.394375" style="stroke: #000000; stroke-width: 0.8"/>
      </g>
     </g>
     <g id="text_14">
      <!-- 15 -->
      <g transform="translate(22.9075 355.193594) scale(0.1 -0.1)">
       <use xlink:href="#DejaVuSans-31"/>
       <use xlink:href="#DejaVuSans-35" transform="translate(63.623047 0)"/>
      </g>
     </g>
    </g>
    <g id="ytick_5">
     <g id="line2d_14">
      <g>
       <use xlink:href="#m4ccb9fcf62" x="42.6325" y="292.194375" style="stroke: #000000; stroke-width: 0.8"/>
      </g>
     </g>
     <g id="text_15">
      <!-- 20 -->
      <g transform="translate(22.9075 295.993594) scale(0.1 -0.1)">
       <use xlink:href="#DejaVuSans-32"/>
       <use xlink:href="#DejaVuSans-30" transform="translate(63.623047 0)"/>
      </g>
     </g>
    </g>
    <g id="ytick_6">
     <g id="line2d_15">
      <g>
       <use xlink:href="#m4ccb9fcf62" x="42.6325" y="232.994375" style="stroke: #000000; stroke-width: 0.8"/>
      </g>
     </g>
     <g id="text_16">
      <!-- 25 -->
      <g transform="translate(22.9075 236.793594) scale(0.1 -0.1)">
       <use xlink:href="#DejaVuSans-32"/>
       <use xlink:href="#DejaVuSans-35" transform="translate(63.623047 0)"/>
      </g>
     </g>
    </g>
    <g id="ytick_7">
     <g id="line2d_16">
      <g>
       <use xlink:href="#m4ccb9fcf62" x="42.6325" y="173.794375" style="stroke: #000000; stroke-width: 0.8"/>
      </g>
     </g>
     <g id="text_17">
      <!-- 30 -->
      <g transform="translate(22.9075 177.593594) scale(0.1 -0.1)">
       <defs>
        <path id="DejaVuSans-33" d="M 2597 2516 
Q 3050 2419 3304 2112 
Q 3559 1806 3559 1356 
Q 3559 666 3084 287 
Q 2609 -91 1734 -91 
Q 1441 -91 1130 -33 
Q 819 25 488 141 
L 488 750 
Q 750 597 1062 519 
Q 1375 441 1716 441 
Q 2309 441 2620 675 
Q 2931 909 2931 1356 
Q 2931 1769 2642 2001 
Q 2353 2234 1838 2234 
L 1294 2234 
L 1294 2753 
L 1863 2753 
Q 2328 2753 2575 2939 
Q 2822 3125 2822 3475 
Q 2822 3834 2567 4026 
Q 2313 4219 1838 4219 
Q 1578 4219 1281 4162 
Q 984 4106 628 3988 
L 628 4550 
Q 988 4650 1302 4700 
Q 1616 4750 1894 4750 
Q 2613 4750 3031 4423 
Q 3450 4097 3450 3541 
Q 3450 3153 3228 2886 
Q 3006 2619 2597 2516 
z
" transform="scale(0.015625)"/>
       </defs>
       <use xlink:href="#DejaVuSans-33"/>
       <use xlink:href="#DejaVuSans-30" transform="translate(63.623047 0)"/>
      </g>
     </g>
    </g>
    <g id="ytick_8">
     <g id="line2d_17">
      <g>
       <use xlink:href="#m4ccb9fcf62" x="42.6325" y="114.594375" style="stroke: #000000; stroke-width: 0.8"/>
      </g>
     </g>
     <g id="text_18">
      <!-- 35 -->
      <g transform="translate(22.9075 118.393594) scale(0.1 -0.1)">
       <use xlink:href="#DejaVuSans-33"/>
       <use xlink:href="#DejaVuSans-35" transform="translate(63.623047 0)"/>
      </g>
     </g>
    </g>
    <g id="ytick_9">
     <g id="line2d_18">
      <g>
       <use xlink:href="#m4ccb9fcf62" x="42.6325" y="55.394375" style="stroke: #000000; stroke-width: 0.8"/>
      </g>
     </g>
     <g id="text_19">
      <!-- 40 -->
      <g transform="translate(22.9075 59.193594) scale(0.1 -0.1)">
       <defs>
        <path id="DejaVuSans-34" d="M 2419 4116 
L 825 1625 
L 2419 1625 
L 2419 4116 
z
M 2253 4666 
L 3047 4666 
L 3047 1625 
L 3713 1625 
L 3713 1100 
L 3047 1100 
L 3047 0 
L 2419 0 
L 2419 1100 
L 313 1100 
L 313 1709 
L 2253 4666 
z
" transform="scale(0.015625)"/>
       </defs>
       <use xlink:href="#DejaVuSans-34"/>
       <use xlink:href="#DejaVuSans-30" transform="translate(63.623047 0)"/>
      </g>
     </g>
    </g>
    <g id="text_20">
     <!-- Tier B2 Capacity [MW] -->
     <g style="fill: #595959" transform="translate(16.318125 367.649062) rotate(-90) scale(0.12 -0.12)">
      <defs>
       <path id="DejaVuSans-Bold-32" d="M 1844 884 
L 3897 884 
L 3897 0 
L 506 0 
L 506 884 
L 2209 2388 
Q 2438 2594 2547 2791 
Q 2656 2988 2656 3200 
Q 2656 3528 2436 3728 
Q 2216 3928 1850 3928 
Q 1569 3928 1234 3808 
Q 900 3688 519 3450 
L 519 4475 
Q 925 4609 1322 4679 
Q 1719 4750 2100 4750 
Q 2938 4750 3402 4381 
Q 3866 4013 3866 3353 
Q 3866 2972 3669 2642 
Q 3472 2313 2841 1759 
L 1844 884 
z
" transform="scale(0.015625)"/>
      </defs>
      <use xlink:href="#DejaVuSans-Bold-54"/>
      <use xlink:href="#DejaVuSans-Bold-69" transform="translate(68.212891 0)"/>
      <use xlink:href="#DejaVuSans-Bold-65" transform="translate(102.490234 0)"/>
      <use xlink:href="#DejaVuSans-Bold-72" transform="translate(170.3125 0)"/>
      <use xlink:href="#DejaVuSans-Bold-20" transform="translate(219.628906 0)"/>
      <use xlink:href="#DejaVuSans-Bold-42" transform="translate(254.443359 0)"/>
      <use xlink:href="#DejaVuSans-Bold-32" transform="translate(330.664062 0)"/>
      <use xlink:href="#DejaVuSans-Bold-20" transform="translate(400.244141 0)"/>
      <use xlink:href="#DejaVuSans-Bold-43" transform="translate(435.058594 0)"/>
      <use xlink:href="#DejaVuSans-Bold-61" transform="translate(508.447266 0)"/>
      <use xlink:href="#DejaVuSans-Bold-70" transform="translate(575.927734 0)"/>
      <use xlink:href="#DejaVuSans-Bold-61" transform="translate(647.509766 0)"/>
      <use xlink:href="#DejaVuSans-Bold-63" transform="translate(714.990234 0)"/>
      <use xlink:href="#DejaVuSans-Bold-69" transform="translate(774.267578 0)"/>
      <use xlink:href="#DejaVuSans-Bold-74" transform="translate(808.544922 0)"/>
      <use xlink:href="#DejaVuSans-Bold-79" transform="translate(856.347656 0)"/>
      <use xlink:href="#DejaVuSans-Bold-20" transform="translate(921.533203 0)"/>
      <use xlink:href="#DejaVuSans-Bold-5b" transform="translate(956.347656 0)"/>
      <use xlink:href="#DejaVuSans-Bold-4d" transform="translate(1002.050781 0)"/>
      <use xlink:href="#DejaVuSans-Bold-57" transform="translate(1101.5625 0)"/>
      <use xlink:href="#DejaVuSans-Bold-5d" transform="translate(1211.865234 0)"/>
     </g>
    </g>
   </g>
   <g id="TriContourSet_2">
    <path clip-path="url(#pa8cabddca5)" style="fill: none; stroke: #1a6587; stroke-opacity: 0.5"/>
    <path d="M 414.446389 528.994375 
L 414.446389 517.154375 
L 414.446389 505.314375 
L 414.446389 493.474375 
L 414.446389 481.634375 
L 385.845321 469.794375 
L 357.244252 457.954375 
L 342.943718 452.034375 
L 328.643184 446.114375 
L 300.042116 434.274375 
L 300.042116 422.434375 
L 271.441047 410.594375 
L 242.839979 398.754375 
L 228.539445 392.834375 
L 214.23891 386.914375 
L 199.938376 380.994375 
L 185.637842 375.074375 
L 157.036774 363.234375 
L 142.736239 357.314375 
L 128.435705 351.394375 
L 99.834637 339.554375 
L 85.534103 333.634375 
L 71.233568 327.714375 
L 42.6325 315.874375 
" clip-path="url(#pa8cabddca5)" style="fill: none; stroke: #1a6587; stroke-opacity: 0.5"/>
    <path d="M 357.244252 528.994375 
L 357.244252 517.154375 
L 357.244252 505.314375 
L 357.244252 493.474375 
L 357.244252 481.634375 
L 357.244252 469.794375 
L 328.643184 457.954375 
L 314.34265 452.034375 
L 300.042116 446.114375 
L 285.741581 440.194375 
L 271.441047 434.274375 
L 271.441047 422.434375 
L 257.140513 416.514375 
L 242.839979 410.594375 
L 228.539445 404.674375 
L 214.23891 398.754375 
L 185.637842 386.914375 
L 157.036774 375.074375 
L 128.435705 363.234375 
L 99.834637 351.394375 
L 71.233568 339.554375 
L 42.6325 327.714375 
" clip-path="url(#pa8cabddca5)" style="fill: none; stroke: #1a6587; stroke-opacity: 0.5"/>
    <path d="M 328.643184 528.994375 
L 328.643184 517.154375 
L 328.643184 505.314375 
L 328.643184 493.474375 
L 328.643184 481.634375 
L 328.643184 469.794375 
L 300.042116 469.794375 
L 300.042116 457.954375 
L 271.441047 446.114375 
L 242.839979 434.274375 
L 242.839979 422.434375 
L 228.539445 416.514375 
L 214.23891 410.594375 
L 199.938376 404.674375 
L 185.637842 398.754375 
L 171.337308 392.834375 
L 157.036774 386.914375 
L 142.736239 380.994375 
L 128.435705 375.074375 
L 114.135171 369.154375 
L 99.834637 363.234375 
L 85.534103 357.314375 
L 71.233568 351.394375 
L 56.933034 345.474375 
L 42.6325 339.554375 
" clip-path="url(#pa8cabddca5)" style="fill: none; stroke: #1a6587; stroke-opacity: 0.5"/>
    <path d="M 271.441047 528.994375 
L 271.441047 517.154375 
L 271.441047 505.314375 
L 271.441047 493.474375 
L 271.441047 481.634375 
L 271.441047 469.794375 
L 271.441047 457.954375 
L 242.839979 457.954375 
L 242.839979 446.114375 
L 214.23891 434.274375 
L 214.23891 422.434375 
L 185.637842 410.594375 
L 171.337308 404.674375 
L 157.036774 398.754375 
L 128.435705 386.914375 
L 99.834637 375.074375 
L 71.233568 363.234375 
L 42.6325 351.394375 
" clip-path="url(#pa8cabddca5)" style="fill: none; stroke: #1a6587; stroke-opacity: 0.5"/>
    <path d="M 214.23891 528.994375 
L 214.23891 517.154375 
L 214.23891 505.314375 
L 214.23891 493.474375 
L 214.23891 481.634375 
L 214.23891 469.794375 
L 214.23891 457.954375 
L 214.23891 446.114375 
L 185.637842 446.114375 
L 185.637842 434.274375 
L 157.036774 434.274375 
L 157.036774 422.434375 
L 157.036774 410.594375 
L 128.435705 398.754375 
L 114.135171 392.834375 
L 99.834637 386.914375 
L 71.233568 375.074375 
L 56.933034 369.154375 
L 42.6325 363.234375 
" clip-path="url(#pa8cabddca5)" style="fill: none; stroke: #1a6587; stroke-opacity: 0.5"/>
    <path d="M 128.435705 528.994375 
L 128.435705 517.154375 
L 128.435705 505.314375 
L 128.435705 493.474375 
L 128.435705 481.634375 
L 128.435705 469.794375 
L 128.435705 457.954375 
L 128.435705 446.114375 
L 128.435705 434.274375 
L 128.435705 422.434375 
L 128.435705 410.594375 
L 99.834637 410.594375 
L 99.834637 398.754375 
L 71.233568 398.754375 
L 71.233568 386.914375 
L 42.6325 375.074375 
" clip-path="url(#pa8cabddca5)" style="fill: none; stroke: #1a6587; stroke-opacity: 0.5"/>
    <path d="M 56.933034 528.994375 
L 56.933034 523.074375 
L 56.933034 517.154375 
L 56.933034 511.234375 
L 56.933034 505.314375 
L 56.933034 499.394375 
L 56.933034 493.474375 
L 56.933034 487.554375 
L 56.933034 481.634375 
L 56.933034 475.714375 
L 56.933034 469.794375 
L 56.933034 463.874375 
L 56.933034 457.954375 
L 56.933034 452.034375 
L 56.933034 446.114375 
L 56.933034 440.194375 
L 56.933034 434.274375 
L 56.933034 428.354375 
L 56.933034 422.434375 
L 56.933034 416.514375 
L 56.933034 410.594375 
L 56.933034 404.674375 
L 56.933034 398.754375 
L 56.933034 392.834375 
L 42.6325 386.914375 
" clip-path="url(#pa8cabddca5)" style="fill: none; stroke: #1a6587; stroke-opacity: 0.5"/>
    <path d="M 42.6325 528.994375 
L 42.6325 517.154375 
L 42.6325 505.314375 
L 42.6325 493.474375 
L 42.6325 481.634375 
L 42.6325 469.794375 
L 42.6325 457.954375 
L 42.6325 446.114375 
L 42.6325 434.274375 
L 42.6325 422.434375 
L 42.6325 410.594375 
L 42.6325 398.754375 
" clip-path="url(#pa8cabddca5)" style="fill: none; stroke: #1a6587; stroke-opacity: 0.5"/>
   </g>
   <g id="patch_3">
    <path d="M 42.6325 528.994375 
L 42.6325 55.394375 
" style="fill: none; stroke: #cccccc; stroke-width: 0.8; stroke-linejoin: miter; stroke-linecap: square"/>
   </g>
   <g id="patch_4">
    <path d="M 42.6325 528.994375 
L 614.653868 528.994375 
" style="fill: none; stroke: #cccccc; stroke-width: 0.8; stroke-linejoin: miter; stroke-linecap: square"/>
   </g>
   <g id="text_21">
    <!-- Feasible Workload Combinations  -->
    <g style="fill: #333333" transform="translate(187.861153 18.597656) scale(0.15 -0.15)">
     <defs>
      <path id="DejaVuSans-Bold-46" d="M 588 4666 
L 3834 4666 
L 3834 3756 
L 1791 3756 
L 1791 2888 
L 3713 2888 
L 3713 1978 
L 1791 1978 
L 1791 0 
L 588 0 
L 588 4666 
z
" transform="scale(0.015625)"/>
      <path id="DejaVuSans-Bold-73" d="M 3272 3391 
L 3272 2541 
Q 2913 2691 2578 2766 
Q 2244 2841 1947 2841 
Q 1628 2841 1473 2761 
Q 1319 2681 1319 2516 
Q 1319 2381 1436 2309 
Q 1553 2238 1856 2203 
L 2053 2175 
Q 2913 2066 3209 1816 
Q 3506 1566 3506 1031 
Q 3506 472 3093 190 
Q 2681 -91 1863 -91 
Q 1516 -91 1145 -36 
Q 775 19 384 128 
L 384 978 
Q 719 816 1070 734 
Q 1422 653 1784 653 
Q 2113 653 2278 743 
Q 2444 834 2444 1013 
Q 2444 1163 2330 1236 
Q 2216 1309 1875 1350 
L 1678 1375 
Q 931 1469 631 1722 
Q 331 1975 331 2491 
Q 331 3047 712 3315 
Q 1094 3584 1881 3584 
Q 2191 3584 2531 3537 
Q 2872 3491 3272 3391 
z
" transform="scale(0.015625)"/>
      <path id="DejaVuSans-Bold-62" d="M 2400 722 
Q 2759 722 2948 984 
Q 3138 1247 3138 1747 
Q 3138 2247 2948 2509 
Q 2759 2772 2400 2772 
Q 2041 2772 1848 2508 
Q 1656 2244 1656 1747 
Q 1656 1250 1848 986 
Q 2041 722 2400 722 
z
M 1656 2988 
Q 1888 3294 2169 3439 
Q 2450 3584 2816 3584 
Q 3463 3584 3878 3070 
Q 4294 2556 4294 1747 
Q 4294 938 3878 423 
Q 3463 -91 2816 -91 
Q 2450 -91 2169 54 
Q 1888 200 1656 506 
L 1656 0 
L 538 0 
L 538 4863 
L 1656 4863 
L 1656 2988 
z
" transform="scale(0.015625)"/>
      <path id="DejaVuSans-Bold-6c" d="M 538 4863 
L 1656 4863 
L 1656 0 
L 538 0 
L 538 4863 
z
" transform="scale(0.015625)"/>
      <path id="DejaVuSans-Bold-6f" d="M 2203 2784 
Q 1831 2784 1636 2517 
Q 1441 2250 1441 1747 
Q 1441 1244 1636 976 
Q 1831 709 2203 709 
Q 2569 709 2762 976 
Q 2956 1244 2956 1747 
Q 2956 2250 2762 2517 
Q 2569 2784 2203 2784 
z
M 2203 3584 
Q 3106 3584 3614 3096 
Q 4122 2609 4122 1747 
Q 4122 884 3614 396 
Q 3106 -91 2203 -91 
Q 1297 -91 786 396 
Q 275 884 275 1747 
Q 275 2609 786 3096 
Q 1297 3584 2203 3584 
z
" transform="scale(0.015625)"/>
      <path id="DejaVuSans-Bold-6b" d="M 538 4863 
L 1656 4863 
L 1656 2216 
L 2944 3500 
L 4244 3500 
L 2534 1894 
L 4378 0 
L 3022 0 
L 1656 1459 
L 1656 0 
L 538 0 
L 538 4863 
z
" transform="scale(0.015625)"/>
      <path id="DejaVuSans-Bold-64" d="M 2919 2988 
L 2919 4863 
L 4044 4863 
L 4044 0 
L 2919 0 
L 2919 506 
Q 2688 197 2409 53 
Q 2131 -91 1766 -91 
Q 1119 -91 703 423 
Q 288 938 288 1747 
Q 288 2556 703 3070 
Q 1119 3584 1766 3584 
Q 2128 3584 2408 3439 
Q 2688 3294 2919 2988 
z
M 2181 722 
Q 2541 722 2730 984 
Q 2919 1247 2919 1747 
Q 2919 2247 2730 2509 
Q 2541 2772 2181 2772 
Q 1825 2772 1636 2509 
Q 1447 2247 1447 1747 
Q 1447 1247 1636 984 
Q 1825 722 2181 722 
z
" transform="scale(0.015625)"/>
      <path id="DejaVuSans-Bold-6d" d="M 3781 2919 
Q 3994 3244 4286 3414 
Q 4578 3584 4928 3584 
Q 5531 3584 5847 3212 
Q 6163 2841 6163 2131 
L 6163 0 
L 5038 0 
L 5038 1825 
Q 5041 1866 5042 1909 
Q 5044 1953 5044 2034 
Q 5044 2406 4934 2573 
Q 4825 2741 4581 2741 
Q 4263 2741 4089 2478 
Q 3916 2216 3909 1719 
L 3909 0 
L 2784 0 
L 2784 1825 
Q 2784 2406 2684 2573 
Q 2584 2741 2328 2741 
Q 2006 2741 1831 2477 
Q 1656 2213 1656 1722 
L 1656 0 
L 531 0 
L 531 3500 
L 1656 3500 
L 1656 2988 
Q 1863 3284 2130 3434 
Q 2397 3584 2719 3584 
Q 3081 3584 3359 3409 
Q 3638 3234 3781 2919 
z
" transform="scale(0.015625)"/>
      <path id="DejaVuSans-Bold-6e" d="M 4056 2131 
L 4056 0 
L 2931 0 
L 2931 347 
L 2931 1631 
Q 2931 2084 2911 2256 
Q 2891 2428 2841 2509 
Q 2775 2619 2662 2680 
Q 2550 2741 2406 2741 
Q 2056 2741 1856 2470 
Q 1656 2200 1656 1722 
L 1656 0 
L 538 0 
L 538 3500 
L 1656 3500 
L 1656 2988 
Q 1909 3294 2193 3439 
Q 2478 3584 2822 3584 
Q 3428 3584 3742 3212 
Q 4056 2841 4056 2131 
z
" transform="scale(0.015625)"/>
     </defs>
     <use xlink:href="#DejaVuSans-Bold-46"/>
     <use xlink:href="#DejaVuSans-Bold-65" transform="translate(64.310547 0)"/>
     <use xlink:href="#DejaVuSans-Bold-61" transform="translate(132.132812 0)"/>
     <use xlink:href="#DejaVuSans-Bold-73" transform="translate(199.613281 0)"/>
     <use xlink:href="#DejaVuSans-Bold-69" transform="translate(259.134766 0)"/>
     <use xlink:href="#DejaVuSans-Bold-62" transform="translate(293.412109 0)"/>
     <use xlink:href="#DejaVuSans-Bold-6c" transform="translate(364.994141 0)"/>
     <use xlink:href="#DejaVuSans-Bold-65" transform="translate(399.271484 0)"/>
     <use xlink:href="#DejaVuSans-Bold-20" transform="translate(467.09375 0)"/>
     <use xlink:href="#DejaVuSans-Bold-57" transform="translate(501.908203 0)"/>
     <use xlink:href="#DejaVuSans-Bold-6f" transform="translate(608.585938 0)"/>
     <use xlink:href="#DejaVuSans-Bold-72" transform="translate(677.287109 0)"/>
     <use xlink:href="#DejaVuSans-Bold-6b" transform="translate(726.603516 0)"/>
     <use xlink:href="#DejaVuSans-Bold-6c" transform="translate(793.107422 0)"/>
     <use xlink:href="#DejaVuSans-Bold-6f" transform="translate(827.384766 0)"/>
     <use xlink:href="#DejaVuSans-Bold-61" transform="translate(896.085938 0)"/>
     <use xlink:href="#DejaVuSans-Bold-64" transform="translate(963.566406 0)"/>
     <use xlink:href="#DejaVuSans-Bold-20" transform="translate(1035.148438 0)"/>
     <use xlink:href="#DejaVuSans-Bold-43" transform="translate(1069.962891 0)"/>
     <use xlink:href="#DejaVuSans-Bold-6f" transform="translate(1143.351562 0)"/>
     <use xlink:href="#DejaVuSans-Bold-6d" transform="translate(1212.052734 0)"/>
     <use xlink:href="#DejaVuSans-Bold-62" transform="translate(1316.251953 0)"/>
     <use xlink:href="#DejaVuSans-Bold-69" transform="translate(1387.833984 0)"/>
     <use xlink:href="#DejaVuSans-Bold-6e" transform="translate(1422.111328 0)"/>
     <use xlink:href="#DejaVuSans-Bold-61" transform="translate(1493.302734 0)"/>
     <use xlink:href="#DejaVuSans-Bold-74" transform="translate(1560.783203 0)"/>
     <use xlink:href="#DejaVuSans-Bold-69" transform="translate(1608.585938 0)"/>
     <use xlink:href="#DejaVuSans-Bold-6f" transform="translate(1642.863281 0)"/>
     <use xlink:href="#DejaVuSans-Bold-6e" transform="translate(1711.564453 0)"/>
     <use xlink:href="#DejaVuSans-Bold-73" transform="translate(1782.755859 0)"/>
     <use xlink:href="#DejaVuSans-Bold-20" transform="translate(1842.277344 0)"/>
    </g>
    <!-- (IT Capacity = 20.0 MW &amp; Reliability =99.9%) -->
    <g style="fill: #333333" transform="translate(137.12834 35.394375) scale(0.15 -0.15)">
     <defs>
      <path id="DejaVuSans-Bold-28" d="M 2413 -844 
L 1484 -844 
Q 1006 -72 778 623 
Q 550 1319 550 2003 
Q 550 2688 779 3389 
Q 1009 4091 1484 4856 
L 2413 4856 
Q 2013 4116 1813 3408 
Q 1613 2700 1613 2009 
Q 1613 1319 1811 609 
Q 2009 -100 2413 -844 
z
" transform="scale(0.015625)"/>
      <path id="DejaVuSans-Bold-49" d="M 588 4666 
L 1791 4666 
L 1791 0 
L 588 0 
L 588 4666 
z
" transform="scale(0.015625)"/>
      <path id="DejaVuSans-Bold-3d" d="M 678 3084 
L 4684 3084 
L 4684 2350 
L 678 2350 
L 678 3084 
z
M 678 1663 
L 4684 1663 
L 4684 922 
L 678 922 
L 678 1663 
z
" transform="scale(0.015625)"/>
      <path id="DejaVuSans-Bold-30" d="M 2944 2338 
Q 2944 3213 2780 3570 
Q 2616 3928 2228 3928 
Q 1841 3928 1675 3570 
Q 1509 3213 1509 2338 
Q 1509 1453 1675 1090 
Q 1841 728 2228 728 
Q 2613 728 2778 1090 
Q 2944 1453 2944 2338 
z
M 4147 2328 
Q 4147 1169 3647 539 
Q 3147 -91 2228 -91 
Q 1306 -91 806 539 
Q 306 1169 306 2328 
Q 306 3491 806 4120 
Q 1306 4750 2228 4750 
Q 3147 4750 3647 4120 
Q 4147 3491 4147 2328 
z
" transform="scale(0.015625)"/>
      <path id="DejaVuSans-Bold-2e" d="M 653 1209 
L 1778 1209 
L 1778 0 
L 653 0 
L 653 1209 
z
" transform="scale(0.015625)"/>
      <path id="DejaVuSans-Bold-26" d="M 2497 3097 
L 3775 1691 
Q 3941 1909 4027 2181 
Q 4113 2453 4128 2797 
L 5100 2797 
Q 5053 2228 4879 1784 
Q 4706 1341 4397 1006 
L 5313 0 
L 3988 0 
L 3681 341 
Q 3353 122 2990 15 
Q 2628 -91 2222 -91 
Q 1400 -91 892 342 
Q 384 775 384 1459 
Q 384 1916 607 2267 
Q 831 2619 1338 2950 
Q 1206 3116 1143 3281 
Q 1081 3447 1081 3628 
Q 1081 4138 1478 4444 
Q 1875 4750 2534 4750 
Q 2819 4750 3126 4704 
Q 3434 4659 3769 4569 
L 3769 3700 
Q 3475 3850 3212 3922 
Q 2950 3994 2700 3994 
Q 2459 3994 2326 3901 
Q 2194 3809 2194 3641 
Q 2194 3534 2270 3398 
Q 2347 3263 2497 3097 
z
M 1875 2322 
Q 1672 2175 1569 1989 
Q 1466 1803 1466 1581 
Q 1466 1222 1731 969 
Q 1997 716 2369 716 
Q 2578 716 2759 780 
Q 2941 844 3097 972 
L 1875 2322 
z
" transform="scale(0.015625)"/>
      <path id="DejaVuSans-Bold-52" d="M 2297 2597 
Q 2675 2597 2839 2737 
Q 3003 2878 3003 3200 
Q 3003 3519 2839 3656 
Q 2675 3794 2297 3794 
L 1791 3794 
L 1791 2597 
L 2297 2597 
z
M 1791 1766 
L 1791 0 
L 588 0 
L 588 4666 
L 2425 4666 
Q 3347 4666 3776 4356 
Q 4206 4047 4206 3378 
Q 4206 2916 3982 2619 
Q 3759 2322 3309 2181 
Q 3556 2125 3751 1926 
Q 3947 1728 4147 1325 
L 4800 0 
L 3519 0 
L 2950 1159 
Q 2778 1509 2601 1637 
Q 2425 1766 2131 1766 
L 1791 1766 
z
" transform="scale(0.015625)"/>
      <path id="DejaVuSans-Bold-39" d="M 641 103 
L 641 966 
Q 928 831 1190 764 
Q 1453 697 1709 697 
Q 2247 697 2547 995 
Q 2847 1294 2900 1881 
Q 2688 1725 2447 1647 
Q 2206 1569 1925 1569 
Q 1209 1569 770 1986 
Q 331 2403 331 3084 
Q 331 3838 820 4291 
Q 1309 4744 2131 4744 
Q 3044 4744 3544 4128 
Q 4044 3513 4044 2388 
Q 4044 1231 3459 570 
Q 2875 -91 1856 -91 
Q 1528 -91 1228 -42 
Q 928 6 641 103 
z
M 2125 2350 
Q 2441 2350 2600 2554 
Q 2759 2759 2759 3169 
Q 2759 3575 2600 3781 
Q 2441 3988 2125 3988 
Q 1809 3988 1650 3781 
Q 1491 3575 1491 3169 
Q 1491 2759 1650 2554 
Q 1809 2350 2125 2350 
z
" transform="scale(0.015625)"/>
      <path id="DejaVuSans-Bold-25" d="M 4959 1925 
Q 4738 1925 4616 1733 
Q 4494 1541 4494 1184 
Q 4494 825 4614 633 
Q 4734 441 4959 441 
Q 5184 441 5303 633 
Q 5422 825 5422 1184 
Q 5422 1541 5301 1733 
Q 5181 1925 4959 1925 
z
M 4959 2450 
Q 5541 2450 5875 2112 
Q 6209 1775 6209 1184 
Q 6209 594 5875 251 
Q 5541 -91 4959 -91 
Q 4378 -91 4042 251 
Q 3706 594 3706 1184 
Q 3706 1772 4042 2111 
Q 4378 2450 4959 2450 
z
M 2094 -91 
L 1403 -91 
L 4319 4750 
L 5013 4750 
L 2094 -91 
z
M 1453 4750 
Q 2034 4750 2367 4411 
Q 2700 4072 2700 3481 
Q 2700 2891 2367 2550 
Q 2034 2209 1453 2209 
Q 872 2209 539 2550 
Q 206 2891 206 3481 
Q 206 4072 539 4411 
Q 872 4750 1453 4750 
z
M 1453 4225 
Q 1228 4225 1106 4031 
Q 984 3838 984 3481 
Q 984 3122 1106 2926 
Q 1228 2731 1453 2731 
Q 1678 2731 1798 2926 
Q 1919 3122 1919 3481 
Q 1919 3838 1797 4031 
Q 1675 4225 1453 4225 
z
" transform="scale(0.015625)"/>
      <path id="DejaVuSans-Bold-29" d="M 513 -844 
Q 913 -100 1113 609 
Q 1313 1319 1313 2009 
Q 1313 2700 1113 3408 
Q 913 4116 513 4856 
L 1441 4856 
Q 1916 4091 2145 3389 
Q 2375 2688 2375 2003 
Q 2375 1319 2147 623 
Q 1919 -72 1441 -844 
L 513 -844 
z
" transform="scale(0.015625)"/>
     </defs>
     <use xlink:href="#DejaVuSans-Bold-28"/>
     <use xlink:href="#DejaVuSans-Bold-49" transform="translate(45.703125 0)"/>
     <use xlink:href="#DejaVuSans-Bold-54" transform="translate(82.910156 0)"/>
     <use xlink:href="#DejaVuSans-Bold-20" transform="translate(151.123047 0)"/>
     <use xlink:href="#DejaVuSans-Bold-43" transform="translate(185.9375 0)"/>
     <use xlink:href="#DejaVuSans-Bold-61" transform="translate(259.326172 0)"/>
     <use xlink:href="#DejaVuSans-Bold-70" transform="translate(326.806641 0)"/>
     <use xlink:href="#DejaVuSans-Bold-61" transform="translate(398.388672 0)"/>
     <use xlink:href="#DejaVuSans-Bold-63" transform="translate(465.869141 0)"/>
     <use xlink:href="#DejaVuSans-Bold-69" transform="translate(525.146484 0)"/>
     <use xlink:href="#DejaVuSans-Bold-74" transform="translate(559.423828 0)"/>
     <use xlink:href="#DejaVuSans-Bold-79" transform="translate(607.226562 0)"/>
     <use xlink:href="#DejaVuSans-Bold-20" transform="translate(672.412109 0)"/>
     <use xlink:href="#DejaVuSans-Bold-3d" transform="translate(707.226562 0)"/>
     <use xlink:href="#DejaVuSans-Bold-20" transform="translate(791.015625 0)"/>
     <use xlink:href="#DejaVuSans-Bold-32" transform="translate(825.830078 0)"/>
     <use xlink:href="#DejaVuSans-Bold-30" transform="translate(895.410156 0)"/>
     <use xlink:href="#DejaVuSans-Bold-2e" transform="translate(964.990234 0)"/>
     <use xlink:href="#DejaVuSans-Bold-30" transform="translate(1002.978516 0)"/>
     <use xlink:href="#DejaVuSans-Bold-20" transform="translate(1072.558594 0)"/>
     <use xlink:href="#DejaVuSans-Bold-4d" transform="translate(1107.373047 0)"/>
     <use xlink:href="#DejaVuSans-Bold-57" transform="translate(1206.884766 0)"/>
     <use xlink:href="#DejaVuSans-Bold-20" transform="translate(1317.1875 0)"/>
     <use xlink:href="#DejaVuSans-Bold-26" transform="translate(1352.001953 0)"/>
     <use xlink:href="#DejaVuSans-Bold-20" transform="translate(1439.208984 0)"/>
     <use xlink:href="#DejaVuSans-Bold-52" transform="translate(1474.023438 0)"/>
     <use xlink:href="#DejaVuSans-Bold-65" transform="translate(1551.025391 0)"/>
     <use xlink:href="#DejaVuSans-Bold-6c" transform="translate(1618.847656 0)"/>
     <use xlink:href="#DejaVuSans-Bold-69" transform="translate(1653.125 0)"/>
     <use xlink:href="#DejaVuSans-Bold-61" transform="translate(1687.402344 0)"/>
     <use xlink:href="#DejaVuSans-Bold-62" transform="translate(1754.882812 0)"/>
     <use xlink:href="#DejaVuSans-Bold-69" transform="translate(1826.464844 0)"/>
     <use xlink:href="#DejaVuSans-Bold-6c" transform="translate(1860.742188 0)"/>
     <use xlink:href="#DejaVuSans-Bold-69" transform="translate(1895.019531 0)"/>
     <use xlink:href="#DejaVuSans-Bold-74" transform="translate(1929.296875 0)"/>
     <use xlink:href="#DejaVuSans-Bold-79" transform="translate(1977.099609 0)"/>
     <use xlink:href="#DejaVuSans-Bold-20" transform="translate(2042.285156 0)"/>
     <use xlink:href="#DejaVuSans-Bold-3d" transform="translate(2077.099609 0)"/>
     <use xlink:href="#DejaVuSans-Bold-39" transform="translate(2160.888672 0)"/>
     <use xlink:href="#DejaVuSans-Bold-39" transform="translate(2230.46875 0)"/>
     <use xlink:href="#DejaVuSans-Bold-2e" transform="translate(2300.048828 0)"/>
     <use xlink:href="#DejaVuSans-Bold-39" transform="translate(2338.037109 0)"/>
     <use xlink:href="#DejaVuSans-Bold-25" transform="translate(2407.617188 0)"/>
     <use xlink:href="#DejaVuSans-Bold-29" transform="translate(2507.8125 0)"/>
    </g>
   </g>
  </g>
  <g id="axes_2">
   <g id="patch_5">
    <path d="M 646.292218 528.994375 
L 669.972218 528.994375 
L 669.972218 55.394375 
L 646.292218 55.394375 
z
" style="fill: #ffffff"/>
   </g>
   <g id="QuadMesh_1">
    <path d="M 646.292218 528.994375 
L 669.972218 528.994375 
L 669.972218 469.794375 
L 646.292218 469.794375 
L 646.292218 528.994375 
" clip-path="url(#p4ba78ee6ac)" style="fill: #eaf3fb; fill-opacity: 0.9"/>
    <path d="M 646.292218 469.794375 
L 669.972218 469.794375 
L 669.972218 410.594375 
L 646.292218 410.594375 
L 646.292218 469.794375 
" clip-path="url(#p4ba78ee6ac)" style="fill: #d2e3f3; fill-opacity: 0.9"/>
    <path d="M 646.292218 410.594375 
L 669.972218 410.594375 
L 669.972218 351.394375 
L 646.292218 351.394375 
L 646.292218 410.594375 
" clip-path="url(#p4ba78ee6ac)" style="fill: #b2d2e8; fill-opacity: 0.9"/>
    <path d="M 646.292218 351.394375 
L 669.972218 351.394375 
L 669.972218 292.194375 
L 646.292218 292.194375 
L 646.292218 351.394375 
" clip-path="url(#p4ba78ee6ac)" style="fill: #84bcdb; fill-opacity: 0.9"/>
    <path d="M 646.292218 292.194375 
L 669.972218 292.194375 
L 669.972218 232.994375 
L 646.292218 232.994375 
L 646.292218 292.194375 
" clip-path="url(#p4ba78ee6ac)" style="fill: #56a0ce; fill-opacity: 0.9"/>
    <path d="M 646.292218 232.994375 
L 669.972218 232.994375 
L 669.972218 173.794375 
L 646.292218 173.794375 
L 646.292218 232.994375 
" clip-path="url(#p4ba78ee6ac)" style="fill: #3181bd; fill-opacity: 0.9"/>
    <path d="M 646.292218 173.794375 
L 669.972218 173.794375 
L 669.972218 114.594375 
L 646.292218 114.594375 
L 646.292218 173.794375 
" clip-path="url(#p4ba78ee6ac)" style="fill: #1460a8; fill-opacity: 0.9"/>
    <path d="M 646.292218 114.594375 
L 669.972218 114.594375 
L 669.972218 55.394375 
L 646.292218 55.394375 
L 646.292218 114.594375 
" clip-path="url(#p4ba78ee6ac)" style="fill: #084082; fill-opacity: 0.9"/>
   </g>
   <g id="matplotlib.axis_3"/>
   <g id="matplotlib.axis_4">
    <g id="ytick_10">
     <g id="line2d_19">
      <defs>
       <path id="m2d32cbf061" d="M 0 0 
L 3.5 0 
" style="stroke: #595959; stroke-width: 0.8"/>
      </defs>
      <g>
       <use xlink:href="#m2d32cbf061" x="669.972218" y="528.994375" style="fill: #595959; stroke: #595959; stroke-width: 0.8"/>
      </g>
     </g>
     <g id="text_22">
      <!-- 0 -->
      <g style="fill: #595959" transform="translate(676.972218 532.793594) scale(0.1 -0.1)">
       <use xlink:href="#DejaVuSans-30"/>
      </g>
     </g>
    </g>
    <g id="ytick_11">
     <g id="line2d_20">
      <g>
       <use xlink:href="#m2d32cbf061" x="669.972218" y="469.794375" style="fill: #595959; stroke: #595959; stroke-width: 0.8"/>
      </g>
     </g>
     <g id="text_23">
      <!-- 1 -->
      <g style="fill: #595959" transform="translate(676.972218 473.593594) scale(0.1 -0.1)">
       <use xlink:href="#DejaVuSans-31"/>
      </g>
     </g>
    </g>
    <g id="ytick_12">
     <g id="line2d_21">
      <g>
       <use xlink:href="#m2d32cbf061" x="669.972218" y="410.594375" style="fill: #595959; stroke: #595959; stroke-width: 0.8"/>
      </g>
     </g>
     <g id="text_24">
      <!-- 2 -->
      <g style="fill: #595959" transform="translate(676.972218 414.393594) scale(0.1 -0.1)">
       <use xlink:href="#DejaVuSans-32"/>
      </g>
     </g>
    </g>
    <g id="ytick_13">
     <g id="line2d_22">
      <g>
       <use xlink:href="#m2d32cbf061" x="669.972218" y="351.394375" style="fill: #595959; stroke: #595959; stroke-width: 0.8"/>
      </g>
     </g>
     <g id="text_25">
      <!-- 3 -->
      <g style="fill: #595959" transform="translate(676.972218 355.193594) scale(0.1 -0.1)">
       <use xlink:href="#DejaVuSans-33"/>
      </g>
     </g>
    </g>
    <g id="ytick_14">
     <g id="line2d_23">
      <g>
       <use xlink:href="#m2d32cbf061" x="669.972218" y="292.194375" style="fill: #595959; stroke: #595959; stroke-width: 0.8"/>
      </g>
     </g>
     <g id="text_26">
      <!-- 4 -->
      <g style="fill: #595959" transform="translate(676.972218 295.993594) scale(0.1 -0.1)">
       <use xlink:href="#DejaVuSans-34"/>
      </g>
     </g>
    </g>
    <g id="ytick_15">
     <g id="line2d_24">
      <g>
       <use xlink:href="#m2d32cbf061" x="669.972218" y="232.994375" style="fill: #595959; stroke: #595959; stroke-width: 0.8"/>
      </g>
     </g>
     <g id="text_27">
      <!-- 5 -->
      <g style="fill: #595959" transform="translate(676.972218 236.793594) scale(0.1 -0.1)">
       <use xlink:href="#DejaVuSans-35"/>
      </g>
     </g>
    </g>
    <g id="ytick_16">
     <g id="line2d_25">
      <g>
       <use xlink:href="#m2d32cbf061" x="669.972218" y="173.794375" style="fill: #595959; stroke: #595959; stroke-width: 0.8"/>
      </g>
     </g>
     <g id="text_28">
      <!-- 6 -->
      <g style="fill: #595959" transform="translate(676.972218 177.593594) scale(0.1 -0.1)">
       <defs>
        <path id="DejaVuSans-36" d="M 2113 2584 
Q 1688 2584 1439 2293 
Q 1191 2003 1191 1497 
Q 1191 994 1439 701 
Q 1688 409 2113 409 
Q 2538 409 2786 701 
Q 3034 994 3034 1497 
Q 3034 2003 2786 2293 
Q 2538 2584 2113 2584 
z
M 3366 4563 
L 3366 3988 
Q 3128 4100 2886 4159 
Q 2644 4219 2406 4219 
Q 1781 4219 1451 3797 
Q 1122 3375 1075 2522 
Q 1259 2794 1537 2939 
Q 1816 3084 2150 3084 
Q 2853 3084 3261 2657 
Q 3669 2231 3669 1497 
Q 3669 778 3244 343 
Q 2819 -91 2113 -91 
Q 1303 -91 875 529 
Q 447 1150 447 2328 
Q 447 3434 972 4092 
Q 1497 4750 2381 4750 
Q 2619 4750 2861 4703 
Q 3103 4656 3366 4563 
z
" transform="scale(0.015625)"/>
       </defs>
       <use xlink:href="#DejaVuSans-36"/>
      </g>
     </g>
    </g>
    <g id="ytick_17">
     <g id="line2d_26">
      <g>
       <use xlink:href="#m2d32cbf061" x="669.972218" y="114.594375" style="fill: #595959; stroke: #595959; stroke-width: 0.8"/>
      </g>
     </g>
     <g id="text_29">
      <!-- 7 -->
      <g style="fill: #595959" transform="translate(676.972218 118.393594) scale(0.1 -0.1)">
       <use xlink:href="#DejaVuSans-37"/>
      </g>
     </g>
    </g>
    <g id="ytick_18">
     <g id="line2d_27">
      <g>
       <use xlink:href="#m2d32cbf061" x="669.972218" y="55.394375" style="fill: #595959; stroke: #595959; stroke-width: 0.8"/>
      </g>
     </g>
     <g id="text_30">
      <!-- 8 -->
      <g style="fill: #595959" transform="translate(676.972218 59.193594) scale(0.1 -0.1)">
       <defs>
        <path id="DejaVuSans-38" d="M 2034 2216 
Q 1584 2216 1326 1975 
Q 1069 1734 1069 1313 
Q 1069 891 1326 650 
Q 1584 409 2034 409 
Q 2484 409 2743 651 
Q 3003 894 3003 1313 
Q 3003 1734 2745 1975 
Q 2488 2216 2034 2216 
z
M 1403 2484 
Q 997 2584 770 2862 
Q 544 3141 544 3541 
Q 544 4100 942 4425 
Q 1341 4750 2034 4750 
Q 2731 4750 3128 4425 
Q 3525 4100 3525 3541 
Q 3525 3141 3298 2862 
Q 3072 2584 2669 2484 
Q 3125 2378 3379 2068 
Q 3634 1759 3634 1313 
Q 3634 634 3220 271 
Q 2806 -91 2034 -91 
Q 1263 -91 848 271 
Q 434 634 434 1313 
Q 434 1759 690 2068 
Q 947 2378 1403 2484 
z
M 1172 3481 
Q 1172 3119 1398 2916 
Q 1625 2713 2034 2713 
Q 2441 2713 2670 2916 
Q 2900 3119 2900 3481 
Q 2900 3844 2670 4047 
Q 2441 4250 2034 4250 
Q 1625 4250 1398 4047 
Q 1172 3844 1172 3481 
z
" transform="scale(0.015625)"/>
       </defs>
       <use xlink:href="#DejaVuSans-38"/>
      </g>
     </g>
    </g>
    <g id="text_31">
     <!-- Max Feasible Tier A [MW] -->
     <g style="fill: #333333" transform="translate(695.73628 220.388906) rotate(-270) scale(0.1 -0.1)">
      <defs>
       <path id="DejaVuSans-Bold-78" d="M 1422 1791 
L 159 3500 
L 1344 3500 
L 2059 2463 
L 2784 3500 
L 3969 3500 
L 2706 1797 
L 4031 0 
L 2847 0 
L 2059 1106 
L 1281 0 
L 97 0 
L 1422 1791 
z
" transform="scale(0.015625)"/>
       <path id="DejaVuSans-Bold-41" d="M 3419 850 
L 1538 850 
L 1241 0 
L 31 0 
L 1759 4666 
L 3194 4666 
L 4922 0 
L 3713 0 
L 3419 850 
z
M 1838 1716 
L 3116 1716 
L 2478 3572 
L 1838 1716 
z
" transform="scale(0.015625)"/>
      </defs>
      <use xlink:href="#DejaVuSans-Bold-4d"/>
      <use xlink:href="#DejaVuSans-Bold-61" transform="translate(99.511719 0)"/>
      <use xlink:href="#DejaVuSans-Bold-78" transform="translate(166.992188 0)"/>
      <use xlink:href="#DejaVuSans-Bold-20" transform="translate(231.494141 0)"/>
      <use xlink:href="#DejaVuSans-Bold-46" transform="translate(266.308594 0)"/>
      <use xlink:href="#DejaVuSans-Bold-65" transform="translate(330.619141 0)"/>
      <use xlink:href="#DejaVuSans-Bold-61" transform="translate(398.441406 0)"/>
      <use xlink:href="#DejaVuSans-Bold-73" transform="translate(465.921875 0)"/>
      <use xlink:href="#DejaVuSans-Bold-69" transform="translate(525.443359 0)"/>
      <use xlink:href="#DejaVuSans-Bold-62" transform="translate(559.720703 0)"/>
      <use xlink:href="#DejaVuSans-Bold-6c" transform="translate(631.302734 0)"/>
      <use xlink:href="#DejaVuSans-Bold-65" transform="translate(665.580078 0)"/>
      <use xlink:href="#DejaVuSans-Bold-20" transform="translate(733.402344 0)"/>
      <use xlink:href="#DejaVuSans-Bold-54" transform="translate(768.216797 0)"/>
      <use xlink:href="#DejaVuSans-Bold-69" transform="translate(836.429688 0)"/>
      <use xlink:href="#DejaVuSans-Bold-65" transform="translate(870.707031 0)"/>
      <use xlink:href="#DejaVuSans-Bold-72" transform="translate(938.529297 0)"/>
      <use xlink:href="#DejaVuSans-Bold-20" transform="translate(987.845703 0)"/>
      <use xlink:href="#DejaVuSans-Bold-41" transform="translate(1022.660156 0)"/>
      <use xlink:href="#DejaVuSans-Bold-20" transform="translate(1100.052734 0)"/>
      <use xlink:href="#DejaVuSans-Bold-5b" transform="translate(1134.867188 0)"/>
      <use xlink:href="#DejaVuSans-Bold-4d" transform="translate(1180.570312 0)"/>
      <use xlink:href="#DejaVuSans-Bold-57" transform="translate(1280.082031 0)"/>
      <use xlink:href="#DejaVuSans-Bold-5d" transform="translate(1390.384766 0)"/>
     </g>
    </g>
   </g>
   <g id="LineCollection_1"/>
   <g id="patch_6">
    <path d="M 646.292218 528.994375 
L 658.132218 528.994375 
L 669.972218 528.994375 
L 669.972218 55.394375 
L 658.132218 55.394375 
L 646.292218 55.394375 
L 646.292218 528.994375 
z
" style="fill: none; stroke: #000000; stroke-width: 0.8; stroke-linejoin: miter; stroke-linecap: square"/>
   </g>
  </g>
 </g>
 <defs>
  <clipPath id="pa8cabddca5">
   <rect x="42.6325" y="55.394375" width="572.021368" height="473.6"/>
  </clipPath>
  <clipPath id="p4ba78ee6ac">
   <rect x="646.292218" y="55.394375" width="23.68" height="473.6"/>
  </clipPath>
 </defs>
</svg>
