<?xml version="1.0" encoding="utf-8" standalone="no"?>
<!DOCTYPE svg PUBLIC "-//W3C//DTD SVG 1.1//EN"
  "http://www.w3.org/Graphics/SVG/1.1/DTD/svg11.dtd">
<svg xmlns:xlink="http://www.w3.org/1999/xlink" width="856.953125pt" height="427.31625pt" viewBox="0 0 856.953125 427.31625" xmlns="http://www.w3.org/2000/svg" version="1.1">
 <metadata>
  <rdf:RDF xmlns:dc="http://purl.org/dc/elements/1.1/" xmlns:cc="http://creativecommons.org/ns#" xmlns:rdf="http://www.w3.org/1999/02/22-rdf-syntax-ns#">
   <cc:Work>
    <dc:type rdf:resource="http://purl.org/dc/dcmitype/StillImage"/>
    <dc:date>2026-03-16T16:40:38.465797</dc:date>
    <dc:format>image/svg+xml</dc:format>
    <dc:creator>
     <cc:Agent>
      <dc:title>Matplotlib v3.10.8, https://matplotlib.org/</dc:title>
     </cc:Agent>
    </dc:creator>
   </cc:Work>
  </rdf:RDF>
 </metadata>
 <defs>
  <style type="text/css">*{stroke-linejoin: round; stroke-linecap: butt}</style>
 </defs>
 <g id="figure_1">
  <g id="patch_1">
   <path d="M 0 427.31625 
L 856.953125 427.31625 
L 856.953125 0 
L 0 0 
z
" style="fill: #ffffff"/>
  </g>
  <g id="axes_1">
   <g id="patch_2">
    <path d="M 40.603125 389.76 
L 849.753125 389.76 
L 849.753125 34.16 
L 40.603125 34.16 
z
" style="fill: #ffffff"/>
   </g>
   <g id="patch_3">
    <path d="M 40.603125 389.76 
L 56.163702 389.76 
L 56.163702 345.858765 
L 40.603125 345.858765 
z
" clip-path="url(#p091760d711)" style="fill: #1f77b4; stroke: #ffffff; stroke-linejoin: miter"/>
   </g>
   <g id="patch_4">
    <path d="M 56.163702 389.76 
L 71.724279 389.76 
L 71.724279 345.858765 
L 56.163702 345.858765 
z
" clip-path="url(#p091760d711)" style="fill: #1f77b4; stroke: #ffffff; stroke-linejoin: miter"/>
   </g>
   <g id="patch_5">
    <path d="M 71.724279 389.76 
L 87.284856 389.76 
L 87.284856 345.858765 
L 71.724279 345.858765 
z
" clip-path="url(#p091760d711)" style="fill: #1f77b4; stroke: #ffffff; stroke-linejoin: miter"/>
   </g>
   <g id="patch_6">
    <path d="M 87.284856 389.76 
L 102.845433 389.76 
L 102.845433 345.858765 
L 87.284856 345.858765 
z
" clip-path="url(#p091760d711)" style="fill: #1f77b4; stroke: #ffffff; stroke-linejoin: miter"/>
   </g>
   <g id="patch_7">
    <path d="M 102.845433 389.76 
L 118.40601 389.76 
L 118.40601 345.858765 
L 102.845433 345.858765 
z
" clip-path="url(#p091760d711)" style="fill: #1f77b4; stroke: #ffffff; stroke-linejoin: miter"/>
   </g>
   <g id="patch_8">
    <path d="M 118.40601 389.76 
L 133.966587 389.76 
L 133.966587 345.858765 
L 118.40601 345.858765 
z
" clip-path="url(#p091760d711)" style="fill: #1f77b4; stroke: #ffffff; stroke-linejoin: miter"/>
   </g>
   <g id="patch_9">
    <path d="M 133.966587 389.76 
L 149.527163 389.76 
L 149.527163 345.858765 
L 133.966587 345.858765 
z
" clip-path="url(#p091760d711)" style="fill: #1f77b4; stroke: #ffffff; stroke-linejoin: miter"/>
   </g>
   <g id="patch_10">
    <path d="M 149.527163 389.76 
L 165.08774 389.76 
L 165.08774 345.858765 
L 149.527163 345.858765 
z
" clip-path="url(#p091760d711)" style="fill: #1f77b4; stroke: #ffffff; stroke-linejoin: miter"/>
   </g>
   <g id="patch_11">
    <path d="M 165.08774 389.76 
L 180.648317 389.76 
L 180.648317 345.858765 
L 165.08774 345.858765 
z
" clip-path="url(#p091760d711)" style="fill: #1f77b4; stroke: #ffffff; stroke-linejoin: miter"/>
   </g>
   <g id="patch_12">
    <path d="M 180.648317 389.76 
L 196.208894 389.76 
L 196.208894 345.858765 
L 180.648317 345.858765 
z
" clip-path="url(#p091760d711)" style="fill: #1f77b4; stroke: #ffffff; stroke-linejoin: miter"/>
   </g>
   <g id="patch_13">
    <path d="M 196.208894 389.76 
L 211.769471 389.76 
L 211.769471 345.858765 
L 196.208894 345.858765 
z
" clip-path="url(#p091760d711)" style="fill: #1f77b4; stroke: #ffffff; stroke-linejoin: miter"/>
   </g>
   <g id="patch_14">
    <path d="M 211.769471 389.76 
L 227.330048 389.76 
L 227.330048 345.858765 
L 211.769471 345.858765 
z
" clip-path="url(#p091760d711)" style="fill: #1f77b4; stroke: #ffffff; stroke-linejoin: miter"/>
   </g>
   <g id="patch_15">
    <path d="M 227.330048 389.76 
L 242.890625 389.76 
L 242.890625 345.858765 
L 227.330048 345.858765 
z
" clip-path="url(#p091760d711)" style="fill: #1f77b4; stroke: #ffffff; stroke-linejoin: miter"/>
   </g>
   <g id="patch_16">
    <path d="M 242.890625 389.76 
L 258.451202 389.76 
L 258.451202 345.858765 
L 242.890625 345.858765 
z
" clip-path="url(#p091760d711)" style="fill: #1f77b4; stroke: #ffffff; stroke-linejoin: miter"/>
   </g>
   <g id="patch_17">
    <path d="M 258.451202 389.76 
L 274.011779 389.76 
L 274.011779 345.858765 
L 258.451202 345.858765 
z
" clip-path="url(#p091760d711)" style="fill: #1f77b4; stroke: #ffffff; stroke-linejoin: miter"/>
   </g>
   <g id="patch_18">
    <path d="M 274.011779 389.76 
L 289.572356 389.76 
L 289.572356 345.858765 
L 274.011779 345.858765 
z
" clip-path="url(#p091760d711)" style="fill: #1f77b4; stroke: #ffffff; stroke-linejoin: miter"/>
   </g>
   <g id="patch_19">
    <path d="M 289.572356 389.76 
L 305.132933 389.76 
L 305.132933 345.858765 
L 289.572356 345.858765 
z
" clip-path="url(#p091760d711)" style="fill: #1f77b4; stroke: #ffffff; stroke-linejoin: miter"/>
   </g>
   <g id="patch_20">
    <path d="M 305.132933 389.76 
L 320.69351 389.76 
L 320.69351 345.858765 
L 305.132933 345.858765 
z
" clip-path="url(#p091760d711)" style="fill: #1f77b4; stroke: #ffffff; stroke-linejoin: miter"/>
   </g>
   <g id="patch_21">
    <path d="M 320.69351 389.76 
L 336.254087 389.76 
L 336.254087 345.858765 
L 320.69351 345.858765 
z
" clip-path="url(#p091760d711)" style="fill: #1f77b4; stroke: #ffffff; stroke-linejoin: miter"/>
   </g>
   <g id="patch_22">
    <path d="M 336.254087 389.76 
L 351.814663 389.76 
L 351.814663 345.858765 
L 336.254087 345.858765 
z
" clip-path="url(#p091760d711)" style="fill: #1f77b4; stroke: #ffffff; stroke-linejoin: miter"/>
   </g>
   <g id="patch_23">
    <path d="M 351.814663 389.76 
L 367.37524 389.76 
L 367.37524 345.858765 
L 351.814663 345.858765 
z
" clip-path="url(#p091760d711)" style="fill: #1f77b4; stroke: #ffffff; stroke-linejoin: miter"/>
   </g>
   <g id="patch_24">
    <path d="M 367.37524 389.76 
L 382.935817 389.76 
L 382.935817 345.858765 
L 367.37524 345.858765 
z
" clip-path="url(#p091760d711)" style="fill: #1f77b4; stroke: #ffffff; stroke-linejoin: miter"/>
   </g>
   <g id="patch_25">
    <path d="M 382.935817 389.76 
L 398.496394 389.76 
L 398.496394 345.858765 
L 382.935817 345.858765 
z
" clip-path="url(#p091760d711)" style="fill: #1f77b4; stroke: #ffffff; stroke-linejoin: miter"/>
   </g>
   <g id="patch_26">
    <path d="M 398.496394 389.76 
L 414.056971 389.76 
L 414.056971 345.858765 
L 398.496394 345.858765 
z
" clip-path="url(#p091760d711)" style="fill: #1f77b4; stroke: #ffffff; stroke-linejoin: miter"/>
   </g>
   <g id="patch_27">
    <path d="M 414.056971 389.76 
L 429.617548 389.76 
L 429.617548 345.858765 
L 414.056971 345.858765 
z
" clip-path="url(#p091760d711)" style="fill: #1f77b4; stroke: #ffffff; stroke-linejoin: miter"/>
   </g>
   <g id="patch_28">
    <path d="M 429.617548 389.76 
L 445.178125 389.76 
L 445.178125 345.858765 
L 429.617548 345.858765 
z
" clip-path="url(#p091760d711)" style="fill: #1f77b4; stroke: #ffffff; stroke-linejoin: miter"/>
   </g>
   <g id="patch_29">
    <path d="M 445.178125 389.76 
L 460.738702 389.76 
L 460.738702 345.858765 
L 445.178125 345.858765 
z
" clip-path="url(#p091760d711)" style="fill: #1f77b4; stroke: #ffffff; stroke-linejoin: miter"/>
   </g>
   <g id="patch_30">
    <path d="M 460.738702 389.76 
L 476.299279 389.76 
L 476.299279 345.858765 
L 460.738702 345.858765 
z
" clip-path="url(#p091760d711)" style="fill: #1f77b4; stroke: #ffffff; stroke-linejoin: miter"/>
   </g>
   <g id="patch_31">
    <path d="M 476.299279 389.76 
L 491.859856 389.76 
L 491.859856 345.858765 
L 476.299279 345.858765 
z
" clip-path="url(#p091760d711)" style="fill: #1f77b4; stroke: #ffffff; stroke-linejoin: miter"/>
   </g>
   <g id="patch_32">
    <path d="M 491.859856 389.76 
L 507.420433 389.76 
L 507.420433 345.858765 
L 491.859856 345.858765 
z
" clip-path="url(#p091760d711)" style="fill: #1f77b4; stroke: #ffffff; stroke-linejoin: miter"/>
   </g>
   <g id="patch_33">
    <path d="M 507.420433 389.76 
L 522.98101 389.76 
L 522.98101 345.858765 
L 507.420433 345.858765 
z
" clip-path="url(#p091760d711)" style="fill: #1f77b4; stroke: #ffffff; stroke-linejoin: miter"/>
   </g>
   <g id="patch_34">
    <path d="M 522.98101 389.76 
L 538.541587 389.76 
L 538.541587 345.858765 
L 522.98101 345.858765 
z
" clip-path="url(#p091760d711)" style="fill: #1f77b4; stroke: #ffffff; stroke-linejoin: miter"/>
   </g>
   <g id="patch_35">
    <path d="M 538.541587 389.76 
L 554.102163 389.76 
L 554.102163 345.858765 
L 538.541587 345.858765 
z
" clip-path="url(#p091760d711)" style="fill: #1f77b4; stroke: #ffffff; stroke-linejoin: miter"/>
   </g>
   <g id="patch_36">
    <path d="M 554.102163 389.76 
L 569.66274 389.76 
L 569.66274 345.858765 
L 554.102163 345.858765 
z
" clip-path="url(#p091760d711)" style="fill: #1f77b4; stroke: #ffffff; stroke-linejoin: miter"/>
   </g>
   <g id="patch_37">
    <path d="M 569.66274 389.76 
L 585.223317 389.76 
L 585.223317 345.858765 
L 569.66274 345.858765 
z
" clip-path="url(#p091760d711)" style="fill: #1f77b4; stroke: #ffffff; stroke-linejoin: miter"/>
   </g>
   <g id="patch_38">
    <path d="M 585.223317 389.76 
L 600.783894 389.76 
L 600.783894 345.858765 
L 585.223317 345.858765 
z
" clip-path="url(#p091760d711)" style="fill: #1f77b4; stroke: #ffffff; stroke-linejoin: miter"/>
   </g>
   <g id="patch_39">
    <path d="M 600.783894 389.76 
L 616.344471 389.76 
L 616.344471 345.858765 
L 600.783894 345.858765 
z
" clip-path="url(#p091760d711)" style="fill: #1f77b4; stroke: #ffffff; stroke-linejoin: miter"/>
   </g>
   <g id="patch_40">
    <path d="M 616.344471 389.76 
L 631.905048 389.76 
L 631.905048 345.858765 
L 616.344471 345.858765 
z
" clip-path="url(#p091760d711)" style="fill: #1f77b4; stroke: #ffffff; stroke-linejoin: miter"/>
   </g>
   <g id="patch_41">
    <path d="M 631.905048 389.76 
L 647.465625 389.76 
L 647.465625 345.858765 
L 631.905048 345.858765 
z
" clip-path="url(#p091760d711)" style="fill: #1f77b4; stroke: #ffffff; stroke-linejoin: miter"/>
   </g>
   <g id="patch_42">
    <path d="M 647.465625 389.76 
L 663.026202 389.76 
L 663.026202 345.858765 
L 647.465625 345.858765 
z
" clip-path="url(#p091760d711)" style="fill: #1f77b4; stroke: #ffffff; stroke-linejoin: miter"/>
   </g>
   <g id="patch_43">
    <path d="M 663.026202 389.76 
L 678.586779 389.76 
L 678.586779 345.858765 
L 663.026202 345.858765 
z
" clip-path="url(#p091760d711)" style="fill: #1f77b4; stroke: #ffffff; stroke-linejoin: miter"/>
   </g>
   <g id="patch_44">
    <path d="M 678.586779 389.76 
L 694.147356 389.76 
L 694.147356 345.858765 
L 678.586779 345.858765 
z
" clip-path="url(#p091760d711)" style="fill: #1f77b4; stroke: #ffffff; stroke-linejoin: miter"/>
   </g>
   <g id="patch_45">
    <path d="M 694.147356 389.76 
L 709.707933 389.76 
L 709.707933 345.858765 
L 694.147356 345.858765 
z
" clip-path="url(#p091760d711)" style="fill: #1f77b4; stroke: #ffffff; stroke-linejoin: miter"/>
   </g>
   <g id="patch_46">
    <path d="M 709.707933 389.76 
L 725.26851 389.76 
L 725.26851 345.858765 
L 709.707933 345.858765 
z
" clip-path="url(#p091760d711)" style="fill: #1f77b4; stroke: #ffffff; stroke-linejoin: miter"/>
   </g>
   <g id="patch_47">
    <path d="M 725.26851 389.76 
L 740.829087 389.76 
L 740.829087 345.858765 
L 725.26851 345.858765 
z
" clip-path="url(#p091760d711)" style="fill: #1f77b4; stroke: #ffffff; stroke-linejoin: miter"/>
   </g>
   <g id="patch_48">
    <path d="M 740.829087 389.76 
L 756.389663 389.76 
L 756.389663 345.858765 
L 740.829087 345.858765 
z
" clip-path="url(#p091760d711)" style="fill: #1f77b4; stroke: #ffffff; stroke-linejoin: miter"/>
   </g>
   <g id="patch_49">
    <path d="M 756.389663 389.76 
L 771.95024 389.76 
L 771.95024 345.858765 
L 756.389663 345.858765 
z
" clip-path="url(#p091760d711)" style="fill: #1f77b4; stroke: #ffffff; stroke-linejoin: miter"/>
   </g>
   <g id="patch_50">
    <path d="M 771.95024 389.76 
L 787.510817 389.76 
L 787.510817 345.858765 
L 771.95024 345.858765 
z
" clip-path="url(#p091760d711)" style="fill: #1f77b4; stroke: #ffffff; stroke-linejoin: miter"/>
   </g>
   <g id="patch_51">
    <path d="M 787.510817 389.76 
L 803.071394 389.76 
L 803.071394 345.858765 
L 787.510817 345.858765 
z
" clip-path="url(#p091760d711)" style="fill: #1f77b4; stroke: #ffffff; stroke-linejoin: miter"/>
   </g>
   <g id="patch_52">
    <path d="M 803.071394 389.76 
L 818.631971 389.76 
L 818.631971 345.858765 
L 803.071394 345.858765 
z
" clip-path="url(#p091760d711)" style="fill: #1f77b4; stroke: #ffffff; stroke-linejoin: miter"/>
   </g>
   <g id="patch_53">
    <path d="M 818.631971 389.76 
L 834.192548 389.76 
L 834.192548 345.858765 
L 818.631971 345.858765 
z
" clip-path="url(#p091760d711)" style="fill: #1f77b4; stroke: #ffffff; stroke-linejoin: miter"/>
   </g>
   <g id="patch_54">
    <path d="M 834.192548 389.76 
L 849.753125 389.76 
L 849.753125 345.858765 
L 834.192548 345.858765 
z
" clip-path="url(#p091760d711)" style="fill: #1f77b4; stroke: #ffffff; stroke-linejoin: miter"/>
   </g>
   <g id="patch_55">
    <path d="M 40.603125 345.858765 
L 56.163702 345.858765 
L 56.163702 157.710617 
L 40.603125 157.710617 
z
" clip-path="url(#p091760d711)" style="fill: #ff7f0e; stroke: #ffffff; stroke-linejoin: miter"/>
   </g>
   <g id="patch_56">
    <path d="M 56.163702 345.858765 
L 71.724279 345.858765 
L 71.724279 314.500741 
L 56.163702 314.500741 
z
" clip-path="url(#p091760d711)" style="fill: #ff7f0e; stroke: #ffffff; stroke-linejoin: miter"/>
   </g>
   <g id="patch_57">
    <path d="M 71.724279 345.858765 
L 87.284856 345.858765 
L 87.284856 314.500741 
L 71.724279 314.500741 
z
" clip-path="url(#p091760d711)" style="fill: #ff7f0e; stroke: #ffffff; stroke-linejoin: miter"/>
   </g>
   <g id="patch_58">
    <path d="M 87.284856 345.858765 
L 102.845433 345.858765 
L 102.845433 327.043951 
L 87.284856 327.043951 
z
" clip-path="url(#p091760d711)" style="fill: #ff7f0e; stroke: #ffffff; stroke-linejoin: miter"/>
   </g>
   <g id="patch_59">
    <path d="M 102.845433 345.858765 
L 118.40601 345.858765 
L 118.40601 289.414321 
L 102.845433 289.414321 
z
" clip-path="url(#p091760d711)" style="fill: #ff7f0e; stroke: #ffffff; stroke-linejoin: miter"/>
   </g>
   <g id="patch_60">
    <path d="M 118.40601 345.858765 
L 133.966587 345.858765 
L 133.966587 333.315556 
L 118.40601 333.315556 
z
" clip-path="url(#p091760d711)" style="fill: #ff7f0e; stroke: #ffffff; stroke-linejoin: miter"/>
   </g>
   <g id="patch_61">
    <path d="M 133.966587 345.858765 
L 149.527163 345.858765 
L 149.527163 251.784691 
L 133.966587 251.784691 
z
" clip-path="url(#p091760d711)" style="fill: #ff7f0e; stroke: #ffffff; stroke-linejoin: miter"/>
   </g>
   <g id="patch_62">
    <path d="M 149.527163 345.858765 
L 165.08774 345.858765 
L 165.08774 51.093333 
L 149.527163 51.093333 
z
" clip-path="url(#p091760d711)" style="fill: #ff7f0e; stroke: #ffffff; stroke-linejoin: miter"/>
   </g>
   <g id="patch_63">
    <path d="M 165.08774 345.858765 
L 180.648317 345.858765 
L 180.648317 283.142716 
L 165.08774 283.142716 
z
" clip-path="url(#p091760d711)" style="fill: #ff7f0e; stroke: #ffffff; stroke-linejoin: miter"/>
   </g>
   <g id="patch_64">
    <path d="M 180.648317 345.858765 
L 196.208894 345.858765 
L 196.208894 258.056296 
L 180.648317 258.056296 
z
" clip-path="url(#p091760d711)" style="fill: #ff7f0e; stroke: #ffffff; stroke-linejoin: miter"/>
   </g>
   <g id="patch_65">
    <path d="M 196.208894 345.858765 
L 211.769471 345.858765 
L 211.769471 276.871111 
L 196.208894 276.871111 
z
" clip-path="url(#p091760d711)" style="fill: #ff7f0e; stroke: #ffffff; stroke-linejoin: miter"/>
   </g>
   <g id="patch_66">
    <path d="M 211.769471 345.858765 
L 227.330048 345.858765 
L 227.330048 327.043951 
L 211.769471 327.043951 
z
" clip-path="url(#p091760d711)" style="fill: #ff7f0e; stroke: #ffffff; stroke-linejoin: miter"/>
   </g>
   <g id="patch_67">
    <path d="M 227.330048 345.858765 
L 242.890625 345.858765 
L 242.890625 270.599506 
L 227.330048 270.599506 
z
" clip-path="url(#p091760d711)" style="fill: #ff7f0e; stroke: #ffffff; stroke-linejoin: miter"/>
   </g>
   <g id="patch_68">
    <path d="M 242.890625 345.858765 
L 258.451202 345.858765 
L 258.451202 308.229136 
L 242.890625 308.229136 
z
" clip-path="url(#p091760d711)" style="fill: #ff7f0e; stroke: #ffffff; stroke-linejoin: miter"/>
   </g>
   <g id="patch_69">
    <path d="M 258.451202 345.858765 
L 274.011779 345.858765 
L 274.011779 320.772346 
L 258.451202 320.772346 
z
" clip-path="url(#p091760d711)" style="fill: #ff7f0e; stroke: #ffffff; stroke-linejoin: miter"/>
   </g>
   <g id="patch_70">
    <path d="M 274.011779 345.858765 
L 289.572356 345.858765 
L 289.572356 308.229136 
L 274.011779 308.229136 
z
" clip-path="url(#p091760d711)" style="fill: #ff7f0e; stroke: #ffffff; stroke-linejoin: miter"/>
   </g>
   <g id="patch_71">
    <path d="M 289.572356 345.858765 
L 305.132933 345.858765 
L 305.132933 264.327901 
L 289.572356 264.327901 
z
" clip-path="url(#p091760d711)" style="fill: #ff7f0e; stroke: #ffffff; stroke-linejoin: miter"/>
   </g>
   <g id="patch_72">
    <path d="M 305.132933 345.858765 
L 320.69351 345.858765 
L 320.69351 301.957531 
L 305.132933 301.957531 
z
" clip-path="url(#p091760d711)" style="fill: #ff7f0e; stroke: #ffffff; stroke-linejoin: miter"/>
   </g>
   <g id="patch_73">
    <path d="M 320.69351 345.858765 
L 336.254087 345.858765 
L 336.254087 301.957531 
L 320.69351 301.957531 
z
" clip-path="url(#p091760d711)" style="fill: #ff7f0e; stroke: #ffffff; stroke-linejoin: miter"/>
   </g>
   <g id="patch_74">
    <path d="M 336.254087 345.858765 
L 351.814663 345.858765 
L 351.814663 295.685926 
L 336.254087 295.685926 
z
" clip-path="url(#p091760d711)" style="fill: #ff7f0e; stroke: #ffffff; stroke-linejoin: miter"/>
   </g>
   <g id="patch_75">
    <path d="M 351.814663 345.858765 
L 367.37524 345.858765 
L 367.37524 301.957531 
L 351.814663 301.957531 
z
" clip-path="url(#p091760d711)" style="fill: #ff7f0e; stroke: #ffffff; stroke-linejoin: miter"/>
   </g>
   <g id="patch_76">
    <path d="M 367.37524 345.858765 
L 382.935817 345.858765 
L 382.935817 283.142716 
L 367.37524 283.142716 
z
" clip-path="url(#p091760d711)" style="fill: #ff7f0e; stroke: #ffffff; stroke-linejoin: miter"/>
   </g>
   <g id="patch_77">
    <path d="M 382.935817 345.858765 
L 398.496394 345.858765 
L 398.496394 239.241481 
L 382.935817 239.241481 
z
" clip-path="url(#p091760d711)" style="fill: #ff7f0e; stroke: #ffffff; stroke-linejoin: miter"/>
   </g>
   <g id="patch_78">
    <path d="M 398.496394 345.858765 
L 414.056971 345.858765 
L 414.056971 301.957531 
L 398.496394 301.957531 
z
" clip-path="url(#p091760d711)" style="fill: #ff7f0e; stroke: #ffffff; stroke-linejoin: miter"/>
   </g>
   <g id="patch_79">
    <path d="M 414.056971 345.858765 
L 429.617548 345.858765 
L 429.617548 308.229136 
L 414.056971 308.229136 
z
" clip-path="url(#p091760d711)" style="fill: #ff7f0e; stroke: #ffffff; stroke-linejoin: miter"/>
   </g>
   <g id="patch_80">
    <path d="M 429.617548 345.858765 
L 445.178125 345.858765 
L 445.178125 283.142716 
L 429.617548 283.142716 
z
" clip-path="url(#p091760d711)" style="fill: #ff7f0e; stroke: #ffffff; stroke-linejoin: miter"/>
   </g>
   <g id="patch_81">
    <path d="M 445.178125 345.858765 
L 460.738702 345.858765 
L 460.738702 301.957531 
L 445.178125 301.957531 
z
" clip-path="url(#p091760d711)" style="fill: #ff7f0e; stroke: #ffffff; stroke-linejoin: miter"/>
   </g>
   <g id="patch_82">
    <path d="M 460.738702 345.858765 
L 476.299279 345.858765 
L 476.299279 295.685926 
L 460.738702 295.685926 
z
" clip-path="url(#p091760d711)" style="fill: #ff7f0e; stroke: #ffffff; stroke-linejoin: miter"/>
   </g>
   <g id="patch_83">
    <path d="M 476.299279 345.858765 
L 491.859856 345.858765 
L 491.859856 258.056296 
L 476.299279 258.056296 
z
" clip-path="url(#p091760d711)" style="fill: #ff7f0e; stroke: #ffffff; stroke-linejoin: miter"/>
   </g>
   <g id="patch_84">
    <path d="M 491.859856 345.858765 
L 507.420433 345.858765 
L 507.420433 295.685926 
L 491.859856 295.685926 
z
" clip-path="url(#p091760d711)" style="fill: #ff7f0e; stroke: #ffffff; stroke-linejoin: miter"/>
   </g>
   <g id="patch_85">
    <path d="M 507.420433 345.858765 
L 522.98101 345.858765 
L 522.98101 314.500741 
L 507.420433 314.500741 
z
" clip-path="url(#p091760d711)" style="fill: #ff7f0e; stroke: #ffffff; stroke-linejoin: miter"/>
   </g>
   <g id="patch_86">
    <path d="M 522.98101 345.858765 
L 538.541587 345.858765 
L 538.541587 276.871111 
L 522.98101 276.871111 
z
" clip-path="url(#p091760d711)" style="fill: #ff7f0e; stroke: #ffffff; stroke-linejoin: miter"/>
   </g>
   <g id="patch_87">
    <path d="M 538.541587 345.858765 
L 554.102163 345.858765 
L 554.102163 308.229136 
L 538.541587 308.229136 
z
" clip-path="url(#p091760d711)" style="fill: #ff7f0e; stroke: #ffffff; stroke-linejoin: miter"/>
   </g>
   <g id="patch_88">
    <path d="M 554.102163 345.858765 
L 569.66274 345.858765 
L 569.66274 314.500741 
L 554.102163 314.500741 
z
" clip-path="url(#p091760d711)" style="fill: #ff7f0e; stroke: #ffffff; stroke-linejoin: miter"/>
   </g>
   <g id="patch_89">
    <path d="M 569.66274 345.858765 
L 585.223317 345.858765 
L 585.223317 314.500741 
L 569.66274 314.500741 
z
" clip-path="url(#p091760d711)" style="fill: #ff7f0e; stroke: #ffffff; stroke-linejoin: miter"/>
   </g>
   <g id="patch_90">
    <path d="M 585.223317 345.858765 
L 600.783894 345.858765 
L 600.783894 270.599506 
L 585.223317 270.599506 
z
" clip-path="url(#p091760d711)" style="fill: #ff7f0e; stroke: #ffffff; stroke-linejoin: miter"/>
   </g>
   <g id="patch_91">
    <path d="M 600.783894 345.858765 
L 616.344471 345.858765 
L 616.344471 258.056296 
L 600.783894 258.056296 
z
" clip-path="url(#p091760d711)" style="fill: #ff7f0e; stroke: #ffffff; stroke-linejoin: miter"/>
   </g>
   <g id="patch_92">
    <path d="M 616.344471 345.858765 
L 631.905048 345.858765 
L 631.905048 264.327901 
L 616.344471 264.327901 
z
" clip-path="url(#p091760d711)" style="fill: #ff7f0e; stroke: #ffffff; stroke-linejoin: miter"/>
   </g>
   <g id="patch_93">
    <path d="M 631.905048 345.858765 
L 647.465625 345.858765 
L 647.465625 295.685926 
L 631.905048 295.685926 
z
" clip-path="url(#p091760d711)" style="fill: #ff7f0e; stroke: #ffffff; stroke-linejoin: miter"/>
   </g>
   <g id="patch_94">
    <path d="M 647.465625 345.858765 
L 663.026202 345.858765 
L 663.026202 264.327901 
L 647.465625 264.327901 
z
" clip-path="url(#p091760d711)" style="fill: #ff7f0e; stroke: #ffffff; stroke-linejoin: miter"/>
   </g>
   <g id="patch_95">
    <path d="M 663.026202 345.858765 
L 678.586779 345.858765 
L 678.586779 283.142716 
L 663.026202 283.142716 
z
" clip-path="url(#p091760d711)" style="fill: #ff7f0e; stroke: #ffffff; stroke-linejoin: miter"/>
   </g>
   <g id="patch_96">
    <path d="M 678.586779 345.858765 
L 694.147356 345.858765 
L 694.147356 295.685926 
L 678.586779 295.685926 
z
" clip-path="url(#p091760d711)" style="fill: #ff7f0e; stroke: #ffffff; stroke-linejoin: miter"/>
   </g>
   <g id="patch_97">
    <path d="M 694.147356 345.858765 
L 709.707933 345.858765 
L 709.707933 327.043951 
L 694.147356 327.043951 
z
" clip-path="url(#p091760d711)" style="fill: #ff7f0e; stroke: #ffffff; stroke-linejoin: miter"/>
   </g>
   <g id="patch_98">
    <path d="M 709.707933 345.858765 
L 725.26851 345.858765 
L 725.26851 270.599506 
L 709.707933 270.599506 
z
" clip-path="url(#p091760d711)" style="fill: #ff7f0e; stroke: #ffffff; stroke-linejoin: miter"/>
   </g>
   <g id="patch_99">
    <path d="M 725.26851 345.858765 
L 740.829087 345.858765 
L 740.829087 239.241481 
L 725.26851 239.241481 
z
" clip-path="url(#p091760d711)" style="fill: #ff7f0e; stroke: #ffffff; stroke-linejoin: miter"/>
   </g>
   <g id="patch_100">
    <path d="M 740.829087 345.858765 
L 756.389663 345.858765 
L 756.389663 314.500741 
L 740.829087 314.500741 
z
" clip-path="url(#p091760d711)" style="fill: #ff7f0e; stroke: #ffffff; stroke-linejoin: miter"/>
   </g>
   <g id="patch_101">
    <path d="M 756.389663 345.858765 
L 771.95024 345.858765 
L 771.95024 301.957531 
L 756.389663 301.957531 
z
" clip-path="url(#p091760d711)" style="fill: #ff7f0e; stroke: #ffffff; stroke-linejoin: miter"/>
   </g>
   <g id="patch_102">
    <path d="M 771.95024 345.858765 
L 787.510817 345.858765 
L 787.510817 345.858765 
L 771.95024 345.858765 
z
" clip-path="url(#p091760d711)" style="fill: #ff7f0e; stroke: #ffffff; stroke-linejoin: miter"/>
   </g>
   <g id="patch_103">
    <path d="M 787.510817 345.858765 
L 803.071394 345.858765 
L 803.071394 327.043951 
L 787.510817 327.043951 
z
" clip-path="url(#p091760d711)" style="fill: #ff7f0e; stroke: #ffffff; stroke-linejoin: miter"/>
   </g>
   <g id="patch_104">
    <path d="M 803.071394 345.858765 
L 818.631971 345.858765 
L 818.631971 320.772346 
L 803.071394 320.772346 
z
" clip-path="url(#p091760d711)" style="fill: #ff7f0e; stroke: #ffffff; stroke-linejoin: miter"/>
   </g>
   <g id="patch_105">
    <path d="M 818.631971 345.858765 
L 834.192548 345.858765 
L 834.192548 301.957531 
L 818.631971 301.957531 
z
" clip-path="url(#p091760d711)" style="fill: #ff7f0e; stroke: #ffffff; stroke-linejoin: miter"/>
   </g>
   <g id="patch_106">
    <path d="M 834.192548 345.858765 
L 849.753125 345.858765 
L 849.753125 201.611852 
L 834.192548 201.611852 
z
" clip-path="url(#p091760d711)" style="fill: #ff7f0e; stroke: #ffffff; stroke-linejoin: miter"/>
   </g>
   <g id="matplotlib.axis_1">
    <g id="xtick_1">
     <g id="line2d_1">
      <defs>
       <path id="m877f35bce2" d="M 0 0 
L 0 3.5 
" style="stroke: #000000; stroke-width: 0.8"/>
      </defs>
      <g>
       <use xlink:href="#m877f35bce2" x="188.428606" y="389.76" style="stroke: #000000; stroke-width: 0.8"/>
      </g>
     </g>
     <g id="text_1">
      <!-- 10 -->
      <g transform="translate(182.066106 404.358437) scale(0.1 -0.1)">
       <defs>
        <path id="DejaVuSans-31" d="M 794 531 
L 1825 531 
L 1825 4091 
L 703 3866 
L 703 4441 
L 1819 4666 
L 2450 4666 
L 2450 531 
L 3481 531 
L 3481 0 
L 794 0 
L 794 531 
z
" transform="scale(0.015625)"/>
        <path id="DejaVuSans-30" d="M 2034 4250 
Q 1547 4250 1301 3770 
Q 1056 3291 1056 2328 
Q 1056 1369 1301 889 
Q 1547 409 2034 409 
Q 2525 409 2770 889 
Q 3016 1369 3016 2328 
Q 3016 3291 2770 3770 
Q 2525 4250 2034 4250 
z
M 2034 4750 
Q 2819 4750 3233 4129 
Q 3647 3509 3647 2328 
Q 3647 1150 3233 529 
Q 2819 -91 2034 -91 
Q 1250 -91 836 529 
Q 422 1150 422 2328 
Q 422 3509 836 4129 
Q 1250 4750 2034 4750 
z
" transform="scale(0.015625)"/>
       </defs>
       <use xlink:href="#DejaVuSans-31"/>
       <use xlink:href="#DejaVuSans-30" transform="translate(63.623047 0)"/>
      </g>
     </g>
    </g>
    <g id="xtick_2">
     <g id="line2d_2">
      <g>
       <use xlink:href="#m877f35bce2" x="344.034375" y="389.76" style="stroke: #000000; stroke-width: 0.8"/>
      </g>
     </g>
     <g id="text_2">
      <!-- 20 -->
      <g transform="translate(337.671875 404.358437) scale(0.1 -0.1)">
       <defs>
        <path id="DejaVuSans-32" d="M 1228 531 
L 3431 531 
L 3431 0 
L 469 0 
L 469 531 
Q 828 903 1448 1529 
Q 2069 2156 2228 2338 
Q 2531 2678 2651 2914 
Q 2772 3150 2772 3378 
Q 2772 3750 2511 3984 
Q 2250 4219 1831 4219 
Q 1534 4219 1204 4116 
Q 875 4013 500 3803 
L 500 4441 
Q 881 4594 1212 4672 
Q 1544 4750 1819 4750 
Q 2544 4750 2975 4387 
Q 3406 4025 3406 3419 
Q 3406 3131 3298 2873 
Q 3191 2616 2906 2266 
Q 2828 2175 2409 1742 
Q 1991 1309 1228 531 
z
" transform="scale(0.015625)"/>
       </defs>
       <use xlink:href="#DejaVuSans-32"/>
       <use xlink:href="#DejaVuSans-30" transform="translate(63.623047 0)"/>
      </g>
     </g>
    </g>
    <g id="xtick_3">
     <g id="line2d_3">
      <g>
       <use xlink:href="#m877f35bce2" x="499.640144" y="389.76" style="stroke: #000000; stroke-width: 0.8"/>
      </g>
     </g>
     <g id="text_3">
      <!-- 30 -->
      <g transform="translate(493.277644 404.358437) scale(0.1 -0.1)">
       <defs>
        <path id="DejaVuSans-33" d="M 2597 2516 
Q 3050 2419 3304 2112 
Q 3559 1806 3559 1356 
Q 3559 666 3084 287 
Q 2609 -91 1734 -91 
Q 1441 -91 1130 -33 
Q 819 25 488 141 
L 488 750 
Q 750 597 1062 519 
Q 1375 441 1716 441 
Q 2309 441 2620 675 
Q 2931 909 2931 1356 
Q 2931 1769 2642 2001 
Q 2353 2234 1838 2234 
L 1294 2234 
L 1294 2753 
L 1863 2753 
Q 2328 2753 2575 2939 
Q 2822 3125 2822 3475 
Q 2822 3834 2567 4026 
Q 2313 4219 1838 4219 
Q 1578 4219 1281 4162 
Q 984 4106 628 3988 
L 628 4550 
Q 988 4650 1302 4700 
Q 1616 4750 1894 4750 
Q 2613 4750 3031 4423 
Q 3450 4097 3450 3541 
Q 3450 3153 3228 2886 
Q 3006 2619 2597 2516 
z
" transform="scale(0.015625)"/>
       </defs>
       <use xlink:href="#DejaVuSans-33"/>
       <use xlink:href="#DejaVuSans-30" transform="translate(63.623047 0)"/>
      </g>
     </g>
    </g>
    <g id="xtick_4">
     <g id="line2d_4">
      <g>
       <use xlink:href="#m877f35bce2" x="655.245913" y="389.76" style="stroke: #000000; stroke-width: 0.8"/>
      </g>
     </g>
     <g id="text_4">
      <!-- 40 -->
      <g transform="translate(648.883413 404.358437) scale(0.1 -0.1)">
       <defs>
        <path id="DejaVuSans-34" d="M 2419 4116 
L 825 1625 
L 2419 1625 
L 2419 4116 
z
M 2253 4666 
L 3047 4666 
L 3047 1625 
L 3713 1625 
L 3713 1100 
L 3047 1100 
L 3047 0 
L 2419 0 
L 2419 1100 
L 313 1100 
L 313 1709 
L 2253 4666 
z
" transform="scale(0.015625)"/>
       </defs>
       <use xlink:href="#DejaVuSans-34"/>
       <use xlink:href="#DejaVuSans-30" transform="translate(63.623047 0)"/>
      </g>
     </g>
    </g>
    <g id="xtick_5">
     <g id="line2d_5">
      <g>
       <use xlink:href="#m877f35bce2" x="810.851683" y="389.76" style="stroke: #000000; stroke-width: 0.8"/>
      </g>
     </g>
     <g id="text_5">
      <!-- 50 -->
      <g transform="translate(804.489183 404.358437) scale(0.1 -0.1)">
       <defs>
        <path id="DejaVuSans-35" d="M 691 4666 
L 3169 4666 
L 3169 4134 
L 1269 4134 
L 1269 2991 
Q 1406 3038 1543 3061 
Q 1681 3084 1819 3084 
Q 2600 3084 3056 2656 
Q 3513 2228 3513 1497 
Q 3513 744 3044 326 
Q 2575 -91 1722 -91 
Q 1428 -91 1123 -41 
Q 819 9 494 109 
L 494 744 
Q 775 591 1075 516 
Q 1375 441 1709 441 
Q 2250 441 2565 725 
Q 2881 1009 2881 1497 
Q 2881 1984 2565 2268 
Q 2250 2553 1709 2553 
Q 1456 2553 1204 2497 
Q 953 2441 691 2322 
L 691 4666 
z
" transform="scale(0.015625)"/>
       </defs>
       <use xlink:href="#DejaVuSans-35"/>
       <use xlink:href="#DejaVuSans-30" transform="translate(63.623047 0)"/>
      </g>
     </g>
    </g>
    <g id="text_6">
     <!-- Week of the Year -->
     <g transform="translate(403.1 418.036562) scale(0.1 -0.1)">
      <defs>
       <path id="DejaVuSans-57" d="M 213 4666 
L 850 4666 
L 1831 722 
L 2809 4666 
L 3519 4666 
L 4500 722 
L 5478 4666 
L 6119 4666 
L 4947 0 
L 4153 0 
L 3169 4050 
L 2175 0 
L 1381 0 
L 213 4666 
z
" transform="scale(0.015625)"/>
       <path id="DejaVuSans-65" d="M 3597 1894 
L 3597 1613 
L 953 1613 
Q 991 1019 1311 708 
Q 1631 397 2203 397 
Q 2534 397 2845 478 
Q 3156 559 3463 722 
L 3463 178 
Q 3153 47 2828 -22 
Q 2503 -91 2169 -91 
Q 1331 -91 842 396 
Q 353 884 353 1716 
Q 353 2575 817 3079 
Q 1281 3584 2069 3584 
Q 2775 3584 3186 3129 
Q 3597 2675 3597 1894 
z
M 3022 2063 
Q 3016 2534 2758 2815 
Q 2500 3097 2075 3097 
Q 1594 3097 1305 2825 
Q 1016 2553 972 2059 
L 3022 2063 
z
" transform="scale(0.015625)"/>
       <path id="DejaVuSans-6b" d="M 581 4863 
L 1159 4863 
L 1159 1991 
L 2875 3500 
L 3609 3500 
L 1753 1863 
L 3688 0 
L 2938 0 
L 1159 1709 
L 1159 0 
L 581 0 
L 581 4863 
z
" transform="scale(0.015625)"/>
       <path id="DejaVuSans-20" transform="scale(0.015625)"/>
       <path id="DejaVuSans-6f" d="M 1959 3097 
Q 1497 3097 1228 2736 
Q 959 2375 959 1747 
Q 959 1119 1226 758 
Q 1494 397 1959 397 
Q 2419 397 2687 759 
Q 2956 1122 2956 1747 
Q 2956 2369 2687 2733 
Q 2419 3097 1959 3097 
z
M 1959 3584 
Q 2709 3584 3137 3096 
Q 3566 2609 3566 1747 
Q 3566 888 3137 398 
Q 2709 -91 1959 -91 
Q 1206 -91 779 398 
Q 353 888 353 1747 
Q 353 2609 779 3096 
Q 1206 3584 1959 3584 
z
" transform="scale(0.015625)"/>
       <path id="DejaVuSans-66" d="M 2375 4863 
L 2375 4384 
L 1825 4384 
Q 1516 4384 1395 4259 
Q 1275 4134 1275 3809 
L 1275 3500 
L 2222 3500 
L 2222 3053 
L 1275 3053 
L 1275 0 
L 697 0 
L 697 3053 
L 147 3053 
L 147 3500 
L 697 3500 
L 697 3744 
Q 697 4328 969 4595 
Q 1241 4863 1831 4863 
L 2375 4863 
z
" transform="scale(0.015625)"/>
       <path id="DejaVuSans-74" d="M 1172 4494 
L 1172 3500 
L 2356 3500 
L 2356 3053 
L 1172 3053 
L 1172 1153 
Q 1172 725 1289 603 
Q 1406 481 1766 481 
L 2356 481 
L 2356 0 
L 1766 0 
Q 1100 0 847 248 
Q 594 497 594 1153 
L 594 3053 
L 172 3053 
L 172 3500 
L 594 3500 
L 594 4494 
L 1172 4494 
z
" transform="scale(0.015625)"/>
       <path id="DejaVuSans-68" d="M 3513 2113 
L 3513 0 
L 2938 0 
L 2938 2094 
Q 2938 2591 2744 2837 
Q 2550 3084 2163 3084 
Q 1697 3084 1428 2787 
Q 1159 2491 1159 1978 
L 1159 0 
L 581 0 
L 581 4863 
L 1159 4863 
L 1159 2956 
Q 1366 3272 1645 3428 
Q 1925 3584 2291 3584 
Q 2894 3584 3203 3211 
Q 3513 2838 3513 2113 
z
" transform="scale(0.015625)"/>
       <path id="DejaVuSans-59" d="M -13 4666 
L 666 4666 
L 1959 2747 
L 3244 4666 
L 3922 4666 
L 2272 2222 
L 2272 0 
L 1638 0 
L 1638 2222 
L -13 4666 
z
" transform="scale(0.015625)"/>
       <path id="DejaVuSans-61" d="M 2194 1759 
Q 1497 1759 1228 1600 
Q 959 1441 959 1056 
Q 959 750 1161 570 
Q 1363 391 1709 391 
Q 2188 391 2477 730 
Q 2766 1069 2766 1631 
L 2766 1759 
L 2194 1759 
z
M 3341 1997 
L 3341 0 
L 2766 0 
L 2766 531 
Q 2569 213 2275 61 
Q 1981 -91 1556 -91 
Q 1019 -91 701 211 
Q 384 513 384 1019 
Q 384 1609 779 1909 
Q 1175 2209 1959 2209 
L 2766 2209 
L 2766 2266 
Q 2766 2663 2505 2880 
Q 2244 3097 1772 3097 
Q 1472 3097 1187 3025 
Q 903 2953 641 2809 
L 641 3341 
Q 956 3463 1253 3523 
Q 1550 3584 1831 3584 
Q 2591 3584 2966 3190 
Q 3341 2797 3341 1997 
z
" transform="scale(0.015625)"/>
       <path id="DejaVuSans-72" d="M 2631 2963 
Q 2534 3019 2420 3045 
Q 2306 3072 2169 3072 
Q 1681 3072 1420 2755 
Q 1159 2438 1159 1844 
L 1159 0 
L 581 0 
L 581 3500 
L 1159 3500 
L 1159 2956 
Q 1341 3275 1631 3429 
Q 1922 3584 2338 3584 
Q 2397 3584 2469 3576 
Q 2541 3569 2628 3553 
L 2631 2963 
z
" transform="scale(0.015625)"/>
      </defs>
      <use xlink:href="#DejaVuSans-57"/>
      <use xlink:href="#DejaVuSans-65" transform="translate(93.001953 0)"/>
      <use xlink:href="#DejaVuSans-65" transform="translate(154.525391 0)"/>
      <use xlink:href="#DejaVuSans-6b" transform="translate(216.048828 0)"/>
      <use xlink:href="#DejaVuSans-20" transform="translate(273.958984 0)"/>
      <use xlink:href="#DejaVuSans-6f" transform="translate(305.746094 0)"/>
      <use xlink:href="#DejaVuSans-66" transform="translate(366.927734 0)"/>
      <use xlink:href="#DejaVuSans-20" transform="translate(402.132812 0)"/>
      <use xlink:href="#DejaVuSans-74" transform="translate(433.919922 0)"/>
      <use xlink:href="#DejaVuSans-68" transform="translate(473.128906 0)"/>
      <use xlink:href="#DejaVuSans-65" transform="translate(536.507812 0)"/>
      <use xlink:href="#DejaVuSans-20" transform="translate(598.03125 0)"/>
      <use xlink:href="#DejaVuSans-59" transform="translate(629.818359 0)"/>
      <use xlink:href="#DejaVuSans-65" transform="translate(677.652344 0)"/>
      <use xlink:href="#DejaVuSans-61" transform="translate(739.175781 0)"/>
      <use xlink:href="#DejaVuSans-72" transform="translate(800.455078 0)"/>
     </g>
    </g>
   </g>
   <g id="matplotlib.axis_2">
    <g id="ytick_1">
     <g id="line2d_6">
      <path d="M 40.603125 389.76 
L 849.753125 389.76 
" clip-path="url(#p091760d711)" style="fill: none; stroke-dasharray: 2.96,1.28; stroke-dashoffset: 0; stroke: #b0b0b0; stroke-opacity: 0.7; stroke-width: 0.8"/>
     </g>
     <g id="line2d_7">
      <defs>
       <path id="m32a18a0f12" d="M 0 0 
L -3.5 0 
" style="stroke: #000000; stroke-width: 0.8"/>
      </defs>
      <g>
       <use xlink:href="#m32a18a0f12" x="40.603125" y="389.76" style="stroke: #000000; stroke-width: 0.8"/>
      </g>
     </g>
     <g id="text_7">
      <!-- 0 -->
      <g transform="translate(27.240625 393.559219) scale(0.1 -0.1)">
       <use xlink:href="#DejaVuSans-30"/>
      </g>
     </g>
    </g>
    <g id="ytick_2">
     <g id="line2d_8">
      <path d="M 40.603125 327.043951 
L 849.753125 327.043951 
" clip-path="url(#p091760d711)" style="fill: none; stroke-dasharray: 2.96,1.28; stroke-dashoffset: 0; stroke: #b0b0b0; stroke-opacity: 0.7; stroke-width: 0.8"/>
     </g>
     <g id="line2d_9">
      <g>
       <use xlink:href="#m32a18a0f12" x="40.603125" y="327.043951" style="stroke: #000000; stroke-width: 0.8"/>
      </g>
     </g>
     <g id="text_8">
      <!-- 10 -->
      <g transform="translate(20.878125 330.843169) scale(0.1 -0.1)">
       <use xlink:href="#DejaVuSans-31"/>
       <use xlink:href="#DejaVuSans-30" transform="translate(63.623047 0)"/>
      </g>
     </g>
    </g>
    <g id="ytick_3">
     <g id="line2d_10">
      <path d="M 40.603125 264.327901 
L 849.753125 264.327901 
" clip-path="url(#p091760d711)" style="fill: none; stroke-dasharray: 2.96,1.28; stroke-dashoffset: 0; stroke: #b0b0b0; stroke-opacity: 0.7; stroke-width: 0.8"/>
     </g>
     <g id="line2d_11">
      <g>
       <use xlink:href="#m32a18a0f12" x="40.603125" y="264.327901" style="stroke: #000000; stroke-width: 0.8"/>
      </g>
     </g>
     <g id="text_9">
      <!-- 20 -->
      <g transform="translate(20.878125 268.12712) scale(0.1 -0.1)">
       <use xlink:href="#DejaVuSans-32"/>
       <use xlink:href="#DejaVuSans-30" transform="translate(63.623047 0)"/>
      </g>
     </g>
    </g>
    <g id="ytick_4">
     <g id="line2d_12">
      <path d="M 40.603125 201.611852 
L 849.753125 201.611852 
" clip-path="url(#p091760d711)" style="fill: none; stroke-dasharray: 2.96,1.28; stroke-dashoffset: 0; stroke: #b0b0b0; stroke-opacity: 0.7; stroke-width: 0.8"/>
     </g>
     <g id="line2d_13">
      <g>
       <use xlink:href="#m32a18a0f12" x="40.603125" y="201.611852" style="stroke: #000000; stroke-width: 0.8"/>
      </g>
     </g>
     <g id="text_10">
      <!-- 30 -->
      <g transform="translate(20.878125 205.411071) scale(0.1 -0.1)">
       <use xlink:href="#DejaVuSans-33"/>
       <use xlink:href="#DejaVuSans-30" transform="translate(63.623047 0)"/>
      </g>
     </g>
    </g>
    <g id="ytick_5">
     <g id="line2d_14">
      <path d="M 40.603125 138.895802 
L 849.753125 138.895802 
" clip-path="url(#p091760d711)" style="fill: none; stroke-dasharray: 2.96,1.28; stroke-dashoffset: 0; stroke: #b0b0b0; stroke-opacity: 0.7; stroke-width: 0.8"/>
     </g>
     <g id="line2d_15">
      <g>
       <use xlink:href="#m32a18a0f12" x="40.603125" y="138.895802" style="stroke: #000000; stroke-width: 0.8"/>
      </g>
     </g>
     <g id="text_11">
      <!-- 40 -->
      <g transform="translate(20.878125 142.695021) scale(0.1 -0.1)">
       <use xlink:href="#DejaVuSans-34"/>
       <use xlink:href="#DejaVuSans-30" transform="translate(63.623047 0)"/>
      </g>
     </g>
    </g>
    <g id="ytick_6">
     <g id="line2d_16">
      <path d="M 40.603125 76.179753 
L 849.753125 76.179753 
" clip-path="url(#p091760d711)" style="fill: none; stroke-dasharray: 2.96,1.28; stroke-dashoffset: 0; stroke: #b0b0b0; stroke-opacity: 0.7; stroke-width: 0.8"/>
     </g>
     <g id="line2d_17">
      <g>
       <use xlink:href="#m32a18a0f12" x="40.603125" y="76.179753" style="stroke: #000000; stroke-width: 0.8"/>
      </g>
     </g>
     <g id="text_12">
      <!-- 50 -->
      <g transform="translate(20.878125 79.978972) scale(0.1 -0.1)">
       <use xlink:href="#DejaVuSans-35"/>
       <use xlink:href="#DejaVuSans-30" transform="translate(63.623047 0)"/>
      </g>
     </g>
    </g>
    <g id="text_13">
     <!-- Weekly firm capacity (MW) -->
     <g transform="translate(14.798438 279.030312) rotate(-90) scale(0.1 -0.1)">
      <defs>
       <path id="DejaVuSans-6c" d="M 603 4863 
L 1178 4863 
L 1178 0 
L 603 0 
L 603 4863 
z
" transform="scale(0.015625)"/>
       <path id="DejaVuSans-79" d="M 2059 -325 
Q 1816 -950 1584 -1140 
Q 1353 -1331 966 -1331 
L 506 -1331 
L 506 -850 
L 844 -850 
Q 1081 -850 1212 -737 
Q 1344 -625 1503 -206 
L 1606 56 
L 191 3500 
L 800 3500 
L 1894 763 
L 2988 3500 
L 3597 3500 
L 2059 -325 
z
" transform="scale(0.015625)"/>
       <path id="DejaVuSans-69" d="M 603 3500 
L 1178 3500 
L 1178 0 
L 603 0 
L 603 3500 
z
M 603 4863 
L 1178 4863 
L 1178 4134 
L 603 4134 
L 603 4863 
z
" transform="scale(0.015625)"/>
       <path id="DejaVuSans-6d" d="M 3328 2828 
Q 3544 3216 3844 3400 
Q 4144 3584 4550 3584 
Q 5097 3584 5394 3201 
Q 5691 2819 5691 2113 
L 5691 0 
L 5113 0 
L 5113 2094 
Q 5113 2597 4934 2840 
Q 4756 3084 4391 3084 
Q 3944 3084 3684 2787 
Q 3425 2491 3425 1978 
L 3425 0 
L 2847 0 
L 2847 2094 
Q 2847 2600 2669 2842 
Q 2491 3084 2119 3084 
Q 1678 3084 1418 2786 
Q 1159 2488 1159 1978 
L 1159 0 
L 581 0 
L 581 3500 
L 1159 3500 
L 1159 2956 
Q 1356 3278 1631 3431 
Q 1906 3584 2284 3584 
Q 2666 3584 2933 3390 
Q 3200 3197 3328 2828 
z
" transform="scale(0.015625)"/>
       <path id="DejaVuSans-63" d="M 3122 3366 
L 3122 2828 
Q 2878 2963 2633 3030 
Q 2388 3097 2138 3097 
Q 1578 3097 1268 2742 
Q 959 2388 959 1747 
Q 959 1106 1268 751 
Q 1578 397 2138 397 
Q 2388 397 2633 464 
Q 2878 531 3122 666 
L 3122 134 
Q 2881 22 2623 -34 
Q 2366 -91 2075 -91 
Q 1284 -91 818 406 
Q 353 903 353 1747 
Q 353 2603 823 3093 
Q 1294 3584 2113 3584 
Q 2378 3584 2631 3529 
Q 2884 3475 3122 3366 
z
" transform="scale(0.015625)"/>
       <path id="DejaVuSans-70" d="M 1159 525 
L 1159 -1331 
L 581 -1331 
L 581 3500 
L 1159 3500 
L 1159 2969 
Q 1341 3281 1617 3432 
Q 1894 3584 2278 3584 
Q 2916 3584 3314 3078 
Q 3713 2572 3713 1747 
Q 3713 922 3314 415 
Q 2916 -91 2278 -91 
Q 1894 -91 1617 61 
Q 1341 213 1159 525 
z
M 3116 1747 
Q 3116 2381 2855 2742 
Q 2594 3103 2138 3103 
Q 1681 3103 1420 2742 
Q 1159 2381 1159 1747 
Q 1159 1113 1420 752 
Q 1681 391 2138 391 
Q 2594 391 2855 752 
Q 3116 1113 3116 1747 
z
" transform="scale(0.015625)"/>
       <path id="DejaVuSans-28" d="M 1984 4856 
Q 1566 4138 1362 3434 
Q 1159 2731 1159 2009 
Q 1159 1288 1364 580 
Q 1569 -128 1984 -844 
L 1484 -844 
Q 1016 -109 783 600 
Q 550 1309 550 2009 
Q 550 2706 781 3412 
Q 1013 4119 1484 4856 
L 1984 4856 
z
" transform="scale(0.015625)"/>
       <path id="DejaVuSans-4d" d="M 628 4666 
L 1569 4666 
L 2759 1491 
L 3956 4666 
L 4897 4666 
L 4897 0 
L 4281 0 
L 4281 4097 
L 3078 897 
L 2444 897 
L 1241 4097 
L 1241 0 
L 628 0 
L 628 4666 
z
" transform="scale(0.015625)"/>
       <path id="DejaVuSans-29" d="M 513 4856 
L 1013 4856 
Q 1481 4119 1714 3412 
Q 1947 2706 1947 2009 
Q 1947 1309 1714 600 
Q 1481 -109 1013 -844 
L 513 -844 
Q 928 -128 1133 580 
Q 1338 1288 1338 2009 
Q 1338 2731 1133 3434 
Q 928 4138 513 4856 
z
" transform="scale(0.015625)"/>
      </defs>
      <use xlink:href="#DejaVuSans-57"/>
      <use xlink:href="#DejaVuSans-65" transform="translate(93.001953 0)"/>
      <use xlink:href="#DejaVuSans-65" transform="translate(154.525391 0)"/>
      <use xlink:href="#DejaVuSans-6b" transform="translate(216.048828 0)"/>
      <use xlink:href="#DejaVuSans-6c" transform="translate(273.958984 0)"/>
      <use xlink:href="#DejaVuSans-79" transform="translate(301.742188 0)"/>
      <use xlink:href="#DejaVuSans-20" transform="translate(360.921875 0)"/>
      <use xlink:href="#DejaVuSans-66" transform="translate(392.708984 0)"/>
      <use xlink:href="#DejaVuSans-69" transform="translate(427.914062 0)"/>
      <use xlink:href="#DejaVuSans-72" transform="translate(455.697266 0)"/>
      <use xlink:href="#DejaVuSans-6d" transform="translate(495.060547 0)"/>
      <use xlink:href="#DejaVuSans-20" transform="translate(592.472656 0)"/>
      <use xlink:href="#DejaVuSans-63" transform="translate(624.259766 0)"/>
      <use xlink:href="#DejaVuSans-61" transform="translate(679.240234 0)"/>
      <use xlink:href="#DejaVuSans-70" transform="translate(740.519531 0)"/>
      <use xlink:href="#DejaVuSans-61" transform="translate(803.996094 0)"/>
      <use xlink:href="#DejaVuSans-63" transform="translate(865.275391 0)"/>
      <use xlink:href="#DejaVuSans-69" transform="translate(920.255859 0)"/>
      <use xlink:href="#DejaVuSans-74" transform="translate(948.039062 0)"/>
      <use xlink:href="#DejaVuSans-79" transform="translate(987.248047 0)"/>
      <use xlink:href="#DejaVuSans-20" transform="translate(1046.427734 0)"/>
      <use xlink:href="#DejaVuSans-28" transform="translate(1078.214844 0)"/>
      <use xlink:href="#DejaVuSans-4d" transform="translate(1117.228516 0)"/>
      <use xlink:href="#DejaVuSans-57" transform="translate(1203.507812 0)"/>
      <use xlink:href="#DejaVuSans-29" transform="translate(1302.384766 0)"/>
     </g>
    </g>
   </g>
   <g id="patch_107">
    <path d="M 40.603125 389.76 
L 40.603125 34.16 
" style="fill: none; stroke: #000000; stroke-width: 0.8; stroke-linejoin: miter; stroke-linecap: square"/>
   </g>
   <g id="patch_108">
    <path d="M 849.753125 389.76 
L 849.753125 34.16 
" style="fill: none; stroke: #000000; stroke-width: 0.8; stroke-linejoin: miter; stroke-linecap: square"/>
   </g>
   <g id="patch_109">
    <path d="M 40.603125 389.76 
L 849.753125 389.76 
" style="fill: none; stroke: #000000; stroke-width: 0.8; stroke-linejoin: miter; stroke-linecap: square"/>
   </g>
   <g id="patch_110">
    <path d="M 40.603125 34.16 
L 849.753125 34.16 
" style="fill: none; stroke: #000000; stroke-width: 0.8; stroke-linejoin: miter; stroke-linecap: square"/>
   </g>
   <g id="legend_1">
    <g id="patch_111">
     <path d="M 679.025 71.51625 
L 842.753125 71.51625 
Q 844.753125 71.51625 844.753125 69.51625 
L 844.753125 41.16 
Q 844.753125 39.16 842.753125 39.16 
L 679.025 39.16 
Q 677.025 39.16 677.025 41.16 
L 677.025 69.51625 
Q 677.025 71.51625 679.025 71.51625 
z
" style="fill: #ffffff; opacity: 0.8; stroke: #cccccc; stroke-linejoin: miter"/>
    </g>
    <g id="patch_112">
     <path d="M 681.025 50.758437 
L 701.025 50.758437 
L 701.025 43.758437 
L 681.025 43.758437 
z
" style="fill: #1f77b4; stroke: #ffffff; stroke-linejoin: miter"/>
    </g>
    <g id="text_14">
     <!-- Annual baseload (7.0 MW) -->
     <g transform="translate(709.025 50.758437) scale(0.1 -0.1)">
      <defs>
       <path id="DejaVuSans-41" d="M 2188 4044 
L 1331 1722 
L 3047 1722 
L 2188 4044 
z
M 1831 4666 
L 2547 4666 
L 4325 0 
L 3669 0 
L 3244 1197 
L 1141 1197 
L 716 0 
L 50 0 
L 1831 4666 
z
" transform="scale(0.015625)"/>
       <path id="DejaVuSans-6e" d="M 3513 2113 
L 3513 0 
L 2938 0 
L 2938 2094 
Q 2938 2591 2744 2837 
Q 2550 3084 2163 3084 
Q 1697 3084 1428 2787 
Q 1159 2491 1159 1978 
L 1159 0 
L 581 0 
L 581 3500 
L 1159 3500 
L 1159 2956 
Q 1366 3272 1645 3428 
Q 1925 3584 2291 3584 
Q 2894 3584 3203 3211 
Q 3513 2838 3513 2113 
z
" transform="scale(0.015625)"/>
       <path id="DejaVuSans-75" d="M 544 1381 
L 544 3500 
L 1119 3500 
L 1119 1403 
Q 1119 906 1312 657 
Q 1506 409 1894 409 
Q 2359 409 2629 706 
Q 2900 1003 2900 1516 
L 2900 3500 
L 3475 3500 
L 3475 0 
L 2900 0 
L 2900 538 
Q 2691 219 2414 64 
Q 2138 -91 1772 -91 
Q 1169 -91 856 284 
Q 544 659 544 1381 
z
M 1991 3584 
L 1991 3584 
z
" transform="scale(0.015625)"/>
       <path id="DejaVuSans-62" d="M 3116 1747 
Q 3116 2381 2855 2742 
Q 2594 3103 2138 3103 
Q 1681 3103 1420 2742 
Q 1159 2381 1159 1747 
Q 1159 1113 1420 752 
Q 1681 391 2138 391 
Q 2594 391 2855 752 
Q 3116 1113 3116 1747 
z
M 1159 2969 
Q 1341 3281 1617 3432 
Q 1894 3584 2278 3584 
Q 2916 3584 3314 3078 
Q 3713 2572 3713 1747 
Q 3713 922 3314 415 
Q 2916 -91 2278 -91 
Q 1894 -91 1617 61 
Q 1341 213 1159 525 
L 1159 0 
L 581 0 
L 581 4863 
L 1159 4863 
L 1159 2969 
z
" transform="scale(0.015625)"/>
       <path id="DejaVuSans-73" d="M 2834 3397 
L 2834 2853 
Q 2591 2978 2328 3040 
Q 2066 3103 1784 3103 
Q 1356 3103 1142 2972 
Q 928 2841 928 2578 
Q 928 2378 1081 2264 
Q 1234 2150 1697 2047 
L 1894 2003 
Q 2506 1872 2764 1633 
Q 3022 1394 3022 966 
Q 3022 478 2636 193 
Q 2250 -91 1575 -91 
Q 1294 -91 989 -36 
Q 684 19 347 128 
L 347 722 
Q 666 556 975 473 
Q 1284 391 1588 391 
Q 1994 391 2212 530 
Q 2431 669 2431 922 
Q 2431 1156 2273 1281 
Q 2116 1406 1581 1522 
L 1381 1569 
Q 847 1681 609 1914 
Q 372 2147 372 2553 
Q 372 3047 722 3315 
Q 1072 3584 1716 3584 
Q 2034 3584 2315 3537 
Q 2597 3491 2834 3397 
z
" transform="scale(0.015625)"/>
       <path id="DejaVuSans-64" d="M 2906 2969 
L 2906 4863 
L 3481 4863 
L 3481 0 
L 2906 0 
L 2906 525 
Q 2725 213 2448 61 
Q 2172 -91 1784 -91 
Q 1150 -91 751 415 
Q 353 922 353 1747 
Q 353 2572 751 3078 
Q 1150 3584 1784 3584 
Q 2172 3584 2448 3432 
Q 2725 3281 2906 2969 
z
M 947 1747 
Q 947 1113 1208 752 
Q 1469 391 1925 391 
Q 2381 391 2643 752 
Q 2906 1113 2906 1747 
Q 2906 2381 2643 2742 
Q 2381 3103 1925 3103 
Q 1469 3103 1208 2742 
Q 947 2381 947 1747 
z
" transform="scale(0.015625)"/>
       <path id="DejaVuSans-37" d="M 525 4666 
L 3525 4666 
L 3525 4397 
L 1831 0 
L 1172 0 
L 2766 4134 
L 525 4134 
L 525 4666 
z
" transform="scale(0.015625)"/>
       <path id="DejaVuSans-2e" d="M 684 794 
L 1344 794 
L 1344 0 
L 684 0 
L 684 794 
z
" transform="scale(0.015625)"/>
      </defs>
      <use xlink:href="#DejaVuSans-41"/>
      <use xlink:href="#DejaVuSans-6e" transform="translate(68.408203 0)"/>
      <use xlink:href="#DejaVuSans-6e" transform="translate(131.787109 0)"/>
      <use xlink:href="#DejaVuSans-75" transform="translate(195.166016 0)"/>
      <use xlink:href="#DejaVuSans-61" transform="translate(258.544922 0)"/>
      <use xlink:href="#DejaVuSans-6c" transform="translate(319.824219 0)"/>
      <use xlink:href="#DejaVuSans-20" transform="translate(347.607422 0)"/>
      <use xlink:href="#DejaVuSans-62" transform="translate(379.394531 0)"/>
      <use xlink:href="#DejaVuSans-61" transform="translate(442.871094 0)"/>
      <use xlink:href="#DejaVuSans-73" transform="translate(504.150391 0)"/>
      <use xlink:href="#DejaVuSans-65" transform="translate(556.25 0)"/>
      <use xlink:href="#DejaVuSans-6c" transform="translate(617.773438 0)"/>
      <use xlink:href="#DejaVuSans-6f" transform="translate(645.556641 0)"/>
      <use xlink:href="#DejaVuSans-61" transform="translate(706.738281 0)"/>
      <use xlink:href="#DejaVuSans-64" transform="translate(768.017578 0)"/>
      <use xlink:href="#DejaVuSans-20" transform="translate(831.494141 0)"/>
      <use xlink:href="#DejaVuSans-28" transform="translate(863.28125 0)"/>
      <use xlink:href="#DejaVuSans-37" transform="translate(902.294922 0)"/>
      <use xlink:href="#DejaVuSans-2e" transform="translate(965.917969 0)"/>
      <use xlink:href="#DejaVuSans-30" transform="translate(997.705078 0)"/>
      <use xlink:href="#DejaVuSans-20" transform="translate(1061.328125 0)"/>
      <use xlink:href="#DejaVuSans-4d" transform="translate(1093.115234 0)"/>
      <use xlink:href="#DejaVuSans-57" transform="translate(1179.394531 0)"/>
      <use xlink:href="#DejaVuSans-29" transform="translate(1278.271484 0)"/>
     </g>
    </g>
    <g id="patch_113">
     <path d="M 681.025 65.436562 
L 701.025 65.436562 
L 701.025 58.436562 
L 681.025 58.436562 
z
" style="fill: #ff7f0e; stroke: #ffffff; stroke-linejoin: miter"/>
    </g>
    <g id="text_15">
     <!-- Weekly Capacity Blocks -->
     <g transform="translate(709.025 65.436562) scale(0.1 -0.1)">
      <defs>
       <path id="DejaVuSans-43" d="M 4122 4306 
L 4122 3641 
Q 3803 3938 3442 4084 
Q 3081 4231 2675 4231 
Q 1875 4231 1450 3742 
Q 1025 3253 1025 2328 
Q 1025 1406 1450 917 
Q 1875 428 2675 428 
Q 3081 428 3442 575 
Q 3803 722 4122 1019 
L 4122 359 
Q 3791 134 3420 21 
Q 3050 -91 2638 -91 
Q 1578 -91 968 557 
Q 359 1206 359 2328 
Q 359 3453 968 4101 
Q 1578 4750 2638 4750 
Q 3056 4750 3426 4639 
Q 3797 4528 4122 4306 
z
" transform="scale(0.015625)"/>
       <path id="DejaVuSans-42" d="M 1259 2228 
L 1259 519 
L 2272 519 
Q 2781 519 3026 730 
Q 3272 941 3272 1375 
Q 3272 1813 3026 2020 
Q 2781 2228 2272 2228 
L 1259 2228 
z
M 1259 4147 
L 1259 2741 
L 2194 2741 
Q 2656 2741 2882 2914 
Q 3109 3088 3109 3444 
Q 3109 3797 2882 3972 
Q 2656 4147 2194 4147 
L 1259 4147 
z
M 628 4666 
L 2241 4666 
Q 2963 4666 3353 4366 
Q 3744 4066 3744 3513 
Q 3744 3084 3544 2831 
Q 3344 2578 2956 2516 
Q 3422 2416 3680 2098 
Q 3938 1781 3938 1306 
Q 3938 681 3513 340 
Q 3088 0 2303 0 
L 628 0 
L 628 4666 
z
" transform="scale(0.015625)"/>
      </defs>
      <use xlink:href="#DejaVuSans-57"/>
      <use xlink:href="#DejaVuSans-65" transform="translate(93.001953 0)"/>
      <use xlink:href="#DejaVuSans-65" transform="translate(154.525391 0)"/>
      <use xlink:href="#DejaVuSans-6b" transform="translate(216.048828 0)"/>
      <use xlink:href="#DejaVuSans-6c" transform="translate(273.958984 0)"/>
      <use xlink:href="#DejaVuSans-79" transform="translate(301.742188 0)"/>
      <use xlink:href="#DejaVuSans-20" transform="translate(360.921875 0)"/>
      <use xlink:href="#DejaVuSans-43" transform="translate(392.708984 0)"/>
      <use xlink:href="#DejaVuSans-61" transform="translate(462.533203 0)"/>
      <use xlink:href="#DejaVuSans-70" transform="translate(523.8125 0)"/>
      <use xlink:href="#DejaVuSans-61" transform="translate(587.289062 0)"/>
      <use xlink:href="#DejaVuSans-63" transform="translate(648.568359 0)"/>
      <use xlink:href="#DejaVuSans-69" transform="translate(703.548828 0)"/>
      <use xlink:href="#DejaVuSans-74" transform="translate(731.332031 0)"/>
      <use xlink:href="#DejaVuSans-79" transform="translate(770.541016 0)"/>
      <use xlink:href="#DejaVuSans-20" transform="translate(829.720703 0)"/>
      <use xlink:href="#DejaVuSans-42" transform="translate(861.507812 0)"/>
      <use xlink:href="#DejaVuSans-6c" transform="translate(930.111328 0)"/>
      <use xlink:href="#DejaVuSans-6f" transform="translate(957.894531 0)"/>
      <use xlink:href="#DejaVuSans-63" transform="translate(1019.076172 0)"/>
      <use xlink:href="#DejaVuSans-6b" transform="translate(1074.056641 0)"/>
      <use xlink:href="#DejaVuSans-73" transform="translate(1131.966797 0)"/>
     </g>
    </g>
   </g>
  </g>
  <g id="text_16">
   <!-- Weekly simulation: Baseload vs. Capacity Blocks -->
   <g transform="translate(236.610938 17.837812) scale(0.14 -0.14)">
    <defs>
     <path id="DejaVuSans-Bold-57" d="M 191 4666 
L 1344 4666 
L 2150 1275 
L 2950 4666 
L 4109 4666 
L 4909 1275 
L 5716 4666 
L 6859 4666 
L 5759 0 
L 4372 0 
L 3525 3547 
L 2688 0 
L 1300 0 
L 191 4666 
z
" transform="scale(0.015625)"/>
     <path id="DejaVuSans-Bold-65" d="M 4031 1759 
L 4031 1441 
L 1416 1441 
Q 1456 1047 1700 850 
Q 1944 653 2381 653 
Q 2734 653 3104 758 
Q 3475 863 3866 1075 
L 3866 213 
Q 3469 63 3072 -14 
Q 2675 -91 2278 -91 
Q 1328 -91 801 392 
Q 275 875 275 1747 
Q 275 2603 792 3093 
Q 1309 3584 2216 3584 
Q 3041 3584 3536 3087 
Q 4031 2591 4031 1759 
z
M 2881 2131 
Q 2881 2450 2695 2645 
Q 2509 2841 2209 2841 
Q 1884 2841 1681 2658 
Q 1478 2475 1428 2131 
L 2881 2131 
z
" transform="scale(0.015625)"/>
     <path id="DejaVuSans-Bold-6b" d="M 538 4863 
L 1656 4863 
L 1656 2216 
L 2944 3500 
L 4244 3500 
L 2534 1894 
L 4378 0 
L 3022 0 
L 1656 1459 
L 1656 0 
L 538 0 
L 538 4863 
z
" transform="scale(0.015625)"/>
     <path id="DejaVuSans-Bold-6c" d="M 538 4863 
L 1656 4863 
L 1656 0 
L 538 0 
L 538 4863 
z
" transform="scale(0.015625)"/>
     <path id="DejaVuSans-Bold-79" d="M 78 3500 
L 1197 3500 
L 2138 1125 
L 2938 3500 
L 4056 3500 
L 2584 -331 
Q 2363 -916 2067 -1148 
Q 1772 -1381 1288 -1381 
L 641 -1381 
L 641 -647 
L 991 -647 
Q 1275 -647 1404 -556 
Q 1534 -466 1606 -231 
L 1638 -134 
L 78 3500 
z
" transform="scale(0.015625)"/>
     <path id="DejaVuSans-Bold-20" transform="scale(0.015625)"/>
     <path id="DejaVuSans-Bold-73" d="M 3272 3391 
L 3272 2541 
Q 2913 2691 2578 2766 
Q 2244 2841 1947 2841 
Q 1628 2841 1473 2761 
Q 1319 2681 1319 2516 
Q 1319 2381 1436 2309 
Q 1553 2238 1856 2203 
L 2053 2175 
Q 2913 2066 3209 1816 
Q 3506 1566 3506 1031 
Q 3506 472 3093 190 
Q 2681 -91 1863 -91 
Q 1516 -91 1145 -36 
Q 775 19 384 128 
L 384 978 
Q 719 816 1070 734 
Q 1422 653 1784 653 
Q 2113 653 2278 743 
Q 2444 834 2444 1013 
Q 2444 1163 2330 1236 
Q 2216 1309 1875 1350 
L 1678 1375 
Q 931 1469 631 1722 
Q 331 1975 331 2491 
Q 331 3047 712 3315 
Q 1094 3584 1881 3584 
Q 2191 3584 2531 3537 
Q 2872 3491 3272 3391 
z
" transform="scale(0.015625)"/>
     <path id="DejaVuSans-Bold-69" d="M 538 3500 
L 1656 3500 
L 1656 0 
L 538 0 
L 538 3500 
z
M 538 4863 
L 1656 4863 
L 1656 3950 
L 538 3950 
L 538 4863 
z
" transform="scale(0.015625)"/>
     <path id="DejaVuSans-Bold-6d" d="M 3781 2919 
Q 3994 3244 4286 3414 
Q 4578 3584 4928 3584 
Q 5531 3584 5847 3212 
Q 6163 2841 6163 2131 
L 6163 0 
L 5038 0 
L 5038 1825 
Q 5041 1866 5042 1909 
Q 5044 1953 5044 2034 
Q 5044 2406 4934 2573 
Q 4825 2741 4581 2741 
Q 4263 2741 4089 2478 
Q 3916 2216 3909 1719 
L 3909 0 
L 2784 0 
L 2784 1825 
Q 2784 2406 2684 2573 
Q 2584 2741 2328 2741 
Q 2006 2741 1831 2477 
Q 1656 2213 1656 1722 
L 1656 0 
L 531 0 
L 531 3500 
L 1656 3500 
L 1656 2988 
Q 1863 3284 2130 3434 
Q 2397 3584 2719 3584 
Q 3081 3584 3359 3409 
Q 3638 3234 3781 2919 
z
" transform="scale(0.015625)"/>
     <path id="DejaVuSans-Bold-75" d="M 500 1363 
L 500 3500 
L 1625 3500 
L 1625 3150 
Q 1625 2866 1622 2436 
Q 1619 2006 1619 1863 
Q 1619 1441 1641 1255 
Q 1663 1069 1716 984 
Q 1784 875 1895 815 
Q 2006 756 2150 756 
Q 2500 756 2700 1025 
Q 2900 1294 2900 1772 
L 2900 3500 
L 4019 3500 
L 4019 0 
L 2900 0 
L 2900 506 
Q 2647 200 2364 54 
Q 2081 -91 1741 -91 
Q 1134 -91 817 281 
Q 500 653 500 1363 
z
" transform="scale(0.015625)"/>
     <path id="DejaVuSans-Bold-61" d="M 2106 1575 
Q 1756 1575 1579 1456 
Q 1403 1338 1403 1106 
Q 1403 894 1545 773 
Q 1688 653 1941 653 
Q 2256 653 2472 879 
Q 2688 1106 2688 1447 
L 2688 1575 
L 2106 1575 
z
M 3816 1997 
L 3816 0 
L 2688 0 
L 2688 519 
Q 2463 200 2181 54 
Q 1900 -91 1497 -91 
Q 953 -91 614 226 
Q 275 544 275 1050 
Q 275 1666 698 1953 
Q 1122 2241 2028 2241 
L 2688 2241 
L 2688 2328 
Q 2688 2594 2478 2717 
Q 2269 2841 1825 2841 
Q 1466 2841 1156 2769 
Q 847 2697 581 2553 
L 581 3406 
Q 941 3494 1303 3539 
Q 1666 3584 2028 3584 
Q 2975 3584 3395 3211 
Q 3816 2838 3816 1997 
z
" transform="scale(0.015625)"/>
     <path id="DejaVuSans-Bold-74" d="M 1759 4494 
L 1759 3500 
L 2913 3500 
L 2913 2700 
L 1759 2700 
L 1759 1216 
Q 1759 972 1856 886 
Q 1953 800 2241 800 
L 2816 800 
L 2816 0 
L 1856 0 
Q 1194 0 917 276 
Q 641 553 641 1216 
L 641 2700 
L 84 2700 
L 84 3500 
L 641 3500 
L 641 4494 
L 1759 4494 
z
" transform="scale(0.015625)"/>
     <path id="DejaVuSans-Bold-6f" d="M 2203 2784 
Q 1831 2784 1636 2517 
Q 1441 2250 1441 1747 
Q 1441 1244 1636 976 
Q 1831 709 2203 709 
Q 2569 709 2762 976 
Q 2956 1244 2956 1747 
Q 2956 2250 2762 2517 
Q 2569 2784 2203 2784 
z
M 2203 3584 
Q 3106 3584 3614 3096 
Q 4122 2609 4122 1747 
Q 4122 884 3614 396 
Q 3106 -91 2203 -91 
Q 1297 -91 786 396 
Q 275 884 275 1747 
Q 275 2609 786 3096 
Q 1297 3584 2203 3584 
z
" transform="scale(0.015625)"/>
     <path id="DejaVuSans-Bold-6e" d="M 4056 2131 
L 4056 0 
L 2931 0 
L 2931 347 
L 2931 1631 
Q 2931 2084 2911 2256 
Q 2891 2428 2841 2509 
Q 2775 2619 2662 2680 
Q 2550 2741 2406 2741 
Q 2056 2741 1856 2470 
Q 1656 2200 1656 1722 
L 1656 0 
L 538 0 
L 538 3500 
L 1656 3500 
L 1656 2988 
Q 1909 3294 2193 3439 
Q 2478 3584 2822 3584 
Q 3428 3584 3742 3212 
Q 4056 2841 4056 2131 
z
" transform="scale(0.015625)"/>
     <path id="DejaVuSans-Bold-3a" d="M 716 3500 
L 1844 3500 
L 1844 2291 
L 716 2291 
L 716 3500 
z
M 716 1209 
L 1844 1209 
L 1844 0 
L 716 0 
L 716 1209 
z
" transform="scale(0.015625)"/>
     <path id="DejaVuSans-Bold-42" d="M 2456 2859 
Q 2741 2859 2887 2984 
Q 3034 3109 3034 3353 
Q 3034 3594 2887 3720 
Q 2741 3847 2456 3847 
L 1791 3847 
L 1791 2859 
L 2456 2859 
z
M 2497 819 
Q 2859 819 3042 972 
Q 3225 1125 3225 1434 
Q 3225 1738 3044 1889 
Q 2863 2041 2497 2041 
L 1791 2041 
L 1791 819 
L 2497 819 
z
M 3616 2497 
Q 4003 2384 4215 2081 
Q 4428 1778 4428 1338 
Q 4428 663 3972 331 
Q 3516 0 2584 0 
L 588 0 
L 588 4666 
L 2394 4666 
Q 3366 4666 3802 4372 
Q 4238 4078 4238 3431 
Q 4238 3091 4078 2852 
Q 3919 2613 3616 2497 
z
" transform="scale(0.015625)"/>
     <path id="DejaVuSans-Bold-64" d="M 2919 2988 
L 2919 4863 
L 4044 4863 
L 4044 0 
L 2919 0 
L 2919 506 
Q 2688 197 2409 53 
Q 2131 -91 1766 -91 
Q 1119 -91 703 423 
Q 288 938 288 1747 
Q 288 2556 703 3070 
Q 1119 3584 1766 3584 
Q 2128 3584 2408 3439 
Q 2688 3294 2919 2988 
z
M 2181 722 
Q 2541 722 2730 984 
Q 2919 1247 2919 1747 
Q 2919 2247 2730 2509 
Q 2541 2772 2181 2772 
Q 1825 2772 1636 2509 
Q 1447 2247 1447 1747 
Q 1447 1247 1636 984 
Q 1825 722 2181 722 
z
" transform="scale(0.015625)"/>
     <path id="DejaVuSans-Bold-76" d="M 97 3500 
L 1216 3500 
L 2088 1081 
L 2956 3500 
L 4078 3500 
L 2700 0 
L 1472 0 
L 97 3500 
z
" transform="scale(0.015625)"/>
     <path id="DejaVuSans-Bold-2e" d="M 653 1209 
L 1778 1209 
L 1778 0 
L 653 0 
L 653 1209 
z
" transform="scale(0.015625)"/>
     <path id="DejaVuSans-Bold-43" d="M 4288 256 
Q 3956 84 3597 -3 
Q 3238 -91 2847 -91 
Q 1681 -91 1000 561 
Q 319 1213 319 2328 
Q 319 3447 1000 4098 
Q 1681 4750 2847 4750 
Q 3238 4750 3597 4662 
Q 3956 4575 4288 4403 
L 4288 3438 
Q 3953 3666 3628 3772 
Q 3303 3878 2944 3878 
Q 2300 3878 1931 3465 
Q 1563 3053 1563 2328 
Q 1563 1606 1931 1193 
Q 2300 781 2944 781 
Q 3303 781 3628 887 
Q 3953 994 4288 1222 
L 4288 256 
z
" transform="scale(0.015625)"/>
     <path id="DejaVuSans-Bold-70" d="M 1656 506 
L 1656 -1331 
L 538 -1331 
L 538 3500 
L 1656 3500 
L 1656 2988 
Q 1888 3294 2169 3439 
Q 2450 3584 2816 3584 
Q 3463 3584 3878 3070 
Q 4294 2556 4294 1747 
Q 4294 938 3878 423 
Q 3463 -91 2816 -91 
Q 2450 -91 2169 54 
Q 1888 200 1656 506 
z
M 2400 2772 
Q 2041 2772 1848 2508 
Q 1656 2244 1656 1747 
Q 1656 1250 1848 986 
Q 2041 722 2400 722 
Q 2759 722 2948 984 
Q 3138 1247 3138 1747 
Q 3138 2247 2948 2509 
Q 2759 2772 2400 2772 
z
" transform="scale(0.015625)"/>
     <path id="DejaVuSans-Bold-63" d="M 3366 3391 
L 3366 2478 
Q 3138 2634 2908 2709 
Q 2678 2784 2431 2784 
Q 1963 2784 1702 2511 
Q 1441 2238 1441 1747 
Q 1441 1256 1702 982 
Q 1963 709 2431 709 
Q 2694 709 2930 787 
Q 3166 866 3366 1019 
L 3366 103 
Q 3103 6 2833 -42 
Q 2563 -91 2291 -91 
Q 1344 -91 809 395 
Q 275 881 275 1747 
Q 275 2613 809 3098 
Q 1344 3584 2291 3584 
Q 2566 3584 2833 3536 
Q 3100 3488 3366 3391 
z
" transform="scale(0.015625)"/>
    </defs>
    <use xlink:href="#DejaVuSans-Bold-57"/>
    <use xlink:href="#DejaVuSans-Bold-65" transform="translate(106.677734 0)"/>
    <use xlink:href="#DejaVuSans-Bold-65" transform="translate(174.5 0)"/>
    <use xlink:href="#DejaVuSans-Bold-6b" transform="translate(242.322266 0)"/>
    <use xlink:href="#DejaVuSans-Bold-6c" transform="translate(308.826172 0)"/>
    <use xlink:href="#DejaVuSans-Bold-79" transform="translate(343.103516 0)"/>
    <use xlink:href="#DejaVuSans-Bold-20" transform="translate(408.289062 0)"/>
    <use xlink:href="#DejaVuSans-Bold-73" transform="translate(443.103516 0)"/>
    <use xlink:href="#DejaVuSans-Bold-69" transform="translate(502.625 0)"/>
    <use xlink:href="#DejaVuSans-Bold-6d" transform="translate(536.902344 0)"/>
    <use xlink:href="#DejaVuSans-Bold-75" transform="translate(641.101562 0)"/>
    <use xlink:href="#DejaVuSans-Bold-6c" transform="translate(712.292969 0)"/>
    <use xlink:href="#DejaVuSans-Bold-61" transform="translate(746.570312 0)"/>
    <use xlink:href="#DejaVuSans-Bold-74" transform="translate(814.050781 0)"/>
    <use xlink:href="#DejaVuSans-Bold-69" transform="translate(861.853516 0)"/>
    <use xlink:href="#DejaVuSans-Bold-6f" transform="translate(896.130859 0)"/>
    <use xlink:href="#DejaVuSans-Bold-6e" transform="translate(964.832031 0)"/>
    <use xlink:href="#DejaVuSans-Bold-3a" transform="translate(1036.023438 0)"/>
    <use xlink:href="#DejaVuSans-Bold-20" transform="translate(1076.013672 0)"/>
    <use xlink:href="#DejaVuSans-Bold-42" transform="translate(1110.828125 0)"/>
    <use xlink:href="#DejaVuSans-Bold-61" transform="translate(1187.048828 0)"/>
    <use xlink:href="#DejaVuSans-Bold-73" transform="translate(1254.529297 0)"/>
    <use xlink:href="#DejaVuSans-Bold-65" transform="translate(1314.050781 0)"/>
    <use xlink:href="#DejaVuSans-Bold-6c" transform="translate(1381.873047 0)"/>
    <use xlink:href="#DejaVuSans-Bold-6f" transform="translate(1416.150391 0)"/>
    <use xlink:href="#DejaVuSans-Bold-61" transform="translate(1484.851562 0)"/>
    <use xlink:href="#DejaVuSans-Bold-64" transform="translate(1552.332031 0)"/>
    <use xlink:href="#DejaVuSans-Bold-20" transform="translate(1623.914062 0)"/>
    <use xlink:href="#DejaVuSans-Bold-76" transform="translate(1658.728516 0)"/>
    <use xlink:href="#DejaVuSans-Bold-73" transform="translate(1723.914062 0)"/>
    <use xlink:href="#DejaVuSans-Bold-2e" transform="translate(1783.435547 0)"/>
    <use xlink:href="#DejaVuSans-Bold-20" transform="translate(1821.423828 0)"/>
    <use xlink:href="#DejaVuSans-Bold-43" transform="translate(1856.238281 0)"/>
    <use xlink:href="#DejaVuSans-Bold-61" transform="translate(1929.626953 0)"/>
    <use xlink:href="#DejaVuSans-Bold-70" transform="translate(1997.107422 0)"/>
    <use xlink:href="#DejaVuSans-Bold-61" transform="translate(2068.689453 0)"/>
    <use xlink:href="#DejaVuSans-Bold-63" transform="translate(2136.169922 0)"/>
    <use xlink:href="#DejaVuSans-Bold-69" transform="translate(2195.447266 0)"/>
    <use xlink:href="#DejaVuSans-Bold-74" transform="translate(2229.724609 0)"/>
    <use xlink:href="#DejaVuSans-Bold-79" transform="translate(2277.527344 0)"/>
    <use xlink:href="#DejaVuSans-Bold-20" transform="translate(2342.712891 0)"/>
    <use xlink:href="#DejaVuSans-Bold-42" transform="translate(2377.527344 0)"/>
    <use xlink:href="#DejaVuSans-Bold-6c" transform="translate(2453.748047 0)"/>
    <use xlink:href="#DejaVuSans-Bold-6f" transform="translate(2488.025391 0)"/>
    <use xlink:href="#DejaVuSans-Bold-63" transform="translate(2556.726562 0)"/>
    <use xlink:href="#DejaVuSans-Bold-6b" transform="translate(2616.003906 0)"/>
    <use xlink:href="#DejaVuSans-Bold-73" transform="translate(2682.507812 0)"/>
   </g>
  </g>
 </g>
 <defs>
  <clipPath id="p091760d711">
   <rect x="40.603125" y="34.16" width="809.15" height="355.6"/>
  </clipPath>
 </defs>
</svg>
